G04 #@! TF.GenerationSoftware,KiCad,Pcbnew,(5.0.0)*
G04 #@! TF.CreationDate,2018-11-23T13:42:35+09:00*
G04 #@! TF.ProjectId,LED_hachune_1,4C45445F68616368756E655F312E6B69,rev?*
G04 #@! TF.SameCoordinates,Original*
G04 #@! TF.FileFunction,Legend,Bot*
G04 #@! TF.FilePolarity,Positive*
%FSLAX46Y46*%
G04 Gerber Fmt 4.6, Leading zero omitted, Abs format (unit mm)*
G04 Created by KiCad (PCBNEW (5.0.0)) date 11/23/18 13:42:35*
%MOMM*%
%LPD*%
G01*
G04 APERTURE LIST*
%ADD10C,0.200000*%
%ADD11C,0.010000*%
G04 APERTURE END LIST*
D10*
X92298571Y-136453571D02*
X93012857Y-136453571D01*
X93012857Y-134953571D01*
X91798571Y-135667857D02*
X91298571Y-135667857D01*
X91084285Y-136453571D02*
X91798571Y-136453571D01*
X91798571Y-134953571D01*
X91084285Y-134953571D01*
X90441428Y-136453571D02*
X90441428Y-134953571D01*
X90084285Y-134953571D01*
X89870000Y-135025000D01*
X89727142Y-135167857D01*
X89655714Y-135310714D01*
X89584285Y-135596428D01*
X89584285Y-135810714D01*
X89655714Y-136096428D01*
X89727142Y-136239285D01*
X89870000Y-136382142D01*
X90084285Y-136453571D01*
X90441428Y-136453571D01*
X89298571Y-136596428D02*
X88155714Y-136596428D01*
X87798571Y-136453571D02*
X87798571Y-134953571D01*
X87798571Y-135667857D02*
X86941428Y-135667857D01*
X86941428Y-136453571D02*
X86941428Y-134953571D01*
X85584285Y-136453571D02*
X85584285Y-135667857D01*
X85655714Y-135525000D01*
X85798571Y-135453571D01*
X86084285Y-135453571D01*
X86227142Y-135525000D01*
X85584285Y-136382142D02*
X85727142Y-136453571D01*
X86084285Y-136453571D01*
X86227142Y-136382142D01*
X86298571Y-136239285D01*
X86298571Y-136096428D01*
X86227142Y-135953571D01*
X86084285Y-135882142D01*
X85727142Y-135882142D01*
X85584285Y-135810714D01*
X84227142Y-136382142D02*
X84370000Y-136453571D01*
X84655714Y-136453571D01*
X84798571Y-136382142D01*
X84870000Y-136310714D01*
X84941428Y-136167857D01*
X84941428Y-135739285D01*
X84870000Y-135596428D01*
X84798571Y-135525000D01*
X84655714Y-135453571D01*
X84370000Y-135453571D01*
X84227142Y-135525000D01*
X83584285Y-136453571D02*
X83584285Y-134953571D01*
X82941428Y-136453571D02*
X82941428Y-135667857D01*
X83012857Y-135525000D01*
X83155714Y-135453571D01*
X83370000Y-135453571D01*
X83512857Y-135525000D01*
X83584285Y-135596428D01*
X81584285Y-135453571D02*
X81584285Y-136453571D01*
X82227142Y-135453571D02*
X82227142Y-136239285D01*
X82155714Y-136382142D01*
X82012857Y-136453571D01*
X81798571Y-136453571D01*
X81655714Y-136382142D01*
X81584285Y-136310714D01*
X80870000Y-135453571D02*
X80870000Y-136453571D01*
X80870000Y-135596428D02*
X80798571Y-135525000D01*
X80655714Y-135453571D01*
X80441428Y-135453571D01*
X80298571Y-135525000D01*
X80227142Y-135667857D01*
X80227142Y-136453571D01*
X78941428Y-136382142D02*
X79084285Y-136453571D01*
X79370000Y-136453571D01*
X79512857Y-136382142D01*
X79584285Y-136239285D01*
X79584285Y-135667857D01*
X79512857Y-135525000D01*
X79370000Y-135453571D01*
X79084285Y-135453571D01*
X78941428Y-135525000D01*
X78870000Y-135667857D01*
X78870000Y-135810714D01*
X79584285Y-135953571D01*
X76584285Y-135667857D02*
X76370000Y-135739285D01*
X76298571Y-135810714D01*
X76227142Y-135953571D01*
X76227142Y-136167857D01*
X76298571Y-136310714D01*
X76370000Y-136382142D01*
X76512857Y-136453571D01*
X77084285Y-136453571D01*
X77084285Y-134953571D01*
X76584285Y-134953571D01*
X76441428Y-135025000D01*
X76370000Y-135096428D01*
X76298571Y-135239285D01*
X76298571Y-135382142D01*
X76370000Y-135525000D01*
X76441428Y-135596428D01*
X76584285Y-135667857D01*
X77084285Y-135667857D01*
X75084285Y-135667857D02*
X74870000Y-135739285D01*
X74798571Y-135810714D01*
X74727142Y-135953571D01*
X74727142Y-136167857D01*
X74798571Y-136310714D01*
X74870000Y-136382142D01*
X75012857Y-136453571D01*
X75584285Y-136453571D01*
X75584285Y-134953571D01*
X75084285Y-134953571D01*
X74941428Y-135025000D01*
X74870000Y-135096428D01*
X74798571Y-135239285D01*
X74798571Y-135382142D01*
X74870000Y-135525000D01*
X74941428Y-135596428D01*
X75084285Y-135667857D01*
X75584285Y-135667857D01*
X74084285Y-136453571D02*
X74084285Y-134953571D01*
X73584285Y-136025000D01*
X73084285Y-134953571D01*
X73084285Y-136453571D01*
X93084285Y-137546428D02*
X93012857Y-137475000D01*
X92870000Y-137403571D01*
X92512857Y-137403571D01*
X92370000Y-137475000D01*
X92298571Y-137546428D01*
X92227142Y-137689285D01*
X92227142Y-137832142D01*
X92298571Y-138046428D01*
X93155714Y-138903571D01*
X92227142Y-138903571D01*
X91298571Y-137403571D02*
X91155714Y-137403571D01*
X91012857Y-137475000D01*
X90941428Y-137546428D01*
X90870000Y-137689285D01*
X90798571Y-137975000D01*
X90798571Y-138332142D01*
X90870000Y-138617857D01*
X90941428Y-138760714D01*
X91012857Y-138832142D01*
X91155714Y-138903571D01*
X91298571Y-138903571D01*
X91441428Y-138832142D01*
X91512857Y-138760714D01*
X91584285Y-138617857D01*
X91655714Y-138332142D01*
X91655714Y-137975000D01*
X91584285Y-137689285D01*
X91512857Y-137546428D01*
X91441428Y-137475000D01*
X91298571Y-137403571D01*
X89370000Y-138903571D02*
X90227142Y-138903571D01*
X89798571Y-138903571D02*
X89798571Y-137403571D01*
X89941428Y-137617857D01*
X90084285Y-137760714D01*
X90227142Y-137832142D01*
X88512857Y-138046428D02*
X88655714Y-137975000D01*
X88727142Y-137903571D01*
X88798571Y-137760714D01*
X88798571Y-137689285D01*
X88727142Y-137546428D01*
X88655714Y-137475000D01*
X88512857Y-137403571D01*
X88227142Y-137403571D01*
X88084285Y-137475000D01*
X88012857Y-137546428D01*
X87941428Y-137689285D01*
X87941428Y-137760714D01*
X88012857Y-137903571D01*
X88084285Y-137975000D01*
X88227142Y-138046428D01*
X88512857Y-138046428D01*
X88655714Y-138117857D01*
X88727142Y-138189285D01*
X88798571Y-138332142D01*
X88798571Y-138617857D01*
X88727142Y-138760714D01*
X88655714Y-138832142D01*
X88512857Y-138903571D01*
X88227142Y-138903571D01*
X88084285Y-138832142D01*
X88012857Y-138760714D01*
X87941428Y-138617857D01*
X87941428Y-138332142D01*
X88012857Y-138189285D01*
X88084285Y-138117857D01*
X88227142Y-138046428D01*
X86227142Y-137332142D02*
X87512857Y-139260714D01*
X84941428Y-138903571D02*
X85798571Y-138903571D01*
X85370000Y-138903571D02*
X85370000Y-137403571D01*
X85512857Y-137617857D01*
X85655714Y-137760714D01*
X85798571Y-137832142D01*
X83512857Y-138903571D02*
X84370000Y-138903571D01*
X83941428Y-138903571D02*
X83941428Y-137403571D01*
X84084285Y-137617857D01*
X84227142Y-137760714D01*
X84370000Y-137832142D01*
X81798571Y-137332142D02*
X83084285Y-139260714D01*
X81370000Y-137546428D02*
X81298571Y-137475000D01*
X81155714Y-137403571D01*
X80798571Y-137403571D01*
X80655714Y-137475000D01*
X80584285Y-137546428D01*
X80512857Y-137689285D01*
X80512857Y-137832142D01*
X80584285Y-138046428D01*
X81441428Y-138903571D01*
X80512857Y-138903571D01*
X80012857Y-137403571D02*
X79084285Y-137403571D01*
X79584285Y-137975000D01*
X79370000Y-137975000D01*
X79227142Y-138046428D01*
X79155714Y-138117857D01*
X79084285Y-138260714D01*
X79084285Y-138617857D01*
X79155714Y-138760714D01*
X79227142Y-138832142D01*
X79370000Y-138903571D01*
X79798571Y-138903571D01*
X79941428Y-138832142D01*
X80012857Y-138760714D01*
X76370000Y-138189285D02*
X76441428Y-138117857D01*
X76584285Y-138046428D01*
X76727142Y-138046428D01*
X76870000Y-138117857D01*
X76941428Y-138189285D01*
X77012857Y-138332142D01*
X77012857Y-138475000D01*
X76941428Y-138617857D01*
X76870000Y-138689285D01*
X76727142Y-138760714D01*
X76584285Y-138760714D01*
X76441428Y-138689285D01*
X76370000Y-138617857D01*
X76370000Y-138046428D02*
X76370000Y-138617857D01*
X76298571Y-138689285D01*
X76227142Y-138689285D01*
X76084285Y-138617857D01*
X76012857Y-138475000D01*
X76012857Y-138117857D01*
X76155714Y-137903571D01*
X76370000Y-137760714D01*
X76655714Y-137689285D01*
X76941428Y-137760714D01*
X77155714Y-137903571D01*
X77298571Y-138117857D01*
X77370000Y-138403571D01*
X77298571Y-138689285D01*
X77155714Y-138903571D01*
X76941428Y-139046428D01*
X76655714Y-139117857D01*
X76370000Y-139046428D01*
X76155714Y-138903571D01*
X75370000Y-137903571D02*
X75370000Y-138903571D01*
X75370000Y-138046428D02*
X75298571Y-137975000D01*
X75155714Y-137903571D01*
X74941428Y-137903571D01*
X74798571Y-137975000D01*
X74727142Y-138117857D01*
X74727142Y-138903571D01*
X74370000Y-139046428D02*
X73227142Y-139046428D01*
X73012857Y-137903571D02*
X72655714Y-138903571D01*
X72298571Y-137903571D02*
X72655714Y-138903571D01*
X72798571Y-139260714D01*
X72870000Y-139332142D01*
X73012857Y-139403571D01*
X71512857Y-138903571D02*
X71655714Y-138832142D01*
X71727142Y-138760714D01*
X71798571Y-138617857D01*
X71798571Y-138189285D01*
X71727142Y-138046428D01*
X71655714Y-137975000D01*
X71512857Y-137903571D01*
X71298571Y-137903571D01*
X71155714Y-137975000D01*
X71084285Y-138046428D01*
X71012857Y-138189285D01*
X71012857Y-138617857D01*
X71084285Y-138760714D01*
X71155714Y-138832142D01*
X71298571Y-138903571D01*
X71512857Y-138903571D01*
X70441428Y-138832142D02*
X70298571Y-138903571D01*
X70012857Y-138903571D01*
X69870000Y-138832142D01*
X69798571Y-138689285D01*
X69798571Y-138617857D01*
X69870000Y-138475000D01*
X70012857Y-138403571D01*
X70227142Y-138403571D01*
X70370000Y-138332142D01*
X70441428Y-138189285D01*
X70441428Y-138117857D01*
X70370000Y-137975000D01*
X70227142Y-137903571D01*
X70012857Y-137903571D01*
X69870000Y-137975000D01*
X69155714Y-138903571D02*
X69155714Y-137903571D01*
X69155714Y-137403571D02*
X69227142Y-137475000D01*
X69155714Y-137546428D01*
X69084285Y-137475000D01*
X69155714Y-137403571D01*
X69155714Y-137546428D01*
X68441428Y-138903571D02*
X68441428Y-137403571D01*
X67798571Y-138903571D02*
X67798571Y-138117857D01*
X67870000Y-137975000D01*
X68012857Y-137903571D01*
X68227142Y-137903571D01*
X68370000Y-137975000D01*
X68441428Y-138046428D01*
X67084285Y-138903571D02*
X67084285Y-137903571D01*
X67084285Y-137403571D02*
X67155714Y-137475000D01*
X67084285Y-137546428D01*
X67012857Y-137475000D01*
X67084285Y-137403571D01*
X67084285Y-137546428D01*
X66441428Y-138832142D02*
X66298571Y-138903571D01*
X66012857Y-138903571D01*
X65870000Y-138832142D01*
X65798571Y-138689285D01*
X65798571Y-138617857D01*
X65870000Y-138475000D01*
X66012857Y-138403571D01*
X66227142Y-138403571D01*
X66370000Y-138332142D01*
X66441428Y-138189285D01*
X66441428Y-138117857D01*
X66370000Y-137975000D01*
X66227142Y-137903571D01*
X66012857Y-137903571D01*
X65870000Y-137975000D01*
X64512857Y-138903571D02*
X64512857Y-138117857D01*
X64584285Y-137975000D01*
X64727142Y-137903571D01*
X65012857Y-137903571D01*
X65155714Y-137975000D01*
X64512857Y-138832142D02*
X64655714Y-138903571D01*
X65012857Y-138903571D01*
X65155714Y-138832142D01*
X65227142Y-138689285D01*
X65227142Y-138546428D01*
X65155714Y-138403571D01*
X65012857Y-138332142D01*
X64655714Y-138332142D01*
X64512857Y-138260714D01*
D11*
G04 #@! TO.C,G\002A\002A\002A*
G36*
X65681777Y-121449060D02*
X65607231Y-121628540D01*
X65508537Y-121876707D01*
X65398665Y-122159794D01*
X65290589Y-122444031D01*
X65197281Y-122695651D01*
X65131713Y-122880885D01*
X65106857Y-122965964D01*
X65106857Y-122966041D01*
X65174014Y-122991835D01*
X65353881Y-123011826D01*
X65614056Y-123023105D01*
X65758941Y-123024571D01*
X66411025Y-123024571D01*
X66274526Y-122679857D01*
X66084386Y-122201872D01*
X65940641Y-121846079D01*
X65837641Y-121599180D01*
X65769742Y-121447873D01*
X65731294Y-121378861D01*
X65719201Y-121372037D01*
X65681777Y-121449060D01*
X65681777Y-121449060D01*
G37*
X65681777Y-121449060D02*
X65607231Y-121628540D01*
X65508537Y-121876707D01*
X65398665Y-122159794D01*
X65290589Y-122444031D01*
X65197281Y-122695651D01*
X65131713Y-122880885D01*
X65106857Y-122965964D01*
X65106857Y-122966041D01*
X65174014Y-122991835D01*
X65353881Y-123011826D01*
X65614056Y-123023105D01*
X65758941Y-123024571D01*
X66411025Y-123024571D01*
X66274526Y-122679857D01*
X66084386Y-122201872D01*
X65940641Y-121846079D01*
X65837641Y-121599180D01*
X65769742Y-121447873D01*
X65731294Y-121378861D01*
X65719201Y-121372037D01*
X65681777Y-121449060D01*
G36*
X81379894Y-120830992D02*
X81040220Y-120960789D01*
X80921728Y-121044790D01*
X80663072Y-121350432D01*
X80476434Y-121754613D01*
X80368968Y-122226028D01*
X80347827Y-122733374D01*
X80419497Y-123242573D01*
X80578723Y-123647897D01*
X80828577Y-123970383D01*
X81145857Y-124197586D01*
X81507361Y-124317058D01*
X81889886Y-124316352D01*
X82220678Y-124208810D01*
X82543937Y-123970369D01*
X82779763Y-123619004D01*
X82926182Y-123159105D01*
X82981218Y-122595066D01*
X82981569Y-122516269D01*
X82940393Y-122048001D01*
X82829478Y-121624794D01*
X82660460Y-121279589D01*
X82468158Y-121062725D01*
X82136723Y-120882457D01*
X81759682Y-120805047D01*
X81379894Y-120830992D01*
X81379894Y-120830992D01*
G37*
X81379894Y-120830992D02*
X81040220Y-120960789D01*
X80921728Y-121044790D01*
X80663072Y-121350432D01*
X80476434Y-121754613D01*
X80368968Y-122226028D01*
X80347827Y-122733374D01*
X80419497Y-123242573D01*
X80578723Y-123647897D01*
X80828577Y-123970383D01*
X81145857Y-124197586D01*
X81507361Y-124317058D01*
X81889886Y-124316352D01*
X82220678Y-124208810D01*
X82543937Y-123970369D01*
X82779763Y-123619004D01*
X82926182Y-123159105D01*
X82981218Y-122595066D01*
X82981569Y-122516269D01*
X82940393Y-122048001D01*
X82829478Y-121624794D01*
X82660460Y-121279589D01*
X82468158Y-121062725D01*
X82136723Y-120882457D01*
X81759682Y-120805047D01*
X81379894Y-120830992D01*
G36*
X66786776Y-128914994D02*
X66716781Y-128976554D01*
X66703428Y-129120571D01*
X66717588Y-129266845D01*
X66789408Y-129326841D01*
X66957428Y-129338286D01*
X67128081Y-129326149D01*
X67198076Y-129264589D01*
X67211428Y-129120571D01*
X67197269Y-128974298D01*
X67125449Y-128914302D01*
X66957428Y-128902857D01*
X66786776Y-128914994D01*
X66786776Y-128914994D01*
G37*
X66786776Y-128914994D02*
X66716781Y-128976554D01*
X66703428Y-129120571D01*
X66717588Y-129266845D01*
X66789408Y-129326841D01*
X66957428Y-129338286D01*
X67128081Y-129326149D01*
X67198076Y-129264589D01*
X67211428Y-129120571D01*
X67197269Y-128974298D01*
X67125449Y-128914302D01*
X66957428Y-128902857D01*
X66786776Y-128914994D01*
G36*
X67671048Y-128564190D02*
X67662362Y-128650316D01*
X67671048Y-128660952D01*
X67714191Y-128650990D01*
X67719428Y-128612571D01*
X67692876Y-128552837D01*
X67671048Y-128564190D01*
X67671048Y-128564190D01*
G37*
X67671048Y-128564190D02*
X67662362Y-128650316D01*
X67671048Y-128660952D01*
X67714191Y-128650990D01*
X67719428Y-128612571D01*
X67692876Y-128552837D01*
X67671048Y-128564190D01*
G36*
X72001143Y-129084286D02*
X72037429Y-129120571D01*
X72073714Y-129084286D01*
X72037429Y-129048000D01*
X72001143Y-129084286D01*
X72001143Y-129084286D01*
G37*
X72001143Y-129084286D02*
X72037429Y-129120571D01*
X72073714Y-129084286D01*
X72037429Y-129048000D01*
X72001143Y-129084286D01*
G36*
X74275803Y-128874746D02*
X74287143Y-128902857D01*
X74352356Y-128972089D01*
X74363997Y-128975429D01*
X74395168Y-128919281D01*
X74396000Y-128902857D01*
X74340210Y-128833074D01*
X74319146Y-128830286D01*
X74275803Y-128874746D01*
X74275803Y-128874746D01*
G37*
X74275803Y-128874746D02*
X74287143Y-128902857D01*
X74352356Y-128972089D01*
X74363997Y-128975429D01*
X74395168Y-128919281D01*
X74396000Y-128902857D01*
X74340210Y-128833074D01*
X74319146Y-128830286D01*
X74275803Y-128874746D01*
G36*
X69533714Y-128721429D02*
X69570000Y-128757714D01*
X69606286Y-128721429D01*
X69570000Y-128685143D01*
X69533714Y-128721429D01*
X69533714Y-128721429D01*
G37*
X69533714Y-128721429D02*
X69570000Y-128757714D01*
X69606286Y-128721429D01*
X69570000Y-128685143D01*
X69533714Y-128721429D01*
G36*
X69245537Y-128885511D02*
X69243429Y-128902857D01*
X69298654Y-128973320D01*
X69316000Y-128975429D01*
X69386463Y-128920203D01*
X69388571Y-128902857D01*
X69333346Y-128832394D01*
X69316000Y-128830286D01*
X69245537Y-128885511D01*
X69245537Y-128885511D01*
G37*
X69245537Y-128885511D02*
X69243429Y-128902857D01*
X69298654Y-128973320D01*
X69316000Y-128975429D01*
X69386463Y-128920203D01*
X69388571Y-128902857D01*
X69333346Y-128832394D01*
X69316000Y-128830286D01*
X69245537Y-128885511D01*
G36*
X68900226Y-129149298D02*
X68921870Y-129182282D01*
X68995476Y-129187413D01*
X69072912Y-129169690D01*
X69039321Y-129143568D01*
X68925901Y-129134917D01*
X68900226Y-129149298D01*
X68900226Y-129149298D01*
G37*
X68900226Y-129149298D02*
X68921870Y-129182282D01*
X68995476Y-129187413D01*
X69072912Y-129169690D01*
X69039321Y-129143568D01*
X68925901Y-129134917D01*
X68900226Y-129149298D01*
G36*
X69316000Y-129156857D02*
X69352286Y-129193143D01*
X69388571Y-129156857D01*
X69352286Y-129120571D01*
X69316000Y-129156857D01*
X69316000Y-129156857D01*
G37*
X69316000Y-129156857D02*
X69352286Y-129193143D01*
X69388571Y-129156857D01*
X69352286Y-129120571D01*
X69316000Y-129156857D01*
G36*
X69553369Y-129149298D02*
X69575013Y-129182282D01*
X69648619Y-129187413D01*
X69726055Y-129169690D01*
X69692464Y-129143568D01*
X69579044Y-129134917D01*
X69553369Y-129149298D01*
X69553369Y-129149298D01*
G37*
X69553369Y-129149298D02*
X69575013Y-129182282D01*
X69648619Y-129187413D01*
X69726055Y-129169690D01*
X69692464Y-129143568D01*
X69579044Y-129134917D01*
X69553369Y-129149298D01*
G36*
X70187968Y-129138714D02*
X70243309Y-129246295D01*
X70307809Y-129265714D01*
X70379079Y-129241418D01*
X70363082Y-129211286D01*
X70256793Y-129101618D01*
X70243241Y-129084286D01*
X70198343Y-129077180D01*
X70187968Y-129138714D01*
X70187968Y-129138714D01*
G37*
X70187968Y-129138714D02*
X70243309Y-129246295D01*
X70307809Y-129265714D01*
X70379079Y-129241418D01*
X70363082Y-129211286D01*
X70256793Y-129101618D01*
X70243241Y-129084286D01*
X70198343Y-129077180D01*
X70187968Y-129138714D01*
G36*
X70864190Y-129217333D02*
X70874152Y-129260477D01*
X70912571Y-129265714D01*
X70972306Y-129239161D01*
X70960952Y-129217333D01*
X70874827Y-129208648D01*
X70864190Y-129217333D01*
X70864190Y-129217333D01*
G37*
X70864190Y-129217333D02*
X70874152Y-129260477D01*
X70912571Y-129265714D01*
X70972306Y-129239161D01*
X70960952Y-129217333D01*
X70874827Y-129208648D01*
X70864190Y-129217333D01*
G36*
X70842077Y-129462944D02*
X70840000Y-129479146D01*
X70892752Y-129577432D01*
X70912571Y-129592286D01*
X70974700Y-129575834D01*
X70985143Y-129523997D01*
X70947253Y-129424704D01*
X70912571Y-129410857D01*
X70842077Y-129462944D01*
X70842077Y-129462944D01*
G37*
X70842077Y-129462944D02*
X70840000Y-129479146D01*
X70892752Y-129577432D01*
X70912571Y-129592286D01*
X70974700Y-129575834D01*
X70985143Y-129523997D01*
X70947253Y-129424704D01*
X70912571Y-129410857D01*
X70842077Y-129462944D01*
G36*
X73452571Y-128721429D02*
X73488857Y-128757714D01*
X73525143Y-128721429D01*
X73488857Y-128685143D01*
X73452571Y-128721429D01*
X73452571Y-128721429D01*
G37*
X73452571Y-128721429D02*
X73488857Y-128757714D01*
X73525143Y-128721429D01*
X73488857Y-128685143D01*
X73452571Y-128721429D01*
G36*
X73475568Y-129106964D02*
X73466917Y-129220385D01*
X73481298Y-129246059D01*
X73514282Y-129224416D01*
X73519413Y-129150809D01*
X73501690Y-129073373D01*
X73475568Y-129106964D01*
X73475568Y-129106964D01*
G37*
X73475568Y-129106964D02*
X73466917Y-129220385D01*
X73481298Y-129246059D01*
X73514282Y-129224416D01*
X73519413Y-129150809D01*
X73501690Y-129073373D01*
X73475568Y-129106964D01*
G36*
X72881497Y-129147622D02*
X72886946Y-129277626D01*
X72913621Y-129447143D01*
X72972008Y-129278388D01*
X73001327Y-129133771D01*
X72987483Y-129066721D01*
X72917762Y-129052062D01*
X72881497Y-129147622D01*
X72881497Y-129147622D01*
G37*
X72881497Y-129147622D02*
X72886946Y-129277626D01*
X72913621Y-129447143D01*
X72972008Y-129278388D01*
X73001327Y-129133771D01*
X72987483Y-129066721D01*
X72917762Y-129052062D01*
X72881497Y-129147622D01*
G36*
X72768326Y-130976326D02*
X72672523Y-131152459D01*
X72664317Y-131361988D01*
X72730414Y-131558703D01*
X72857523Y-131696398D01*
X72986041Y-131733143D01*
X73047080Y-131694537D01*
X73079670Y-131562234D01*
X73089699Y-131311508D01*
X73089714Y-131297714D01*
X73071976Y-131018654D01*
X73015443Y-130875763D01*
X72915137Y-130864065D01*
X72768326Y-130976326D01*
X72768326Y-130976326D01*
G37*
X72768326Y-130976326D02*
X72672523Y-131152459D01*
X72664317Y-131361988D01*
X72730414Y-131558703D01*
X72857523Y-131696398D01*
X72986041Y-131733143D01*
X73047080Y-131694537D01*
X73079670Y-131562234D01*
X73089699Y-131311508D01*
X73089714Y-131297714D01*
X73071976Y-131018654D01*
X73015443Y-130875763D01*
X72915137Y-130864065D01*
X72768326Y-130976326D01*
G36*
X61625383Y-131207925D02*
X61623428Y-131225143D01*
X61682499Y-131288832D01*
X61736569Y-131297714D01*
X61811684Y-131262532D01*
X61804857Y-131225143D01*
X61712078Y-131155340D01*
X61691717Y-131152571D01*
X61625383Y-131207925D01*
X61625383Y-131207925D01*
G37*
X61625383Y-131207925D02*
X61623428Y-131225143D01*
X61682499Y-131288832D01*
X61736569Y-131297714D01*
X61811684Y-131262532D01*
X61804857Y-131225143D01*
X61712078Y-131155340D01*
X61691717Y-131152571D01*
X61625383Y-131207925D01*
G36*
X62823635Y-131186260D02*
X62751044Y-131294990D01*
X62726697Y-131471223D01*
X62729486Y-131509832D01*
X62782183Y-131664995D01*
X62876110Y-131722406D01*
X62952393Y-131686274D01*
X62995892Y-131567525D01*
X62997486Y-131393192D01*
X62961768Y-131238196D01*
X62921600Y-131183843D01*
X62823635Y-131186260D01*
X62823635Y-131186260D01*
G37*
X62823635Y-131186260D02*
X62751044Y-131294990D01*
X62726697Y-131471223D01*
X62729486Y-131509832D01*
X62782183Y-131664995D01*
X62876110Y-131722406D01*
X62952393Y-131686274D01*
X62995892Y-131567525D01*
X62997486Y-131393192D01*
X62961768Y-131238196D01*
X62921600Y-131183843D01*
X62823635Y-131186260D01*
G36*
X64068343Y-130968868D02*
X64054571Y-131043714D01*
X64097384Y-131170835D01*
X64145286Y-131207000D01*
X64215857Y-131171277D01*
X64236000Y-131043714D01*
X64208228Y-130902420D01*
X64145286Y-130880428D01*
X64068343Y-130968868D01*
X64068343Y-130968868D01*
G37*
X64068343Y-130968868D02*
X64054571Y-131043714D01*
X64097384Y-131170835D01*
X64145286Y-131207000D01*
X64215857Y-131171277D01*
X64236000Y-131043714D01*
X64208228Y-130902420D01*
X64145286Y-130880428D01*
X64068343Y-130968868D01*
G36*
X66560240Y-131207925D02*
X66558286Y-131225143D01*
X66617356Y-131288832D01*
X66671426Y-131297714D01*
X66746541Y-131262532D01*
X66739714Y-131225143D01*
X66646935Y-131155340D01*
X66626574Y-131152571D01*
X66560240Y-131207925D01*
X66560240Y-131207925D01*
G37*
X66560240Y-131207925D02*
X66558286Y-131225143D01*
X66617356Y-131288832D01*
X66671426Y-131297714D01*
X66746541Y-131262532D01*
X66739714Y-131225143D01*
X66646935Y-131155340D01*
X66626574Y-131152571D01*
X66560240Y-131207925D01*
G36*
X69379724Y-131245374D02*
X69352346Y-131424279D01*
X69352286Y-131436809D01*
X69380436Y-131613707D01*
X69447261Y-131713172D01*
X69526320Y-131711677D01*
X69575701Y-131635598D01*
X69603637Y-131459329D01*
X69571888Y-131294256D01*
X69494888Y-131196665D01*
X69461143Y-131188857D01*
X69379724Y-131245374D01*
X69379724Y-131245374D01*
G37*
X69379724Y-131245374D02*
X69352346Y-131424279D01*
X69352286Y-131436809D01*
X69380436Y-131613707D01*
X69447261Y-131713172D01*
X69526320Y-131711677D01*
X69575701Y-131635598D01*
X69603637Y-131459329D01*
X69571888Y-131294256D01*
X69494888Y-131196665D01*
X69461143Y-131188857D01*
X69379724Y-131245374D01*
G36*
X70551823Y-131207796D02*
X70549714Y-131225143D01*
X70604939Y-131295605D01*
X70622286Y-131297714D01*
X70692748Y-131242489D01*
X70694857Y-131225143D01*
X70639632Y-131154680D01*
X70622286Y-131152571D01*
X70551823Y-131207796D01*
X70551823Y-131207796D01*
G37*
X70551823Y-131207796D02*
X70549714Y-131225143D01*
X70604939Y-131295605D01*
X70622286Y-131297714D01*
X70692748Y-131242489D01*
X70694857Y-131225143D01*
X70639632Y-131154680D01*
X70622286Y-131152571D01*
X70551823Y-131207796D01*
G36*
X71996128Y-131191956D02*
X71931779Y-131262014D01*
X72005071Y-131296295D01*
X72041711Y-131297714D01*
X72116457Y-131262009D01*
X72109268Y-131223959D01*
X72022295Y-131182095D01*
X71996128Y-131191956D01*
X71996128Y-131191956D01*
G37*
X71996128Y-131191956D02*
X71931779Y-131262014D01*
X72005071Y-131296295D01*
X72041711Y-131297714D01*
X72116457Y-131262009D01*
X72109268Y-131223959D01*
X72022295Y-131182095D01*
X71996128Y-131191956D01*
G36*
X74107823Y-131207796D02*
X74105714Y-131225143D01*
X74160939Y-131295605D01*
X74178286Y-131297714D01*
X74248748Y-131242489D01*
X74250857Y-131225143D01*
X74195632Y-131154680D01*
X74178286Y-131152571D01*
X74107823Y-131207796D01*
X74107823Y-131207796D01*
G37*
X74107823Y-131207796D02*
X74105714Y-131225143D01*
X74160939Y-131295605D01*
X74178286Y-131297714D01*
X74248748Y-131242489D01*
X74250857Y-131225143D01*
X74195632Y-131154680D01*
X74178286Y-131152571D01*
X74107823Y-131207796D01*
G36*
X76495557Y-131191956D02*
X76431207Y-131262014D01*
X76504500Y-131296295D01*
X76541140Y-131297714D01*
X76615885Y-131262009D01*
X76608697Y-131223959D01*
X76521724Y-131182095D01*
X76495557Y-131191956D01*
X76495557Y-131191956D01*
G37*
X76495557Y-131191956D02*
X76431207Y-131262014D01*
X76504500Y-131296295D01*
X76541140Y-131297714D01*
X76615885Y-131262009D01*
X76608697Y-131223959D01*
X76521724Y-131182095D01*
X76495557Y-131191956D01*
G36*
X77671346Y-131548846D02*
X77675321Y-131592536D01*
X77767203Y-131702518D01*
X77802321Y-131719536D01*
X77869796Y-131699725D01*
X77865821Y-131656036D01*
X77773940Y-131546054D01*
X77738821Y-131529036D01*
X77671346Y-131548846D01*
X77671346Y-131548846D01*
G37*
X77671346Y-131548846D02*
X77675321Y-131592536D01*
X77767203Y-131702518D01*
X77802321Y-131719536D01*
X77869796Y-131699725D01*
X77865821Y-131656036D01*
X77773940Y-131546054D01*
X77738821Y-131529036D01*
X77671346Y-131548846D01*
G36*
X79559295Y-131602737D02*
X79599647Y-131668104D01*
X79690588Y-131703827D01*
X79722993Y-131671909D01*
X79716576Y-131573609D01*
X79690070Y-131549462D01*
X79587043Y-131532536D01*
X79559295Y-131602737D01*
X79559295Y-131602737D01*
G37*
X79559295Y-131602737D02*
X79599647Y-131668104D01*
X79690588Y-131703827D01*
X79722993Y-131671909D01*
X79716576Y-131573609D01*
X79690070Y-131549462D01*
X79587043Y-131532536D01*
X79559295Y-131602737D01*
G36*
X80694389Y-131248696D02*
X80650399Y-131388177D01*
X80654835Y-131547243D01*
X80712217Y-131665841D01*
X80744840Y-131686370D01*
X80863614Y-131675603D01*
X80899629Y-131628340D01*
X80925497Y-131455759D01*
X80892021Y-131292527D01*
X80814561Y-131196173D01*
X80782286Y-131188857D01*
X80694389Y-131248696D01*
X80694389Y-131248696D01*
G37*
X80694389Y-131248696D02*
X80650399Y-131388177D01*
X80654835Y-131547243D01*
X80712217Y-131665841D01*
X80744840Y-131686370D01*
X80863614Y-131675603D01*
X80899629Y-131628340D01*
X80925497Y-131455759D01*
X80892021Y-131292527D01*
X80814561Y-131196173D01*
X80782286Y-131188857D01*
X80694389Y-131248696D01*
G36*
X81502985Y-131191956D02*
X81438636Y-131262014D01*
X81511928Y-131296295D01*
X81548569Y-131297714D01*
X81623314Y-131262009D01*
X81616125Y-131223959D01*
X81529153Y-131182095D01*
X81502985Y-131191956D01*
X81502985Y-131191956D01*
G37*
X81502985Y-131191956D02*
X81438636Y-131262014D01*
X81511928Y-131296295D01*
X81548569Y-131297714D01*
X81623314Y-131262009D01*
X81616125Y-131223959D01*
X81529153Y-131182095D01*
X81502985Y-131191956D01*
G36*
X84130203Y-131548846D02*
X84134178Y-131592536D01*
X84226060Y-131702518D01*
X84261178Y-131719536D01*
X84328654Y-131699725D01*
X84324678Y-131656036D01*
X84232797Y-131546054D01*
X84197678Y-131529036D01*
X84130203Y-131548846D01*
X84130203Y-131548846D01*
G37*
X84130203Y-131548846D02*
X84134178Y-131592536D01*
X84226060Y-131702518D01*
X84261178Y-131719536D01*
X84328654Y-131699725D01*
X84324678Y-131656036D01*
X84232797Y-131546054D01*
X84197678Y-131529036D01*
X84130203Y-131548846D01*
G36*
X85994378Y-131209074D02*
X85954649Y-131246820D01*
X85877431Y-131421272D01*
X85890545Y-131545572D01*
X85968241Y-131694753D01*
X86070867Y-131723464D01*
X86159356Y-131627514D01*
X86176667Y-131576267D01*
X86177170Y-131383911D01*
X86141761Y-131277515D01*
X86071402Y-131180731D01*
X85994378Y-131209074D01*
X85994378Y-131209074D01*
G37*
X85994378Y-131209074D02*
X85954649Y-131246820D01*
X85877431Y-131421272D01*
X85890545Y-131545572D01*
X85968241Y-131694753D01*
X86070867Y-131723464D01*
X86159356Y-131627514D01*
X86176667Y-131576267D01*
X86177170Y-131383911D01*
X86141761Y-131277515D01*
X86071402Y-131180731D01*
X85994378Y-131209074D01*
G36*
X68546059Y-131280222D02*
X68517911Y-131456010D01*
X68517714Y-131479143D01*
X68541320Y-131667005D01*
X68616657Y-131732684D01*
X68626571Y-131733143D01*
X68707084Y-131678063D01*
X68735232Y-131502276D01*
X68735428Y-131479143D01*
X68711823Y-131291280D01*
X68636486Y-131225602D01*
X68626571Y-131225143D01*
X68546059Y-131280222D01*
X68546059Y-131280222D01*
G37*
X68546059Y-131280222D02*
X68517911Y-131456010D01*
X68517714Y-131479143D01*
X68541320Y-131667005D01*
X68616657Y-131732684D01*
X68626571Y-131733143D01*
X68707084Y-131678063D01*
X68735232Y-131502276D01*
X68735428Y-131479143D01*
X68711823Y-131291280D01*
X68636486Y-131225602D01*
X68626571Y-131225143D01*
X68546059Y-131280222D01*
G36*
X95233940Y-120808899D02*
X95056993Y-120898862D01*
X94824053Y-121026503D01*
X94566586Y-121173580D01*
X94316061Y-121321848D01*
X94103944Y-121453064D01*
X93961703Y-121548987D01*
X93919242Y-121588935D01*
X93972144Y-121655489D01*
X94112477Y-121780528D01*
X94310178Y-121937320D01*
X94315721Y-121941510D01*
X94713727Y-122242008D01*
X94480560Y-122566688D01*
X94343950Y-122751135D01*
X94240078Y-122880906D01*
X94203127Y-122918726D01*
X94128995Y-122891020D01*
X93966645Y-122794043D01*
X93744222Y-122645281D01*
X93609493Y-122549899D01*
X93360808Y-122376553D01*
X93151542Y-122241717D01*
X93012331Y-122164613D01*
X92978142Y-122153714D01*
X92890642Y-122187941D01*
X92709560Y-122280217D01*
X92461909Y-122414937D01*
X92174703Y-122576498D01*
X91874955Y-122749294D01*
X91589679Y-122917720D01*
X91345889Y-123066172D01*
X91170598Y-123179044D01*
X91090819Y-123240733D01*
X91088687Y-123245186D01*
X91150141Y-123283956D01*
X91322850Y-123378969D01*
X91588609Y-123520846D01*
X91929212Y-123700204D01*
X92326455Y-123907664D01*
X92762133Y-124133845D01*
X93218039Y-124369366D01*
X93675970Y-124604845D01*
X94117720Y-124830903D01*
X94525084Y-125038158D01*
X94879857Y-125217230D01*
X95163834Y-125358738D01*
X95358810Y-125453301D01*
X95446580Y-125491539D01*
X95448845Y-125491904D01*
X95516537Y-125457040D01*
X95694631Y-125358280D01*
X95967829Y-125204300D01*
X96320835Y-125003775D01*
X96738353Y-124765381D01*
X97205085Y-124497793D01*
X97455571Y-124353780D01*
X97940486Y-124073250D01*
X98382308Y-123814809D01*
X98765966Y-123587496D01*
X99076389Y-123400355D01*
X99298507Y-123262424D01*
X99417246Y-123182745D01*
X99433143Y-123167484D01*
X99373083Y-123122130D01*
X99204930Y-123015465D01*
X98946723Y-122857990D01*
X98616500Y-122660208D01*
X98232300Y-122432621D01*
X97812163Y-122185730D01*
X97374126Y-121930038D01*
X96936229Y-121676047D01*
X96516510Y-121434258D01*
X96133009Y-121215174D01*
X95803763Y-121029296D01*
X95546813Y-120887127D01*
X95380196Y-120799169D01*
X95323426Y-120774857D01*
X95233940Y-120808899D01*
X95233940Y-120808899D01*
G37*
X95233940Y-120808899D02*
X95056993Y-120898862D01*
X94824053Y-121026503D01*
X94566586Y-121173580D01*
X94316061Y-121321848D01*
X94103944Y-121453064D01*
X93961703Y-121548987D01*
X93919242Y-121588935D01*
X93972144Y-121655489D01*
X94112477Y-121780528D01*
X94310178Y-121937320D01*
X94315721Y-121941510D01*
X94713727Y-122242008D01*
X94480560Y-122566688D01*
X94343950Y-122751135D01*
X94240078Y-122880906D01*
X94203127Y-122918726D01*
X94128995Y-122891020D01*
X93966645Y-122794043D01*
X93744222Y-122645281D01*
X93609493Y-122549899D01*
X93360808Y-122376553D01*
X93151542Y-122241717D01*
X93012331Y-122164613D01*
X92978142Y-122153714D01*
X92890642Y-122187941D01*
X92709560Y-122280217D01*
X92461909Y-122414937D01*
X92174703Y-122576498D01*
X91874955Y-122749294D01*
X91589679Y-122917720D01*
X91345889Y-123066172D01*
X91170598Y-123179044D01*
X91090819Y-123240733D01*
X91088687Y-123245186D01*
X91150141Y-123283956D01*
X91322850Y-123378969D01*
X91588609Y-123520846D01*
X91929212Y-123700204D01*
X92326455Y-123907664D01*
X92762133Y-124133845D01*
X93218039Y-124369366D01*
X93675970Y-124604845D01*
X94117720Y-124830903D01*
X94525084Y-125038158D01*
X94879857Y-125217230D01*
X95163834Y-125358738D01*
X95358810Y-125453301D01*
X95446580Y-125491539D01*
X95448845Y-125491904D01*
X95516537Y-125457040D01*
X95694631Y-125358280D01*
X95967829Y-125204300D01*
X96320835Y-125003775D01*
X96738353Y-124765381D01*
X97205085Y-124497793D01*
X97455571Y-124353780D01*
X97940486Y-124073250D01*
X98382308Y-123814809D01*
X98765966Y-123587496D01*
X99076389Y-123400355D01*
X99298507Y-123262424D01*
X99417246Y-123182745D01*
X99433143Y-123167484D01*
X99373083Y-123122130D01*
X99204930Y-123015465D01*
X98946723Y-122857990D01*
X98616500Y-122660208D01*
X98232300Y-122432621D01*
X97812163Y-122185730D01*
X97374126Y-121930038D01*
X96936229Y-121676047D01*
X96516510Y-121434258D01*
X96133009Y-121215174D01*
X95803763Y-121029296D01*
X95546813Y-120887127D01*
X95380196Y-120799169D01*
X95323426Y-120774857D01*
X95233940Y-120808899D01*
G36*
X90547822Y-124401615D02*
X90537399Y-124599597D01*
X90529307Y-124909446D01*
X90523792Y-125314528D01*
X90521096Y-125798212D01*
X90521464Y-126343865D01*
X90524047Y-126803275D01*
X90543143Y-129275693D01*
X92575143Y-130451849D01*
X93070846Y-130738893D01*
X93528040Y-131003875D01*
X93931103Y-131237721D01*
X94264413Y-131431358D01*
X94512345Y-131575712D01*
X94659278Y-131661712D01*
X94692009Y-131681242D01*
X94747055Y-131662534D01*
X94790564Y-131520771D01*
X94822803Y-131280240D01*
X94833857Y-131090704D01*
X94842444Y-130779123D01*
X94848353Y-130368575D01*
X94851374Y-129882140D01*
X94851296Y-129342897D01*
X94847908Y-128773925D01*
X94846794Y-128656612D01*
X94824857Y-126487224D01*
X92720286Y-125410315D01*
X92210743Y-125150384D01*
X91742296Y-124912955D01*
X91330607Y-124705845D01*
X90991339Y-124536875D01*
X90740155Y-124413861D01*
X90592719Y-124344623D01*
X90560333Y-124332131D01*
X90547822Y-124401615D01*
X90547822Y-124401615D01*
G37*
X90547822Y-124401615D02*
X90537399Y-124599597D01*
X90529307Y-124909446D01*
X90523792Y-125314528D01*
X90521096Y-125798212D01*
X90521464Y-126343865D01*
X90524047Y-126803275D01*
X90543143Y-129275693D01*
X92575143Y-130451849D01*
X93070846Y-130738893D01*
X93528040Y-131003875D01*
X93931103Y-131237721D01*
X94264413Y-131431358D01*
X94512345Y-131575712D01*
X94659278Y-131661712D01*
X94692009Y-131681242D01*
X94747055Y-131662534D01*
X94790564Y-131520771D01*
X94822803Y-131280240D01*
X94833857Y-131090704D01*
X94842444Y-130779123D01*
X94848353Y-130368575D01*
X94851374Y-129882140D01*
X94851296Y-129342897D01*
X94847908Y-128773925D01*
X94846794Y-128656612D01*
X94824857Y-126487224D01*
X92720286Y-125410315D01*
X92210743Y-125150384D01*
X91742296Y-124912955D01*
X91330607Y-124705845D01*
X90991339Y-124536875D01*
X90740155Y-124413861D01*
X90592719Y-124344623D01*
X90560333Y-124332131D01*
X90547822Y-124401615D01*
G36*
X100135621Y-124161074D02*
X99958974Y-124255024D01*
X99686636Y-124405314D01*
X99333485Y-124603609D01*
X98914399Y-124841576D01*
X98444255Y-125110882D01*
X98118375Y-125298762D01*
X96058571Y-126489251D01*
X96004531Y-128185911D01*
X95989105Y-128740772D01*
X95977114Y-129314218D01*
X95969084Y-129867794D01*
X95965540Y-130363046D01*
X95967007Y-130761518D01*
X95968245Y-130842956D01*
X95986000Y-131803341D01*
X100267714Y-129291449D01*
X100265304Y-129000045D01*
X99113227Y-129000045D01*
X99044165Y-129100730D01*
X98889604Y-129258991D01*
X98794440Y-129350561D01*
X98592530Y-129539213D01*
X98449447Y-129646663D01*
X98319583Y-129692509D01*
X98157330Y-129696345D01*
X98014381Y-129685716D01*
X97789667Y-129661900D01*
X97631561Y-129635457D01*
X97585534Y-129619438D01*
X97574817Y-129531282D01*
X97592091Y-129432801D01*
X97638257Y-129332343D01*
X97732804Y-129314891D01*
X97860876Y-129345256D01*
X98025729Y-129389402D01*
X98143026Y-129395462D01*
X98253252Y-129347780D01*
X98396889Y-129230697D01*
X98568299Y-129071639D01*
X98762166Y-128895029D01*
X98883456Y-128806093D01*
X98963421Y-128791082D01*
X99033311Y-128836249D01*
X99055047Y-128857521D01*
X99111837Y-128928466D01*
X99113227Y-129000045D01*
X100265304Y-129000045D01*
X100246469Y-126723384D01*
X100244089Y-126468505D01*
X99288000Y-126468505D01*
X99282740Y-126767347D01*
X99268645Y-127009369D01*
X99248243Y-127159197D01*
X99236558Y-127188395D01*
X99129999Y-127221534D01*
X99036986Y-127218633D01*
X98967876Y-127196965D01*
X98922800Y-127137410D01*
X98895269Y-127012373D01*
X98879102Y-126798286D01*
X97618857Y-126798286D01*
X97618857Y-128322286D01*
X97256000Y-128322286D01*
X97256000Y-126798286D01*
X97618857Y-126798286D01*
X98879102Y-126798286D01*
X98878797Y-126794259D01*
X98868218Y-126500814D01*
X98862923Y-126157275D01*
X98873541Y-125930387D01*
X98903284Y-125792216D01*
X98955364Y-125714827D01*
X98958933Y-125711786D01*
X99075857Y-125656151D01*
X99179143Y-125709714D01*
X99234878Y-125796380D01*
X99269064Y-125960813D01*
X99285326Y-126228273D01*
X99288000Y-126468505D01*
X100244089Y-126468505D01*
X100240907Y-126127954D01*
X100234566Y-125580044D01*
X100227732Y-125096185D01*
X100220689Y-124692911D01*
X100213724Y-124386754D01*
X100207123Y-124194247D01*
X100201701Y-124131796D01*
X100135621Y-124161074D01*
X100135621Y-124161074D01*
G37*
X100135621Y-124161074D02*
X99958974Y-124255024D01*
X99686636Y-124405314D01*
X99333485Y-124603609D01*
X98914399Y-124841576D01*
X98444255Y-125110882D01*
X98118375Y-125298762D01*
X96058571Y-126489251D01*
X96004531Y-128185911D01*
X95989105Y-128740772D01*
X95977114Y-129314218D01*
X95969084Y-129867794D01*
X95965540Y-130363046D01*
X95967007Y-130761518D01*
X95968245Y-130842956D01*
X95986000Y-131803341D01*
X100267714Y-129291449D01*
X100265304Y-129000045D01*
X99113227Y-129000045D01*
X99044165Y-129100730D01*
X98889604Y-129258991D01*
X98794440Y-129350561D01*
X98592530Y-129539213D01*
X98449447Y-129646663D01*
X98319583Y-129692509D01*
X98157330Y-129696345D01*
X98014381Y-129685716D01*
X97789667Y-129661900D01*
X97631561Y-129635457D01*
X97585534Y-129619438D01*
X97574817Y-129531282D01*
X97592091Y-129432801D01*
X97638257Y-129332343D01*
X97732804Y-129314891D01*
X97860876Y-129345256D01*
X98025729Y-129389402D01*
X98143026Y-129395462D01*
X98253252Y-129347780D01*
X98396889Y-129230697D01*
X98568299Y-129071639D01*
X98762166Y-128895029D01*
X98883456Y-128806093D01*
X98963421Y-128791082D01*
X99033311Y-128836249D01*
X99055047Y-128857521D01*
X99111837Y-128928466D01*
X99113227Y-129000045D01*
X100265304Y-129000045D01*
X100246469Y-126723384D01*
X100244089Y-126468505D01*
X99288000Y-126468505D01*
X99282740Y-126767347D01*
X99268645Y-127009369D01*
X99248243Y-127159197D01*
X99236558Y-127188395D01*
X99129999Y-127221534D01*
X99036986Y-127218633D01*
X98967876Y-127196965D01*
X98922800Y-127137410D01*
X98895269Y-127012373D01*
X98879102Y-126798286D01*
X97618857Y-126798286D01*
X97618857Y-128322286D01*
X97256000Y-128322286D01*
X97256000Y-126798286D01*
X97618857Y-126798286D01*
X98879102Y-126798286D01*
X98878797Y-126794259D01*
X98868218Y-126500814D01*
X98862923Y-126157275D01*
X98873541Y-125930387D01*
X98903284Y-125792216D01*
X98955364Y-125714827D01*
X98958933Y-125711786D01*
X99075857Y-125656151D01*
X99179143Y-125709714D01*
X99234878Y-125796380D01*
X99269064Y-125960813D01*
X99285326Y-126228273D01*
X99288000Y-126468505D01*
X100244089Y-126468505D01*
X100240907Y-126127954D01*
X100234566Y-125580044D01*
X100227732Y-125096185D01*
X100220689Y-124692911D01*
X100213724Y-124386754D01*
X100207123Y-124194247D01*
X100201701Y-124131796D01*
X100135621Y-124161074D01*
G36*
X59228571Y-133765143D02*
X102771428Y-133765143D01*
X102771428Y-129949935D01*
X101428857Y-129949935D01*
X98489714Y-131674775D01*
X97892394Y-132023535D01*
X97330859Y-132347980D01*
X96817941Y-132640939D01*
X96366474Y-132895240D01*
X95989291Y-133103712D01*
X95699226Y-133259185D01*
X95509112Y-133354487D01*
X95433056Y-133382807D01*
X95347990Y-133344024D01*
X95150396Y-133239517D01*
X94853208Y-133076543D01*
X94469359Y-132862358D01*
X94011781Y-132604219D01*
X93493407Y-132309383D01*
X92927172Y-131985105D01*
X92529451Y-131755951D01*
X87096000Y-131755951D01*
X87042193Y-131894600D01*
X86910334Y-131953750D01*
X86744766Y-131931917D01*
X86589829Y-131827616D01*
X86548229Y-131774295D01*
X86479673Y-131595889D01*
X86519883Y-131447551D01*
X86388248Y-131447551D01*
X86364214Y-131609170D01*
X86257476Y-131841909D01*
X86106683Y-131937786D01*
X85905936Y-131899981D01*
X85863413Y-131878889D01*
X85729151Y-131733406D01*
X85672003Y-131516664D01*
X85677922Y-131469675D01*
X85566914Y-131469675D01*
X85523643Y-131688807D01*
X85451895Y-131818143D01*
X85327016Y-131929181D01*
X85205204Y-131939195D01*
X85106221Y-131906807D01*
X85001369Y-131821840D01*
X85017932Y-131732259D01*
X85144035Y-131690894D01*
X85154714Y-131691095D01*
X85265548Y-131673242D01*
X85310923Y-131581963D01*
X85318000Y-131442857D01*
X85317546Y-131436809D01*
X84846286Y-131436809D01*
X84838187Y-131691378D01*
X84809358Y-131828949D01*
X84752995Y-131876998D01*
X84736993Y-131878286D01*
X84674190Y-131848018D01*
X84645408Y-131737673D01*
X84645120Y-131685952D01*
X84548359Y-131685952D01*
X84490208Y-131833831D01*
X84389805Y-131885674D01*
X84229118Y-131912475D01*
X84059040Y-131913791D01*
X83930464Y-131889180D01*
X83893954Y-131839010D01*
X83944329Y-131693302D01*
X83972390Y-131544089D01*
X83991032Y-131334000D01*
X84001833Y-131249333D01*
X83757714Y-131249333D01*
X83752491Y-131532448D01*
X83738588Y-131756905D01*
X83718655Y-131885525D01*
X83711306Y-131900503D01*
X83632992Y-131928421D01*
X83579219Y-131826884D01*
X83548685Y-131591007D01*
X83540741Y-131285619D01*
X82959428Y-131285619D01*
X82951173Y-131594078D01*
X82929453Y-131803679D01*
X82898840Y-131904155D01*
X82863906Y-131885239D01*
X82829221Y-131736664D01*
X82813658Y-131613008D01*
X82776745Y-131261428D01*
X82681030Y-131533571D01*
X82579744Y-131732350D01*
X82473649Y-131796966D01*
X82379479Y-131725719D01*
X82323994Y-131569857D01*
X82272759Y-131334000D01*
X82235094Y-131608546D01*
X82192087Y-131821438D01*
X82144795Y-131897953D01*
X82098966Y-131846507D01*
X82060353Y-131675519D01*
X82043242Y-131487308D01*
X81870931Y-131487308D01*
X81812899Y-131703779D01*
X81709567Y-131837885D01*
X81529748Y-131935324D01*
X81382997Y-131928382D01*
X81292387Y-131881120D01*
X81229387Y-131797252D01*
X81290342Y-131728544D01*
X81451074Y-131699037D01*
X81587740Y-131659593D01*
X81634682Y-131606143D01*
X81597582Y-131537036D01*
X81441476Y-131515428D01*
X81393689Y-131505474D01*
X81145143Y-131505474D01*
X81092770Y-131746911D01*
X80939005Y-131885071D01*
X80694588Y-131915839D01*
X80455714Y-131897221D01*
X80440098Y-131430762D01*
X80274286Y-131430762D01*
X80266896Y-131666631D01*
X80247777Y-131839457D01*
X80227878Y-131900503D01*
X80144416Y-131925899D01*
X80087401Y-131814617D01*
X80078203Y-131735766D01*
X79926994Y-131735766D01*
X79835389Y-131876648D01*
X79820193Y-131887379D01*
X79703947Y-131914034D01*
X79522646Y-131914340D01*
X79381762Y-131894255D01*
X79319433Y-131836358D01*
X79314486Y-131765195D01*
X78822857Y-131765195D01*
X78762994Y-131883796D01*
X78613242Y-131938552D01*
X78418355Y-131919815D01*
X78310086Y-131875732D01*
X78186415Y-131740522D01*
X78181838Y-131685952D01*
X78089502Y-131685952D01*
X78031351Y-131833831D01*
X77930948Y-131885674D01*
X77770261Y-131912475D01*
X77600183Y-131913791D01*
X77471607Y-131889180D01*
X77435097Y-131839010D01*
X77485472Y-131693302D01*
X77513533Y-131544089D01*
X77532175Y-131334000D01*
X77556152Y-131146056D01*
X77616714Y-131058081D01*
X77710697Y-131034840D01*
X77326923Y-131034840D01*
X77324475Y-131319644D01*
X77316486Y-131406571D01*
X77264906Y-131694695D01*
X77186304Y-131882342D01*
X77091186Y-131955883D01*
X76990052Y-131901685D01*
X76963720Y-131864426D01*
X76962986Y-131771699D01*
X76995723Y-131749521D01*
X77053565Y-131664282D01*
X77078400Y-131499074D01*
X77075454Y-131428790D01*
X76862794Y-131428790D01*
X76823469Y-131644575D01*
X76718286Y-131805714D01*
X76572716Y-131924374D01*
X76439760Y-131941849D01*
X76325078Y-131906807D01*
X76219330Y-131833918D01*
X76248769Y-131764574D01*
X76404260Y-131719820D01*
X76573262Y-131670298D01*
X76629715Y-131597338D01*
X76568666Y-131534926D01*
X76434048Y-131515428D01*
X76261704Y-131486797D01*
X76210286Y-131401800D01*
X76248468Y-131249333D01*
X76065143Y-131249333D01*
X76059920Y-131532448D01*
X76046017Y-131756905D01*
X76026084Y-131885525D01*
X76018735Y-131900503D01*
X75940421Y-131928421D01*
X75886647Y-131826884D01*
X75856114Y-131591007D01*
X75847429Y-131257146D01*
X75847548Y-131249333D01*
X75702286Y-131249333D01*
X75697063Y-131532448D01*
X75683160Y-131756905D01*
X75663227Y-131885525D01*
X75655878Y-131900503D01*
X75577564Y-131928421D01*
X75523790Y-131826884D01*
X75493257Y-131591007D01*
X75489088Y-131430762D01*
X75339429Y-131430762D01*
X75332039Y-131666631D01*
X75312920Y-131839457D01*
X75293021Y-131900503D01*
X75209558Y-131925899D01*
X75152544Y-131814617D01*
X75124372Y-131573114D01*
X75121714Y-131438574D01*
X75130222Y-131187152D01*
X75151869Y-131090599D01*
X75033621Y-131090599D01*
X74988010Y-131170161D01*
X74935194Y-131291462D01*
X74906019Y-131491532D01*
X74904000Y-131560181D01*
X74880353Y-131787952D01*
X74797151Y-131907112D01*
X74672426Y-131945128D01*
X74593845Y-131898667D01*
X74571523Y-131868730D01*
X74581731Y-131771729D01*
X74639811Y-131719981D01*
X74733553Y-131595719D01*
X74751976Y-131445030D01*
X74464579Y-131445030D01*
X74428639Y-131666249D01*
X74348467Y-131818143D01*
X74223587Y-131929181D01*
X74101775Y-131939195D01*
X74002793Y-131906807D01*
X73898478Y-131821592D01*
X73913693Y-131731276D01*
X74037931Y-131690932D01*
X74043941Y-131691095D01*
X74181965Y-131658907D01*
X74231417Y-131606143D01*
X74197150Y-131535403D01*
X74070878Y-131515428D01*
X73940515Y-131499229D01*
X73896080Y-131421163D01*
X73901545Y-131279571D01*
X73944242Y-131104189D01*
X74046660Y-131029009D01*
X74091566Y-131020000D01*
X74268957Y-131036430D01*
X74363709Y-131083315D01*
X74443373Y-131229647D01*
X74464579Y-131445030D01*
X74751976Y-131445030D01*
X74755862Y-131413248D01*
X74707701Y-131240160D01*
X74631857Y-131160369D01*
X74548702Y-131098906D01*
X74577314Y-131036471D01*
X74650000Y-130977642D01*
X74794578Y-130882786D01*
X74888639Y-130885622D01*
X74979124Y-130974218D01*
X75033621Y-131090599D01*
X75151869Y-131090599D01*
X75160350Y-131052774D01*
X75219003Y-131008086D01*
X75230571Y-131007428D01*
X75294557Y-131041610D01*
X75328466Y-131162405D01*
X75339337Y-131397189D01*
X75339429Y-131430762D01*
X75489088Y-131430762D01*
X75484571Y-131257146D01*
X75489271Y-130949976D01*
X75506373Y-130762391D01*
X75506752Y-130761349D01*
X75330522Y-130761349D01*
X75312505Y-130861716D01*
X75291048Y-130886476D01*
X75184827Y-130932703D01*
X75124148Y-130857170D01*
X75121714Y-130826000D01*
X75179805Y-130729787D01*
X75230571Y-130717143D01*
X73307429Y-130717143D01*
X73307429Y-131878286D01*
X72984972Y-131878286D01*
X72752846Y-131858687D01*
X72609966Y-131787013D01*
X72549544Y-131716995D01*
X72470950Y-131531686D01*
X72455304Y-131428790D01*
X72363365Y-131428790D01*
X72324040Y-131644575D01*
X72218857Y-131805714D01*
X72073287Y-131924374D01*
X71940332Y-131941849D01*
X71825650Y-131906807D01*
X71719902Y-131833918D01*
X71749341Y-131764574D01*
X71904832Y-131719820D01*
X72073833Y-131670298D01*
X72130286Y-131597338D01*
X72069238Y-131534926D01*
X71934619Y-131515428D01*
X71762275Y-131486797D01*
X71710857Y-131401800D01*
X71764381Y-131188075D01*
X71817463Y-131132443D01*
X71648952Y-131132443D01*
X71601036Y-131332273D01*
X71585078Y-131388428D01*
X71480670Y-131697587D01*
X71384631Y-131876348D01*
X71300512Y-131918882D01*
X71273636Y-131899504D01*
X71222759Y-131801933D01*
X71149353Y-131615821D01*
X71103646Y-131484358D01*
X71051521Y-131318082D01*
X70925180Y-131318082D01*
X70919331Y-131559137D01*
X70829578Y-131773966D01*
X70804562Y-131804778D01*
X70677010Y-131922834D01*
X70562029Y-131942439D01*
X70446793Y-131906807D01*
X70342478Y-131821592D01*
X70357693Y-131731276D01*
X70481931Y-131690932D01*
X70487941Y-131691095D01*
X70625965Y-131658907D01*
X70675417Y-131606143D01*
X70641415Y-131535147D01*
X70519476Y-131515428D01*
X70370200Y-131465924D01*
X70327259Y-131320166D01*
X70344718Y-131249333D01*
X70186857Y-131249333D01*
X70181634Y-131532448D01*
X70167731Y-131756905D01*
X70147798Y-131885525D01*
X70140449Y-131900503D01*
X70062135Y-131928421D01*
X70008362Y-131826884D01*
X69977828Y-131591007D01*
X69973795Y-131435957D01*
X69832079Y-131435957D01*
X69799807Y-131658926D01*
X69703895Y-131818143D01*
X69543503Y-131935221D01*
X69382345Y-131914804D01*
X69243429Y-131805714D01*
X69120280Y-131606098D01*
X69095769Y-131386389D01*
X69158903Y-131186898D01*
X69298687Y-131047937D01*
X69461143Y-131007428D01*
X68953143Y-131007428D01*
X68953143Y-131630333D01*
X68947445Y-131946957D01*
X68928490Y-132137079D01*
X68893484Y-132218963D01*
X68862428Y-132223363D01*
X68779446Y-132135195D01*
X68763087Y-132083905D01*
X62639428Y-132083905D01*
X62585237Y-132198757D01*
X62458530Y-132240028D01*
X62313111Y-132205620D01*
X62206553Y-132100771D01*
X62167320Y-131956851D01*
X62140136Y-131722168D01*
X62131428Y-131483914D01*
X62132859Y-131430582D01*
X62028430Y-131430582D01*
X61991118Y-131653310D01*
X61872136Y-131836925D01*
X61739277Y-131936282D01*
X61598495Y-131933477D01*
X61520507Y-131906807D01*
X61421729Y-131828135D01*
X61414782Y-131741425D01*
X61494823Y-131702207D01*
X61537784Y-131708697D01*
X61688814Y-131687068D01*
X61764384Y-131629331D01*
X61811013Y-131550988D01*
X61796968Y-131543301D01*
X61263183Y-131543301D01*
X61187298Y-131758385D01*
X61151517Y-131805932D01*
X61024216Y-131923400D01*
X60908741Y-131942222D01*
X60794793Y-131906807D01*
X60689940Y-131821840D01*
X60706503Y-131732259D01*
X60832606Y-131690894D01*
X60843286Y-131691095D01*
X60954120Y-131673242D01*
X60999495Y-131581963D01*
X61006571Y-131442857D01*
X60994684Y-131272485D01*
X60933877Y-131203374D01*
X60788857Y-131192039D01*
X60655393Y-131204499D01*
X60587937Y-131262872D01*
X60558740Y-131406346D01*
X60549282Y-131530415D01*
X60503362Y-131771406D01*
X60413586Y-131910558D01*
X60295888Y-131931423D01*
X60214293Y-131876145D01*
X60186339Y-131790390D01*
X60262714Y-131725017D01*
X60362517Y-131595365D01*
X60389714Y-131442857D01*
X60345488Y-131252477D01*
X60262714Y-131160369D01*
X60179560Y-131098906D01*
X60208171Y-131036471D01*
X60280857Y-130977642D01*
X60433951Y-130880128D01*
X60526401Y-130883182D01*
X60571143Y-130934857D01*
X60668011Y-130984667D01*
X60842507Y-131007302D01*
X60856825Y-131007428D01*
X61049054Y-131036931D01*
X61181203Y-131108220D01*
X61183825Y-131111255D01*
X61263141Y-131303599D01*
X61263183Y-131543301D01*
X61796968Y-131543301D01*
X61754349Y-131519977D01*
X61632314Y-131515428D01*
X61467900Y-131493722D01*
X61408423Y-131414007D01*
X61405714Y-131376221D01*
X61445971Y-131140603D01*
X61568267Y-131023011D01*
X61665806Y-131007428D01*
X61855850Y-131067744D01*
X61980033Y-131222094D01*
X62028430Y-131430582D01*
X62132859Y-131430582D01*
X62138571Y-131217802D01*
X62164114Y-131069285D01*
X62214235Y-131011331D01*
X62240286Y-131007428D01*
X62299430Y-131037304D01*
X62333279Y-131144726D01*
X62347556Y-131356389D01*
X62349143Y-131515428D01*
X62353059Y-131782398D01*
X62370717Y-131935341D01*
X62410986Y-132005293D01*
X62482732Y-132023287D01*
X62494286Y-132023428D01*
X62612286Y-132048797D01*
X62639428Y-132083905D01*
X68763087Y-132083905D01*
X68749050Y-132039900D01*
X68694823Y-131929176D01*
X68631407Y-131922758D01*
X68499298Y-131906863D01*
X68382982Y-131784170D01*
X68310750Y-131592482D01*
X68300000Y-131479895D01*
X68303094Y-131432593D01*
X68154857Y-131432593D01*
X68146915Y-131668630D01*
X68126377Y-131842228D01*
X68105267Y-131903686D01*
X68026318Y-131918275D01*
X67963730Y-131801886D01*
X67924773Y-131568397D01*
X67923850Y-131557324D01*
X67883160Y-131331535D01*
X67821609Y-131244559D01*
X67758396Y-131295705D01*
X67712718Y-131484280D01*
X67705452Y-131565198D01*
X67672283Y-131801341D01*
X67620433Y-131900740D01*
X67563176Y-131861543D01*
X67513783Y-131681896D01*
X67501714Y-131593635D01*
X67454368Y-131354939D01*
X67391598Y-131249815D01*
X67328906Y-131280167D01*
X67281792Y-131447896D01*
X67270024Y-131565198D01*
X67236853Y-131789652D01*
X67184582Y-131885900D01*
X67129052Y-131849839D01*
X67086108Y-131677365D01*
X67079379Y-131614577D01*
X67070773Y-131430582D01*
X66963287Y-131430582D01*
X66925975Y-131653310D01*
X66806993Y-131836925D01*
X66674134Y-131936282D01*
X66533352Y-131933477D01*
X66455364Y-131906807D01*
X66356587Y-131828135D01*
X66349639Y-131741425D01*
X66429680Y-131702207D01*
X66472641Y-131708697D01*
X66623672Y-131687068D01*
X66699241Y-131629331D01*
X66745870Y-131550988D01*
X66689206Y-131519977D01*
X66567172Y-131515428D01*
X66402757Y-131493722D01*
X66352668Y-131426589D01*
X66195428Y-131426589D01*
X66187595Y-131664316D01*
X66167312Y-131839789D01*
X66145838Y-131903686D01*
X66066890Y-131918275D01*
X66004302Y-131801886D01*
X65965344Y-131568397D01*
X65964421Y-131557324D01*
X65923731Y-131331535D01*
X65862181Y-131244559D01*
X65798968Y-131295705D01*
X65753289Y-131484280D01*
X65746024Y-131565198D01*
X65715915Y-131793544D01*
X65671876Y-131886753D01*
X65626161Y-131852452D01*
X65591024Y-131698266D01*
X65578571Y-131461000D01*
X65578571Y-131090599D01*
X65454193Y-131090599D01*
X65408581Y-131170161D01*
X65355765Y-131291462D01*
X65326591Y-131491532D01*
X65324571Y-131560181D01*
X65300924Y-131787952D01*
X65217722Y-131907112D01*
X65092997Y-131945128D01*
X65014416Y-131898667D01*
X64992094Y-131868730D01*
X65002303Y-131771729D01*
X65060382Y-131719981D01*
X65154124Y-131595719D01*
X65176434Y-131413248D01*
X65128272Y-131240160D01*
X65052428Y-131160369D01*
X64969274Y-131098906D01*
X64997885Y-131036471D01*
X65070571Y-130977642D01*
X65215149Y-130882786D01*
X65309211Y-130885622D01*
X65399695Y-130974218D01*
X65454193Y-131090599D01*
X65578571Y-131090599D01*
X65578571Y-131043714D01*
X65887000Y-131021399D01*
X66195428Y-130999083D01*
X66195428Y-131426589D01*
X66352668Y-131426589D01*
X66343280Y-131414007D01*
X66340571Y-131376221D01*
X66380828Y-131140603D01*
X66503125Y-131023011D01*
X66600663Y-131007428D01*
X66790707Y-131067744D01*
X66914890Y-131222094D01*
X66963287Y-131430582D01*
X67070773Y-131430582D01*
X67065960Y-131327704D01*
X67103778Y-131151278D01*
X67218362Y-131058350D01*
X67435242Y-131021970D01*
X67646586Y-131015849D01*
X68154857Y-131011090D01*
X68154857Y-131432593D01*
X68303094Y-131432593D01*
X68316845Y-131222435D01*
X68382967Y-131077987D01*
X68521743Y-131016749D01*
X68670621Y-131007428D01*
X68953143Y-131007428D01*
X69461143Y-131007428D01*
X69650358Y-131068834D01*
X69778134Y-131225469D01*
X69832079Y-131435957D01*
X69973795Y-131435957D01*
X69969143Y-131257146D01*
X69973843Y-130949976D01*
X69990945Y-130762391D01*
X70007430Y-130717143D01*
X64453714Y-130717143D01*
X64453714Y-131285619D01*
X64448167Y-131559867D01*
X64433466Y-131774752D01*
X64412523Y-131891691D01*
X64407306Y-131900503D01*
X64321559Y-131921948D01*
X64257299Y-131827416D01*
X64236000Y-131673497D01*
X64179182Y-131482618D01*
X64111462Y-131430762D01*
X63728000Y-131430762D01*
X63720611Y-131666631D01*
X63701492Y-131839457D01*
X63681592Y-131900503D01*
X63597485Y-131925007D01*
X63538140Y-131821012D01*
X63511138Y-131604141D01*
X63510286Y-131547431D01*
X63504968Y-131469675D01*
X63214914Y-131469675D01*
X63171643Y-131688807D01*
X63099895Y-131818143D01*
X62939503Y-131935221D01*
X62778345Y-131914804D01*
X62639428Y-131805714D01*
X62517388Y-131589222D01*
X62507053Y-131328037D01*
X62569410Y-131147800D01*
X62697491Y-131042140D01*
X62887652Y-131007521D01*
X63072012Y-131050362D01*
X63132914Y-131094514D01*
X63203014Y-131249465D01*
X63214914Y-131469675D01*
X63504968Y-131469675D01*
X63495669Y-131333741D01*
X63446097Y-131237360D01*
X63401428Y-131225143D01*
X63305216Y-131167052D01*
X63292571Y-131116286D01*
X63357481Y-131029863D01*
X63510286Y-131007428D01*
X63632069Y-131013443D01*
X63697050Y-131054616D01*
X63723074Y-131165644D01*
X63727982Y-131381220D01*
X63728000Y-131430762D01*
X64111462Y-131430762D01*
X64078650Y-131405637D01*
X63879133Y-131253210D01*
X63810792Y-131040337D01*
X63827553Y-130909804D01*
X63859167Y-130832048D01*
X62349143Y-130832048D01*
X62306840Y-130911520D01*
X62219797Y-130898848D01*
X62148059Y-130803321D01*
X62179644Y-130729293D01*
X62234238Y-130717143D01*
X62334208Y-130775574D01*
X62349143Y-130832048D01*
X63859167Y-130832048D01*
X63878821Y-130783709D01*
X63979272Y-130728766D01*
X64164811Y-130717143D01*
X64453714Y-130717143D01*
X70007430Y-130717143D01*
X70024953Y-130669047D01*
X70078000Y-130644571D01*
X70132886Y-130671228D01*
X70166267Y-130768164D01*
X70182725Y-130960827D01*
X70186857Y-131249333D01*
X70344718Y-131249333D01*
X70376050Y-131122221D01*
X70477360Y-131029761D01*
X70638845Y-131014699D01*
X70797718Y-131077313D01*
X70843209Y-131120153D01*
X70925180Y-131318082D01*
X71051521Y-131318082D01*
X71022425Y-131225268D01*
X70991625Y-131078083D01*
X71009568Y-131019239D01*
X71070857Y-131023905D01*
X71149082Y-131106193D01*
X71229617Y-131271078D01*
X71240644Y-131302095D01*
X71324716Y-131551714D01*
X71414558Y-131279571D01*
X71493476Y-131106677D01*
X71578756Y-131012959D01*
X71599680Y-131007428D01*
X71648129Y-131033842D01*
X71648952Y-131132443D01*
X71817463Y-131132443D01*
X71901685Y-131044176D01*
X72037429Y-131007428D01*
X72210519Y-131068239D01*
X72322345Y-131222685D01*
X72363365Y-131428790D01*
X72455304Y-131428790D01*
X72436628Y-131305971D01*
X72436571Y-131297714D01*
X72480344Y-131000016D01*
X72616754Y-130811881D01*
X72853440Y-130725224D01*
X72984972Y-130717143D01*
X73307429Y-130717143D01*
X75230571Y-130717143D01*
X75330522Y-130761349D01*
X75506752Y-130761349D01*
X75540381Y-130669047D01*
X75593429Y-130644571D01*
X75648315Y-130671228D01*
X75681696Y-130768164D01*
X75698154Y-130960827D01*
X75702286Y-131249333D01*
X75847548Y-131249333D01*
X75852128Y-130949976D01*
X75869230Y-130762391D01*
X75903238Y-130669047D01*
X75956286Y-130644571D01*
X76011172Y-130671228D01*
X76044553Y-130768164D01*
X76061011Y-130960827D01*
X76065143Y-131249333D01*
X76248468Y-131249333D01*
X76263810Y-131188075D01*
X76401113Y-131044176D01*
X76536857Y-131007428D01*
X76709948Y-131068239D01*
X76821773Y-131222685D01*
X76862794Y-131428790D01*
X77075454Y-131428790D01*
X77070689Y-131315160D01*
X77030894Y-131173801D01*
X76991076Y-131134644D01*
X76949399Y-131082210D01*
X77022179Y-130983454D01*
X77176600Y-130867932D01*
X77277907Y-130884665D01*
X77326923Y-131034840D01*
X77710697Y-131034840D01*
X77750881Y-131024903D01*
X77788714Y-131020973D01*
X77958018Y-131023431D01*
X78021425Y-131084342D01*
X78024571Y-131116578D01*
X77983765Y-131200247D01*
X77885536Y-131190795D01*
X77745600Y-131179210D01*
X77706481Y-131238890D01*
X77773384Y-131331897D01*
X77858982Y-131384342D01*
X78031755Y-131519700D01*
X78089502Y-131685952D01*
X78181838Y-131685952D01*
X78170626Y-131552277D01*
X78257770Y-131349264D01*
X78397106Y-131202845D01*
X78535148Y-131057741D01*
X78569447Y-130939701D01*
X78501991Y-130877186D01*
X78375013Y-130886560D01*
X78268006Y-130885456D01*
X78257036Y-130803001D01*
X78338025Y-130686547D01*
X78486821Y-130662199D01*
X78655077Y-130735025D01*
X78683114Y-130758315D01*
X78799124Y-130905933D01*
X78798015Y-131054983D01*
X78675613Y-131234937D01*
X78605143Y-131308879D01*
X78468818Y-131470117D01*
X78392985Y-131608188D01*
X78387429Y-131638939D01*
X78422135Y-131713503D01*
X78548172Y-131717857D01*
X78605143Y-131707743D01*
X78766777Y-131695473D01*
X78822168Y-131752223D01*
X78822857Y-131765195D01*
X79314486Y-131765195D01*
X79309845Y-131698454D01*
X79317310Y-131578675D01*
X79345043Y-131288449D01*
X79387363Y-131116206D01*
X79459990Y-131034791D01*
X79578645Y-131017049D01*
X79639900Y-131021436D01*
X79806146Y-131063542D01*
X79893538Y-131133823D01*
X79893821Y-131134658D01*
X79862903Y-131201764D01*
X79762267Y-131207229D01*
X79622408Y-131227894D01*
X79568666Y-131279571D01*
X79599754Y-131353240D01*
X79685113Y-131370286D01*
X79837810Y-131428817D01*
X79923119Y-131568566D01*
X79926994Y-131735766D01*
X80078203Y-131735766D01*
X80059229Y-131573114D01*
X80056571Y-131438574D01*
X80065079Y-131187152D01*
X80095207Y-131052774D01*
X80153860Y-131008086D01*
X80165429Y-131007428D01*
X80229414Y-131041610D01*
X80263323Y-131162405D01*
X80274194Y-131397189D01*
X80274286Y-131430762D01*
X80440098Y-131430762D01*
X80434746Y-131270896D01*
X80428327Y-130962996D01*
X80434435Y-130826000D01*
X80274286Y-130826000D01*
X80216195Y-130922213D01*
X80165429Y-130934857D01*
X80069216Y-130876766D01*
X80056571Y-130826000D01*
X80114662Y-130729787D01*
X80165429Y-130717143D01*
X80261641Y-130775234D01*
X80274286Y-130826000D01*
X80434435Y-130826000D01*
X80436773Y-130773575D01*
X80463884Y-130676391D01*
X80513461Y-130645202D01*
X80525460Y-130644571D01*
X80615927Y-130707337D01*
X80637143Y-130826000D01*
X80667295Y-130964285D01*
X80785110Y-131006745D01*
X80816018Y-131007428D01*
X80998593Y-131071002D01*
X81111129Y-131252707D01*
X81145143Y-131505474D01*
X81393689Y-131505474D01*
X81269222Y-131479548D01*
X81216298Y-131367444D01*
X81279997Y-131172424D01*
X81292839Y-131147800D01*
X81423725Y-131036256D01*
X81606897Y-131012967D01*
X81774098Y-131085344D01*
X81783771Y-131094514D01*
X81863390Y-131262491D01*
X81870931Y-131487308D01*
X82043242Y-131487308D01*
X82034705Y-131393406D01*
X82031112Y-131309952D01*
X82023617Y-131014097D01*
X82029915Y-130836145D01*
X82054963Y-130749125D01*
X82103716Y-130726069D01*
X82137698Y-130729937D01*
X82247143Y-130821555D01*
X82349321Y-131045031D01*
X82371879Y-131116842D01*
X82478301Y-131479143D01*
X82584220Y-131098143D01*
X82664744Y-130860815D01*
X82747154Y-130742722D01*
X82824784Y-130717143D01*
X82892713Y-130732348D01*
X82933170Y-130797349D01*
X82953042Y-130941218D01*
X82959217Y-131193032D01*
X82959428Y-131285619D01*
X83540741Y-131285619D01*
X83540000Y-131257146D01*
X83544700Y-130949976D01*
X83561802Y-130762391D01*
X83595810Y-130669047D01*
X83648857Y-130644571D01*
X83703743Y-130671228D01*
X83737125Y-130768164D01*
X83753582Y-130960827D01*
X83757714Y-131249333D01*
X84001833Y-131249333D01*
X84015009Y-131146056D01*
X84075571Y-131058081D01*
X84209738Y-131024903D01*
X84247571Y-131020973D01*
X84416875Y-131023431D01*
X84480282Y-131084342D01*
X84483428Y-131116578D01*
X84442623Y-131200247D01*
X84344393Y-131190795D01*
X84204457Y-131179210D01*
X84165338Y-131238890D01*
X84232241Y-131331897D01*
X84317839Y-131384342D01*
X84490612Y-131519700D01*
X84548359Y-131685952D01*
X84645120Y-131685952D01*
X84644181Y-131517932D01*
X84646279Y-131466889D01*
X84673236Y-131211275D01*
X84722613Y-131056680D01*
X84755571Y-131025413D01*
X84809130Y-131052476D01*
X84838081Y-131189797D01*
X84846286Y-131436809D01*
X85317546Y-131436809D01*
X85305224Y-131272739D01*
X85249068Y-131208036D01*
X85154714Y-131206144D01*
X85020228Y-131181286D01*
X84991428Y-131115430D01*
X85051008Y-131038219D01*
X85191533Y-131007580D01*
X85355678Y-131025941D01*
X85484914Y-131094514D01*
X85555014Y-131249465D01*
X85566914Y-131469675D01*
X85677922Y-131469675D01*
X85701108Y-131285647D01*
X85751559Y-131181526D01*
X85906262Y-131037153D01*
X86075759Y-131011446D01*
X86231573Y-131084529D01*
X86345228Y-131236522D01*
X86388248Y-131447551D01*
X86519883Y-131447551D01*
X86527298Y-131420200D01*
X86699599Y-131219614D01*
X86726421Y-131194940D01*
X86854048Y-131041879D01*
X86874702Y-130928741D01*
X86790837Y-130880661D01*
X86696857Y-130892087D01*
X86557033Y-130903188D01*
X86515441Y-130830996D01*
X86515429Y-130828765D01*
X86517123Y-130826000D01*
X84846286Y-130826000D01*
X84809463Y-130916320D01*
X84768271Y-130920948D01*
X84693293Y-130846026D01*
X84690257Y-130826000D01*
X84746755Y-130740908D01*
X84768271Y-130731052D01*
X84834445Y-130766084D01*
X84846286Y-130826000D01*
X86517123Y-130826000D01*
X86576553Y-130729052D01*
X86719775Y-130671917D01*
X86884865Y-130671486D01*
X86988085Y-130717925D01*
X87090695Y-130885203D01*
X87075483Y-131091338D01*
X86949004Y-131300374D01*
X86867872Y-131377450D01*
X86723889Y-131533446D01*
X86693628Y-131653426D01*
X86773128Y-131713897D01*
X86922488Y-131701355D01*
X87062108Y-131695372D01*
X87096000Y-131755951D01*
X92529451Y-131755951D01*
X92376845Y-131668025D01*
X89438150Y-129970050D01*
X89428838Y-129850432D01*
X71208359Y-129850432D01*
X71006036Y-129802039D01*
X70840141Y-129756721D01*
X70749286Y-129723112D01*
X70699537Y-129632931D01*
X70694857Y-129588003D01*
X70654281Y-129494208D01*
X70622286Y-129483428D01*
X70563323Y-129544211D01*
X70549714Y-129628571D01*
X70519323Y-129746498D01*
X70477143Y-129773714D01*
X70416491Y-129713499D01*
X70404571Y-129640667D01*
X70371751Y-129485206D01*
X70287389Y-129439057D01*
X70245782Y-129455577D01*
X70229074Y-129535399D01*
X70267343Y-129601822D01*
X70317036Y-129715412D01*
X70270867Y-129791304D01*
X70166954Y-129843085D01*
X70096562Y-129756278D01*
X70059402Y-129529970D01*
X70055186Y-129163248D01*
X70056738Y-129113824D01*
X70057889Y-129080769D01*
X69911160Y-129080769D01*
X69883500Y-129210780D01*
X69794746Y-129341254D01*
X69668499Y-129424100D01*
X69642571Y-129430427D01*
X69557581Y-129455172D01*
X69588068Y-129496292D01*
X69697000Y-129553760D01*
X69838275Y-129651925D01*
X69896571Y-129749077D01*
X69885025Y-129826677D01*
X69825065Y-129835262D01*
X69678713Y-129776908D01*
X69647381Y-129762701D01*
X69491139Y-129646611D01*
X69413448Y-129526844D01*
X69373766Y-129426770D01*
X69345140Y-129455160D01*
X69318067Y-129556000D01*
X69259455Y-129682777D01*
X69137030Y-129732080D01*
X69023436Y-129737428D01*
X68833571Y-129711837D01*
X68753096Y-129626425D01*
X68749244Y-129610428D01*
X68776970Y-129502410D01*
X68838964Y-129483428D01*
X68938907Y-129521017D01*
X68953143Y-129556000D01*
X69008368Y-129626463D01*
X69025714Y-129628571D01*
X69090098Y-129569792D01*
X69098286Y-129519714D01*
X69038322Y-129429891D01*
X68961010Y-129410857D01*
X68844036Y-129350819D01*
X68771016Y-129212895D01*
X68761653Y-129060365D01*
X68821934Y-128964170D01*
X68879389Y-128897879D01*
X68824428Y-128843086D01*
X68782174Y-128774915D01*
X68798632Y-128751782D01*
X68649165Y-128751782D01*
X68632865Y-128807850D01*
X68484725Y-128854879D01*
X68257360Y-128874171D01*
X68044300Y-128886122D01*
X67943378Y-128919619D01*
X67921767Y-128989035D01*
X67925896Y-129019314D01*
X68013443Y-129225922D01*
X68208562Y-129394950D01*
X68312857Y-129453792D01*
X68471097Y-129562019D01*
X68509492Y-129649640D01*
X68423957Y-129697404D01*
X68365314Y-129701143D01*
X68255228Y-129662534D01*
X66222564Y-129662534D01*
X66173525Y-129747568D01*
X66098033Y-129759249D01*
X65965966Y-129690914D01*
X65789031Y-129566624D01*
X65771394Y-129552393D01*
X65182540Y-129552393D01*
X65093035Y-129593839D01*
X64911586Y-129622076D01*
X64744000Y-129628571D01*
X64512066Y-129617554D01*
X64354822Y-129588774D01*
X64308571Y-129556000D01*
X64370677Y-129501446D01*
X64490000Y-129483428D01*
X64628104Y-129453455D01*
X64670662Y-129335434D01*
X64671428Y-129302000D01*
X64650184Y-129213149D01*
X64157274Y-129213149D01*
X64113308Y-129260050D01*
X64014183Y-129197633D01*
X63928687Y-129095351D01*
X63790128Y-128962165D01*
X63647959Y-128906168D01*
X63542071Y-128934264D01*
X63510286Y-129022951D01*
X63559970Y-129137696D01*
X63687430Y-129302514D01*
X63795862Y-129414707D01*
X63945800Y-129571507D01*
X64030814Y-129688888D01*
X64037767Y-129730042D01*
X63915294Y-129769901D01*
X63749655Y-129680386D01*
X63636570Y-129574143D01*
X63475662Y-129365144D01*
X63359181Y-129156857D01*
X63074857Y-129156857D01*
X63069233Y-129475291D01*
X63050519Y-129667201D01*
X63015951Y-129750839D01*
X62984143Y-129755946D01*
X62915559Y-129670818D01*
X62863226Y-129499496D01*
X62857143Y-129461567D01*
X62822019Y-129292419D01*
X62769308Y-129243205D01*
X62712000Y-129266557D01*
X62549097Y-129332483D01*
X62443297Y-129303082D01*
X62421714Y-129236528D01*
X62483177Y-129143676D01*
X62631284Y-129061722D01*
X62634063Y-129060745D01*
X62806098Y-128955056D01*
X62869921Y-128787099D01*
X62916655Y-128630561D01*
X62984143Y-128557692D01*
X63030341Y-128581534D01*
X63058910Y-128701958D01*
X63072613Y-128937212D01*
X63074857Y-129156857D01*
X63359181Y-129156857D01*
X63341583Y-129125390D01*
X63333355Y-129106311D01*
X63272670Y-128891560D01*
X63317471Y-128772738D01*
X63474464Y-128739433D01*
X63564714Y-128747004D01*
X63699832Y-128725571D01*
X63728000Y-128654051D01*
X63755783Y-128549351D01*
X63832962Y-128571189D01*
X63950276Y-128713341D01*
X64042791Y-128865735D01*
X64136847Y-129075516D01*
X64157274Y-129213149D01*
X64650184Y-129213149D01*
X64637411Y-129159730D01*
X64526286Y-129120571D01*
X64408082Y-129075195D01*
X64381143Y-129011714D01*
X64419988Y-128943258D01*
X64554480Y-128909823D01*
X64744000Y-128902857D01*
X64972187Y-128914511D01*
X65083638Y-128954858D01*
X65106857Y-129011714D01*
X65045869Y-129100251D01*
X64956667Y-129120571D01*
X64845509Y-129167365D01*
X64819983Y-129274099D01*
X64871508Y-129390308D01*
X64991502Y-129465523D01*
X65016143Y-129470333D01*
X65162708Y-129507853D01*
X65182540Y-129552393D01*
X65771394Y-129552393D01*
X65498965Y-129332576D01*
X65326718Y-129142942D01*
X65278308Y-129004866D01*
X65289524Y-128973425D01*
X65371884Y-128963830D01*
X65530782Y-129076830D01*
X65605062Y-129145959D01*
X65802313Y-129314025D01*
X65996650Y-129443259D01*
X66067042Y-129476785D01*
X66210984Y-129566563D01*
X66222564Y-129662534D01*
X68255228Y-129662534D01*
X68225137Y-129651981D01*
X68046306Y-129527638D01*
X67966171Y-129454400D01*
X67818400Y-129273601D01*
X67730292Y-129101991D01*
X67719428Y-129042829D01*
X67671260Y-128853743D01*
X67608822Y-128755781D01*
X67576056Y-128685143D01*
X67429143Y-128685143D01*
X67429143Y-129597376D01*
X66993797Y-129594831D01*
X66558452Y-129592286D01*
X66558369Y-129138714D01*
X66558346Y-129008488D01*
X66315467Y-129008488D01*
X66236819Y-129113143D01*
X66120047Y-129184975D01*
X66071638Y-129193143D01*
X65993439Y-129148371D01*
X65994129Y-129107613D01*
X66073912Y-128998724D01*
X66196551Y-128921812D01*
X66299677Y-128913432D01*
X66311146Y-128921813D01*
X66315467Y-129008488D01*
X66558346Y-129008488D01*
X66558286Y-128685143D01*
X67429143Y-128685143D01*
X67576056Y-128685143D01*
X67557552Y-128645251D01*
X66195428Y-128645251D01*
X66140964Y-128766639D01*
X66019822Y-128842983D01*
X65895381Y-128840199D01*
X65868857Y-128820880D01*
X65856310Y-128726012D01*
X65902884Y-128678750D01*
X65706354Y-128678750D01*
X65679437Y-128731057D01*
X65600523Y-128814707D01*
X65523905Y-128817154D01*
X65439364Y-128786236D01*
X65338427Y-128691000D01*
X65345457Y-128568326D01*
X65434353Y-128493318D01*
X65574934Y-128491224D01*
X65680118Y-128567116D01*
X65706354Y-128678750D01*
X65902884Y-128678750D01*
X65937156Y-128643972D01*
X66099717Y-128550542D01*
X66181847Y-128573030D01*
X66195428Y-128645251D01*
X67557552Y-128645251D01*
X67540971Y-128609508D01*
X67566215Y-128471189D01*
X67670707Y-128397049D01*
X67697701Y-128394857D01*
X67801319Y-128455723D01*
X67843544Y-128540000D01*
X67888033Y-128625400D01*
X67988939Y-128669325D01*
X68183977Y-128684369D01*
X68278226Y-128685143D01*
X68531620Y-128704828D01*
X68649165Y-128751782D01*
X68798632Y-128751782D01*
X68854385Y-128673421D01*
X68883287Y-128646400D01*
X69003699Y-128559943D01*
X69076280Y-128580854D01*
X69093645Y-128605062D01*
X69162974Y-128658093D01*
X69202354Y-128620319D01*
X69302388Y-128565917D01*
X69480249Y-128540291D01*
X69501711Y-128540000D01*
X69680749Y-128564052D01*
X69759173Y-128657570D01*
X69761462Y-128852598D01*
X69758742Y-128876457D01*
X69806963Y-128971546D01*
X69854130Y-128999310D01*
X69911160Y-129080769D01*
X70057889Y-129080769D01*
X70078000Y-128503714D01*
X70332000Y-128503714D01*
X70498273Y-128513625D01*
X70569444Y-128572116D01*
X70585770Y-128722330D01*
X70586000Y-128775905D01*
X70598827Y-128950921D01*
X70630632Y-129043609D01*
X70640429Y-129048048D01*
X70674302Y-128983528D01*
X70693342Y-128822137D01*
X70694857Y-128753116D01*
X70701591Y-128566095D01*
X70743885Y-128485956D01*
X70854883Y-128474459D01*
X70930714Y-128480973D01*
X71166571Y-128503714D01*
X71208359Y-129850432D01*
X89428838Y-129850432D01*
X89417779Y-129708400D01*
X84338286Y-129708400D01*
X84294399Y-129775812D01*
X84181032Y-129747269D01*
X84025628Y-129634857D01*
X84001880Y-129610711D01*
X82105865Y-129610711D01*
X82078314Y-129677217D01*
X82006147Y-129726293D01*
X81897655Y-129706555D01*
X81713545Y-129610106D01*
X81697504Y-129600687D01*
X81482177Y-129450987D01*
X81300896Y-129287070D01*
X81257826Y-129236209D01*
X81214381Y-129158552D01*
X81057194Y-129158552D01*
X81046506Y-129229650D01*
X80910988Y-129265409D01*
X80892525Y-129265714D01*
X80745190Y-129305267D01*
X80669058Y-129448207D01*
X80664778Y-129465286D01*
X80608945Y-129662798D01*
X80552793Y-129753367D01*
X80481951Y-129773714D01*
X80441475Y-129710862D01*
X80450848Y-129610029D01*
X79938912Y-129610029D01*
X79932657Y-129724049D01*
X79861728Y-129746811D01*
X79826438Y-129729753D01*
X79750180Y-129636192D01*
X79661696Y-129467737D01*
X79650024Y-129440614D01*
X79640350Y-129409063D01*
X79469080Y-129409063D01*
X79443234Y-129606292D01*
X79374870Y-129686822D01*
X79254621Y-129663896D01*
X79197483Y-129629478D01*
X78023599Y-129629478D01*
X77982837Y-129696210D01*
X77946418Y-129701143D01*
X77849393Y-129653698D01*
X77704353Y-129535605D01*
X77660598Y-129493477D01*
X77498591Y-129360776D01*
X77393830Y-129348691D01*
X77377104Y-129361639D01*
X77284135Y-129406266D01*
X77238915Y-129347896D01*
X77263702Y-129226416D01*
X77282578Y-129192242D01*
X77326263Y-129029857D01*
X77135571Y-129029857D01*
X77098945Y-129096263D01*
X76927521Y-129120413D01*
X76905762Y-129120571D01*
X76731173Y-129133616D01*
X76658630Y-129191892D01*
X76645714Y-129297717D01*
X76672472Y-129451379D01*
X76718286Y-129519714D01*
X76780437Y-129610635D01*
X76782379Y-129720154D01*
X76722903Y-129773712D01*
X76722401Y-129773714D01*
X76634144Y-129720243D01*
X76540972Y-129612424D01*
X76453561Y-129426754D01*
X76452507Y-129420942D01*
X75913119Y-129420942D01*
X75856797Y-129463309D01*
X75702286Y-129447143D01*
X75550755Y-129426256D01*
X75493250Y-129481705D01*
X75484571Y-129622805D01*
X75464051Y-129778144D01*
X75414430Y-129846161D01*
X75412000Y-129846286D01*
X75369393Y-129781276D01*
X75343291Y-129616165D01*
X75339429Y-129507286D01*
X75306423Y-129217393D01*
X75217772Y-129033857D01*
X75141067Y-128904632D01*
X75174763Y-128820780D01*
X75257514Y-128796041D01*
X75331787Y-128888580D01*
X75443427Y-129020986D01*
X75620764Y-129163769D01*
X75665082Y-129192575D01*
X75848619Y-129326627D01*
X75913119Y-129420942D01*
X76452507Y-129420942D01*
X76428000Y-129285852D01*
X76401746Y-129168017D01*
X76295009Y-129124316D01*
X76204238Y-129120571D01*
X76041994Y-129096062D01*
X76010714Y-129029857D01*
X76097621Y-128975390D01*
X76317490Y-128945710D01*
X76573143Y-128939143D01*
X76896587Y-128950862D01*
X77082643Y-128986653D01*
X77135571Y-129029857D01*
X77326263Y-129029857D01*
X77332025Y-129008442D01*
X77297454Y-128862881D01*
X77263665Y-128725920D01*
X76936000Y-128725920D01*
X76910363Y-128788813D01*
X76813396Y-128818873D01*
X76615014Y-128822344D01*
X76495049Y-128817416D01*
X76247947Y-128791542D01*
X76144410Y-128767210D01*
X75049143Y-128767210D01*
X74985588Y-128809898D01*
X74830492Y-128830049D01*
X74809715Y-128830286D01*
X74654442Y-128839243D01*
X74593296Y-128894566D01*
X74593403Y-129038928D01*
X74600077Y-129102429D01*
X74656998Y-129327093D01*
X74756046Y-129511649D01*
X74767596Y-129525098D01*
X74851729Y-129648713D01*
X74856283Y-129724670D01*
X74781291Y-129768974D01*
X74688599Y-129727666D01*
X74601286Y-129653609D01*
X74498281Y-129528289D01*
X74468571Y-129447028D01*
X74421390Y-129348396D01*
X74301153Y-129193370D01*
X74214571Y-129099015D01*
X74068591Y-128927689D01*
X73777489Y-128927689D01*
X73773053Y-129192759D01*
X73768733Y-129257638D01*
X73738857Y-129573550D01*
X73701067Y-129756720D01*
X73650110Y-129819521D01*
X73580736Y-129774330D01*
X73560493Y-129748422D01*
X73436732Y-129648536D01*
X73359904Y-129628571D01*
X73234778Y-129679429D01*
X73204619Y-129719286D01*
X73156959Y-129772655D01*
X73119952Y-129719286D01*
X73039901Y-129635564D01*
X73011095Y-129628571D01*
X72960973Y-129683588D01*
X72962714Y-129719286D01*
X72921959Y-129798819D01*
X72872000Y-129810000D01*
X72801067Y-129765831D01*
X72782576Y-129701143D01*
X72581714Y-129701143D01*
X72513206Y-129735916D01*
X72323564Y-129760721D01*
X72036614Y-129772910D01*
X71928571Y-129773714D01*
X71615612Y-129766102D01*
X71392368Y-129745031D01*
X71282663Y-129713148D01*
X71275429Y-129701143D01*
X71339622Y-129652128D01*
X71498767Y-129621638D01*
X71547571Y-129618688D01*
X71694571Y-129606941D01*
X71698033Y-129587832D01*
X71650880Y-129576628D01*
X71527111Y-129515854D01*
X71521602Y-129441368D01*
X71520126Y-129351505D01*
X71490865Y-129338286D01*
X71428490Y-129279471D01*
X71420571Y-129229428D01*
X71485527Y-129140418D01*
X71620143Y-129110688D01*
X71744722Y-129100795D01*
X71731108Y-129085260D01*
X71656429Y-129069355D01*
X71541675Y-129016936D01*
X71497271Y-128890427D01*
X71493143Y-128788953D01*
X71493143Y-128540000D01*
X72382876Y-128540000D01*
X72346220Y-128865211D01*
X72341058Y-129122197D01*
X72399433Y-129264295D01*
X72408554Y-129272577D01*
X72474944Y-129375796D01*
X72403817Y-129466592D01*
X72197141Y-129548306D01*
X71964857Y-129615481D01*
X72273286Y-129622026D01*
X72461726Y-129641246D01*
X72570833Y-129681835D01*
X72581714Y-129701143D01*
X72782576Y-129701143D01*
X72758741Y-129617765D01*
X72741207Y-129429000D01*
X72717125Y-129216072D01*
X72678796Y-129077787D01*
X72650493Y-129048000D01*
X72583686Y-128992661D01*
X72581714Y-128975429D01*
X72642087Y-128915236D01*
X72717971Y-128902857D01*
X72876842Y-128853433D01*
X72936320Y-128803942D01*
X72971460Y-128736595D01*
X72894757Y-128729888D01*
X72836349Y-128739831D01*
X72696708Y-128741256D01*
X72654402Y-128659674D01*
X72654286Y-128651848D01*
X72695540Y-128562898D01*
X72838536Y-128548511D01*
X72853901Y-128549999D01*
X73036180Y-128545870D01*
X73147365Y-128512935D01*
X73276802Y-128503366D01*
X73340432Y-128537276D01*
X73440538Y-128581261D01*
X73492780Y-128533652D01*
X73563444Y-128508909D01*
X73672653Y-128615714D01*
X73674147Y-128617690D01*
X73746755Y-128751119D01*
X73777489Y-128927689D01*
X74068591Y-128927689D01*
X74027673Y-128879667D01*
X73964779Y-128729829D01*
X74026125Y-128643200D01*
X74211947Y-128613477D01*
X74232714Y-128613370D01*
X74514302Y-128626511D01*
X74768560Y-128659618D01*
X74958431Y-128705708D01*
X75046859Y-128757799D01*
X75049143Y-128767210D01*
X76144410Y-128767210D01*
X76057383Y-128746758D01*
X75978163Y-128704067D01*
X75946144Y-128584167D01*
X75994091Y-128501883D01*
X76078293Y-128429035D01*
X76165773Y-128465094D01*
X76208263Y-128501883D01*
X76360429Y-128574283D01*
X76582254Y-128611156D01*
X76633286Y-128612571D01*
X76837070Y-128627999D01*
X76925979Y-128681187D01*
X76936000Y-128725920D01*
X77263665Y-128725920D01*
X77257665Y-128701603D01*
X77266335Y-128606481D01*
X77351883Y-128541034D01*
X77430928Y-128610945D01*
X77480181Y-128757238D01*
X77526895Y-128902555D01*
X77596311Y-128930422D01*
X77662971Y-128902184D01*
X77798311Y-128872123D01*
X77854542Y-128933020D01*
X77809737Y-129042426D01*
X77759696Y-129089426D01*
X77678762Y-129165558D01*
X77688690Y-129233594D01*
X77800482Y-129339036D01*
X77825000Y-129359466D01*
X77967534Y-129507514D01*
X78023599Y-129629478D01*
X79197483Y-129629478D01*
X79111148Y-129577473D01*
X78899365Y-129402569D01*
X78805531Y-129255821D01*
X78828415Y-129159813D01*
X78885399Y-129157001D01*
X78593658Y-129157001D01*
X78544606Y-129276090D01*
X78430526Y-129327321D01*
X78406624Y-129324673D01*
X78285508Y-129240986D01*
X78255898Y-129173947D01*
X78289098Y-129051779D01*
X78401046Y-128989385D01*
X78528312Y-129017363D01*
X78547086Y-129033486D01*
X78593658Y-129157001D01*
X78885399Y-129157001D01*
X78917236Y-129155430D01*
X79009074Y-129250527D01*
X79125808Y-129382929D01*
X79203509Y-129384496D01*
X79246274Y-129251200D01*
X79258286Y-129005667D01*
X79275322Y-128749108D01*
X79317379Y-128627378D01*
X79370877Y-128635390D01*
X79422235Y-128768058D01*
X79457874Y-129020294D01*
X79461778Y-129081893D01*
X79469080Y-129409063D01*
X79640350Y-129409063D01*
X79576324Y-129200267D01*
X79548745Y-128969092D01*
X79566903Y-128786238D01*
X79630413Y-128690854D01*
X79657429Y-128685143D01*
X79735548Y-128736606D01*
X79765739Y-128904127D01*
X79766733Y-128957286D01*
X79797178Y-129203164D01*
X79870336Y-129426943D01*
X79875205Y-129436553D01*
X79938912Y-129610029D01*
X80450848Y-129610029D01*
X80457287Y-129540772D01*
X80457901Y-129537857D01*
X80501303Y-129325054D01*
X80513002Y-129214444D01*
X80491525Y-129166257D01*
X80443282Y-129143641D01*
X80387598Y-129169165D01*
X80397317Y-129261570D01*
X80402145Y-129384203D01*
X80343068Y-129402579D01*
X80248806Y-129324188D01*
X80170186Y-129202344D01*
X80102140Y-129025953D01*
X80139106Y-128939563D01*
X80292558Y-128930174D01*
X80396096Y-128946361D01*
X80563723Y-128963517D01*
X80630423Y-128921548D01*
X80637143Y-128874648D01*
X80695711Y-128773539D01*
X80754464Y-128757714D01*
X80839275Y-128802948D01*
X80834490Y-128900333D01*
X80850835Y-129035097D01*
X80934883Y-129086652D01*
X81057194Y-129158552D01*
X81214381Y-129158552D01*
X81168180Y-129075969D01*
X81191189Y-128973042D01*
X81194474Y-128969640D01*
X81278406Y-128953173D01*
X81391571Y-129060601D01*
X81422224Y-129102028D01*
X81587001Y-129267834D01*
X81808973Y-129416739D01*
X81866386Y-129445127D01*
X82044988Y-129537812D01*
X82105865Y-129610711D01*
X84001880Y-129610711D01*
X83914334Y-129521698D01*
X83786242Y-129341848D01*
X83688367Y-129155710D01*
X83522326Y-129155710D01*
X83489646Y-129219306D01*
X83399756Y-129241242D01*
X83203332Y-129257584D01*
X82938958Y-129265421D01*
X82874762Y-129265714D01*
X82580440Y-129260407D01*
X82405053Y-129241175D01*
X82322667Y-129203053D01*
X82306286Y-129156857D01*
X82333760Y-129100826D01*
X82433401Y-129067283D01*
X82631038Y-129051349D01*
X82882574Y-129048000D01*
X83234795Y-129059662D01*
X83446961Y-129095259D01*
X83522326Y-129155710D01*
X83688367Y-129155710D01*
X83672606Y-129125736D01*
X83596747Y-128930763D01*
X82213239Y-128930763D01*
X82211034Y-129011226D01*
X82130003Y-129112749D01*
X82017294Y-129184300D01*
X81970828Y-129193143D01*
X81881279Y-129135257D01*
X81870857Y-129089176D01*
X81929110Y-128995401D01*
X82056216Y-128925636D01*
X82180697Y-128912954D01*
X82213239Y-128930763D01*
X83596747Y-128930763D01*
X83591120Y-128916303D01*
X83559476Y-128756490D01*
X83575123Y-128698401D01*
X83632272Y-128688702D01*
X82068576Y-128688702D01*
X81979022Y-128788982D01*
X81975814Y-128791420D01*
X81817430Y-128888101D01*
X81739104Y-128872617D01*
X81725714Y-128802886D01*
X81774868Y-128666264D01*
X81886261Y-128580307D01*
X82005794Y-128580545D01*
X82033318Y-128600861D01*
X82068576Y-128688702D01*
X83632272Y-128688702D01*
X83669141Y-128682445D01*
X83767070Y-128763047D01*
X83826380Y-128899249D01*
X83830286Y-128944122D01*
X83894046Y-129146892D01*
X84074404Y-129379116D01*
X84084286Y-129389086D01*
X84231640Y-129548636D01*
X84323295Y-129671355D01*
X84338286Y-129708400D01*
X89417779Y-129708400D01*
X89392367Y-129382025D01*
X89382230Y-129178748D01*
X89372849Y-128849889D01*
X89371774Y-128793983D01*
X84508550Y-128793983D01*
X84439015Y-128941359D01*
X84437990Y-128942927D01*
X84319761Y-129082530D01*
X84230407Y-129114843D01*
X84193217Y-129032004D01*
X84193143Y-129025585D01*
X84234183Y-128883572D01*
X84328697Y-128760814D01*
X84433772Y-128705306D01*
X84471612Y-128714126D01*
X84508550Y-128793983D01*
X89371774Y-128793983D01*
X89364481Y-128415008D01*
X89357381Y-127893664D01*
X89351804Y-127305419D01*
X89348006Y-126669831D01*
X89347644Y-126533626D01*
X87019247Y-126533626D01*
X87010919Y-126711632D01*
X87005091Y-126765585D01*
X86974445Y-126972014D01*
X86940157Y-127110836D01*
X86926583Y-127137036D01*
X86846491Y-127141263D01*
X86640375Y-127132950D01*
X86326694Y-127113383D01*
X85923905Y-127083851D01*
X85450467Y-127045641D01*
X84924839Y-127000041D01*
X84795358Y-126988357D01*
X83256593Y-126855242D01*
X81788730Y-126743125D01*
X80375467Y-126652083D01*
X79000505Y-126582190D01*
X77647544Y-126533521D01*
X76300282Y-126506153D01*
X74942419Y-126500161D01*
X73557656Y-126515620D01*
X72129691Y-126552606D01*
X70642226Y-126611193D01*
X69078958Y-126691458D01*
X67423588Y-126793476D01*
X65659815Y-126917322D01*
X63771339Y-127063072D01*
X63474000Y-127087015D01*
X62865769Y-127135357D01*
X62282381Y-127180072D01*
X61745093Y-127219656D01*
X61275162Y-127252603D01*
X60893846Y-127277406D01*
X60622402Y-127292560D01*
X60516714Y-127296489D01*
X60026857Y-127306286D01*
X60026857Y-126943429D01*
X60033039Y-126727814D01*
X60063380Y-126620238D01*
X60135575Y-126583740D01*
X60200567Y-126580571D01*
X60314088Y-126574990D01*
X60553216Y-126559179D01*
X60898883Y-126534539D01*
X61332021Y-126502468D01*
X61833561Y-126464369D01*
X62384434Y-126421639D01*
X62649853Y-126400758D01*
X64200002Y-126280600D01*
X65621818Y-126175568D01*
X66931236Y-126084884D01*
X68144191Y-126007768D01*
X69276619Y-125943442D01*
X70344455Y-125891126D01*
X71363635Y-125850042D01*
X72350093Y-125819411D01*
X73319766Y-125798454D01*
X74288588Y-125786393D01*
X75272495Y-125782447D01*
X75299986Y-125782446D01*
X76623321Y-125788794D01*
X77867050Y-125808783D01*
X79063414Y-125844054D01*
X80244657Y-125896252D01*
X81443022Y-125967018D01*
X82690750Y-126057996D01*
X84020084Y-126170829D01*
X85318000Y-126292920D01*
X85769115Y-126336357D01*
X86176967Y-126374450D01*
X86517202Y-126405019D01*
X86765471Y-126425885D01*
X86897421Y-126434868D01*
X86905867Y-126435057D01*
X86987916Y-126453712D01*
X87019247Y-126533626D01*
X89347644Y-126533626D01*
X89346242Y-126006462D01*
X89346149Y-125843650D01*
X89345877Y-123993588D01*
X86950857Y-123993588D01*
X86950857Y-124685173D01*
X86642429Y-124754243D01*
X86277741Y-124810020D01*
X85880649Y-124829334D01*
X85501212Y-124813075D01*
X85189489Y-124762129D01*
X85080802Y-124726536D01*
X84697160Y-124501493D01*
X84430221Y-124200833D01*
X84287960Y-123835564D01*
X84265714Y-123601571D01*
X84279129Y-123366053D01*
X84329303Y-123162065D01*
X84431128Y-122973037D01*
X84599498Y-122782398D01*
X84781601Y-122630173D01*
X83721986Y-122630173D01*
X83656683Y-123175607D01*
X83498261Y-123682165D01*
X83256030Y-124116256D01*
X83056910Y-124344722D01*
X82690100Y-124599721D01*
X82241543Y-124767929D01*
X81750904Y-124842090D01*
X81257847Y-124814949D01*
X81066810Y-124766286D01*
X78822857Y-124766286D01*
X78245011Y-124766286D01*
X78225505Y-123131738D01*
X78206000Y-121497190D01*
X77669726Y-122990157D01*
X77133452Y-124483125D01*
X76807997Y-124461420D01*
X76482541Y-124439714D01*
X75965413Y-123048078D01*
X75806744Y-122625236D01*
X75662653Y-122249062D01*
X75541498Y-121940747D01*
X75451635Y-121721481D01*
X75401422Y-121612455D01*
X75396374Y-121605214D01*
X75381350Y-121658973D01*
X75368124Y-121837985D01*
X75357354Y-122122366D01*
X75349698Y-122492230D01*
X75345815Y-122927692D01*
X75345476Y-123141993D01*
X75346489Y-124730000D01*
X74722571Y-124730000D01*
X74722571Y-120375714D01*
X75091874Y-120354184D01*
X75366656Y-120359646D01*
X75521072Y-120412854D01*
X75534493Y-120426756D01*
X75579793Y-120519758D01*
X75666335Y-120728521D01*
X75786019Y-121032308D01*
X75930743Y-121410382D01*
X76092406Y-121842006D01*
X76177752Y-122073311D01*
X76340982Y-122512634D01*
X76487961Y-122898134D01*
X76611468Y-123211698D01*
X76704283Y-123435209D01*
X76759185Y-123550551D01*
X76770721Y-123561026D01*
X76800997Y-123476802D01*
X76873230Y-123276230D01*
X76980146Y-122979502D01*
X77114469Y-122606806D01*
X77268923Y-122178334D01*
X77356291Y-121936000D01*
X77918835Y-120375714D01*
X78370846Y-120354108D01*
X78677974Y-120339428D01*
X73670286Y-120339428D01*
X73670286Y-124766286D01*
X71048953Y-124766286D01*
X71071476Y-124494143D01*
X71094000Y-124222000D01*
X72055571Y-124201751D01*
X73017143Y-124181501D01*
X73017143Y-123993588D01*
X70694857Y-123993588D01*
X70694857Y-124685173D01*
X70386429Y-124754243D01*
X69987503Y-124814582D01*
X69566499Y-124830173D01*
X69171982Y-124802596D01*
X68852517Y-124733433D01*
X68803981Y-124714368D01*
X67719428Y-124714368D01*
X67655135Y-124746483D01*
X67493421Y-124756063D01*
X67412254Y-124752315D01*
X67105079Y-124730000D01*
X66856860Y-124129141D01*
X66608640Y-123528282D01*
X65732295Y-123548570D01*
X64855949Y-123568857D01*
X64608325Y-124167571D01*
X64360701Y-124766286D01*
X64008065Y-124766286D01*
X63804385Y-124759373D01*
X63677009Y-124741748D01*
X63655428Y-124728902D01*
X63681162Y-124646697D01*
X63753105Y-124449842D01*
X63863367Y-124158372D01*
X64004062Y-123792321D01*
X64167300Y-123371725D01*
X64345193Y-122916619D01*
X64529853Y-122447036D01*
X64713391Y-121983012D01*
X64887919Y-121544581D01*
X65045549Y-121151779D01*
X65178391Y-120824639D01*
X65278559Y-120583198D01*
X65338162Y-120447489D01*
X65349417Y-120426550D01*
X65475065Y-120365000D01*
X65696906Y-120352846D01*
X65713746Y-120353979D01*
X66006613Y-120375714D01*
X66863021Y-122514910D01*
X67072334Y-123039579D01*
X67263133Y-123521366D01*
X67428959Y-123943679D01*
X67563351Y-124289926D01*
X67659847Y-124543513D01*
X67711987Y-124687848D01*
X67719428Y-124714368D01*
X68803981Y-124714368D01*
X68771714Y-124701694D01*
X68399317Y-124462380D01*
X68148681Y-124147148D01*
X68023815Y-123761999D01*
X68009714Y-123561242D01*
X68046817Y-123271111D01*
X68166824Y-123003598D01*
X68382787Y-122744177D01*
X68707757Y-122478321D01*
X69154784Y-122191505D01*
X69332183Y-122089289D01*
X69674406Y-121864449D01*
X69912376Y-121639525D01*
X70031031Y-121430097D01*
X70041714Y-121355428D01*
X69978726Y-121160851D01*
X69819340Y-120976089D01*
X69607927Y-120846326D01*
X69515237Y-120819272D01*
X69289253Y-120815239D01*
X68986504Y-120859446D01*
X68662887Y-120941252D01*
X68427000Y-121026418D01*
X68348662Y-121041179D01*
X68311082Y-120977092D01*
X68300207Y-120804119D01*
X68300000Y-120754951D01*
X68306522Y-120554392D01*
X68351420Y-120448060D01*
X68472697Y-120387997D01*
X68622422Y-120348044D01*
X68678571Y-120339428D01*
X63582857Y-120339428D01*
X63582857Y-120920000D01*
X62058857Y-120920000D01*
X62058857Y-124766286D01*
X61405714Y-124766286D01*
X61405714Y-120920000D01*
X59881714Y-120920000D01*
X59881714Y-120339428D01*
X63582857Y-120339428D01*
X68678571Y-120339428D01*
X69142879Y-120268181D01*
X69616421Y-120296032D01*
X70024897Y-120426451D01*
X70350158Y-120654289D01*
X70530378Y-120889159D01*
X70674676Y-121247734D01*
X70685075Y-121587942D01*
X70558979Y-121915618D01*
X70293796Y-122236595D01*
X69886929Y-122556709D01*
X69749255Y-122645739D01*
X69368045Y-122887833D01*
X69095276Y-123075676D01*
X68913297Y-123226902D01*
X68804457Y-123359142D01*
X68751104Y-123490031D01*
X68735587Y-123637201D01*
X68735428Y-123658516D01*
X68792592Y-123954907D01*
X68957675Y-124162711D01*
X69221066Y-124278503D01*
X69573155Y-124298861D01*
X70004331Y-124220361D01*
X70170217Y-124169546D01*
X70694857Y-123993588D01*
X73017143Y-123993588D01*
X73017143Y-122734286D01*
X71493143Y-122734286D01*
X71493143Y-122231363D01*
X72237000Y-122210682D01*
X72980857Y-122190000D01*
X73001825Y-121555000D01*
X73022794Y-120920000D01*
X71202857Y-120920000D01*
X71202857Y-120339428D01*
X73670286Y-120339428D01*
X78677974Y-120339428D01*
X78822857Y-120332503D01*
X78822857Y-124766286D01*
X81066810Y-124766286D01*
X80935396Y-124732811D01*
X80528530Y-124535491D01*
X80205450Y-124249844D01*
X79939369Y-123850901D01*
X79893777Y-123761716D01*
X79783699Y-123526780D01*
X79714310Y-123332781D01*
X79676325Y-123132298D01*
X79660463Y-122877910D01*
X79657429Y-122554383D01*
X79663349Y-122185468D01*
X79685644Y-121916999D01*
X79731113Y-121704597D01*
X79806554Y-121503883D01*
X79824432Y-121464286D01*
X80112097Y-120989670D01*
X80482426Y-120633904D01*
X80932996Y-120398708D01*
X81461384Y-120285805D01*
X81486323Y-120283678D01*
X82048554Y-120301534D01*
X82544512Y-120445589D01*
X82965673Y-120708879D01*
X83303517Y-121084446D01*
X83549520Y-121565327D01*
X83684858Y-122079453D01*
X83721986Y-122630173D01*
X84781601Y-122630173D01*
X84849304Y-122573579D01*
X85195440Y-122330008D01*
X85652799Y-122035116D01*
X85700584Y-122005079D01*
X86014347Y-121779648D01*
X86197596Y-121572431D01*
X86260726Y-121366845D01*
X86223808Y-121170490D01*
X86072542Y-120962504D01*
X85819711Y-120845430D01*
X85478427Y-120821211D01*
X85061803Y-120891792D01*
X84828143Y-120963655D01*
X84556000Y-121058704D01*
X84556000Y-120743967D01*
X84563004Y-120549885D01*
X84609403Y-120446396D01*
X84733278Y-120386737D01*
X84878422Y-120348044D01*
X85370790Y-120273249D01*
X85822601Y-120297225D01*
X86218402Y-120409149D01*
X86542740Y-120598194D01*
X86780160Y-120853538D01*
X86915210Y-121164356D01*
X86932434Y-121519822D01*
X86879824Y-121749909D01*
X86772507Y-121977799D01*
X86594979Y-122197465D01*
X86328321Y-122426652D01*
X85953613Y-122683101D01*
X85751553Y-122807990D01*
X85424824Y-123013373D01*
X85206424Y-123177273D01*
X85075400Y-123324184D01*
X85010800Y-123478599D01*
X84991671Y-123665012D01*
X84991428Y-123696579D01*
X85050596Y-123973430D01*
X85219716Y-124168330D01*
X85486217Y-124277133D01*
X85837526Y-124295696D01*
X86261072Y-124219874D01*
X86426217Y-124169546D01*
X86950857Y-123993588D01*
X89345877Y-123993588D01*
X89345714Y-122893300D01*
X90649608Y-122142507D01*
X91039750Y-121916209D01*
X91383349Y-121713749D01*
X91661829Y-121546334D01*
X91856613Y-121425174D01*
X91949121Y-121361477D01*
X91954167Y-121355428D01*
X91899130Y-121299982D01*
X91752946Y-121186379D01*
X91545038Y-121037265D01*
X91502987Y-121008165D01*
X91194610Y-120797471D01*
X90989802Y-120650970D01*
X90876513Y-120545112D01*
X90842695Y-120456344D01*
X90876299Y-120361115D01*
X90965277Y-120235874D01*
X91050170Y-120123039D01*
X91233174Y-119900660D01*
X91330550Y-119830874D01*
X90193833Y-119830874D01*
X90123223Y-119811108D01*
X89950858Y-119759762D01*
X89713734Y-119687862D01*
X89708571Y-119686286D01*
X89413824Y-119598931D01*
X89226012Y-119558052D01*
X89113542Y-119566808D01*
X89044819Y-119628359D01*
X88988251Y-119745865D01*
X88982857Y-119758857D01*
X88908532Y-119908072D01*
X88850009Y-119975933D01*
X88847053Y-119976322D01*
X88777901Y-119930210D01*
X88626672Y-119805740D01*
X88417582Y-119623388D01*
X88235746Y-119459481D01*
X88006357Y-119245756D01*
X87826618Y-119070137D01*
X87717614Y-118953757D01*
X87695212Y-118917740D01*
X87771783Y-118924528D01*
X87948439Y-118966466D01*
X88187021Y-119034488D01*
X88188323Y-119034884D01*
X88425872Y-119106515D01*
X88599753Y-119157813D01*
X88672513Y-119177729D01*
X88672565Y-119177731D01*
X88712974Y-119121137D01*
X88790257Y-118982019D01*
X88801429Y-118960571D01*
X88898012Y-118812749D01*
X88982891Y-118743561D01*
X88989316Y-118742857D01*
X89069675Y-118790221D01*
X89228919Y-118918448D01*
X89442342Y-119106742D01*
X89636000Y-119287143D01*
X89865371Y-119506693D01*
X90048232Y-119683744D01*
X90163843Y-119798082D01*
X90193833Y-119830874D01*
X91330550Y-119830874D01*
X91358544Y-119810812D01*
X91403751Y-119818204D01*
X91493169Y-119884764D01*
X91672831Y-120016699D01*
X91915544Y-120194090D01*
X92159306Y-120371694D01*
X92832041Y-120861168D01*
X94009878Y-120170004D01*
X94384704Y-119951254D01*
X94718893Y-119758490D01*
X94991409Y-119603661D01*
X95181214Y-119498721D01*
X95267271Y-119455620D01*
X95267462Y-119455563D01*
X95344474Y-119486113D01*
X95534420Y-119582688D01*
X95824771Y-119738343D01*
X96202994Y-119946135D01*
X96656557Y-120199119D01*
X97172929Y-120490352D01*
X97739578Y-120812888D01*
X98343973Y-121159785D01*
X98368635Y-121174000D01*
X101390061Y-122915714D01*
X101408288Y-125401286D01*
X101412813Y-126045190D01*
X101417003Y-126692759D01*
X101420707Y-127316831D01*
X101423777Y-127890249D01*
X101426063Y-128385851D01*
X101427414Y-128776478D01*
X101427687Y-128918396D01*
X101428857Y-129949935D01*
X102771428Y-129949935D01*
X102771428Y-118307429D01*
X59228571Y-118307429D01*
X59228571Y-133765143D01*
X59228571Y-133765143D01*
G37*
X59228571Y-133765143D02*
X102771428Y-133765143D01*
X102771428Y-129949935D01*
X101428857Y-129949935D01*
X98489714Y-131674775D01*
X97892394Y-132023535D01*
X97330859Y-132347980D01*
X96817941Y-132640939D01*
X96366474Y-132895240D01*
X95989291Y-133103712D01*
X95699226Y-133259185D01*
X95509112Y-133354487D01*
X95433056Y-133382807D01*
X95347990Y-133344024D01*
X95150396Y-133239517D01*
X94853208Y-133076543D01*
X94469359Y-132862358D01*
X94011781Y-132604219D01*
X93493407Y-132309383D01*
X92927172Y-131985105D01*
X92529451Y-131755951D01*
X87096000Y-131755951D01*
X87042193Y-131894600D01*
X86910334Y-131953750D01*
X86744766Y-131931917D01*
X86589829Y-131827616D01*
X86548229Y-131774295D01*
X86479673Y-131595889D01*
X86519883Y-131447551D01*
X86388248Y-131447551D01*
X86364214Y-131609170D01*
X86257476Y-131841909D01*
X86106683Y-131937786D01*
X85905936Y-131899981D01*
X85863413Y-131878889D01*
X85729151Y-131733406D01*
X85672003Y-131516664D01*
X85677922Y-131469675D01*
X85566914Y-131469675D01*
X85523643Y-131688807D01*
X85451895Y-131818143D01*
X85327016Y-131929181D01*
X85205204Y-131939195D01*
X85106221Y-131906807D01*
X85001369Y-131821840D01*
X85017932Y-131732259D01*
X85144035Y-131690894D01*
X85154714Y-131691095D01*
X85265548Y-131673242D01*
X85310923Y-131581963D01*
X85318000Y-131442857D01*
X85317546Y-131436809D01*
X84846286Y-131436809D01*
X84838187Y-131691378D01*
X84809358Y-131828949D01*
X84752995Y-131876998D01*
X84736993Y-131878286D01*
X84674190Y-131848018D01*
X84645408Y-131737673D01*
X84645120Y-131685952D01*
X84548359Y-131685952D01*
X84490208Y-131833831D01*
X84389805Y-131885674D01*
X84229118Y-131912475D01*
X84059040Y-131913791D01*
X83930464Y-131889180D01*
X83893954Y-131839010D01*
X83944329Y-131693302D01*
X83972390Y-131544089D01*
X83991032Y-131334000D01*
X84001833Y-131249333D01*
X83757714Y-131249333D01*
X83752491Y-131532448D01*
X83738588Y-131756905D01*
X83718655Y-131885525D01*
X83711306Y-131900503D01*
X83632992Y-131928421D01*
X83579219Y-131826884D01*
X83548685Y-131591007D01*
X83540741Y-131285619D01*
X82959428Y-131285619D01*
X82951173Y-131594078D01*
X82929453Y-131803679D01*
X82898840Y-131904155D01*
X82863906Y-131885239D01*
X82829221Y-131736664D01*
X82813658Y-131613008D01*
X82776745Y-131261428D01*
X82681030Y-131533571D01*
X82579744Y-131732350D01*
X82473649Y-131796966D01*
X82379479Y-131725719D01*
X82323994Y-131569857D01*
X82272759Y-131334000D01*
X82235094Y-131608546D01*
X82192087Y-131821438D01*
X82144795Y-131897953D01*
X82098966Y-131846507D01*
X82060353Y-131675519D01*
X82043242Y-131487308D01*
X81870931Y-131487308D01*
X81812899Y-131703779D01*
X81709567Y-131837885D01*
X81529748Y-131935324D01*
X81382997Y-131928382D01*
X81292387Y-131881120D01*
X81229387Y-131797252D01*
X81290342Y-131728544D01*
X81451074Y-131699037D01*
X81587740Y-131659593D01*
X81634682Y-131606143D01*
X81597582Y-131537036D01*
X81441476Y-131515428D01*
X81393689Y-131505474D01*
X81145143Y-131505474D01*
X81092770Y-131746911D01*
X80939005Y-131885071D01*
X80694588Y-131915839D01*
X80455714Y-131897221D01*
X80440098Y-131430762D01*
X80274286Y-131430762D01*
X80266896Y-131666631D01*
X80247777Y-131839457D01*
X80227878Y-131900503D01*
X80144416Y-131925899D01*
X80087401Y-131814617D01*
X80078203Y-131735766D01*
X79926994Y-131735766D01*
X79835389Y-131876648D01*
X79820193Y-131887379D01*
X79703947Y-131914034D01*
X79522646Y-131914340D01*
X79381762Y-131894255D01*
X79319433Y-131836358D01*
X79314486Y-131765195D01*
X78822857Y-131765195D01*
X78762994Y-131883796D01*
X78613242Y-131938552D01*
X78418355Y-131919815D01*
X78310086Y-131875732D01*
X78186415Y-131740522D01*
X78181838Y-131685952D01*
X78089502Y-131685952D01*
X78031351Y-131833831D01*
X77930948Y-131885674D01*
X77770261Y-131912475D01*
X77600183Y-131913791D01*
X77471607Y-131889180D01*
X77435097Y-131839010D01*
X77485472Y-131693302D01*
X77513533Y-131544089D01*
X77532175Y-131334000D01*
X77556152Y-131146056D01*
X77616714Y-131058081D01*
X77710697Y-131034840D01*
X77326923Y-131034840D01*
X77324475Y-131319644D01*
X77316486Y-131406571D01*
X77264906Y-131694695D01*
X77186304Y-131882342D01*
X77091186Y-131955883D01*
X76990052Y-131901685D01*
X76963720Y-131864426D01*
X76962986Y-131771699D01*
X76995723Y-131749521D01*
X77053565Y-131664282D01*
X77078400Y-131499074D01*
X77075454Y-131428790D01*
X76862794Y-131428790D01*
X76823469Y-131644575D01*
X76718286Y-131805714D01*
X76572716Y-131924374D01*
X76439760Y-131941849D01*
X76325078Y-131906807D01*
X76219330Y-131833918D01*
X76248769Y-131764574D01*
X76404260Y-131719820D01*
X76573262Y-131670298D01*
X76629715Y-131597338D01*
X76568666Y-131534926D01*
X76434048Y-131515428D01*
X76261704Y-131486797D01*
X76210286Y-131401800D01*
X76248468Y-131249333D01*
X76065143Y-131249333D01*
X76059920Y-131532448D01*
X76046017Y-131756905D01*
X76026084Y-131885525D01*
X76018735Y-131900503D01*
X75940421Y-131928421D01*
X75886647Y-131826884D01*
X75856114Y-131591007D01*
X75847429Y-131257146D01*
X75847548Y-131249333D01*
X75702286Y-131249333D01*
X75697063Y-131532448D01*
X75683160Y-131756905D01*
X75663227Y-131885525D01*
X75655878Y-131900503D01*
X75577564Y-131928421D01*
X75523790Y-131826884D01*
X75493257Y-131591007D01*
X75489088Y-131430762D01*
X75339429Y-131430762D01*
X75332039Y-131666631D01*
X75312920Y-131839457D01*
X75293021Y-131900503D01*
X75209558Y-131925899D01*
X75152544Y-131814617D01*
X75124372Y-131573114D01*
X75121714Y-131438574D01*
X75130222Y-131187152D01*
X75151869Y-131090599D01*
X75033621Y-131090599D01*
X74988010Y-131170161D01*
X74935194Y-131291462D01*
X74906019Y-131491532D01*
X74904000Y-131560181D01*
X74880353Y-131787952D01*
X74797151Y-131907112D01*
X74672426Y-131945128D01*
X74593845Y-131898667D01*
X74571523Y-131868730D01*
X74581731Y-131771729D01*
X74639811Y-131719981D01*
X74733553Y-131595719D01*
X74751976Y-131445030D01*
X74464579Y-131445030D01*
X74428639Y-131666249D01*
X74348467Y-131818143D01*
X74223587Y-131929181D01*
X74101775Y-131939195D01*
X74002793Y-131906807D01*
X73898478Y-131821592D01*
X73913693Y-131731276D01*
X74037931Y-131690932D01*
X74043941Y-131691095D01*
X74181965Y-131658907D01*
X74231417Y-131606143D01*
X74197150Y-131535403D01*
X74070878Y-131515428D01*
X73940515Y-131499229D01*
X73896080Y-131421163D01*
X73901545Y-131279571D01*
X73944242Y-131104189D01*
X74046660Y-131029009D01*
X74091566Y-131020000D01*
X74268957Y-131036430D01*
X74363709Y-131083315D01*
X74443373Y-131229647D01*
X74464579Y-131445030D01*
X74751976Y-131445030D01*
X74755862Y-131413248D01*
X74707701Y-131240160D01*
X74631857Y-131160369D01*
X74548702Y-131098906D01*
X74577314Y-131036471D01*
X74650000Y-130977642D01*
X74794578Y-130882786D01*
X74888639Y-130885622D01*
X74979124Y-130974218D01*
X75033621Y-131090599D01*
X75151869Y-131090599D01*
X75160350Y-131052774D01*
X75219003Y-131008086D01*
X75230571Y-131007428D01*
X75294557Y-131041610D01*
X75328466Y-131162405D01*
X75339337Y-131397189D01*
X75339429Y-131430762D01*
X75489088Y-131430762D01*
X75484571Y-131257146D01*
X75489271Y-130949976D01*
X75506373Y-130762391D01*
X75506752Y-130761349D01*
X75330522Y-130761349D01*
X75312505Y-130861716D01*
X75291048Y-130886476D01*
X75184827Y-130932703D01*
X75124148Y-130857170D01*
X75121714Y-130826000D01*
X75179805Y-130729787D01*
X75230571Y-130717143D01*
X73307429Y-130717143D01*
X73307429Y-131878286D01*
X72984972Y-131878286D01*
X72752846Y-131858687D01*
X72609966Y-131787013D01*
X72549544Y-131716995D01*
X72470950Y-131531686D01*
X72455304Y-131428790D01*
X72363365Y-131428790D01*
X72324040Y-131644575D01*
X72218857Y-131805714D01*
X72073287Y-131924374D01*
X71940332Y-131941849D01*
X71825650Y-131906807D01*
X71719902Y-131833918D01*
X71749341Y-131764574D01*
X71904832Y-131719820D01*
X72073833Y-131670298D01*
X72130286Y-131597338D01*
X72069238Y-131534926D01*
X71934619Y-131515428D01*
X71762275Y-131486797D01*
X71710857Y-131401800D01*
X71764381Y-131188075D01*
X71817463Y-131132443D01*
X71648952Y-131132443D01*
X71601036Y-131332273D01*
X71585078Y-131388428D01*
X71480670Y-131697587D01*
X71384631Y-131876348D01*
X71300512Y-131918882D01*
X71273636Y-131899504D01*
X71222759Y-131801933D01*
X71149353Y-131615821D01*
X71103646Y-131484358D01*
X71051521Y-131318082D01*
X70925180Y-131318082D01*
X70919331Y-131559137D01*
X70829578Y-131773966D01*
X70804562Y-131804778D01*
X70677010Y-131922834D01*
X70562029Y-131942439D01*
X70446793Y-131906807D01*
X70342478Y-131821592D01*
X70357693Y-131731276D01*
X70481931Y-131690932D01*
X70487941Y-131691095D01*
X70625965Y-131658907D01*
X70675417Y-131606143D01*
X70641415Y-131535147D01*
X70519476Y-131515428D01*
X70370200Y-131465924D01*
X70327259Y-131320166D01*
X70344718Y-131249333D01*
X70186857Y-131249333D01*
X70181634Y-131532448D01*
X70167731Y-131756905D01*
X70147798Y-131885525D01*
X70140449Y-131900503D01*
X70062135Y-131928421D01*
X70008362Y-131826884D01*
X69977828Y-131591007D01*
X69973795Y-131435957D01*
X69832079Y-131435957D01*
X69799807Y-131658926D01*
X69703895Y-131818143D01*
X69543503Y-131935221D01*
X69382345Y-131914804D01*
X69243429Y-131805714D01*
X69120280Y-131606098D01*
X69095769Y-131386389D01*
X69158903Y-131186898D01*
X69298687Y-131047937D01*
X69461143Y-131007428D01*
X68953143Y-131007428D01*
X68953143Y-131630333D01*
X68947445Y-131946957D01*
X68928490Y-132137079D01*
X68893484Y-132218963D01*
X68862428Y-132223363D01*
X68779446Y-132135195D01*
X68763087Y-132083905D01*
X62639428Y-132083905D01*
X62585237Y-132198757D01*
X62458530Y-132240028D01*
X62313111Y-132205620D01*
X62206553Y-132100771D01*
X62167320Y-131956851D01*
X62140136Y-131722168D01*
X62131428Y-131483914D01*
X62132859Y-131430582D01*
X62028430Y-131430582D01*
X61991118Y-131653310D01*
X61872136Y-131836925D01*
X61739277Y-131936282D01*
X61598495Y-131933477D01*
X61520507Y-131906807D01*
X61421729Y-131828135D01*
X61414782Y-131741425D01*
X61494823Y-131702207D01*
X61537784Y-131708697D01*
X61688814Y-131687068D01*
X61764384Y-131629331D01*
X61811013Y-131550988D01*
X61796968Y-131543301D01*
X61263183Y-131543301D01*
X61187298Y-131758385D01*
X61151517Y-131805932D01*
X61024216Y-131923400D01*
X60908741Y-131942222D01*
X60794793Y-131906807D01*
X60689940Y-131821840D01*
X60706503Y-131732259D01*
X60832606Y-131690894D01*
X60843286Y-131691095D01*
X60954120Y-131673242D01*
X60999495Y-131581963D01*
X61006571Y-131442857D01*
X60994684Y-131272485D01*
X60933877Y-131203374D01*
X60788857Y-131192039D01*
X60655393Y-131204499D01*
X60587937Y-131262872D01*
X60558740Y-131406346D01*
X60549282Y-131530415D01*
X60503362Y-131771406D01*
X60413586Y-131910558D01*
X60295888Y-131931423D01*
X60214293Y-131876145D01*
X60186339Y-131790390D01*
X60262714Y-131725017D01*
X60362517Y-131595365D01*
X60389714Y-131442857D01*
X60345488Y-131252477D01*
X60262714Y-131160369D01*
X60179560Y-131098906D01*
X60208171Y-131036471D01*
X60280857Y-130977642D01*
X60433951Y-130880128D01*
X60526401Y-130883182D01*
X60571143Y-130934857D01*
X60668011Y-130984667D01*
X60842507Y-131007302D01*
X60856825Y-131007428D01*
X61049054Y-131036931D01*
X61181203Y-131108220D01*
X61183825Y-131111255D01*
X61263141Y-131303599D01*
X61263183Y-131543301D01*
X61796968Y-131543301D01*
X61754349Y-131519977D01*
X61632314Y-131515428D01*
X61467900Y-131493722D01*
X61408423Y-131414007D01*
X61405714Y-131376221D01*
X61445971Y-131140603D01*
X61568267Y-131023011D01*
X61665806Y-131007428D01*
X61855850Y-131067744D01*
X61980033Y-131222094D01*
X62028430Y-131430582D01*
X62132859Y-131430582D01*
X62138571Y-131217802D01*
X62164114Y-131069285D01*
X62214235Y-131011331D01*
X62240286Y-131007428D01*
X62299430Y-131037304D01*
X62333279Y-131144726D01*
X62347556Y-131356389D01*
X62349143Y-131515428D01*
X62353059Y-131782398D01*
X62370717Y-131935341D01*
X62410986Y-132005293D01*
X62482732Y-132023287D01*
X62494286Y-132023428D01*
X62612286Y-132048797D01*
X62639428Y-132083905D01*
X68763087Y-132083905D01*
X68749050Y-132039900D01*
X68694823Y-131929176D01*
X68631407Y-131922758D01*
X68499298Y-131906863D01*
X68382982Y-131784170D01*
X68310750Y-131592482D01*
X68300000Y-131479895D01*
X68303094Y-131432593D01*
X68154857Y-131432593D01*
X68146915Y-131668630D01*
X68126377Y-131842228D01*
X68105267Y-131903686D01*
X68026318Y-131918275D01*
X67963730Y-131801886D01*
X67924773Y-131568397D01*
X67923850Y-131557324D01*
X67883160Y-131331535D01*
X67821609Y-131244559D01*
X67758396Y-131295705D01*
X67712718Y-131484280D01*
X67705452Y-131565198D01*
X67672283Y-131801341D01*
X67620433Y-131900740D01*
X67563176Y-131861543D01*
X67513783Y-131681896D01*
X67501714Y-131593635D01*
X67454368Y-131354939D01*
X67391598Y-131249815D01*
X67328906Y-131280167D01*
X67281792Y-131447896D01*
X67270024Y-131565198D01*
X67236853Y-131789652D01*
X67184582Y-131885900D01*
X67129052Y-131849839D01*
X67086108Y-131677365D01*
X67079379Y-131614577D01*
X67070773Y-131430582D01*
X66963287Y-131430582D01*
X66925975Y-131653310D01*
X66806993Y-131836925D01*
X66674134Y-131936282D01*
X66533352Y-131933477D01*
X66455364Y-131906807D01*
X66356587Y-131828135D01*
X66349639Y-131741425D01*
X66429680Y-131702207D01*
X66472641Y-131708697D01*
X66623672Y-131687068D01*
X66699241Y-131629331D01*
X66745870Y-131550988D01*
X66689206Y-131519977D01*
X66567172Y-131515428D01*
X66402757Y-131493722D01*
X66352668Y-131426589D01*
X66195428Y-131426589D01*
X66187595Y-131664316D01*
X66167312Y-131839789D01*
X66145838Y-131903686D01*
X66066890Y-131918275D01*
X66004302Y-131801886D01*
X65965344Y-131568397D01*
X65964421Y-131557324D01*
X65923731Y-131331535D01*
X65862181Y-131244559D01*
X65798968Y-131295705D01*
X65753289Y-131484280D01*
X65746024Y-131565198D01*
X65715915Y-131793544D01*
X65671876Y-131886753D01*
X65626161Y-131852452D01*
X65591024Y-131698266D01*
X65578571Y-131461000D01*
X65578571Y-131090599D01*
X65454193Y-131090599D01*
X65408581Y-131170161D01*
X65355765Y-131291462D01*
X65326591Y-131491532D01*
X65324571Y-131560181D01*
X65300924Y-131787952D01*
X65217722Y-131907112D01*
X65092997Y-131945128D01*
X65014416Y-131898667D01*
X64992094Y-131868730D01*
X65002303Y-131771729D01*
X65060382Y-131719981D01*
X65154124Y-131595719D01*
X65176434Y-131413248D01*
X65128272Y-131240160D01*
X65052428Y-131160369D01*
X64969274Y-131098906D01*
X64997885Y-131036471D01*
X65070571Y-130977642D01*
X65215149Y-130882786D01*
X65309211Y-130885622D01*
X65399695Y-130974218D01*
X65454193Y-131090599D01*
X65578571Y-131090599D01*
X65578571Y-131043714D01*
X65887000Y-131021399D01*
X66195428Y-130999083D01*
X66195428Y-131426589D01*
X66352668Y-131426589D01*
X66343280Y-131414007D01*
X66340571Y-131376221D01*
X66380828Y-131140603D01*
X66503125Y-131023011D01*
X66600663Y-131007428D01*
X66790707Y-131067744D01*
X66914890Y-131222094D01*
X66963287Y-131430582D01*
X67070773Y-131430582D01*
X67065960Y-131327704D01*
X67103778Y-131151278D01*
X67218362Y-131058350D01*
X67435242Y-131021970D01*
X67646586Y-131015849D01*
X68154857Y-131011090D01*
X68154857Y-131432593D01*
X68303094Y-131432593D01*
X68316845Y-131222435D01*
X68382967Y-131077987D01*
X68521743Y-131016749D01*
X68670621Y-131007428D01*
X68953143Y-131007428D01*
X69461143Y-131007428D01*
X69650358Y-131068834D01*
X69778134Y-131225469D01*
X69832079Y-131435957D01*
X69973795Y-131435957D01*
X69969143Y-131257146D01*
X69973843Y-130949976D01*
X69990945Y-130762391D01*
X70007430Y-130717143D01*
X64453714Y-130717143D01*
X64453714Y-131285619D01*
X64448167Y-131559867D01*
X64433466Y-131774752D01*
X64412523Y-131891691D01*
X64407306Y-131900503D01*
X64321559Y-131921948D01*
X64257299Y-131827416D01*
X64236000Y-131673497D01*
X64179182Y-131482618D01*
X64111462Y-131430762D01*
X63728000Y-131430762D01*
X63720611Y-131666631D01*
X63701492Y-131839457D01*
X63681592Y-131900503D01*
X63597485Y-131925007D01*
X63538140Y-131821012D01*
X63511138Y-131604141D01*
X63510286Y-131547431D01*
X63504968Y-131469675D01*
X63214914Y-131469675D01*
X63171643Y-131688807D01*
X63099895Y-131818143D01*
X62939503Y-131935221D01*
X62778345Y-131914804D01*
X62639428Y-131805714D01*
X62517388Y-131589222D01*
X62507053Y-131328037D01*
X62569410Y-131147800D01*
X62697491Y-131042140D01*
X62887652Y-131007521D01*
X63072012Y-131050362D01*
X63132914Y-131094514D01*
X63203014Y-131249465D01*
X63214914Y-131469675D01*
X63504968Y-131469675D01*
X63495669Y-131333741D01*
X63446097Y-131237360D01*
X63401428Y-131225143D01*
X63305216Y-131167052D01*
X63292571Y-131116286D01*
X63357481Y-131029863D01*
X63510286Y-131007428D01*
X63632069Y-131013443D01*
X63697050Y-131054616D01*
X63723074Y-131165644D01*
X63727982Y-131381220D01*
X63728000Y-131430762D01*
X64111462Y-131430762D01*
X64078650Y-131405637D01*
X63879133Y-131253210D01*
X63810792Y-131040337D01*
X63827553Y-130909804D01*
X63859167Y-130832048D01*
X62349143Y-130832048D01*
X62306840Y-130911520D01*
X62219797Y-130898848D01*
X62148059Y-130803321D01*
X62179644Y-130729293D01*
X62234238Y-130717143D01*
X62334208Y-130775574D01*
X62349143Y-130832048D01*
X63859167Y-130832048D01*
X63878821Y-130783709D01*
X63979272Y-130728766D01*
X64164811Y-130717143D01*
X64453714Y-130717143D01*
X70007430Y-130717143D01*
X70024953Y-130669047D01*
X70078000Y-130644571D01*
X70132886Y-130671228D01*
X70166267Y-130768164D01*
X70182725Y-130960827D01*
X70186857Y-131249333D01*
X70344718Y-131249333D01*
X70376050Y-131122221D01*
X70477360Y-131029761D01*
X70638845Y-131014699D01*
X70797718Y-131077313D01*
X70843209Y-131120153D01*
X70925180Y-131318082D01*
X71051521Y-131318082D01*
X71022425Y-131225268D01*
X70991625Y-131078083D01*
X71009568Y-131019239D01*
X71070857Y-131023905D01*
X71149082Y-131106193D01*
X71229617Y-131271078D01*
X71240644Y-131302095D01*
X71324716Y-131551714D01*
X71414558Y-131279571D01*
X71493476Y-131106677D01*
X71578756Y-131012959D01*
X71599680Y-131007428D01*
X71648129Y-131033842D01*
X71648952Y-131132443D01*
X71817463Y-131132443D01*
X71901685Y-131044176D01*
X72037429Y-131007428D01*
X72210519Y-131068239D01*
X72322345Y-131222685D01*
X72363365Y-131428790D01*
X72455304Y-131428790D01*
X72436628Y-131305971D01*
X72436571Y-131297714D01*
X72480344Y-131000016D01*
X72616754Y-130811881D01*
X72853440Y-130725224D01*
X72984972Y-130717143D01*
X73307429Y-130717143D01*
X75230571Y-130717143D01*
X75330522Y-130761349D01*
X75506752Y-130761349D01*
X75540381Y-130669047D01*
X75593429Y-130644571D01*
X75648315Y-130671228D01*
X75681696Y-130768164D01*
X75698154Y-130960827D01*
X75702286Y-131249333D01*
X75847548Y-131249333D01*
X75852128Y-130949976D01*
X75869230Y-130762391D01*
X75903238Y-130669047D01*
X75956286Y-130644571D01*
X76011172Y-130671228D01*
X76044553Y-130768164D01*
X76061011Y-130960827D01*
X76065143Y-131249333D01*
X76248468Y-131249333D01*
X76263810Y-131188075D01*
X76401113Y-131044176D01*
X76536857Y-131007428D01*
X76709948Y-131068239D01*
X76821773Y-131222685D01*
X76862794Y-131428790D01*
X77075454Y-131428790D01*
X77070689Y-131315160D01*
X77030894Y-131173801D01*
X76991076Y-131134644D01*
X76949399Y-131082210D01*
X77022179Y-130983454D01*
X77176600Y-130867932D01*
X77277907Y-130884665D01*
X77326923Y-131034840D01*
X77710697Y-131034840D01*
X77750881Y-131024903D01*
X77788714Y-131020973D01*
X77958018Y-131023431D01*
X78021425Y-131084342D01*
X78024571Y-131116578D01*
X77983765Y-131200247D01*
X77885536Y-131190795D01*
X77745600Y-131179210D01*
X77706481Y-131238890D01*
X77773384Y-131331897D01*
X77858982Y-131384342D01*
X78031755Y-131519700D01*
X78089502Y-131685952D01*
X78181838Y-131685952D01*
X78170626Y-131552277D01*
X78257770Y-131349264D01*
X78397106Y-131202845D01*
X78535148Y-131057741D01*
X78569447Y-130939701D01*
X78501991Y-130877186D01*
X78375013Y-130886560D01*
X78268006Y-130885456D01*
X78257036Y-130803001D01*
X78338025Y-130686547D01*
X78486821Y-130662199D01*
X78655077Y-130735025D01*
X78683114Y-130758315D01*
X78799124Y-130905933D01*
X78798015Y-131054983D01*
X78675613Y-131234937D01*
X78605143Y-131308879D01*
X78468818Y-131470117D01*
X78392985Y-131608188D01*
X78387429Y-131638939D01*
X78422135Y-131713503D01*
X78548172Y-131717857D01*
X78605143Y-131707743D01*
X78766777Y-131695473D01*
X78822168Y-131752223D01*
X78822857Y-131765195D01*
X79314486Y-131765195D01*
X79309845Y-131698454D01*
X79317310Y-131578675D01*
X79345043Y-131288449D01*
X79387363Y-131116206D01*
X79459990Y-131034791D01*
X79578645Y-131017049D01*
X79639900Y-131021436D01*
X79806146Y-131063542D01*
X79893538Y-131133823D01*
X79893821Y-131134658D01*
X79862903Y-131201764D01*
X79762267Y-131207229D01*
X79622408Y-131227894D01*
X79568666Y-131279571D01*
X79599754Y-131353240D01*
X79685113Y-131370286D01*
X79837810Y-131428817D01*
X79923119Y-131568566D01*
X79926994Y-131735766D01*
X80078203Y-131735766D01*
X80059229Y-131573114D01*
X80056571Y-131438574D01*
X80065079Y-131187152D01*
X80095207Y-131052774D01*
X80153860Y-131008086D01*
X80165429Y-131007428D01*
X80229414Y-131041610D01*
X80263323Y-131162405D01*
X80274194Y-131397189D01*
X80274286Y-131430762D01*
X80440098Y-131430762D01*
X80434746Y-131270896D01*
X80428327Y-130962996D01*
X80434435Y-130826000D01*
X80274286Y-130826000D01*
X80216195Y-130922213D01*
X80165429Y-130934857D01*
X80069216Y-130876766D01*
X80056571Y-130826000D01*
X80114662Y-130729787D01*
X80165429Y-130717143D01*
X80261641Y-130775234D01*
X80274286Y-130826000D01*
X80434435Y-130826000D01*
X80436773Y-130773575D01*
X80463884Y-130676391D01*
X80513461Y-130645202D01*
X80525460Y-130644571D01*
X80615927Y-130707337D01*
X80637143Y-130826000D01*
X80667295Y-130964285D01*
X80785110Y-131006745D01*
X80816018Y-131007428D01*
X80998593Y-131071002D01*
X81111129Y-131252707D01*
X81145143Y-131505474D01*
X81393689Y-131505474D01*
X81269222Y-131479548D01*
X81216298Y-131367444D01*
X81279997Y-131172424D01*
X81292839Y-131147800D01*
X81423725Y-131036256D01*
X81606897Y-131012967D01*
X81774098Y-131085344D01*
X81783771Y-131094514D01*
X81863390Y-131262491D01*
X81870931Y-131487308D01*
X82043242Y-131487308D01*
X82034705Y-131393406D01*
X82031112Y-131309952D01*
X82023617Y-131014097D01*
X82029915Y-130836145D01*
X82054963Y-130749125D01*
X82103716Y-130726069D01*
X82137698Y-130729937D01*
X82247143Y-130821555D01*
X82349321Y-131045031D01*
X82371879Y-131116842D01*
X82478301Y-131479143D01*
X82584220Y-131098143D01*
X82664744Y-130860815D01*
X82747154Y-130742722D01*
X82824784Y-130717143D01*
X82892713Y-130732348D01*
X82933170Y-130797349D01*
X82953042Y-130941218D01*
X82959217Y-131193032D01*
X82959428Y-131285619D01*
X83540741Y-131285619D01*
X83540000Y-131257146D01*
X83544700Y-130949976D01*
X83561802Y-130762391D01*
X83595810Y-130669047D01*
X83648857Y-130644571D01*
X83703743Y-130671228D01*
X83737125Y-130768164D01*
X83753582Y-130960827D01*
X83757714Y-131249333D01*
X84001833Y-131249333D01*
X84015009Y-131146056D01*
X84075571Y-131058081D01*
X84209738Y-131024903D01*
X84247571Y-131020973D01*
X84416875Y-131023431D01*
X84480282Y-131084342D01*
X84483428Y-131116578D01*
X84442623Y-131200247D01*
X84344393Y-131190795D01*
X84204457Y-131179210D01*
X84165338Y-131238890D01*
X84232241Y-131331897D01*
X84317839Y-131384342D01*
X84490612Y-131519700D01*
X84548359Y-131685952D01*
X84645120Y-131685952D01*
X84644181Y-131517932D01*
X84646279Y-131466889D01*
X84673236Y-131211275D01*
X84722613Y-131056680D01*
X84755571Y-131025413D01*
X84809130Y-131052476D01*
X84838081Y-131189797D01*
X84846286Y-131436809D01*
X85317546Y-131436809D01*
X85305224Y-131272739D01*
X85249068Y-131208036D01*
X85154714Y-131206144D01*
X85020228Y-131181286D01*
X84991428Y-131115430D01*
X85051008Y-131038219D01*
X85191533Y-131007580D01*
X85355678Y-131025941D01*
X85484914Y-131094514D01*
X85555014Y-131249465D01*
X85566914Y-131469675D01*
X85677922Y-131469675D01*
X85701108Y-131285647D01*
X85751559Y-131181526D01*
X85906262Y-131037153D01*
X86075759Y-131011446D01*
X86231573Y-131084529D01*
X86345228Y-131236522D01*
X86388248Y-131447551D01*
X86519883Y-131447551D01*
X86527298Y-131420200D01*
X86699599Y-131219614D01*
X86726421Y-131194940D01*
X86854048Y-131041879D01*
X86874702Y-130928741D01*
X86790837Y-130880661D01*
X86696857Y-130892087D01*
X86557033Y-130903188D01*
X86515441Y-130830996D01*
X86515429Y-130828765D01*
X86517123Y-130826000D01*
X84846286Y-130826000D01*
X84809463Y-130916320D01*
X84768271Y-130920948D01*
X84693293Y-130846026D01*
X84690257Y-130826000D01*
X84746755Y-130740908D01*
X84768271Y-130731052D01*
X84834445Y-130766084D01*
X84846286Y-130826000D01*
X86517123Y-130826000D01*
X86576553Y-130729052D01*
X86719775Y-130671917D01*
X86884865Y-130671486D01*
X86988085Y-130717925D01*
X87090695Y-130885203D01*
X87075483Y-131091338D01*
X86949004Y-131300374D01*
X86867872Y-131377450D01*
X86723889Y-131533446D01*
X86693628Y-131653426D01*
X86773128Y-131713897D01*
X86922488Y-131701355D01*
X87062108Y-131695372D01*
X87096000Y-131755951D01*
X92529451Y-131755951D01*
X92376845Y-131668025D01*
X89438150Y-129970050D01*
X89428838Y-129850432D01*
X71208359Y-129850432D01*
X71006036Y-129802039D01*
X70840141Y-129756721D01*
X70749286Y-129723112D01*
X70699537Y-129632931D01*
X70694857Y-129588003D01*
X70654281Y-129494208D01*
X70622286Y-129483428D01*
X70563323Y-129544211D01*
X70549714Y-129628571D01*
X70519323Y-129746498D01*
X70477143Y-129773714D01*
X70416491Y-129713499D01*
X70404571Y-129640667D01*
X70371751Y-129485206D01*
X70287389Y-129439057D01*
X70245782Y-129455577D01*
X70229074Y-129535399D01*
X70267343Y-129601822D01*
X70317036Y-129715412D01*
X70270867Y-129791304D01*
X70166954Y-129843085D01*
X70096562Y-129756278D01*
X70059402Y-129529970D01*
X70055186Y-129163248D01*
X70056738Y-129113824D01*
X70057889Y-129080769D01*
X69911160Y-129080769D01*
X69883500Y-129210780D01*
X69794746Y-129341254D01*
X69668499Y-129424100D01*
X69642571Y-129430427D01*
X69557581Y-129455172D01*
X69588068Y-129496292D01*
X69697000Y-129553760D01*
X69838275Y-129651925D01*
X69896571Y-129749077D01*
X69885025Y-129826677D01*
X69825065Y-129835262D01*
X69678713Y-129776908D01*
X69647381Y-129762701D01*
X69491139Y-129646611D01*
X69413448Y-129526844D01*
X69373766Y-129426770D01*
X69345140Y-129455160D01*
X69318067Y-129556000D01*
X69259455Y-129682777D01*
X69137030Y-129732080D01*
X69023436Y-129737428D01*
X68833571Y-129711837D01*
X68753096Y-129626425D01*
X68749244Y-129610428D01*
X68776970Y-129502410D01*
X68838964Y-129483428D01*
X68938907Y-129521017D01*
X68953143Y-129556000D01*
X69008368Y-129626463D01*
X69025714Y-129628571D01*
X69090098Y-129569792D01*
X69098286Y-129519714D01*
X69038322Y-129429891D01*
X68961010Y-129410857D01*
X68844036Y-129350819D01*
X68771016Y-129212895D01*
X68761653Y-129060365D01*
X68821934Y-128964170D01*
X68879389Y-128897879D01*
X68824428Y-128843086D01*
X68782174Y-128774915D01*
X68798632Y-128751782D01*
X68649165Y-128751782D01*
X68632865Y-128807850D01*
X68484725Y-128854879D01*
X68257360Y-128874171D01*
X68044300Y-128886122D01*
X67943378Y-128919619D01*
X67921767Y-128989035D01*
X67925896Y-129019314D01*
X68013443Y-129225922D01*
X68208562Y-129394950D01*
X68312857Y-129453792D01*
X68471097Y-129562019D01*
X68509492Y-129649640D01*
X68423957Y-129697404D01*
X68365314Y-129701143D01*
X68255228Y-129662534D01*
X66222564Y-129662534D01*
X66173525Y-129747568D01*
X66098033Y-129759249D01*
X65965966Y-129690914D01*
X65789031Y-129566624D01*
X65771394Y-129552393D01*
X65182540Y-129552393D01*
X65093035Y-129593839D01*
X64911586Y-129622076D01*
X64744000Y-129628571D01*
X64512066Y-129617554D01*
X64354822Y-129588774D01*
X64308571Y-129556000D01*
X64370677Y-129501446D01*
X64490000Y-129483428D01*
X64628104Y-129453455D01*
X64670662Y-129335434D01*
X64671428Y-129302000D01*
X64650184Y-129213149D01*
X64157274Y-129213149D01*
X64113308Y-129260050D01*
X64014183Y-129197633D01*
X63928687Y-129095351D01*
X63790128Y-128962165D01*
X63647959Y-128906168D01*
X63542071Y-128934264D01*
X63510286Y-129022951D01*
X63559970Y-129137696D01*
X63687430Y-129302514D01*
X63795862Y-129414707D01*
X63945800Y-129571507D01*
X64030814Y-129688888D01*
X64037767Y-129730042D01*
X63915294Y-129769901D01*
X63749655Y-129680386D01*
X63636570Y-129574143D01*
X63475662Y-129365144D01*
X63359181Y-129156857D01*
X63074857Y-129156857D01*
X63069233Y-129475291D01*
X63050519Y-129667201D01*
X63015951Y-129750839D01*
X62984143Y-129755946D01*
X62915559Y-129670818D01*
X62863226Y-129499496D01*
X62857143Y-129461567D01*
X62822019Y-129292419D01*
X62769308Y-129243205D01*
X62712000Y-129266557D01*
X62549097Y-129332483D01*
X62443297Y-129303082D01*
X62421714Y-129236528D01*
X62483177Y-129143676D01*
X62631284Y-129061722D01*
X62634063Y-129060745D01*
X62806098Y-128955056D01*
X62869921Y-128787099D01*
X62916655Y-128630561D01*
X62984143Y-128557692D01*
X63030341Y-128581534D01*
X63058910Y-128701958D01*
X63072613Y-128937212D01*
X63074857Y-129156857D01*
X63359181Y-129156857D01*
X63341583Y-129125390D01*
X63333355Y-129106311D01*
X63272670Y-128891560D01*
X63317471Y-128772738D01*
X63474464Y-128739433D01*
X63564714Y-128747004D01*
X63699832Y-128725571D01*
X63728000Y-128654051D01*
X63755783Y-128549351D01*
X63832962Y-128571189D01*
X63950276Y-128713341D01*
X64042791Y-128865735D01*
X64136847Y-129075516D01*
X64157274Y-129213149D01*
X64650184Y-129213149D01*
X64637411Y-129159730D01*
X64526286Y-129120571D01*
X64408082Y-129075195D01*
X64381143Y-129011714D01*
X64419988Y-128943258D01*
X64554480Y-128909823D01*
X64744000Y-128902857D01*
X64972187Y-128914511D01*
X65083638Y-128954858D01*
X65106857Y-129011714D01*
X65045869Y-129100251D01*
X64956667Y-129120571D01*
X64845509Y-129167365D01*
X64819983Y-129274099D01*
X64871508Y-129390308D01*
X64991502Y-129465523D01*
X65016143Y-129470333D01*
X65162708Y-129507853D01*
X65182540Y-129552393D01*
X65771394Y-129552393D01*
X65498965Y-129332576D01*
X65326718Y-129142942D01*
X65278308Y-129004866D01*
X65289524Y-128973425D01*
X65371884Y-128963830D01*
X65530782Y-129076830D01*
X65605062Y-129145959D01*
X65802313Y-129314025D01*
X65996650Y-129443259D01*
X66067042Y-129476785D01*
X66210984Y-129566563D01*
X66222564Y-129662534D01*
X68255228Y-129662534D01*
X68225137Y-129651981D01*
X68046306Y-129527638D01*
X67966171Y-129454400D01*
X67818400Y-129273601D01*
X67730292Y-129101991D01*
X67719428Y-129042829D01*
X67671260Y-128853743D01*
X67608822Y-128755781D01*
X67576056Y-128685143D01*
X67429143Y-128685143D01*
X67429143Y-129597376D01*
X66993797Y-129594831D01*
X66558452Y-129592286D01*
X66558369Y-129138714D01*
X66558346Y-129008488D01*
X66315467Y-129008488D01*
X66236819Y-129113143D01*
X66120047Y-129184975D01*
X66071638Y-129193143D01*
X65993439Y-129148371D01*
X65994129Y-129107613D01*
X66073912Y-128998724D01*
X66196551Y-128921812D01*
X66299677Y-128913432D01*
X66311146Y-128921813D01*
X66315467Y-129008488D01*
X66558346Y-129008488D01*
X66558286Y-128685143D01*
X67429143Y-128685143D01*
X67576056Y-128685143D01*
X67557552Y-128645251D01*
X66195428Y-128645251D01*
X66140964Y-128766639D01*
X66019822Y-128842983D01*
X65895381Y-128840199D01*
X65868857Y-128820880D01*
X65856310Y-128726012D01*
X65902884Y-128678750D01*
X65706354Y-128678750D01*
X65679437Y-128731057D01*
X65600523Y-128814707D01*
X65523905Y-128817154D01*
X65439364Y-128786236D01*
X65338427Y-128691000D01*
X65345457Y-128568326D01*
X65434353Y-128493318D01*
X65574934Y-128491224D01*
X65680118Y-128567116D01*
X65706354Y-128678750D01*
X65902884Y-128678750D01*
X65937156Y-128643972D01*
X66099717Y-128550542D01*
X66181847Y-128573030D01*
X66195428Y-128645251D01*
X67557552Y-128645251D01*
X67540971Y-128609508D01*
X67566215Y-128471189D01*
X67670707Y-128397049D01*
X67697701Y-128394857D01*
X67801319Y-128455723D01*
X67843544Y-128540000D01*
X67888033Y-128625400D01*
X67988939Y-128669325D01*
X68183977Y-128684369D01*
X68278226Y-128685143D01*
X68531620Y-128704828D01*
X68649165Y-128751782D01*
X68798632Y-128751782D01*
X68854385Y-128673421D01*
X68883287Y-128646400D01*
X69003699Y-128559943D01*
X69076280Y-128580854D01*
X69093645Y-128605062D01*
X69162974Y-128658093D01*
X69202354Y-128620319D01*
X69302388Y-128565917D01*
X69480249Y-128540291D01*
X69501711Y-128540000D01*
X69680749Y-128564052D01*
X69759173Y-128657570D01*
X69761462Y-128852598D01*
X69758742Y-128876457D01*
X69806963Y-128971546D01*
X69854130Y-128999310D01*
X69911160Y-129080769D01*
X70057889Y-129080769D01*
X70078000Y-128503714D01*
X70332000Y-128503714D01*
X70498273Y-128513625D01*
X70569444Y-128572116D01*
X70585770Y-128722330D01*
X70586000Y-128775905D01*
X70598827Y-128950921D01*
X70630632Y-129043609D01*
X70640429Y-129048048D01*
X70674302Y-128983528D01*
X70693342Y-128822137D01*
X70694857Y-128753116D01*
X70701591Y-128566095D01*
X70743885Y-128485956D01*
X70854883Y-128474459D01*
X70930714Y-128480973D01*
X71166571Y-128503714D01*
X71208359Y-129850432D01*
X89428838Y-129850432D01*
X89417779Y-129708400D01*
X84338286Y-129708400D01*
X84294399Y-129775812D01*
X84181032Y-129747269D01*
X84025628Y-129634857D01*
X84001880Y-129610711D01*
X82105865Y-129610711D01*
X82078314Y-129677217D01*
X82006147Y-129726293D01*
X81897655Y-129706555D01*
X81713545Y-129610106D01*
X81697504Y-129600687D01*
X81482177Y-129450987D01*
X81300896Y-129287070D01*
X81257826Y-129236209D01*
X81214381Y-129158552D01*
X81057194Y-129158552D01*
X81046506Y-129229650D01*
X80910988Y-129265409D01*
X80892525Y-129265714D01*
X80745190Y-129305267D01*
X80669058Y-129448207D01*
X80664778Y-129465286D01*
X80608945Y-129662798D01*
X80552793Y-129753367D01*
X80481951Y-129773714D01*
X80441475Y-129710862D01*
X80450848Y-129610029D01*
X79938912Y-129610029D01*
X79932657Y-129724049D01*
X79861728Y-129746811D01*
X79826438Y-129729753D01*
X79750180Y-129636192D01*
X79661696Y-129467737D01*
X79650024Y-129440614D01*
X79640350Y-129409063D01*
X79469080Y-129409063D01*
X79443234Y-129606292D01*
X79374870Y-129686822D01*
X79254621Y-129663896D01*
X79197483Y-129629478D01*
X78023599Y-129629478D01*
X77982837Y-129696210D01*
X77946418Y-129701143D01*
X77849393Y-129653698D01*
X77704353Y-129535605D01*
X77660598Y-129493477D01*
X77498591Y-129360776D01*
X77393830Y-129348691D01*
X77377104Y-129361639D01*
X77284135Y-129406266D01*
X77238915Y-129347896D01*
X77263702Y-129226416D01*
X77282578Y-129192242D01*
X77326263Y-129029857D01*
X77135571Y-129029857D01*
X77098945Y-129096263D01*
X76927521Y-129120413D01*
X76905762Y-129120571D01*
X76731173Y-129133616D01*
X76658630Y-129191892D01*
X76645714Y-129297717D01*
X76672472Y-129451379D01*
X76718286Y-129519714D01*
X76780437Y-129610635D01*
X76782379Y-129720154D01*
X76722903Y-129773712D01*
X76722401Y-129773714D01*
X76634144Y-129720243D01*
X76540972Y-129612424D01*
X76453561Y-129426754D01*
X76452507Y-129420942D01*
X75913119Y-129420942D01*
X75856797Y-129463309D01*
X75702286Y-129447143D01*
X75550755Y-129426256D01*
X75493250Y-129481705D01*
X75484571Y-129622805D01*
X75464051Y-129778144D01*
X75414430Y-129846161D01*
X75412000Y-129846286D01*
X75369393Y-129781276D01*
X75343291Y-129616165D01*
X75339429Y-129507286D01*
X75306423Y-129217393D01*
X75217772Y-129033857D01*
X75141067Y-128904632D01*
X75174763Y-128820780D01*
X75257514Y-128796041D01*
X75331787Y-128888580D01*
X75443427Y-129020986D01*
X75620764Y-129163769D01*
X75665082Y-129192575D01*
X75848619Y-129326627D01*
X75913119Y-129420942D01*
X76452507Y-129420942D01*
X76428000Y-129285852D01*
X76401746Y-129168017D01*
X76295009Y-129124316D01*
X76204238Y-129120571D01*
X76041994Y-129096062D01*
X76010714Y-129029857D01*
X76097621Y-128975390D01*
X76317490Y-128945710D01*
X76573143Y-128939143D01*
X76896587Y-128950862D01*
X77082643Y-128986653D01*
X77135571Y-129029857D01*
X77326263Y-129029857D01*
X77332025Y-129008442D01*
X77297454Y-128862881D01*
X77263665Y-128725920D01*
X76936000Y-128725920D01*
X76910363Y-128788813D01*
X76813396Y-128818873D01*
X76615014Y-128822344D01*
X76495049Y-128817416D01*
X76247947Y-128791542D01*
X76144410Y-128767210D01*
X75049143Y-128767210D01*
X74985588Y-128809898D01*
X74830492Y-128830049D01*
X74809715Y-128830286D01*
X74654442Y-128839243D01*
X74593296Y-128894566D01*
X74593403Y-129038928D01*
X74600077Y-129102429D01*
X74656998Y-129327093D01*
X74756046Y-129511649D01*
X74767596Y-129525098D01*
X74851729Y-129648713D01*
X74856283Y-129724670D01*
X74781291Y-129768974D01*
X74688599Y-129727666D01*
X74601286Y-129653609D01*
X74498281Y-129528289D01*
X74468571Y-129447028D01*
X74421390Y-129348396D01*
X74301153Y-129193370D01*
X74214571Y-129099015D01*
X74068591Y-128927689D01*
X73777489Y-128927689D01*
X73773053Y-129192759D01*
X73768733Y-129257638D01*
X73738857Y-129573550D01*
X73701067Y-129756720D01*
X73650110Y-129819521D01*
X73580736Y-129774330D01*
X73560493Y-129748422D01*
X73436732Y-129648536D01*
X73359904Y-129628571D01*
X73234778Y-129679429D01*
X73204619Y-129719286D01*
X73156959Y-129772655D01*
X73119952Y-129719286D01*
X73039901Y-129635564D01*
X73011095Y-129628571D01*
X72960973Y-129683588D01*
X72962714Y-129719286D01*
X72921959Y-129798819D01*
X72872000Y-129810000D01*
X72801067Y-129765831D01*
X72782576Y-129701143D01*
X72581714Y-129701143D01*
X72513206Y-129735916D01*
X72323564Y-129760721D01*
X72036614Y-129772910D01*
X71928571Y-129773714D01*
X71615612Y-129766102D01*
X71392368Y-129745031D01*
X71282663Y-129713148D01*
X71275429Y-129701143D01*
X71339622Y-129652128D01*
X71498767Y-129621638D01*
X71547571Y-129618688D01*
X71694571Y-129606941D01*
X71698033Y-129587832D01*
X71650880Y-129576628D01*
X71527111Y-129515854D01*
X71521602Y-129441368D01*
X71520126Y-129351505D01*
X71490865Y-129338286D01*
X71428490Y-129279471D01*
X71420571Y-129229428D01*
X71485527Y-129140418D01*
X71620143Y-129110688D01*
X71744722Y-129100795D01*
X71731108Y-129085260D01*
X71656429Y-129069355D01*
X71541675Y-129016936D01*
X71497271Y-128890427D01*
X71493143Y-128788953D01*
X71493143Y-128540000D01*
X72382876Y-128540000D01*
X72346220Y-128865211D01*
X72341058Y-129122197D01*
X72399433Y-129264295D01*
X72408554Y-129272577D01*
X72474944Y-129375796D01*
X72403817Y-129466592D01*
X72197141Y-129548306D01*
X71964857Y-129615481D01*
X72273286Y-129622026D01*
X72461726Y-129641246D01*
X72570833Y-129681835D01*
X72581714Y-129701143D01*
X72782576Y-129701143D01*
X72758741Y-129617765D01*
X72741207Y-129429000D01*
X72717125Y-129216072D01*
X72678796Y-129077787D01*
X72650493Y-129048000D01*
X72583686Y-128992661D01*
X72581714Y-128975429D01*
X72642087Y-128915236D01*
X72717971Y-128902857D01*
X72876842Y-128853433D01*
X72936320Y-128803942D01*
X72971460Y-128736595D01*
X72894757Y-128729888D01*
X72836349Y-128739831D01*
X72696708Y-128741256D01*
X72654402Y-128659674D01*
X72654286Y-128651848D01*
X72695540Y-128562898D01*
X72838536Y-128548511D01*
X72853901Y-128549999D01*
X73036180Y-128545870D01*
X73147365Y-128512935D01*
X73276802Y-128503366D01*
X73340432Y-128537276D01*
X73440538Y-128581261D01*
X73492780Y-128533652D01*
X73563444Y-128508909D01*
X73672653Y-128615714D01*
X73674147Y-128617690D01*
X73746755Y-128751119D01*
X73777489Y-128927689D01*
X74068591Y-128927689D01*
X74027673Y-128879667D01*
X73964779Y-128729829D01*
X74026125Y-128643200D01*
X74211947Y-128613477D01*
X74232714Y-128613370D01*
X74514302Y-128626511D01*
X74768560Y-128659618D01*
X74958431Y-128705708D01*
X75046859Y-128757799D01*
X75049143Y-128767210D01*
X76144410Y-128767210D01*
X76057383Y-128746758D01*
X75978163Y-128704067D01*
X75946144Y-128584167D01*
X75994091Y-128501883D01*
X76078293Y-128429035D01*
X76165773Y-128465094D01*
X76208263Y-128501883D01*
X76360429Y-128574283D01*
X76582254Y-128611156D01*
X76633286Y-128612571D01*
X76837070Y-128627999D01*
X76925979Y-128681187D01*
X76936000Y-128725920D01*
X77263665Y-128725920D01*
X77257665Y-128701603D01*
X77266335Y-128606481D01*
X77351883Y-128541034D01*
X77430928Y-128610945D01*
X77480181Y-128757238D01*
X77526895Y-128902555D01*
X77596311Y-128930422D01*
X77662971Y-128902184D01*
X77798311Y-128872123D01*
X77854542Y-128933020D01*
X77809737Y-129042426D01*
X77759696Y-129089426D01*
X77678762Y-129165558D01*
X77688690Y-129233594D01*
X77800482Y-129339036D01*
X77825000Y-129359466D01*
X77967534Y-129507514D01*
X78023599Y-129629478D01*
X79197483Y-129629478D01*
X79111148Y-129577473D01*
X78899365Y-129402569D01*
X78805531Y-129255821D01*
X78828415Y-129159813D01*
X78885399Y-129157001D01*
X78593658Y-129157001D01*
X78544606Y-129276090D01*
X78430526Y-129327321D01*
X78406624Y-129324673D01*
X78285508Y-129240986D01*
X78255898Y-129173947D01*
X78289098Y-129051779D01*
X78401046Y-128989385D01*
X78528312Y-129017363D01*
X78547086Y-129033486D01*
X78593658Y-129157001D01*
X78885399Y-129157001D01*
X78917236Y-129155430D01*
X79009074Y-129250527D01*
X79125808Y-129382929D01*
X79203509Y-129384496D01*
X79246274Y-129251200D01*
X79258286Y-129005667D01*
X79275322Y-128749108D01*
X79317379Y-128627378D01*
X79370877Y-128635390D01*
X79422235Y-128768058D01*
X79457874Y-129020294D01*
X79461778Y-129081893D01*
X79469080Y-129409063D01*
X79640350Y-129409063D01*
X79576324Y-129200267D01*
X79548745Y-128969092D01*
X79566903Y-128786238D01*
X79630413Y-128690854D01*
X79657429Y-128685143D01*
X79735548Y-128736606D01*
X79765739Y-128904127D01*
X79766733Y-128957286D01*
X79797178Y-129203164D01*
X79870336Y-129426943D01*
X79875205Y-129436553D01*
X79938912Y-129610029D01*
X80450848Y-129610029D01*
X80457287Y-129540772D01*
X80457901Y-129537857D01*
X80501303Y-129325054D01*
X80513002Y-129214444D01*
X80491525Y-129166257D01*
X80443282Y-129143641D01*
X80387598Y-129169165D01*
X80397317Y-129261570D01*
X80402145Y-129384203D01*
X80343068Y-129402579D01*
X80248806Y-129324188D01*
X80170186Y-129202344D01*
X80102140Y-129025953D01*
X80139106Y-128939563D01*
X80292558Y-128930174D01*
X80396096Y-128946361D01*
X80563723Y-128963517D01*
X80630423Y-128921548D01*
X80637143Y-128874648D01*
X80695711Y-128773539D01*
X80754464Y-128757714D01*
X80839275Y-128802948D01*
X80834490Y-128900333D01*
X80850835Y-129035097D01*
X80934883Y-129086652D01*
X81057194Y-129158552D01*
X81214381Y-129158552D01*
X81168180Y-129075969D01*
X81191189Y-128973042D01*
X81194474Y-128969640D01*
X81278406Y-128953173D01*
X81391571Y-129060601D01*
X81422224Y-129102028D01*
X81587001Y-129267834D01*
X81808973Y-129416739D01*
X81866386Y-129445127D01*
X82044988Y-129537812D01*
X82105865Y-129610711D01*
X84001880Y-129610711D01*
X83914334Y-129521698D01*
X83786242Y-129341848D01*
X83688367Y-129155710D01*
X83522326Y-129155710D01*
X83489646Y-129219306D01*
X83399756Y-129241242D01*
X83203332Y-129257584D01*
X82938958Y-129265421D01*
X82874762Y-129265714D01*
X82580440Y-129260407D01*
X82405053Y-129241175D01*
X82322667Y-129203053D01*
X82306286Y-129156857D01*
X82333760Y-129100826D01*
X82433401Y-129067283D01*
X82631038Y-129051349D01*
X82882574Y-129048000D01*
X83234795Y-129059662D01*
X83446961Y-129095259D01*
X83522326Y-129155710D01*
X83688367Y-129155710D01*
X83672606Y-129125736D01*
X83596747Y-128930763D01*
X82213239Y-128930763D01*
X82211034Y-129011226D01*
X82130003Y-129112749D01*
X82017294Y-129184300D01*
X81970828Y-129193143D01*
X81881279Y-129135257D01*
X81870857Y-129089176D01*
X81929110Y-128995401D01*
X82056216Y-128925636D01*
X82180697Y-128912954D01*
X82213239Y-128930763D01*
X83596747Y-128930763D01*
X83591120Y-128916303D01*
X83559476Y-128756490D01*
X83575123Y-128698401D01*
X83632272Y-128688702D01*
X82068576Y-128688702D01*
X81979022Y-128788982D01*
X81975814Y-128791420D01*
X81817430Y-128888101D01*
X81739104Y-128872617D01*
X81725714Y-128802886D01*
X81774868Y-128666264D01*
X81886261Y-128580307D01*
X82005794Y-128580545D01*
X82033318Y-128600861D01*
X82068576Y-128688702D01*
X83632272Y-128688702D01*
X83669141Y-128682445D01*
X83767070Y-128763047D01*
X83826380Y-128899249D01*
X83830286Y-128944122D01*
X83894046Y-129146892D01*
X84074404Y-129379116D01*
X84084286Y-129389086D01*
X84231640Y-129548636D01*
X84323295Y-129671355D01*
X84338286Y-129708400D01*
X89417779Y-129708400D01*
X89392367Y-129382025D01*
X89382230Y-129178748D01*
X89372849Y-128849889D01*
X89371774Y-128793983D01*
X84508550Y-128793983D01*
X84439015Y-128941359D01*
X84437990Y-128942927D01*
X84319761Y-129082530D01*
X84230407Y-129114843D01*
X84193217Y-129032004D01*
X84193143Y-129025585D01*
X84234183Y-128883572D01*
X84328697Y-128760814D01*
X84433772Y-128705306D01*
X84471612Y-128714126D01*
X84508550Y-128793983D01*
X89371774Y-128793983D01*
X89364481Y-128415008D01*
X89357381Y-127893664D01*
X89351804Y-127305419D01*
X89348006Y-126669831D01*
X89347644Y-126533626D01*
X87019247Y-126533626D01*
X87010919Y-126711632D01*
X87005091Y-126765585D01*
X86974445Y-126972014D01*
X86940157Y-127110836D01*
X86926583Y-127137036D01*
X86846491Y-127141263D01*
X86640375Y-127132950D01*
X86326694Y-127113383D01*
X85923905Y-127083851D01*
X85450467Y-127045641D01*
X84924839Y-127000041D01*
X84795358Y-126988357D01*
X83256593Y-126855242D01*
X81788730Y-126743125D01*
X80375467Y-126652083D01*
X79000505Y-126582190D01*
X77647544Y-126533521D01*
X76300282Y-126506153D01*
X74942419Y-126500161D01*
X73557656Y-126515620D01*
X72129691Y-126552606D01*
X70642226Y-126611193D01*
X69078958Y-126691458D01*
X67423588Y-126793476D01*
X65659815Y-126917322D01*
X63771339Y-127063072D01*
X63474000Y-127087015D01*
X62865769Y-127135357D01*
X62282381Y-127180072D01*
X61745093Y-127219656D01*
X61275162Y-127252603D01*
X60893846Y-127277406D01*
X60622402Y-127292560D01*
X60516714Y-127296489D01*
X60026857Y-127306286D01*
X60026857Y-126943429D01*
X60033039Y-126727814D01*
X60063380Y-126620238D01*
X60135575Y-126583740D01*
X60200567Y-126580571D01*
X60314088Y-126574990D01*
X60553216Y-126559179D01*
X60898883Y-126534539D01*
X61332021Y-126502468D01*
X61833561Y-126464369D01*
X62384434Y-126421639D01*
X62649853Y-126400758D01*
X64200002Y-126280600D01*
X65621818Y-126175568D01*
X66931236Y-126084884D01*
X68144191Y-126007768D01*
X69276619Y-125943442D01*
X70344455Y-125891126D01*
X71363635Y-125850042D01*
X72350093Y-125819411D01*
X73319766Y-125798454D01*
X74288588Y-125786393D01*
X75272495Y-125782447D01*
X75299986Y-125782446D01*
X76623321Y-125788794D01*
X77867050Y-125808783D01*
X79063414Y-125844054D01*
X80244657Y-125896252D01*
X81443022Y-125967018D01*
X82690750Y-126057996D01*
X84020084Y-126170829D01*
X85318000Y-126292920D01*
X85769115Y-126336357D01*
X86176967Y-126374450D01*
X86517202Y-126405019D01*
X86765471Y-126425885D01*
X86897421Y-126434868D01*
X86905867Y-126435057D01*
X86987916Y-126453712D01*
X87019247Y-126533626D01*
X89347644Y-126533626D01*
X89346242Y-126006462D01*
X89346149Y-125843650D01*
X89345877Y-123993588D01*
X86950857Y-123993588D01*
X86950857Y-124685173D01*
X86642429Y-124754243D01*
X86277741Y-124810020D01*
X85880649Y-124829334D01*
X85501212Y-124813075D01*
X85189489Y-124762129D01*
X85080802Y-124726536D01*
X84697160Y-124501493D01*
X84430221Y-124200833D01*
X84287960Y-123835564D01*
X84265714Y-123601571D01*
X84279129Y-123366053D01*
X84329303Y-123162065D01*
X84431128Y-122973037D01*
X84599498Y-122782398D01*
X84781601Y-122630173D01*
X83721986Y-122630173D01*
X83656683Y-123175607D01*
X83498261Y-123682165D01*
X83256030Y-124116256D01*
X83056910Y-124344722D01*
X82690100Y-124599721D01*
X82241543Y-124767929D01*
X81750904Y-124842090D01*
X81257847Y-124814949D01*
X81066810Y-124766286D01*
X78822857Y-124766286D01*
X78245011Y-124766286D01*
X78225505Y-123131738D01*
X78206000Y-121497190D01*
X77669726Y-122990157D01*
X77133452Y-124483125D01*
X76807997Y-124461420D01*
X76482541Y-124439714D01*
X75965413Y-123048078D01*
X75806744Y-122625236D01*
X75662653Y-122249062D01*
X75541498Y-121940747D01*
X75451635Y-121721481D01*
X75401422Y-121612455D01*
X75396374Y-121605214D01*
X75381350Y-121658973D01*
X75368124Y-121837985D01*
X75357354Y-122122366D01*
X75349698Y-122492230D01*
X75345815Y-122927692D01*
X75345476Y-123141993D01*
X75346489Y-124730000D01*
X74722571Y-124730000D01*
X74722571Y-120375714D01*
X75091874Y-120354184D01*
X75366656Y-120359646D01*
X75521072Y-120412854D01*
X75534493Y-120426756D01*
X75579793Y-120519758D01*
X75666335Y-120728521D01*
X75786019Y-121032308D01*
X75930743Y-121410382D01*
X76092406Y-121842006D01*
X76177752Y-122073311D01*
X76340982Y-122512634D01*
X76487961Y-122898134D01*
X76611468Y-123211698D01*
X76704283Y-123435209D01*
X76759185Y-123550551D01*
X76770721Y-123561026D01*
X76800997Y-123476802D01*
X76873230Y-123276230D01*
X76980146Y-122979502D01*
X77114469Y-122606806D01*
X77268923Y-122178334D01*
X77356291Y-121936000D01*
X77918835Y-120375714D01*
X78370846Y-120354108D01*
X78677974Y-120339428D01*
X73670286Y-120339428D01*
X73670286Y-124766286D01*
X71048953Y-124766286D01*
X71071476Y-124494143D01*
X71094000Y-124222000D01*
X72055571Y-124201751D01*
X73017143Y-124181501D01*
X73017143Y-123993588D01*
X70694857Y-123993588D01*
X70694857Y-124685173D01*
X70386429Y-124754243D01*
X69987503Y-124814582D01*
X69566499Y-124830173D01*
X69171982Y-124802596D01*
X68852517Y-124733433D01*
X68803981Y-124714368D01*
X67719428Y-124714368D01*
X67655135Y-124746483D01*
X67493421Y-124756063D01*
X67412254Y-124752315D01*
X67105079Y-124730000D01*
X66856860Y-124129141D01*
X66608640Y-123528282D01*
X65732295Y-123548570D01*
X64855949Y-123568857D01*
X64608325Y-124167571D01*
X64360701Y-124766286D01*
X64008065Y-124766286D01*
X63804385Y-124759373D01*
X63677009Y-124741748D01*
X63655428Y-124728902D01*
X63681162Y-124646697D01*
X63753105Y-124449842D01*
X63863367Y-124158372D01*
X64004062Y-123792321D01*
X64167300Y-123371725D01*
X64345193Y-122916619D01*
X64529853Y-122447036D01*
X64713391Y-121983012D01*
X64887919Y-121544581D01*
X65045549Y-121151779D01*
X65178391Y-120824639D01*
X65278559Y-120583198D01*
X65338162Y-120447489D01*
X65349417Y-120426550D01*
X65475065Y-120365000D01*
X65696906Y-120352846D01*
X65713746Y-120353979D01*
X66006613Y-120375714D01*
X66863021Y-122514910D01*
X67072334Y-123039579D01*
X67263133Y-123521366D01*
X67428959Y-123943679D01*
X67563351Y-124289926D01*
X67659847Y-124543513D01*
X67711987Y-124687848D01*
X67719428Y-124714368D01*
X68803981Y-124714368D01*
X68771714Y-124701694D01*
X68399317Y-124462380D01*
X68148681Y-124147148D01*
X68023815Y-123761999D01*
X68009714Y-123561242D01*
X68046817Y-123271111D01*
X68166824Y-123003598D01*
X68382787Y-122744177D01*
X68707757Y-122478321D01*
X69154784Y-122191505D01*
X69332183Y-122089289D01*
X69674406Y-121864449D01*
X69912376Y-121639525D01*
X70031031Y-121430097D01*
X70041714Y-121355428D01*
X69978726Y-121160851D01*
X69819340Y-120976089D01*
X69607927Y-120846326D01*
X69515237Y-120819272D01*
X69289253Y-120815239D01*
X68986504Y-120859446D01*
X68662887Y-120941252D01*
X68427000Y-121026418D01*
X68348662Y-121041179D01*
X68311082Y-120977092D01*
X68300207Y-120804119D01*
X68300000Y-120754951D01*
X68306522Y-120554392D01*
X68351420Y-120448060D01*
X68472697Y-120387997D01*
X68622422Y-120348044D01*
X68678571Y-120339428D01*
X63582857Y-120339428D01*
X63582857Y-120920000D01*
X62058857Y-120920000D01*
X62058857Y-124766286D01*
X61405714Y-124766286D01*
X61405714Y-120920000D01*
X59881714Y-120920000D01*
X59881714Y-120339428D01*
X63582857Y-120339428D01*
X68678571Y-120339428D01*
X69142879Y-120268181D01*
X69616421Y-120296032D01*
X70024897Y-120426451D01*
X70350158Y-120654289D01*
X70530378Y-120889159D01*
X70674676Y-121247734D01*
X70685075Y-121587942D01*
X70558979Y-121915618D01*
X70293796Y-122236595D01*
X69886929Y-122556709D01*
X69749255Y-122645739D01*
X69368045Y-122887833D01*
X69095276Y-123075676D01*
X68913297Y-123226902D01*
X68804457Y-123359142D01*
X68751104Y-123490031D01*
X68735587Y-123637201D01*
X68735428Y-123658516D01*
X68792592Y-123954907D01*
X68957675Y-124162711D01*
X69221066Y-124278503D01*
X69573155Y-124298861D01*
X70004331Y-124220361D01*
X70170217Y-124169546D01*
X70694857Y-123993588D01*
X73017143Y-123993588D01*
X73017143Y-122734286D01*
X71493143Y-122734286D01*
X71493143Y-122231363D01*
X72237000Y-122210682D01*
X72980857Y-122190000D01*
X73001825Y-121555000D01*
X73022794Y-120920000D01*
X71202857Y-120920000D01*
X71202857Y-120339428D01*
X73670286Y-120339428D01*
X78677974Y-120339428D01*
X78822857Y-120332503D01*
X78822857Y-124766286D01*
X81066810Y-124766286D01*
X80935396Y-124732811D01*
X80528530Y-124535491D01*
X80205450Y-124249844D01*
X79939369Y-123850901D01*
X79893777Y-123761716D01*
X79783699Y-123526780D01*
X79714310Y-123332781D01*
X79676325Y-123132298D01*
X79660463Y-122877910D01*
X79657429Y-122554383D01*
X79663349Y-122185468D01*
X79685644Y-121916999D01*
X79731113Y-121704597D01*
X79806554Y-121503883D01*
X79824432Y-121464286D01*
X80112097Y-120989670D01*
X80482426Y-120633904D01*
X80932996Y-120398708D01*
X81461384Y-120285805D01*
X81486323Y-120283678D01*
X82048554Y-120301534D01*
X82544512Y-120445589D01*
X82965673Y-120708879D01*
X83303517Y-121084446D01*
X83549520Y-121565327D01*
X83684858Y-122079453D01*
X83721986Y-122630173D01*
X84781601Y-122630173D01*
X84849304Y-122573579D01*
X85195440Y-122330008D01*
X85652799Y-122035116D01*
X85700584Y-122005079D01*
X86014347Y-121779648D01*
X86197596Y-121572431D01*
X86260726Y-121366845D01*
X86223808Y-121170490D01*
X86072542Y-120962504D01*
X85819711Y-120845430D01*
X85478427Y-120821211D01*
X85061803Y-120891792D01*
X84828143Y-120963655D01*
X84556000Y-121058704D01*
X84556000Y-120743967D01*
X84563004Y-120549885D01*
X84609403Y-120446396D01*
X84733278Y-120386737D01*
X84878422Y-120348044D01*
X85370790Y-120273249D01*
X85822601Y-120297225D01*
X86218402Y-120409149D01*
X86542740Y-120598194D01*
X86780160Y-120853538D01*
X86915210Y-121164356D01*
X86932434Y-121519822D01*
X86879824Y-121749909D01*
X86772507Y-121977799D01*
X86594979Y-122197465D01*
X86328321Y-122426652D01*
X85953613Y-122683101D01*
X85751553Y-122807990D01*
X85424824Y-123013373D01*
X85206424Y-123177273D01*
X85075400Y-123324184D01*
X85010800Y-123478599D01*
X84991671Y-123665012D01*
X84991428Y-123696579D01*
X85050596Y-123973430D01*
X85219716Y-124168330D01*
X85486217Y-124277133D01*
X85837526Y-124295696D01*
X86261072Y-124219874D01*
X86426217Y-124169546D01*
X86950857Y-123993588D01*
X89345877Y-123993588D01*
X89345714Y-122893300D01*
X90649608Y-122142507D01*
X91039750Y-121916209D01*
X91383349Y-121713749D01*
X91661829Y-121546334D01*
X91856613Y-121425174D01*
X91949121Y-121361477D01*
X91954167Y-121355428D01*
X91899130Y-121299982D01*
X91752946Y-121186379D01*
X91545038Y-121037265D01*
X91502987Y-121008165D01*
X91194610Y-120797471D01*
X90989802Y-120650970D01*
X90876513Y-120545112D01*
X90842695Y-120456344D01*
X90876299Y-120361115D01*
X90965277Y-120235874D01*
X91050170Y-120123039D01*
X91233174Y-119900660D01*
X91330550Y-119830874D01*
X90193833Y-119830874D01*
X90123223Y-119811108D01*
X89950858Y-119759762D01*
X89713734Y-119687862D01*
X89708571Y-119686286D01*
X89413824Y-119598931D01*
X89226012Y-119558052D01*
X89113542Y-119566808D01*
X89044819Y-119628359D01*
X88988251Y-119745865D01*
X88982857Y-119758857D01*
X88908532Y-119908072D01*
X88850009Y-119975933D01*
X88847053Y-119976322D01*
X88777901Y-119930210D01*
X88626672Y-119805740D01*
X88417582Y-119623388D01*
X88235746Y-119459481D01*
X88006357Y-119245756D01*
X87826618Y-119070137D01*
X87717614Y-118953757D01*
X87695212Y-118917740D01*
X87771783Y-118924528D01*
X87948439Y-118966466D01*
X88187021Y-119034488D01*
X88188323Y-119034884D01*
X88425872Y-119106515D01*
X88599753Y-119157813D01*
X88672513Y-119177729D01*
X88672565Y-119177731D01*
X88712974Y-119121137D01*
X88790257Y-118982019D01*
X88801429Y-118960571D01*
X88898012Y-118812749D01*
X88982891Y-118743561D01*
X88989316Y-118742857D01*
X89069675Y-118790221D01*
X89228919Y-118918448D01*
X89442342Y-119106742D01*
X89636000Y-119287143D01*
X89865371Y-119506693D01*
X90048232Y-119683744D01*
X90163843Y-119798082D01*
X90193833Y-119830874D01*
X91330550Y-119830874D01*
X91358544Y-119810812D01*
X91403751Y-119818204D01*
X91493169Y-119884764D01*
X91672831Y-120016699D01*
X91915544Y-120194090D01*
X92159306Y-120371694D01*
X92832041Y-120861168D01*
X94009878Y-120170004D01*
X94384704Y-119951254D01*
X94718893Y-119758490D01*
X94991409Y-119603661D01*
X95181214Y-119498721D01*
X95267271Y-119455620D01*
X95267462Y-119455563D01*
X95344474Y-119486113D01*
X95534420Y-119582688D01*
X95824771Y-119738343D01*
X96202994Y-119946135D01*
X96656557Y-120199119D01*
X97172929Y-120490352D01*
X97739578Y-120812888D01*
X98343973Y-121159785D01*
X98368635Y-121174000D01*
X101390061Y-122915714D01*
X101408288Y-125401286D01*
X101412813Y-126045190D01*
X101417003Y-126692759D01*
X101420707Y-127316831D01*
X101423777Y-127890249D01*
X101426063Y-128385851D01*
X101427414Y-128776478D01*
X101427687Y-128918396D01*
X101428857Y-129949935D01*
X102771428Y-129949935D01*
X102771428Y-118307429D01*
X59228571Y-118307429D01*
X59228571Y-133765143D01*
G04 #@! TD*
M02*
