G04 #@! TF.GenerationSoftware,KiCad,Pcbnew,(5.0.0)*
G04 #@! TF.CreationDate,2018-11-23T13:42:35+09:00*
G04 #@! TF.ProjectId,LED_hachune_1,4C45445F68616368756E655F312E6B69,rev?*
G04 #@! TF.SameCoordinates,Original*
G04 #@! TF.FileFunction,Copper,L2,Bot,Signal*
G04 #@! TF.FilePolarity,Positive*
%FSLAX46Y46*%
G04 Gerber Fmt 4.6, Leading zero omitted, Abs format (unit mm)*
G04 Created by KiCad (PCBNEW (5.0.0)) date 11/23/18 13:42:35*
%MOMM*%
%LPD*%
G01*
G04 APERTURE LIST*
G04 #@! TA.AperFunction,ComponentPad*
%ADD10R,1.700000X2.000000*%
G04 #@! TD*
G04 #@! TA.AperFunction,ComponentPad*
%ADD11O,1.700000X2.000000*%
G04 #@! TD*
G04 #@! TA.AperFunction,ComponentPad*
%ADD12R,1.700000X1.950000*%
G04 #@! TD*
G04 #@! TA.AperFunction,ComponentPad*
%ADD13O,1.700000X1.950000*%
G04 #@! TD*
G04 #@! TA.AperFunction,ComponentPad*
%ADD14C,1.200000*%
G04 #@! TD*
G04 #@! TA.AperFunction,ViaPad*
%ADD15C,1.500000*%
G04 #@! TD*
G04 #@! TA.AperFunction,ViaPad*
%ADD16C,0.300000*%
G04 #@! TD*
G04 #@! TA.AperFunction,Conductor*
%ADD17C,0.200000*%
G04 #@! TD*
G04 #@! TA.AperFunction,Conductor*
%ADD18C,0.254000*%
G04 #@! TD*
G04 APERTURE END LIST*
D10*
G04 #@! TO.P,J1,1*
G04 #@! TO.N,+BATT*
X54500000Y-136000000D03*
D11*
G04 #@! TO.P,J1,2*
G04 #@! TO.N,GND*
X57000000Y-136000000D03*
G04 #@! TD*
D12*
G04 #@! TO.P,J2,1*
G04 #@! TO.N,/SCL*
X97500000Y-136000000D03*
D13*
G04 #@! TO.P,J2,2*
G04 #@! TO.N,/SDA*
X100000000Y-136000000D03*
G04 #@! TO.P,J2,3*
G04 #@! TO.N,GND*
X102500000Y-136000000D03*
G04 #@! TD*
D14*
G04 #@! TO.P,J3,1*
G04 #@! TO.N,/TX*
X110100000Y-136400000D03*
G04 #@! TO.P,J3,2*
G04 #@! TO.N,/RX*
X110100000Y-134900000D03*
G04 #@! TO.P,J3,3*
G04 #@! TO.N,/SWCLK*
X110100000Y-133400000D03*
G04 #@! TO.P,J3,4*
G04 #@! TO.N,/SWDIO*
X110100000Y-131900000D03*
G04 #@! TO.P,J3,5*
G04 #@! TO.N,GND*
X110100000Y-130400000D03*
G04 #@! TD*
D15*
G04 #@! TO.N,GND*
X54653200Y-69000000D03*
X54653200Y-101000000D03*
X64500000Y-116000000D03*
X97500000Y-116000000D03*
X107246800Y-102000000D03*
X107500000Y-68000000D03*
X97500000Y-54000000D03*
X64500000Y-54000000D03*
D16*
G04 #@! TO.N,/LED_0*
X84178200Y-121800000D03*
X88000000Y-50400000D03*
X74000000Y-50400000D03*
X51500000Y-78000000D03*
X51500000Y-92000000D03*
X74000000Y-121800000D03*
X110100000Y-78000000D03*
X110100000Y-92000000D03*
G04 #@! TO.N,/LED_1*
X83500000Y-121200000D03*
X86000000Y-51100000D03*
X76000000Y-51100000D03*
X52200000Y-90000000D03*
X52200000Y-80000000D03*
X109600000Y-80000000D03*
X109600000Y-90000000D03*
X76000000Y-121200000D03*
G04 #@! TO.N,/LED_2*
X82120461Y-120579539D03*
X84000000Y-51700000D03*
X78000000Y-51700000D03*
X52900000Y-82000000D03*
X52900000Y-88000000D03*
X108900000Y-88000000D03*
X108900000Y-82000000D03*
X78000000Y-120579539D03*
G04 #@! TO.N,/LED_3*
X80900000Y-120000000D03*
X82000000Y-52400000D03*
X80000000Y-52400000D03*
X53600000Y-86000000D03*
X53600000Y-84000000D03*
X108300000Y-84000000D03*
X108300000Y-86000000D03*
G04 #@! TD*
D17*
G04 #@! TO.N,/LED_0*
X74000000Y-50400000D02*
X88000000Y-50400000D01*
X59200000Y-50400000D02*
X74000000Y-50400000D01*
X51500000Y-58100000D02*
X59200000Y-50400000D01*
X60000000Y-121800000D02*
X51500000Y-113300000D01*
X51500000Y-78000000D02*
X51500000Y-58100000D01*
X51500000Y-113300000D02*
X51500000Y-92000000D01*
X51500000Y-92000000D02*
X51500000Y-78000000D01*
X84178200Y-121800000D02*
X74000000Y-121800000D01*
X74000000Y-121800000D02*
X60000000Y-121800000D01*
X110100000Y-92000000D02*
X110100000Y-78000000D01*
X100300000Y-121800000D02*
X84178200Y-121800000D01*
X110100000Y-92000000D02*
X110100000Y-112000000D01*
X110100000Y-112000000D02*
X100300000Y-121800000D01*
G04 #@! TO.N,/LED_1*
X60100000Y-121200000D02*
X60000000Y-121200000D01*
X60000000Y-121200000D02*
X59676329Y-120876329D01*
X59676329Y-120876329D02*
X52200000Y-113400000D01*
X52200000Y-58200000D02*
X59300000Y-51100000D01*
X59300000Y-51100000D02*
X76000000Y-51100000D01*
X76000000Y-51100000D02*
X86000000Y-51100000D01*
X52200000Y-113400000D02*
X52200000Y-80000000D01*
X52200000Y-80000000D02*
X52200000Y-58200000D01*
X83500000Y-121200000D02*
X99700000Y-121200000D01*
X99700000Y-121200000D02*
X99900000Y-121200000D01*
X99900000Y-121200000D02*
X109600000Y-111500000D01*
X109600000Y-90000000D02*
X109600000Y-80000000D01*
X109600000Y-111500000D02*
X109600000Y-90000000D01*
X83500000Y-121200000D02*
X76000000Y-121200000D01*
X76000000Y-121200000D02*
X60100000Y-121200000D01*
G04 #@! TO.N,/LED_2*
X60079539Y-120579539D02*
X52900000Y-113400000D01*
X52900000Y-58200000D02*
X59400000Y-51700000D01*
X78000000Y-51700000D02*
X84000000Y-51700000D01*
X59400000Y-51700000D02*
X78000000Y-51700000D01*
X52900000Y-82000000D02*
X52900000Y-58200000D01*
X52900000Y-87900000D02*
X52900000Y-88000000D01*
X52900000Y-87900000D02*
X52900000Y-82000000D01*
X52900000Y-113400000D02*
X52900000Y-87900000D01*
X108900000Y-88000000D02*
X108900000Y-82100000D01*
X108900000Y-82100000D02*
X108900000Y-82000000D01*
X108900000Y-111300000D02*
X108900000Y-88000000D01*
X82120461Y-120579539D02*
X99620461Y-120579539D01*
X99620461Y-120579539D02*
X108900000Y-111300000D01*
X82120461Y-120579539D02*
X78000000Y-120579539D01*
X78000000Y-120579539D02*
X60079539Y-120579539D01*
G04 #@! TO.N,/LED_3*
X59400000Y-52400000D02*
X82000000Y-52400000D01*
X53600000Y-58200000D02*
X59400000Y-52400000D01*
X60200000Y-120000000D02*
X53600000Y-113400000D01*
X80900000Y-120000000D02*
X60200000Y-120000000D01*
X53600000Y-113400000D02*
X53600000Y-86000000D01*
X53600000Y-84000000D02*
X53600000Y-58200000D01*
X53600000Y-86000000D02*
X53600000Y-84000000D01*
X80900000Y-120000000D02*
X99500000Y-120000000D01*
X99500000Y-120000000D02*
X108300000Y-111200000D01*
X108300000Y-86000000D02*
X108300000Y-84000000D01*
X108300000Y-111200000D02*
X108300000Y-86000000D01*
G04 #@! TD*
D18*
G04 #@! TO.N,GND*
G36*
X51031463Y-57529091D02*
X50970096Y-57570095D01*
X50929092Y-57631462D01*
X50929091Y-57631463D01*
X50807646Y-57813218D01*
X50750602Y-58100000D01*
X50765001Y-58172389D01*
X50765000Y-77723143D01*
X50715000Y-77843854D01*
X50715000Y-78156146D01*
X50765001Y-78276859D01*
X50765000Y-91723143D01*
X50715000Y-91843854D01*
X50715000Y-92156146D01*
X50765001Y-92276859D01*
X50765000Y-113227616D01*
X50750602Y-113300000D01*
X50765000Y-113372384D01*
X50765000Y-113372387D01*
X50807646Y-113586782D01*
X50970095Y-113829905D01*
X51031465Y-113870911D01*
X59429091Y-122268538D01*
X59470095Y-122329905D01*
X59713217Y-122492354D01*
X59927612Y-122535000D01*
X59927615Y-122535000D01*
X59999999Y-122549398D01*
X60072383Y-122535000D01*
X73723143Y-122535000D01*
X73843854Y-122585000D01*
X74156146Y-122585000D01*
X74276857Y-122535000D01*
X83901343Y-122535000D01*
X84022054Y-122585000D01*
X84334346Y-122585000D01*
X84455057Y-122535000D01*
X100227616Y-122535000D01*
X100300000Y-122549398D01*
X100372384Y-122535000D01*
X100372388Y-122535000D01*
X100586783Y-122492354D01*
X100829905Y-122329905D01*
X100870911Y-122268535D01*
X110568538Y-112570909D01*
X110629905Y-112529905D01*
X110792354Y-112286783D01*
X110835000Y-112072388D01*
X110835000Y-112072384D01*
X110849398Y-112000000D01*
X110835000Y-111927616D01*
X110835000Y-92276857D01*
X110885000Y-92156146D01*
X110885000Y-91843854D01*
X110835000Y-91723143D01*
X110835000Y-78276857D01*
X110885000Y-78156146D01*
X110885000Y-77843854D01*
X110765491Y-77555333D01*
X110544667Y-77334509D01*
X110256146Y-77215000D01*
X109943854Y-77215000D01*
X109655333Y-77334509D01*
X109434509Y-77555333D01*
X109315000Y-77843854D01*
X109315000Y-78156146D01*
X109365001Y-78276859D01*
X109365001Y-79247662D01*
X109155333Y-79334509D01*
X108934509Y-79555333D01*
X108815000Y-79843854D01*
X108815000Y-80156146D01*
X108865001Y-80276859D01*
X108865001Y-81215000D01*
X108743854Y-81215000D01*
X108455333Y-81334509D01*
X108285000Y-81504842D01*
X108285000Y-71067462D01*
X108298419Y-71000000D01*
X108245255Y-70732727D01*
X108093857Y-70506143D01*
X107867273Y-70354745D01*
X107667462Y-70315000D01*
X107667461Y-70315000D01*
X107600000Y-70301581D01*
X107532538Y-70315000D01*
X106067462Y-70315000D01*
X106000000Y-70301581D01*
X105932539Y-70315000D01*
X105932538Y-70315000D01*
X105732727Y-70354745D01*
X105506143Y-70506143D01*
X105354745Y-70732727D01*
X105301581Y-71000000D01*
X105315001Y-71067467D01*
X105315000Y-98932538D01*
X105301581Y-99000000D01*
X105354745Y-99267273D01*
X105506143Y-99493857D01*
X105732727Y-99645255D01*
X106000000Y-99698419D01*
X106067461Y-99685000D01*
X107532539Y-99685000D01*
X107565000Y-99691457D01*
X107565000Y-110895553D01*
X104961793Y-113498761D01*
X105167603Y-113190744D01*
X105305000Y-112500000D01*
X105167603Y-111809256D01*
X104776328Y-111223672D01*
X104190744Y-110832397D01*
X103500000Y-110695000D01*
X102809256Y-110832397D01*
X102223672Y-111223672D01*
X101832397Y-111809256D01*
X101695000Y-112500000D01*
X101832397Y-113190744D01*
X102223672Y-113776328D01*
X102809256Y-114167603D01*
X103500000Y-114305000D01*
X104190744Y-114167603D01*
X104498761Y-113961793D01*
X99195554Y-119265000D01*
X81176857Y-119265000D01*
X81056146Y-119215000D01*
X80743854Y-119215000D01*
X80623143Y-119265000D01*
X60504447Y-119265000D01*
X56239447Y-115000000D01*
X66301581Y-115000000D01*
X66315000Y-115067462D01*
X66315001Y-116532534D01*
X66301581Y-116600000D01*
X66354745Y-116867273D01*
X66506143Y-117093857D01*
X66732727Y-117245255D01*
X66932538Y-117285000D01*
X66932539Y-117285000D01*
X67000000Y-117298419D01*
X67067462Y-117285000D01*
X94932538Y-117285000D01*
X95000000Y-117298419D01*
X95067461Y-117285000D01*
X95067462Y-117285000D01*
X95267273Y-117245255D01*
X95493857Y-117093857D01*
X95645255Y-116867273D01*
X95698419Y-116600000D01*
X95685000Y-116532538D01*
X95685000Y-115067462D01*
X95698419Y-115000000D01*
X95645255Y-114732727D01*
X95493857Y-114506143D01*
X95267273Y-114354745D01*
X95067462Y-114315000D01*
X95000000Y-114301581D01*
X94932539Y-114315000D01*
X67067461Y-114315000D01*
X67000000Y-114301581D01*
X66932538Y-114315000D01*
X66732727Y-114354745D01*
X66506143Y-114506143D01*
X66354745Y-114732727D01*
X66301581Y-115000000D01*
X56239447Y-115000000D01*
X54335000Y-113095554D01*
X54335000Y-112500000D01*
X56695000Y-112500000D01*
X56832397Y-113190744D01*
X57223672Y-113776328D01*
X57809256Y-114167603D01*
X58500000Y-114305000D01*
X59190744Y-114167603D01*
X59776328Y-113776328D01*
X60167603Y-113190744D01*
X60305000Y-112500000D01*
X60167603Y-111809256D01*
X59776328Y-111223672D01*
X59190744Y-110832397D01*
X58500000Y-110695000D01*
X57809256Y-110832397D01*
X57223672Y-111223672D01*
X56832397Y-111809256D01*
X56695000Y-112500000D01*
X54335000Y-112500000D01*
X54335000Y-99685490D01*
X54400000Y-99698419D01*
X54467462Y-99685000D01*
X55932538Y-99685000D01*
X56000000Y-99698419D01*
X56067461Y-99685000D01*
X56067462Y-99685000D01*
X56267273Y-99645255D01*
X56493857Y-99493857D01*
X56645255Y-99267273D01*
X56698419Y-99000000D01*
X56685000Y-98932538D01*
X56685000Y-71067462D01*
X56698419Y-71000000D01*
X56645255Y-70732727D01*
X56493857Y-70506143D01*
X56267273Y-70354745D01*
X56067462Y-70315000D01*
X56000000Y-70301581D01*
X55932539Y-70315000D01*
X54467461Y-70315000D01*
X54400000Y-70301581D01*
X54335000Y-70314510D01*
X54335000Y-59999999D01*
X60301581Y-59999999D01*
X60315000Y-60067461D01*
X60315001Y-109932533D01*
X60301581Y-110000000D01*
X60354745Y-110267273D01*
X60506143Y-110493857D01*
X60732727Y-110645255D01*
X60932538Y-110685000D01*
X60932539Y-110685000D01*
X61000000Y-110698419D01*
X61067462Y-110685000D01*
X100932538Y-110685000D01*
X101000000Y-110698419D01*
X101067461Y-110685000D01*
X101067462Y-110685000D01*
X101267273Y-110645255D01*
X101493857Y-110493857D01*
X101645255Y-110267273D01*
X101698419Y-110000000D01*
X101685000Y-109932538D01*
X101685000Y-60067461D01*
X101698419Y-59999999D01*
X101645255Y-59732726D01*
X101493857Y-59506142D01*
X101267273Y-59354744D01*
X101067462Y-59314999D01*
X101000000Y-59301580D01*
X100932539Y-59314999D01*
X61067461Y-59314999D01*
X61000000Y-59301580D01*
X60932538Y-59314999D01*
X60732727Y-59354744D01*
X60506143Y-59506142D01*
X60354745Y-59732726D01*
X60301581Y-59999999D01*
X54335000Y-59999999D01*
X54335000Y-58504446D01*
X55339447Y-57499999D01*
X56695000Y-57499999D01*
X56832397Y-58190743D01*
X57223672Y-58776327D01*
X57809256Y-59167602D01*
X58500000Y-59304999D01*
X59190744Y-59167602D01*
X59776328Y-58776327D01*
X60167603Y-58190743D01*
X60305000Y-57499999D01*
X101695000Y-57499999D01*
X101832397Y-58190743D01*
X102223672Y-58776327D01*
X102809256Y-59167602D01*
X103500000Y-59304999D01*
X104190744Y-59167602D01*
X104776328Y-58776327D01*
X105167603Y-58190743D01*
X105305000Y-57499999D01*
X105167603Y-56809255D01*
X104776328Y-56223671D01*
X104190744Y-55832396D01*
X103500000Y-55694999D01*
X102809256Y-55832396D01*
X102223672Y-56223671D01*
X101832397Y-56809255D01*
X101695000Y-57499999D01*
X60305000Y-57499999D01*
X60167603Y-56809255D01*
X59776328Y-56223671D01*
X59190744Y-55832396D01*
X58500000Y-55694999D01*
X57809256Y-55832396D01*
X57223672Y-56223671D01*
X56832397Y-56809255D01*
X56695000Y-57499999D01*
X55339447Y-57499999D01*
X59704447Y-53135000D01*
X66354293Y-53135000D01*
X66301581Y-53400000D01*
X66315000Y-53467462D01*
X66315001Y-54932534D01*
X66301581Y-55000000D01*
X66354745Y-55267273D01*
X66506143Y-55493857D01*
X66732727Y-55645255D01*
X66932538Y-55685000D01*
X66932539Y-55685000D01*
X67000000Y-55698419D01*
X67067462Y-55685000D01*
X94932538Y-55685000D01*
X95000000Y-55698419D01*
X95067461Y-55685000D01*
X95067462Y-55685000D01*
X95267273Y-55645255D01*
X95493857Y-55493857D01*
X95645255Y-55267273D01*
X95698419Y-55000000D01*
X95685000Y-54932538D01*
X95685000Y-53467462D01*
X95698419Y-53400000D01*
X95645255Y-53132727D01*
X95493857Y-52906143D01*
X95267273Y-52754745D01*
X95067462Y-52715000D01*
X95000000Y-52701581D01*
X94932539Y-52715000D01*
X82719201Y-52715000D01*
X82785000Y-52556146D01*
X82785000Y-52435000D01*
X83723143Y-52435000D01*
X83843854Y-52485000D01*
X84156146Y-52485000D01*
X84444667Y-52365491D01*
X84665491Y-52144667D01*
X84785000Y-51856146D01*
X84785000Y-51835000D01*
X85723143Y-51835000D01*
X85843854Y-51885000D01*
X86156146Y-51885000D01*
X86444667Y-51765491D01*
X86665491Y-51544667D01*
X86785000Y-51256146D01*
X86785000Y-51135000D01*
X87723143Y-51135000D01*
X87843854Y-51185000D01*
X88156146Y-51185000D01*
X88444667Y-51065491D01*
X88665491Y-50844667D01*
X88785000Y-50556146D01*
X88785000Y-50243854D01*
X88736598Y-50127000D01*
X110326843Y-50127000D01*
X110354745Y-50267273D01*
X110506143Y-50493857D01*
X110732727Y-50645255D01*
X111000000Y-50698419D01*
X111067461Y-50685000D01*
X111815001Y-50685000D01*
X111815000Y-139315000D01*
X111067462Y-139315000D01*
X111000000Y-139301581D01*
X110932539Y-139315000D01*
X110932538Y-139315000D01*
X110732727Y-139354745D01*
X110506143Y-139506143D01*
X110354745Y-139732727D01*
X110326843Y-139873000D01*
X51673157Y-139873000D01*
X51645255Y-139732727D01*
X51493857Y-139506143D01*
X51267273Y-139354745D01*
X51067462Y-139315000D01*
X51067461Y-139315000D01*
X51000000Y-139301581D01*
X50932538Y-139315000D01*
X50185000Y-139315000D01*
X50185000Y-135000000D01*
X53002560Y-135000000D01*
X53002560Y-137000000D01*
X53051843Y-137247765D01*
X53192191Y-137457809D01*
X53402235Y-137598157D01*
X53650000Y-137647440D01*
X55350000Y-137647440D01*
X55597765Y-137598157D01*
X55807809Y-137457809D01*
X55948157Y-137247765D01*
X55962388Y-137176218D01*
X56107955Y-137338664D01*
X56630740Y-137589553D01*
X56643110Y-137591476D01*
X56873000Y-137470155D01*
X56873000Y-136127000D01*
X57127000Y-136127000D01*
X57127000Y-137470155D01*
X57356890Y-137591476D01*
X57369260Y-137589553D01*
X57892045Y-137338664D01*
X58279024Y-136906812D01*
X58471284Y-136359742D01*
X58327231Y-136127000D01*
X57127000Y-136127000D01*
X56873000Y-136127000D01*
X56853000Y-136127000D01*
X56853000Y-135873000D01*
X56873000Y-135873000D01*
X56873000Y-134529845D01*
X57127000Y-134529845D01*
X57127000Y-135873000D01*
X58327231Y-135873000D01*
X58471284Y-135640258D01*
X58279024Y-135093188D01*
X58217922Y-135025000D01*
X96002560Y-135025000D01*
X96002560Y-136975000D01*
X96051843Y-137222765D01*
X96192191Y-137432809D01*
X96402235Y-137573157D01*
X96650000Y-137622440D01*
X98350000Y-137622440D01*
X98597765Y-137573157D01*
X98807809Y-137432809D01*
X98948157Y-137222765D01*
X98950719Y-137209886D01*
X99420583Y-137523839D01*
X100000000Y-137639092D01*
X100579418Y-137523839D01*
X101070625Y-137195625D01*
X101253246Y-136922313D01*
X101628807Y-137327497D01*
X102143110Y-137566476D01*
X102373000Y-137445155D01*
X102373000Y-136127000D01*
X102627000Y-136127000D01*
X102627000Y-137445155D01*
X102856890Y-137566476D01*
X103371193Y-137327497D01*
X103765053Y-136902571D01*
X103966320Y-136359267D01*
X103826165Y-136127000D01*
X102627000Y-136127000D01*
X102373000Y-136127000D01*
X102353000Y-136127000D01*
X102353000Y-135873000D01*
X102373000Y-135873000D01*
X102373000Y-134554845D01*
X102627000Y-134554845D01*
X102627000Y-135873000D01*
X103826165Y-135873000D01*
X103966320Y-135640733D01*
X103765053Y-135097429D01*
X103371193Y-134672503D01*
X102856890Y-134433524D01*
X102627000Y-134554845D01*
X102373000Y-134554845D01*
X102143110Y-134433524D01*
X101628807Y-134672503D01*
X101253246Y-135077687D01*
X101070625Y-134804375D01*
X100579417Y-134476161D01*
X100000000Y-134360908D01*
X99420582Y-134476161D01*
X98950719Y-134790114D01*
X98948157Y-134777235D01*
X98807809Y-134567191D01*
X98597765Y-134426843D01*
X98350000Y-134377560D01*
X96650000Y-134377560D01*
X96402235Y-134426843D01*
X96192191Y-134567191D01*
X96051843Y-134777235D01*
X96002560Y-135025000D01*
X58217922Y-135025000D01*
X57892045Y-134661336D01*
X57369260Y-134410447D01*
X57356890Y-134408524D01*
X57127000Y-134529845D01*
X56873000Y-134529845D01*
X56643110Y-134408524D01*
X56630740Y-134410447D01*
X56107955Y-134661336D01*
X55962388Y-134823782D01*
X55948157Y-134752235D01*
X55807809Y-134542191D01*
X55597765Y-134401843D01*
X55350000Y-134352560D01*
X53650000Y-134352560D01*
X53402235Y-134401843D01*
X53192191Y-134542191D01*
X53051843Y-134752235D01*
X53002560Y-135000000D01*
X50185000Y-135000000D01*
X50185000Y-130231036D01*
X108852193Y-130231036D01*
X108882518Y-130721413D01*
X109011836Y-131033617D01*
X109182373Y-131071074D01*
X109053018Y-131200429D01*
X108865000Y-131654343D01*
X108865000Y-132145657D01*
X109053018Y-132599571D01*
X109103447Y-132650000D01*
X109053018Y-132700429D01*
X108865000Y-133154343D01*
X108865000Y-133645657D01*
X109053018Y-134099571D01*
X109103447Y-134150000D01*
X109053018Y-134200429D01*
X108865000Y-134654343D01*
X108865000Y-135145657D01*
X109053018Y-135599571D01*
X109103447Y-135650000D01*
X109053018Y-135700429D01*
X108865000Y-136154343D01*
X108865000Y-136645657D01*
X109053018Y-137099571D01*
X109400429Y-137446982D01*
X109854343Y-137635000D01*
X110345657Y-137635000D01*
X110799571Y-137446982D01*
X111146982Y-137099571D01*
X111335000Y-136645657D01*
X111335000Y-136154343D01*
X111146982Y-135700429D01*
X111096553Y-135650000D01*
X111146982Y-135599571D01*
X111335000Y-135145657D01*
X111335000Y-134654343D01*
X111146982Y-134200429D01*
X111096553Y-134150000D01*
X111146982Y-134099571D01*
X111335000Y-133645657D01*
X111335000Y-133154343D01*
X111146982Y-132700429D01*
X111096553Y-132650000D01*
X111146982Y-132599571D01*
X111335000Y-132145657D01*
X111335000Y-131654343D01*
X111146982Y-131200429D01*
X111017627Y-131071074D01*
X111188164Y-131033617D01*
X111347807Y-130568964D01*
X111317482Y-130078587D01*
X111188164Y-129766383D01*
X110962735Y-129716870D01*
X110279605Y-130400000D01*
X110293748Y-130414143D01*
X110114143Y-130593748D01*
X110100000Y-130579605D01*
X110085858Y-130593748D01*
X109906253Y-130414143D01*
X109920395Y-130400000D01*
X109237265Y-129716870D01*
X109011836Y-129766383D01*
X108852193Y-130231036D01*
X50185000Y-130231036D01*
X50185000Y-129537265D01*
X109416870Y-129537265D01*
X110100000Y-130220395D01*
X110783130Y-129537265D01*
X110733617Y-129311836D01*
X110268964Y-129152193D01*
X109778587Y-129182518D01*
X109466383Y-129311836D01*
X109416870Y-129537265D01*
X50185000Y-129537265D01*
X50185000Y-50685000D01*
X50932538Y-50685000D01*
X51000000Y-50698419D01*
X51067461Y-50685000D01*
X51067462Y-50685000D01*
X51267273Y-50645255D01*
X51493857Y-50493857D01*
X51645255Y-50267273D01*
X51673157Y-50127000D01*
X58433553Y-50127000D01*
X51031463Y-57529091D01*
X51031463Y-57529091D01*
G37*
X51031463Y-57529091D02*
X50970096Y-57570095D01*
X50929092Y-57631462D01*
X50929091Y-57631463D01*
X50807646Y-57813218D01*
X50750602Y-58100000D01*
X50765001Y-58172389D01*
X50765000Y-77723143D01*
X50715000Y-77843854D01*
X50715000Y-78156146D01*
X50765001Y-78276859D01*
X50765000Y-91723143D01*
X50715000Y-91843854D01*
X50715000Y-92156146D01*
X50765001Y-92276859D01*
X50765000Y-113227616D01*
X50750602Y-113300000D01*
X50765000Y-113372384D01*
X50765000Y-113372387D01*
X50807646Y-113586782D01*
X50970095Y-113829905D01*
X51031465Y-113870911D01*
X59429091Y-122268538D01*
X59470095Y-122329905D01*
X59713217Y-122492354D01*
X59927612Y-122535000D01*
X59927615Y-122535000D01*
X59999999Y-122549398D01*
X60072383Y-122535000D01*
X73723143Y-122535000D01*
X73843854Y-122585000D01*
X74156146Y-122585000D01*
X74276857Y-122535000D01*
X83901343Y-122535000D01*
X84022054Y-122585000D01*
X84334346Y-122585000D01*
X84455057Y-122535000D01*
X100227616Y-122535000D01*
X100300000Y-122549398D01*
X100372384Y-122535000D01*
X100372388Y-122535000D01*
X100586783Y-122492354D01*
X100829905Y-122329905D01*
X100870911Y-122268535D01*
X110568538Y-112570909D01*
X110629905Y-112529905D01*
X110792354Y-112286783D01*
X110835000Y-112072388D01*
X110835000Y-112072384D01*
X110849398Y-112000000D01*
X110835000Y-111927616D01*
X110835000Y-92276857D01*
X110885000Y-92156146D01*
X110885000Y-91843854D01*
X110835000Y-91723143D01*
X110835000Y-78276857D01*
X110885000Y-78156146D01*
X110885000Y-77843854D01*
X110765491Y-77555333D01*
X110544667Y-77334509D01*
X110256146Y-77215000D01*
X109943854Y-77215000D01*
X109655333Y-77334509D01*
X109434509Y-77555333D01*
X109315000Y-77843854D01*
X109315000Y-78156146D01*
X109365001Y-78276859D01*
X109365001Y-79247662D01*
X109155333Y-79334509D01*
X108934509Y-79555333D01*
X108815000Y-79843854D01*
X108815000Y-80156146D01*
X108865001Y-80276859D01*
X108865001Y-81215000D01*
X108743854Y-81215000D01*
X108455333Y-81334509D01*
X108285000Y-81504842D01*
X108285000Y-71067462D01*
X108298419Y-71000000D01*
X108245255Y-70732727D01*
X108093857Y-70506143D01*
X107867273Y-70354745D01*
X107667462Y-70315000D01*
X107667461Y-70315000D01*
X107600000Y-70301581D01*
X107532538Y-70315000D01*
X106067462Y-70315000D01*
X106000000Y-70301581D01*
X105932539Y-70315000D01*
X105932538Y-70315000D01*
X105732727Y-70354745D01*
X105506143Y-70506143D01*
X105354745Y-70732727D01*
X105301581Y-71000000D01*
X105315001Y-71067467D01*
X105315000Y-98932538D01*
X105301581Y-99000000D01*
X105354745Y-99267273D01*
X105506143Y-99493857D01*
X105732727Y-99645255D01*
X106000000Y-99698419D01*
X106067461Y-99685000D01*
X107532539Y-99685000D01*
X107565000Y-99691457D01*
X107565000Y-110895553D01*
X104961793Y-113498761D01*
X105167603Y-113190744D01*
X105305000Y-112500000D01*
X105167603Y-111809256D01*
X104776328Y-111223672D01*
X104190744Y-110832397D01*
X103500000Y-110695000D01*
X102809256Y-110832397D01*
X102223672Y-111223672D01*
X101832397Y-111809256D01*
X101695000Y-112500000D01*
X101832397Y-113190744D01*
X102223672Y-113776328D01*
X102809256Y-114167603D01*
X103500000Y-114305000D01*
X104190744Y-114167603D01*
X104498761Y-113961793D01*
X99195554Y-119265000D01*
X81176857Y-119265000D01*
X81056146Y-119215000D01*
X80743854Y-119215000D01*
X80623143Y-119265000D01*
X60504447Y-119265000D01*
X56239447Y-115000000D01*
X66301581Y-115000000D01*
X66315000Y-115067462D01*
X66315001Y-116532534D01*
X66301581Y-116600000D01*
X66354745Y-116867273D01*
X66506143Y-117093857D01*
X66732727Y-117245255D01*
X66932538Y-117285000D01*
X66932539Y-117285000D01*
X67000000Y-117298419D01*
X67067462Y-117285000D01*
X94932538Y-117285000D01*
X95000000Y-117298419D01*
X95067461Y-117285000D01*
X95067462Y-117285000D01*
X95267273Y-117245255D01*
X95493857Y-117093857D01*
X95645255Y-116867273D01*
X95698419Y-116600000D01*
X95685000Y-116532538D01*
X95685000Y-115067462D01*
X95698419Y-115000000D01*
X95645255Y-114732727D01*
X95493857Y-114506143D01*
X95267273Y-114354745D01*
X95067462Y-114315000D01*
X95000000Y-114301581D01*
X94932539Y-114315000D01*
X67067461Y-114315000D01*
X67000000Y-114301581D01*
X66932538Y-114315000D01*
X66732727Y-114354745D01*
X66506143Y-114506143D01*
X66354745Y-114732727D01*
X66301581Y-115000000D01*
X56239447Y-115000000D01*
X54335000Y-113095554D01*
X54335000Y-112500000D01*
X56695000Y-112500000D01*
X56832397Y-113190744D01*
X57223672Y-113776328D01*
X57809256Y-114167603D01*
X58500000Y-114305000D01*
X59190744Y-114167603D01*
X59776328Y-113776328D01*
X60167603Y-113190744D01*
X60305000Y-112500000D01*
X60167603Y-111809256D01*
X59776328Y-111223672D01*
X59190744Y-110832397D01*
X58500000Y-110695000D01*
X57809256Y-110832397D01*
X57223672Y-111223672D01*
X56832397Y-111809256D01*
X56695000Y-112500000D01*
X54335000Y-112500000D01*
X54335000Y-99685490D01*
X54400000Y-99698419D01*
X54467462Y-99685000D01*
X55932538Y-99685000D01*
X56000000Y-99698419D01*
X56067461Y-99685000D01*
X56067462Y-99685000D01*
X56267273Y-99645255D01*
X56493857Y-99493857D01*
X56645255Y-99267273D01*
X56698419Y-99000000D01*
X56685000Y-98932538D01*
X56685000Y-71067462D01*
X56698419Y-71000000D01*
X56645255Y-70732727D01*
X56493857Y-70506143D01*
X56267273Y-70354745D01*
X56067462Y-70315000D01*
X56000000Y-70301581D01*
X55932539Y-70315000D01*
X54467461Y-70315000D01*
X54400000Y-70301581D01*
X54335000Y-70314510D01*
X54335000Y-59999999D01*
X60301581Y-59999999D01*
X60315000Y-60067461D01*
X60315001Y-109932533D01*
X60301581Y-110000000D01*
X60354745Y-110267273D01*
X60506143Y-110493857D01*
X60732727Y-110645255D01*
X60932538Y-110685000D01*
X60932539Y-110685000D01*
X61000000Y-110698419D01*
X61067462Y-110685000D01*
X100932538Y-110685000D01*
X101000000Y-110698419D01*
X101067461Y-110685000D01*
X101067462Y-110685000D01*
X101267273Y-110645255D01*
X101493857Y-110493857D01*
X101645255Y-110267273D01*
X101698419Y-110000000D01*
X101685000Y-109932538D01*
X101685000Y-60067461D01*
X101698419Y-59999999D01*
X101645255Y-59732726D01*
X101493857Y-59506142D01*
X101267273Y-59354744D01*
X101067462Y-59314999D01*
X101000000Y-59301580D01*
X100932539Y-59314999D01*
X61067461Y-59314999D01*
X61000000Y-59301580D01*
X60932538Y-59314999D01*
X60732727Y-59354744D01*
X60506143Y-59506142D01*
X60354745Y-59732726D01*
X60301581Y-59999999D01*
X54335000Y-59999999D01*
X54335000Y-58504446D01*
X55339447Y-57499999D01*
X56695000Y-57499999D01*
X56832397Y-58190743D01*
X57223672Y-58776327D01*
X57809256Y-59167602D01*
X58500000Y-59304999D01*
X59190744Y-59167602D01*
X59776328Y-58776327D01*
X60167603Y-58190743D01*
X60305000Y-57499999D01*
X101695000Y-57499999D01*
X101832397Y-58190743D01*
X102223672Y-58776327D01*
X102809256Y-59167602D01*
X103500000Y-59304999D01*
X104190744Y-59167602D01*
X104776328Y-58776327D01*
X105167603Y-58190743D01*
X105305000Y-57499999D01*
X105167603Y-56809255D01*
X104776328Y-56223671D01*
X104190744Y-55832396D01*
X103500000Y-55694999D01*
X102809256Y-55832396D01*
X102223672Y-56223671D01*
X101832397Y-56809255D01*
X101695000Y-57499999D01*
X60305000Y-57499999D01*
X60167603Y-56809255D01*
X59776328Y-56223671D01*
X59190744Y-55832396D01*
X58500000Y-55694999D01*
X57809256Y-55832396D01*
X57223672Y-56223671D01*
X56832397Y-56809255D01*
X56695000Y-57499999D01*
X55339447Y-57499999D01*
X59704447Y-53135000D01*
X66354293Y-53135000D01*
X66301581Y-53400000D01*
X66315000Y-53467462D01*
X66315001Y-54932534D01*
X66301581Y-55000000D01*
X66354745Y-55267273D01*
X66506143Y-55493857D01*
X66732727Y-55645255D01*
X66932538Y-55685000D01*
X66932539Y-55685000D01*
X67000000Y-55698419D01*
X67067462Y-55685000D01*
X94932538Y-55685000D01*
X95000000Y-55698419D01*
X95067461Y-55685000D01*
X95067462Y-55685000D01*
X95267273Y-55645255D01*
X95493857Y-55493857D01*
X95645255Y-55267273D01*
X95698419Y-55000000D01*
X95685000Y-54932538D01*
X95685000Y-53467462D01*
X95698419Y-53400000D01*
X95645255Y-53132727D01*
X95493857Y-52906143D01*
X95267273Y-52754745D01*
X95067462Y-52715000D01*
X95000000Y-52701581D01*
X94932539Y-52715000D01*
X82719201Y-52715000D01*
X82785000Y-52556146D01*
X82785000Y-52435000D01*
X83723143Y-52435000D01*
X83843854Y-52485000D01*
X84156146Y-52485000D01*
X84444667Y-52365491D01*
X84665491Y-52144667D01*
X84785000Y-51856146D01*
X84785000Y-51835000D01*
X85723143Y-51835000D01*
X85843854Y-51885000D01*
X86156146Y-51885000D01*
X86444667Y-51765491D01*
X86665491Y-51544667D01*
X86785000Y-51256146D01*
X86785000Y-51135000D01*
X87723143Y-51135000D01*
X87843854Y-51185000D01*
X88156146Y-51185000D01*
X88444667Y-51065491D01*
X88665491Y-50844667D01*
X88785000Y-50556146D01*
X88785000Y-50243854D01*
X88736598Y-50127000D01*
X110326843Y-50127000D01*
X110354745Y-50267273D01*
X110506143Y-50493857D01*
X110732727Y-50645255D01*
X111000000Y-50698419D01*
X111067461Y-50685000D01*
X111815001Y-50685000D01*
X111815000Y-139315000D01*
X111067462Y-139315000D01*
X111000000Y-139301581D01*
X110932539Y-139315000D01*
X110932538Y-139315000D01*
X110732727Y-139354745D01*
X110506143Y-139506143D01*
X110354745Y-139732727D01*
X110326843Y-139873000D01*
X51673157Y-139873000D01*
X51645255Y-139732727D01*
X51493857Y-139506143D01*
X51267273Y-139354745D01*
X51067462Y-139315000D01*
X51067461Y-139315000D01*
X51000000Y-139301581D01*
X50932538Y-139315000D01*
X50185000Y-139315000D01*
X50185000Y-135000000D01*
X53002560Y-135000000D01*
X53002560Y-137000000D01*
X53051843Y-137247765D01*
X53192191Y-137457809D01*
X53402235Y-137598157D01*
X53650000Y-137647440D01*
X55350000Y-137647440D01*
X55597765Y-137598157D01*
X55807809Y-137457809D01*
X55948157Y-137247765D01*
X55962388Y-137176218D01*
X56107955Y-137338664D01*
X56630740Y-137589553D01*
X56643110Y-137591476D01*
X56873000Y-137470155D01*
X56873000Y-136127000D01*
X57127000Y-136127000D01*
X57127000Y-137470155D01*
X57356890Y-137591476D01*
X57369260Y-137589553D01*
X57892045Y-137338664D01*
X58279024Y-136906812D01*
X58471284Y-136359742D01*
X58327231Y-136127000D01*
X57127000Y-136127000D01*
X56873000Y-136127000D01*
X56853000Y-136127000D01*
X56853000Y-135873000D01*
X56873000Y-135873000D01*
X56873000Y-134529845D01*
X57127000Y-134529845D01*
X57127000Y-135873000D01*
X58327231Y-135873000D01*
X58471284Y-135640258D01*
X58279024Y-135093188D01*
X58217922Y-135025000D01*
X96002560Y-135025000D01*
X96002560Y-136975000D01*
X96051843Y-137222765D01*
X96192191Y-137432809D01*
X96402235Y-137573157D01*
X96650000Y-137622440D01*
X98350000Y-137622440D01*
X98597765Y-137573157D01*
X98807809Y-137432809D01*
X98948157Y-137222765D01*
X98950719Y-137209886D01*
X99420583Y-137523839D01*
X100000000Y-137639092D01*
X100579418Y-137523839D01*
X101070625Y-137195625D01*
X101253246Y-136922313D01*
X101628807Y-137327497D01*
X102143110Y-137566476D01*
X102373000Y-137445155D01*
X102373000Y-136127000D01*
X102627000Y-136127000D01*
X102627000Y-137445155D01*
X102856890Y-137566476D01*
X103371193Y-137327497D01*
X103765053Y-136902571D01*
X103966320Y-136359267D01*
X103826165Y-136127000D01*
X102627000Y-136127000D01*
X102373000Y-136127000D01*
X102353000Y-136127000D01*
X102353000Y-135873000D01*
X102373000Y-135873000D01*
X102373000Y-134554845D01*
X102627000Y-134554845D01*
X102627000Y-135873000D01*
X103826165Y-135873000D01*
X103966320Y-135640733D01*
X103765053Y-135097429D01*
X103371193Y-134672503D01*
X102856890Y-134433524D01*
X102627000Y-134554845D01*
X102373000Y-134554845D01*
X102143110Y-134433524D01*
X101628807Y-134672503D01*
X101253246Y-135077687D01*
X101070625Y-134804375D01*
X100579417Y-134476161D01*
X100000000Y-134360908D01*
X99420582Y-134476161D01*
X98950719Y-134790114D01*
X98948157Y-134777235D01*
X98807809Y-134567191D01*
X98597765Y-134426843D01*
X98350000Y-134377560D01*
X96650000Y-134377560D01*
X96402235Y-134426843D01*
X96192191Y-134567191D01*
X96051843Y-134777235D01*
X96002560Y-135025000D01*
X58217922Y-135025000D01*
X57892045Y-134661336D01*
X57369260Y-134410447D01*
X57356890Y-134408524D01*
X57127000Y-134529845D01*
X56873000Y-134529845D01*
X56643110Y-134408524D01*
X56630740Y-134410447D01*
X56107955Y-134661336D01*
X55962388Y-134823782D01*
X55948157Y-134752235D01*
X55807809Y-134542191D01*
X55597765Y-134401843D01*
X55350000Y-134352560D01*
X53650000Y-134352560D01*
X53402235Y-134401843D01*
X53192191Y-134542191D01*
X53051843Y-134752235D01*
X53002560Y-135000000D01*
X50185000Y-135000000D01*
X50185000Y-130231036D01*
X108852193Y-130231036D01*
X108882518Y-130721413D01*
X109011836Y-131033617D01*
X109182373Y-131071074D01*
X109053018Y-131200429D01*
X108865000Y-131654343D01*
X108865000Y-132145657D01*
X109053018Y-132599571D01*
X109103447Y-132650000D01*
X109053018Y-132700429D01*
X108865000Y-133154343D01*
X108865000Y-133645657D01*
X109053018Y-134099571D01*
X109103447Y-134150000D01*
X109053018Y-134200429D01*
X108865000Y-134654343D01*
X108865000Y-135145657D01*
X109053018Y-135599571D01*
X109103447Y-135650000D01*
X109053018Y-135700429D01*
X108865000Y-136154343D01*
X108865000Y-136645657D01*
X109053018Y-137099571D01*
X109400429Y-137446982D01*
X109854343Y-137635000D01*
X110345657Y-137635000D01*
X110799571Y-137446982D01*
X111146982Y-137099571D01*
X111335000Y-136645657D01*
X111335000Y-136154343D01*
X111146982Y-135700429D01*
X111096553Y-135650000D01*
X111146982Y-135599571D01*
X111335000Y-135145657D01*
X111335000Y-134654343D01*
X111146982Y-134200429D01*
X111096553Y-134150000D01*
X111146982Y-134099571D01*
X111335000Y-133645657D01*
X111335000Y-133154343D01*
X111146982Y-132700429D01*
X111096553Y-132650000D01*
X111146982Y-132599571D01*
X111335000Y-132145657D01*
X111335000Y-131654343D01*
X111146982Y-131200429D01*
X111017627Y-131071074D01*
X111188164Y-131033617D01*
X111347807Y-130568964D01*
X111317482Y-130078587D01*
X111188164Y-129766383D01*
X110962735Y-129716870D01*
X110279605Y-130400000D01*
X110293748Y-130414143D01*
X110114143Y-130593748D01*
X110100000Y-130579605D01*
X110085858Y-130593748D01*
X109906253Y-130414143D01*
X109920395Y-130400000D01*
X109237265Y-129716870D01*
X109011836Y-129766383D01*
X108852193Y-130231036D01*
X50185000Y-130231036D01*
X50185000Y-129537265D01*
X109416870Y-129537265D01*
X110100000Y-130220395D01*
X110783130Y-129537265D01*
X110733617Y-129311836D01*
X110268964Y-129152193D01*
X109778587Y-129182518D01*
X109466383Y-129311836D01*
X109416870Y-129537265D01*
X50185000Y-129537265D01*
X50185000Y-50685000D01*
X50932538Y-50685000D01*
X51000000Y-50698419D01*
X51067461Y-50685000D01*
X51067462Y-50685000D01*
X51267273Y-50645255D01*
X51493857Y-50493857D01*
X51645255Y-50267273D01*
X51673157Y-50127000D01*
X58433553Y-50127000D01*
X51031463Y-57529091D01*
G04 #@! TD*
M02*
