M48
;DRILL file {KiCad (5.0.0)} date 11/23/18 13:42:38
;FORMAT={-:-/ absolute / metric / decimal}
FMAT,2
METRIC,TZ
T1C0.200
T2C0.700
T3C0.950
T4C1.000
%
G90
G05
M71
T1
X51.5Y-78.
X51.5Y-92.
X52.2Y-80.
X52.2Y-90.
X52.9Y-82.
X52.9Y-88.
X53.6Y-84.
X53.6Y-86.
X74.Y-50.4
X74.Y-121.8
X76.Y-51.1
X76.Y-121.2
X78.Y-51.7
X78.Y-120.58
X80.Y-52.4
X80.9Y-120.
X82.Y-52.4
X82.12Y-120.58
X83.5Y-121.2
X84.Y-51.7
X84.178Y-121.8
X86.Y-51.1
X88.Y-50.4
X108.3Y-84.
X108.3Y-86.
X108.9Y-82.
X108.9Y-88.
X109.6Y-80.
X109.6Y-90.
X110.1Y-78.
X110.1Y-92.
T2
X110.1Y-130.4
X110.1Y-131.9
X110.1Y-133.4
X110.1Y-134.9
X110.1Y-136.4
T3
X97.5Y-136.
X100.Y-136.
X102.5Y-136.
T4
X54.653Y-69.
X54.653Y-101.
X64.5Y-54.
X64.5Y-116.
X97.5Y-54.
X97.5Y-116.
X107.247Y-102.
X107.5Y-68.
X54.5Y-136.
X57.Y-136.
T0
M30
