G04 #@! TF.GenerationSoftware,KiCad,Pcbnew,(5.0.0)*
G04 #@! TF.CreationDate,2018-11-23T13:42:35+09:00*
G04 #@! TF.ProjectId,LED_hachune_1,4C45445F68616368756E655F312E6B69,rev?*
G04 #@! TF.SameCoordinates,Original*
G04 #@! TF.FileFunction,Profile,NP*
%FSLAX46Y46*%
G04 Gerber Fmt 4.6, Leading zero omitted, Abs format (unit mm)*
G04 Created by KiCad (PCBNEW (5.0.0)) date 11/23/18 13:42:35*
%MOMM*%
%LPD*%
G01*
G04 APERTURE LIST*
%ADD10C,0.100000*%
G04 APERTURE END LIST*
D10*
X107600000Y-71000000D02*
X107600000Y-99000000D01*
X95000000Y-116600000D02*
X95000000Y-115000000D01*
X67000000Y-116600000D02*
X95000000Y-116600000D01*
X67000000Y-115000000D02*
X67000000Y-116600000D01*
X49500000Y-50000000D02*
X49500000Y-140000000D01*
X104600000Y-112500000D02*
G75*
G03X104600000Y-112500000I-1100000J0D01*
G01*
X107600000Y-71000000D02*
X106000000Y-71000000D01*
X106000000Y-99000000D02*
X107600000Y-99000000D01*
X111000000Y-50000000D02*
X112500000Y-50000000D01*
X106000000Y-99000000D02*
X106000000Y-71000000D01*
X104600000Y-57499999D02*
G75*
G03X104600000Y-57499999I-1100000J0D01*
G01*
X101000000Y-110000000D02*
X101000000Y-59999999D01*
X61000000Y-59999999D02*
X61000000Y-110000000D01*
X61000000Y-110000000D02*
X101000000Y-110000000D01*
X59600000Y-57499999D02*
G75*
G03X59600000Y-57499999I-1100000J0D01*
G01*
X54400000Y-71000000D02*
X54400000Y-99000000D01*
X56000000Y-71000000D02*
X54400000Y-71000000D01*
X56000000Y-99000000D02*
X56000000Y-71000000D01*
X95000000Y-53400000D02*
X67000000Y-53400000D01*
X95000000Y-55000000D02*
X95000000Y-53400000D01*
X95000000Y-115000000D02*
X67000000Y-115000000D01*
X54400000Y-99000000D02*
X56000000Y-99000000D01*
X101000000Y-59999999D02*
X61000000Y-59999999D01*
X67000000Y-55000000D02*
X95000000Y-55000000D01*
X67000000Y-53400000D02*
X67000000Y-55000000D01*
X49500000Y-140000000D02*
X51000000Y-140000000D01*
X51000000Y-140000000D02*
X51000000Y-145000000D01*
X59600000Y-112500000D02*
G75*
G03X59600000Y-112500000I-1100000J0D01*
G01*
X112500000Y-140000000D02*
X112500000Y-50000000D01*
X111000000Y-145000000D02*
X111000000Y-140000000D01*
X111000000Y-45000000D02*
X51000000Y-45000000D01*
X49500000Y-50000000D02*
X51000000Y-50000000D01*
X111000000Y-50000000D02*
X111000000Y-45000000D01*
X111000000Y-140000000D02*
X112500000Y-140000000D01*
X51000000Y-145000000D02*
X111000000Y-145000000D01*
X51000000Y-50000000D02*
X51000000Y-45000000D01*
M02*
