G04 #@! TF.GenerationSoftware,KiCad,Pcbnew,(5.0.0)*
G04 #@! TF.CreationDate,2018-11-23T13:42:35+09:00*
G04 #@! TF.ProjectId,LED_hachune_1,4C45445F68616368756E655F312E6B69,rev?*
G04 #@! TF.SameCoordinates,Original*
G04 #@! TF.FileFunction,Soldermask,Top*
G04 #@! TF.FilePolarity,Negative*
%FSLAX46Y46*%
G04 Gerber Fmt 4.6, Leading zero omitted, Abs format (unit mm)*
G04 Created by KiCad (PCBNEW (5.0.0)) date 11/23/18 13:42:35*
%MOMM*%
%LPD*%
G01*
G04 APERTURE LIST*
%ADD10C,0.100000*%
%ADD11C,1.150000*%
%ADD12R,0.450000X1.450000*%
%ADD13C,0.850000*%
%ADD14R,1.000000X1.500000*%
%ADD15R,1.000000X1.800000*%
%ADD16R,2.200000X1.840000*%
%ADD17C,1.000000*%
%ADD18R,2.000000X1.000000*%
%ADD19R,1.000000X2.000000*%
%ADD20C,0.950000*%
%ADD21R,1.700000X2.000000*%
%ADD22O,1.700000X2.000000*%
%ADD23R,1.700000X1.950000*%
%ADD24O,1.700000X1.950000*%
%ADD25C,1.200000*%
G04 APERTURE END LIST*
D10*
G04 #@! TO.C,C5*
G36*
X65174505Y-133051204D02*
X65198773Y-133054804D01*
X65222572Y-133060765D01*
X65245671Y-133069030D01*
X65267850Y-133079520D01*
X65288893Y-133092132D01*
X65308599Y-133106747D01*
X65326777Y-133123223D01*
X65343253Y-133141401D01*
X65357868Y-133161107D01*
X65370480Y-133182150D01*
X65380970Y-133204329D01*
X65389235Y-133227428D01*
X65395196Y-133251227D01*
X65398796Y-133275495D01*
X65400000Y-133299999D01*
X65400000Y-133950001D01*
X65398796Y-133974505D01*
X65395196Y-133998773D01*
X65389235Y-134022572D01*
X65380970Y-134045671D01*
X65370480Y-134067850D01*
X65357868Y-134088893D01*
X65343253Y-134108599D01*
X65326777Y-134126777D01*
X65308599Y-134143253D01*
X65288893Y-134157868D01*
X65267850Y-134170480D01*
X65245671Y-134180970D01*
X65222572Y-134189235D01*
X65198773Y-134195196D01*
X65174505Y-134198796D01*
X65150001Y-134200000D01*
X64249999Y-134200000D01*
X64225495Y-134198796D01*
X64201227Y-134195196D01*
X64177428Y-134189235D01*
X64154329Y-134180970D01*
X64132150Y-134170480D01*
X64111107Y-134157868D01*
X64091401Y-134143253D01*
X64073223Y-134126777D01*
X64056747Y-134108599D01*
X64042132Y-134088893D01*
X64029520Y-134067850D01*
X64019030Y-134045671D01*
X64010765Y-134022572D01*
X64004804Y-133998773D01*
X64001204Y-133974505D01*
X64000000Y-133950001D01*
X64000000Y-133299999D01*
X64001204Y-133275495D01*
X64004804Y-133251227D01*
X64010765Y-133227428D01*
X64019030Y-133204329D01*
X64029520Y-133182150D01*
X64042132Y-133161107D01*
X64056747Y-133141401D01*
X64073223Y-133123223D01*
X64091401Y-133106747D01*
X64111107Y-133092132D01*
X64132150Y-133079520D01*
X64154329Y-133069030D01*
X64177428Y-133060765D01*
X64201227Y-133054804D01*
X64225495Y-133051204D01*
X64249999Y-133050000D01*
X65150001Y-133050000D01*
X65174505Y-133051204D01*
X65174505Y-133051204D01*
G37*
D11*
X64700000Y-133625000D03*
D10*
G36*
X65174505Y-131001204D02*
X65198773Y-131004804D01*
X65222572Y-131010765D01*
X65245671Y-131019030D01*
X65267850Y-131029520D01*
X65288893Y-131042132D01*
X65308599Y-131056747D01*
X65326777Y-131073223D01*
X65343253Y-131091401D01*
X65357868Y-131111107D01*
X65370480Y-131132150D01*
X65380970Y-131154329D01*
X65389235Y-131177428D01*
X65395196Y-131201227D01*
X65398796Y-131225495D01*
X65400000Y-131249999D01*
X65400000Y-131900001D01*
X65398796Y-131924505D01*
X65395196Y-131948773D01*
X65389235Y-131972572D01*
X65380970Y-131995671D01*
X65370480Y-132017850D01*
X65357868Y-132038893D01*
X65343253Y-132058599D01*
X65326777Y-132076777D01*
X65308599Y-132093253D01*
X65288893Y-132107868D01*
X65267850Y-132120480D01*
X65245671Y-132130970D01*
X65222572Y-132139235D01*
X65198773Y-132145196D01*
X65174505Y-132148796D01*
X65150001Y-132150000D01*
X64249999Y-132150000D01*
X64225495Y-132148796D01*
X64201227Y-132145196D01*
X64177428Y-132139235D01*
X64154329Y-132130970D01*
X64132150Y-132120480D01*
X64111107Y-132107868D01*
X64091401Y-132093253D01*
X64073223Y-132076777D01*
X64056747Y-132058599D01*
X64042132Y-132038893D01*
X64029520Y-132017850D01*
X64019030Y-131995671D01*
X64010765Y-131972572D01*
X64004804Y-131948773D01*
X64001204Y-131924505D01*
X64000000Y-131900001D01*
X64000000Y-131249999D01*
X64001204Y-131225495D01*
X64004804Y-131201227D01*
X64010765Y-131177428D01*
X64019030Y-131154329D01*
X64029520Y-131132150D01*
X64042132Y-131111107D01*
X64056747Y-131091401D01*
X64073223Y-131073223D01*
X64091401Y-131056747D01*
X64111107Y-131042132D01*
X64132150Y-131029520D01*
X64154329Y-131019030D01*
X64177428Y-131010765D01*
X64201227Y-131004804D01*
X64225495Y-131001204D01*
X64249999Y-131000000D01*
X65150001Y-131000000D01*
X65174505Y-131001204D01*
X65174505Y-131001204D01*
G37*
D11*
X64700000Y-131575000D03*
G04 #@! TD*
D10*
G04 #@! TO.C,C1*
G36*
X75174505Y-131001204D02*
X75198773Y-131004804D01*
X75222572Y-131010765D01*
X75245671Y-131019030D01*
X75267850Y-131029520D01*
X75288893Y-131042132D01*
X75308599Y-131056747D01*
X75326777Y-131073223D01*
X75343253Y-131091401D01*
X75357868Y-131111107D01*
X75370480Y-131132150D01*
X75380970Y-131154329D01*
X75389235Y-131177428D01*
X75395196Y-131201227D01*
X75398796Y-131225495D01*
X75400000Y-131249999D01*
X75400000Y-131900001D01*
X75398796Y-131924505D01*
X75395196Y-131948773D01*
X75389235Y-131972572D01*
X75380970Y-131995671D01*
X75370480Y-132017850D01*
X75357868Y-132038893D01*
X75343253Y-132058599D01*
X75326777Y-132076777D01*
X75308599Y-132093253D01*
X75288893Y-132107868D01*
X75267850Y-132120480D01*
X75245671Y-132130970D01*
X75222572Y-132139235D01*
X75198773Y-132145196D01*
X75174505Y-132148796D01*
X75150001Y-132150000D01*
X74249999Y-132150000D01*
X74225495Y-132148796D01*
X74201227Y-132145196D01*
X74177428Y-132139235D01*
X74154329Y-132130970D01*
X74132150Y-132120480D01*
X74111107Y-132107868D01*
X74091401Y-132093253D01*
X74073223Y-132076777D01*
X74056747Y-132058599D01*
X74042132Y-132038893D01*
X74029520Y-132017850D01*
X74019030Y-131995671D01*
X74010765Y-131972572D01*
X74004804Y-131948773D01*
X74001204Y-131924505D01*
X74000000Y-131900001D01*
X74000000Y-131249999D01*
X74001204Y-131225495D01*
X74004804Y-131201227D01*
X74010765Y-131177428D01*
X74019030Y-131154329D01*
X74029520Y-131132150D01*
X74042132Y-131111107D01*
X74056747Y-131091401D01*
X74073223Y-131073223D01*
X74091401Y-131056747D01*
X74111107Y-131042132D01*
X74132150Y-131029520D01*
X74154329Y-131019030D01*
X74177428Y-131010765D01*
X74201227Y-131004804D01*
X74225495Y-131001204D01*
X74249999Y-131000000D01*
X75150001Y-131000000D01*
X75174505Y-131001204D01*
X75174505Y-131001204D01*
G37*
D11*
X74700000Y-131575000D03*
D10*
G36*
X75174505Y-133051204D02*
X75198773Y-133054804D01*
X75222572Y-133060765D01*
X75245671Y-133069030D01*
X75267850Y-133079520D01*
X75288893Y-133092132D01*
X75308599Y-133106747D01*
X75326777Y-133123223D01*
X75343253Y-133141401D01*
X75357868Y-133161107D01*
X75370480Y-133182150D01*
X75380970Y-133204329D01*
X75389235Y-133227428D01*
X75395196Y-133251227D01*
X75398796Y-133275495D01*
X75400000Y-133299999D01*
X75400000Y-133950001D01*
X75398796Y-133974505D01*
X75395196Y-133998773D01*
X75389235Y-134022572D01*
X75380970Y-134045671D01*
X75370480Y-134067850D01*
X75357868Y-134088893D01*
X75343253Y-134108599D01*
X75326777Y-134126777D01*
X75308599Y-134143253D01*
X75288893Y-134157868D01*
X75267850Y-134170480D01*
X75245671Y-134180970D01*
X75222572Y-134189235D01*
X75198773Y-134195196D01*
X75174505Y-134198796D01*
X75150001Y-134200000D01*
X74249999Y-134200000D01*
X74225495Y-134198796D01*
X74201227Y-134195196D01*
X74177428Y-134189235D01*
X74154329Y-134180970D01*
X74132150Y-134170480D01*
X74111107Y-134157868D01*
X74091401Y-134143253D01*
X74073223Y-134126777D01*
X74056747Y-134108599D01*
X74042132Y-134088893D01*
X74029520Y-134067850D01*
X74019030Y-134045671D01*
X74010765Y-134022572D01*
X74004804Y-133998773D01*
X74001204Y-133974505D01*
X74000000Y-133950001D01*
X74000000Y-133299999D01*
X74001204Y-133275495D01*
X74004804Y-133251227D01*
X74010765Y-133227428D01*
X74019030Y-133204329D01*
X74029520Y-133182150D01*
X74042132Y-133161107D01*
X74056747Y-133141401D01*
X74073223Y-133123223D01*
X74091401Y-133106747D01*
X74111107Y-133092132D01*
X74132150Y-133079520D01*
X74154329Y-133069030D01*
X74177428Y-133060765D01*
X74201227Y-133054804D01*
X74225495Y-133051204D01*
X74249999Y-133050000D01*
X75150001Y-133050000D01*
X75174505Y-133051204D01*
X75174505Y-133051204D01*
G37*
D11*
X74700000Y-133625000D03*
G04 #@! TD*
D12*
G04 #@! TO.C,U1*
X87625000Y-129550000D03*
X86975000Y-129550000D03*
X86325000Y-129550000D03*
X85675000Y-129550000D03*
X85025000Y-129550000D03*
X84375000Y-129550000D03*
X83725000Y-129550000D03*
X83075000Y-129550000D03*
X82425000Y-129550000D03*
X81775000Y-129550000D03*
X81775000Y-135450000D03*
X82425000Y-135450000D03*
X83075000Y-135450000D03*
X83725000Y-135450000D03*
X84375000Y-135450000D03*
X85025000Y-135450000D03*
X85675000Y-135450000D03*
X86325000Y-135450000D03*
X86975000Y-135450000D03*
X87625000Y-135450000D03*
G04 #@! TD*
D13*
G04 #@! TO.C,U2*
X69700000Y-135867000D03*
D10*
G36*
X70800000Y-135442000D02*
X70200000Y-136292000D01*
X69200000Y-136292000D01*
X68600000Y-135442000D01*
X70800000Y-135442000D01*
X70800000Y-135442000D01*
G37*
D14*
X71200000Y-131720000D03*
D15*
X69700000Y-131866500D03*
D14*
X68200000Y-131720000D03*
D16*
X69700000Y-134533500D03*
D17*
X69700000Y-133123800D03*
D10*
G36*
X68600000Y-133623800D02*
X69300000Y-132623800D01*
X70100000Y-132623800D01*
X70800000Y-133623800D01*
X68600000Y-133623800D01*
X68600000Y-133623800D01*
G37*
G04 #@! TD*
D18*
G04 #@! TO.C,J10*
X108600000Y-72000000D03*
X108600000Y-74000000D03*
X108600000Y-76000000D03*
X108600000Y-78000000D03*
X108600000Y-80000000D03*
X108600000Y-82000000D03*
X108600000Y-84000000D03*
X108600000Y-86000000D03*
X108600000Y-88000000D03*
X108600000Y-90000000D03*
X108600000Y-92000000D03*
X108600000Y-94000000D03*
X108600000Y-96000000D03*
X108600000Y-98000000D03*
G04 #@! TD*
D19*
G04 #@! TO.C,J11*
X94000000Y-117600000D03*
X92000000Y-117600000D03*
X90000000Y-117600000D03*
X88000000Y-117600000D03*
X86000000Y-117600000D03*
X84000000Y-117600000D03*
X82000000Y-117600000D03*
X80000000Y-117600000D03*
X78000000Y-117600000D03*
X76000000Y-117600000D03*
X74000000Y-117600000D03*
X72000000Y-117600000D03*
X70000000Y-117600000D03*
X68000000Y-117600000D03*
G04 #@! TD*
D18*
G04 #@! TO.C,J5*
X53400000Y-98000000D03*
X53400000Y-96000000D03*
X53400000Y-94000000D03*
X53400000Y-92000000D03*
X53400000Y-90000000D03*
X53400000Y-88000000D03*
X53400000Y-86000000D03*
X53400000Y-84000000D03*
X53400000Y-82000000D03*
X53400000Y-80000000D03*
X53400000Y-78000000D03*
X53400000Y-76000000D03*
X53400000Y-74000000D03*
X53400000Y-72000000D03*
G04 #@! TD*
D19*
G04 #@! TO.C,J9*
X94000000Y-52400000D03*
X92000000Y-52400000D03*
X90000000Y-52400000D03*
X88000000Y-52400000D03*
X86000000Y-52400000D03*
X84000000Y-52400000D03*
X82000000Y-52400000D03*
X80000000Y-52400000D03*
X78000000Y-52400000D03*
X76000000Y-52400000D03*
X74000000Y-52400000D03*
X72000000Y-52400000D03*
X70000000Y-52400000D03*
X68000000Y-52400000D03*
G04 #@! TD*
D10*
G04 #@! TO.C,C2*
G36*
X79960779Y-131001144D02*
X79983834Y-131004563D01*
X80006443Y-131010227D01*
X80028387Y-131018079D01*
X80049457Y-131028044D01*
X80069448Y-131040026D01*
X80088168Y-131053910D01*
X80105438Y-131069562D01*
X80121090Y-131086832D01*
X80134974Y-131105552D01*
X80146956Y-131125543D01*
X80156921Y-131146613D01*
X80164773Y-131168557D01*
X80170437Y-131191166D01*
X80173856Y-131214221D01*
X80175000Y-131237500D01*
X80175000Y-131812500D01*
X80173856Y-131835779D01*
X80170437Y-131858834D01*
X80164773Y-131881443D01*
X80156921Y-131903387D01*
X80146956Y-131924457D01*
X80134974Y-131944448D01*
X80121090Y-131963168D01*
X80105438Y-131980438D01*
X80088168Y-131996090D01*
X80069448Y-132009974D01*
X80049457Y-132021956D01*
X80028387Y-132031921D01*
X80006443Y-132039773D01*
X79983834Y-132045437D01*
X79960779Y-132048856D01*
X79937500Y-132050000D01*
X79462500Y-132050000D01*
X79439221Y-132048856D01*
X79416166Y-132045437D01*
X79393557Y-132039773D01*
X79371613Y-132031921D01*
X79350543Y-132021956D01*
X79330552Y-132009974D01*
X79311832Y-131996090D01*
X79294562Y-131980438D01*
X79278910Y-131963168D01*
X79265026Y-131944448D01*
X79253044Y-131924457D01*
X79243079Y-131903387D01*
X79235227Y-131881443D01*
X79229563Y-131858834D01*
X79226144Y-131835779D01*
X79225000Y-131812500D01*
X79225000Y-131237500D01*
X79226144Y-131214221D01*
X79229563Y-131191166D01*
X79235227Y-131168557D01*
X79243079Y-131146613D01*
X79253044Y-131125543D01*
X79265026Y-131105552D01*
X79278910Y-131086832D01*
X79294562Y-131069562D01*
X79311832Y-131053910D01*
X79330552Y-131040026D01*
X79350543Y-131028044D01*
X79371613Y-131018079D01*
X79393557Y-131010227D01*
X79416166Y-131004563D01*
X79439221Y-131001144D01*
X79462500Y-131000000D01*
X79937500Y-131000000D01*
X79960779Y-131001144D01*
X79960779Y-131001144D01*
G37*
D20*
X79700000Y-131525000D03*
D10*
G36*
X79960779Y-132751144D02*
X79983834Y-132754563D01*
X80006443Y-132760227D01*
X80028387Y-132768079D01*
X80049457Y-132778044D01*
X80069448Y-132790026D01*
X80088168Y-132803910D01*
X80105438Y-132819562D01*
X80121090Y-132836832D01*
X80134974Y-132855552D01*
X80146956Y-132875543D01*
X80156921Y-132896613D01*
X80164773Y-132918557D01*
X80170437Y-132941166D01*
X80173856Y-132964221D01*
X80175000Y-132987500D01*
X80175000Y-133562500D01*
X80173856Y-133585779D01*
X80170437Y-133608834D01*
X80164773Y-133631443D01*
X80156921Y-133653387D01*
X80146956Y-133674457D01*
X80134974Y-133694448D01*
X80121090Y-133713168D01*
X80105438Y-133730438D01*
X80088168Y-133746090D01*
X80069448Y-133759974D01*
X80049457Y-133771956D01*
X80028387Y-133781921D01*
X80006443Y-133789773D01*
X79983834Y-133795437D01*
X79960779Y-133798856D01*
X79937500Y-133800000D01*
X79462500Y-133800000D01*
X79439221Y-133798856D01*
X79416166Y-133795437D01*
X79393557Y-133789773D01*
X79371613Y-133781921D01*
X79350543Y-133771956D01*
X79330552Y-133759974D01*
X79311832Y-133746090D01*
X79294562Y-133730438D01*
X79278910Y-133713168D01*
X79265026Y-133694448D01*
X79253044Y-133674457D01*
X79243079Y-133653387D01*
X79235227Y-133631443D01*
X79229563Y-133608834D01*
X79226144Y-133585779D01*
X79225000Y-133562500D01*
X79225000Y-132987500D01*
X79226144Y-132964221D01*
X79229563Y-132941166D01*
X79235227Y-132918557D01*
X79243079Y-132896613D01*
X79253044Y-132875543D01*
X79265026Y-132855552D01*
X79278910Y-132836832D01*
X79294562Y-132819562D01*
X79311832Y-132803910D01*
X79330552Y-132790026D01*
X79350543Y-132778044D01*
X79371613Y-132768079D01*
X79393557Y-132760227D01*
X79416166Y-132754563D01*
X79439221Y-132751144D01*
X79462500Y-132750000D01*
X79937500Y-132750000D01*
X79960779Y-132751144D01*
X79960779Y-132751144D01*
G37*
D20*
X79700000Y-133275000D03*
G04 #@! TD*
D21*
G04 #@! TO.C,J1*
X54500000Y-136000000D03*
D22*
X57000000Y-136000000D03*
G04 #@! TD*
D23*
G04 #@! TO.C,J2*
X97500000Y-136000000D03*
D24*
X100000000Y-136000000D03*
X102500000Y-136000000D03*
G04 #@! TD*
D25*
G04 #@! TO.C,J3*
X110100000Y-136400000D03*
X110100000Y-134900000D03*
X110100000Y-133400000D03*
X110100000Y-131900000D03*
X110100000Y-130400000D03*
G04 #@! TD*
M02*
