0
SECTION
2
HEADER
9
$INSUNITS
70
4
9
$ACADVER
1
AC1014
9
$HANDSEED
5
FFFF
0
ENDSEC
0
SECTION
2
TABLES
0
TABLE
2
VPORT
5
8
100
AcDbSymbolTable
0
ENDTAB
0
TABLE
2
LTYPE
5
5
100
AcDbSymbolTable
0
LTYPE
5
14
100
AcDbSymbolTableRecord
100
AcDbLinetypeTableRecord
2
BYBLOCK
70
0
0
LTYPE
5
15
100
AcDbSymbolTableRecord
100
AcDbLinetypeTableRecord
2
BYLAYER
70
0
0
ENDTAB
0
TABLE
2
LAYER
5
2
100
AcDbSymbolTable
70
2
0
LAYER
5
50
100
AcDbSymbolTableRecord
100
AcDbLayerTableRecord
2
0
70
0
6
CONTINUOUS
0
ENDTAB
0
TABLE
2
STYLE
5
3
100
AcDbSymbolTable
70
1
0
STYLE
5
11
100
AcDbSymbolTableRecord
100
AcDbTextStyleTableRecord
2
STANDARD
70
0
0
ENDTAB
0
TABLE
2
VIEW
5
6
100
AcDbSymbolTable
70
0
0
ENDTAB
0
TABLE
2
UCS
5
7
100
AcDbSymbolTable
70
0
0
ENDTAB
0
TABLE
2
APPID
5
9
100
AcDbSymbolTable
70
2
0
APPID
5
12
100
AcDbSymbolTableRecord
100
AcDbRegAppTableRecord
2
ACAD
70
0
0
ENDTAB
0
TABLE
2
DIMSTYLE
5
A
100
AcDbSymbolTable
70
1
0
ENDTAB
0
TABLE
2
BLOCK_RECORD
5
1
100
AcDbSymbolTable
70
1
0
BLOCK_RECORD
5
1F
100
AcDbSymbolTableRecord
100
AcDbBlockTableRecord
2
*MODEL_SPACE
0
BLOCK_RECORD
5
1B
100
AcDbSymbolTableRecord
100
AcDbBlockTableRecord
2
*PAPER_SPACE
0
ENDTAB
0
ENDSEC
0
SECTION
2
BLOCKS
0
BLOCK
5
20
100
AcDbEntity
100
AcDbBlockBegin
2
*MODEL_SPACE
0
ENDBLK
5
21
100
AcDbEntity
100
AcDbBlockEnd
0
BLOCK
5
1C
100
AcDbEntity
100
AcDbBlockBegin
2
*PAPER_SPACE
0
ENDBLK
5
1D
100
AcDbEntity
100
AcDbBlockEnd
0
ENDSEC
0
SECTION
2
ENTITIES
0
CIRCLE
5
100
100
AcDbEntity
8
0
100
AcDbCircle
10
-50.499999999999986
20
35.200000000000003
30
0
40
1.1000000000000032
0
CIRCLE
5
101
100
AcDbEntity
8
0
100
AcDbCircle
10
-24.499999999999996
20
35.200000000000003
30
0
40
1.0999999999999985
0
CIRCLE
5
102
100
AcDbEntity
8
0
100
AcDbCircle
10
-71.5
20
31.500000000000004
30
0
40
1.100000000000001
0
CIRCLE
5
103
100
AcDbEntity
8
0
100
AcDbCircle
10
-66.5
20
13.499999999999998
30
0
40
1.0999999999999999
0
CIRCLE
5
104
100
AcDbEntity
8
0
100
AcDbCircle
10
-66.5
20
31.499999878081407
30
0
40
1.0999999999999999
0
CIRCLE
5
105
100
AcDbEntity
8
0
100
AcDbCircle
10
-71.5
20
13.499999999999996
30
0
40
1.0999999999999999
0
CIRCLE
5
106
100
AcDbEntity
8
0
100
AcDbCircle
10
-8.5
20
31.499999999999993
30
0
40
1.0999999999999999
0
CIRCLE
5
107
100
AcDbEntity
8
0
100
AcDbCircle
10
-3.5
20
13.499999999999989
30
0
40
1.100000000000001
0
CIRCLE
5
108
100
AcDbEntity
8
0
100
AcDbCircle
10
-3.5
20
31.499999999999993
30
0
40
1.0999999999999999
0
CIRCLE
5
109
100
AcDbEntity
8
0
100
AcDbCircle
10
-8.4999999999999982
20
13.500000121918582
30
0
40
1.0999999999999999
0
LWPOLYLINE
5
110
100
AcDbEntity
8
0
100
AcDbPolyline
90
20
70
1
43
0.0
10
9.7144514654701197e-16
20
34.5
10
-1.0000000000000029
20
34.500000000000057
10
-1.0000000000000009
20
27.500000000000018
10
-26.500000000000014
20
27.500000000000018
10
-26.500000000000007
20
17.499999999999986
10
-1.0000000000000029
20
17.499999999999996
10
-1.0000000000000029
20
10.5
10
9.2426066800046996e-16
20
10.500000000000007
10
0
20
-2.9999999999999991
10
-75
20
-3.0000000000000004
10
-75
20
10.500000000000007
10
-74
20
10.500000000000005
10
-74
20
17.499999999999982
10
-48.500000000000007
20
17.500000000000014
10
-48.500000000000007
20
27.499999999999993
10
-74
20
27.499999999999982
10
-74
20
34.499999999999957
10
-75
20
34.499999999999957
10
-75
20
48
10
-1.2325951644078309e-31
20
48
0
LWPOLYLINE
5
111
100
AcDbEntity
8
0
100
AcDbPolyline
90
4
70
1
43
0.0
10
-61.630000000000003
20
43.460000000000001
10
-13.369999999999994
20
43.460000000000001
10
-13.369999999999997
20
46
10
-61.630000000000003
20
46
0
LINE
5
112
100
AcDbEntity
8
0
100
AcDbLine
10
0
20
-2.9999999999999991
30
0
11
9.2426066800046996e-16
21
10.500000000000007
31
0
0
LINE
5
113
100
AcDbEntity
8
0
100
AcDbLine
10
-1.0000000000000029
20
10.5
30
0
11
9.2426066800046996e-16
21
10.500000000000007
31
0
0
LINE
5
114
100
AcDbEntity
8
0
100
AcDbLine
10
-1.0000000000000029
20
10.5
30
0
11
-1.0000000000000029
21
17.499999999999996
31
0
0
LINE
5
115
100
AcDbEntity
8
0
100
AcDbLine
10
-1.0000000000000029
20
17.499999999999996
30
0
11
-26.500000000000007
21
17.499999999999986
31
0
0
LINE
5
116
100
AcDbEntity
8
0
100
AcDbLine
10
-26.500000000000007
20
17.499999999999986
30
0
11
-26.500000000000014
21
27.500000000000018
31
0
0
LINE
5
117
100
AcDbEntity
8
0
100
AcDbLine
10
-26.500000000000014
20
27.500000000000018
30
0
11
-1.0000000000000009
21
27.500000000000018
31
0
0
LINE
5
118
100
AcDbEntity
8
0
100
AcDbLine
10
-1.0000000000000009
20
27.500000000000018
30
0
11
-1.0000000000000029
21
34.500000000000057
31
0
0
LINE
5
119
100
AcDbEntity
8
0
100
AcDbLine
10
9.7144514654701197e-16
20
34.5
30
0
11
-1.2325951644078309e-31
21
48
31
0
0
LINE
5
120
100
AcDbEntity
8
0
100
AcDbLine
10
-1.2325951644078309e-31
20
48
30
0
11
-75
21
48
31
0
0
LINE
5
121
100
AcDbEntity
8
0
100
AcDbLine
10
-75
20
48
30
0
11
-75
21
34.499999999999957
31
0
0
LINE
5
122
100
AcDbEntity
8
0
100
AcDbLine
10
-75
20
34.499999999999957
30
0
11
-74
21
34.499999999999957
31
0
0
LINE
5
123
100
AcDbEntity
8
0
100
AcDbLine
10
-74
20
34.499999999999957
30
0
11
-74
21
27.499999999999982
31
0
0
LINE
5
124
100
AcDbEntity
8
0
100
AcDbLine
10
-74
20
27.499999999999982
30
0
11
-48.500000000000007
21
27.499999999999993
31
0
0
LINE
5
125
100
AcDbEntity
8
0
100
AcDbLine
10
-48.500000000000007
20
27.499999999999993
30
0
11
-48.500000000000007
21
17.500000000000014
31
0
0
LINE
5
126
100
AcDbEntity
8
0
100
AcDbLine
10
-48.500000000000007
20
17.500000000000014
30
0
11
-74
21
17.499999999999982
31
0
0
LINE
5
127
100
AcDbEntity
8
0
100
AcDbLine
10
-74
20
17.499999999999982
30
0
11
-74
21
10.500000000000005
31
0
0
LINE
5
128
100
AcDbEntity
8
0
100
AcDbLine
10
-74
20
10.500000000000005
30
0
11
-75
21
10.500000000000007
31
0
0
LINE
5
129
100
AcDbEntity
8
0
100
AcDbLine
10
-75
20
10.500000000000007
30
0
11
-75
21
-3.0000000000000004
31
0
0
LINE
5
130
100
AcDbEntity
8
0
100
AcDbLine
10
-75
20
-3.0000000000000004
30
0
11
0
21
-2.9999999999999991
31
0
0
CIRCLE
5
131
100
AcDbEntity
8
0
100
AcDbCircle
10
-3.5
20
31.499999999999993
30
0
40
1.1000000000000014
0
CIRCLE
5
132
100
AcDbEntity
8
0
100
AcDbCircle
10
-8.5
20
31.499999999999993
30
0
40
1.1000000000000005
0
CIRCLE
5
133
100
AcDbEntity
8
0
100
AcDbCircle
10
-24.499999999999996
20
35.200000000000003
30
0
40
1.0999999999999999
0
CIRCLE
5
134
100
AcDbEntity
8
0
100
AcDbCircle
10
-50.499999999999986
20
35.200000000000003
30
0
40
1.1000000000000045
0
CIRCLE
5
135
100
AcDbEntity
8
0
100
AcDbCircle
10
-66.5
20
31.499999878081407
30
0
40
1.0999999999999979
0
CIRCLE
5
136
100
AcDbEntity
8
0
100
AcDbCircle
10
-71.5
20
31.500000000000004
30
0
40
1.1000000000000019
0
CIRCLE
5
137
100
AcDbEntity
8
0
100
AcDbCircle
10
-66.5
20
13.499999999999998
30
0
40
1.0999999999999994
0
CIRCLE
5
138
100
AcDbEntity
8
0
100
AcDbCircle
10
-71.5
20
13.499999999999996
30
0
40
1.099999999999997
0
CIRCLE
5
139
100
AcDbEntity
8
0
100
AcDbCircle
10
-8.4999999999999982
20
13.500000121918582
30
0
40
1.1000000000000008
0
CIRCLE
5
140
100
AcDbEntity
8
0
100
AcDbCircle
10
-3.5
20
13.499999999999989
30
0
40
1.1000000000000005
0
CIRCLE
5
141
100
AcDbEntity
8
0
100
AcDbCircle
10
-5
20
43.5
30
0
40
1.6808985794881506
0
CIRCLE
5
142
100
AcDbEntity
8
0
100
AcDbCircle
10
-70
20
43.500000000000007
30
0
40
0.95994733554843015
0
LWPOLYLINE
5
143
100
AcDbEntity
8
0
100
AcDbPolyline
90
4
70
1
43
0.0
10
-6.2000000000000002
20
-0.49999999999999933
10
-1.9999999999999993
20
-0.49999999999999933
10
-1.9999999999999996
20
8.2000000000000011
10
-6.2000000000000002
20
8.2000000000000011
0
LWPOLYLINE
5
144
100
AcDbEntity
8
0
100
AcDbPolyline
90
4
70
1
43
0.0
10
-70
20
1.9999999999999996
10
-64.459999999999994
20
1.9999999999999996
10
-64.459999999999994
20
9.5999999999999996
10
-70
20
9.5999999999999996
0
ARC
5
145
100
AcDbEntity
8
0
100
AcDbCircle
10
-30.5
20
34.369402422242025
30
0
40
2.0000000000000018
100
AcDbArc
50
0
51
35.000000000000057
0
LINE
5
146
100
AcDbEntity
8
0
100
AcDbLine
10
-28.499999999999996
20
32.199999999999996
30
0
11
-28.499999999999996
21
34.369402422242025
31
0
0
LINE
5
147
100
AcDbEntity
8
0
100
AcDbLine
10
-28.861695911422018
20
35.516555294944119
30
0
11
-32.104075241783789
21
40.147152872702094
31
0
0
ARC
5
148
100
AcDbEntity
8
0
100
AcDbCircle
10
-33.742379330361764
20
38.999999999999993
30
0
40
1.9999999999999982
100
AcDbArc
50
35.000000000000341
51
90.000000000000199
0
ARC
5
149
100
AcDbEntity
8
0
100
AcDbCircle
10
-44.499999999999972
20
34.369402422242025
30
0
40
2.0000000000000187
100
AcDbArc
50
145.00000000000014
51
180
0
LINE
5
150
100
AcDbEntity
8
0
100
AcDbLine
10
-46.499999999999993
20
34.369402422242025
30
0
11
-46.499999999999986
21
32.199999999999996
31
0
0
ARC
5
151
100
AcDbEntity
8
0
100
AcDbCircle
10
-44.499999999999972
20
32.200000000000003
30
0
40
2.0000000000000107
100
AcDbArc
50
180
51
269.99999999999937
0
LINE
5
152
100
AcDbEntity
8
0
100
AcDbLine
10
-44.499999999999993
20
30.199999999999996
30
0
11
-30.5
21
30.199999999999996
31
0
0
ARC
5
153
100
AcDbEntity
8
0
100
AcDbCircle
10
-30.5
20
32.199999999999996
30
0
40
2.0000000000000018
100
AcDbArc
50
-90
51
0
0
LINE
5
154
100
AcDbEntity
8
0
100
AcDbLine
10
-33.742379330361771
20
41
30
0
11
-41.257620669638229
21
41
31
0
0
ARC
5
155
100
AcDbEntity
8
0
100
AcDbCircle
10
-41.257620669638229
20
38.999999999999993
30
0
40
2.0000000000000062
100
AcDbArc
50
90
51
144.99999999999977
0
LINE
5
156
100
AcDbEntity
8
0
100
AcDbLine
10
-42.895924758216211
20
40.147152872702094
30
0
11
-46.138304088577975
21
35.516555294944126
31
0
0
CIRCLE
5
157
100
AcDbEntity
8
0
100
AcDbCircle
10
-9
20
-0.79999999999999916
30
0
40
1.1000000000000005
0
CIRCLE
5
158
100
AcDbEntity
8
0
100
AcDbCircle
10
-72
20
-0.80000000000000016
30
0
40
1.1000000000000023
0
ENDSEC
0
SECTION
2
OBJECTS
0
DICTIONARY
5
C
100
AcDbDictionary
3
ACAD_GROUP
350
D
3
ACAD_MLINESTYLE
350
17
0
DICTIONARY
5
D
100
AcDbDictionary
0
DICTIONARY
5
1A
330
C
100
AcDbDictionary
0
DICTIONARY
5
17
100
AcDbDictionary
0
ENDSEC
0
EOF
