0
SECTION
2
HEADER
9
$INSUNITS
70
4
9
$ACADVER
1
AC1014
9
$HANDSEED
5
FFFF
0
ENDSEC
0
SECTION
2
TABLES
0
TABLE
2
VPORT
5
8
100
AcDbSymbolTable
0
ENDTAB
0
TABLE
2
LTYPE
5
5
100
AcDbSymbolTable
0
LTYPE
5
14
100
AcDbSymbolTableRecord
100
AcDbLinetypeTableRecord
2
BYBLOCK
70
0
0
LTYPE
5
15
100
AcDbSymbolTableRecord
100
AcDbLinetypeTableRecord
2
BYLAYER
70
0
0
ENDTAB
0
TABLE
2
LAYER
5
2
100
AcDbSymbolTable
70
2
0
LAYER
5
50
100
AcDbSymbolTableRecord
100
AcDbLayerTableRecord
2
0
70
0
6
CONTINUOUS
0
ENDTAB
0
TABLE
2
STYLE
5
3
100
AcDbSymbolTable
70
1
0
STYLE
5
11
100
AcDbSymbolTableRecord
100
AcDbTextStyleTableRecord
2
STANDARD
70
0
0
ENDTAB
0
TABLE
2
VIEW
5
6
100
AcDbSymbolTable
70
0
0
ENDTAB
0
TABLE
2
UCS
5
7
100
AcDbSymbolTable
70
0
0
ENDTAB
0
TABLE
2
APPID
5
9
100
AcDbSymbolTable
70
2
0
APPID
5
12
100
AcDbSymbolTableRecord
100
AcDbRegAppTableRecord
2
ACAD
70
0
0
ENDTAB
0
TABLE
2
DIMSTYLE
5
A
100
AcDbSymbolTable
70
1
0
ENDTAB
0
TABLE
2
BLOCK_RECORD
5
1
100
AcDbSymbolTable
70
1
0
BLOCK_RECORD
5
1F
100
AcDbSymbolTableRecord
100
AcDbBlockTableRecord
2
*MODEL_SPACE
0
BLOCK_RECORD
5
1B
100
AcDbSymbolTableRecord
100
AcDbBlockTableRecord
2
*PAPER_SPACE
0
ENDTAB
0
ENDSEC
0
SECTION
2
BLOCKS
0
BLOCK
5
20
100
AcDbEntity
100
AcDbBlockBegin
2
*MODEL_SPACE
0
ENDBLK
5
21
100
AcDbEntity
100
AcDbBlockEnd
0
BLOCK
5
1C
100
AcDbEntity
100
AcDbBlockBegin
2
*PAPER_SPACE
0
ENDBLK
5
1D
100
AcDbEntity
100
AcDbBlockEnd
0
ENDSEC
0
SECTION
2
ENTITIES
0
LWPOLYLINE
5
100
100
AcDbEntity
8
0
100
AcDbPolyline
90
4
70
1
43
0.0
10
29.000000000000004
20
5
10
-29.000000000000004
20
5
10
-29.000000000000004
20
105
10
29.000000000000004
20
105
0
LWPOLYLINE
5
101
100
AcDbEntity
8
0
100
AcDbPolyline
90
4
70
1
43
0.0
10
-15.919999999999977
20
85
10
-20.999999999999986
20
85
10
-21.000000000000007
20
36.739999999999995
10
-15.919999999999959
20
36.740000000000009
0
LWPOLYLINE
5
102
100
AcDbEntity
8
0
100
AcDbPolyline
90
8
70
1
43
0.0
10
-13.999999960370126
20
45.000000044703455
10
-10.999999912227931
20
42
10
23.00000000000006
20
42.000000000000028
10
26.000000000000011
20
44.999999999999993
10
26.00000000000005
20
84.000000000000028
10
22.999999992842351
20
87
10
-10.999999963808841
20
87
10
-13.999999960370126
20
84.000000000000028
0
LWPOLYLINE
5
103
100
AcDbEntity
8
0
100
AcDbPolyline
90
4
70
1
43
0.0
10
-8.9999999904695027
20
76.999999999999986
10
-8.9999999904695205
20
51.999999999999986
10
21.000000009530481
20
52
10
21.000000009530467
20
76.999999999999986
0
CIRCLE
5
104
100
AcDbEntity
8
0
100
AcDbCircle
10
-8.9999999904695205
20
51.999999999999986
30
0
40
1.5000000000000004
0
CIRCLE
5
105
100
AcDbEntity
8
0
100
AcDbCircle
10
-8.9999999904695027
20
76.999999999999986
30
0
40
1.5000000000000004
0
CIRCLE
5
106
100
AcDbEntity
8
0
100
AcDbCircle
10
21.000000009530467
20
76.999999999999986
30
0
40
1.5000000000000004
0
CIRCLE
5
107
100
AcDbEntity
8
0
100
AcDbCircle
10
21.000000009530481
20
52
30
0
40
1.5000000000000004
0
LWPOLYLINE
5
108
100
AcDbEntity
8
0
100
AcDbPolyline
90
4
70
1
43
0.0
10
-13.999999960370126
20
58.000000000000007
10
-13.999999960370126
20
72.999999999999972
10
26.000000000000046
20
72.999999999999986
10
26.000000000000046
20
58.000000000000014
0
LWPOLYLINE
5
109
100
AcDbEntity
8
0
100
AcDbPolyline
90
4
70
1
43
0.0
10
17.000000000000007
20
51.000000000000007
10
17.000000000000007
20
58.000000000000007
10
8.0000000000000089
20
58.000000000000007
10
8.0000000000000089
20
51.000000000000007
0
LWPOLYLINE
5
110
100
AcDbEntity
8
0
100
AcDbPolyline
90
4
70
1
43
0.0
10
-7.9319999603701259
20
83.882000000000005
10
-7.9319999603701259
20
82.611999999999995
10
-10.471999960370123
20
82.611999999999995
10
-10.471999960370123
20
83.882000000000005
0
LWPOLYLINE
5
111
100
AcDbEntity
8
0
100
AcDbPolyline
90
4
70
1
43
0.0
10
-14
20
40
10
19.000000000000004
20
40
10
19.000000000000004
20
12.000000000000002
10
-14
20
12.000000000000002
0
LWPOLYLINE
5
112
100
AcDbEntity
8
0
100
AcDbPolyline
90
4
70
1
43
0.0
10
-5.9999999999999982
20
40
10
11.000000000000004
20
40
10
11.000000000000004
20
12.000000000000002
10
-5.9999999999999982
20
12.000000000000002
0
CIRCLE
5
113
100
AcDbEntity
8
0
100
AcDbCircle
10
19.000000000000004
20
40
30
0
40
1.5000000000000002
0
CIRCLE
5
114
100
AcDbEntity
8
0
100
AcDbCircle
10
-5.9999999999999982
20
40
30
0
40
1.5000000000000002
0
CIRCLE
5
115
100
AcDbEntity
8
0
100
AcDbCircle
10
-5.9999999999999982
20
12.000000000000002
30
0
40
1.5000000000000002
0
CIRCLE
5
116
100
AcDbEntity
8
0
100
AcDbCircle
10
19.000000000000004
20
12.000000000000002
30
0
40
1.5000000000000002
0
ENDSEC
0
SECTION
2
OBJECTS
0
DICTIONARY
5
C
100
AcDbDictionary
3
ACAD_GROUP
350
D
3
ACAD_MLINESTYLE
350
17
0
DICTIONARY
5
D
100
AcDbDictionary
0
DICTIONARY
5
1A
330
C
100
AcDbDictionary
0
DICTIONARY
5
17
100
AcDbDictionary
0
ENDSEC
0
EOF
