G04 #@! TF.GenerationSoftware,KiCad,Pcbnew,(5.0.0)*
G04 #@! TF.CreationDate,2018-11-23T13:39:21+09:00*
G04 #@! TF.ProjectId,LED_hachune_2,4C45445F68616368756E655F322E6B69,rev?*
G04 #@! TF.SameCoordinates,Original*
G04 #@! TF.FileFunction,Copper,L1,Top,Signal*
G04 #@! TF.FilePolarity,Positive*
%FSLAX46Y46*%
G04 Gerber Fmt 4.6, Leading zero omitted, Abs format (unit mm)*
G04 Created by KiCad (PCBNEW (5.0.0)) date 11/23/18 13:39:21*
%MOMM*%
%LPD*%
G01*
G04 APERTURE LIST*
G04 #@! TA.AperFunction,SMDPad,CuDef*
%ADD10R,1.000000X0.500000*%
G04 #@! TD*
G04 #@! TA.AperFunction,SMDPad,CuDef*
%ADD11R,1.000000X0.350000*%
G04 #@! TD*
G04 #@! TA.AperFunction,SMDPad,CuDef*
%ADD12R,1.000000X0.600000*%
G04 #@! TD*
G04 #@! TA.AperFunction,SMDPad,CuDef*
%ADD13R,1.000000X0.450000*%
G04 #@! TD*
G04 #@! TA.AperFunction,Conductor*
%ADD14C,0.100000*%
G04 #@! TD*
G04 #@! TA.AperFunction,SMDPad,CuDef*
%ADD15C,0.950000*%
G04 #@! TD*
G04 #@! TA.AperFunction,ComponentPad*
%ADD16R,2.000000X1.700000*%
G04 #@! TD*
G04 #@! TA.AperFunction,ComponentPad*
%ADD17O,2.000000X1.700000*%
G04 #@! TD*
G04 #@! TA.AperFunction,ComponentPad*
%ADD18C,0.600000*%
G04 #@! TD*
G04 #@! TA.AperFunction,SMDPad,CuDef*
%ADD19O,0.280000X0.850000*%
G04 #@! TD*
G04 #@! TA.AperFunction,SMDPad,CuDef*
%ADD20R,0.280000X0.280000*%
G04 #@! TD*
G04 #@! TA.AperFunction,SMDPad,CuDef*
%ADD21R,2.400000X1.650000*%
G04 #@! TD*
G04 #@! TA.AperFunction,SMDPad,CuDef*
%ADD22R,1.050000X0.680000*%
G04 #@! TD*
G04 #@! TA.AperFunction,SMDPad,CuDef*
%ADD23R,0.500000X0.260000*%
G04 #@! TD*
G04 #@! TA.AperFunction,SMDPad,CuDef*
%ADD24R,0.700000X0.280000*%
G04 #@! TD*
G04 #@! TA.AperFunction,SMDPad,CuDef*
%ADD25C,1.150000*%
G04 #@! TD*
G04 #@! TA.AperFunction,SMDPad,CuDef*
%ADD26R,1.000000X1.500000*%
G04 #@! TD*
G04 #@! TA.AperFunction,SMDPad,CuDef*
%ADD27R,0.900000X1.300000*%
G04 #@! TD*
G04 #@! TA.AperFunction,ViaPad*
%ADD28C,0.300000*%
G04 #@! TD*
G04 #@! TA.AperFunction,ViaPad*
%ADD29C,0.203200*%
G04 #@! TD*
G04 #@! TA.AperFunction,Conductor*
%ADD30C,0.200000*%
G04 #@! TD*
G04 #@! TA.AperFunction,Conductor*
%ADD31C,0.160000*%
G04 #@! TD*
G04 #@! TA.AperFunction,Conductor*
%ADD32C,0.300000*%
G04 #@! TD*
G04 #@! TA.AperFunction,Conductor*
%ADD33C,0.254000*%
G04 #@! TD*
G04 APERTURE END LIST*
D10*
G04 #@! TO.P,D37,4*
G04 #@! TO.N,Net-(D37-Pad4)*
X102750000Y-124150000D03*
D11*
G04 #@! TO.P,D37,3*
G04 #@! TO.N,Net-(D37-Pad3)*
X102750000Y-124975000D03*
D12*
G04 #@! TO.P,D37,2*
G04 #@! TO.N,Net-(D37-Pad2)*
X102750000Y-125850000D03*
D13*
G04 #@! TO.P,D37,1*
G04 #@! TO.N,Net-(D37-Pad1)*
X102750000Y-126825000D03*
G04 #@! TD*
G04 #@! TO.P,D38,1*
G04 #@! TO.N,Net-(D37-Pad3)*
X102750000Y-108825000D03*
D12*
G04 #@! TO.P,D38,2*
G04 #@! TO.N,Net-(D37-Pad2)*
X102750000Y-107850000D03*
D11*
G04 #@! TO.P,D38,3*
G04 #@! TO.N,Net-(D38-Pad3)*
X102750000Y-106975000D03*
D10*
G04 #@! TO.P,D38,4*
G04 #@! TO.N,Net-(D37-Pad4)*
X102750000Y-106150000D03*
G04 #@! TD*
G04 #@! TO.P,D39,4*
G04 #@! TO.N,Net-(D37-Pad4)*
X102750000Y-88650000D03*
D11*
G04 #@! TO.P,D39,3*
G04 #@! TO.N,Net-(D39-Pad3)*
X102750000Y-89475000D03*
D12*
G04 #@! TO.P,D39,2*
G04 #@! TO.N,Net-(D37-Pad2)*
X102750000Y-90350000D03*
D13*
G04 #@! TO.P,D39,1*
G04 #@! TO.N,Net-(D38-Pad3)*
X102750000Y-91325000D03*
G04 #@! TD*
G04 #@! TO.P,D40,1*
G04 #@! TO.N,Net-(D40-Pad1)*
X105250000Y-131325000D03*
D12*
G04 #@! TO.P,D40,2*
G04 #@! TO.N,Net-(D37-Pad2)*
X105250000Y-130350000D03*
D11*
G04 #@! TO.P,D40,3*
G04 #@! TO.N,Net-(D40-Pad3)*
X105250000Y-129475000D03*
D10*
G04 #@! TO.P,D40,4*
G04 #@! TO.N,Net-(D37-Pad4)*
X105250000Y-128650000D03*
G04 #@! TD*
G04 #@! TO.P,D41,4*
G04 #@! TO.N,Net-(D37-Pad4)*
X105250000Y-111150000D03*
D11*
G04 #@! TO.P,D41,3*
G04 #@! TO.N,Net-(D41-Pad3)*
X105250000Y-111975000D03*
D12*
G04 #@! TO.P,D41,2*
G04 #@! TO.N,Net-(D37-Pad2)*
X105250000Y-112850000D03*
D13*
G04 #@! TO.P,D41,1*
G04 #@! TO.N,Net-(D40-Pad3)*
X105250000Y-113825000D03*
G04 #@! TD*
G04 #@! TO.P,D42,1*
G04 #@! TO.N,Net-(D41-Pad3)*
X105250000Y-96325000D03*
D12*
G04 #@! TO.P,D42,2*
G04 #@! TO.N,Net-(D37-Pad2)*
X105250000Y-95350000D03*
D11*
G04 #@! TO.P,D42,3*
G04 #@! TO.N,Net-(D42-Pad3)*
X105250000Y-94475000D03*
D10*
G04 #@! TO.P,D42,4*
G04 #@! TO.N,Net-(D37-Pad4)*
X105250000Y-93650000D03*
G04 #@! TD*
D13*
G04 #@! TO.P,D43,1*
G04 #@! TO.N,Net-(D43-Pad1)*
X107750000Y-126825000D03*
D12*
G04 #@! TO.P,D43,2*
G04 #@! TO.N,Net-(D37-Pad2)*
X107750000Y-125850000D03*
D11*
G04 #@! TO.P,D43,3*
G04 #@! TO.N,Net-(D43-Pad3)*
X107750000Y-124975000D03*
D10*
G04 #@! TO.P,D43,4*
G04 #@! TO.N,Net-(D37-Pad4)*
X107750000Y-124150000D03*
G04 #@! TD*
G04 #@! TO.P,D44,4*
G04 #@! TO.N,Net-(D37-Pad4)*
X107750000Y-106150000D03*
D11*
G04 #@! TO.P,D44,3*
G04 #@! TO.N,Net-(D44-Pad3)*
X107750000Y-106975000D03*
D12*
G04 #@! TO.P,D44,2*
G04 #@! TO.N,Net-(D37-Pad2)*
X107750000Y-107850000D03*
D13*
G04 #@! TO.P,D44,1*
G04 #@! TO.N,Net-(D43-Pad3)*
X107750000Y-108825000D03*
G04 #@! TD*
G04 #@! TO.P,D45,1*
G04 #@! TO.N,Net-(D44-Pad3)*
X107750000Y-91325000D03*
D12*
G04 #@! TO.P,D45,2*
G04 #@! TO.N,Net-(D37-Pad2)*
X107750000Y-90350000D03*
D11*
G04 #@! TO.P,D45,3*
G04 #@! TO.N,Net-(D45-Pad3)*
X107750000Y-89475000D03*
D10*
G04 #@! TO.P,D45,4*
G04 #@! TO.N,Net-(D37-Pad4)*
X107750000Y-88650000D03*
G04 #@! TD*
G04 #@! TO.P,D46,4*
G04 #@! TO.N,Net-(D37-Pad4)*
X110250000Y-128650000D03*
D11*
G04 #@! TO.P,D46,3*
G04 #@! TO.N,Net-(D46-Pad3)*
X110250000Y-129475000D03*
D12*
G04 #@! TO.P,D46,2*
G04 #@! TO.N,Net-(D37-Pad2)*
X110250000Y-130350000D03*
D13*
G04 #@! TO.P,D46,1*
G04 #@! TO.N,Net-(D46-Pad1)*
X110250000Y-131325000D03*
G04 #@! TD*
G04 #@! TO.P,D47,1*
G04 #@! TO.N,Net-(D46-Pad3)*
X110250000Y-113825000D03*
D12*
G04 #@! TO.P,D47,2*
G04 #@! TO.N,Net-(D37-Pad2)*
X110250000Y-112850000D03*
D11*
G04 #@! TO.P,D47,3*
G04 #@! TO.N,Net-(D47-Pad3)*
X110250000Y-111975000D03*
D10*
G04 #@! TO.P,D47,4*
G04 #@! TO.N,Net-(D37-Pad4)*
X110250000Y-111150000D03*
G04 #@! TD*
G04 #@! TO.P,D48,4*
G04 #@! TO.N,Net-(D37-Pad4)*
X110250000Y-93650000D03*
D11*
G04 #@! TO.P,D48,3*
G04 #@! TO.N,Net-(D48-Pad3)*
X110250000Y-94475000D03*
D12*
G04 #@! TO.P,D48,2*
G04 #@! TO.N,Net-(D37-Pad2)*
X110250000Y-95350000D03*
D13*
G04 #@! TO.P,D48,1*
G04 #@! TO.N,Net-(D47-Pad3)*
X110250000Y-96325000D03*
G04 #@! TD*
G04 #@! TO.P,D36,1*
G04 #@! TO.N,Net-(D35-Pad3)*
X96250000Y-96325000D03*
D12*
G04 #@! TO.P,D36,2*
G04 #@! TO.N,Net-(D25-Pad2)*
X96250000Y-95350000D03*
D11*
G04 #@! TO.P,D36,3*
G04 #@! TO.N,Net-(D36-Pad3)*
X96250000Y-94475000D03*
D10*
G04 #@! TO.P,D36,4*
G04 #@! TO.N,Net-(D25-Pad4)*
X96250000Y-93650000D03*
G04 #@! TD*
G04 #@! TO.P,D35,4*
G04 #@! TO.N,Net-(D25-Pad4)*
X96250000Y-111150000D03*
D11*
G04 #@! TO.P,D35,3*
G04 #@! TO.N,Net-(D35-Pad3)*
X96250000Y-111975000D03*
D12*
G04 #@! TO.P,D35,2*
G04 #@! TO.N,Net-(D25-Pad2)*
X96250000Y-112850000D03*
D13*
G04 #@! TO.P,D35,1*
G04 #@! TO.N,Net-(D34-Pad3)*
X96250000Y-113825000D03*
G04 #@! TD*
G04 #@! TO.P,D34,1*
G04 #@! TO.N,Net-(D34-Pad1)*
X96250000Y-131325000D03*
D12*
G04 #@! TO.P,D34,2*
G04 #@! TO.N,Net-(D25-Pad2)*
X96250000Y-130350000D03*
D11*
G04 #@! TO.P,D34,3*
G04 #@! TO.N,Net-(D34-Pad3)*
X96250000Y-129475000D03*
D10*
G04 #@! TO.P,D34,4*
G04 #@! TO.N,Net-(D25-Pad4)*
X96250000Y-128650000D03*
G04 #@! TD*
G04 #@! TO.P,D33,4*
G04 #@! TO.N,Net-(D25-Pad4)*
X93750000Y-88650000D03*
D11*
G04 #@! TO.P,D33,3*
G04 #@! TO.N,Net-(D33-Pad3)*
X93750000Y-89475000D03*
D12*
G04 #@! TO.P,D33,2*
G04 #@! TO.N,Net-(D25-Pad2)*
X93750000Y-90350000D03*
D13*
G04 #@! TO.P,D33,1*
G04 #@! TO.N,Net-(D32-Pad3)*
X93750000Y-91325000D03*
G04 #@! TD*
G04 #@! TO.P,D32,1*
G04 #@! TO.N,Net-(D31-Pad3)*
X93750000Y-108825000D03*
D12*
G04 #@! TO.P,D32,2*
G04 #@! TO.N,Net-(D25-Pad2)*
X93750000Y-107850000D03*
D11*
G04 #@! TO.P,D32,3*
G04 #@! TO.N,Net-(D32-Pad3)*
X93750000Y-106975000D03*
D10*
G04 #@! TO.P,D32,4*
G04 #@! TO.N,Net-(D25-Pad4)*
X93750000Y-106150000D03*
G04 #@! TD*
G04 #@! TO.P,D31,4*
G04 #@! TO.N,Net-(D25-Pad4)*
X93750000Y-124150000D03*
D11*
G04 #@! TO.P,D31,3*
G04 #@! TO.N,Net-(D31-Pad3)*
X93750000Y-124975000D03*
D12*
G04 #@! TO.P,D31,2*
G04 #@! TO.N,Net-(D25-Pad2)*
X93750000Y-125850000D03*
D13*
G04 #@! TO.P,D31,1*
G04 #@! TO.N,Net-(D31-Pad1)*
X93750000Y-126825000D03*
G04 #@! TD*
D10*
G04 #@! TO.P,D30,4*
G04 #@! TO.N,Net-(D25-Pad4)*
X91250000Y-93650000D03*
D11*
G04 #@! TO.P,D30,3*
G04 #@! TO.N,Net-(D30-Pad3)*
X91250000Y-94475000D03*
D12*
G04 #@! TO.P,D30,2*
G04 #@! TO.N,Net-(D25-Pad2)*
X91250000Y-95350000D03*
D13*
G04 #@! TO.P,D30,1*
G04 #@! TO.N,Net-(D29-Pad3)*
X91250000Y-96325000D03*
G04 #@! TD*
G04 #@! TO.P,D29,1*
G04 #@! TO.N,Net-(D28-Pad3)*
X91250000Y-113825000D03*
D12*
G04 #@! TO.P,D29,2*
G04 #@! TO.N,Net-(D25-Pad2)*
X91250000Y-112850000D03*
D11*
G04 #@! TO.P,D29,3*
G04 #@! TO.N,Net-(D29-Pad3)*
X91250000Y-111975000D03*
D10*
G04 #@! TO.P,D29,4*
G04 #@! TO.N,Net-(D25-Pad4)*
X91250000Y-111150000D03*
G04 #@! TD*
G04 #@! TO.P,D28,4*
G04 #@! TO.N,Net-(D25-Pad4)*
X91250000Y-128650000D03*
D11*
G04 #@! TO.P,D28,3*
G04 #@! TO.N,Net-(D28-Pad3)*
X91250000Y-129475000D03*
D12*
G04 #@! TO.P,D28,2*
G04 #@! TO.N,Net-(D25-Pad2)*
X91250000Y-130350000D03*
D13*
G04 #@! TO.P,D28,1*
G04 #@! TO.N,Net-(D28-Pad1)*
X91250000Y-131325000D03*
G04 #@! TD*
G04 #@! TO.P,D27,1*
G04 #@! TO.N,Net-(D26-Pad3)*
X88750000Y-91325000D03*
D12*
G04 #@! TO.P,D27,2*
G04 #@! TO.N,Net-(D25-Pad2)*
X88750000Y-90350000D03*
D11*
G04 #@! TO.P,D27,3*
G04 #@! TO.N,Net-(D27-Pad3)*
X88750000Y-89475000D03*
D10*
G04 #@! TO.P,D27,4*
G04 #@! TO.N,Net-(D25-Pad4)*
X88750000Y-88650000D03*
G04 #@! TD*
G04 #@! TO.P,D26,4*
G04 #@! TO.N,Net-(D25-Pad4)*
X88750000Y-106150000D03*
D11*
G04 #@! TO.P,D26,3*
G04 #@! TO.N,Net-(D26-Pad3)*
X88750000Y-106975000D03*
D12*
G04 #@! TO.P,D26,2*
G04 #@! TO.N,Net-(D25-Pad2)*
X88750000Y-107850000D03*
D13*
G04 #@! TO.P,D26,1*
G04 #@! TO.N,Net-(D25-Pad3)*
X88750000Y-108825000D03*
G04 #@! TD*
G04 #@! TO.P,D25,1*
G04 #@! TO.N,Net-(D25-Pad1)*
X88750000Y-126825000D03*
D12*
G04 #@! TO.P,D25,2*
G04 #@! TO.N,Net-(D25-Pad2)*
X88750000Y-125850000D03*
D11*
G04 #@! TO.P,D25,3*
G04 #@! TO.N,Net-(D25-Pad3)*
X88750000Y-124975000D03*
D10*
G04 #@! TO.P,D25,4*
G04 #@! TO.N,Net-(D25-Pad4)*
X88750000Y-124150000D03*
G04 #@! TD*
D13*
G04 #@! TO.P,D24,1*
G04 #@! TO.N,Net-(D23-Pad3)*
X82250000Y-86325000D03*
D12*
G04 #@! TO.P,D24,2*
G04 #@! TO.N,Net-(D13-Pad2)*
X82250000Y-85350000D03*
D11*
G04 #@! TO.P,D24,3*
G04 #@! TO.N,Net-(D24-Pad3)*
X82250000Y-84475000D03*
D10*
G04 #@! TO.P,D24,4*
G04 #@! TO.N,Net-(D13-Pad4)*
X82250000Y-83650000D03*
G04 #@! TD*
G04 #@! TO.P,D23,4*
G04 #@! TO.N,Net-(D13-Pad4)*
X82250000Y-106150000D03*
D11*
G04 #@! TO.P,D23,3*
G04 #@! TO.N,Net-(D23-Pad3)*
X82250000Y-106975000D03*
D12*
G04 #@! TO.P,D23,2*
G04 #@! TO.N,Net-(D13-Pad2)*
X82250000Y-107850000D03*
D13*
G04 #@! TO.P,D23,1*
G04 #@! TO.N,Net-(D22-Pad3)*
X82250000Y-108825000D03*
G04 #@! TD*
G04 #@! TO.P,D22,1*
G04 #@! TO.N,Net-(D22-Pad1)*
X82250000Y-131325000D03*
D12*
G04 #@! TO.P,D22,2*
G04 #@! TO.N,Net-(D13-Pad2)*
X82250000Y-130350000D03*
D11*
G04 #@! TO.P,D22,3*
G04 #@! TO.N,Net-(D22-Pad3)*
X82250000Y-129475000D03*
D10*
G04 #@! TO.P,D22,4*
G04 #@! TO.N,Net-(D13-Pad4)*
X82250000Y-128650000D03*
G04 #@! TD*
G04 #@! TO.P,D21,4*
G04 #@! TO.N,Net-(D13-Pad4)*
X79750000Y-78650000D03*
D11*
G04 #@! TO.P,D21,3*
G04 #@! TO.N,Net-(D21-Pad3)*
X79750000Y-79475000D03*
D12*
G04 #@! TO.P,D21,2*
G04 #@! TO.N,Net-(D13-Pad2)*
X79750000Y-80350000D03*
D13*
G04 #@! TO.P,D21,1*
G04 #@! TO.N,Net-(D20-Pad3)*
X79750000Y-81325000D03*
G04 #@! TD*
G04 #@! TO.P,D20,1*
G04 #@! TO.N,Net-(D19-Pad3)*
X79750000Y-103825000D03*
D12*
G04 #@! TO.P,D20,2*
G04 #@! TO.N,Net-(D13-Pad2)*
X79750000Y-102850000D03*
D11*
G04 #@! TO.P,D20,3*
G04 #@! TO.N,Net-(D20-Pad3)*
X79750000Y-101975000D03*
D10*
G04 #@! TO.P,D20,4*
G04 #@! TO.N,Net-(D13-Pad4)*
X79750000Y-101150000D03*
G04 #@! TD*
G04 #@! TO.P,D19,4*
G04 #@! TO.N,Net-(D13-Pad4)*
X79750000Y-124150000D03*
D11*
G04 #@! TO.P,D19,3*
G04 #@! TO.N,Net-(D19-Pad3)*
X79750000Y-124975000D03*
D12*
G04 #@! TO.P,D19,2*
G04 #@! TO.N,Net-(D13-Pad2)*
X79750000Y-125850000D03*
D13*
G04 #@! TO.P,D19,1*
G04 #@! TO.N,Net-(D19-Pad1)*
X79750000Y-126825000D03*
G04 #@! TD*
D10*
G04 #@! TO.P,D18,4*
G04 #@! TO.N,Net-(D13-Pad4)*
X77250000Y-83650000D03*
D11*
G04 #@! TO.P,D18,3*
G04 #@! TO.N,Net-(D18-Pad3)*
X77250000Y-84475000D03*
D12*
G04 #@! TO.P,D18,2*
G04 #@! TO.N,Net-(D13-Pad2)*
X77250000Y-85350000D03*
D13*
G04 #@! TO.P,D18,1*
G04 #@! TO.N,Net-(D17-Pad3)*
X77250000Y-86325000D03*
G04 #@! TD*
G04 #@! TO.P,D17,1*
G04 #@! TO.N,Net-(D16-Pad3)*
X77250000Y-108825000D03*
D12*
G04 #@! TO.P,D17,2*
G04 #@! TO.N,Net-(D13-Pad2)*
X77250000Y-107850000D03*
D11*
G04 #@! TO.P,D17,3*
G04 #@! TO.N,Net-(D17-Pad3)*
X77250000Y-106975000D03*
D10*
G04 #@! TO.P,D17,4*
G04 #@! TO.N,Net-(D13-Pad4)*
X77250000Y-106150000D03*
G04 #@! TD*
G04 #@! TO.P,D16,4*
G04 #@! TO.N,Net-(D13-Pad4)*
X77250000Y-128650000D03*
D11*
G04 #@! TO.P,D16,3*
G04 #@! TO.N,Net-(D16-Pad3)*
X77250000Y-129475000D03*
D12*
G04 #@! TO.P,D16,2*
G04 #@! TO.N,Net-(D13-Pad2)*
X77250000Y-130350000D03*
D13*
G04 #@! TO.P,D16,1*
G04 #@! TO.N,Net-(D16-Pad1)*
X77250000Y-131325000D03*
G04 #@! TD*
G04 #@! TO.P,D15,1*
G04 #@! TO.N,Net-(D14-Pad3)*
X74750000Y-81325000D03*
D12*
G04 #@! TO.P,D15,2*
G04 #@! TO.N,Net-(D13-Pad2)*
X74750000Y-80350000D03*
D11*
G04 #@! TO.P,D15,3*
G04 #@! TO.N,Net-(D15-Pad3)*
X74750000Y-79475000D03*
D10*
G04 #@! TO.P,D15,4*
G04 #@! TO.N,Net-(D13-Pad4)*
X74750000Y-78650000D03*
G04 #@! TD*
G04 #@! TO.P,D14,4*
G04 #@! TO.N,Net-(D13-Pad4)*
X74750000Y-101150000D03*
D11*
G04 #@! TO.P,D14,3*
G04 #@! TO.N,Net-(D14-Pad3)*
X74750000Y-101975000D03*
D12*
G04 #@! TO.P,D14,2*
G04 #@! TO.N,Net-(D13-Pad2)*
X74750000Y-102850000D03*
D13*
G04 #@! TO.P,D14,1*
G04 #@! TO.N,Net-(D13-Pad3)*
X74750000Y-103825000D03*
G04 #@! TD*
G04 #@! TO.P,D13,1*
G04 #@! TO.N,Net-(D13-Pad1)*
X74750000Y-126825000D03*
D12*
G04 #@! TO.P,D13,2*
G04 #@! TO.N,Net-(D13-Pad2)*
X74750000Y-125850000D03*
D11*
G04 #@! TO.P,D13,3*
G04 #@! TO.N,Net-(D13-Pad3)*
X74750000Y-124975000D03*
D10*
G04 #@! TO.P,D13,4*
G04 #@! TO.N,Net-(D13-Pad4)*
X74750000Y-124150000D03*
G04 #@! TD*
D14*
G04 #@! TO.N,Net-(C4-Pad1)*
G04 #@! TO.C,C7*
G36*
X63760779Y-58851144D02*
X63783834Y-58854563D01*
X63806443Y-58860227D01*
X63828387Y-58868079D01*
X63849457Y-58878044D01*
X63869448Y-58890026D01*
X63888168Y-58903910D01*
X63905438Y-58919562D01*
X63921090Y-58936832D01*
X63934974Y-58955552D01*
X63946956Y-58975543D01*
X63956921Y-58996613D01*
X63964773Y-59018557D01*
X63970437Y-59041166D01*
X63973856Y-59064221D01*
X63975000Y-59087500D01*
X63975000Y-59662500D01*
X63973856Y-59685779D01*
X63970437Y-59708834D01*
X63964773Y-59731443D01*
X63956921Y-59753387D01*
X63946956Y-59774457D01*
X63934974Y-59794448D01*
X63921090Y-59813168D01*
X63905438Y-59830438D01*
X63888168Y-59846090D01*
X63869448Y-59859974D01*
X63849457Y-59871956D01*
X63828387Y-59881921D01*
X63806443Y-59889773D01*
X63783834Y-59895437D01*
X63760779Y-59898856D01*
X63737500Y-59900000D01*
X63262500Y-59900000D01*
X63239221Y-59898856D01*
X63216166Y-59895437D01*
X63193557Y-59889773D01*
X63171613Y-59881921D01*
X63150543Y-59871956D01*
X63130552Y-59859974D01*
X63111832Y-59846090D01*
X63094562Y-59830438D01*
X63078910Y-59813168D01*
X63065026Y-59794448D01*
X63053044Y-59774457D01*
X63043079Y-59753387D01*
X63035227Y-59731443D01*
X63029563Y-59708834D01*
X63026144Y-59685779D01*
X63025000Y-59662500D01*
X63025000Y-59087500D01*
X63026144Y-59064221D01*
X63029563Y-59041166D01*
X63035227Y-59018557D01*
X63043079Y-58996613D01*
X63053044Y-58975543D01*
X63065026Y-58955552D01*
X63078910Y-58936832D01*
X63094562Y-58919562D01*
X63111832Y-58903910D01*
X63130552Y-58890026D01*
X63150543Y-58878044D01*
X63171613Y-58868079D01*
X63193557Y-58860227D01*
X63216166Y-58854563D01*
X63239221Y-58851144D01*
X63262500Y-58850000D01*
X63737500Y-58850000D01*
X63760779Y-58851144D01*
X63760779Y-58851144D01*
G37*
D15*
G04 #@! TD*
G04 #@! TO.P,C7,1*
G04 #@! TO.N,Net-(C4-Pad1)*
X63500000Y-59375000D03*
D14*
G04 #@! TO.N,GNDD*
G04 #@! TO.C,C7*
G36*
X63760779Y-57101144D02*
X63783834Y-57104563D01*
X63806443Y-57110227D01*
X63828387Y-57118079D01*
X63849457Y-57128044D01*
X63869448Y-57140026D01*
X63888168Y-57153910D01*
X63905438Y-57169562D01*
X63921090Y-57186832D01*
X63934974Y-57205552D01*
X63946956Y-57225543D01*
X63956921Y-57246613D01*
X63964773Y-57268557D01*
X63970437Y-57291166D01*
X63973856Y-57314221D01*
X63975000Y-57337500D01*
X63975000Y-57912500D01*
X63973856Y-57935779D01*
X63970437Y-57958834D01*
X63964773Y-57981443D01*
X63956921Y-58003387D01*
X63946956Y-58024457D01*
X63934974Y-58044448D01*
X63921090Y-58063168D01*
X63905438Y-58080438D01*
X63888168Y-58096090D01*
X63869448Y-58109974D01*
X63849457Y-58121956D01*
X63828387Y-58131921D01*
X63806443Y-58139773D01*
X63783834Y-58145437D01*
X63760779Y-58148856D01*
X63737500Y-58150000D01*
X63262500Y-58150000D01*
X63239221Y-58148856D01*
X63216166Y-58145437D01*
X63193557Y-58139773D01*
X63171613Y-58131921D01*
X63150543Y-58121956D01*
X63130552Y-58109974D01*
X63111832Y-58096090D01*
X63094562Y-58080438D01*
X63078910Y-58063168D01*
X63065026Y-58044448D01*
X63053044Y-58024457D01*
X63043079Y-58003387D01*
X63035227Y-57981443D01*
X63029563Y-57958834D01*
X63026144Y-57935779D01*
X63025000Y-57912500D01*
X63025000Y-57337500D01*
X63026144Y-57314221D01*
X63029563Y-57291166D01*
X63035227Y-57268557D01*
X63043079Y-57246613D01*
X63053044Y-57225543D01*
X63065026Y-57205552D01*
X63078910Y-57186832D01*
X63094562Y-57169562D01*
X63111832Y-57153910D01*
X63130552Y-57140026D01*
X63150543Y-57128044D01*
X63171613Y-57118079D01*
X63193557Y-57110227D01*
X63216166Y-57104563D01*
X63239221Y-57101144D01*
X63262500Y-57100000D01*
X63737500Y-57100000D01*
X63760779Y-57101144D01*
X63760779Y-57101144D01*
G37*
D15*
G04 #@! TD*
G04 #@! TO.P,C7,2*
G04 #@! TO.N,GNDD*
X63500000Y-57625000D03*
D14*
G04 #@! TO.N,GNDD*
G04 #@! TO.C,C6*
G36*
X75760779Y-59101144D02*
X75783834Y-59104563D01*
X75806443Y-59110227D01*
X75828387Y-59118079D01*
X75849457Y-59128044D01*
X75869448Y-59140026D01*
X75888168Y-59153910D01*
X75905438Y-59169562D01*
X75921090Y-59186832D01*
X75934974Y-59205552D01*
X75946956Y-59225543D01*
X75956921Y-59246613D01*
X75964773Y-59268557D01*
X75970437Y-59291166D01*
X75973856Y-59314221D01*
X75975000Y-59337500D01*
X75975000Y-59912500D01*
X75973856Y-59935779D01*
X75970437Y-59958834D01*
X75964773Y-59981443D01*
X75956921Y-60003387D01*
X75946956Y-60024457D01*
X75934974Y-60044448D01*
X75921090Y-60063168D01*
X75905438Y-60080438D01*
X75888168Y-60096090D01*
X75869448Y-60109974D01*
X75849457Y-60121956D01*
X75828387Y-60131921D01*
X75806443Y-60139773D01*
X75783834Y-60145437D01*
X75760779Y-60148856D01*
X75737500Y-60150000D01*
X75262500Y-60150000D01*
X75239221Y-60148856D01*
X75216166Y-60145437D01*
X75193557Y-60139773D01*
X75171613Y-60131921D01*
X75150543Y-60121956D01*
X75130552Y-60109974D01*
X75111832Y-60096090D01*
X75094562Y-60080438D01*
X75078910Y-60063168D01*
X75065026Y-60044448D01*
X75053044Y-60024457D01*
X75043079Y-60003387D01*
X75035227Y-59981443D01*
X75029563Y-59958834D01*
X75026144Y-59935779D01*
X75025000Y-59912500D01*
X75025000Y-59337500D01*
X75026144Y-59314221D01*
X75029563Y-59291166D01*
X75035227Y-59268557D01*
X75043079Y-59246613D01*
X75053044Y-59225543D01*
X75065026Y-59205552D01*
X75078910Y-59186832D01*
X75094562Y-59169562D01*
X75111832Y-59153910D01*
X75130552Y-59140026D01*
X75150543Y-59128044D01*
X75171613Y-59118079D01*
X75193557Y-59110227D01*
X75216166Y-59104563D01*
X75239221Y-59101144D01*
X75262500Y-59100000D01*
X75737500Y-59100000D01*
X75760779Y-59101144D01*
X75760779Y-59101144D01*
G37*
D15*
G04 #@! TD*
G04 #@! TO.P,C6,2*
G04 #@! TO.N,GNDD*
X75500000Y-59625000D03*
D14*
G04 #@! TO.N,Net-(C3-Pad1)*
G04 #@! TO.C,C6*
G36*
X75760779Y-57351144D02*
X75783834Y-57354563D01*
X75806443Y-57360227D01*
X75828387Y-57368079D01*
X75849457Y-57378044D01*
X75869448Y-57390026D01*
X75888168Y-57403910D01*
X75905438Y-57419562D01*
X75921090Y-57436832D01*
X75934974Y-57455552D01*
X75946956Y-57475543D01*
X75956921Y-57496613D01*
X75964773Y-57518557D01*
X75970437Y-57541166D01*
X75973856Y-57564221D01*
X75975000Y-57587500D01*
X75975000Y-58162500D01*
X75973856Y-58185779D01*
X75970437Y-58208834D01*
X75964773Y-58231443D01*
X75956921Y-58253387D01*
X75946956Y-58274457D01*
X75934974Y-58294448D01*
X75921090Y-58313168D01*
X75905438Y-58330438D01*
X75888168Y-58346090D01*
X75869448Y-58359974D01*
X75849457Y-58371956D01*
X75828387Y-58381921D01*
X75806443Y-58389773D01*
X75783834Y-58395437D01*
X75760779Y-58398856D01*
X75737500Y-58400000D01*
X75262500Y-58400000D01*
X75239221Y-58398856D01*
X75216166Y-58395437D01*
X75193557Y-58389773D01*
X75171613Y-58381921D01*
X75150543Y-58371956D01*
X75130552Y-58359974D01*
X75111832Y-58346090D01*
X75094562Y-58330438D01*
X75078910Y-58313168D01*
X75065026Y-58294448D01*
X75053044Y-58274457D01*
X75043079Y-58253387D01*
X75035227Y-58231443D01*
X75029563Y-58208834D01*
X75026144Y-58185779D01*
X75025000Y-58162500D01*
X75025000Y-57587500D01*
X75026144Y-57564221D01*
X75029563Y-57541166D01*
X75035227Y-57518557D01*
X75043079Y-57496613D01*
X75053044Y-57475543D01*
X75065026Y-57455552D01*
X75078910Y-57436832D01*
X75094562Y-57419562D01*
X75111832Y-57403910D01*
X75130552Y-57390026D01*
X75150543Y-57378044D01*
X75171613Y-57368079D01*
X75193557Y-57360227D01*
X75216166Y-57354563D01*
X75239221Y-57351144D01*
X75262500Y-57350000D01*
X75737500Y-57350000D01*
X75760779Y-57351144D01*
X75760779Y-57351144D01*
G37*
D15*
G04 #@! TD*
G04 #@! TO.P,C6,1*
G04 #@! TO.N,Net-(C3-Pad1)*
X75500000Y-57875000D03*
D16*
G04 #@! TO.P,J12,1*
G04 #@! TO.N,Net-(C3-Pad1)*
X78000000Y-57500000D03*
D17*
G04 #@! TO.P,J12,2*
G04 #@! TO.N,GNDD*
X78000000Y-60000000D03*
G04 #@! TD*
G04 #@! TO.P,J13,2*
G04 #@! TO.N,GNDD*
X61000000Y-57250000D03*
D16*
G04 #@! TO.P,J13,1*
G04 #@! TO.N,Net-(C4-Pad1)*
X61000000Y-59750000D03*
G04 #@! TD*
D18*
G04 #@! TO.P,U3,11*
G04 #@! TO.N,GNDD*
X70500000Y-57000000D03*
X69000000Y-57000000D03*
X69000000Y-56000000D03*
X69750000Y-56500000D03*
X70500000Y-56000000D03*
D19*
G04 #@! TO.P,U3,10*
G04 #@! TO.N,Net-(C4-Pad1)*
X68750000Y-55025000D03*
G04 #@! TO.P,U3,9*
G04 #@! TO.N,GNDD*
X69250000Y-55025000D03*
G04 #@! TO.P,U3,8*
G04 #@! TO.N,Net-(C3-Pad1)*
X69750000Y-55025000D03*
D20*
G04 #@! TO.P,U3,7*
X70250000Y-54740000D03*
G04 #@! TO.P,U3,6*
G04 #@! TO.N,Net-(JP1-Pad2)*
X70750000Y-54740000D03*
D19*
G04 #@! TO.P,U3,5*
G04 #@! TO.N,Net-(C3-Pad1)*
X70750000Y-57975000D03*
D20*
G04 #@! TO.P,U3,4*
G04 #@! TO.N,Net-(L1-Pad1)*
X70250000Y-58260000D03*
D19*
G04 #@! TO.P,U3,3*
G04 #@! TO.N,GNDD*
X69750000Y-57975000D03*
D20*
G04 #@! TO.P,U3,2*
G04 #@! TO.N,Net-(L1-Pad2)*
X69250000Y-58260000D03*
G04 #@! TO.P,U3,1*
G04 #@! TO.N,Net-(C4-Pad1)*
X68750000Y-58260000D03*
D21*
G04 #@! TO.P,U3,11*
G04 #@! TO.N,GNDD*
X69750000Y-56500000D03*
D22*
X70385000Y-56050000D03*
X70385000Y-56950000D03*
X69115000Y-56050000D03*
D23*
X71380000Y-56250000D03*
X71380000Y-56750000D03*
X68120000Y-56250000D03*
D24*
X71300000Y-56250000D03*
X71300000Y-56750000D03*
X68200000Y-56250000D03*
D23*
X68120000Y-56750000D03*
D24*
X68200000Y-56750000D03*
D22*
X69115000Y-56950000D03*
D20*
G04 #@! TO.P,U3,10*
G04 #@! TO.N,Net-(C4-Pad1)*
X68750000Y-54740000D03*
G04 #@! TO.P,U3,9*
G04 #@! TO.N,GNDD*
X69250000Y-54740000D03*
G04 #@! TO.P,U3,8*
G04 #@! TO.N,Net-(C3-Pad1)*
X69750000Y-54740000D03*
D19*
G04 #@! TO.P,U3,7*
X70250000Y-55025000D03*
G04 #@! TO.P,U3,6*
G04 #@! TO.N,Net-(JP1-Pad2)*
X70750000Y-55025000D03*
D20*
G04 #@! TO.P,U3,5*
G04 #@! TO.N,Net-(C3-Pad1)*
X70750000Y-58260000D03*
D19*
G04 #@! TO.P,U3,4*
G04 #@! TO.N,Net-(L1-Pad1)*
X70250000Y-57975000D03*
D20*
G04 #@! TO.P,U3,3*
G04 #@! TO.N,GNDD*
X69750000Y-58260000D03*
D19*
G04 #@! TO.P,U3,2*
G04 #@! TO.N,Net-(L1-Pad2)*
X69250000Y-57975000D03*
G04 #@! TO.P,U3,1*
G04 #@! TO.N,Net-(C4-Pad1)*
X68750000Y-57975000D03*
G04 #@! TD*
D14*
G04 #@! TO.N,Net-(C3-Pad1)*
G04 #@! TO.C,C3*
G36*
X73974505Y-57151204D02*
X73998773Y-57154804D01*
X74022572Y-57160765D01*
X74045671Y-57169030D01*
X74067850Y-57179520D01*
X74088893Y-57192132D01*
X74108599Y-57206747D01*
X74126777Y-57223223D01*
X74143253Y-57241401D01*
X74157868Y-57261107D01*
X74170480Y-57282150D01*
X74180970Y-57304329D01*
X74189235Y-57327428D01*
X74195196Y-57351227D01*
X74198796Y-57375495D01*
X74200000Y-57399999D01*
X74200000Y-58050001D01*
X74198796Y-58074505D01*
X74195196Y-58098773D01*
X74189235Y-58122572D01*
X74180970Y-58145671D01*
X74170480Y-58167850D01*
X74157868Y-58188893D01*
X74143253Y-58208599D01*
X74126777Y-58226777D01*
X74108599Y-58243253D01*
X74088893Y-58257868D01*
X74067850Y-58270480D01*
X74045671Y-58280970D01*
X74022572Y-58289235D01*
X73998773Y-58295196D01*
X73974505Y-58298796D01*
X73950001Y-58300000D01*
X73049999Y-58300000D01*
X73025495Y-58298796D01*
X73001227Y-58295196D01*
X72977428Y-58289235D01*
X72954329Y-58280970D01*
X72932150Y-58270480D01*
X72911107Y-58257868D01*
X72891401Y-58243253D01*
X72873223Y-58226777D01*
X72856747Y-58208599D01*
X72842132Y-58188893D01*
X72829520Y-58167850D01*
X72819030Y-58145671D01*
X72810765Y-58122572D01*
X72804804Y-58098773D01*
X72801204Y-58074505D01*
X72800000Y-58050001D01*
X72800000Y-57399999D01*
X72801204Y-57375495D01*
X72804804Y-57351227D01*
X72810765Y-57327428D01*
X72819030Y-57304329D01*
X72829520Y-57282150D01*
X72842132Y-57261107D01*
X72856747Y-57241401D01*
X72873223Y-57223223D01*
X72891401Y-57206747D01*
X72911107Y-57192132D01*
X72932150Y-57179520D01*
X72954329Y-57169030D01*
X72977428Y-57160765D01*
X73001227Y-57154804D01*
X73025495Y-57151204D01*
X73049999Y-57150000D01*
X73950001Y-57150000D01*
X73974505Y-57151204D01*
X73974505Y-57151204D01*
G37*
D25*
G04 #@! TD*
G04 #@! TO.P,C3,1*
G04 #@! TO.N,Net-(C3-Pad1)*
X73500000Y-57725000D03*
D14*
G04 #@! TO.N,GNDD*
G04 #@! TO.C,C3*
G36*
X73974505Y-59201204D02*
X73998773Y-59204804D01*
X74022572Y-59210765D01*
X74045671Y-59219030D01*
X74067850Y-59229520D01*
X74088893Y-59242132D01*
X74108599Y-59256747D01*
X74126777Y-59273223D01*
X74143253Y-59291401D01*
X74157868Y-59311107D01*
X74170480Y-59332150D01*
X74180970Y-59354329D01*
X74189235Y-59377428D01*
X74195196Y-59401227D01*
X74198796Y-59425495D01*
X74200000Y-59449999D01*
X74200000Y-60100001D01*
X74198796Y-60124505D01*
X74195196Y-60148773D01*
X74189235Y-60172572D01*
X74180970Y-60195671D01*
X74170480Y-60217850D01*
X74157868Y-60238893D01*
X74143253Y-60258599D01*
X74126777Y-60276777D01*
X74108599Y-60293253D01*
X74088893Y-60307868D01*
X74067850Y-60320480D01*
X74045671Y-60330970D01*
X74022572Y-60339235D01*
X73998773Y-60345196D01*
X73974505Y-60348796D01*
X73950001Y-60350000D01*
X73049999Y-60350000D01*
X73025495Y-60348796D01*
X73001227Y-60345196D01*
X72977428Y-60339235D01*
X72954329Y-60330970D01*
X72932150Y-60320480D01*
X72911107Y-60307868D01*
X72891401Y-60293253D01*
X72873223Y-60276777D01*
X72856747Y-60258599D01*
X72842132Y-60238893D01*
X72829520Y-60217850D01*
X72819030Y-60195671D01*
X72810765Y-60172572D01*
X72804804Y-60148773D01*
X72801204Y-60124505D01*
X72800000Y-60100001D01*
X72800000Y-59449999D01*
X72801204Y-59425495D01*
X72804804Y-59401227D01*
X72810765Y-59377428D01*
X72819030Y-59354329D01*
X72829520Y-59332150D01*
X72842132Y-59311107D01*
X72856747Y-59291401D01*
X72873223Y-59273223D01*
X72891401Y-59256747D01*
X72911107Y-59242132D01*
X72932150Y-59229520D01*
X72954329Y-59219030D01*
X72977428Y-59210765D01*
X73001227Y-59204804D01*
X73025495Y-59201204D01*
X73049999Y-59200000D01*
X73950001Y-59200000D01*
X73974505Y-59201204D01*
X73974505Y-59201204D01*
G37*
D25*
G04 #@! TD*
G04 #@! TO.P,C3,2*
G04 #@! TO.N,GNDD*
X73500000Y-59775000D03*
D14*
G04 #@! TO.N,GNDD*
G04 #@! TO.C,C4*
G36*
X65974505Y-56901204D02*
X65998773Y-56904804D01*
X66022572Y-56910765D01*
X66045671Y-56919030D01*
X66067850Y-56929520D01*
X66088893Y-56942132D01*
X66108599Y-56956747D01*
X66126777Y-56973223D01*
X66143253Y-56991401D01*
X66157868Y-57011107D01*
X66170480Y-57032150D01*
X66180970Y-57054329D01*
X66189235Y-57077428D01*
X66195196Y-57101227D01*
X66198796Y-57125495D01*
X66200000Y-57149999D01*
X66200000Y-57800001D01*
X66198796Y-57824505D01*
X66195196Y-57848773D01*
X66189235Y-57872572D01*
X66180970Y-57895671D01*
X66170480Y-57917850D01*
X66157868Y-57938893D01*
X66143253Y-57958599D01*
X66126777Y-57976777D01*
X66108599Y-57993253D01*
X66088893Y-58007868D01*
X66067850Y-58020480D01*
X66045671Y-58030970D01*
X66022572Y-58039235D01*
X65998773Y-58045196D01*
X65974505Y-58048796D01*
X65950001Y-58050000D01*
X65049999Y-58050000D01*
X65025495Y-58048796D01*
X65001227Y-58045196D01*
X64977428Y-58039235D01*
X64954329Y-58030970D01*
X64932150Y-58020480D01*
X64911107Y-58007868D01*
X64891401Y-57993253D01*
X64873223Y-57976777D01*
X64856747Y-57958599D01*
X64842132Y-57938893D01*
X64829520Y-57917850D01*
X64819030Y-57895671D01*
X64810765Y-57872572D01*
X64804804Y-57848773D01*
X64801204Y-57824505D01*
X64800000Y-57800001D01*
X64800000Y-57149999D01*
X64801204Y-57125495D01*
X64804804Y-57101227D01*
X64810765Y-57077428D01*
X64819030Y-57054329D01*
X64829520Y-57032150D01*
X64842132Y-57011107D01*
X64856747Y-56991401D01*
X64873223Y-56973223D01*
X64891401Y-56956747D01*
X64911107Y-56942132D01*
X64932150Y-56929520D01*
X64954329Y-56919030D01*
X64977428Y-56910765D01*
X65001227Y-56904804D01*
X65025495Y-56901204D01*
X65049999Y-56900000D01*
X65950001Y-56900000D01*
X65974505Y-56901204D01*
X65974505Y-56901204D01*
G37*
D25*
G04 #@! TD*
G04 #@! TO.P,C4,2*
G04 #@! TO.N,GNDD*
X65500000Y-57475000D03*
D14*
G04 #@! TO.N,Net-(C4-Pad1)*
G04 #@! TO.C,C4*
G36*
X65974505Y-58951204D02*
X65998773Y-58954804D01*
X66022572Y-58960765D01*
X66045671Y-58969030D01*
X66067850Y-58979520D01*
X66088893Y-58992132D01*
X66108599Y-59006747D01*
X66126777Y-59023223D01*
X66143253Y-59041401D01*
X66157868Y-59061107D01*
X66170480Y-59082150D01*
X66180970Y-59104329D01*
X66189235Y-59127428D01*
X66195196Y-59151227D01*
X66198796Y-59175495D01*
X66200000Y-59199999D01*
X66200000Y-59850001D01*
X66198796Y-59874505D01*
X66195196Y-59898773D01*
X66189235Y-59922572D01*
X66180970Y-59945671D01*
X66170480Y-59967850D01*
X66157868Y-59988893D01*
X66143253Y-60008599D01*
X66126777Y-60026777D01*
X66108599Y-60043253D01*
X66088893Y-60057868D01*
X66067850Y-60070480D01*
X66045671Y-60080970D01*
X66022572Y-60089235D01*
X65998773Y-60095196D01*
X65974505Y-60098796D01*
X65950001Y-60100000D01*
X65049999Y-60100000D01*
X65025495Y-60098796D01*
X65001227Y-60095196D01*
X64977428Y-60089235D01*
X64954329Y-60080970D01*
X64932150Y-60070480D01*
X64911107Y-60057868D01*
X64891401Y-60043253D01*
X64873223Y-60026777D01*
X64856747Y-60008599D01*
X64842132Y-59988893D01*
X64829520Y-59967850D01*
X64819030Y-59945671D01*
X64810765Y-59922572D01*
X64804804Y-59898773D01*
X64801204Y-59874505D01*
X64800000Y-59850001D01*
X64800000Y-59199999D01*
X64801204Y-59175495D01*
X64804804Y-59151227D01*
X64810765Y-59127428D01*
X64819030Y-59104329D01*
X64829520Y-59082150D01*
X64842132Y-59061107D01*
X64856747Y-59041401D01*
X64873223Y-59023223D01*
X64891401Y-59006747D01*
X64911107Y-58992132D01*
X64932150Y-58979520D01*
X64954329Y-58969030D01*
X64977428Y-58960765D01*
X65001227Y-58954804D01*
X65025495Y-58951204D01*
X65049999Y-58950000D01*
X65950001Y-58950000D01*
X65974505Y-58951204D01*
X65974505Y-58951204D01*
G37*
D25*
G04 #@! TD*
G04 #@! TO.P,C4,1*
G04 #@! TO.N,Net-(C4-Pad1)*
X65500000Y-59525000D03*
D26*
G04 #@! TO.P,JP1,1*
G04 #@! TO.N,Net-(C3-Pad1)*
X73750000Y-52500000D03*
G04 #@! TO.P,JP1,2*
G04 #@! TO.N,Net-(JP1-Pad2)*
X75050000Y-52500000D03*
G04 #@! TD*
D27*
G04 #@! TO.P,L1,2*
G04 #@! TO.N,Net-(L1-Pad2)*
X67750000Y-62500000D03*
G04 #@! TO.P,L1,1*
G04 #@! TO.N,Net-(L1-Pad1)*
X71600000Y-62500000D03*
G04 #@! TD*
D10*
G04 #@! TO.P,D1,4*
G04 #@! TO.N,Net-(D1-Pad4)*
X60750000Y-124150000D03*
D11*
G04 #@! TO.P,D1,3*
G04 #@! TO.N,Net-(D1-Pad3)*
X60750000Y-124975000D03*
D12*
G04 #@! TO.P,D1,2*
G04 #@! TO.N,Net-(D1-Pad2)*
X60750000Y-125850000D03*
D13*
G04 #@! TO.P,D1,1*
G04 #@! TO.N,Net-(D1-Pad1)*
X60750000Y-126825000D03*
G04 #@! TD*
G04 #@! TO.P,D2,1*
G04 #@! TO.N,Net-(D1-Pad3)*
X60750000Y-103825000D03*
D12*
G04 #@! TO.P,D2,2*
G04 #@! TO.N,Net-(D1-Pad2)*
X60750000Y-102850000D03*
D11*
G04 #@! TO.P,D2,3*
G04 #@! TO.N,Net-(D2-Pad3)*
X60750000Y-101975000D03*
D10*
G04 #@! TO.P,D2,4*
G04 #@! TO.N,Net-(D1-Pad4)*
X60750000Y-101150000D03*
G04 #@! TD*
G04 #@! TO.P,D3,4*
G04 #@! TO.N,Net-(D1-Pad4)*
X60750000Y-78650000D03*
D11*
G04 #@! TO.P,D3,3*
G04 #@! TO.N,Net-(D3-Pad3)*
X60750000Y-79475000D03*
D12*
G04 #@! TO.P,D3,2*
G04 #@! TO.N,Net-(D1-Pad2)*
X60750000Y-80350000D03*
D13*
G04 #@! TO.P,D3,1*
G04 #@! TO.N,Net-(D2-Pad3)*
X60750000Y-81325000D03*
G04 #@! TD*
G04 #@! TO.P,D4,1*
G04 #@! TO.N,Net-(D4-Pad1)*
X63250000Y-131325000D03*
D12*
G04 #@! TO.P,D4,2*
G04 #@! TO.N,Net-(D1-Pad2)*
X63250000Y-130350000D03*
D11*
G04 #@! TO.P,D4,3*
G04 #@! TO.N,Net-(D4-Pad3)*
X63250000Y-129475000D03*
D10*
G04 #@! TO.P,D4,4*
G04 #@! TO.N,Net-(D1-Pad4)*
X63250000Y-128650000D03*
G04 #@! TD*
G04 #@! TO.P,D5,4*
G04 #@! TO.N,Net-(D1-Pad4)*
X63250000Y-106150000D03*
D11*
G04 #@! TO.P,D5,3*
G04 #@! TO.N,Net-(D5-Pad3)*
X63250000Y-106975000D03*
D12*
G04 #@! TO.P,D5,2*
G04 #@! TO.N,Net-(D1-Pad2)*
X63250000Y-107850000D03*
D13*
G04 #@! TO.P,D5,1*
G04 #@! TO.N,Net-(D4-Pad3)*
X63250000Y-108825000D03*
G04 #@! TD*
G04 #@! TO.P,D6,1*
G04 #@! TO.N,Net-(D5-Pad3)*
X63250000Y-86325000D03*
D12*
G04 #@! TO.P,D6,2*
G04 #@! TO.N,Net-(D1-Pad2)*
X63250000Y-85350000D03*
D11*
G04 #@! TO.P,D6,3*
G04 #@! TO.N,Net-(D6-Pad3)*
X63250000Y-84475000D03*
D10*
G04 #@! TO.P,D6,4*
G04 #@! TO.N,Net-(D1-Pad4)*
X63250000Y-83650000D03*
G04 #@! TD*
D13*
G04 #@! TO.P,D7,1*
G04 #@! TO.N,Net-(D7-Pad1)*
X65750000Y-126825000D03*
D12*
G04 #@! TO.P,D7,2*
G04 #@! TO.N,Net-(D1-Pad2)*
X65750000Y-125850000D03*
D11*
G04 #@! TO.P,D7,3*
G04 #@! TO.N,Net-(D7-Pad3)*
X65750000Y-124975000D03*
D10*
G04 #@! TO.P,D7,4*
G04 #@! TO.N,Net-(D1-Pad4)*
X65750000Y-124150000D03*
G04 #@! TD*
G04 #@! TO.P,D8,4*
G04 #@! TO.N,Net-(D1-Pad4)*
X65750000Y-101150000D03*
D11*
G04 #@! TO.P,D8,3*
G04 #@! TO.N,Net-(D8-Pad3)*
X65750000Y-101975000D03*
D12*
G04 #@! TO.P,D8,2*
G04 #@! TO.N,Net-(D1-Pad2)*
X65750000Y-102850000D03*
D13*
G04 #@! TO.P,D8,1*
G04 #@! TO.N,Net-(D7-Pad3)*
X65750000Y-103825000D03*
G04 #@! TD*
G04 #@! TO.P,D9,1*
G04 #@! TO.N,Net-(D8-Pad3)*
X65750000Y-81325000D03*
D12*
G04 #@! TO.P,D9,2*
G04 #@! TO.N,Net-(D1-Pad2)*
X65750000Y-80350000D03*
D11*
G04 #@! TO.P,D9,3*
G04 #@! TO.N,Net-(D9-Pad3)*
X65750000Y-79475000D03*
D10*
G04 #@! TO.P,D9,4*
G04 #@! TO.N,Net-(D1-Pad4)*
X65750000Y-78650000D03*
G04 #@! TD*
G04 #@! TO.P,D10,4*
G04 #@! TO.N,Net-(D1-Pad4)*
X68250000Y-128650000D03*
D11*
G04 #@! TO.P,D10,3*
G04 #@! TO.N,Net-(D10-Pad3)*
X68250000Y-129475000D03*
D12*
G04 #@! TO.P,D10,2*
G04 #@! TO.N,Net-(D1-Pad2)*
X68250000Y-130350000D03*
D13*
G04 #@! TO.P,D10,1*
G04 #@! TO.N,Net-(D10-Pad1)*
X68250000Y-131325000D03*
G04 #@! TD*
G04 #@! TO.P,D11,1*
G04 #@! TO.N,Net-(D10-Pad3)*
X68250000Y-108825000D03*
D12*
G04 #@! TO.P,D11,2*
G04 #@! TO.N,Net-(D1-Pad2)*
X68250000Y-107850000D03*
D11*
G04 #@! TO.P,D11,3*
G04 #@! TO.N,Net-(D11-Pad3)*
X68250000Y-106975000D03*
D10*
G04 #@! TO.P,D11,4*
G04 #@! TO.N,Net-(D1-Pad4)*
X68250000Y-106150000D03*
G04 #@! TD*
G04 #@! TO.P,D12,4*
G04 #@! TO.N,Net-(D1-Pad4)*
X68250000Y-83650000D03*
D11*
G04 #@! TO.P,D12,3*
G04 #@! TO.N,Net-(D12-Pad3)*
X68250000Y-84475000D03*
D12*
G04 #@! TO.P,D12,2*
G04 #@! TO.N,Net-(D1-Pad2)*
X68250000Y-85350000D03*
D13*
G04 #@! TO.P,D12,1*
G04 #@! TO.N,Net-(D11-Pad3)*
X68250000Y-86325000D03*
G04 #@! TD*
D28*
G04 #@! TO.N,Net-(JP1-Pad2)*
X71250000Y-53500000D03*
X75050000Y-52500000D03*
G04 #@! TO.N,Net-(D13-Pad2)*
X72700000Y-96000000D03*
X72700000Y-114000000D03*
X81250000Y-102500000D03*
X79750000Y-88500000D03*
X79750000Y-85350000D03*
G04 #@! TO.N,Net-(D13-Pad4)*
X76500000Y-78650000D03*
X79000000Y-83650000D03*
X76500000Y-101150000D03*
X79000000Y-106150000D03*
X76500000Y-124150000D03*
X79000000Y-128650000D03*
X72700000Y-116000000D03*
X72700000Y-118000000D03*
X72700000Y-92000000D03*
X72700000Y-94000000D03*
X78500000Y-124150000D03*
X78500000Y-115000000D03*
X79000000Y-109000000D03*
G04 #@! TO.N,Net-(D22-Pad1)*
X82250000Y-131325000D03*
G04 #@! TO.N,Net-(D5-Pad3)*
X62000000Y-103500000D03*
X63250000Y-86325000D03*
G04 #@! TO.N,Net-(D1-Pad4)*
X62500000Y-78650000D03*
X65000000Y-83650000D03*
X62500000Y-101150000D03*
X65000000Y-106150000D03*
X62500000Y-124150000D03*
X65000000Y-128650000D03*
X58700000Y-116000000D03*
X58700000Y-118000000D03*
X58700000Y-92000000D03*
X58700000Y-94000000D03*
X64500000Y-124150000D03*
X64500000Y-115000000D03*
X65000000Y-109000000D03*
G04 #@! TO.N,Net-(D1-Pad2)*
X58700000Y-96000000D03*
X58700000Y-114000000D03*
X67250000Y-102500000D03*
X65750000Y-88500000D03*
X65750000Y-85350000D03*
G04 #@! TO.N,Net-(D1-Pad1)*
X60750000Y-126825000D03*
G04 #@! TO.N,Net-(D4-Pad3)*
X62000000Y-126500000D03*
X62000000Y-113000000D03*
G04 #@! TO.N,Net-(D4-Pad1)*
X63250000Y-131325000D03*
G04 #@! TO.N,Net-(D7-Pad3)*
X65750000Y-109033201D03*
X65750000Y-105500000D03*
G04 #@! TO.N,Net-(D7-Pad1)*
X65750000Y-126825000D03*
G04 #@! TO.N,Net-(D8-Pad3)*
X67000000Y-86000000D03*
X67000000Y-83000000D03*
G04 #@! TO.N,Net-(D13-Pad1)*
X74750000Y-126825000D03*
G04 #@! TO.N,Net-(D16-Pad1)*
X77250000Y-131325000D03*
G04 #@! TO.N,Net-(D16-Pad3)*
X76000000Y-126500000D03*
X76000000Y-113000000D03*
G04 #@! TO.N,Net-(D17-Pad3)*
X76000000Y-103500000D03*
X77250000Y-86325000D03*
G04 #@! TO.N,Net-(D19-Pad3)*
X79750000Y-109033201D03*
X79750000Y-105500000D03*
G04 #@! TO.N,Net-(D19-Pad1)*
X79750000Y-126825000D03*
G04 #@! TO.N,Net-(D20-Pad3)*
X81000000Y-86000000D03*
X81000000Y-83000000D03*
G04 #@! TO.N,Net-(D10-Pad1)*
X68250000Y-131325000D03*
G04 #@! TO.N,GNDD*
X66250000Y-56250000D03*
X71775000Y-59775000D03*
G04 #@! TO.N,Net-(D25-Pad1)*
X88750000Y-126825000D03*
G04 #@! TO.N,Net-(D25-Pad2)*
X86700000Y-101000000D03*
X86700000Y-119000000D03*
X95250000Y-107500000D03*
X93750000Y-98500000D03*
X93750000Y-95350000D03*
G04 #@! TO.N,Net-(D25-Pad4)*
X90500000Y-88650000D03*
X93000000Y-93650000D03*
X90500000Y-106150000D03*
X93000000Y-111150000D03*
X90500000Y-124150000D03*
X93000000Y-128650000D03*
X86700000Y-121000000D03*
X86700000Y-123000000D03*
X86700000Y-97000000D03*
X86700000Y-99000000D03*
X92500000Y-124150000D03*
X92500000Y-120000000D03*
X93000000Y-114000000D03*
D29*
X89000000Y-122000000D03*
D28*
G04 #@! TO.N,Net-(D28-Pad3)*
X90000000Y-126500000D03*
X90000000Y-118000000D03*
G04 #@! TO.N,Net-(D28-Pad1)*
X91250000Y-131325000D03*
G04 #@! TO.N,Net-(D29-Pad3)*
X90000000Y-108500000D03*
X91250000Y-96325000D03*
G04 #@! TO.N,Net-(D31-Pad3)*
X93750000Y-114033201D03*
X93750000Y-110500000D03*
G04 #@! TO.N,Net-(D31-Pad1)*
X93750000Y-126825000D03*
G04 #@! TO.N,Net-(D32-Pad3)*
X95000000Y-96000000D03*
X95000000Y-93000000D03*
G04 #@! TO.N,Net-(D34-Pad1)*
X96250000Y-131325000D03*
G04 #@! TO.N,Net-(D37-Pad4)*
X104500000Y-88650000D03*
X107000000Y-93650000D03*
X104500000Y-106150000D03*
X107000000Y-111150000D03*
X104500000Y-124150000D03*
X107000000Y-128650000D03*
X100700000Y-121000000D03*
X100700000Y-123000000D03*
X100700000Y-97000000D03*
X100700000Y-99000000D03*
X106500000Y-124150000D03*
X106500000Y-120000000D03*
X107000000Y-114000000D03*
D29*
X103000000Y-122000000D03*
D28*
G04 #@! TO.N,Net-(D37-Pad2)*
X100700000Y-101000000D03*
X100700000Y-119000000D03*
X109250000Y-107500000D03*
X107750000Y-98500000D03*
X107750000Y-95350000D03*
G04 #@! TO.N,Net-(D37-Pad1)*
X102750000Y-126825000D03*
G04 #@! TO.N,Net-(D40-Pad1)*
X105250000Y-131325000D03*
G04 #@! TO.N,Net-(D40-Pad3)*
X104000000Y-126500000D03*
X104000000Y-118000000D03*
G04 #@! TO.N,Net-(D41-Pad3)*
X104000000Y-108500000D03*
X105250000Y-96325000D03*
G04 #@! TO.N,Net-(D43-Pad1)*
X107750000Y-126825000D03*
G04 #@! TO.N,Net-(D43-Pad3)*
X107750000Y-114033201D03*
X107750000Y-110500000D03*
G04 #@! TO.N,Net-(D44-Pad3)*
X109000000Y-96000000D03*
X109000000Y-93000000D03*
G04 #@! TO.N,Net-(D46-Pad1)*
X110250000Y-131325000D03*
G04 #@! TD*
D30*
G04 #@! TO.N,Net-(L1-Pad1)*
X70950000Y-62500000D02*
X71600000Y-62500000D01*
X70250000Y-61800000D02*
X70950000Y-62500000D01*
X70250000Y-57975000D02*
X70250000Y-61800000D01*
G04 #@! TO.N,Net-(L1-Pad2)*
X68400000Y-62500000D02*
X67750000Y-62500000D01*
X69250000Y-61650000D02*
X68400000Y-62500000D01*
X69250000Y-57975000D02*
X69250000Y-61650000D01*
G04 #@! TO.N,Net-(JP1-Pad2)*
X70750000Y-55025000D02*
X70750000Y-54000000D01*
X70750000Y-54000000D02*
X71250000Y-53500000D01*
D31*
G04 #@! TO.N,Net-(D22-Pad3)*
X82250000Y-109210000D02*
X82250000Y-108825000D01*
X83033201Y-109993201D02*
X82250000Y-109210000D01*
X83033201Y-129351799D02*
X83033201Y-109993201D01*
X82910000Y-129475000D02*
X83033201Y-129351799D01*
X82250000Y-129475000D02*
X82910000Y-129475000D01*
D32*
G04 #@! TO.N,Net-(D13-Pad2)*
X82250000Y-130350000D02*
X77250000Y-130350000D01*
X74750000Y-125850000D02*
X79750000Y-125850000D01*
X76000000Y-80350000D02*
X79750000Y-80350000D01*
X74750000Y-80350000D02*
X76000000Y-80350000D01*
X76000000Y-94500000D02*
X74500000Y-96000000D01*
X74500000Y-96000000D02*
X72700000Y-96000000D01*
X76150000Y-85350000D02*
X76000000Y-85500000D01*
X77250000Y-85350000D02*
X76150000Y-85350000D01*
X76000000Y-80350000D02*
X76000000Y-85500000D01*
X76000000Y-85500000D02*
X76000000Y-94500000D01*
X76450000Y-130350000D02*
X73500000Y-127400000D01*
X77250000Y-130350000D02*
X76450000Y-130350000D01*
X73500000Y-115000000D02*
X72700000Y-114200000D01*
X72700000Y-114200000D02*
X72700000Y-114000000D01*
X73850000Y-125850000D02*
X73500000Y-125500000D01*
X74750000Y-125850000D02*
X73850000Y-125850000D01*
X73500000Y-127400000D02*
X73500000Y-125500000D01*
X73500000Y-125500000D02*
X73500000Y-115000000D01*
X77250000Y-107850000D02*
X80500000Y-107850000D01*
X80500000Y-107850000D02*
X82250000Y-107850000D01*
X80550000Y-125850000D02*
X79750000Y-125850000D01*
X81396799Y-125003201D02*
X80550000Y-125850000D01*
X80500000Y-107850000D02*
X81396799Y-108746799D01*
X81396799Y-108746799D02*
X81396799Y-125003201D01*
X73950000Y-102850000D02*
X74750000Y-102850000D01*
X72700000Y-114000000D02*
X72700000Y-104100000D01*
X72700000Y-104100000D02*
X73950000Y-102850000D01*
X74750000Y-102850000D02*
X79750000Y-102850000D01*
X79750000Y-102850000D02*
X80900000Y-102850000D01*
X80900000Y-102850000D02*
X81250000Y-102500000D01*
X79750000Y-88500000D02*
X79750000Y-85350000D01*
X82250000Y-85350000D02*
X79750000Y-85350000D01*
X79750000Y-85350000D02*
X77250000Y-85350000D01*
D31*
G04 #@! TO.N,Net-(D23-Pad3)*
X82250000Y-86325000D02*
X82250000Y-104250000D01*
X82910000Y-106975000D02*
X82250000Y-106975000D01*
X83033201Y-106851799D02*
X82910000Y-106975000D01*
X83033201Y-105033201D02*
X83033201Y-106851799D01*
X82250000Y-104250000D02*
X83033201Y-105033201D01*
D32*
G04 #@! TO.N,Net-(D13-Pad4)*
X76500000Y-78650000D02*
X79750000Y-78650000D01*
X74750000Y-78650000D02*
X76500000Y-78650000D01*
X79000000Y-83650000D02*
X82250000Y-83650000D01*
X77250000Y-83650000D02*
X79000000Y-83650000D01*
X76500000Y-101150000D02*
X79750000Y-101150000D01*
X74750000Y-101150000D02*
X76500000Y-101150000D01*
X79000000Y-106150000D02*
X82250000Y-106150000D01*
X77250000Y-106150000D02*
X79000000Y-106150000D01*
X74750000Y-124150000D02*
X76500000Y-124150000D01*
X79000000Y-128650000D02*
X82250000Y-128650000D01*
X77250000Y-128650000D02*
X79000000Y-128650000D01*
X76500000Y-124150000D02*
X78500000Y-124150000D01*
X78500000Y-124150000D02*
X79750000Y-124150000D01*
D31*
X78500000Y-115000000D02*
X78500000Y-109500000D01*
X78500000Y-109500000D02*
X79000000Y-109000000D01*
G04 #@! TO.N,Net-(D5-Pad3)*
X62590000Y-106975000D02*
X62000000Y-106385000D01*
X63250000Y-106975000D02*
X62590000Y-106975000D01*
X62000000Y-106385000D02*
X62000000Y-103500000D01*
D32*
G04 #@! TO.N,Net-(D1-Pad4)*
X62500000Y-78650000D02*
X65750000Y-78650000D01*
X60750000Y-78650000D02*
X62500000Y-78650000D01*
X65000000Y-83650000D02*
X68250000Y-83650000D01*
X63250000Y-83650000D02*
X65000000Y-83650000D01*
X62500000Y-101150000D02*
X65750000Y-101150000D01*
X60750000Y-101150000D02*
X62500000Y-101150000D01*
X65000000Y-106150000D02*
X68250000Y-106150000D01*
X63250000Y-106150000D02*
X65000000Y-106150000D01*
X60750000Y-124150000D02*
X62500000Y-124150000D01*
X65000000Y-128650000D02*
X68250000Y-128650000D01*
X63250000Y-128650000D02*
X65000000Y-128650000D01*
X62500000Y-124150000D02*
X64500000Y-124150000D01*
X64500000Y-124150000D02*
X65750000Y-124150000D01*
D31*
X64500000Y-115000000D02*
X64500000Y-109500000D01*
X64500000Y-109500000D02*
X65000000Y-109000000D01*
D32*
G04 #@! TO.N,Net-(D1-Pad2)*
X68250000Y-130350000D02*
X63250000Y-130350000D01*
X60750000Y-125850000D02*
X65750000Y-125850000D01*
X62000000Y-80350000D02*
X65750000Y-80350000D01*
X60750000Y-80350000D02*
X62000000Y-80350000D01*
X62000000Y-94500000D02*
X60500000Y-96000000D01*
X60500000Y-96000000D02*
X58700000Y-96000000D01*
X62150000Y-85350000D02*
X62000000Y-85500000D01*
X63250000Y-85350000D02*
X62150000Y-85350000D01*
X62000000Y-80350000D02*
X62000000Y-85500000D01*
X62000000Y-85500000D02*
X62000000Y-94500000D01*
X62450000Y-130350000D02*
X59500000Y-127400000D01*
X63250000Y-130350000D02*
X62450000Y-130350000D01*
X59500000Y-115000000D02*
X58700000Y-114200000D01*
X58700000Y-114200000D02*
X58700000Y-114000000D01*
X59850000Y-125850000D02*
X59500000Y-125500000D01*
X60750000Y-125850000D02*
X59850000Y-125850000D01*
X59500000Y-127400000D02*
X59500000Y-125500000D01*
X59500000Y-125500000D02*
X59500000Y-115000000D01*
X63250000Y-107850000D02*
X66500000Y-107850000D01*
X66500000Y-107850000D02*
X68250000Y-107850000D01*
X66550000Y-125850000D02*
X65750000Y-125850000D01*
X67396799Y-125003201D02*
X66550000Y-125850000D01*
X66500000Y-107850000D02*
X67396799Y-108746799D01*
X67396799Y-108746799D02*
X67396799Y-125003201D01*
X59950000Y-102850000D02*
X60750000Y-102850000D01*
X58700000Y-114000000D02*
X58700000Y-104100000D01*
X58700000Y-104100000D02*
X59950000Y-102850000D01*
X60750000Y-102850000D02*
X65750000Y-102850000D01*
X65750000Y-102850000D02*
X66900000Y-102850000D01*
X66900000Y-102850000D02*
X67250000Y-102500000D01*
X65750000Y-88500000D02*
X65750000Y-85350000D01*
X68250000Y-85350000D02*
X65750000Y-85350000D01*
X65750000Y-85350000D02*
X63250000Y-85350000D01*
D31*
G04 #@! TO.N,Net-(D11-Pad3)*
X68250000Y-86325000D02*
X68250000Y-104250000D01*
X68910000Y-106975000D02*
X68250000Y-106975000D01*
X69033201Y-106851799D02*
X68910000Y-106975000D01*
X69033201Y-105033201D02*
X69033201Y-106851799D01*
X68250000Y-104250000D02*
X69033201Y-105033201D01*
G04 #@! TO.N,Net-(D1-Pad3)*
X60750000Y-104210000D02*
X60750000Y-103825000D01*
X59966799Y-104993201D02*
X60750000Y-104210000D01*
X59966799Y-124851799D02*
X59966799Y-104993201D01*
X60090000Y-124975000D02*
X59966799Y-124851799D01*
X60750000Y-124975000D02*
X60090000Y-124975000D01*
G04 #@! TO.N,Net-(D2-Pad3)*
X60090000Y-101975000D02*
X58000000Y-99885000D01*
X60750000Y-101975000D02*
X60090000Y-101975000D01*
X58000000Y-91971230D02*
X60750000Y-89221230D01*
X60750000Y-81710000D02*
X60750000Y-81325000D01*
X60750000Y-89221230D02*
X60750000Y-81710000D01*
X58000000Y-99885000D02*
X58000000Y-91971230D01*
G04 #@! TO.N,Net-(D4-Pad3)*
X62000000Y-128885000D02*
X62000000Y-126500000D01*
X63250000Y-129475000D02*
X62590000Y-129475000D01*
X62590000Y-129475000D02*
X62000000Y-128885000D01*
X62975000Y-108825000D02*
X63250000Y-108825000D01*
X62000000Y-109800000D02*
X62975000Y-108825000D01*
X62000000Y-113000000D02*
X62000000Y-109800000D01*
G04 #@! TO.N,Net-(D7-Pad3)*
X66410000Y-124975000D02*
X65750000Y-124975000D01*
X66533201Y-124851799D02*
X66410000Y-124975000D01*
X65750000Y-104750000D02*
X65750000Y-103825000D01*
X65750000Y-104750000D02*
X65750000Y-105500000D01*
X66533201Y-109816402D02*
X66533201Y-124851799D01*
X65750000Y-109033201D02*
X66533201Y-109816402D01*
G04 #@! TO.N,Net-(D8-Pad3)*
X67000000Y-101385000D02*
X67000000Y-86000000D01*
X65750000Y-101975000D02*
X66410000Y-101975000D01*
X66410000Y-101975000D02*
X67000000Y-101385000D01*
X66025000Y-81325000D02*
X65750000Y-81325000D01*
X67000000Y-82300000D02*
X66025000Y-81325000D01*
X67000000Y-83000000D02*
X67000000Y-82300000D01*
G04 #@! TO.N,Net-(D10-Pad3)*
X68250000Y-109210000D02*
X68250000Y-108825000D01*
X69033201Y-109993201D02*
X68250000Y-109210000D01*
X69033201Y-129351799D02*
X69033201Y-109993201D01*
X68910000Y-129475000D02*
X69033201Y-129351799D01*
X68250000Y-129475000D02*
X68910000Y-129475000D01*
G04 #@! TO.N,Net-(D13-Pad3)*
X74750000Y-104210000D02*
X74750000Y-103825000D01*
X73966799Y-104993201D02*
X74750000Y-104210000D01*
X73966799Y-124851799D02*
X73966799Y-104993201D01*
X74090000Y-124975000D02*
X73966799Y-124851799D01*
X74750000Y-124975000D02*
X74090000Y-124975000D01*
G04 #@! TO.N,Net-(D14-Pad3)*
X74090000Y-101975000D02*
X72000000Y-99885000D01*
X74750000Y-101975000D02*
X74090000Y-101975000D01*
X72000000Y-91971230D02*
X74750000Y-89221230D01*
X74750000Y-81710000D02*
X74750000Y-81325000D01*
X74750000Y-89221230D02*
X74750000Y-81710000D01*
X72000000Y-99885000D02*
X72000000Y-91971230D01*
G04 #@! TO.N,Net-(D16-Pad3)*
X76000000Y-128885000D02*
X76000000Y-126500000D01*
X77250000Y-129475000D02*
X76590000Y-129475000D01*
X76590000Y-129475000D02*
X76000000Y-128885000D01*
X76975000Y-108825000D02*
X77250000Y-108825000D01*
X76000000Y-109800000D02*
X76975000Y-108825000D01*
X76000000Y-113000000D02*
X76000000Y-109800000D01*
G04 #@! TO.N,Net-(D17-Pad3)*
X76590000Y-106975000D02*
X76000000Y-106385000D01*
X77250000Y-106975000D02*
X76590000Y-106975000D01*
X76000000Y-106385000D02*
X76000000Y-103500000D01*
G04 #@! TO.N,Net-(D19-Pad3)*
X80410000Y-124975000D02*
X79750000Y-124975000D01*
X80533201Y-124851799D02*
X80410000Y-124975000D01*
X79750000Y-104750000D02*
X79750000Y-103825000D01*
X79750000Y-104750000D02*
X79750000Y-105500000D01*
X80533201Y-109816402D02*
X80533201Y-124851799D01*
X79750000Y-109033201D02*
X80533201Y-109816402D01*
G04 #@! TO.N,Net-(D20-Pad3)*
X81000000Y-101385000D02*
X81000000Y-86000000D01*
X79750000Y-101975000D02*
X80410000Y-101975000D01*
X80410000Y-101975000D02*
X81000000Y-101385000D01*
X80025000Y-81325000D02*
X79750000Y-81325000D01*
X81000000Y-82300000D02*
X80025000Y-81325000D01*
X81000000Y-83000000D02*
X81000000Y-82300000D01*
D30*
G04 #@! TO.N,Net-(C4-Pad1)*
X68750000Y-58260000D02*
X68750000Y-57975000D01*
X67485000Y-59525000D02*
X68750000Y-58260000D01*
X63650000Y-59525000D02*
X63500000Y-59375000D01*
X65500000Y-59525000D02*
X63650000Y-59525000D01*
X63125000Y-59750000D02*
X63500000Y-59375000D01*
X61000000Y-59750000D02*
X63125000Y-59750000D01*
X67000000Y-56435000D02*
X67000000Y-59525000D01*
X68410000Y-55025000D02*
X67000000Y-56435000D01*
X68750000Y-55025000D02*
X68410000Y-55025000D01*
X65500000Y-59525000D02*
X67000000Y-59525000D01*
X67000000Y-59525000D02*
X67485000Y-59525000D01*
G04 #@! TO.N,GNDD*
X68200000Y-56250000D02*
X69500000Y-56250000D01*
X69500000Y-56750000D02*
X69750000Y-56500000D01*
X68120000Y-56750000D02*
X69500000Y-56750000D01*
X70000000Y-56250000D02*
X69750000Y-56500000D01*
X71300000Y-56250000D02*
X70000000Y-56250000D01*
X70000000Y-56750000D02*
X69750000Y-56500000D01*
X71300000Y-56750000D02*
X70000000Y-56750000D01*
X63650000Y-57475000D02*
X63500000Y-57625000D01*
X65500000Y-57475000D02*
X63650000Y-57475000D01*
X61375000Y-57625000D02*
X61000000Y-57250000D01*
X63500000Y-57625000D02*
X61375000Y-57625000D01*
X65500000Y-57475000D02*
X65500000Y-57000000D01*
X65500000Y-57000000D02*
X66250000Y-56250000D01*
X75350000Y-59775000D02*
X75500000Y-59625000D01*
X73500000Y-59775000D02*
X75350000Y-59775000D01*
X77625000Y-59625000D02*
X78000000Y-60000000D01*
X75500000Y-59625000D02*
X77625000Y-59625000D01*
X73500000Y-59775000D02*
X71775000Y-59775000D01*
X71750000Y-59750000D02*
X71775000Y-59775000D01*
D32*
X69250000Y-55025000D02*
X69250000Y-52000000D01*
X69250000Y-52000000D02*
X66500000Y-52000000D01*
X66500000Y-56000000D02*
X66250000Y-56250000D01*
X66500000Y-52000000D02*
X66500000Y-56000000D01*
D30*
X69750000Y-57975000D02*
X69750000Y-63250000D01*
X69500000Y-56250000D02*
X69750000Y-56500000D01*
X68120000Y-56250000D02*
X69500000Y-56250000D01*
X69250000Y-56000000D02*
X69750000Y-56500000D01*
X69250000Y-55025000D02*
X69250000Y-56000000D01*
G04 #@! TO.N,Net-(C3-Pad1)*
X69750000Y-55025000D02*
X69750000Y-53250000D01*
X69750000Y-53250000D02*
X70000000Y-53000000D01*
X70000000Y-53000000D02*
X70250000Y-53000000D01*
X70250000Y-53000000D02*
X70250000Y-55025000D01*
D32*
X70750000Y-52500000D02*
X73750000Y-52500000D01*
X70250000Y-53000000D02*
X70750000Y-52500000D01*
X73750000Y-57475000D02*
X73500000Y-57725000D01*
X73750000Y-52500000D02*
X73750000Y-57475000D01*
X75350000Y-57725000D02*
X75500000Y-57875000D01*
X73500000Y-57725000D02*
X75350000Y-57725000D01*
X77625000Y-57875000D02*
X78000000Y-57500000D01*
X75500000Y-57875000D02*
X77625000Y-57875000D01*
D30*
X70750000Y-57975000D02*
X70750000Y-58750000D01*
X70750000Y-58750000D02*
X71000000Y-59000000D01*
X72225000Y-59000000D02*
X73500000Y-57725000D01*
X71000000Y-59000000D02*
X72225000Y-59000000D01*
D32*
G04 #@! TO.N,Net-(D25-Pad2)*
X96250000Y-130350000D02*
X91250000Y-130350000D01*
X88750000Y-125850000D02*
X93750000Y-125850000D01*
X90000000Y-90350000D02*
X93750000Y-90350000D01*
X88750000Y-90350000D02*
X90000000Y-90350000D01*
X88500000Y-101000000D02*
X86700000Y-101000000D01*
X90150000Y-95350000D02*
X90000000Y-95500000D01*
X91250000Y-95350000D02*
X90150000Y-95350000D01*
X90000000Y-90350000D02*
X90000000Y-95500000D01*
X90450000Y-130350000D02*
X87500000Y-127400000D01*
X91250000Y-130350000D02*
X90450000Y-130350000D01*
X87500000Y-120000000D02*
X86700000Y-119200000D01*
X86700000Y-119200000D02*
X86700000Y-119000000D01*
X87850000Y-125850000D02*
X87500000Y-125500000D01*
X88750000Y-125850000D02*
X87850000Y-125850000D01*
X87500000Y-127400000D02*
X87500000Y-125500000D01*
X91250000Y-112850000D02*
X94500000Y-112850000D01*
X94500000Y-112850000D02*
X96250000Y-112850000D01*
X87950000Y-107850000D02*
X88750000Y-107850000D01*
X86700000Y-119000000D02*
X86700000Y-109100000D01*
X86700000Y-109100000D02*
X87950000Y-107850000D01*
X88750000Y-107850000D02*
X93750000Y-107850000D01*
X93750000Y-107850000D02*
X94900000Y-107850000D01*
X94900000Y-107850000D02*
X95250000Y-107500000D01*
X93750000Y-98500000D02*
X93750000Y-95350000D01*
X96250000Y-95350000D02*
X93750000Y-95350000D01*
X93750000Y-95350000D02*
X91250000Y-95350000D01*
X87500000Y-125500000D02*
X87500000Y-120000000D01*
X95396799Y-113746799D02*
X94500000Y-112850000D01*
X95396799Y-125003201D02*
X95396799Y-113746799D01*
X93750000Y-125850000D02*
X94550000Y-125850000D01*
X94550000Y-125850000D02*
X95396799Y-125003201D01*
X90000000Y-99500000D02*
X88500000Y-101000000D01*
X90000000Y-95500000D02*
X90000000Y-99500000D01*
D31*
G04 #@! TO.N,Net-(D25-Pad3)*
X88750000Y-109210000D02*
X88750000Y-108825000D01*
X87966799Y-109993201D02*
X88750000Y-109210000D01*
X88090000Y-124975000D02*
X88750000Y-124975000D01*
X87966799Y-124851799D02*
X88090000Y-124975000D01*
X87966799Y-109993201D02*
X87966799Y-124851799D01*
D32*
G04 #@! TO.N,Net-(D25-Pad4)*
X90500000Y-88650000D02*
X93750000Y-88650000D01*
X88750000Y-88650000D02*
X90500000Y-88650000D01*
X93000000Y-93650000D02*
X96250000Y-93650000D01*
X91250000Y-93650000D02*
X93000000Y-93650000D01*
X90500000Y-106150000D02*
X93750000Y-106150000D01*
X88750000Y-106150000D02*
X90500000Y-106150000D01*
X93000000Y-111150000D02*
X96250000Y-111150000D01*
X91250000Y-111150000D02*
X93000000Y-111150000D01*
X88750000Y-124150000D02*
X90500000Y-124150000D01*
X93000000Y-128650000D02*
X96250000Y-128650000D01*
X91250000Y-128650000D02*
X93000000Y-128650000D01*
X90500000Y-124150000D02*
X92500000Y-124150000D01*
X92500000Y-124150000D02*
X93750000Y-124150000D01*
D31*
X92500000Y-120000000D02*
X92500000Y-114500000D01*
X92500000Y-114500000D02*
X93000000Y-114000000D01*
G04 #@! TO.N,Net-(D26-Pad3)*
X88090000Y-106975000D02*
X86000000Y-104885000D01*
X88750000Y-106975000D02*
X88090000Y-106975000D01*
X88750000Y-91710000D02*
X88750000Y-91325000D01*
X86000000Y-104885000D02*
X86000000Y-96971230D01*
X88750000Y-94222485D02*
X88750000Y-91710000D01*
X86001255Y-96971230D02*
X88750000Y-94222485D01*
X86000000Y-96971230D02*
X86001255Y-96971230D01*
G04 #@! TO.N,Net-(D28-Pad3)*
X90000000Y-128885000D02*
X90000000Y-126500000D01*
X91250000Y-129475000D02*
X90590000Y-129475000D01*
X90590000Y-129475000D02*
X90000000Y-128885000D01*
X90975000Y-113825000D02*
X91250000Y-113825000D01*
X90000000Y-114800000D02*
X90975000Y-113825000D01*
X90000000Y-118000000D02*
X90000000Y-114800000D01*
G04 #@! TO.N,Net-(D29-Pad3)*
X90590000Y-111975000D02*
X90000000Y-111385000D01*
X91250000Y-111975000D02*
X90590000Y-111975000D01*
X90000000Y-111385000D02*
X90000000Y-108500000D01*
G04 #@! TO.N,Net-(D31-Pad3)*
X94410000Y-124975000D02*
X93750000Y-124975000D01*
X94533201Y-124851799D02*
X94410000Y-124975000D01*
X93750000Y-109750000D02*
X93750000Y-108825000D01*
X93750000Y-109750000D02*
X93750000Y-110500000D01*
X93750000Y-114033201D02*
X94533201Y-114816402D01*
X94533201Y-124851799D02*
X94533201Y-114816402D01*
G04 #@! TO.N,Net-(D32-Pad3)*
X93750000Y-106975000D02*
X94410000Y-106975000D01*
X94410000Y-106975000D02*
X95000000Y-106385000D01*
X94025000Y-91325000D02*
X93750000Y-91325000D01*
X95000000Y-92300000D02*
X94025000Y-91325000D01*
X95000000Y-93000000D02*
X95000000Y-92300000D01*
X95000000Y-96000000D02*
X95000000Y-106385000D01*
G04 #@! TO.N,Net-(D34-Pad3)*
X96250000Y-114210000D02*
X96250000Y-113825000D01*
X97033201Y-114993201D02*
X96250000Y-114210000D01*
X96910000Y-129475000D02*
X97033201Y-129351799D01*
X96250000Y-129475000D02*
X96910000Y-129475000D01*
X97033201Y-114993201D02*
X97033201Y-129351799D01*
G04 #@! TO.N,Net-(D35-Pad3)*
X96910000Y-111975000D02*
X96250000Y-111975000D01*
X97033201Y-111851799D02*
X96910000Y-111975000D01*
X97033201Y-110033201D02*
X97033201Y-111851799D01*
X96250000Y-109250000D02*
X97033201Y-110033201D01*
X96250000Y-109250000D02*
X96250000Y-96325000D01*
D32*
G04 #@! TO.N,Net-(D37-Pad4)*
X104500000Y-88650000D02*
X107750000Y-88650000D01*
X102750000Y-88650000D02*
X104500000Y-88650000D01*
X107000000Y-93650000D02*
X110250000Y-93650000D01*
X105250000Y-93650000D02*
X107000000Y-93650000D01*
X104500000Y-106150000D02*
X107750000Y-106150000D01*
X102750000Y-106150000D02*
X104500000Y-106150000D01*
X107000000Y-111150000D02*
X110250000Y-111150000D01*
X105250000Y-111150000D02*
X107000000Y-111150000D01*
X102750000Y-124150000D02*
X104500000Y-124150000D01*
X107000000Y-128650000D02*
X110250000Y-128650000D01*
X105250000Y-128650000D02*
X107000000Y-128650000D01*
X104500000Y-124150000D02*
X106500000Y-124150000D01*
X106500000Y-124150000D02*
X107750000Y-124150000D01*
D31*
X106500000Y-120000000D02*
X106500000Y-114500000D01*
X106500000Y-114500000D02*
X107000000Y-114000000D01*
G04 #@! TO.N,Net-(D37-Pad3)*
X102750000Y-109210000D02*
X102750000Y-108825000D01*
X101966799Y-109993201D02*
X102750000Y-109210000D01*
X102090000Y-124975000D02*
X102750000Y-124975000D01*
X101966799Y-124851799D02*
X102090000Y-124975000D01*
X101966799Y-109993201D02*
X101966799Y-124851799D01*
D32*
G04 #@! TO.N,Net-(D37-Pad2)*
X110250000Y-130350000D02*
X105250000Y-130350000D01*
X102750000Y-125850000D02*
X107750000Y-125850000D01*
X104000000Y-90350000D02*
X107750000Y-90350000D01*
X102750000Y-90350000D02*
X104000000Y-90350000D01*
X102500000Y-101000000D02*
X100700000Y-101000000D01*
X104150000Y-95350000D02*
X104000000Y-95500000D01*
X105250000Y-95350000D02*
X104150000Y-95350000D01*
X104000000Y-90350000D02*
X104000000Y-95500000D01*
X104450000Y-130350000D02*
X101500000Y-127400000D01*
X105250000Y-130350000D02*
X104450000Y-130350000D01*
X101500000Y-120000000D02*
X100700000Y-119200000D01*
X100700000Y-119200000D02*
X100700000Y-119000000D01*
X101850000Y-125850000D02*
X101500000Y-125500000D01*
X102750000Y-125850000D02*
X101850000Y-125850000D01*
X101500000Y-127400000D02*
X101500000Y-125500000D01*
X105250000Y-112850000D02*
X108500000Y-112850000D01*
X108500000Y-112850000D02*
X110250000Y-112850000D01*
X101950000Y-107850000D02*
X102750000Y-107850000D01*
X100700000Y-119000000D02*
X100700000Y-109100000D01*
X100700000Y-109100000D02*
X101950000Y-107850000D01*
X102750000Y-107850000D02*
X107750000Y-107850000D01*
X107750000Y-107850000D02*
X108900000Y-107850000D01*
X108900000Y-107850000D02*
X109250000Y-107500000D01*
X107750000Y-98500000D02*
X107750000Y-95350000D01*
X110250000Y-95350000D02*
X107750000Y-95350000D01*
X107750000Y-95350000D02*
X105250000Y-95350000D01*
X101500000Y-125500000D02*
X101500000Y-120000000D01*
X109396799Y-113746799D02*
X108500000Y-112850000D01*
X109396799Y-125003201D02*
X109396799Y-113746799D01*
X107750000Y-125850000D02*
X108550000Y-125850000D01*
X108550000Y-125850000D02*
X109396799Y-125003201D01*
X104000000Y-99500000D02*
X102500000Y-101000000D01*
X104000000Y-95500000D02*
X104000000Y-99500000D01*
D31*
G04 #@! TO.N,Net-(D38-Pad3)*
X102090000Y-106975000D02*
X100000000Y-104885000D01*
X102750000Y-106975000D02*
X102090000Y-106975000D01*
X102750000Y-91710000D02*
X102750000Y-91325000D01*
X100000000Y-104885000D02*
X100000000Y-96971230D01*
X102750000Y-94222485D02*
X102750000Y-91710000D01*
X100001255Y-96971230D02*
X102750000Y-94222485D01*
X100000000Y-96971230D02*
X100001255Y-96971230D01*
G04 #@! TO.N,Net-(D40-Pad3)*
X104000000Y-128885000D02*
X104000000Y-126500000D01*
X105250000Y-129475000D02*
X104590000Y-129475000D01*
X104590000Y-129475000D02*
X104000000Y-128885000D01*
X104975000Y-113825000D02*
X105250000Y-113825000D01*
X104000000Y-114800000D02*
X104975000Y-113825000D01*
X104000000Y-118000000D02*
X104000000Y-114800000D01*
G04 #@! TO.N,Net-(D41-Pad3)*
X104590000Y-111975000D02*
X104000000Y-111385000D01*
X105250000Y-111975000D02*
X104590000Y-111975000D01*
X104000000Y-111385000D02*
X104000000Y-108500000D01*
G04 #@! TO.N,Net-(D43-Pad3)*
X108410000Y-124975000D02*
X107750000Y-124975000D01*
X108533201Y-124851799D02*
X108410000Y-124975000D01*
X107750000Y-109750000D02*
X107750000Y-108825000D01*
X107750000Y-109750000D02*
X107750000Y-110500000D01*
X107750000Y-114033201D02*
X108533201Y-114816402D01*
X108533201Y-124851799D02*
X108533201Y-114816402D01*
G04 #@! TO.N,Net-(D44-Pad3)*
X107750000Y-106975000D02*
X108410000Y-106975000D01*
X108410000Y-106975000D02*
X109000000Y-106385000D01*
X108025000Y-91325000D02*
X107750000Y-91325000D01*
X109000000Y-92300000D02*
X108025000Y-91325000D01*
X109000000Y-93000000D02*
X109000000Y-92300000D01*
X109000000Y-96000000D02*
X109000000Y-106385000D01*
G04 #@! TO.N,Net-(D46-Pad3)*
X110250000Y-114210000D02*
X110250000Y-113825000D01*
X111033201Y-114993201D02*
X110250000Y-114210000D01*
X110910000Y-129475000D02*
X111033201Y-129351799D01*
X110250000Y-129475000D02*
X110910000Y-129475000D01*
X111033201Y-114993201D02*
X111033201Y-129351799D01*
G04 #@! TO.N,Net-(D47-Pad3)*
X110910000Y-111975000D02*
X110250000Y-111975000D01*
X111033201Y-111851799D02*
X110910000Y-111975000D01*
X111033201Y-110033201D02*
X111033201Y-111851799D01*
X110250000Y-109250000D02*
X111033201Y-110033201D01*
X110250000Y-109250000D02*
X110250000Y-96325000D01*
G04 #@! TD*
D33*
G04 #@! TO.N,Net-(D1-Pad4)*
G36*
X68318202Y-110289365D02*
X68318201Y-128652560D01*
X67750000Y-128652560D01*
X67502235Y-128701843D01*
X67392749Y-128775000D01*
X67273750Y-128775000D01*
X67115000Y-128933750D01*
X67115000Y-129026309D01*
X67143374Y-129094811D01*
X67102560Y-129300000D01*
X67102560Y-129565000D01*
X64397440Y-129565000D01*
X64397440Y-129300000D01*
X64356626Y-129094811D01*
X64385000Y-129026309D01*
X64385000Y-128933750D01*
X64226250Y-128775000D01*
X64107251Y-128775000D01*
X63997765Y-128701843D01*
X63750000Y-128652560D01*
X63103000Y-128652560D01*
X63103000Y-128525000D01*
X63123000Y-128525000D01*
X63123000Y-127923750D01*
X63377000Y-127923750D01*
X63377000Y-128525000D01*
X64226250Y-128525000D01*
X64385000Y-128366250D01*
X64385000Y-128273691D01*
X67115000Y-128273691D01*
X67115000Y-128366250D01*
X67273750Y-128525000D01*
X68123000Y-128525000D01*
X68123000Y-127923750D01*
X67964250Y-127765000D01*
X67623690Y-127765000D01*
X67390301Y-127861673D01*
X67211673Y-128040302D01*
X67115000Y-128273691D01*
X64385000Y-128273691D01*
X64288327Y-128040302D01*
X64109699Y-127861673D01*
X63876310Y-127765000D01*
X63535750Y-127765000D01*
X63377000Y-127923750D01*
X63123000Y-127923750D01*
X62964250Y-127765000D01*
X62715000Y-127765000D01*
X62715000Y-126825141D01*
X62785000Y-126656146D01*
X62785000Y-126635000D01*
X64602560Y-126635000D01*
X64602560Y-127050000D01*
X64651843Y-127297765D01*
X64792191Y-127507809D01*
X65002235Y-127648157D01*
X65250000Y-127697440D01*
X66250000Y-127697440D01*
X66497765Y-127648157D01*
X66707809Y-127507809D01*
X66848157Y-127297765D01*
X66897440Y-127050000D01*
X66897440Y-126600000D01*
X66890761Y-126566422D01*
X67115953Y-126415953D01*
X67159749Y-126350408D01*
X67897207Y-125612950D01*
X67962752Y-125569154D01*
X68136253Y-125309493D01*
X68181799Y-125080517D01*
X68181799Y-125080513D01*
X68197177Y-125003201D01*
X68181799Y-124925889D01*
X68181799Y-110152962D01*
X68318202Y-110289365D01*
X68318202Y-110289365D01*
G37*
X68318202Y-110289365D02*
X68318201Y-128652560D01*
X67750000Y-128652560D01*
X67502235Y-128701843D01*
X67392749Y-128775000D01*
X67273750Y-128775000D01*
X67115000Y-128933750D01*
X67115000Y-129026309D01*
X67143374Y-129094811D01*
X67102560Y-129300000D01*
X67102560Y-129565000D01*
X64397440Y-129565000D01*
X64397440Y-129300000D01*
X64356626Y-129094811D01*
X64385000Y-129026309D01*
X64385000Y-128933750D01*
X64226250Y-128775000D01*
X64107251Y-128775000D01*
X63997765Y-128701843D01*
X63750000Y-128652560D01*
X63103000Y-128652560D01*
X63103000Y-128525000D01*
X63123000Y-128525000D01*
X63123000Y-127923750D01*
X63377000Y-127923750D01*
X63377000Y-128525000D01*
X64226250Y-128525000D01*
X64385000Y-128366250D01*
X64385000Y-128273691D01*
X67115000Y-128273691D01*
X67115000Y-128366250D01*
X67273750Y-128525000D01*
X68123000Y-128525000D01*
X68123000Y-127923750D01*
X67964250Y-127765000D01*
X67623690Y-127765000D01*
X67390301Y-127861673D01*
X67211673Y-128040302D01*
X67115000Y-128273691D01*
X64385000Y-128273691D01*
X64288327Y-128040302D01*
X64109699Y-127861673D01*
X63876310Y-127765000D01*
X63535750Y-127765000D01*
X63377000Y-127923750D01*
X63123000Y-127923750D01*
X62964250Y-127765000D01*
X62715000Y-127765000D01*
X62715000Y-126825141D01*
X62785000Y-126656146D01*
X62785000Y-126635000D01*
X64602560Y-126635000D01*
X64602560Y-127050000D01*
X64651843Y-127297765D01*
X64792191Y-127507809D01*
X65002235Y-127648157D01*
X65250000Y-127697440D01*
X66250000Y-127697440D01*
X66497765Y-127648157D01*
X66707809Y-127507809D01*
X66848157Y-127297765D01*
X66897440Y-127050000D01*
X66897440Y-126600000D01*
X66890761Y-126566422D01*
X67115953Y-126415953D01*
X67159749Y-126350408D01*
X67897207Y-125612950D01*
X67962752Y-125569154D01*
X68136253Y-125309493D01*
X68181799Y-125080517D01*
X68181799Y-125080513D01*
X68197177Y-125003201D01*
X68181799Y-124925889D01*
X68181799Y-110152962D01*
X68318202Y-110289365D01*
G36*
X61285000Y-106314583D02*
X61270993Y-106385000D01*
X61285000Y-106455417D01*
X61326485Y-106663978D01*
X61484514Y-106900485D01*
X61544212Y-106940374D01*
X62034625Y-107430788D01*
X62074514Y-107490486D01*
X62109719Y-107514009D01*
X62102560Y-107550000D01*
X62102560Y-108150000D01*
X62147315Y-108375000D01*
X62102560Y-108600000D01*
X62102560Y-108686277D01*
X61544213Y-109244625D01*
X61484515Y-109284514D01*
X61444626Y-109344212D01*
X61326486Y-109521021D01*
X61270993Y-109800000D01*
X61285001Y-109870422D01*
X61285000Y-112674858D01*
X61215000Y-112843854D01*
X61215000Y-113156146D01*
X61334509Y-113444667D01*
X61555333Y-113665491D01*
X61843854Y-113785000D01*
X62156146Y-113785000D01*
X62444667Y-113665491D01*
X62665491Y-113444667D01*
X62785000Y-113156146D01*
X62785000Y-112843854D01*
X62715000Y-112674859D01*
X62715000Y-110096162D01*
X63113723Y-109697440D01*
X63750000Y-109697440D01*
X63997765Y-109648157D01*
X64207809Y-109507809D01*
X64348157Y-109297765D01*
X64397440Y-109050000D01*
X64397440Y-108635000D01*
X65065262Y-108635000D01*
X64965000Y-108877055D01*
X64965000Y-109189347D01*
X65084509Y-109477868D01*
X65305333Y-109698692D01*
X65474329Y-109768692D01*
X65818201Y-110112565D01*
X65818202Y-124152560D01*
X65250000Y-124152560D01*
X65002235Y-124201843D01*
X64892749Y-124275000D01*
X64773750Y-124275000D01*
X64615000Y-124433750D01*
X64615000Y-124526309D01*
X64643374Y-124594811D01*
X64602560Y-124800000D01*
X64602560Y-125065000D01*
X61897440Y-125065000D01*
X61897440Y-124800000D01*
X61856626Y-124594811D01*
X61885000Y-124526309D01*
X61885000Y-124433750D01*
X61726250Y-124275000D01*
X61607251Y-124275000D01*
X61497765Y-124201843D01*
X61250000Y-124152560D01*
X60681799Y-124152560D01*
X60681799Y-123423750D01*
X60877000Y-123423750D01*
X60877000Y-124025000D01*
X61726250Y-124025000D01*
X61885000Y-123866250D01*
X61885000Y-123773691D01*
X64615000Y-123773691D01*
X64615000Y-123866250D01*
X64773750Y-124025000D01*
X65623000Y-124025000D01*
X65623000Y-123423750D01*
X65464250Y-123265000D01*
X65123690Y-123265000D01*
X64890301Y-123361673D01*
X64711673Y-123540302D01*
X64615000Y-123773691D01*
X61885000Y-123773691D01*
X61788327Y-123540302D01*
X61609699Y-123361673D01*
X61376310Y-123265000D01*
X61035750Y-123265000D01*
X60877000Y-123423750D01*
X60681799Y-123423750D01*
X60681799Y-105289363D01*
X61205790Y-104765373D01*
X61265485Y-104725486D01*
X61285001Y-104696279D01*
X61285000Y-106314583D01*
X61285000Y-106314583D01*
G37*
X61285000Y-106314583D02*
X61270993Y-106385000D01*
X61285000Y-106455417D01*
X61326485Y-106663978D01*
X61484514Y-106900485D01*
X61544212Y-106940374D01*
X62034625Y-107430788D01*
X62074514Y-107490486D01*
X62109719Y-107514009D01*
X62102560Y-107550000D01*
X62102560Y-108150000D01*
X62147315Y-108375000D01*
X62102560Y-108600000D01*
X62102560Y-108686277D01*
X61544213Y-109244625D01*
X61484515Y-109284514D01*
X61444626Y-109344212D01*
X61326486Y-109521021D01*
X61270993Y-109800000D01*
X61285001Y-109870422D01*
X61285000Y-112674858D01*
X61215000Y-112843854D01*
X61215000Y-113156146D01*
X61334509Y-113444667D01*
X61555333Y-113665491D01*
X61843854Y-113785000D01*
X62156146Y-113785000D01*
X62444667Y-113665491D01*
X62665491Y-113444667D01*
X62785000Y-113156146D01*
X62785000Y-112843854D01*
X62715000Y-112674859D01*
X62715000Y-110096162D01*
X63113723Y-109697440D01*
X63750000Y-109697440D01*
X63997765Y-109648157D01*
X64207809Y-109507809D01*
X64348157Y-109297765D01*
X64397440Y-109050000D01*
X64397440Y-108635000D01*
X65065262Y-108635000D01*
X64965000Y-108877055D01*
X64965000Y-109189347D01*
X65084509Y-109477868D01*
X65305333Y-109698692D01*
X65474329Y-109768692D01*
X65818201Y-110112565D01*
X65818202Y-124152560D01*
X65250000Y-124152560D01*
X65002235Y-124201843D01*
X64892749Y-124275000D01*
X64773750Y-124275000D01*
X64615000Y-124433750D01*
X64615000Y-124526309D01*
X64643374Y-124594811D01*
X64602560Y-124800000D01*
X64602560Y-125065000D01*
X61897440Y-125065000D01*
X61897440Y-124800000D01*
X61856626Y-124594811D01*
X61885000Y-124526309D01*
X61885000Y-124433750D01*
X61726250Y-124275000D01*
X61607251Y-124275000D01*
X61497765Y-124201843D01*
X61250000Y-124152560D01*
X60681799Y-124152560D01*
X60681799Y-123423750D01*
X60877000Y-123423750D01*
X60877000Y-124025000D01*
X61726250Y-124025000D01*
X61885000Y-123866250D01*
X61885000Y-123773691D01*
X64615000Y-123773691D01*
X64615000Y-123866250D01*
X64773750Y-124025000D01*
X65623000Y-124025000D01*
X65623000Y-123423750D01*
X65464250Y-123265000D01*
X65123690Y-123265000D01*
X64890301Y-123361673D01*
X64711673Y-123540302D01*
X64615000Y-123773691D01*
X61885000Y-123773691D01*
X61788327Y-123540302D01*
X61609699Y-123361673D01*
X61376310Y-123265000D01*
X61035750Y-123265000D01*
X60877000Y-123423750D01*
X60681799Y-123423750D01*
X60681799Y-105289363D01*
X61205790Y-104765373D01*
X61265485Y-104725486D01*
X61285001Y-104696279D01*
X61285000Y-106314583D01*
G36*
X59386347Y-102282510D02*
X59384047Y-102284047D01*
X59340253Y-102349589D01*
X58199590Y-103490253D01*
X58134048Y-103534047D01*
X58090254Y-103599589D01*
X58090251Y-103599592D01*
X57960546Y-103793709D01*
X57899622Y-104100000D01*
X57915001Y-104177317D01*
X57915000Y-113843854D01*
X57915000Y-114122688D01*
X57899622Y-114200000D01*
X57915000Y-114277312D01*
X57915000Y-114277315D01*
X57960546Y-114506291D01*
X58134047Y-114765953D01*
X58199592Y-114809749D01*
X58715001Y-115325159D01*
X58715001Y-118344347D01*
X58567462Y-118315000D01*
X58567461Y-118315000D01*
X58500000Y-118301581D01*
X58432538Y-118315000D01*
X57585000Y-118315000D01*
X57585000Y-100481162D01*
X59386347Y-102282510D01*
X59386347Y-102282510D01*
G37*
X59386347Y-102282510D02*
X59384047Y-102284047D01*
X59340253Y-102349589D01*
X58199590Y-103490253D01*
X58134048Y-103534047D01*
X58090254Y-103599589D01*
X58090251Y-103599592D01*
X57960546Y-103793709D01*
X57899622Y-104100000D01*
X57915001Y-104177317D01*
X57915000Y-113843854D01*
X57915000Y-114122688D01*
X57899622Y-114200000D01*
X57915000Y-114277312D01*
X57915000Y-114277315D01*
X57960546Y-114506291D01*
X58134047Y-114765953D01*
X58199592Y-114809749D01*
X58715001Y-115325159D01*
X58715001Y-118344347D01*
X58567462Y-118315000D01*
X58567461Y-118315000D01*
X58500000Y-118301581D01*
X58432538Y-118315000D01*
X57585000Y-118315000D01*
X57585000Y-100481162D01*
X59386347Y-102282510D01*
G36*
X67535001Y-104179578D02*
X67520993Y-104250000D01*
X67568530Y-104488980D01*
X67576486Y-104528979D01*
X67734515Y-104765486D01*
X67794213Y-104805375D01*
X68318201Y-105329364D01*
X68318202Y-106152560D01*
X67750000Y-106152560D01*
X67502235Y-106201843D01*
X67392749Y-106275000D01*
X67273750Y-106275000D01*
X67115000Y-106433750D01*
X67115000Y-106526309D01*
X67143374Y-106594811D01*
X67102560Y-106800000D01*
X67102560Y-107065000D01*
X66577312Y-107065000D01*
X66500000Y-107049622D01*
X66422688Y-107065000D01*
X64397440Y-107065000D01*
X64397440Y-106800000D01*
X64356626Y-106594811D01*
X64385000Y-106526309D01*
X64385000Y-106433750D01*
X64226250Y-106275000D01*
X64107251Y-106275000D01*
X63997765Y-106201843D01*
X63750000Y-106152560D01*
X63103000Y-106152560D01*
X63103000Y-106025000D01*
X63123000Y-106025000D01*
X63123000Y-105423750D01*
X63377000Y-105423750D01*
X63377000Y-106025000D01*
X64226250Y-106025000D01*
X64385000Y-105866250D01*
X64385000Y-105773691D01*
X64288327Y-105540302D01*
X64109699Y-105361673D01*
X63876310Y-105265000D01*
X63535750Y-105265000D01*
X63377000Y-105423750D01*
X63123000Y-105423750D01*
X62964250Y-105265000D01*
X62715000Y-105265000D01*
X62715000Y-103825141D01*
X62785000Y-103656146D01*
X62785000Y-103635000D01*
X64602560Y-103635000D01*
X64602560Y-104050000D01*
X64651843Y-104297765D01*
X64792191Y-104507809D01*
X65002235Y-104648157D01*
X65035000Y-104654674D01*
X65035000Y-105174859D01*
X64965000Y-105343854D01*
X64965000Y-105656146D01*
X65084509Y-105944667D01*
X65305333Y-106165491D01*
X65593854Y-106285000D01*
X65906146Y-106285000D01*
X66194667Y-106165491D01*
X66415491Y-105944667D01*
X66486311Y-105773691D01*
X67115000Y-105773691D01*
X67115000Y-105866250D01*
X67273750Y-106025000D01*
X68123000Y-106025000D01*
X68123000Y-105423750D01*
X67964250Y-105265000D01*
X67623690Y-105265000D01*
X67390301Y-105361673D01*
X67211673Y-105540302D01*
X67115000Y-105773691D01*
X66486311Y-105773691D01*
X66535000Y-105656146D01*
X66535000Y-105343854D01*
X66465000Y-105174859D01*
X66465000Y-104654674D01*
X66497765Y-104648157D01*
X66707809Y-104507809D01*
X66848157Y-104297765D01*
X66897440Y-104050000D01*
X66897440Y-103649869D01*
X66900000Y-103650378D01*
X66977312Y-103635000D01*
X66977316Y-103635000D01*
X67206292Y-103589454D01*
X67465953Y-103415953D01*
X67509750Y-103350407D01*
X67535001Y-103325156D01*
X67535001Y-104179578D01*
X67535001Y-104179578D01*
G37*
X67535001Y-104179578D02*
X67520993Y-104250000D01*
X67568530Y-104488980D01*
X67576486Y-104528979D01*
X67734515Y-104765486D01*
X67794213Y-104805375D01*
X68318201Y-105329364D01*
X68318202Y-106152560D01*
X67750000Y-106152560D01*
X67502235Y-106201843D01*
X67392749Y-106275000D01*
X67273750Y-106275000D01*
X67115000Y-106433750D01*
X67115000Y-106526309D01*
X67143374Y-106594811D01*
X67102560Y-106800000D01*
X67102560Y-107065000D01*
X66577312Y-107065000D01*
X66500000Y-107049622D01*
X66422688Y-107065000D01*
X64397440Y-107065000D01*
X64397440Y-106800000D01*
X64356626Y-106594811D01*
X64385000Y-106526309D01*
X64385000Y-106433750D01*
X64226250Y-106275000D01*
X64107251Y-106275000D01*
X63997765Y-106201843D01*
X63750000Y-106152560D01*
X63103000Y-106152560D01*
X63103000Y-106025000D01*
X63123000Y-106025000D01*
X63123000Y-105423750D01*
X63377000Y-105423750D01*
X63377000Y-106025000D01*
X64226250Y-106025000D01*
X64385000Y-105866250D01*
X64385000Y-105773691D01*
X64288327Y-105540302D01*
X64109699Y-105361673D01*
X63876310Y-105265000D01*
X63535750Y-105265000D01*
X63377000Y-105423750D01*
X63123000Y-105423750D01*
X62964250Y-105265000D01*
X62715000Y-105265000D01*
X62715000Y-103825141D01*
X62785000Y-103656146D01*
X62785000Y-103635000D01*
X64602560Y-103635000D01*
X64602560Y-104050000D01*
X64651843Y-104297765D01*
X64792191Y-104507809D01*
X65002235Y-104648157D01*
X65035000Y-104654674D01*
X65035000Y-105174859D01*
X64965000Y-105343854D01*
X64965000Y-105656146D01*
X65084509Y-105944667D01*
X65305333Y-106165491D01*
X65593854Y-106285000D01*
X65906146Y-106285000D01*
X66194667Y-106165491D01*
X66415491Y-105944667D01*
X66486311Y-105773691D01*
X67115000Y-105773691D01*
X67115000Y-105866250D01*
X67273750Y-106025000D01*
X68123000Y-106025000D01*
X68123000Y-105423750D01*
X67964250Y-105265000D01*
X67623690Y-105265000D01*
X67390301Y-105361673D01*
X67211673Y-105540302D01*
X67115000Y-105773691D01*
X66486311Y-105773691D01*
X66535000Y-105656146D01*
X66535000Y-105343854D01*
X66465000Y-105174859D01*
X66465000Y-104654674D01*
X66497765Y-104648157D01*
X66707809Y-104507809D01*
X66848157Y-104297765D01*
X66897440Y-104050000D01*
X66897440Y-103649869D01*
X66900000Y-103650378D01*
X66977312Y-103635000D01*
X66977316Y-103635000D01*
X67206292Y-103589454D01*
X67465953Y-103415953D01*
X67509750Y-103350407D01*
X67535001Y-103325156D01*
X67535001Y-104179578D01*
G36*
X64965000Y-88343854D02*
X64965000Y-88656146D01*
X64995167Y-88728976D01*
X65010546Y-88806291D01*
X65054341Y-88871835D01*
X65084509Y-88944667D01*
X65140253Y-89000411D01*
X65184047Y-89065953D01*
X65249589Y-89109747D01*
X65305333Y-89165491D01*
X65378164Y-89195658D01*
X65443708Y-89239454D01*
X65521025Y-89254833D01*
X65593854Y-89285000D01*
X65672684Y-89285000D01*
X65750000Y-89300379D01*
X65827316Y-89285000D01*
X65906146Y-89285000D01*
X65978976Y-89254833D01*
X66056291Y-89239454D01*
X66121835Y-89195659D01*
X66194667Y-89165491D01*
X66250411Y-89109747D01*
X66285001Y-89086635D01*
X66285000Y-100265000D01*
X66035750Y-100265000D01*
X65877000Y-100423750D01*
X65877000Y-101025000D01*
X65897000Y-101025000D01*
X65897000Y-101152560D01*
X65250000Y-101152560D01*
X65002235Y-101201843D01*
X64892749Y-101275000D01*
X64773750Y-101275000D01*
X64615000Y-101433750D01*
X64615000Y-101526309D01*
X64643374Y-101594811D01*
X64602560Y-101800000D01*
X64602560Y-102065000D01*
X61897440Y-102065000D01*
X61897440Y-101800000D01*
X61856626Y-101594811D01*
X61885000Y-101526309D01*
X61885000Y-101433750D01*
X61726250Y-101275000D01*
X61607251Y-101275000D01*
X61497765Y-101201843D01*
X61250000Y-101152560D01*
X60603000Y-101152560D01*
X60603000Y-101025000D01*
X60623000Y-101025000D01*
X60623000Y-100423750D01*
X60877000Y-100423750D01*
X60877000Y-101025000D01*
X61726250Y-101025000D01*
X61885000Y-100866250D01*
X61885000Y-100773691D01*
X64615000Y-100773691D01*
X64615000Y-100866250D01*
X64773750Y-101025000D01*
X65623000Y-101025000D01*
X65623000Y-100423750D01*
X65464250Y-100265000D01*
X65123690Y-100265000D01*
X64890301Y-100361673D01*
X64711673Y-100540302D01*
X64615000Y-100773691D01*
X61885000Y-100773691D01*
X61788327Y-100540302D01*
X61609699Y-100361673D01*
X61376310Y-100265000D01*
X61035750Y-100265000D01*
X60877000Y-100423750D01*
X60623000Y-100423750D01*
X60464250Y-100265000D01*
X60123690Y-100265000D01*
X59890301Y-100361673D01*
X59711673Y-100540302D01*
X59698432Y-100572269D01*
X58715000Y-99588838D01*
X58715000Y-96785000D01*
X60422688Y-96785000D01*
X60500000Y-96800378D01*
X60577312Y-96785000D01*
X60577316Y-96785000D01*
X60806292Y-96739454D01*
X61065953Y-96565953D01*
X61109749Y-96500408D01*
X62500411Y-95109747D01*
X62565953Y-95065953D01*
X62609747Y-95000411D01*
X62609749Y-95000409D01*
X62739453Y-94806293D01*
X62739454Y-94806292D01*
X62785000Y-94577316D01*
X62785000Y-94577312D01*
X62800378Y-94500001D01*
X62785000Y-94422690D01*
X62785000Y-87197440D01*
X63750000Y-87197440D01*
X63997765Y-87148157D01*
X64207809Y-87007809D01*
X64348157Y-86797765D01*
X64397440Y-86550000D01*
X64397440Y-86135000D01*
X64965001Y-86135000D01*
X64965000Y-88343854D01*
X64965000Y-88343854D01*
G37*
X64965000Y-88343854D02*
X64965000Y-88656146D01*
X64995167Y-88728976D01*
X65010546Y-88806291D01*
X65054341Y-88871835D01*
X65084509Y-88944667D01*
X65140253Y-89000411D01*
X65184047Y-89065953D01*
X65249589Y-89109747D01*
X65305333Y-89165491D01*
X65378164Y-89195658D01*
X65443708Y-89239454D01*
X65521025Y-89254833D01*
X65593854Y-89285000D01*
X65672684Y-89285000D01*
X65750000Y-89300379D01*
X65827316Y-89285000D01*
X65906146Y-89285000D01*
X65978976Y-89254833D01*
X66056291Y-89239454D01*
X66121835Y-89195659D01*
X66194667Y-89165491D01*
X66250411Y-89109747D01*
X66285001Y-89086635D01*
X66285000Y-100265000D01*
X66035750Y-100265000D01*
X65877000Y-100423750D01*
X65877000Y-101025000D01*
X65897000Y-101025000D01*
X65897000Y-101152560D01*
X65250000Y-101152560D01*
X65002235Y-101201843D01*
X64892749Y-101275000D01*
X64773750Y-101275000D01*
X64615000Y-101433750D01*
X64615000Y-101526309D01*
X64643374Y-101594811D01*
X64602560Y-101800000D01*
X64602560Y-102065000D01*
X61897440Y-102065000D01*
X61897440Y-101800000D01*
X61856626Y-101594811D01*
X61885000Y-101526309D01*
X61885000Y-101433750D01*
X61726250Y-101275000D01*
X61607251Y-101275000D01*
X61497765Y-101201843D01*
X61250000Y-101152560D01*
X60603000Y-101152560D01*
X60603000Y-101025000D01*
X60623000Y-101025000D01*
X60623000Y-100423750D01*
X60877000Y-100423750D01*
X60877000Y-101025000D01*
X61726250Y-101025000D01*
X61885000Y-100866250D01*
X61885000Y-100773691D01*
X64615000Y-100773691D01*
X64615000Y-100866250D01*
X64773750Y-101025000D01*
X65623000Y-101025000D01*
X65623000Y-100423750D01*
X65464250Y-100265000D01*
X65123690Y-100265000D01*
X64890301Y-100361673D01*
X64711673Y-100540302D01*
X64615000Y-100773691D01*
X61885000Y-100773691D01*
X61788327Y-100540302D01*
X61609699Y-100361673D01*
X61376310Y-100265000D01*
X61035750Y-100265000D01*
X60877000Y-100423750D01*
X60623000Y-100423750D01*
X60464250Y-100265000D01*
X60123690Y-100265000D01*
X59890301Y-100361673D01*
X59711673Y-100540302D01*
X59698432Y-100572269D01*
X58715000Y-99588838D01*
X58715000Y-96785000D01*
X60422688Y-96785000D01*
X60500000Y-96800378D01*
X60577312Y-96785000D01*
X60577316Y-96785000D01*
X60806292Y-96739454D01*
X61065953Y-96565953D01*
X61109749Y-96500408D01*
X62500411Y-95109747D01*
X62565953Y-95065953D01*
X62609747Y-95000411D01*
X62609749Y-95000409D01*
X62739453Y-94806293D01*
X62739454Y-94806292D01*
X62785000Y-94577316D01*
X62785000Y-94577312D01*
X62800378Y-94500001D01*
X62785000Y-94422690D01*
X62785000Y-87197440D01*
X63750000Y-87197440D01*
X63997765Y-87148157D01*
X64207809Y-87007809D01*
X64348157Y-86797765D01*
X64397440Y-86550000D01*
X64397440Y-86135000D01*
X64965001Y-86135000D01*
X64965000Y-88343854D01*
G36*
X61215001Y-94174841D02*
X60174843Y-95215000D01*
X58715000Y-95215000D01*
X58715000Y-92267392D01*
X61205790Y-89776603D01*
X61215000Y-89770449D01*
X61215001Y-94174841D01*
X61215001Y-94174841D01*
G37*
X61215001Y-94174841D02*
X60174843Y-95215000D01*
X58715000Y-95215000D01*
X58715000Y-92267392D01*
X61205790Y-89776603D01*
X61215000Y-89770449D01*
X61215001Y-94174841D01*
G36*
X59815001Y-74932534D02*
X59801581Y-75000000D01*
X59854745Y-75267273D01*
X60006143Y-75493857D01*
X60232727Y-75645255D01*
X60432538Y-75685000D01*
X60432539Y-75685000D01*
X60500000Y-75698419D01*
X60567462Y-75685000D01*
X67432538Y-75685000D01*
X67500000Y-75698419D01*
X67567461Y-75685000D01*
X67567462Y-75685000D01*
X67767273Y-75645255D01*
X67993857Y-75493857D01*
X68145255Y-75267273D01*
X68198419Y-75000000D01*
X68185000Y-74932538D01*
X68185000Y-73127000D01*
X68815000Y-73127000D01*
X68815001Y-74932535D01*
X68815000Y-74932540D01*
X68815000Y-82765000D01*
X68535750Y-82765000D01*
X68377000Y-82923750D01*
X68377000Y-83525000D01*
X68397000Y-83525000D01*
X68397000Y-83652560D01*
X68103000Y-83652560D01*
X68103000Y-83525000D01*
X68123000Y-83525000D01*
X68123000Y-82923750D01*
X67964250Y-82765000D01*
X67752338Y-82765000D01*
X67715000Y-82674859D01*
X67715000Y-82370416D01*
X67729007Y-82299999D01*
X67708607Y-82197440D01*
X67673515Y-82021021D01*
X67515486Y-81784514D01*
X67455788Y-81744625D01*
X66897440Y-81186278D01*
X66897440Y-81100000D01*
X66852685Y-80875000D01*
X66897440Y-80650000D01*
X66897440Y-80050000D01*
X66857658Y-79850000D01*
X66897440Y-79650000D01*
X66897440Y-79300000D01*
X66856626Y-79094811D01*
X66885000Y-79026309D01*
X66885000Y-78933750D01*
X66726250Y-78775000D01*
X66607251Y-78775000D01*
X66497765Y-78701843D01*
X66250000Y-78652560D01*
X65250000Y-78652560D01*
X65002235Y-78701843D01*
X64892749Y-78775000D01*
X64773750Y-78775000D01*
X64615000Y-78933750D01*
X64615000Y-79026309D01*
X64643374Y-79094811D01*
X64602560Y-79300000D01*
X64602560Y-79565000D01*
X62077316Y-79565000D01*
X62000000Y-79549621D01*
X61922684Y-79565000D01*
X61897440Y-79565000D01*
X61897440Y-79300000D01*
X61856626Y-79094811D01*
X61885000Y-79026309D01*
X61885000Y-78933750D01*
X61726250Y-78775000D01*
X61607251Y-78775000D01*
X61497765Y-78701843D01*
X61250000Y-78652560D01*
X60250000Y-78652560D01*
X60002235Y-78701843D01*
X59892749Y-78775000D01*
X59773750Y-78775000D01*
X59615000Y-78933750D01*
X59615000Y-79026309D01*
X59643374Y-79094811D01*
X59602560Y-79300000D01*
X59602560Y-79650000D01*
X59642342Y-79850000D01*
X59602560Y-80050000D01*
X59602560Y-80650000D01*
X59647315Y-80875000D01*
X59602560Y-81100000D01*
X59602560Y-81550000D01*
X59651843Y-81797765D01*
X59792191Y-82007809D01*
X60002235Y-82148157D01*
X60035001Y-82154674D01*
X60035000Y-88925067D01*
X59185000Y-89775067D01*
X59185000Y-78273691D01*
X59615000Y-78273691D01*
X59615000Y-78366250D01*
X59773750Y-78525000D01*
X60623000Y-78525000D01*
X60623000Y-77923750D01*
X60877000Y-77923750D01*
X60877000Y-78525000D01*
X61726250Y-78525000D01*
X61885000Y-78366250D01*
X61885000Y-78273691D01*
X64615000Y-78273691D01*
X64615000Y-78366250D01*
X64773750Y-78525000D01*
X65623000Y-78525000D01*
X65623000Y-77923750D01*
X65877000Y-77923750D01*
X65877000Y-78525000D01*
X66726250Y-78525000D01*
X66885000Y-78366250D01*
X66885000Y-78273691D01*
X66788327Y-78040302D01*
X66609699Y-77861673D01*
X66376310Y-77765000D01*
X66035750Y-77765000D01*
X65877000Y-77923750D01*
X65623000Y-77923750D01*
X65464250Y-77765000D01*
X65123690Y-77765000D01*
X64890301Y-77861673D01*
X64711673Y-78040302D01*
X64615000Y-78273691D01*
X61885000Y-78273691D01*
X61788327Y-78040302D01*
X61609699Y-77861673D01*
X61376310Y-77765000D01*
X61035750Y-77765000D01*
X60877000Y-77923750D01*
X60623000Y-77923750D01*
X60464250Y-77765000D01*
X60123690Y-77765000D01*
X59890301Y-77861673D01*
X59711673Y-78040302D01*
X59615000Y-78273691D01*
X59185000Y-78273691D01*
X59185000Y-73127000D01*
X59815000Y-73127000D01*
X59815001Y-74932534D01*
X59815001Y-74932534D01*
G37*
X59815001Y-74932534D02*
X59801581Y-75000000D01*
X59854745Y-75267273D01*
X60006143Y-75493857D01*
X60232727Y-75645255D01*
X60432538Y-75685000D01*
X60432539Y-75685000D01*
X60500000Y-75698419D01*
X60567462Y-75685000D01*
X67432538Y-75685000D01*
X67500000Y-75698419D01*
X67567461Y-75685000D01*
X67567462Y-75685000D01*
X67767273Y-75645255D01*
X67993857Y-75493857D01*
X68145255Y-75267273D01*
X68198419Y-75000000D01*
X68185000Y-74932538D01*
X68185000Y-73127000D01*
X68815000Y-73127000D01*
X68815001Y-74932535D01*
X68815000Y-74932540D01*
X68815000Y-82765000D01*
X68535750Y-82765000D01*
X68377000Y-82923750D01*
X68377000Y-83525000D01*
X68397000Y-83525000D01*
X68397000Y-83652560D01*
X68103000Y-83652560D01*
X68103000Y-83525000D01*
X68123000Y-83525000D01*
X68123000Y-82923750D01*
X67964250Y-82765000D01*
X67752338Y-82765000D01*
X67715000Y-82674859D01*
X67715000Y-82370416D01*
X67729007Y-82299999D01*
X67708607Y-82197440D01*
X67673515Y-82021021D01*
X67515486Y-81784514D01*
X67455788Y-81744625D01*
X66897440Y-81186278D01*
X66897440Y-81100000D01*
X66852685Y-80875000D01*
X66897440Y-80650000D01*
X66897440Y-80050000D01*
X66857658Y-79850000D01*
X66897440Y-79650000D01*
X66897440Y-79300000D01*
X66856626Y-79094811D01*
X66885000Y-79026309D01*
X66885000Y-78933750D01*
X66726250Y-78775000D01*
X66607251Y-78775000D01*
X66497765Y-78701843D01*
X66250000Y-78652560D01*
X65250000Y-78652560D01*
X65002235Y-78701843D01*
X64892749Y-78775000D01*
X64773750Y-78775000D01*
X64615000Y-78933750D01*
X64615000Y-79026309D01*
X64643374Y-79094811D01*
X64602560Y-79300000D01*
X64602560Y-79565000D01*
X62077316Y-79565000D01*
X62000000Y-79549621D01*
X61922684Y-79565000D01*
X61897440Y-79565000D01*
X61897440Y-79300000D01*
X61856626Y-79094811D01*
X61885000Y-79026309D01*
X61885000Y-78933750D01*
X61726250Y-78775000D01*
X61607251Y-78775000D01*
X61497765Y-78701843D01*
X61250000Y-78652560D01*
X60250000Y-78652560D01*
X60002235Y-78701843D01*
X59892749Y-78775000D01*
X59773750Y-78775000D01*
X59615000Y-78933750D01*
X59615000Y-79026309D01*
X59643374Y-79094811D01*
X59602560Y-79300000D01*
X59602560Y-79650000D01*
X59642342Y-79850000D01*
X59602560Y-80050000D01*
X59602560Y-80650000D01*
X59647315Y-80875000D01*
X59602560Y-81100000D01*
X59602560Y-81550000D01*
X59651843Y-81797765D01*
X59792191Y-82007809D01*
X60002235Y-82148157D01*
X60035001Y-82154674D01*
X60035000Y-88925067D01*
X59185000Y-89775067D01*
X59185000Y-78273691D01*
X59615000Y-78273691D01*
X59615000Y-78366250D01*
X59773750Y-78525000D01*
X60623000Y-78525000D01*
X60623000Y-77923750D01*
X60877000Y-77923750D01*
X60877000Y-78525000D01*
X61726250Y-78525000D01*
X61885000Y-78366250D01*
X61885000Y-78273691D01*
X64615000Y-78273691D01*
X64615000Y-78366250D01*
X64773750Y-78525000D01*
X65623000Y-78525000D01*
X65623000Y-77923750D01*
X65877000Y-77923750D01*
X65877000Y-78525000D01*
X66726250Y-78525000D01*
X66885000Y-78366250D01*
X66885000Y-78273691D01*
X66788327Y-78040302D01*
X66609699Y-77861673D01*
X66376310Y-77765000D01*
X66035750Y-77765000D01*
X65877000Y-77923750D01*
X65623000Y-77923750D01*
X65464250Y-77765000D01*
X65123690Y-77765000D01*
X64890301Y-77861673D01*
X64711673Y-78040302D01*
X64615000Y-78273691D01*
X61885000Y-78273691D01*
X61788327Y-78040302D01*
X61609699Y-77861673D01*
X61376310Y-77765000D01*
X61035750Y-77765000D01*
X60877000Y-77923750D01*
X60623000Y-77923750D01*
X60464250Y-77765000D01*
X60123690Y-77765000D01*
X59890301Y-77861673D01*
X59711673Y-78040302D01*
X59615000Y-78273691D01*
X59185000Y-78273691D01*
X59185000Y-73127000D01*
X59815000Y-73127000D01*
X59815001Y-74932534D01*
G36*
X64602560Y-81550000D02*
X64651843Y-81797765D01*
X64792191Y-82007809D01*
X65002235Y-82148157D01*
X65250000Y-82197440D01*
X65886278Y-82197440D01*
X66285000Y-82596163D01*
X66285000Y-82674859D01*
X66215000Y-82843854D01*
X66215000Y-83156146D01*
X66334509Y-83444667D01*
X66555333Y-83665491D01*
X66843854Y-83785000D01*
X67156146Y-83785000D01*
X67175455Y-83777002D01*
X67271748Y-83777002D01*
X67115000Y-83933750D01*
X67115000Y-84026309D01*
X67143374Y-84094811D01*
X67102560Y-84300000D01*
X67102560Y-84565000D01*
X65827316Y-84565000D01*
X65750000Y-84549621D01*
X65672684Y-84565000D01*
X64397440Y-84565000D01*
X64397440Y-84300000D01*
X64356626Y-84094811D01*
X64385000Y-84026309D01*
X64385000Y-83933750D01*
X64226250Y-83775000D01*
X64107251Y-83775000D01*
X63997765Y-83701843D01*
X63750000Y-83652560D01*
X63103000Y-83652560D01*
X63103000Y-83525000D01*
X63123000Y-83525000D01*
X63123000Y-82923750D01*
X63377000Y-82923750D01*
X63377000Y-83525000D01*
X64226250Y-83525000D01*
X64385000Y-83366250D01*
X64385000Y-83273691D01*
X64288327Y-83040302D01*
X64109699Y-82861673D01*
X63876310Y-82765000D01*
X63535750Y-82765000D01*
X63377000Y-82923750D01*
X63123000Y-82923750D01*
X62964250Y-82765000D01*
X62785000Y-82765000D01*
X62785000Y-81135000D01*
X64602560Y-81135000D01*
X64602560Y-81550000D01*
X64602560Y-81550000D01*
G37*
X64602560Y-81550000D02*
X64651843Y-81797765D01*
X64792191Y-82007809D01*
X65002235Y-82148157D01*
X65250000Y-82197440D01*
X65886278Y-82197440D01*
X66285000Y-82596163D01*
X66285000Y-82674859D01*
X66215000Y-82843854D01*
X66215000Y-83156146D01*
X66334509Y-83444667D01*
X66555333Y-83665491D01*
X66843854Y-83785000D01*
X67156146Y-83785000D01*
X67175455Y-83777002D01*
X67271748Y-83777002D01*
X67115000Y-83933750D01*
X67115000Y-84026309D01*
X67143374Y-84094811D01*
X67102560Y-84300000D01*
X67102560Y-84565000D01*
X65827316Y-84565000D01*
X65750000Y-84549621D01*
X65672684Y-84565000D01*
X64397440Y-84565000D01*
X64397440Y-84300000D01*
X64356626Y-84094811D01*
X64385000Y-84026309D01*
X64385000Y-83933750D01*
X64226250Y-83775000D01*
X64107251Y-83775000D01*
X63997765Y-83701843D01*
X63750000Y-83652560D01*
X63103000Y-83652560D01*
X63103000Y-83525000D01*
X63123000Y-83525000D01*
X63123000Y-82923750D01*
X63377000Y-82923750D01*
X63377000Y-83525000D01*
X64226250Y-83525000D01*
X64385000Y-83366250D01*
X64385000Y-83273691D01*
X64288327Y-83040302D01*
X64109699Y-82861673D01*
X63876310Y-82765000D01*
X63535750Y-82765000D01*
X63377000Y-82923750D01*
X63123000Y-82923750D01*
X62964250Y-82765000D01*
X62785000Y-82765000D01*
X62785000Y-81135000D01*
X64602560Y-81135000D01*
X64602560Y-81550000D01*
G04 #@! TO.N,Net-(D13-Pad4)*
G36*
X82318202Y-110289365D02*
X82318201Y-128652560D01*
X81750000Y-128652560D01*
X81502235Y-128701843D01*
X81392749Y-128775000D01*
X81273750Y-128775000D01*
X81115000Y-128933750D01*
X81115000Y-129026309D01*
X81143374Y-129094811D01*
X81102560Y-129300000D01*
X81102560Y-129565000D01*
X78397440Y-129565000D01*
X78397440Y-129300000D01*
X78356626Y-129094811D01*
X78385000Y-129026309D01*
X78385000Y-128933750D01*
X78226250Y-128775000D01*
X78107251Y-128775000D01*
X77997765Y-128701843D01*
X77750000Y-128652560D01*
X77103000Y-128652560D01*
X77103000Y-128525000D01*
X77123000Y-128525000D01*
X77123000Y-127923750D01*
X77377000Y-127923750D01*
X77377000Y-128525000D01*
X78226250Y-128525000D01*
X78385000Y-128366250D01*
X78385000Y-128273691D01*
X81115000Y-128273691D01*
X81115000Y-128366250D01*
X81273750Y-128525000D01*
X82123000Y-128525000D01*
X82123000Y-127923750D01*
X81964250Y-127765000D01*
X81623690Y-127765000D01*
X81390301Y-127861673D01*
X81211673Y-128040302D01*
X81115000Y-128273691D01*
X78385000Y-128273691D01*
X78288327Y-128040302D01*
X78109699Y-127861673D01*
X77876310Y-127765000D01*
X77535750Y-127765000D01*
X77377000Y-127923750D01*
X77123000Y-127923750D01*
X76964250Y-127765000D01*
X76715000Y-127765000D01*
X76715000Y-126825141D01*
X76785000Y-126656146D01*
X76785000Y-126635000D01*
X78602560Y-126635000D01*
X78602560Y-127050000D01*
X78651843Y-127297765D01*
X78792191Y-127507809D01*
X79002235Y-127648157D01*
X79250000Y-127697440D01*
X80250000Y-127697440D01*
X80497765Y-127648157D01*
X80707809Y-127507809D01*
X80848157Y-127297765D01*
X80897440Y-127050000D01*
X80897440Y-126600000D01*
X80890761Y-126566422D01*
X81115953Y-126415953D01*
X81159749Y-126350408D01*
X81897207Y-125612950D01*
X81962752Y-125569154D01*
X82136253Y-125309493D01*
X82181799Y-125080517D01*
X82181799Y-125080513D01*
X82197177Y-125003201D01*
X82181799Y-124925889D01*
X82181799Y-110152962D01*
X82318202Y-110289365D01*
X82318202Y-110289365D01*
G37*
X82318202Y-110289365D02*
X82318201Y-128652560D01*
X81750000Y-128652560D01*
X81502235Y-128701843D01*
X81392749Y-128775000D01*
X81273750Y-128775000D01*
X81115000Y-128933750D01*
X81115000Y-129026309D01*
X81143374Y-129094811D01*
X81102560Y-129300000D01*
X81102560Y-129565000D01*
X78397440Y-129565000D01*
X78397440Y-129300000D01*
X78356626Y-129094811D01*
X78385000Y-129026309D01*
X78385000Y-128933750D01*
X78226250Y-128775000D01*
X78107251Y-128775000D01*
X77997765Y-128701843D01*
X77750000Y-128652560D01*
X77103000Y-128652560D01*
X77103000Y-128525000D01*
X77123000Y-128525000D01*
X77123000Y-127923750D01*
X77377000Y-127923750D01*
X77377000Y-128525000D01*
X78226250Y-128525000D01*
X78385000Y-128366250D01*
X78385000Y-128273691D01*
X81115000Y-128273691D01*
X81115000Y-128366250D01*
X81273750Y-128525000D01*
X82123000Y-128525000D01*
X82123000Y-127923750D01*
X81964250Y-127765000D01*
X81623690Y-127765000D01*
X81390301Y-127861673D01*
X81211673Y-128040302D01*
X81115000Y-128273691D01*
X78385000Y-128273691D01*
X78288327Y-128040302D01*
X78109699Y-127861673D01*
X77876310Y-127765000D01*
X77535750Y-127765000D01*
X77377000Y-127923750D01*
X77123000Y-127923750D01*
X76964250Y-127765000D01*
X76715000Y-127765000D01*
X76715000Y-126825141D01*
X76785000Y-126656146D01*
X76785000Y-126635000D01*
X78602560Y-126635000D01*
X78602560Y-127050000D01*
X78651843Y-127297765D01*
X78792191Y-127507809D01*
X79002235Y-127648157D01*
X79250000Y-127697440D01*
X80250000Y-127697440D01*
X80497765Y-127648157D01*
X80707809Y-127507809D01*
X80848157Y-127297765D01*
X80897440Y-127050000D01*
X80897440Y-126600000D01*
X80890761Y-126566422D01*
X81115953Y-126415953D01*
X81159749Y-126350408D01*
X81897207Y-125612950D01*
X81962752Y-125569154D01*
X82136253Y-125309493D01*
X82181799Y-125080517D01*
X82181799Y-125080513D01*
X82197177Y-125003201D01*
X82181799Y-124925889D01*
X82181799Y-110152962D01*
X82318202Y-110289365D01*
G36*
X75285000Y-106314583D02*
X75270993Y-106385000D01*
X75285000Y-106455417D01*
X75326485Y-106663978D01*
X75484514Y-106900485D01*
X75544212Y-106940374D01*
X76034625Y-107430788D01*
X76074514Y-107490486D01*
X76109719Y-107514009D01*
X76102560Y-107550000D01*
X76102560Y-108150000D01*
X76147315Y-108375000D01*
X76102560Y-108600000D01*
X76102560Y-108686277D01*
X75544213Y-109244625D01*
X75484515Y-109284514D01*
X75444626Y-109344212D01*
X75326486Y-109521021D01*
X75270993Y-109800000D01*
X75285001Y-109870422D01*
X75285000Y-112674858D01*
X75215000Y-112843854D01*
X75215000Y-113156146D01*
X75334509Y-113444667D01*
X75555333Y-113665491D01*
X75843854Y-113785000D01*
X76156146Y-113785000D01*
X76444667Y-113665491D01*
X76665491Y-113444667D01*
X76785000Y-113156146D01*
X76785000Y-112843854D01*
X76715000Y-112674859D01*
X76715000Y-110096162D01*
X77113723Y-109697440D01*
X77750000Y-109697440D01*
X77997765Y-109648157D01*
X78207809Y-109507809D01*
X78348157Y-109297765D01*
X78397440Y-109050000D01*
X78397440Y-108635000D01*
X79065262Y-108635000D01*
X78965000Y-108877055D01*
X78965000Y-109189347D01*
X79084509Y-109477868D01*
X79305333Y-109698692D01*
X79474329Y-109768692D01*
X79818201Y-110112565D01*
X79818202Y-124152560D01*
X79250000Y-124152560D01*
X79002235Y-124201843D01*
X78892749Y-124275000D01*
X78773750Y-124275000D01*
X78615000Y-124433750D01*
X78615000Y-124526309D01*
X78643374Y-124594811D01*
X78602560Y-124800000D01*
X78602560Y-125065000D01*
X75897440Y-125065000D01*
X75897440Y-124800000D01*
X75856626Y-124594811D01*
X75885000Y-124526309D01*
X75885000Y-124433750D01*
X75726250Y-124275000D01*
X75607251Y-124275000D01*
X75497765Y-124201843D01*
X75250000Y-124152560D01*
X74681799Y-124152560D01*
X74681799Y-123423750D01*
X74877000Y-123423750D01*
X74877000Y-124025000D01*
X75726250Y-124025000D01*
X75885000Y-123866250D01*
X75885000Y-123773691D01*
X78615000Y-123773691D01*
X78615000Y-123866250D01*
X78773750Y-124025000D01*
X79623000Y-124025000D01*
X79623000Y-123423750D01*
X79464250Y-123265000D01*
X79123690Y-123265000D01*
X78890301Y-123361673D01*
X78711673Y-123540302D01*
X78615000Y-123773691D01*
X75885000Y-123773691D01*
X75788327Y-123540302D01*
X75609699Y-123361673D01*
X75376310Y-123265000D01*
X75035750Y-123265000D01*
X74877000Y-123423750D01*
X74681799Y-123423750D01*
X74681799Y-105289363D01*
X75205790Y-104765373D01*
X75265485Y-104725486D01*
X75285001Y-104696279D01*
X75285000Y-106314583D01*
X75285000Y-106314583D01*
G37*
X75285000Y-106314583D02*
X75270993Y-106385000D01*
X75285000Y-106455417D01*
X75326485Y-106663978D01*
X75484514Y-106900485D01*
X75544212Y-106940374D01*
X76034625Y-107430788D01*
X76074514Y-107490486D01*
X76109719Y-107514009D01*
X76102560Y-107550000D01*
X76102560Y-108150000D01*
X76147315Y-108375000D01*
X76102560Y-108600000D01*
X76102560Y-108686277D01*
X75544213Y-109244625D01*
X75484515Y-109284514D01*
X75444626Y-109344212D01*
X75326486Y-109521021D01*
X75270993Y-109800000D01*
X75285001Y-109870422D01*
X75285000Y-112674858D01*
X75215000Y-112843854D01*
X75215000Y-113156146D01*
X75334509Y-113444667D01*
X75555333Y-113665491D01*
X75843854Y-113785000D01*
X76156146Y-113785000D01*
X76444667Y-113665491D01*
X76665491Y-113444667D01*
X76785000Y-113156146D01*
X76785000Y-112843854D01*
X76715000Y-112674859D01*
X76715000Y-110096162D01*
X77113723Y-109697440D01*
X77750000Y-109697440D01*
X77997765Y-109648157D01*
X78207809Y-109507809D01*
X78348157Y-109297765D01*
X78397440Y-109050000D01*
X78397440Y-108635000D01*
X79065262Y-108635000D01*
X78965000Y-108877055D01*
X78965000Y-109189347D01*
X79084509Y-109477868D01*
X79305333Y-109698692D01*
X79474329Y-109768692D01*
X79818201Y-110112565D01*
X79818202Y-124152560D01*
X79250000Y-124152560D01*
X79002235Y-124201843D01*
X78892749Y-124275000D01*
X78773750Y-124275000D01*
X78615000Y-124433750D01*
X78615000Y-124526309D01*
X78643374Y-124594811D01*
X78602560Y-124800000D01*
X78602560Y-125065000D01*
X75897440Y-125065000D01*
X75897440Y-124800000D01*
X75856626Y-124594811D01*
X75885000Y-124526309D01*
X75885000Y-124433750D01*
X75726250Y-124275000D01*
X75607251Y-124275000D01*
X75497765Y-124201843D01*
X75250000Y-124152560D01*
X74681799Y-124152560D01*
X74681799Y-123423750D01*
X74877000Y-123423750D01*
X74877000Y-124025000D01*
X75726250Y-124025000D01*
X75885000Y-123866250D01*
X75885000Y-123773691D01*
X78615000Y-123773691D01*
X78615000Y-123866250D01*
X78773750Y-124025000D01*
X79623000Y-124025000D01*
X79623000Y-123423750D01*
X79464250Y-123265000D01*
X79123690Y-123265000D01*
X78890301Y-123361673D01*
X78711673Y-123540302D01*
X78615000Y-123773691D01*
X75885000Y-123773691D01*
X75788327Y-123540302D01*
X75609699Y-123361673D01*
X75376310Y-123265000D01*
X75035750Y-123265000D01*
X74877000Y-123423750D01*
X74681799Y-123423750D01*
X74681799Y-105289363D01*
X75205790Y-104765373D01*
X75265485Y-104725486D01*
X75285001Y-104696279D01*
X75285000Y-106314583D01*
G36*
X73386347Y-102282510D02*
X73384047Y-102284047D01*
X73340253Y-102349589D01*
X72199590Y-103490253D01*
X72134048Y-103534047D01*
X72090254Y-103599589D01*
X72090251Y-103599592D01*
X71960546Y-103793709D01*
X71899622Y-104100000D01*
X71915001Y-104177317D01*
X71915000Y-113843854D01*
X71915000Y-114122688D01*
X71899622Y-114200000D01*
X71915000Y-114277312D01*
X71915000Y-114277315D01*
X71960546Y-114506291D01*
X72134047Y-114765953D01*
X72199592Y-114809749D01*
X72715001Y-115325159D01*
X72715001Y-118344347D01*
X72567462Y-118315000D01*
X72567461Y-118315000D01*
X72500000Y-118301581D01*
X72432538Y-118315000D01*
X71585000Y-118315000D01*
X71585000Y-100481162D01*
X73386347Y-102282510D01*
X73386347Y-102282510D01*
G37*
X73386347Y-102282510D02*
X73384047Y-102284047D01*
X73340253Y-102349589D01*
X72199590Y-103490253D01*
X72134048Y-103534047D01*
X72090254Y-103599589D01*
X72090251Y-103599592D01*
X71960546Y-103793709D01*
X71899622Y-104100000D01*
X71915001Y-104177317D01*
X71915000Y-113843854D01*
X71915000Y-114122688D01*
X71899622Y-114200000D01*
X71915000Y-114277312D01*
X71915000Y-114277315D01*
X71960546Y-114506291D01*
X72134047Y-114765953D01*
X72199592Y-114809749D01*
X72715001Y-115325159D01*
X72715001Y-118344347D01*
X72567462Y-118315000D01*
X72567461Y-118315000D01*
X72500000Y-118301581D01*
X72432538Y-118315000D01*
X71585000Y-118315000D01*
X71585000Y-100481162D01*
X73386347Y-102282510D01*
G36*
X81535001Y-104179578D02*
X81520993Y-104250000D01*
X81568530Y-104488980D01*
X81576486Y-104528979D01*
X81734515Y-104765486D01*
X81794213Y-104805375D01*
X82318201Y-105329364D01*
X82318202Y-106152560D01*
X81750000Y-106152560D01*
X81502235Y-106201843D01*
X81392749Y-106275000D01*
X81273750Y-106275000D01*
X81115000Y-106433750D01*
X81115000Y-106526309D01*
X81143374Y-106594811D01*
X81102560Y-106800000D01*
X81102560Y-107065000D01*
X80577312Y-107065000D01*
X80500000Y-107049622D01*
X80422688Y-107065000D01*
X78397440Y-107065000D01*
X78397440Y-106800000D01*
X78356626Y-106594811D01*
X78385000Y-106526309D01*
X78385000Y-106433750D01*
X78226250Y-106275000D01*
X78107251Y-106275000D01*
X77997765Y-106201843D01*
X77750000Y-106152560D01*
X77103000Y-106152560D01*
X77103000Y-106025000D01*
X77123000Y-106025000D01*
X77123000Y-105423750D01*
X77377000Y-105423750D01*
X77377000Y-106025000D01*
X78226250Y-106025000D01*
X78385000Y-105866250D01*
X78385000Y-105773691D01*
X78288327Y-105540302D01*
X78109699Y-105361673D01*
X77876310Y-105265000D01*
X77535750Y-105265000D01*
X77377000Y-105423750D01*
X77123000Y-105423750D01*
X76964250Y-105265000D01*
X76715000Y-105265000D01*
X76715000Y-103825141D01*
X76785000Y-103656146D01*
X76785000Y-103635000D01*
X78602560Y-103635000D01*
X78602560Y-104050000D01*
X78651843Y-104297765D01*
X78792191Y-104507809D01*
X79002235Y-104648157D01*
X79035000Y-104654674D01*
X79035000Y-105174859D01*
X78965000Y-105343854D01*
X78965000Y-105656146D01*
X79084509Y-105944667D01*
X79305333Y-106165491D01*
X79593854Y-106285000D01*
X79906146Y-106285000D01*
X80194667Y-106165491D01*
X80415491Y-105944667D01*
X80486311Y-105773691D01*
X81115000Y-105773691D01*
X81115000Y-105866250D01*
X81273750Y-106025000D01*
X82123000Y-106025000D01*
X82123000Y-105423750D01*
X81964250Y-105265000D01*
X81623690Y-105265000D01*
X81390301Y-105361673D01*
X81211673Y-105540302D01*
X81115000Y-105773691D01*
X80486311Y-105773691D01*
X80535000Y-105656146D01*
X80535000Y-105343854D01*
X80465000Y-105174859D01*
X80465000Y-104654674D01*
X80497765Y-104648157D01*
X80707809Y-104507809D01*
X80848157Y-104297765D01*
X80897440Y-104050000D01*
X80897440Y-103649869D01*
X80900000Y-103650378D01*
X80977312Y-103635000D01*
X80977316Y-103635000D01*
X81206292Y-103589454D01*
X81465953Y-103415953D01*
X81509750Y-103350407D01*
X81535001Y-103325156D01*
X81535001Y-104179578D01*
X81535001Y-104179578D01*
G37*
X81535001Y-104179578D02*
X81520993Y-104250000D01*
X81568530Y-104488980D01*
X81576486Y-104528979D01*
X81734515Y-104765486D01*
X81794213Y-104805375D01*
X82318201Y-105329364D01*
X82318202Y-106152560D01*
X81750000Y-106152560D01*
X81502235Y-106201843D01*
X81392749Y-106275000D01*
X81273750Y-106275000D01*
X81115000Y-106433750D01*
X81115000Y-106526309D01*
X81143374Y-106594811D01*
X81102560Y-106800000D01*
X81102560Y-107065000D01*
X80577312Y-107065000D01*
X80500000Y-107049622D01*
X80422688Y-107065000D01*
X78397440Y-107065000D01*
X78397440Y-106800000D01*
X78356626Y-106594811D01*
X78385000Y-106526309D01*
X78385000Y-106433750D01*
X78226250Y-106275000D01*
X78107251Y-106275000D01*
X77997765Y-106201843D01*
X77750000Y-106152560D01*
X77103000Y-106152560D01*
X77103000Y-106025000D01*
X77123000Y-106025000D01*
X77123000Y-105423750D01*
X77377000Y-105423750D01*
X77377000Y-106025000D01*
X78226250Y-106025000D01*
X78385000Y-105866250D01*
X78385000Y-105773691D01*
X78288327Y-105540302D01*
X78109699Y-105361673D01*
X77876310Y-105265000D01*
X77535750Y-105265000D01*
X77377000Y-105423750D01*
X77123000Y-105423750D01*
X76964250Y-105265000D01*
X76715000Y-105265000D01*
X76715000Y-103825141D01*
X76785000Y-103656146D01*
X76785000Y-103635000D01*
X78602560Y-103635000D01*
X78602560Y-104050000D01*
X78651843Y-104297765D01*
X78792191Y-104507809D01*
X79002235Y-104648157D01*
X79035000Y-104654674D01*
X79035000Y-105174859D01*
X78965000Y-105343854D01*
X78965000Y-105656146D01*
X79084509Y-105944667D01*
X79305333Y-106165491D01*
X79593854Y-106285000D01*
X79906146Y-106285000D01*
X80194667Y-106165491D01*
X80415491Y-105944667D01*
X80486311Y-105773691D01*
X81115000Y-105773691D01*
X81115000Y-105866250D01*
X81273750Y-106025000D01*
X82123000Y-106025000D01*
X82123000Y-105423750D01*
X81964250Y-105265000D01*
X81623690Y-105265000D01*
X81390301Y-105361673D01*
X81211673Y-105540302D01*
X81115000Y-105773691D01*
X80486311Y-105773691D01*
X80535000Y-105656146D01*
X80535000Y-105343854D01*
X80465000Y-105174859D01*
X80465000Y-104654674D01*
X80497765Y-104648157D01*
X80707809Y-104507809D01*
X80848157Y-104297765D01*
X80897440Y-104050000D01*
X80897440Y-103649869D01*
X80900000Y-103650378D01*
X80977312Y-103635000D01*
X80977316Y-103635000D01*
X81206292Y-103589454D01*
X81465953Y-103415953D01*
X81509750Y-103350407D01*
X81535001Y-103325156D01*
X81535001Y-104179578D01*
G36*
X78965000Y-88343854D02*
X78965000Y-88656146D01*
X78995167Y-88728976D01*
X79010546Y-88806291D01*
X79054341Y-88871835D01*
X79084509Y-88944667D01*
X79140253Y-89000411D01*
X79184047Y-89065953D01*
X79249589Y-89109747D01*
X79305333Y-89165491D01*
X79378164Y-89195658D01*
X79443708Y-89239454D01*
X79521025Y-89254833D01*
X79593854Y-89285000D01*
X79672684Y-89285000D01*
X79750000Y-89300379D01*
X79827316Y-89285000D01*
X79906146Y-89285000D01*
X79978976Y-89254833D01*
X80056291Y-89239454D01*
X80121835Y-89195659D01*
X80194667Y-89165491D01*
X80250411Y-89109747D01*
X80285001Y-89086635D01*
X80285000Y-100265000D01*
X80035750Y-100265000D01*
X79877000Y-100423750D01*
X79877000Y-101025000D01*
X79897000Y-101025000D01*
X79897000Y-101152560D01*
X79250000Y-101152560D01*
X79002235Y-101201843D01*
X78892749Y-101275000D01*
X78773750Y-101275000D01*
X78615000Y-101433750D01*
X78615000Y-101526309D01*
X78643374Y-101594811D01*
X78602560Y-101800000D01*
X78602560Y-102065000D01*
X75897440Y-102065000D01*
X75897440Y-101800000D01*
X75856626Y-101594811D01*
X75885000Y-101526309D01*
X75885000Y-101433750D01*
X75726250Y-101275000D01*
X75607251Y-101275000D01*
X75497765Y-101201843D01*
X75250000Y-101152560D01*
X74603000Y-101152560D01*
X74603000Y-101025000D01*
X74623000Y-101025000D01*
X74623000Y-100423750D01*
X74877000Y-100423750D01*
X74877000Y-101025000D01*
X75726250Y-101025000D01*
X75885000Y-100866250D01*
X75885000Y-100773691D01*
X78615000Y-100773691D01*
X78615000Y-100866250D01*
X78773750Y-101025000D01*
X79623000Y-101025000D01*
X79623000Y-100423750D01*
X79464250Y-100265000D01*
X79123690Y-100265000D01*
X78890301Y-100361673D01*
X78711673Y-100540302D01*
X78615000Y-100773691D01*
X75885000Y-100773691D01*
X75788327Y-100540302D01*
X75609699Y-100361673D01*
X75376310Y-100265000D01*
X75035750Y-100265000D01*
X74877000Y-100423750D01*
X74623000Y-100423750D01*
X74464250Y-100265000D01*
X74123690Y-100265000D01*
X73890301Y-100361673D01*
X73711673Y-100540302D01*
X73698432Y-100572269D01*
X72715000Y-99588838D01*
X72715000Y-96785000D01*
X74422688Y-96785000D01*
X74500000Y-96800378D01*
X74577312Y-96785000D01*
X74577316Y-96785000D01*
X74806292Y-96739454D01*
X75065953Y-96565953D01*
X75109749Y-96500408D01*
X76500411Y-95109747D01*
X76565953Y-95065953D01*
X76609747Y-95000411D01*
X76609749Y-95000409D01*
X76739453Y-94806293D01*
X76739454Y-94806292D01*
X76785000Y-94577316D01*
X76785000Y-94577312D01*
X76800378Y-94500001D01*
X76785000Y-94422690D01*
X76785000Y-87197440D01*
X77750000Y-87197440D01*
X77997765Y-87148157D01*
X78207809Y-87007809D01*
X78348157Y-86797765D01*
X78397440Y-86550000D01*
X78397440Y-86135000D01*
X78965001Y-86135000D01*
X78965000Y-88343854D01*
X78965000Y-88343854D01*
G37*
X78965000Y-88343854D02*
X78965000Y-88656146D01*
X78995167Y-88728976D01*
X79010546Y-88806291D01*
X79054341Y-88871835D01*
X79084509Y-88944667D01*
X79140253Y-89000411D01*
X79184047Y-89065953D01*
X79249589Y-89109747D01*
X79305333Y-89165491D01*
X79378164Y-89195658D01*
X79443708Y-89239454D01*
X79521025Y-89254833D01*
X79593854Y-89285000D01*
X79672684Y-89285000D01*
X79750000Y-89300379D01*
X79827316Y-89285000D01*
X79906146Y-89285000D01*
X79978976Y-89254833D01*
X80056291Y-89239454D01*
X80121835Y-89195659D01*
X80194667Y-89165491D01*
X80250411Y-89109747D01*
X80285001Y-89086635D01*
X80285000Y-100265000D01*
X80035750Y-100265000D01*
X79877000Y-100423750D01*
X79877000Y-101025000D01*
X79897000Y-101025000D01*
X79897000Y-101152560D01*
X79250000Y-101152560D01*
X79002235Y-101201843D01*
X78892749Y-101275000D01*
X78773750Y-101275000D01*
X78615000Y-101433750D01*
X78615000Y-101526309D01*
X78643374Y-101594811D01*
X78602560Y-101800000D01*
X78602560Y-102065000D01*
X75897440Y-102065000D01*
X75897440Y-101800000D01*
X75856626Y-101594811D01*
X75885000Y-101526309D01*
X75885000Y-101433750D01*
X75726250Y-101275000D01*
X75607251Y-101275000D01*
X75497765Y-101201843D01*
X75250000Y-101152560D01*
X74603000Y-101152560D01*
X74603000Y-101025000D01*
X74623000Y-101025000D01*
X74623000Y-100423750D01*
X74877000Y-100423750D01*
X74877000Y-101025000D01*
X75726250Y-101025000D01*
X75885000Y-100866250D01*
X75885000Y-100773691D01*
X78615000Y-100773691D01*
X78615000Y-100866250D01*
X78773750Y-101025000D01*
X79623000Y-101025000D01*
X79623000Y-100423750D01*
X79464250Y-100265000D01*
X79123690Y-100265000D01*
X78890301Y-100361673D01*
X78711673Y-100540302D01*
X78615000Y-100773691D01*
X75885000Y-100773691D01*
X75788327Y-100540302D01*
X75609699Y-100361673D01*
X75376310Y-100265000D01*
X75035750Y-100265000D01*
X74877000Y-100423750D01*
X74623000Y-100423750D01*
X74464250Y-100265000D01*
X74123690Y-100265000D01*
X73890301Y-100361673D01*
X73711673Y-100540302D01*
X73698432Y-100572269D01*
X72715000Y-99588838D01*
X72715000Y-96785000D01*
X74422688Y-96785000D01*
X74500000Y-96800378D01*
X74577312Y-96785000D01*
X74577316Y-96785000D01*
X74806292Y-96739454D01*
X75065953Y-96565953D01*
X75109749Y-96500408D01*
X76500411Y-95109747D01*
X76565953Y-95065953D01*
X76609747Y-95000411D01*
X76609749Y-95000409D01*
X76739453Y-94806293D01*
X76739454Y-94806292D01*
X76785000Y-94577316D01*
X76785000Y-94577312D01*
X76800378Y-94500001D01*
X76785000Y-94422690D01*
X76785000Y-87197440D01*
X77750000Y-87197440D01*
X77997765Y-87148157D01*
X78207809Y-87007809D01*
X78348157Y-86797765D01*
X78397440Y-86550000D01*
X78397440Y-86135000D01*
X78965001Y-86135000D01*
X78965000Y-88343854D01*
G36*
X75215001Y-94174841D02*
X74174843Y-95215000D01*
X72715000Y-95215000D01*
X72715000Y-92267392D01*
X75205790Y-89776603D01*
X75215000Y-89770449D01*
X75215001Y-94174841D01*
X75215001Y-94174841D01*
G37*
X75215001Y-94174841D02*
X74174843Y-95215000D01*
X72715000Y-95215000D01*
X72715000Y-92267392D01*
X75205790Y-89776603D01*
X75215000Y-89770449D01*
X75215001Y-94174841D01*
G36*
X73815000Y-74932538D02*
X73801581Y-75000000D01*
X73854745Y-75267273D01*
X74006143Y-75493857D01*
X74232727Y-75645255D01*
X74500000Y-75698419D01*
X74567461Y-75685000D01*
X81432538Y-75685000D01*
X81500000Y-75698419D01*
X81567461Y-75685000D01*
X81567462Y-75685000D01*
X81767273Y-75645255D01*
X81993857Y-75493857D01*
X82145255Y-75267273D01*
X82198419Y-75000000D01*
X82185000Y-74932538D01*
X82185000Y-73127000D01*
X82815001Y-73127000D01*
X82815000Y-74932539D01*
X82815000Y-82765000D01*
X82535750Y-82765000D01*
X82377000Y-82923750D01*
X82377000Y-83525000D01*
X82397000Y-83525000D01*
X82397000Y-83652560D01*
X82103000Y-83652560D01*
X82103000Y-83525000D01*
X82123000Y-83525000D01*
X82123000Y-82923750D01*
X81964250Y-82765000D01*
X81752338Y-82765000D01*
X81715000Y-82674859D01*
X81715000Y-82370416D01*
X81729007Y-82299999D01*
X81708607Y-82197440D01*
X81673515Y-82021021D01*
X81515486Y-81784514D01*
X81455788Y-81744625D01*
X80897440Y-81186278D01*
X80897440Y-81100000D01*
X80852685Y-80875000D01*
X80897440Y-80650000D01*
X80897440Y-80050000D01*
X80857658Y-79850000D01*
X80897440Y-79650000D01*
X80897440Y-79300000D01*
X80856626Y-79094811D01*
X80885000Y-79026309D01*
X80885000Y-78933750D01*
X80726250Y-78775000D01*
X80607251Y-78775000D01*
X80497765Y-78701843D01*
X80250000Y-78652560D01*
X79250000Y-78652560D01*
X79002235Y-78701843D01*
X78892749Y-78775000D01*
X78773750Y-78775000D01*
X78615000Y-78933750D01*
X78615000Y-79026309D01*
X78643374Y-79094811D01*
X78602560Y-79300000D01*
X78602560Y-79565000D01*
X76077316Y-79565000D01*
X76000000Y-79549621D01*
X75922684Y-79565000D01*
X75897440Y-79565000D01*
X75897440Y-79300000D01*
X75856626Y-79094811D01*
X75885000Y-79026309D01*
X75885000Y-78933750D01*
X75726250Y-78775000D01*
X75607251Y-78775000D01*
X75497765Y-78701843D01*
X75250000Y-78652560D01*
X74250000Y-78652560D01*
X74002235Y-78701843D01*
X73892749Y-78775000D01*
X73773750Y-78775000D01*
X73615000Y-78933750D01*
X73615000Y-79026309D01*
X73643374Y-79094811D01*
X73602560Y-79300000D01*
X73602560Y-79650000D01*
X73642342Y-79850000D01*
X73602560Y-80050000D01*
X73602560Y-80650000D01*
X73647315Y-80875000D01*
X73602560Y-81100000D01*
X73602560Y-81550000D01*
X73651843Y-81797765D01*
X73792191Y-82007809D01*
X74002235Y-82148157D01*
X74035001Y-82154674D01*
X74035000Y-88925067D01*
X73185000Y-89775067D01*
X73185000Y-78273691D01*
X73615000Y-78273691D01*
X73615000Y-78366250D01*
X73773750Y-78525000D01*
X74623000Y-78525000D01*
X74623000Y-77923750D01*
X74877000Y-77923750D01*
X74877000Y-78525000D01*
X75726250Y-78525000D01*
X75885000Y-78366250D01*
X75885000Y-78273691D01*
X78615000Y-78273691D01*
X78615000Y-78366250D01*
X78773750Y-78525000D01*
X79623000Y-78525000D01*
X79623000Y-77923750D01*
X79877000Y-77923750D01*
X79877000Y-78525000D01*
X80726250Y-78525000D01*
X80885000Y-78366250D01*
X80885000Y-78273691D01*
X80788327Y-78040302D01*
X80609699Y-77861673D01*
X80376310Y-77765000D01*
X80035750Y-77765000D01*
X79877000Y-77923750D01*
X79623000Y-77923750D01*
X79464250Y-77765000D01*
X79123690Y-77765000D01*
X78890301Y-77861673D01*
X78711673Y-78040302D01*
X78615000Y-78273691D01*
X75885000Y-78273691D01*
X75788327Y-78040302D01*
X75609699Y-77861673D01*
X75376310Y-77765000D01*
X75035750Y-77765000D01*
X74877000Y-77923750D01*
X74623000Y-77923750D01*
X74464250Y-77765000D01*
X74123690Y-77765000D01*
X73890301Y-77861673D01*
X73711673Y-78040302D01*
X73615000Y-78273691D01*
X73185000Y-78273691D01*
X73185000Y-73127000D01*
X73815001Y-73127000D01*
X73815000Y-74932538D01*
X73815000Y-74932538D01*
G37*
X73815000Y-74932538D02*
X73801581Y-75000000D01*
X73854745Y-75267273D01*
X74006143Y-75493857D01*
X74232727Y-75645255D01*
X74500000Y-75698419D01*
X74567461Y-75685000D01*
X81432538Y-75685000D01*
X81500000Y-75698419D01*
X81567461Y-75685000D01*
X81567462Y-75685000D01*
X81767273Y-75645255D01*
X81993857Y-75493857D01*
X82145255Y-75267273D01*
X82198419Y-75000000D01*
X82185000Y-74932538D01*
X82185000Y-73127000D01*
X82815001Y-73127000D01*
X82815000Y-74932539D01*
X82815000Y-82765000D01*
X82535750Y-82765000D01*
X82377000Y-82923750D01*
X82377000Y-83525000D01*
X82397000Y-83525000D01*
X82397000Y-83652560D01*
X82103000Y-83652560D01*
X82103000Y-83525000D01*
X82123000Y-83525000D01*
X82123000Y-82923750D01*
X81964250Y-82765000D01*
X81752338Y-82765000D01*
X81715000Y-82674859D01*
X81715000Y-82370416D01*
X81729007Y-82299999D01*
X81708607Y-82197440D01*
X81673515Y-82021021D01*
X81515486Y-81784514D01*
X81455788Y-81744625D01*
X80897440Y-81186278D01*
X80897440Y-81100000D01*
X80852685Y-80875000D01*
X80897440Y-80650000D01*
X80897440Y-80050000D01*
X80857658Y-79850000D01*
X80897440Y-79650000D01*
X80897440Y-79300000D01*
X80856626Y-79094811D01*
X80885000Y-79026309D01*
X80885000Y-78933750D01*
X80726250Y-78775000D01*
X80607251Y-78775000D01*
X80497765Y-78701843D01*
X80250000Y-78652560D01*
X79250000Y-78652560D01*
X79002235Y-78701843D01*
X78892749Y-78775000D01*
X78773750Y-78775000D01*
X78615000Y-78933750D01*
X78615000Y-79026309D01*
X78643374Y-79094811D01*
X78602560Y-79300000D01*
X78602560Y-79565000D01*
X76077316Y-79565000D01*
X76000000Y-79549621D01*
X75922684Y-79565000D01*
X75897440Y-79565000D01*
X75897440Y-79300000D01*
X75856626Y-79094811D01*
X75885000Y-79026309D01*
X75885000Y-78933750D01*
X75726250Y-78775000D01*
X75607251Y-78775000D01*
X75497765Y-78701843D01*
X75250000Y-78652560D01*
X74250000Y-78652560D01*
X74002235Y-78701843D01*
X73892749Y-78775000D01*
X73773750Y-78775000D01*
X73615000Y-78933750D01*
X73615000Y-79026309D01*
X73643374Y-79094811D01*
X73602560Y-79300000D01*
X73602560Y-79650000D01*
X73642342Y-79850000D01*
X73602560Y-80050000D01*
X73602560Y-80650000D01*
X73647315Y-80875000D01*
X73602560Y-81100000D01*
X73602560Y-81550000D01*
X73651843Y-81797765D01*
X73792191Y-82007809D01*
X74002235Y-82148157D01*
X74035001Y-82154674D01*
X74035000Y-88925067D01*
X73185000Y-89775067D01*
X73185000Y-78273691D01*
X73615000Y-78273691D01*
X73615000Y-78366250D01*
X73773750Y-78525000D01*
X74623000Y-78525000D01*
X74623000Y-77923750D01*
X74877000Y-77923750D01*
X74877000Y-78525000D01*
X75726250Y-78525000D01*
X75885000Y-78366250D01*
X75885000Y-78273691D01*
X78615000Y-78273691D01*
X78615000Y-78366250D01*
X78773750Y-78525000D01*
X79623000Y-78525000D01*
X79623000Y-77923750D01*
X79877000Y-77923750D01*
X79877000Y-78525000D01*
X80726250Y-78525000D01*
X80885000Y-78366250D01*
X80885000Y-78273691D01*
X80788327Y-78040302D01*
X80609699Y-77861673D01*
X80376310Y-77765000D01*
X80035750Y-77765000D01*
X79877000Y-77923750D01*
X79623000Y-77923750D01*
X79464250Y-77765000D01*
X79123690Y-77765000D01*
X78890301Y-77861673D01*
X78711673Y-78040302D01*
X78615000Y-78273691D01*
X75885000Y-78273691D01*
X75788327Y-78040302D01*
X75609699Y-77861673D01*
X75376310Y-77765000D01*
X75035750Y-77765000D01*
X74877000Y-77923750D01*
X74623000Y-77923750D01*
X74464250Y-77765000D01*
X74123690Y-77765000D01*
X73890301Y-77861673D01*
X73711673Y-78040302D01*
X73615000Y-78273691D01*
X73185000Y-78273691D01*
X73185000Y-73127000D01*
X73815001Y-73127000D01*
X73815000Y-74932538D01*
G36*
X78602560Y-81550000D02*
X78651843Y-81797765D01*
X78792191Y-82007809D01*
X79002235Y-82148157D01*
X79250000Y-82197440D01*
X79886278Y-82197440D01*
X80285000Y-82596163D01*
X80285000Y-82674859D01*
X80215000Y-82843854D01*
X80215000Y-83156146D01*
X80334509Y-83444667D01*
X80555333Y-83665491D01*
X80843854Y-83785000D01*
X81156146Y-83785000D01*
X81175455Y-83777002D01*
X81271748Y-83777002D01*
X81115000Y-83933750D01*
X81115000Y-84026309D01*
X81143374Y-84094811D01*
X81102560Y-84300000D01*
X81102560Y-84565000D01*
X79827316Y-84565000D01*
X79750000Y-84549621D01*
X79672684Y-84565000D01*
X78397440Y-84565000D01*
X78397440Y-84300000D01*
X78356626Y-84094811D01*
X78385000Y-84026309D01*
X78385000Y-83933750D01*
X78226250Y-83775000D01*
X78107251Y-83775000D01*
X77997765Y-83701843D01*
X77750000Y-83652560D01*
X77103000Y-83652560D01*
X77103000Y-83525000D01*
X77123000Y-83525000D01*
X77123000Y-82923750D01*
X77377000Y-82923750D01*
X77377000Y-83525000D01*
X78226250Y-83525000D01*
X78385000Y-83366250D01*
X78385000Y-83273691D01*
X78288327Y-83040302D01*
X78109699Y-82861673D01*
X77876310Y-82765000D01*
X77535750Y-82765000D01*
X77377000Y-82923750D01*
X77123000Y-82923750D01*
X76964250Y-82765000D01*
X76785000Y-82765000D01*
X76785000Y-81135000D01*
X78602560Y-81135000D01*
X78602560Y-81550000D01*
X78602560Y-81550000D01*
G37*
X78602560Y-81550000D02*
X78651843Y-81797765D01*
X78792191Y-82007809D01*
X79002235Y-82148157D01*
X79250000Y-82197440D01*
X79886278Y-82197440D01*
X80285000Y-82596163D01*
X80285000Y-82674859D01*
X80215000Y-82843854D01*
X80215000Y-83156146D01*
X80334509Y-83444667D01*
X80555333Y-83665491D01*
X80843854Y-83785000D01*
X81156146Y-83785000D01*
X81175455Y-83777002D01*
X81271748Y-83777002D01*
X81115000Y-83933750D01*
X81115000Y-84026309D01*
X81143374Y-84094811D01*
X81102560Y-84300000D01*
X81102560Y-84565000D01*
X79827316Y-84565000D01*
X79750000Y-84549621D01*
X79672684Y-84565000D01*
X78397440Y-84565000D01*
X78397440Y-84300000D01*
X78356626Y-84094811D01*
X78385000Y-84026309D01*
X78385000Y-83933750D01*
X78226250Y-83775000D01*
X78107251Y-83775000D01*
X77997765Y-83701843D01*
X77750000Y-83652560D01*
X77103000Y-83652560D01*
X77103000Y-83525000D01*
X77123000Y-83525000D01*
X77123000Y-82923750D01*
X77377000Y-82923750D01*
X77377000Y-83525000D01*
X78226250Y-83525000D01*
X78385000Y-83366250D01*
X78385000Y-83273691D01*
X78288327Y-83040302D01*
X78109699Y-82861673D01*
X77876310Y-82765000D01*
X77535750Y-82765000D01*
X77377000Y-82923750D01*
X77123000Y-82923750D01*
X76964250Y-82765000D01*
X76785000Y-82765000D01*
X76785000Y-81135000D01*
X78602560Y-81135000D01*
X78602560Y-81550000D01*
G04 #@! TO.N,GNDD*
G36*
X55854745Y-51267273D02*
X56006143Y-51493857D01*
X56232727Y-51645255D01*
X56500000Y-51698419D01*
X56567461Y-51685000D01*
X72615489Y-51685000D01*
X72609522Y-51715000D01*
X70827312Y-51715000D01*
X70750000Y-51699622D01*
X70672688Y-51715000D01*
X70672684Y-51715000D01*
X70443708Y-51760546D01*
X70184047Y-51934047D01*
X70140251Y-51999592D01*
X69861740Y-52278103D01*
X69713217Y-52307646D01*
X69470095Y-52470095D01*
X69429089Y-52531465D01*
X69281463Y-52679091D01*
X69220096Y-52720095D01*
X69179092Y-52781462D01*
X69179091Y-52781463D01*
X69057646Y-52963218D01*
X69000602Y-53250000D01*
X69015001Y-53322389D01*
X69015001Y-53965000D01*
X68983690Y-53965000D01*
X68973585Y-53969186D01*
X68890000Y-53952560D01*
X68763790Y-53952560D01*
X68750000Y-53949817D01*
X68736210Y-53952560D01*
X68610000Y-53952560D01*
X68362235Y-54001843D01*
X68152191Y-54142191D01*
X68011843Y-54352235D01*
X67999265Y-54415468D01*
X67880095Y-54495095D01*
X67839090Y-54556463D01*
X66531465Y-55864089D01*
X66470095Y-55905095D01*
X66307646Y-56148218D01*
X66284417Y-56265000D01*
X65785750Y-56265000D01*
X65627000Y-56423750D01*
X65627000Y-57348000D01*
X65647000Y-57348000D01*
X65647000Y-57602000D01*
X65627000Y-57602000D01*
X65627000Y-57622000D01*
X65373000Y-57622000D01*
X65373000Y-57602000D01*
X65353000Y-57602000D01*
X65353000Y-57348000D01*
X65373000Y-57348000D01*
X65373000Y-56423750D01*
X65214250Y-56265000D01*
X64673690Y-56265000D01*
X64440301Y-56361673D01*
X64267950Y-56534025D01*
X64101310Y-56465000D01*
X63785750Y-56465000D01*
X63627000Y-56623750D01*
X63627000Y-57498000D01*
X63647000Y-57498000D01*
X63647000Y-57752000D01*
X63627000Y-57752000D01*
X63627000Y-57772000D01*
X63373000Y-57772000D01*
X63373000Y-57752000D01*
X63353000Y-57752000D01*
X63353000Y-57498000D01*
X63373000Y-57498000D01*
X63373000Y-56623750D01*
X63214250Y-56465000D01*
X62898690Y-56465000D01*
X62665301Y-56561673D01*
X62510649Y-56716326D01*
X62338664Y-56357955D01*
X61906812Y-55970976D01*
X61359742Y-55778716D01*
X61127000Y-55922769D01*
X61127000Y-57123000D01*
X61147000Y-57123000D01*
X61147000Y-57377000D01*
X61127000Y-57377000D01*
X61127000Y-57397000D01*
X60873000Y-57397000D01*
X60873000Y-57377000D01*
X59529845Y-57377000D01*
X59408524Y-57606890D01*
X59410447Y-57619260D01*
X59661336Y-58142045D01*
X59823782Y-58287612D01*
X59752235Y-58301843D01*
X59542191Y-58442191D01*
X59401843Y-58652235D01*
X59352560Y-58900000D01*
X59352560Y-60600000D01*
X59401843Y-60847765D01*
X59542191Y-61057809D01*
X59752235Y-61198157D01*
X60000000Y-61247440D01*
X62000000Y-61247440D01*
X62247765Y-61198157D01*
X62457809Y-61057809D01*
X62598157Y-60847765D01*
X62647440Y-60600000D01*
X62647440Y-60485000D01*
X62948593Y-60485000D01*
X63262500Y-60547440D01*
X63737500Y-60547440D01*
X64076152Y-60480078D01*
X64308615Y-60324751D01*
X64415414Y-60484586D01*
X64706564Y-60679127D01*
X65049999Y-60747440D01*
X65950001Y-60747440D01*
X66293436Y-60679127D01*
X66584586Y-60484586D01*
X66734650Y-60260000D01*
X66927612Y-60260000D01*
X67000000Y-60274399D01*
X67072388Y-60260000D01*
X67412616Y-60260000D01*
X67485000Y-60274398D01*
X67557384Y-60260000D01*
X67557388Y-60260000D01*
X67771783Y-60217354D01*
X68014905Y-60054905D01*
X68055911Y-59993535D01*
X68515000Y-59534446D01*
X68515001Y-61296769D01*
X68447765Y-61251843D01*
X68200000Y-61202560D01*
X67300000Y-61202560D01*
X67052235Y-61251843D01*
X66842191Y-61392191D01*
X66701843Y-61602235D01*
X66652560Y-61850000D01*
X66652560Y-63150000D01*
X66701843Y-63397765D01*
X66842191Y-63607809D01*
X67052235Y-63748157D01*
X67300000Y-63797440D01*
X68200000Y-63797440D01*
X68447765Y-63748157D01*
X68657809Y-63607809D01*
X68798157Y-63397765D01*
X68847440Y-63150000D01*
X68847440Y-63085006D01*
X68929905Y-63029905D01*
X68970911Y-62968535D01*
X69675814Y-62263633D01*
X69720096Y-62329905D01*
X69781463Y-62370909D01*
X70379090Y-62968537D01*
X70420095Y-63029905D01*
X70502560Y-63085006D01*
X70502560Y-63150000D01*
X70551843Y-63397765D01*
X70692191Y-63607809D01*
X70902235Y-63748157D01*
X71150000Y-63797440D01*
X72050000Y-63797440D01*
X72297765Y-63748157D01*
X72507809Y-63607809D01*
X72648157Y-63397765D01*
X72697440Y-63150000D01*
X72697440Y-61850000D01*
X72648157Y-61602235D01*
X72507809Y-61392191D01*
X72297765Y-61251843D01*
X72050000Y-61202560D01*
X71150000Y-61202560D01*
X70985000Y-61235380D01*
X70985000Y-60060750D01*
X72165000Y-60060750D01*
X72165000Y-60476309D01*
X72261673Y-60709698D01*
X72440301Y-60888327D01*
X72673690Y-60985000D01*
X73214250Y-60985000D01*
X73373000Y-60826250D01*
X73373000Y-59902000D01*
X72323750Y-59902000D01*
X72165000Y-60060750D01*
X70985000Y-60060750D01*
X70985000Y-59746415D01*
X70999999Y-59749398D01*
X71072383Y-59735000D01*
X72152616Y-59735000D01*
X72225000Y-59749398D01*
X72297384Y-59735000D01*
X72297388Y-59735000D01*
X72511783Y-59692354D01*
X72578163Y-59648000D01*
X73373000Y-59648000D01*
X73373000Y-59628000D01*
X73627000Y-59628000D01*
X73627000Y-59648000D01*
X73647000Y-59648000D01*
X73647000Y-59902000D01*
X73627000Y-59902000D01*
X73627000Y-60826250D01*
X73785750Y-60985000D01*
X74326310Y-60985000D01*
X74559699Y-60888327D01*
X74732050Y-60715975D01*
X74898690Y-60785000D01*
X75214250Y-60785000D01*
X75373000Y-60626250D01*
X75373000Y-59752000D01*
X75353000Y-59752000D01*
X75353000Y-59498000D01*
X75373000Y-59498000D01*
X75373000Y-59478000D01*
X75627000Y-59478000D01*
X75627000Y-59498000D01*
X75647000Y-59498000D01*
X75647000Y-59752000D01*
X75627000Y-59752000D01*
X75627000Y-60626250D01*
X75785750Y-60785000D01*
X76101310Y-60785000D01*
X76334699Y-60688327D01*
X76489351Y-60533674D01*
X76661336Y-60892045D01*
X77093188Y-61279024D01*
X77640258Y-61471284D01*
X77873000Y-61327231D01*
X77873000Y-60127000D01*
X78127000Y-60127000D01*
X78127000Y-61327231D01*
X78359742Y-61471284D01*
X78906812Y-61279024D01*
X79338664Y-60892045D01*
X79589553Y-60369260D01*
X79591476Y-60356890D01*
X79470155Y-60127000D01*
X78127000Y-60127000D01*
X77873000Y-60127000D01*
X77853000Y-60127000D01*
X77853000Y-59873000D01*
X77873000Y-59873000D01*
X77873000Y-59853000D01*
X78127000Y-59853000D01*
X78127000Y-59873000D01*
X79470155Y-59873000D01*
X79591476Y-59643110D01*
X79589553Y-59630740D01*
X79338664Y-59107955D01*
X79176218Y-58962388D01*
X79247765Y-58948157D01*
X79457809Y-58807809D01*
X79598157Y-58597765D01*
X79647440Y-58350000D01*
X79647440Y-56650000D01*
X79598157Y-56402235D01*
X79457809Y-56192191D01*
X79247765Y-56051843D01*
X79000000Y-56002560D01*
X77000000Y-56002560D01*
X76752235Y-56051843D01*
X76542191Y-56192191D01*
X76401843Y-56402235D01*
X76352560Y-56650000D01*
X76352560Y-56954612D01*
X76076152Y-56769922D01*
X75737500Y-56702560D01*
X75262500Y-56702560D01*
X74923848Y-56769922D01*
X74691385Y-56925249D01*
X74584586Y-56765414D01*
X74535000Y-56732282D01*
X74535000Y-53894456D01*
X74550000Y-53897440D01*
X75550000Y-53897440D01*
X75797765Y-53848157D01*
X76007809Y-53707809D01*
X76148157Y-53497765D01*
X76197440Y-53250000D01*
X76197440Y-51750000D01*
X76184511Y-51685000D01*
X82432539Y-51685000D01*
X82500000Y-51698419D01*
X82767273Y-51645255D01*
X82993857Y-51493857D01*
X83145255Y-51267273D01*
X83173157Y-51127000D01*
X83815001Y-51127000D01*
X83815000Y-65873000D01*
X83173157Y-65873000D01*
X83145255Y-65732727D01*
X82993857Y-65506143D01*
X82767273Y-65354745D01*
X82567462Y-65315000D01*
X82567461Y-65315000D01*
X82500000Y-65301581D01*
X82432538Y-65315000D01*
X56567462Y-65315000D01*
X56500000Y-65301581D01*
X56432539Y-65315000D01*
X56432538Y-65315000D01*
X56232727Y-65354745D01*
X56006143Y-65506143D01*
X55854745Y-65732727D01*
X55826843Y-65873000D01*
X55185000Y-65873000D01*
X55185000Y-56893110D01*
X59408524Y-56893110D01*
X59529845Y-57123000D01*
X60873000Y-57123000D01*
X60873000Y-55922769D01*
X60640258Y-55778716D01*
X60093188Y-55970976D01*
X59661336Y-56357955D01*
X59410447Y-56880740D01*
X59408524Y-56893110D01*
X55185000Y-56893110D01*
X55185000Y-51127000D01*
X55826843Y-51127000D01*
X55854745Y-51267273D01*
X55854745Y-51267273D01*
G37*
X55854745Y-51267273D02*
X56006143Y-51493857D01*
X56232727Y-51645255D01*
X56500000Y-51698419D01*
X56567461Y-51685000D01*
X72615489Y-51685000D01*
X72609522Y-51715000D01*
X70827312Y-51715000D01*
X70750000Y-51699622D01*
X70672688Y-51715000D01*
X70672684Y-51715000D01*
X70443708Y-51760546D01*
X70184047Y-51934047D01*
X70140251Y-51999592D01*
X69861740Y-52278103D01*
X69713217Y-52307646D01*
X69470095Y-52470095D01*
X69429089Y-52531465D01*
X69281463Y-52679091D01*
X69220096Y-52720095D01*
X69179092Y-52781462D01*
X69179091Y-52781463D01*
X69057646Y-52963218D01*
X69000602Y-53250000D01*
X69015001Y-53322389D01*
X69015001Y-53965000D01*
X68983690Y-53965000D01*
X68973585Y-53969186D01*
X68890000Y-53952560D01*
X68763790Y-53952560D01*
X68750000Y-53949817D01*
X68736210Y-53952560D01*
X68610000Y-53952560D01*
X68362235Y-54001843D01*
X68152191Y-54142191D01*
X68011843Y-54352235D01*
X67999265Y-54415468D01*
X67880095Y-54495095D01*
X67839090Y-54556463D01*
X66531465Y-55864089D01*
X66470095Y-55905095D01*
X66307646Y-56148218D01*
X66284417Y-56265000D01*
X65785750Y-56265000D01*
X65627000Y-56423750D01*
X65627000Y-57348000D01*
X65647000Y-57348000D01*
X65647000Y-57602000D01*
X65627000Y-57602000D01*
X65627000Y-57622000D01*
X65373000Y-57622000D01*
X65373000Y-57602000D01*
X65353000Y-57602000D01*
X65353000Y-57348000D01*
X65373000Y-57348000D01*
X65373000Y-56423750D01*
X65214250Y-56265000D01*
X64673690Y-56265000D01*
X64440301Y-56361673D01*
X64267950Y-56534025D01*
X64101310Y-56465000D01*
X63785750Y-56465000D01*
X63627000Y-56623750D01*
X63627000Y-57498000D01*
X63647000Y-57498000D01*
X63647000Y-57752000D01*
X63627000Y-57752000D01*
X63627000Y-57772000D01*
X63373000Y-57772000D01*
X63373000Y-57752000D01*
X63353000Y-57752000D01*
X63353000Y-57498000D01*
X63373000Y-57498000D01*
X63373000Y-56623750D01*
X63214250Y-56465000D01*
X62898690Y-56465000D01*
X62665301Y-56561673D01*
X62510649Y-56716326D01*
X62338664Y-56357955D01*
X61906812Y-55970976D01*
X61359742Y-55778716D01*
X61127000Y-55922769D01*
X61127000Y-57123000D01*
X61147000Y-57123000D01*
X61147000Y-57377000D01*
X61127000Y-57377000D01*
X61127000Y-57397000D01*
X60873000Y-57397000D01*
X60873000Y-57377000D01*
X59529845Y-57377000D01*
X59408524Y-57606890D01*
X59410447Y-57619260D01*
X59661336Y-58142045D01*
X59823782Y-58287612D01*
X59752235Y-58301843D01*
X59542191Y-58442191D01*
X59401843Y-58652235D01*
X59352560Y-58900000D01*
X59352560Y-60600000D01*
X59401843Y-60847765D01*
X59542191Y-61057809D01*
X59752235Y-61198157D01*
X60000000Y-61247440D01*
X62000000Y-61247440D01*
X62247765Y-61198157D01*
X62457809Y-61057809D01*
X62598157Y-60847765D01*
X62647440Y-60600000D01*
X62647440Y-60485000D01*
X62948593Y-60485000D01*
X63262500Y-60547440D01*
X63737500Y-60547440D01*
X64076152Y-60480078D01*
X64308615Y-60324751D01*
X64415414Y-60484586D01*
X64706564Y-60679127D01*
X65049999Y-60747440D01*
X65950001Y-60747440D01*
X66293436Y-60679127D01*
X66584586Y-60484586D01*
X66734650Y-60260000D01*
X66927612Y-60260000D01*
X67000000Y-60274399D01*
X67072388Y-60260000D01*
X67412616Y-60260000D01*
X67485000Y-60274398D01*
X67557384Y-60260000D01*
X67557388Y-60260000D01*
X67771783Y-60217354D01*
X68014905Y-60054905D01*
X68055911Y-59993535D01*
X68515000Y-59534446D01*
X68515001Y-61296769D01*
X68447765Y-61251843D01*
X68200000Y-61202560D01*
X67300000Y-61202560D01*
X67052235Y-61251843D01*
X66842191Y-61392191D01*
X66701843Y-61602235D01*
X66652560Y-61850000D01*
X66652560Y-63150000D01*
X66701843Y-63397765D01*
X66842191Y-63607809D01*
X67052235Y-63748157D01*
X67300000Y-63797440D01*
X68200000Y-63797440D01*
X68447765Y-63748157D01*
X68657809Y-63607809D01*
X68798157Y-63397765D01*
X68847440Y-63150000D01*
X68847440Y-63085006D01*
X68929905Y-63029905D01*
X68970911Y-62968535D01*
X69675814Y-62263633D01*
X69720096Y-62329905D01*
X69781463Y-62370909D01*
X70379090Y-62968537D01*
X70420095Y-63029905D01*
X70502560Y-63085006D01*
X70502560Y-63150000D01*
X70551843Y-63397765D01*
X70692191Y-63607809D01*
X70902235Y-63748157D01*
X71150000Y-63797440D01*
X72050000Y-63797440D01*
X72297765Y-63748157D01*
X72507809Y-63607809D01*
X72648157Y-63397765D01*
X72697440Y-63150000D01*
X72697440Y-61850000D01*
X72648157Y-61602235D01*
X72507809Y-61392191D01*
X72297765Y-61251843D01*
X72050000Y-61202560D01*
X71150000Y-61202560D01*
X70985000Y-61235380D01*
X70985000Y-60060750D01*
X72165000Y-60060750D01*
X72165000Y-60476309D01*
X72261673Y-60709698D01*
X72440301Y-60888327D01*
X72673690Y-60985000D01*
X73214250Y-60985000D01*
X73373000Y-60826250D01*
X73373000Y-59902000D01*
X72323750Y-59902000D01*
X72165000Y-60060750D01*
X70985000Y-60060750D01*
X70985000Y-59746415D01*
X70999999Y-59749398D01*
X71072383Y-59735000D01*
X72152616Y-59735000D01*
X72225000Y-59749398D01*
X72297384Y-59735000D01*
X72297388Y-59735000D01*
X72511783Y-59692354D01*
X72578163Y-59648000D01*
X73373000Y-59648000D01*
X73373000Y-59628000D01*
X73627000Y-59628000D01*
X73627000Y-59648000D01*
X73647000Y-59648000D01*
X73647000Y-59902000D01*
X73627000Y-59902000D01*
X73627000Y-60826250D01*
X73785750Y-60985000D01*
X74326310Y-60985000D01*
X74559699Y-60888327D01*
X74732050Y-60715975D01*
X74898690Y-60785000D01*
X75214250Y-60785000D01*
X75373000Y-60626250D01*
X75373000Y-59752000D01*
X75353000Y-59752000D01*
X75353000Y-59498000D01*
X75373000Y-59498000D01*
X75373000Y-59478000D01*
X75627000Y-59478000D01*
X75627000Y-59498000D01*
X75647000Y-59498000D01*
X75647000Y-59752000D01*
X75627000Y-59752000D01*
X75627000Y-60626250D01*
X75785750Y-60785000D01*
X76101310Y-60785000D01*
X76334699Y-60688327D01*
X76489351Y-60533674D01*
X76661336Y-60892045D01*
X77093188Y-61279024D01*
X77640258Y-61471284D01*
X77873000Y-61327231D01*
X77873000Y-60127000D01*
X78127000Y-60127000D01*
X78127000Y-61327231D01*
X78359742Y-61471284D01*
X78906812Y-61279024D01*
X79338664Y-60892045D01*
X79589553Y-60369260D01*
X79591476Y-60356890D01*
X79470155Y-60127000D01*
X78127000Y-60127000D01*
X77873000Y-60127000D01*
X77853000Y-60127000D01*
X77853000Y-59873000D01*
X77873000Y-59873000D01*
X77873000Y-59853000D01*
X78127000Y-59853000D01*
X78127000Y-59873000D01*
X79470155Y-59873000D01*
X79591476Y-59643110D01*
X79589553Y-59630740D01*
X79338664Y-59107955D01*
X79176218Y-58962388D01*
X79247765Y-58948157D01*
X79457809Y-58807809D01*
X79598157Y-58597765D01*
X79647440Y-58350000D01*
X79647440Y-56650000D01*
X79598157Y-56402235D01*
X79457809Y-56192191D01*
X79247765Y-56051843D01*
X79000000Y-56002560D01*
X77000000Y-56002560D01*
X76752235Y-56051843D01*
X76542191Y-56192191D01*
X76401843Y-56402235D01*
X76352560Y-56650000D01*
X76352560Y-56954612D01*
X76076152Y-56769922D01*
X75737500Y-56702560D01*
X75262500Y-56702560D01*
X74923848Y-56769922D01*
X74691385Y-56925249D01*
X74584586Y-56765414D01*
X74535000Y-56732282D01*
X74535000Y-53894456D01*
X74550000Y-53897440D01*
X75550000Y-53897440D01*
X75797765Y-53848157D01*
X76007809Y-53707809D01*
X76148157Y-53497765D01*
X76197440Y-53250000D01*
X76197440Y-51750000D01*
X76184511Y-51685000D01*
X82432539Y-51685000D01*
X82500000Y-51698419D01*
X82767273Y-51645255D01*
X82993857Y-51493857D01*
X83145255Y-51267273D01*
X83173157Y-51127000D01*
X83815001Y-51127000D01*
X83815000Y-65873000D01*
X83173157Y-65873000D01*
X83145255Y-65732727D01*
X82993857Y-65506143D01*
X82767273Y-65354745D01*
X82567462Y-65315000D01*
X82567461Y-65315000D01*
X82500000Y-65301581D01*
X82432538Y-65315000D01*
X56567462Y-65315000D01*
X56500000Y-65301581D01*
X56432539Y-65315000D01*
X56432538Y-65315000D01*
X56232727Y-65354745D01*
X56006143Y-65506143D01*
X55854745Y-65732727D01*
X55826843Y-65873000D01*
X55185000Y-65873000D01*
X55185000Y-56893110D01*
X59408524Y-56893110D01*
X59529845Y-57123000D01*
X60873000Y-57123000D01*
X60873000Y-55922769D01*
X60640258Y-55778716D01*
X60093188Y-55970976D01*
X59661336Y-56357955D01*
X59410447Y-56880740D01*
X59408524Y-56893110D01*
X55185000Y-56893110D01*
X55185000Y-51127000D01*
X55826843Y-51127000D01*
X55854745Y-51267273D01*
G04 #@! TO.N,Net-(D25-Pad4)*
G36*
X96318201Y-115289364D02*
X96318202Y-128652560D01*
X95750000Y-128652560D01*
X95502235Y-128701843D01*
X95392749Y-128775000D01*
X95273750Y-128775000D01*
X95115000Y-128933750D01*
X95115000Y-129026309D01*
X95143374Y-129094811D01*
X95102560Y-129300000D01*
X95102560Y-129565000D01*
X92397440Y-129565000D01*
X92397440Y-129300000D01*
X92356626Y-129094811D01*
X92385000Y-129026309D01*
X92385000Y-128933750D01*
X92226250Y-128775000D01*
X92107251Y-128775000D01*
X91997765Y-128701843D01*
X91750000Y-128652560D01*
X91103000Y-128652560D01*
X91103000Y-128525000D01*
X91123000Y-128525000D01*
X91123000Y-127923750D01*
X91377000Y-127923750D01*
X91377000Y-128525000D01*
X92226250Y-128525000D01*
X92385000Y-128366250D01*
X92385000Y-128273691D01*
X95115000Y-128273691D01*
X95115000Y-128366250D01*
X95273750Y-128525000D01*
X96123000Y-128525000D01*
X96123000Y-127923750D01*
X95964250Y-127765000D01*
X95623690Y-127765000D01*
X95390301Y-127861673D01*
X95211673Y-128040302D01*
X95115000Y-128273691D01*
X92385000Y-128273691D01*
X92288327Y-128040302D01*
X92109699Y-127861673D01*
X91876310Y-127765000D01*
X91535750Y-127765000D01*
X91377000Y-127923750D01*
X91123000Y-127923750D01*
X90964250Y-127765000D01*
X90715000Y-127765000D01*
X90715000Y-126825141D01*
X90785000Y-126656146D01*
X90785000Y-126635000D01*
X92602560Y-126635000D01*
X92602560Y-127050000D01*
X92651843Y-127297765D01*
X92792191Y-127507809D01*
X93002235Y-127648157D01*
X93250000Y-127697440D01*
X94250000Y-127697440D01*
X94497765Y-127648157D01*
X94707809Y-127507809D01*
X94848157Y-127297765D01*
X94897440Y-127050000D01*
X94897440Y-126600000D01*
X94890761Y-126566422D01*
X95115953Y-126415953D01*
X95159749Y-126350408D01*
X95897207Y-125612950D01*
X95962752Y-125569154D01*
X96136253Y-125309493D01*
X96181799Y-125080517D01*
X96181799Y-125080513D01*
X96197177Y-125003201D01*
X96181799Y-124925889D01*
X96181799Y-115152962D01*
X96318201Y-115289364D01*
X96318201Y-115289364D01*
G37*
X96318201Y-115289364D02*
X96318202Y-128652560D01*
X95750000Y-128652560D01*
X95502235Y-128701843D01*
X95392749Y-128775000D01*
X95273750Y-128775000D01*
X95115000Y-128933750D01*
X95115000Y-129026309D01*
X95143374Y-129094811D01*
X95102560Y-129300000D01*
X95102560Y-129565000D01*
X92397440Y-129565000D01*
X92397440Y-129300000D01*
X92356626Y-129094811D01*
X92385000Y-129026309D01*
X92385000Y-128933750D01*
X92226250Y-128775000D01*
X92107251Y-128775000D01*
X91997765Y-128701843D01*
X91750000Y-128652560D01*
X91103000Y-128652560D01*
X91103000Y-128525000D01*
X91123000Y-128525000D01*
X91123000Y-127923750D01*
X91377000Y-127923750D01*
X91377000Y-128525000D01*
X92226250Y-128525000D01*
X92385000Y-128366250D01*
X92385000Y-128273691D01*
X95115000Y-128273691D01*
X95115000Y-128366250D01*
X95273750Y-128525000D01*
X96123000Y-128525000D01*
X96123000Y-127923750D01*
X95964250Y-127765000D01*
X95623690Y-127765000D01*
X95390301Y-127861673D01*
X95211673Y-128040302D01*
X95115000Y-128273691D01*
X92385000Y-128273691D01*
X92288327Y-128040302D01*
X92109699Y-127861673D01*
X91876310Y-127765000D01*
X91535750Y-127765000D01*
X91377000Y-127923750D01*
X91123000Y-127923750D01*
X90964250Y-127765000D01*
X90715000Y-127765000D01*
X90715000Y-126825141D01*
X90785000Y-126656146D01*
X90785000Y-126635000D01*
X92602560Y-126635000D01*
X92602560Y-127050000D01*
X92651843Y-127297765D01*
X92792191Y-127507809D01*
X93002235Y-127648157D01*
X93250000Y-127697440D01*
X94250000Y-127697440D01*
X94497765Y-127648157D01*
X94707809Y-127507809D01*
X94848157Y-127297765D01*
X94897440Y-127050000D01*
X94897440Y-126600000D01*
X94890761Y-126566422D01*
X95115953Y-126415953D01*
X95159749Y-126350408D01*
X95897207Y-125612950D01*
X95962752Y-125569154D01*
X96136253Y-125309493D01*
X96181799Y-125080517D01*
X96181799Y-125080513D01*
X96197177Y-125003201D01*
X96181799Y-124925889D01*
X96181799Y-115152962D01*
X96318201Y-115289364D01*
G36*
X89285000Y-111314583D02*
X89270993Y-111385000D01*
X89285000Y-111455417D01*
X89326485Y-111663978D01*
X89484514Y-111900485D01*
X89544212Y-111940374D01*
X90034625Y-112430788D01*
X90074514Y-112490486D01*
X90109719Y-112514009D01*
X90102560Y-112550000D01*
X90102560Y-113150000D01*
X90147315Y-113375000D01*
X90102560Y-113600000D01*
X90102560Y-113686277D01*
X89544213Y-114244625D01*
X89484515Y-114284514D01*
X89444626Y-114344212D01*
X89326486Y-114521021D01*
X89270993Y-114800000D01*
X89285001Y-114870422D01*
X89285000Y-117674858D01*
X89215000Y-117843854D01*
X89215000Y-118156146D01*
X89334509Y-118444667D01*
X89555333Y-118665491D01*
X89843854Y-118785000D01*
X90156146Y-118785000D01*
X90444667Y-118665491D01*
X90665491Y-118444667D01*
X90785000Y-118156146D01*
X90785000Y-117843854D01*
X90715000Y-117674859D01*
X90715000Y-115096162D01*
X91113723Y-114697440D01*
X91750000Y-114697440D01*
X91997765Y-114648157D01*
X92207809Y-114507809D01*
X92348157Y-114297765D01*
X92397440Y-114050000D01*
X92397440Y-113635000D01*
X93065262Y-113635000D01*
X92965000Y-113877055D01*
X92965000Y-114189347D01*
X93084509Y-114477868D01*
X93305333Y-114698692D01*
X93474329Y-114768692D01*
X93818202Y-115112566D01*
X93818201Y-124152560D01*
X93250000Y-124152560D01*
X93002235Y-124201843D01*
X92892749Y-124275000D01*
X92773750Y-124275000D01*
X92615000Y-124433750D01*
X92615000Y-124526309D01*
X92643374Y-124594811D01*
X92602560Y-124800000D01*
X92602560Y-125065000D01*
X89897440Y-125065000D01*
X89897440Y-124800000D01*
X89856626Y-124594811D01*
X89885000Y-124526309D01*
X89885000Y-124433750D01*
X89726250Y-124275000D01*
X89607251Y-124275000D01*
X89497765Y-124201843D01*
X89250000Y-124152560D01*
X88681799Y-124152560D01*
X88681799Y-123423750D01*
X88877000Y-123423750D01*
X88877000Y-124025000D01*
X89726250Y-124025000D01*
X89885000Y-123866250D01*
X89885000Y-123773691D01*
X92615000Y-123773691D01*
X92615000Y-123866250D01*
X92773750Y-124025000D01*
X93623000Y-124025000D01*
X93623000Y-123423750D01*
X93464250Y-123265000D01*
X93123690Y-123265000D01*
X92890301Y-123361673D01*
X92711673Y-123540302D01*
X92615000Y-123773691D01*
X89885000Y-123773691D01*
X89788327Y-123540302D01*
X89609699Y-123361673D01*
X89376310Y-123265000D01*
X89035750Y-123265000D01*
X88877000Y-123423750D01*
X88681799Y-123423750D01*
X88681799Y-110289363D01*
X89205790Y-109765373D01*
X89265485Y-109725486D01*
X89285001Y-109696279D01*
X89285000Y-111314583D01*
X89285000Y-111314583D01*
G37*
X89285000Y-111314583D02*
X89270993Y-111385000D01*
X89285000Y-111455417D01*
X89326485Y-111663978D01*
X89484514Y-111900485D01*
X89544212Y-111940374D01*
X90034625Y-112430788D01*
X90074514Y-112490486D01*
X90109719Y-112514009D01*
X90102560Y-112550000D01*
X90102560Y-113150000D01*
X90147315Y-113375000D01*
X90102560Y-113600000D01*
X90102560Y-113686277D01*
X89544213Y-114244625D01*
X89484515Y-114284514D01*
X89444626Y-114344212D01*
X89326486Y-114521021D01*
X89270993Y-114800000D01*
X89285001Y-114870422D01*
X89285000Y-117674858D01*
X89215000Y-117843854D01*
X89215000Y-118156146D01*
X89334509Y-118444667D01*
X89555333Y-118665491D01*
X89843854Y-118785000D01*
X90156146Y-118785000D01*
X90444667Y-118665491D01*
X90665491Y-118444667D01*
X90785000Y-118156146D01*
X90785000Y-117843854D01*
X90715000Y-117674859D01*
X90715000Y-115096162D01*
X91113723Y-114697440D01*
X91750000Y-114697440D01*
X91997765Y-114648157D01*
X92207809Y-114507809D01*
X92348157Y-114297765D01*
X92397440Y-114050000D01*
X92397440Y-113635000D01*
X93065262Y-113635000D01*
X92965000Y-113877055D01*
X92965000Y-114189347D01*
X93084509Y-114477868D01*
X93305333Y-114698692D01*
X93474329Y-114768692D01*
X93818202Y-115112566D01*
X93818201Y-124152560D01*
X93250000Y-124152560D01*
X93002235Y-124201843D01*
X92892749Y-124275000D01*
X92773750Y-124275000D01*
X92615000Y-124433750D01*
X92615000Y-124526309D01*
X92643374Y-124594811D01*
X92602560Y-124800000D01*
X92602560Y-125065000D01*
X89897440Y-125065000D01*
X89897440Y-124800000D01*
X89856626Y-124594811D01*
X89885000Y-124526309D01*
X89885000Y-124433750D01*
X89726250Y-124275000D01*
X89607251Y-124275000D01*
X89497765Y-124201843D01*
X89250000Y-124152560D01*
X88681799Y-124152560D01*
X88681799Y-123423750D01*
X88877000Y-123423750D01*
X88877000Y-124025000D01*
X89726250Y-124025000D01*
X89885000Y-123866250D01*
X89885000Y-123773691D01*
X92615000Y-123773691D01*
X92615000Y-123866250D01*
X92773750Y-124025000D01*
X93623000Y-124025000D01*
X93623000Y-123423750D01*
X93464250Y-123265000D01*
X93123690Y-123265000D01*
X92890301Y-123361673D01*
X92711673Y-123540302D01*
X92615000Y-123773691D01*
X89885000Y-123773691D01*
X89788327Y-123540302D01*
X89609699Y-123361673D01*
X89376310Y-123265000D01*
X89035750Y-123265000D01*
X88877000Y-123423750D01*
X88681799Y-123423750D01*
X88681799Y-110289363D01*
X89205790Y-109765373D01*
X89265485Y-109725486D01*
X89285001Y-109696279D01*
X89285000Y-111314583D01*
G36*
X87386347Y-107282510D02*
X87384047Y-107284047D01*
X87340253Y-107349589D01*
X86199590Y-108490253D01*
X86134048Y-108534047D01*
X86090254Y-108599589D01*
X86090251Y-108599592D01*
X85960546Y-108793709D01*
X85899622Y-109100000D01*
X85915001Y-109177317D01*
X85915000Y-118843854D01*
X85915000Y-119122688D01*
X85899622Y-119200000D01*
X85915000Y-119277312D01*
X85915000Y-119277315D01*
X85960546Y-119506291D01*
X86134047Y-119765953D01*
X86199592Y-119809749D01*
X86715001Y-120325159D01*
X86715000Y-123345603D01*
X86567462Y-123316256D01*
X86567461Y-123316256D01*
X86500000Y-123302837D01*
X86432538Y-123316256D01*
X85585000Y-123316256D01*
X85585000Y-105481162D01*
X87386347Y-107282510D01*
X87386347Y-107282510D01*
G37*
X87386347Y-107282510D02*
X87384047Y-107284047D01*
X87340253Y-107349589D01*
X86199590Y-108490253D01*
X86134048Y-108534047D01*
X86090254Y-108599589D01*
X86090251Y-108599592D01*
X85960546Y-108793709D01*
X85899622Y-109100000D01*
X85915001Y-109177317D01*
X85915000Y-118843854D01*
X85915000Y-119122688D01*
X85899622Y-119200000D01*
X85915000Y-119277312D01*
X85915000Y-119277315D01*
X85960546Y-119506291D01*
X86134047Y-119765953D01*
X86199592Y-119809749D01*
X86715001Y-120325159D01*
X86715000Y-123345603D01*
X86567462Y-123316256D01*
X86567461Y-123316256D01*
X86500000Y-123302837D01*
X86432538Y-123316256D01*
X85585000Y-123316256D01*
X85585000Y-105481162D01*
X87386347Y-107282510D01*
G36*
X95535000Y-109179583D02*
X95520993Y-109250000D01*
X95535000Y-109320417D01*
X95576485Y-109528978D01*
X95734514Y-109765485D01*
X95794212Y-109805374D01*
X96318201Y-110329364D01*
X96318202Y-111152560D01*
X95750000Y-111152560D01*
X95502235Y-111201843D01*
X95392749Y-111275000D01*
X95273750Y-111275000D01*
X95115000Y-111433750D01*
X95115000Y-111526309D01*
X95143374Y-111594811D01*
X95102560Y-111800000D01*
X95102560Y-112065000D01*
X94577312Y-112065000D01*
X94500000Y-112049622D01*
X94422688Y-112065000D01*
X92397440Y-112065000D01*
X92397440Y-111800000D01*
X92356626Y-111594811D01*
X92385000Y-111526309D01*
X92385000Y-111433750D01*
X92226250Y-111275000D01*
X92107251Y-111275000D01*
X91997765Y-111201843D01*
X91750000Y-111152560D01*
X91103000Y-111152560D01*
X91103000Y-111025000D01*
X91123000Y-111025000D01*
X91123000Y-110423750D01*
X91377000Y-110423750D01*
X91377000Y-111025000D01*
X92226250Y-111025000D01*
X92385000Y-110866250D01*
X92385000Y-110773691D01*
X92288327Y-110540302D01*
X92109699Y-110361673D01*
X91876310Y-110265000D01*
X91535750Y-110265000D01*
X91377000Y-110423750D01*
X91123000Y-110423750D01*
X90964250Y-110265000D01*
X90715000Y-110265000D01*
X90715000Y-108825141D01*
X90785000Y-108656146D01*
X90785000Y-108635000D01*
X92602560Y-108635000D01*
X92602560Y-109050000D01*
X92651843Y-109297765D01*
X92792191Y-109507809D01*
X93002235Y-109648157D01*
X93035000Y-109654674D01*
X93035000Y-110174859D01*
X92965000Y-110343854D01*
X92965000Y-110656146D01*
X93084509Y-110944667D01*
X93305333Y-111165491D01*
X93593854Y-111285000D01*
X93906146Y-111285000D01*
X94194667Y-111165491D01*
X94415491Y-110944667D01*
X94486311Y-110773691D01*
X95115000Y-110773691D01*
X95115000Y-110866250D01*
X95273750Y-111025000D01*
X96123000Y-111025000D01*
X96123000Y-110423750D01*
X95964250Y-110265000D01*
X95623690Y-110265000D01*
X95390301Y-110361673D01*
X95211673Y-110540302D01*
X95115000Y-110773691D01*
X94486311Y-110773691D01*
X94535000Y-110656146D01*
X94535000Y-110343854D01*
X94465000Y-110174859D01*
X94465000Y-109654674D01*
X94497765Y-109648157D01*
X94707809Y-109507809D01*
X94848157Y-109297765D01*
X94897440Y-109050000D01*
X94897440Y-108649869D01*
X94900000Y-108650378D01*
X94977312Y-108635000D01*
X94977316Y-108635000D01*
X95206292Y-108589454D01*
X95465953Y-108415953D01*
X95509750Y-108350407D01*
X95535000Y-108325157D01*
X95535000Y-109179583D01*
X95535000Y-109179583D01*
G37*
X95535000Y-109179583D02*
X95520993Y-109250000D01*
X95535000Y-109320417D01*
X95576485Y-109528978D01*
X95734514Y-109765485D01*
X95794212Y-109805374D01*
X96318201Y-110329364D01*
X96318202Y-111152560D01*
X95750000Y-111152560D01*
X95502235Y-111201843D01*
X95392749Y-111275000D01*
X95273750Y-111275000D01*
X95115000Y-111433750D01*
X95115000Y-111526309D01*
X95143374Y-111594811D01*
X95102560Y-111800000D01*
X95102560Y-112065000D01*
X94577312Y-112065000D01*
X94500000Y-112049622D01*
X94422688Y-112065000D01*
X92397440Y-112065000D01*
X92397440Y-111800000D01*
X92356626Y-111594811D01*
X92385000Y-111526309D01*
X92385000Y-111433750D01*
X92226250Y-111275000D01*
X92107251Y-111275000D01*
X91997765Y-111201843D01*
X91750000Y-111152560D01*
X91103000Y-111152560D01*
X91103000Y-111025000D01*
X91123000Y-111025000D01*
X91123000Y-110423750D01*
X91377000Y-110423750D01*
X91377000Y-111025000D01*
X92226250Y-111025000D01*
X92385000Y-110866250D01*
X92385000Y-110773691D01*
X92288327Y-110540302D01*
X92109699Y-110361673D01*
X91876310Y-110265000D01*
X91535750Y-110265000D01*
X91377000Y-110423750D01*
X91123000Y-110423750D01*
X90964250Y-110265000D01*
X90715000Y-110265000D01*
X90715000Y-108825141D01*
X90785000Y-108656146D01*
X90785000Y-108635000D01*
X92602560Y-108635000D01*
X92602560Y-109050000D01*
X92651843Y-109297765D01*
X92792191Y-109507809D01*
X93002235Y-109648157D01*
X93035000Y-109654674D01*
X93035000Y-110174859D01*
X92965000Y-110343854D01*
X92965000Y-110656146D01*
X93084509Y-110944667D01*
X93305333Y-111165491D01*
X93593854Y-111285000D01*
X93906146Y-111285000D01*
X94194667Y-111165491D01*
X94415491Y-110944667D01*
X94486311Y-110773691D01*
X95115000Y-110773691D01*
X95115000Y-110866250D01*
X95273750Y-111025000D01*
X96123000Y-111025000D01*
X96123000Y-110423750D01*
X95964250Y-110265000D01*
X95623690Y-110265000D01*
X95390301Y-110361673D01*
X95211673Y-110540302D01*
X95115000Y-110773691D01*
X94486311Y-110773691D01*
X94535000Y-110656146D01*
X94535000Y-110343854D01*
X94465000Y-110174859D01*
X94465000Y-109654674D01*
X94497765Y-109648157D01*
X94707809Y-109507809D01*
X94848157Y-109297765D01*
X94897440Y-109050000D01*
X94897440Y-108649869D01*
X94900000Y-108650378D01*
X94977312Y-108635000D01*
X94977316Y-108635000D01*
X95206292Y-108589454D01*
X95465953Y-108415953D01*
X95509750Y-108350407D01*
X95535000Y-108325157D01*
X95535000Y-109179583D01*
G36*
X92965000Y-98343854D02*
X92965000Y-98656146D01*
X92995167Y-98728976D01*
X93010546Y-98806291D01*
X93054341Y-98871835D01*
X93084509Y-98944667D01*
X93140253Y-99000411D01*
X93184047Y-99065953D01*
X93249589Y-99109747D01*
X93305333Y-99165491D01*
X93378164Y-99195658D01*
X93443708Y-99239454D01*
X93521025Y-99254833D01*
X93593854Y-99285000D01*
X93672684Y-99285000D01*
X93750000Y-99300379D01*
X93827316Y-99285000D01*
X93906146Y-99285000D01*
X93978976Y-99254833D01*
X94056291Y-99239454D01*
X94121835Y-99195659D01*
X94194667Y-99165491D01*
X94250411Y-99109747D01*
X94285000Y-99086635D01*
X94285001Y-105265000D01*
X94035750Y-105265000D01*
X93877000Y-105423750D01*
X93877000Y-106025000D01*
X93897000Y-106025000D01*
X93897000Y-106152560D01*
X93250000Y-106152560D01*
X93002235Y-106201843D01*
X92892749Y-106275000D01*
X92773750Y-106275000D01*
X92615000Y-106433750D01*
X92615000Y-106526309D01*
X92643374Y-106594811D01*
X92602560Y-106800000D01*
X92602560Y-107065000D01*
X89897440Y-107065000D01*
X89897440Y-106800000D01*
X89856626Y-106594811D01*
X89885000Y-106526309D01*
X89885000Y-106433750D01*
X89726250Y-106275000D01*
X89607251Y-106275000D01*
X89497765Y-106201843D01*
X89250000Y-106152560D01*
X88603000Y-106152560D01*
X88603000Y-106025000D01*
X88623000Y-106025000D01*
X88623000Y-105423750D01*
X88877000Y-105423750D01*
X88877000Y-106025000D01*
X89726250Y-106025000D01*
X89885000Y-105866250D01*
X89885000Y-105773691D01*
X92615000Y-105773691D01*
X92615000Y-105866250D01*
X92773750Y-106025000D01*
X93623000Y-106025000D01*
X93623000Y-105423750D01*
X93464250Y-105265000D01*
X93123690Y-105265000D01*
X92890301Y-105361673D01*
X92711673Y-105540302D01*
X92615000Y-105773691D01*
X89885000Y-105773691D01*
X89788327Y-105540302D01*
X89609699Y-105361673D01*
X89376310Y-105265000D01*
X89035750Y-105265000D01*
X88877000Y-105423750D01*
X88623000Y-105423750D01*
X88464250Y-105265000D01*
X88123690Y-105265000D01*
X87890301Y-105361673D01*
X87711673Y-105540302D01*
X87698432Y-105572269D01*
X86715000Y-104588838D01*
X86715000Y-101785000D01*
X88422688Y-101785000D01*
X88500000Y-101800378D01*
X88577312Y-101785000D01*
X88577316Y-101785000D01*
X88806292Y-101739454D01*
X89065953Y-101565953D01*
X89109749Y-101500408D01*
X90500411Y-100109747D01*
X90565953Y-100065953D01*
X90609747Y-100000411D01*
X90609749Y-100000409D01*
X90739453Y-99806293D01*
X90739454Y-99806292D01*
X90785000Y-99577316D01*
X90785000Y-99577312D01*
X90800378Y-99500001D01*
X90785000Y-99422690D01*
X90785000Y-97197440D01*
X91750000Y-97197440D01*
X91997765Y-97148157D01*
X92207809Y-97007809D01*
X92348157Y-96797765D01*
X92397440Y-96550000D01*
X92397440Y-96135000D01*
X92965001Y-96135000D01*
X92965000Y-98343854D01*
X92965000Y-98343854D01*
G37*
X92965000Y-98343854D02*
X92965000Y-98656146D01*
X92995167Y-98728976D01*
X93010546Y-98806291D01*
X93054341Y-98871835D01*
X93084509Y-98944667D01*
X93140253Y-99000411D01*
X93184047Y-99065953D01*
X93249589Y-99109747D01*
X93305333Y-99165491D01*
X93378164Y-99195658D01*
X93443708Y-99239454D01*
X93521025Y-99254833D01*
X93593854Y-99285000D01*
X93672684Y-99285000D01*
X93750000Y-99300379D01*
X93827316Y-99285000D01*
X93906146Y-99285000D01*
X93978976Y-99254833D01*
X94056291Y-99239454D01*
X94121835Y-99195659D01*
X94194667Y-99165491D01*
X94250411Y-99109747D01*
X94285000Y-99086635D01*
X94285001Y-105265000D01*
X94035750Y-105265000D01*
X93877000Y-105423750D01*
X93877000Y-106025000D01*
X93897000Y-106025000D01*
X93897000Y-106152560D01*
X93250000Y-106152560D01*
X93002235Y-106201843D01*
X92892749Y-106275000D01*
X92773750Y-106275000D01*
X92615000Y-106433750D01*
X92615000Y-106526309D01*
X92643374Y-106594811D01*
X92602560Y-106800000D01*
X92602560Y-107065000D01*
X89897440Y-107065000D01*
X89897440Y-106800000D01*
X89856626Y-106594811D01*
X89885000Y-106526309D01*
X89885000Y-106433750D01*
X89726250Y-106275000D01*
X89607251Y-106275000D01*
X89497765Y-106201843D01*
X89250000Y-106152560D01*
X88603000Y-106152560D01*
X88603000Y-106025000D01*
X88623000Y-106025000D01*
X88623000Y-105423750D01*
X88877000Y-105423750D01*
X88877000Y-106025000D01*
X89726250Y-106025000D01*
X89885000Y-105866250D01*
X89885000Y-105773691D01*
X92615000Y-105773691D01*
X92615000Y-105866250D01*
X92773750Y-106025000D01*
X93623000Y-106025000D01*
X93623000Y-105423750D01*
X93464250Y-105265000D01*
X93123690Y-105265000D01*
X92890301Y-105361673D01*
X92711673Y-105540302D01*
X92615000Y-105773691D01*
X89885000Y-105773691D01*
X89788327Y-105540302D01*
X89609699Y-105361673D01*
X89376310Y-105265000D01*
X89035750Y-105265000D01*
X88877000Y-105423750D01*
X88623000Y-105423750D01*
X88464250Y-105265000D01*
X88123690Y-105265000D01*
X87890301Y-105361673D01*
X87711673Y-105540302D01*
X87698432Y-105572269D01*
X86715000Y-104588838D01*
X86715000Y-101785000D01*
X88422688Y-101785000D01*
X88500000Y-101800378D01*
X88577312Y-101785000D01*
X88577316Y-101785000D01*
X88806292Y-101739454D01*
X89065953Y-101565953D01*
X89109749Y-101500408D01*
X90500411Y-100109747D01*
X90565953Y-100065953D01*
X90609747Y-100000411D01*
X90609749Y-100000409D01*
X90739453Y-99806293D01*
X90739454Y-99806292D01*
X90785000Y-99577316D01*
X90785000Y-99577312D01*
X90800378Y-99500001D01*
X90785000Y-99422690D01*
X90785000Y-97197440D01*
X91750000Y-97197440D01*
X91997765Y-97148157D01*
X92207809Y-97007809D01*
X92348157Y-96797765D01*
X92397440Y-96550000D01*
X92397440Y-96135000D01*
X92965001Y-96135000D01*
X92965000Y-98343854D01*
G36*
X89215001Y-95422680D02*
X89215000Y-95422685D01*
X89215000Y-95422688D01*
X89199622Y-95500000D01*
X89215000Y-95577312D01*
X89215001Y-99174841D01*
X88174843Y-100215000D01*
X86715000Y-100215000D01*
X86715000Y-97268647D01*
X89205790Y-94777858D01*
X89215001Y-94771703D01*
X89215001Y-95422680D01*
X89215001Y-95422680D01*
G37*
X89215001Y-95422680D02*
X89215000Y-95422685D01*
X89215000Y-95422688D01*
X89199622Y-95500000D01*
X89215000Y-95577312D01*
X89215001Y-99174841D01*
X88174843Y-100215000D01*
X86715000Y-100215000D01*
X86715000Y-97268647D01*
X89205790Y-94777858D01*
X89215001Y-94771703D01*
X89215001Y-95422680D01*
G36*
X87815001Y-84932534D02*
X87801581Y-85000000D01*
X87854745Y-85267273D01*
X88006143Y-85493857D01*
X88232727Y-85645255D01*
X88432538Y-85685000D01*
X88432539Y-85685000D01*
X88500000Y-85698419D01*
X88567462Y-85685000D01*
X95432538Y-85685000D01*
X95500000Y-85698419D01*
X95567461Y-85685000D01*
X95567462Y-85685000D01*
X95767273Y-85645255D01*
X95993857Y-85493857D01*
X96145255Y-85267273D01*
X96198419Y-85000000D01*
X96185000Y-84932538D01*
X96185000Y-83127000D01*
X96815001Y-83127000D01*
X96815000Y-85067461D01*
X96815001Y-85067466D01*
X96815001Y-92765000D01*
X96535750Y-92765000D01*
X96377000Y-92923750D01*
X96377000Y-93525000D01*
X96397000Y-93525000D01*
X96397000Y-93652560D01*
X96103000Y-93652560D01*
X96103000Y-93525000D01*
X96123000Y-93525000D01*
X96123000Y-92923750D01*
X95964250Y-92765000D01*
X95752338Y-92765000D01*
X95715000Y-92674859D01*
X95715000Y-92370416D01*
X95729007Y-92299999D01*
X95708607Y-92197440D01*
X95673515Y-92021021D01*
X95515486Y-91784514D01*
X95455788Y-91744625D01*
X94897440Y-91186278D01*
X94897440Y-91100000D01*
X94852685Y-90875000D01*
X94897440Y-90650000D01*
X94897440Y-90050000D01*
X94857658Y-89850000D01*
X94897440Y-89650000D01*
X94897440Y-89300000D01*
X94856626Y-89094811D01*
X94885000Y-89026309D01*
X94885000Y-88933750D01*
X94726250Y-88775000D01*
X94607251Y-88775000D01*
X94497765Y-88701843D01*
X94250000Y-88652560D01*
X93250000Y-88652560D01*
X93002235Y-88701843D01*
X92892749Y-88775000D01*
X92773750Y-88775000D01*
X92615000Y-88933750D01*
X92615000Y-89026309D01*
X92643374Y-89094811D01*
X92602560Y-89300000D01*
X92602560Y-89565000D01*
X90077316Y-89565000D01*
X90000000Y-89549621D01*
X89922684Y-89565000D01*
X89897440Y-89565000D01*
X89897440Y-89300000D01*
X89856626Y-89094811D01*
X89885000Y-89026309D01*
X89885000Y-88933750D01*
X89726250Y-88775000D01*
X89607251Y-88775000D01*
X89497765Y-88701843D01*
X89250000Y-88652560D01*
X88250000Y-88652560D01*
X88002235Y-88701843D01*
X87892749Y-88775000D01*
X87773750Y-88775000D01*
X87615000Y-88933750D01*
X87615000Y-89026309D01*
X87643374Y-89094811D01*
X87602560Y-89300000D01*
X87602560Y-89650000D01*
X87642342Y-89850000D01*
X87602560Y-90050000D01*
X87602560Y-90650000D01*
X87647315Y-90875000D01*
X87602560Y-91100000D01*
X87602560Y-91550000D01*
X87651843Y-91797765D01*
X87792191Y-92007809D01*
X88002235Y-92148157D01*
X88035001Y-92154674D01*
X88035000Y-93926322D01*
X87185000Y-94776322D01*
X87185000Y-88273691D01*
X87615000Y-88273691D01*
X87615000Y-88366250D01*
X87773750Y-88525000D01*
X88623000Y-88525000D01*
X88623000Y-87923750D01*
X88877000Y-87923750D01*
X88877000Y-88525000D01*
X89726250Y-88525000D01*
X89885000Y-88366250D01*
X89885000Y-88273691D01*
X92615000Y-88273691D01*
X92615000Y-88366250D01*
X92773750Y-88525000D01*
X93623000Y-88525000D01*
X93623000Y-87923750D01*
X93877000Y-87923750D01*
X93877000Y-88525000D01*
X94726250Y-88525000D01*
X94885000Y-88366250D01*
X94885000Y-88273691D01*
X94788327Y-88040302D01*
X94609699Y-87861673D01*
X94376310Y-87765000D01*
X94035750Y-87765000D01*
X93877000Y-87923750D01*
X93623000Y-87923750D01*
X93464250Y-87765000D01*
X93123690Y-87765000D01*
X92890301Y-87861673D01*
X92711673Y-88040302D01*
X92615000Y-88273691D01*
X89885000Y-88273691D01*
X89788327Y-88040302D01*
X89609699Y-87861673D01*
X89376310Y-87765000D01*
X89035750Y-87765000D01*
X88877000Y-87923750D01*
X88623000Y-87923750D01*
X88464250Y-87765000D01*
X88123690Y-87765000D01*
X87890301Y-87861673D01*
X87711673Y-88040302D01*
X87615000Y-88273691D01*
X87185000Y-88273691D01*
X87185000Y-83127000D01*
X87815000Y-83127000D01*
X87815001Y-84932534D01*
X87815001Y-84932534D01*
G37*
X87815001Y-84932534D02*
X87801581Y-85000000D01*
X87854745Y-85267273D01*
X88006143Y-85493857D01*
X88232727Y-85645255D01*
X88432538Y-85685000D01*
X88432539Y-85685000D01*
X88500000Y-85698419D01*
X88567462Y-85685000D01*
X95432538Y-85685000D01*
X95500000Y-85698419D01*
X95567461Y-85685000D01*
X95567462Y-85685000D01*
X95767273Y-85645255D01*
X95993857Y-85493857D01*
X96145255Y-85267273D01*
X96198419Y-85000000D01*
X96185000Y-84932538D01*
X96185000Y-83127000D01*
X96815001Y-83127000D01*
X96815000Y-85067461D01*
X96815001Y-85067466D01*
X96815001Y-92765000D01*
X96535750Y-92765000D01*
X96377000Y-92923750D01*
X96377000Y-93525000D01*
X96397000Y-93525000D01*
X96397000Y-93652560D01*
X96103000Y-93652560D01*
X96103000Y-93525000D01*
X96123000Y-93525000D01*
X96123000Y-92923750D01*
X95964250Y-92765000D01*
X95752338Y-92765000D01*
X95715000Y-92674859D01*
X95715000Y-92370416D01*
X95729007Y-92299999D01*
X95708607Y-92197440D01*
X95673515Y-92021021D01*
X95515486Y-91784514D01*
X95455788Y-91744625D01*
X94897440Y-91186278D01*
X94897440Y-91100000D01*
X94852685Y-90875000D01*
X94897440Y-90650000D01*
X94897440Y-90050000D01*
X94857658Y-89850000D01*
X94897440Y-89650000D01*
X94897440Y-89300000D01*
X94856626Y-89094811D01*
X94885000Y-89026309D01*
X94885000Y-88933750D01*
X94726250Y-88775000D01*
X94607251Y-88775000D01*
X94497765Y-88701843D01*
X94250000Y-88652560D01*
X93250000Y-88652560D01*
X93002235Y-88701843D01*
X92892749Y-88775000D01*
X92773750Y-88775000D01*
X92615000Y-88933750D01*
X92615000Y-89026309D01*
X92643374Y-89094811D01*
X92602560Y-89300000D01*
X92602560Y-89565000D01*
X90077316Y-89565000D01*
X90000000Y-89549621D01*
X89922684Y-89565000D01*
X89897440Y-89565000D01*
X89897440Y-89300000D01*
X89856626Y-89094811D01*
X89885000Y-89026309D01*
X89885000Y-88933750D01*
X89726250Y-88775000D01*
X89607251Y-88775000D01*
X89497765Y-88701843D01*
X89250000Y-88652560D01*
X88250000Y-88652560D01*
X88002235Y-88701843D01*
X87892749Y-88775000D01*
X87773750Y-88775000D01*
X87615000Y-88933750D01*
X87615000Y-89026309D01*
X87643374Y-89094811D01*
X87602560Y-89300000D01*
X87602560Y-89650000D01*
X87642342Y-89850000D01*
X87602560Y-90050000D01*
X87602560Y-90650000D01*
X87647315Y-90875000D01*
X87602560Y-91100000D01*
X87602560Y-91550000D01*
X87651843Y-91797765D01*
X87792191Y-92007809D01*
X88002235Y-92148157D01*
X88035001Y-92154674D01*
X88035000Y-93926322D01*
X87185000Y-94776322D01*
X87185000Y-88273691D01*
X87615000Y-88273691D01*
X87615000Y-88366250D01*
X87773750Y-88525000D01*
X88623000Y-88525000D01*
X88623000Y-87923750D01*
X88877000Y-87923750D01*
X88877000Y-88525000D01*
X89726250Y-88525000D01*
X89885000Y-88366250D01*
X89885000Y-88273691D01*
X92615000Y-88273691D01*
X92615000Y-88366250D01*
X92773750Y-88525000D01*
X93623000Y-88525000D01*
X93623000Y-87923750D01*
X93877000Y-87923750D01*
X93877000Y-88525000D01*
X94726250Y-88525000D01*
X94885000Y-88366250D01*
X94885000Y-88273691D01*
X94788327Y-88040302D01*
X94609699Y-87861673D01*
X94376310Y-87765000D01*
X94035750Y-87765000D01*
X93877000Y-87923750D01*
X93623000Y-87923750D01*
X93464250Y-87765000D01*
X93123690Y-87765000D01*
X92890301Y-87861673D01*
X92711673Y-88040302D01*
X92615000Y-88273691D01*
X89885000Y-88273691D01*
X89788327Y-88040302D01*
X89609699Y-87861673D01*
X89376310Y-87765000D01*
X89035750Y-87765000D01*
X88877000Y-87923750D01*
X88623000Y-87923750D01*
X88464250Y-87765000D01*
X88123690Y-87765000D01*
X87890301Y-87861673D01*
X87711673Y-88040302D01*
X87615000Y-88273691D01*
X87185000Y-88273691D01*
X87185000Y-83127000D01*
X87815000Y-83127000D01*
X87815001Y-84932534D01*
G36*
X92602560Y-91550000D02*
X92651843Y-91797765D01*
X92792191Y-92007809D01*
X93002235Y-92148157D01*
X93250000Y-92197440D01*
X93886278Y-92197440D01*
X94285000Y-92596163D01*
X94285000Y-92674859D01*
X94215000Y-92843854D01*
X94215000Y-93156146D01*
X94334509Y-93444667D01*
X94555333Y-93665491D01*
X94843854Y-93785000D01*
X95156146Y-93785000D01*
X95175455Y-93777002D01*
X95271748Y-93777002D01*
X95115000Y-93933750D01*
X95115000Y-94026309D01*
X95143374Y-94094811D01*
X95102560Y-94300000D01*
X95102560Y-94565000D01*
X93827316Y-94565000D01*
X93750000Y-94549621D01*
X93672684Y-94565000D01*
X92397440Y-94565000D01*
X92397440Y-94300000D01*
X92356626Y-94094811D01*
X92385000Y-94026309D01*
X92385000Y-93933750D01*
X92226250Y-93775000D01*
X92107251Y-93775000D01*
X91997765Y-93701843D01*
X91750000Y-93652560D01*
X91103000Y-93652560D01*
X91103000Y-93525000D01*
X91123000Y-93525000D01*
X91123000Y-92923750D01*
X91377000Y-92923750D01*
X91377000Y-93525000D01*
X92226250Y-93525000D01*
X92385000Y-93366250D01*
X92385000Y-93273691D01*
X92288327Y-93040302D01*
X92109699Y-92861673D01*
X91876310Y-92765000D01*
X91535750Y-92765000D01*
X91377000Y-92923750D01*
X91123000Y-92923750D01*
X90964250Y-92765000D01*
X90785000Y-92765000D01*
X90785000Y-91135000D01*
X92602560Y-91135000D01*
X92602560Y-91550000D01*
X92602560Y-91550000D01*
G37*
X92602560Y-91550000D02*
X92651843Y-91797765D01*
X92792191Y-92007809D01*
X93002235Y-92148157D01*
X93250000Y-92197440D01*
X93886278Y-92197440D01*
X94285000Y-92596163D01*
X94285000Y-92674859D01*
X94215000Y-92843854D01*
X94215000Y-93156146D01*
X94334509Y-93444667D01*
X94555333Y-93665491D01*
X94843854Y-93785000D01*
X95156146Y-93785000D01*
X95175455Y-93777002D01*
X95271748Y-93777002D01*
X95115000Y-93933750D01*
X95115000Y-94026309D01*
X95143374Y-94094811D01*
X95102560Y-94300000D01*
X95102560Y-94565000D01*
X93827316Y-94565000D01*
X93750000Y-94549621D01*
X93672684Y-94565000D01*
X92397440Y-94565000D01*
X92397440Y-94300000D01*
X92356626Y-94094811D01*
X92385000Y-94026309D01*
X92385000Y-93933750D01*
X92226250Y-93775000D01*
X92107251Y-93775000D01*
X91997765Y-93701843D01*
X91750000Y-93652560D01*
X91103000Y-93652560D01*
X91103000Y-93525000D01*
X91123000Y-93525000D01*
X91123000Y-92923750D01*
X91377000Y-92923750D01*
X91377000Y-93525000D01*
X92226250Y-93525000D01*
X92385000Y-93366250D01*
X92385000Y-93273691D01*
X92288327Y-93040302D01*
X92109699Y-92861673D01*
X91876310Y-92765000D01*
X91535750Y-92765000D01*
X91377000Y-92923750D01*
X91123000Y-92923750D01*
X90964250Y-92765000D01*
X90785000Y-92765000D01*
X90785000Y-91135000D01*
X92602560Y-91135000D01*
X92602560Y-91550000D01*
G04 #@! TO.N,Net-(D37-Pad4)*
G36*
X110318201Y-115289364D02*
X110318202Y-128652560D01*
X109750000Y-128652560D01*
X109502235Y-128701843D01*
X109392749Y-128775000D01*
X109273750Y-128775000D01*
X109115000Y-128933750D01*
X109115000Y-129026309D01*
X109143374Y-129094811D01*
X109102560Y-129300000D01*
X109102560Y-129565000D01*
X106397440Y-129565000D01*
X106397440Y-129300000D01*
X106356626Y-129094811D01*
X106385000Y-129026309D01*
X106385000Y-128933750D01*
X106226250Y-128775000D01*
X106107251Y-128775000D01*
X105997765Y-128701843D01*
X105750000Y-128652560D01*
X105103000Y-128652560D01*
X105103000Y-128525000D01*
X105123000Y-128525000D01*
X105123000Y-127923750D01*
X105377000Y-127923750D01*
X105377000Y-128525000D01*
X106226250Y-128525000D01*
X106385000Y-128366250D01*
X106385000Y-128273691D01*
X109115000Y-128273691D01*
X109115000Y-128366250D01*
X109273750Y-128525000D01*
X110123000Y-128525000D01*
X110123000Y-127923750D01*
X109964250Y-127765000D01*
X109623690Y-127765000D01*
X109390301Y-127861673D01*
X109211673Y-128040302D01*
X109115000Y-128273691D01*
X106385000Y-128273691D01*
X106288327Y-128040302D01*
X106109699Y-127861673D01*
X105876310Y-127765000D01*
X105535750Y-127765000D01*
X105377000Y-127923750D01*
X105123000Y-127923750D01*
X104964250Y-127765000D01*
X104715000Y-127765000D01*
X104715000Y-126825141D01*
X104785000Y-126656146D01*
X104785000Y-126635000D01*
X106602560Y-126635000D01*
X106602560Y-127050000D01*
X106651843Y-127297765D01*
X106792191Y-127507809D01*
X107002235Y-127648157D01*
X107250000Y-127697440D01*
X108250000Y-127697440D01*
X108497765Y-127648157D01*
X108707809Y-127507809D01*
X108848157Y-127297765D01*
X108897440Y-127050000D01*
X108897440Y-126600000D01*
X108890761Y-126566422D01*
X109115953Y-126415953D01*
X109159749Y-126350408D01*
X109897207Y-125612950D01*
X109962752Y-125569154D01*
X110136253Y-125309493D01*
X110181799Y-125080517D01*
X110181799Y-125080513D01*
X110197177Y-125003201D01*
X110181799Y-124925889D01*
X110181799Y-115152962D01*
X110318201Y-115289364D01*
X110318201Y-115289364D01*
G37*
X110318201Y-115289364D02*
X110318202Y-128652560D01*
X109750000Y-128652560D01*
X109502235Y-128701843D01*
X109392749Y-128775000D01*
X109273750Y-128775000D01*
X109115000Y-128933750D01*
X109115000Y-129026309D01*
X109143374Y-129094811D01*
X109102560Y-129300000D01*
X109102560Y-129565000D01*
X106397440Y-129565000D01*
X106397440Y-129300000D01*
X106356626Y-129094811D01*
X106385000Y-129026309D01*
X106385000Y-128933750D01*
X106226250Y-128775000D01*
X106107251Y-128775000D01*
X105997765Y-128701843D01*
X105750000Y-128652560D01*
X105103000Y-128652560D01*
X105103000Y-128525000D01*
X105123000Y-128525000D01*
X105123000Y-127923750D01*
X105377000Y-127923750D01*
X105377000Y-128525000D01*
X106226250Y-128525000D01*
X106385000Y-128366250D01*
X106385000Y-128273691D01*
X109115000Y-128273691D01*
X109115000Y-128366250D01*
X109273750Y-128525000D01*
X110123000Y-128525000D01*
X110123000Y-127923750D01*
X109964250Y-127765000D01*
X109623690Y-127765000D01*
X109390301Y-127861673D01*
X109211673Y-128040302D01*
X109115000Y-128273691D01*
X106385000Y-128273691D01*
X106288327Y-128040302D01*
X106109699Y-127861673D01*
X105876310Y-127765000D01*
X105535750Y-127765000D01*
X105377000Y-127923750D01*
X105123000Y-127923750D01*
X104964250Y-127765000D01*
X104715000Y-127765000D01*
X104715000Y-126825141D01*
X104785000Y-126656146D01*
X104785000Y-126635000D01*
X106602560Y-126635000D01*
X106602560Y-127050000D01*
X106651843Y-127297765D01*
X106792191Y-127507809D01*
X107002235Y-127648157D01*
X107250000Y-127697440D01*
X108250000Y-127697440D01*
X108497765Y-127648157D01*
X108707809Y-127507809D01*
X108848157Y-127297765D01*
X108897440Y-127050000D01*
X108897440Y-126600000D01*
X108890761Y-126566422D01*
X109115953Y-126415953D01*
X109159749Y-126350408D01*
X109897207Y-125612950D01*
X109962752Y-125569154D01*
X110136253Y-125309493D01*
X110181799Y-125080517D01*
X110181799Y-125080513D01*
X110197177Y-125003201D01*
X110181799Y-124925889D01*
X110181799Y-115152962D01*
X110318201Y-115289364D01*
G36*
X103285000Y-111314583D02*
X103270993Y-111385000D01*
X103285000Y-111455417D01*
X103326485Y-111663978D01*
X103484514Y-111900485D01*
X103544212Y-111940374D01*
X104034625Y-112430788D01*
X104074514Y-112490486D01*
X104109719Y-112514009D01*
X104102560Y-112550000D01*
X104102560Y-113150000D01*
X104147315Y-113375000D01*
X104102560Y-113600000D01*
X104102560Y-113686277D01*
X103544213Y-114244625D01*
X103484515Y-114284514D01*
X103444626Y-114344212D01*
X103326486Y-114521021D01*
X103270993Y-114800000D01*
X103285001Y-114870422D01*
X103285000Y-117674858D01*
X103215000Y-117843854D01*
X103215000Y-118156146D01*
X103334509Y-118444667D01*
X103555333Y-118665491D01*
X103843854Y-118785000D01*
X104156146Y-118785000D01*
X104444667Y-118665491D01*
X104665491Y-118444667D01*
X104785000Y-118156146D01*
X104785000Y-117843854D01*
X104715000Y-117674859D01*
X104715000Y-115096162D01*
X105113723Y-114697440D01*
X105750000Y-114697440D01*
X105997765Y-114648157D01*
X106207809Y-114507809D01*
X106348157Y-114297765D01*
X106397440Y-114050000D01*
X106397440Y-113635000D01*
X107065262Y-113635000D01*
X106965000Y-113877055D01*
X106965000Y-114189347D01*
X107084509Y-114477868D01*
X107305333Y-114698692D01*
X107474329Y-114768692D01*
X107818202Y-115112566D01*
X107818201Y-124152560D01*
X107250000Y-124152560D01*
X107002235Y-124201843D01*
X106892749Y-124275000D01*
X106773750Y-124275000D01*
X106615000Y-124433750D01*
X106615000Y-124526309D01*
X106643374Y-124594811D01*
X106602560Y-124800000D01*
X106602560Y-125065000D01*
X103897440Y-125065000D01*
X103897440Y-124800000D01*
X103856626Y-124594811D01*
X103885000Y-124526309D01*
X103885000Y-124433750D01*
X103726250Y-124275000D01*
X103607251Y-124275000D01*
X103497765Y-124201843D01*
X103250000Y-124152560D01*
X102681799Y-124152560D01*
X102681799Y-123423750D01*
X102877000Y-123423750D01*
X102877000Y-124025000D01*
X103726250Y-124025000D01*
X103885000Y-123866250D01*
X103885000Y-123773691D01*
X106615000Y-123773691D01*
X106615000Y-123866250D01*
X106773750Y-124025000D01*
X107623000Y-124025000D01*
X107623000Y-123423750D01*
X107464250Y-123265000D01*
X107123690Y-123265000D01*
X106890301Y-123361673D01*
X106711673Y-123540302D01*
X106615000Y-123773691D01*
X103885000Y-123773691D01*
X103788327Y-123540302D01*
X103609699Y-123361673D01*
X103376310Y-123265000D01*
X103035750Y-123265000D01*
X102877000Y-123423750D01*
X102681799Y-123423750D01*
X102681799Y-110289363D01*
X103205790Y-109765373D01*
X103265485Y-109725486D01*
X103285001Y-109696279D01*
X103285000Y-111314583D01*
X103285000Y-111314583D01*
G37*
X103285000Y-111314583D02*
X103270993Y-111385000D01*
X103285000Y-111455417D01*
X103326485Y-111663978D01*
X103484514Y-111900485D01*
X103544212Y-111940374D01*
X104034625Y-112430788D01*
X104074514Y-112490486D01*
X104109719Y-112514009D01*
X104102560Y-112550000D01*
X104102560Y-113150000D01*
X104147315Y-113375000D01*
X104102560Y-113600000D01*
X104102560Y-113686277D01*
X103544213Y-114244625D01*
X103484515Y-114284514D01*
X103444626Y-114344212D01*
X103326486Y-114521021D01*
X103270993Y-114800000D01*
X103285001Y-114870422D01*
X103285000Y-117674858D01*
X103215000Y-117843854D01*
X103215000Y-118156146D01*
X103334509Y-118444667D01*
X103555333Y-118665491D01*
X103843854Y-118785000D01*
X104156146Y-118785000D01*
X104444667Y-118665491D01*
X104665491Y-118444667D01*
X104785000Y-118156146D01*
X104785000Y-117843854D01*
X104715000Y-117674859D01*
X104715000Y-115096162D01*
X105113723Y-114697440D01*
X105750000Y-114697440D01*
X105997765Y-114648157D01*
X106207809Y-114507809D01*
X106348157Y-114297765D01*
X106397440Y-114050000D01*
X106397440Y-113635000D01*
X107065262Y-113635000D01*
X106965000Y-113877055D01*
X106965000Y-114189347D01*
X107084509Y-114477868D01*
X107305333Y-114698692D01*
X107474329Y-114768692D01*
X107818202Y-115112566D01*
X107818201Y-124152560D01*
X107250000Y-124152560D01*
X107002235Y-124201843D01*
X106892749Y-124275000D01*
X106773750Y-124275000D01*
X106615000Y-124433750D01*
X106615000Y-124526309D01*
X106643374Y-124594811D01*
X106602560Y-124800000D01*
X106602560Y-125065000D01*
X103897440Y-125065000D01*
X103897440Y-124800000D01*
X103856626Y-124594811D01*
X103885000Y-124526309D01*
X103885000Y-124433750D01*
X103726250Y-124275000D01*
X103607251Y-124275000D01*
X103497765Y-124201843D01*
X103250000Y-124152560D01*
X102681799Y-124152560D01*
X102681799Y-123423750D01*
X102877000Y-123423750D01*
X102877000Y-124025000D01*
X103726250Y-124025000D01*
X103885000Y-123866250D01*
X103885000Y-123773691D01*
X106615000Y-123773691D01*
X106615000Y-123866250D01*
X106773750Y-124025000D01*
X107623000Y-124025000D01*
X107623000Y-123423750D01*
X107464250Y-123265000D01*
X107123690Y-123265000D01*
X106890301Y-123361673D01*
X106711673Y-123540302D01*
X106615000Y-123773691D01*
X103885000Y-123773691D01*
X103788327Y-123540302D01*
X103609699Y-123361673D01*
X103376310Y-123265000D01*
X103035750Y-123265000D01*
X102877000Y-123423750D01*
X102681799Y-123423750D01*
X102681799Y-110289363D01*
X103205790Y-109765373D01*
X103265485Y-109725486D01*
X103285001Y-109696279D01*
X103285000Y-111314583D01*
G36*
X101386347Y-107282510D02*
X101384047Y-107284047D01*
X101340253Y-107349589D01*
X100199590Y-108490253D01*
X100134048Y-108534047D01*
X100090254Y-108599589D01*
X100090251Y-108599592D01*
X99960546Y-108793709D01*
X99899622Y-109100000D01*
X99915001Y-109177317D01*
X99915000Y-118843854D01*
X99915000Y-119122688D01*
X99899622Y-119200000D01*
X99915000Y-119277312D01*
X99915000Y-119277315D01*
X99960546Y-119506291D01*
X100134047Y-119765953D01*
X100199592Y-119809749D01*
X100715001Y-120325159D01*
X100715000Y-123345603D01*
X100567462Y-123316256D01*
X100567461Y-123316256D01*
X100500000Y-123302837D01*
X100432538Y-123316256D01*
X99585000Y-123316256D01*
X99585000Y-105481162D01*
X101386347Y-107282510D01*
X101386347Y-107282510D01*
G37*
X101386347Y-107282510D02*
X101384047Y-107284047D01*
X101340253Y-107349589D01*
X100199590Y-108490253D01*
X100134048Y-108534047D01*
X100090254Y-108599589D01*
X100090251Y-108599592D01*
X99960546Y-108793709D01*
X99899622Y-109100000D01*
X99915001Y-109177317D01*
X99915000Y-118843854D01*
X99915000Y-119122688D01*
X99899622Y-119200000D01*
X99915000Y-119277312D01*
X99915000Y-119277315D01*
X99960546Y-119506291D01*
X100134047Y-119765953D01*
X100199592Y-119809749D01*
X100715001Y-120325159D01*
X100715000Y-123345603D01*
X100567462Y-123316256D01*
X100567461Y-123316256D01*
X100500000Y-123302837D01*
X100432538Y-123316256D01*
X99585000Y-123316256D01*
X99585000Y-105481162D01*
X101386347Y-107282510D01*
G36*
X109535000Y-109179583D02*
X109520993Y-109250000D01*
X109535000Y-109320417D01*
X109576485Y-109528978D01*
X109734514Y-109765485D01*
X109794212Y-109805374D01*
X110318201Y-110329364D01*
X110318202Y-111152560D01*
X109750000Y-111152560D01*
X109502235Y-111201843D01*
X109392749Y-111275000D01*
X109273750Y-111275000D01*
X109115000Y-111433750D01*
X109115000Y-111526309D01*
X109143374Y-111594811D01*
X109102560Y-111800000D01*
X109102560Y-112065000D01*
X108577312Y-112065000D01*
X108500000Y-112049622D01*
X108422688Y-112065000D01*
X106397440Y-112065000D01*
X106397440Y-111800000D01*
X106356626Y-111594811D01*
X106385000Y-111526309D01*
X106385000Y-111433750D01*
X106226250Y-111275000D01*
X106107251Y-111275000D01*
X105997765Y-111201843D01*
X105750000Y-111152560D01*
X105103000Y-111152560D01*
X105103000Y-111025000D01*
X105123000Y-111025000D01*
X105123000Y-110423750D01*
X105377000Y-110423750D01*
X105377000Y-111025000D01*
X106226250Y-111025000D01*
X106385000Y-110866250D01*
X106385000Y-110773691D01*
X106288327Y-110540302D01*
X106109699Y-110361673D01*
X105876310Y-110265000D01*
X105535750Y-110265000D01*
X105377000Y-110423750D01*
X105123000Y-110423750D01*
X104964250Y-110265000D01*
X104715000Y-110265000D01*
X104715000Y-108825141D01*
X104785000Y-108656146D01*
X104785000Y-108635000D01*
X106602560Y-108635000D01*
X106602560Y-109050000D01*
X106651843Y-109297765D01*
X106792191Y-109507809D01*
X107002235Y-109648157D01*
X107035000Y-109654674D01*
X107035000Y-110174859D01*
X106965000Y-110343854D01*
X106965000Y-110656146D01*
X107084509Y-110944667D01*
X107305333Y-111165491D01*
X107593854Y-111285000D01*
X107906146Y-111285000D01*
X108194667Y-111165491D01*
X108415491Y-110944667D01*
X108486311Y-110773691D01*
X109115000Y-110773691D01*
X109115000Y-110866250D01*
X109273750Y-111025000D01*
X110123000Y-111025000D01*
X110123000Y-110423750D01*
X109964250Y-110265000D01*
X109623690Y-110265000D01*
X109390301Y-110361673D01*
X109211673Y-110540302D01*
X109115000Y-110773691D01*
X108486311Y-110773691D01*
X108535000Y-110656146D01*
X108535000Y-110343854D01*
X108465000Y-110174859D01*
X108465000Y-109654674D01*
X108497765Y-109648157D01*
X108707809Y-109507809D01*
X108848157Y-109297765D01*
X108897440Y-109050000D01*
X108897440Y-108649869D01*
X108900000Y-108650378D01*
X108977312Y-108635000D01*
X108977316Y-108635000D01*
X109206292Y-108589454D01*
X109465953Y-108415953D01*
X109509750Y-108350407D01*
X109535000Y-108325157D01*
X109535000Y-109179583D01*
X109535000Y-109179583D01*
G37*
X109535000Y-109179583D02*
X109520993Y-109250000D01*
X109535000Y-109320417D01*
X109576485Y-109528978D01*
X109734514Y-109765485D01*
X109794212Y-109805374D01*
X110318201Y-110329364D01*
X110318202Y-111152560D01*
X109750000Y-111152560D01*
X109502235Y-111201843D01*
X109392749Y-111275000D01*
X109273750Y-111275000D01*
X109115000Y-111433750D01*
X109115000Y-111526309D01*
X109143374Y-111594811D01*
X109102560Y-111800000D01*
X109102560Y-112065000D01*
X108577312Y-112065000D01*
X108500000Y-112049622D01*
X108422688Y-112065000D01*
X106397440Y-112065000D01*
X106397440Y-111800000D01*
X106356626Y-111594811D01*
X106385000Y-111526309D01*
X106385000Y-111433750D01*
X106226250Y-111275000D01*
X106107251Y-111275000D01*
X105997765Y-111201843D01*
X105750000Y-111152560D01*
X105103000Y-111152560D01*
X105103000Y-111025000D01*
X105123000Y-111025000D01*
X105123000Y-110423750D01*
X105377000Y-110423750D01*
X105377000Y-111025000D01*
X106226250Y-111025000D01*
X106385000Y-110866250D01*
X106385000Y-110773691D01*
X106288327Y-110540302D01*
X106109699Y-110361673D01*
X105876310Y-110265000D01*
X105535750Y-110265000D01*
X105377000Y-110423750D01*
X105123000Y-110423750D01*
X104964250Y-110265000D01*
X104715000Y-110265000D01*
X104715000Y-108825141D01*
X104785000Y-108656146D01*
X104785000Y-108635000D01*
X106602560Y-108635000D01*
X106602560Y-109050000D01*
X106651843Y-109297765D01*
X106792191Y-109507809D01*
X107002235Y-109648157D01*
X107035000Y-109654674D01*
X107035000Y-110174859D01*
X106965000Y-110343854D01*
X106965000Y-110656146D01*
X107084509Y-110944667D01*
X107305333Y-111165491D01*
X107593854Y-111285000D01*
X107906146Y-111285000D01*
X108194667Y-111165491D01*
X108415491Y-110944667D01*
X108486311Y-110773691D01*
X109115000Y-110773691D01*
X109115000Y-110866250D01*
X109273750Y-111025000D01*
X110123000Y-111025000D01*
X110123000Y-110423750D01*
X109964250Y-110265000D01*
X109623690Y-110265000D01*
X109390301Y-110361673D01*
X109211673Y-110540302D01*
X109115000Y-110773691D01*
X108486311Y-110773691D01*
X108535000Y-110656146D01*
X108535000Y-110343854D01*
X108465000Y-110174859D01*
X108465000Y-109654674D01*
X108497765Y-109648157D01*
X108707809Y-109507809D01*
X108848157Y-109297765D01*
X108897440Y-109050000D01*
X108897440Y-108649869D01*
X108900000Y-108650378D01*
X108977312Y-108635000D01*
X108977316Y-108635000D01*
X109206292Y-108589454D01*
X109465953Y-108415953D01*
X109509750Y-108350407D01*
X109535000Y-108325157D01*
X109535000Y-109179583D01*
G36*
X106965000Y-98343854D02*
X106965000Y-98656146D01*
X106995167Y-98728976D01*
X107010546Y-98806291D01*
X107054341Y-98871835D01*
X107084509Y-98944667D01*
X107140253Y-99000411D01*
X107184047Y-99065953D01*
X107249589Y-99109747D01*
X107305333Y-99165491D01*
X107378164Y-99195658D01*
X107443708Y-99239454D01*
X107521025Y-99254833D01*
X107593854Y-99285000D01*
X107672684Y-99285000D01*
X107750000Y-99300379D01*
X107827316Y-99285000D01*
X107906146Y-99285000D01*
X107978976Y-99254833D01*
X108056291Y-99239454D01*
X108121835Y-99195659D01*
X108194667Y-99165491D01*
X108250411Y-99109747D01*
X108285000Y-99086635D01*
X108285001Y-105265000D01*
X108035750Y-105265000D01*
X107877000Y-105423750D01*
X107877000Y-106025000D01*
X107897000Y-106025000D01*
X107897000Y-106152560D01*
X107250000Y-106152560D01*
X107002235Y-106201843D01*
X106892749Y-106275000D01*
X106773750Y-106275000D01*
X106615000Y-106433750D01*
X106615000Y-106526309D01*
X106643374Y-106594811D01*
X106602560Y-106800000D01*
X106602560Y-107065000D01*
X103897440Y-107065000D01*
X103897440Y-106800000D01*
X103856626Y-106594811D01*
X103885000Y-106526309D01*
X103885000Y-106433750D01*
X103726250Y-106275000D01*
X103607251Y-106275000D01*
X103497765Y-106201843D01*
X103250000Y-106152560D01*
X102603000Y-106152560D01*
X102603000Y-106025000D01*
X102623000Y-106025000D01*
X102623000Y-105423750D01*
X102877000Y-105423750D01*
X102877000Y-106025000D01*
X103726250Y-106025000D01*
X103885000Y-105866250D01*
X103885000Y-105773691D01*
X106615000Y-105773691D01*
X106615000Y-105866250D01*
X106773750Y-106025000D01*
X107623000Y-106025000D01*
X107623000Y-105423750D01*
X107464250Y-105265000D01*
X107123690Y-105265000D01*
X106890301Y-105361673D01*
X106711673Y-105540302D01*
X106615000Y-105773691D01*
X103885000Y-105773691D01*
X103788327Y-105540302D01*
X103609699Y-105361673D01*
X103376310Y-105265000D01*
X103035750Y-105265000D01*
X102877000Y-105423750D01*
X102623000Y-105423750D01*
X102464250Y-105265000D01*
X102123690Y-105265000D01*
X101890301Y-105361673D01*
X101711673Y-105540302D01*
X101698432Y-105572269D01*
X100715000Y-104588838D01*
X100715000Y-101785000D01*
X102422688Y-101785000D01*
X102500000Y-101800378D01*
X102577312Y-101785000D01*
X102577316Y-101785000D01*
X102806292Y-101739454D01*
X103065953Y-101565953D01*
X103109749Y-101500408D01*
X104500411Y-100109747D01*
X104565953Y-100065953D01*
X104609747Y-100000411D01*
X104609749Y-100000409D01*
X104739453Y-99806293D01*
X104739454Y-99806292D01*
X104785000Y-99577316D01*
X104785000Y-99577312D01*
X104800378Y-99500001D01*
X104785000Y-99422690D01*
X104785000Y-97197440D01*
X105750000Y-97197440D01*
X105997765Y-97148157D01*
X106207809Y-97007809D01*
X106348157Y-96797765D01*
X106397440Y-96550000D01*
X106397440Y-96135000D01*
X106965001Y-96135000D01*
X106965000Y-98343854D01*
X106965000Y-98343854D01*
G37*
X106965000Y-98343854D02*
X106965000Y-98656146D01*
X106995167Y-98728976D01*
X107010546Y-98806291D01*
X107054341Y-98871835D01*
X107084509Y-98944667D01*
X107140253Y-99000411D01*
X107184047Y-99065953D01*
X107249589Y-99109747D01*
X107305333Y-99165491D01*
X107378164Y-99195658D01*
X107443708Y-99239454D01*
X107521025Y-99254833D01*
X107593854Y-99285000D01*
X107672684Y-99285000D01*
X107750000Y-99300379D01*
X107827316Y-99285000D01*
X107906146Y-99285000D01*
X107978976Y-99254833D01*
X108056291Y-99239454D01*
X108121835Y-99195659D01*
X108194667Y-99165491D01*
X108250411Y-99109747D01*
X108285000Y-99086635D01*
X108285001Y-105265000D01*
X108035750Y-105265000D01*
X107877000Y-105423750D01*
X107877000Y-106025000D01*
X107897000Y-106025000D01*
X107897000Y-106152560D01*
X107250000Y-106152560D01*
X107002235Y-106201843D01*
X106892749Y-106275000D01*
X106773750Y-106275000D01*
X106615000Y-106433750D01*
X106615000Y-106526309D01*
X106643374Y-106594811D01*
X106602560Y-106800000D01*
X106602560Y-107065000D01*
X103897440Y-107065000D01*
X103897440Y-106800000D01*
X103856626Y-106594811D01*
X103885000Y-106526309D01*
X103885000Y-106433750D01*
X103726250Y-106275000D01*
X103607251Y-106275000D01*
X103497765Y-106201843D01*
X103250000Y-106152560D01*
X102603000Y-106152560D01*
X102603000Y-106025000D01*
X102623000Y-106025000D01*
X102623000Y-105423750D01*
X102877000Y-105423750D01*
X102877000Y-106025000D01*
X103726250Y-106025000D01*
X103885000Y-105866250D01*
X103885000Y-105773691D01*
X106615000Y-105773691D01*
X106615000Y-105866250D01*
X106773750Y-106025000D01*
X107623000Y-106025000D01*
X107623000Y-105423750D01*
X107464250Y-105265000D01*
X107123690Y-105265000D01*
X106890301Y-105361673D01*
X106711673Y-105540302D01*
X106615000Y-105773691D01*
X103885000Y-105773691D01*
X103788327Y-105540302D01*
X103609699Y-105361673D01*
X103376310Y-105265000D01*
X103035750Y-105265000D01*
X102877000Y-105423750D01*
X102623000Y-105423750D01*
X102464250Y-105265000D01*
X102123690Y-105265000D01*
X101890301Y-105361673D01*
X101711673Y-105540302D01*
X101698432Y-105572269D01*
X100715000Y-104588838D01*
X100715000Y-101785000D01*
X102422688Y-101785000D01*
X102500000Y-101800378D01*
X102577312Y-101785000D01*
X102577316Y-101785000D01*
X102806292Y-101739454D01*
X103065953Y-101565953D01*
X103109749Y-101500408D01*
X104500411Y-100109747D01*
X104565953Y-100065953D01*
X104609747Y-100000411D01*
X104609749Y-100000409D01*
X104739453Y-99806293D01*
X104739454Y-99806292D01*
X104785000Y-99577316D01*
X104785000Y-99577312D01*
X104800378Y-99500001D01*
X104785000Y-99422690D01*
X104785000Y-97197440D01*
X105750000Y-97197440D01*
X105997765Y-97148157D01*
X106207809Y-97007809D01*
X106348157Y-96797765D01*
X106397440Y-96550000D01*
X106397440Y-96135000D01*
X106965001Y-96135000D01*
X106965000Y-98343854D01*
G36*
X103215001Y-95422680D02*
X103215000Y-95422685D01*
X103215000Y-95422688D01*
X103199622Y-95500000D01*
X103215000Y-95577312D01*
X103215001Y-99174841D01*
X102174843Y-100215000D01*
X100715000Y-100215000D01*
X100715000Y-97268647D01*
X103205790Y-94777858D01*
X103215001Y-94771703D01*
X103215001Y-95422680D01*
X103215001Y-95422680D01*
G37*
X103215001Y-95422680D02*
X103215000Y-95422685D01*
X103215000Y-95422688D01*
X103199622Y-95500000D01*
X103215000Y-95577312D01*
X103215001Y-99174841D01*
X102174843Y-100215000D01*
X100715000Y-100215000D01*
X100715000Y-97268647D01*
X103205790Y-94777858D01*
X103215001Y-94771703D01*
X103215001Y-95422680D01*
G36*
X101815000Y-84932538D02*
X101801581Y-85000000D01*
X101854745Y-85267273D01*
X102006143Y-85493857D01*
X102232727Y-85645255D01*
X102500000Y-85698419D01*
X102567461Y-85685000D01*
X109432538Y-85685000D01*
X109500000Y-85698419D01*
X109567461Y-85685000D01*
X109567462Y-85685000D01*
X109767273Y-85645255D01*
X109993857Y-85493857D01*
X110145255Y-85267273D01*
X110198419Y-85000000D01*
X110185000Y-84932538D01*
X110185000Y-83127000D01*
X110815001Y-83127000D01*
X110815000Y-85067461D01*
X110815001Y-85067466D01*
X110815001Y-92765000D01*
X110535750Y-92765000D01*
X110377000Y-92923750D01*
X110377000Y-93525000D01*
X110397000Y-93525000D01*
X110397000Y-93652560D01*
X110103000Y-93652560D01*
X110103000Y-93525000D01*
X110123000Y-93525000D01*
X110123000Y-92923750D01*
X109964250Y-92765000D01*
X109752338Y-92765000D01*
X109715000Y-92674859D01*
X109715000Y-92370416D01*
X109729007Y-92299999D01*
X109708607Y-92197440D01*
X109673515Y-92021021D01*
X109515486Y-91784514D01*
X109455788Y-91744625D01*
X108897440Y-91186278D01*
X108897440Y-91100000D01*
X108852685Y-90875000D01*
X108897440Y-90650000D01*
X108897440Y-90050000D01*
X108857658Y-89850000D01*
X108897440Y-89650000D01*
X108897440Y-89300000D01*
X108856626Y-89094811D01*
X108885000Y-89026309D01*
X108885000Y-88933750D01*
X108726250Y-88775000D01*
X108607251Y-88775000D01*
X108497765Y-88701843D01*
X108250000Y-88652560D01*
X107250000Y-88652560D01*
X107002235Y-88701843D01*
X106892749Y-88775000D01*
X106773750Y-88775000D01*
X106615000Y-88933750D01*
X106615000Y-89026309D01*
X106643374Y-89094811D01*
X106602560Y-89300000D01*
X106602560Y-89565000D01*
X104077316Y-89565000D01*
X104000000Y-89549621D01*
X103922684Y-89565000D01*
X103897440Y-89565000D01*
X103897440Y-89300000D01*
X103856626Y-89094811D01*
X103885000Y-89026309D01*
X103885000Y-88933750D01*
X103726250Y-88775000D01*
X103607251Y-88775000D01*
X103497765Y-88701843D01*
X103250000Y-88652560D01*
X102250000Y-88652560D01*
X102002235Y-88701843D01*
X101892749Y-88775000D01*
X101773750Y-88775000D01*
X101615000Y-88933750D01*
X101615000Y-89026309D01*
X101643374Y-89094811D01*
X101602560Y-89300000D01*
X101602560Y-89650000D01*
X101642342Y-89850000D01*
X101602560Y-90050000D01*
X101602560Y-90650000D01*
X101647315Y-90875000D01*
X101602560Y-91100000D01*
X101602560Y-91550000D01*
X101651843Y-91797765D01*
X101792191Y-92007809D01*
X102002235Y-92148157D01*
X102035001Y-92154674D01*
X102035000Y-93926322D01*
X101185000Y-94776322D01*
X101185000Y-88273691D01*
X101615000Y-88273691D01*
X101615000Y-88366250D01*
X101773750Y-88525000D01*
X102623000Y-88525000D01*
X102623000Y-87923750D01*
X102877000Y-87923750D01*
X102877000Y-88525000D01*
X103726250Y-88525000D01*
X103885000Y-88366250D01*
X103885000Y-88273691D01*
X106615000Y-88273691D01*
X106615000Y-88366250D01*
X106773750Y-88525000D01*
X107623000Y-88525000D01*
X107623000Y-87923750D01*
X107877000Y-87923750D01*
X107877000Y-88525000D01*
X108726250Y-88525000D01*
X108885000Y-88366250D01*
X108885000Y-88273691D01*
X108788327Y-88040302D01*
X108609699Y-87861673D01*
X108376310Y-87765000D01*
X108035750Y-87765000D01*
X107877000Y-87923750D01*
X107623000Y-87923750D01*
X107464250Y-87765000D01*
X107123690Y-87765000D01*
X106890301Y-87861673D01*
X106711673Y-88040302D01*
X106615000Y-88273691D01*
X103885000Y-88273691D01*
X103788327Y-88040302D01*
X103609699Y-87861673D01*
X103376310Y-87765000D01*
X103035750Y-87765000D01*
X102877000Y-87923750D01*
X102623000Y-87923750D01*
X102464250Y-87765000D01*
X102123690Y-87765000D01*
X101890301Y-87861673D01*
X101711673Y-88040302D01*
X101615000Y-88273691D01*
X101185000Y-88273691D01*
X101185000Y-83127000D01*
X101815001Y-83127000D01*
X101815000Y-84932538D01*
X101815000Y-84932538D01*
G37*
X101815000Y-84932538D02*
X101801581Y-85000000D01*
X101854745Y-85267273D01*
X102006143Y-85493857D01*
X102232727Y-85645255D01*
X102500000Y-85698419D01*
X102567461Y-85685000D01*
X109432538Y-85685000D01*
X109500000Y-85698419D01*
X109567461Y-85685000D01*
X109567462Y-85685000D01*
X109767273Y-85645255D01*
X109993857Y-85493857D01*
X110145255Y-85267273D01*
X110198419Y-85000000D01*
X110185000Y-84932538D01*
X110185000Y-83127000D01*
X110815001Y-83127000D01*
X110815000Y-85067461D01*
X110815001Y-85067466D01*
X110815001Y-92765000D01*
X110535750Y-92765000D01*
X110377000Y-92923750D01*
X110377000Y-93525000D01*
X110397000Y-93525000D01*
X110397000Y-93652560D01*
X110103000Y-93652560D01*
X110103000Y-93525000D01*
X110123000Y-93525000D01*
X110123000Y-92923750D01*
X109964250Y-92765000D01*
X109752338Y-92765000D01*
X109715000Y-92674859D01*
X109715000Y-92370416D01*
X109729007Y-92299999D01*
X109708607Y-92197440D01*
X109673515Y-92021021D01*
X109515486Y-91784514D01*
X109455788Y-91744625D01*
X108897440Y-91186278D01*
X108897440Y-91100000D01*
X108852685Y-90875000D01*
X108897440Y-90650000D01*
X108897440Y-90050000D01*
X108857658Y-89850000D01*
X108897440Y-89650000D01*
X108897440Y-89300000D01*
X108856626Y-89094811D01*
X108885000Y-89026309D01*
X108885000Y-88933750D01*
X108726250Y-88775000D01*
X108607251Y-88775000D01*
X108497765Y-88701843D01*
X108250000Y-88652560D01*
X107250000Y-88652560D01*
X107002235Y-88701843D01*
X106892749Y-88775000D01*
X106773750Y-88775000D01*
X106615000Y-88933750D01*
X106615000Y-89026309D01*
X106643374Y-89094811D01*
X106602560Y-89300000D01*
X106602560Y-89565000D01*
X104077316Y-89565000D01*
X104000000Y-89549621D01*
X103922684Y-89565000D01*
X103897440Y-89565000D01*
X103897440Y-89300000D01*
X103856626Y-89094811D01*
X103885000Y-89026309D01*
X103885000Y-88933750D01*
X103726250Y-88775000D01*
X103607251Y-88775000D01*
X103497765Y-88701843D01*
X103250000Y-88652560D01*
X102250000Y-88652560D01*
X102002235Y-88701843D01*
X101892749Y-88775000D01*
X101773750Y-88775000D01*
X101615000Y-88933750D01*
X101615000Y-89026309D01*
X101643374Y-89094811D01*
X101602560Y-89300000D01*
X101602560Y-89650000D01*
X101642342Y-89850000D01*
X101602560Y-90050000D01*
X101602560Y-90650000D01*
X101647315Y-90875000D01*
X101602560Y-91100000D01*
X101602560Y-91550000D01*
X101651843Y-91797765D01*
X101792191Y-92007809D01*
X102002235Y-92148157D01*
X102035001Y-92154674D01*
X102035000Y-93926322D01*
X101185000Y-94776322D01*
X101185000Y-88273691D01*
X101615000Y-88273691D01*
X101615000Y-88366250D01*
X101773750Y-88525000D01*
X102623000Y-88525000D01*
X102623000Y-87923750D01*
X102877000Y-87923750D01*
X102877000Y-88525000D01*
X103726250Y-88525000D01*
X103885000Y-88366250D01*
X103885000Y-88273691D01*
X106615000Y-88273691D01*
X106615000Y-88366250D01*
X106773750Y-88525000D01*
X107623000Y-88525000D01*
X107623000Y-87923750D01*
X107877000Y-87923750D01*
X107877000Y-88525000D01*
X108726250Y-88525000D01*
X108885000Y-88366250D01*
X108885000Y-88273691D01*
X108788327Y-88040302D01*
X108609699Y-87861673D01*
X108376310Y-87765000D01*
X108035750Y-87765000D01*
X107877000Y-87923750D01*
X107623000Y-87923750D01*
X107464250Y-87765000D01*
X107123690Y-87765000D01*
X106890301Y-87861673D01*
X106711673Y-88040302D01*
X106615000Y-88273691D01*
X103885000Y-88273691D01*
X103788327Y-88040302D01*
X103609699Y-87861673D01*
X103376310Y-87765000D01*
X103035750Y-87765000D01*
X102877000Y-87923750D01*
X102623000Y-87923750D01*
X102464250Y-87765000D01*
X102123690Y-87765000D01*
X101890301Y-87861673D01*
X101711673Y-88040302D01*
X101615000Y-88273691D01*
X101185000Y-88273691D01*
X101185000Y-83127000D01*
X101815001Y-83127000D01*
X101815000Y-84932538D01*
G36*
X106602560Y-91550000D02*
X106651843Y-91797765D01*
X106792191Y-92007809D01*
X107002235Y-92148157D01*
X107250000Y-92197440D01*
X107886278Y-92197440D01*
X108285000Y-92596163D01*
X108285000Y-92674859D01*
X108215000Y-92843854D01*
X108215000Y-93156146D01*
X108334509Y-93444667D01*
X108555333Y-93665491D01*
X108843854Y-93785000D01*
X109156146Y-93785000D01*
X109175455Y-93777002D01*
X109271748Y-93777002D01*
X109115000Y-93933750D01*
X109115000Y-94026309D01*
X109143374Y-94094811D01*
X109102560Y-94300000D01*
X109102560Y-94565000D01*
X107827316Y-94565000D01*
X107750000Y-94549621D01*
X107672684Y-94565000D01*
X106397440Y-94565000D01*
X106397440Y-94300000D01*
X106356626Y-94094811D01*
X106385000Y-94026309D01*
X106385000Y-93933750D01*
X106226250Y-93775000D01*
X106107251Y-93775000D01*
X105997765Y-93701843D01*
X105750000Y-93652560D01*
X105103000Y-93652560D01*
X105103000Y-93525000D01*
X105123000Y-93525000D01*
X105123000Y-92923750D01*
X105377000Y-92923750D01*
X105377000Y-93525000D01*
X106226250Y-93525000D01*
X106385000Y-93366250D01*
X106385000Y-93273691D01*
X106288327Y-93040302D01*
X106109699Y-92861673D01*
X105876310Y-92765000D01*
X105535750Y-92765000D01*
X105377000Y-92923750D01*
X105123000Y-92923750D01*
X104964250Y-92765000D01*
X104785000Y-92765000D01*
X104785000Y-91135000D01*
X106602560Y-91135000D01*
X106602560Y-91550000D01*
X106602560Y-91550000D01*
G37*
X106602560Y-91550000D02*
X106651843Y-91797765D01*
X106792191Y-92007809D01*
X107002235Y-92148157D01*
X107250000Y-92197440D01*
X107886278Y-92197440D01*
X108285000Y-92596163D01*
X108285000Y-92674859D01*
X108215000Y-92843854D01*
X108215000Y-93156146D01*
X108334509Y-93444667D01*
X108555333Y-93665491D01*
X108843854Y-93785000D01*
X109156146Y-93785000D01*
X109175455Y-93777002D01*
X109271748Y-93777002D01*
X109115000Y-93933750D01*
X109115000Y-94026309D01*
X109143374Y-94094811D01*
X109102560Y-94300000D01*
X109102560Y-94565000D01*
X107827316Y-94565000D01*
X107750000Y-94549621D01*
X107672684Y-94565000D01*
X106397440Y-94565000D01*
X106397440Y-94300000D01*
X106356626Y-94094811D01*
X106385000Y-94026309D01*
X106385000Y-93933750D01*
X106226250Y-93775000D01*
X106107251Y-93775000D01*
X105997765Y-93701843D01*
X105750000Y-93652560D01*
X105103000Y-93652560D01*
X105103000Y-93525000D01*
X105123000Y-93525000D01*
X105123000Y-92923750D01*
X105377000Y-92923750D01*
X105377000Y-93525000D01*
X106226250Y-93525000D01*
X106385000Y-93366250D01*
X106385000Y-93273691D01*
X106288327Y-93040302D01*
X106109699Y-92861673D01*
X105876310Y-92765000D01*
X105535750Y-92765000D01*
X105377000Y-92923750D01*
X105123000Y-92923750D01*
X104964250Y-92765000D01*
X104785000Y-92765000D01*
X104785000Y-91135000D01*
X106602560Y-91135000D01*
X106602560Y-91550000D01*
G04 #@! TD*
M02*
