G04 #@! TF.GenerationSoftware,KiCad,Pcbnew,(5.0.0)*
G04 #@! TF.CreationDate,2018-11-23T13:39:21+09:00*
G04 #@! TF.ProjectId,LED_hachune_2,4C45445F68616368756E655F322E6B69,rev?*
G04 #@! TF.SameCoordinates,Original*
G04 #@! TF.FileFunction,Copper,L2,Bot,Signal*
G04 #@! TF.FilePolarity,Positive*
%FSLAX46Y46*%
G04 Gerber Fmt 4.6, Leading zero omitted, Abs format (unit mm)*
G04 Created by KiCad (PCBNEW (5.0.0)) date 11/23/18 13:39:21*
%MOMM*%
%LPD*%
G01*
G04 APERTURE LIST*
G04 #@! TA.AperFunction,SMDPad,CuDef*
%ADD10R,3.600000X1.000000*%
G04 #@! TD*
G04 #@! TA.AperFunction,ComponentPad*
%ADD11R,2.000000X1.700000*%
G04 #@! TD*
G04 #@! TA.AperFunction,ComponentPad*
%ADD12O,2.000000X1.700000*%
G04 #@! TD*
G04 #@! TA.AperFunction,Conductor*
%ADD13R,2.800000X2.300000*%
G04 #@! TD*
G04 #@! TA.AperFunction,ComponentPad*
%ADD14C,0.600000*%
G04 #@! TD*
G04 #@! TA.AperFunction,ViaPad*
%ADD15C,0.300000*%
G04 #@! TD*
G04 #@! TA.AperFunction,ViaPad*
%ADD16C,0.203200*%
G04 #@! TD*
G04 #@! TA.AperFunction,Conductor*
%ADD17C,0.200000*%
G04 #@! TD*
G04 #@! TA.AperFunction,Conductor*
%ADD18C,0.300000*%
G04 #@! TD*
G04 #@! TA.AperFunction,Conductor*
%ADD19C,0.160000*%
G04 #@! TD*
G04 #@! TA.AperFunction,Conductor*
%ADD20C,0.254000*%
G04 #@! TD*
G04 APERTURE END LIST*
D10*
G04 #@! TO.P,J8,1*
G04 #@! TO.N,Net-(D37-Pad4)*
X100700000Y-123000000D03*
G04 #@! TO.P,J8,2*
X100700000Y-121000000D03*
G04 #@! TO.P,J8,3*
G04 #@! TO.N,Net-(D37-Pad2)*
X100700000Y-119000000D03*
G04 #@! TO.P,J8,4*
G04 #@! TO.N,Net-(D37-Pad1)*
X100700000Y-117000000D03*
G04 #@! TO.P,J8,5*
G04 #@! TO.N,Net-(D40-Pad1)*
X100700000Y-115000000D03*
G04 #@! TO.P,J8,6*
G04 #@! TO.N,Net-(D43-Pad1)*
X100700000Y-113000000D03*
G04 #@! TO.P,J8,7*
G04 #@! TO.N,Net-(D46-Pad1)*
X100700000Y-111000000D03*
G04 #@! TO.P,J8,8*
G04 #@! TO.N,Net-(J8-Pad8)*
X100700000Y-109000000D03*
G04 #@! TO.P,J8,9*
G04 #@! TO.N,Net-(J8-Pad9)*
X100700000Y-107000000D03*
G04 #@! TO.P,J8,10*
G04 #@! TO.N,Net-(J8-Pad10)*
X100700000Y-105000000D03*
G04 #@! TO.P,J8,11*
G04 #@! TO.N,Net-(J8-Pad11)*
X100700000Y-103000000D03*
G04 #@! TO.P,J8,12*
G04 #@! TO.N,Net-(D37-Pad2)*
X100700000Y-101000000D03*
G04 #@! TO.P,J8,13*
G04 #@! TO.N,Net-(D37-Pad4)*
X100700000Y-99000000D03*
G04 #@! TO.P,J8,14*
X100700000Y-97000000D03*
G04 #@! TD*
G04 #@! TO.P,J7,14*
G04 #@! TO.N,Net-(D25-Pad4)*
X86700000Y-97000000D03*
G04 #@! TO.P,J7,13*
X86700000Y-99000000D03*
G04 #@! TO.P,J7,12*
G04 #@! TO.N,Net-(D25-Pad2)*
X86700000Y-101000000D03*
G04 #@! TO.P,J7,11*
G04 #@! TO.N,Net-(J7-Pad11)*
X86700000Y-103000000D03*
G04 #@! TO.P,J7,10*
G04 #@! TO.N,Net-(J7-Pad10)*
X86700000Y-105000000D03*
G04 #@! TO.P,J7,9*
G04 #@! TO.N,Net-(J7-Pad9)*
X86700000Y-107000000D03*
G04 #@! TO.P,J7,8*
G04 #@! TO.N,Net-(J7-Pad8)*
X86700000Y-109000000D03*
G04 #@! TO.P,J7,7*
G04 #@! TO.N,Net-(D34-Pad1)*
X86700000Y-111000000D03*
G04 #@! TO.P,J7,6*
G04 #@! TO.N,Net-(D31-Pad1)*
X86700000Y-113000000D03*
G04 #@! TO.P,J7,5*
G04 #@! TO.N,Net-(D28-Pad1)*
X86700000Y-115000000D03*
G04 #@! TO.P,J7,4*
G04 #@! TO.N,Net-(D25-Pad1)*
X86700000Y-117000000D03*
G04 #@! TO.P,J7,3*
G04 #@! TO.N,Net-(D25-Pad2)*
X86700000Y-119000000D03*
G04 #@! TO.P,J7,2*
G04 #@! TO.N,Net-(D25-Pad4)*
X86700000Y-121000000D03*
G04 #@! TO.P,J7,1*
X86700000Y-123000000D03*
G04 #@! TD*
G04 #@! TO.P,J6,14*
G04 #@! TO.N,Net-(D13-Pad4)*
X72700000Y-92000000D03*
G04 #@! TO.P,J6,13*
X72700000Y-94000000D03*
G04 #@! TO.P,J6,12*
G04 #@! TO.N,Net-(D13-Pad2)*
X72700000Y-96000000D03*
G04 #@! TO.P,J6,11*
G04 #@! TO.N,Net-(J6-Pad11)*
X72700000Y-98000000D03*
G04 #@! TO.P,J6,10*
G04 #@! TO.N,Net-(J6-Pad10)*
X72700000Y-100000000D03*
G04 #@! TO.P,J6,9*
G04 #@! TO.N,Net-(J6-Pad9)*
X72700000Y-102000000D03*
G04 #@! TO.P,J6,8*
G04 #@! TO.N,Net-(J6-Pad8)*
X72700000Y-104000000D03*
G04 #@! TO.P,J6,7*
G04 #@! TO.N,Net-(D22-Pad1)*
X72700000Y-106000000D03*
G04 #@! TO.P,J6,6*
G04 #@! TO.N,Net-(D19-Pad1)*
X72700000Y-108000000D03*
G04 #@! TO.P,J6,5*
G04 #@! TO.N,Net-(D16-Pad1)*
X72700000Y-110000000D03*
G04 #@! TO.P,J6,4*
G04 #@! TO.N,Net-(D13-Pad1)*
X72700000Y-112000000D03*
G04 #@! TO.P,J6,3*
G04 #@! TO.N,Net-(D13-Pad2)*
X72700000Y-114000000D03*
G04 #@! TO.P,J6,2*
G04 #@! TO.N,Net-(D13-Pad4)*
X72700000Y-116000000D03*
G04 #@! TO.P,J6,1*
X72700000Y-118000000D03*
G04 #@! TD*
D11*
G04 #@! TO.P,J12,1*
G04 #@! TO.N,Net-(C3-Pad1)*
X78000000Y-57500000D03*
D12*
G04 #@! TO.P,J12,2*
G04 #@! TO.N,GNDD*
X78000000Y-60000000D03*
G04 #@! TD*
G04 #@! TO.P,J13,2*
G04 #@! TO.N,GNDD*
X61000000Y-57250000D03*
D11*
G04 #@! TO.P,J13,1*
G04 #@! TO.N,Net-(C4-Pad1)*
X61000000Y-59750000D03*
G04 #@! TD*
D13*
G04 #@! TO.N,GNDD*
G04 #@! TO.C,U3*
X69750000Y-56500000D03*
D14*
G04 #@! TD*
G04 #@! TO.P,U3,11*
G04 #@! TO.N,GNDD*
X70500000Y-57000000D03*
G04 #@! TO.P,U3,11*
G04 #@! TO.N,GNDD*
X69000000Y-57000000D03*
X69000000Y-56000000D03*
X69750000Y-56500000D03*
X70500000Y-56000000D03*
G04 #@! TD*
D10*
G04 #@! TO.P,J4,1*
G04 #@! TO.N,Net-(D1-Pad4)*
X58700000Y-118000000D03*
G04 #@! TO.P,J4,2*
X58700000Y-116000000D03*
G04 #@! TO.P,J4,3*
G04 #@! TO.N,Net-(D1-Pad2)*
X58700000Y-114000000D03*
G04 #@! TO.P,J4,4*
G04 #@! TO.N,Net-(D1-Pad1)*
X58700000Y-112000000D03*
G04 #@! TO.P,J4,5*
G04 #@! TO.N,Net-(D4-Pad1)*
X58700000Y-110000000D03*
G04 #@! TO.P,J4,6*
G04 #@! TO.N,Net-(D7-Pad1)*
X58700000Y-108000000D03*
G04 #@! TO.P,J4,7*
G04 #@! TO.N,Net-(D10-Pad1)*
X58700000Y-106000000D03*
G04 #@! TO.P,J4,8*
G04 #@! TO.N,Net-(J4-Pad8)*
X58700000Y-104000000D03*
G04 #@! TO.P,J4,9*
G04 #@! TO.N,Net-(J4-Pad9)*
X58700000Y-102000000D03*
G04 #@! TO.P,J4,10*
G04 #@! TO.N,Net-(J4-Pad10)*
X58700000Y-100000000D03*
G04 #@! TO.P,J4,11*
G04 #@! TO.N,Net-(J4-Pad11)*
X58700000Y-98000000D03*
G04 #@! TO.P,J4,12*
G04 #@! TO.N,Net-(D1-Pad2)*
X58700000Y-96000000D03*
G04 #@! TO.P,J4,13*
G04 #@! TO.N,Net-(D1-Pad4)*
X58700000Y-94000000D03*
G04 #@! TO.P,J4,14*
X58700000Y-92000000D03*
G04 #@! TD*
D15*
G04 #@! TO.N,Net-(JP1-Pad2)*
X71250000Y-53500000D03*
X75050000Y-52500000D03*
G04 #@! TO.N,Net-(D13-Pad2)*
X72700000Y-96000000D03*
X72700000Y-114000000D03*
X81250000Y-102500000D03*
X79750000Y-88500000D03*
X79750000Y-85350000D03*
G04 #@! TO.N,Net-(D13-Pad4)*
X76500000Y-78650000D03*
X79000000Y-83650000D03*
X76500000Y-101150000D03*
X79000000Y-106150000D03*
X76500000Y-124150000D03*
X79000000Y-128650000D03*
X72700000Y-116000000D03*
X72700000Y-118000000D03*
X72700000Y-92000000D03*
X72700000Y-94000000D03*
X78500000Y-124150000D03*
X78500000Y-115000000D03*
X79000000Y-109000000D03*
G04 #@! TO.N,Net-(D22-Pad1)*
X82250000Y-131325000D03*
G04 #@! TO.N,Net-(D5-Pad3)*
X62000000Y-103500000D03*
X63250000Y-86325000D03*
G04 #@! TO.N,Net-(D1-Pad4)*
X62500000Y-78650000D03*
X65000000Y-83650000D03*
X62500000Y-101150000D03*
X65000000Y-106150000D03*
X62500000Y-124150000D03*
X65000000Y-128650000D03*
X58700000Y-116000000D03*
X58700000Y-118000000D03*
X58700000Y-92000000D03*
X58700000Y-94000000D03*
X64500000Y-124150000D03*
X64500000Y-115000000D03*
X65000000Y-109000000D03*
G04 #@! TO.N,Net-(D1-Pad2)*
X58700000Y-96000000D03*
X58700000Y-114000000D03*
X67250000Y-102500000D03*
X65750000Y-88500000D03*
X65750000Y-85350000D03*
G04 #@! TO.N,Net-(D1-Pad1)*
X60750000Y-126825000D03*
G04 #@! TO.N,Net-(D4-Pad3)*
X62000000Y-126500000D03*
X62000000Y-113000000D03*
G04 #@! TO.N,Net-(D4-Pad1)*
X63250000Y-131325000D03*
G04 #@! TO.N,Net-(D7-Pad3)*
X65750000Y-109033201D03*
X65750000Y-105500000D03*
G04 #@! TO.N,Net-(D7-Pad1)*
X65750000Y-126825000D03*
G04 #@! TO.N,Net-(D8-Pad3)*
X67000000Y-86000000D03*
X67000000Y-83000000D03*
G04 #@! TO.N,Net-(D13-Pad1)*
X74750000Y-126825000D03*
G04 #@! TO.N,Net-(D16-Pad1)*
X77250000Y-131325000D03*
G04 #@! TO.N,Net-(D16-Pad3)*
X76000000Y-126500000D03*
X76000000Y-113000000D03*
G04 #@! TO.N,Net-(D17-Pad3)*
X76000000Y-103500000D03*
X77250000Y-86325000D03*
G04 #@! TO.N,Net-(D19-Pad3)*
X79750000Y-109033201D03*
X79750000Y-105500000D03*
G04 #@! TO.N,Net-(D19-Pad1)*
X79750000Y-126825000D03*
G04 #@! TO.N,Net-(D20-Pad3)*
X81000000Y-86000000D03*
X81000000Y-83000000D03*
G04 #@! TO.N,Net-(D10-Pad1)*
X68250000Y-131325000D03*
G04 #@! TO.N,GNDD*
X66250000Y-56250000D03*
X71775000Y-59775000D03*
G04 #@! TO.N,Net-(D25-Pad1)*
X88750000Y-126825000D03*
G04 #@! TO.N,Net-(D25-Pad2)*
X86700000Y-101000000D03*
X86700000Y-119000000D03*
X95250000Y-107500000D03*
X93750000Y-98500000D03*
X93750000Y-95350000D03*
G04 #@! TO.N,Net-(D25-Pad4)*
X90500000Y-88650000D03*
X93000000Y-93650000D03*
X90500000Y-106150000D03*
X93000000Y-111150000D03*
X90500000Y-124150000D03*
X93000000Y-128650000D03*
X86700000Y-121000000D03*
X86700000Y-123000000D03*
X86700000Y-97000000D03*
X86700000Y-99000000D03*
X92500000Y-124150000D03*
X92500000Y-120000000D03*
X93000000Y-114000000D03*
D16*
X89000000Y-122000000D03*
D15*
G04 #@! TO.N,Net-(D28-Pad3)*
X90000000Y-126500000D03*
X90000000Y-118000000D03*
G04 #@! TO.N,Net-(D28-Pad1)*
X91250000Y-131325000D03*
G04 #@! TO.N,Net-(D29-Pad3)*
X90000000Y-108500000D03*
X91250000Y-96325000D03*
G04 #@! TO.N,Net-(D31-Pad3)*
X93750000Y-114033201D03*
X93750000Y-110500000D03*
G04 #@! TO.N,Net-(D31-Pad1)*
X93750000Y-126825000D03*
G04 #@! TO.N,Net-(D32-Pad3)*
X95000000Y-96000000D03*
X95000000Y-93000000D03*
G04 #@! TO.N,Net-(D34-Pad1)*
X96250000Y-131325000D03*
G04 #@! TO.N,Net-(D37-Pad4)*
X104500000Y-88650000D03*
X107000000Y-93650000D03*
X104500000Y-106150000D03*
X107000000Y-111150000D03*
X104500000Y-124150000D03*
X107000000Y-128650000D03*
X100700000Y-121000000D03*
X100700000Y-123000000D03*
X100700000Y-97000000D03*
X100700000Y-99000000D03*
X106500000Y-124150000D03*
X106500000Y-120000000D03*
X107000000Y-114000000D03*
D16*
X103000000Y-122000000D03*
D15*
G04 #@! TO.N,Net-(D37-Pad2)*
X100700000Y-101000000D03*
X100700000Y-119000000D03*
X109250000Y-107500000D03*
X107750000Y-98500000D03*
X107750000Y-95350000D03*
G04 #@! TO.N,Net-(D37-Pad1)*
X102750000Y-126825000D03*
G04 #@! TO.N,Net-(D40-Pad1)*
X105250000Y-131325000D03*
G04 #@! TO.N,Net-(D40-Pad3)*
X104000000Y-126500000D03*
X104000000Y-118000000D03*
G04 #@! TO.N,Net-(D41-Pad3)*
X104000000Y-108500000D03*
X105250000Y-96325000D03*
G04 #@! TO.N,Net-(D43-Pad1)*
X107750000Y-126825000D03*
G04 #@! TO.N,Net-(D43-Pad3)*
X107750000Y-114033201D03*
X107750000Y-110500000D03*
G04 #@! TO.N,Net-(D44-Pad3)*
X109000000Y-96000000D03*
X109000000Y-93000000D03*
G04 #@! TO.N,Net-(D46-Pad1)*
X110250000Y-131325000D03*
G04 #@! TD*
D17*
G04 #@! TO.N,Net-(JP1-Pad2)*
X71250000Y-53500000D02*
X72250000Y-52500000D01*
X72250000Y-52500000D02*
X75050000Y-52500000D01*
D18*
G04 #@! TO.N,Net-(D13-Pad2)*
X81250000Y-102500000D02*
X81250000Y-90500000D01*
X81250000Y-90500000D02*
X81250000Y-90000000D01*
X81250000Y-90000000D02*
X79750000Y-88500000D01*
D19*
G04 #@! TO.N,Net-(D13-Pad4)*
X76500000Y-81150000D02*
X79000000Y-83650000D01*
X76500000Y-78650000D02*
X76500000Y-81150000D01*
X79000000Y-83650000D02*
X74000000Y-88650000D01*
X72700000Y-91340000D02*
X72700000Y-92000000D01*
X74000000Y-90040000D02*
X72700000Y-91340000D01*
X74000000Y-88650000D02*
X74000000Y-90040000D01*
X72700000Y-92000000D02*
X72700000Y-94000000D01*
X76500000Y-103650000D02*
X79000000Y-106150000D01*
X76500000Y-101150000D02*
X76500000Y-103650000D01*
X79000000Y-124650000D02*
X78500000Y-124150000D01*
X79000000Y-128650000D02*
X79000000Y-124650000D01*
X79000000Y-131000000D02*
X79000000Y-128650000D01*
X76000000Y-134000000D02*
X79000000Y-131000000D01*
X73500000Y-131500000D02*
X76000000Y-134000000D01*
X73500000Y-121500000D02*
X73500000Y-131500000D01*
X74000000Y-121000000D02*
X73500000Y-121500000D01*
X75000000Y-117000000D02*
X75000000Y-116000000D01*
X75000000Y-116000000D02*
X72700000Y-116000000D01*
X72700000Y-118000000D02*
X75000000Y-118000000D01*
X75000000Y-118000000D02*
X75000000Y-117000000D01*
X74000000Y-119960000D02*
X75000000Y-118960000D01*
X74000000Y-121000000D02*
X74000000Y-119960000D01*
X75000000Y-118960000D02*
X75000000Y-118000000D01*
X79000000Y-98650000D02*
X79000000Y-83650000D01*
X76500000Y-101150000D02*
X79000000Y-98650000D01*
X78500000Y-124150000D02*
X78500000Y-115000000D01*
X79000000Y-109000000D02*
X79000000Y-106000000D01*
G04 #@! TO.N,Net-(D22-Pad1)*
X82250000Y-114250000D02*
X82250000Y-131325000D01*
X74000000Y-106000000D02*
X82250000Y-114250000D01*
X72700000Y-106000000D02*
X74000000Y-106000000D01*
G04 #@! TO.N,Net-(D5-Pad3)*
X62000000Y-103500000D02*
X62000000Y-87575000D01*
X62000000Y-87575000D02*
X63250000Y-86325000D01*
G04 #@! TO.N,Net-(D1-Pad4)*
X62500000Y-81150000D02*
X65000000Y-83650000D01*
X62500000Y-78650000D02*
X62500000Y-81150000D01*
X65000000Y-83650000D02*
X60000000Y-88650000D01*
X58700000Y-91340000D02*
X58700000Y-92000000D01*
X60000000Y-90040000D02*
X58700000Y-91340000D01*
X60000000Y-88650000D02*
X60000000Y-90040000D01*
X58700000Y-92000000D02*
X58700000Y-94000000D01*
X62500000Y-103650000D02*
X65000000Y-106150000D01*
X62500000Y-101150000D02*
X62500000Y-103650000D01*
X65000000Y-124650000D02*
X64500000Y-124150000D01*
X65000000Y-128650000D02*
X65000000Y-124650000D01*
X65000000Y-131000000D02*
X65000000Y-128650000D01*
X62000000Y-134000000D02*
X65000000Y-131000000D01*
X59500000Y-131500000D02*
X62000000Y-134000000D01*
X59500000Y-121500000D02*
X59500000Y-131500000D01*
X60000000Y-121000000D02*
X59500000Y-121500000D01*
X61000000Y-117000000D02*
X61000000Y-116000000D01*
X61000000Y-116000000D02*
X58700000Y-116000000D01*
X58700000Y-118000000D02*
X61000000Y-118000000D01*
X61000000Y-118000000D02*
X61000000Y-117000000D01*
X60000000Y-119960000D02*
X61000000Y-118960000D01*
X60000000Y-121000000D02*
X60000000Y-119960000D01*
X61000000Y-118960000D02*
X61000000Y-118000000D01*
X65000000Y-98650000D02*
X65000000Y-83650000D01*
X62500000Y-101150000D02*
X65000000Y-98650000D01*
X64500000Y-124150000D02*
X64500000Y-115000000D01*
X65000000Y-109000000D02*
X65000000Y-106000000D01*
D18*
G04 #@! TO.N,Net-(D1-Pad2)*
X67250000Y-102500000D02*
X67250000Y-90500000D01*
X67250000Y-90500000D02*
X67250000Y-90000000D01*
X67250000Y-90000000D02*
X65750000Y-88500000D01*
D19*
G04 #@! TO.N,Net-(D1-Pad1)*
X60000000Y-112000000D02*
X61500000Y-113500000D01*
X58700000Y-112000000D02*
X60000000Y-112000000D01*
X61500000Y-113500000D02*
X61500000Y-126075000D01*
X61500000Y-126075000D02*
X60750000Y-126825000D01*
G04 #@! TO.N,Net-(D4-Pad3)*
X62000000Y-126500000D02*
X62000000Y-113000000D01*
G04 #@! TO.N,Net-(D4-Pad1)*
X63250000Y-113250000D02*
X63250000Y-131325000D01*
X60000000Y-110000000D02*
X63250000Y-113250000D01*
X58700000Y-110000000D02*
X60000000Y-110000000D01*
G04 #@! TO.N,Net-(D7-Pad3)*
X65750000Y-105500000D02*
X65750000Y-109033201D01*
G04 #@! TO.N,Net-(D7-Pad1)*
X65750000Y-113750000D02*
X65750000Y-126825000D01*
X60000000Y-108000000D02*
X65750000Y-113750000D01*
X58700000Y-108000000D02*
X60000000Y-108000000D01*
G04 #@! TO.N,Net-(D8-Pad3)*
X67000000Y-86000000D02*
X67000000Y-83000000D01*
G04 #@! TO.N,Net-(D13-Pad1)*
X74000000Y-112000000D02*
X75500000Y-113500000D01*
X72700000Y-112000000D02*
X74000000Y-112000000D01*
X75500000Y-113500000D02*
X75500000Y-126075000D01*
X75500000Y-126075000D02*
X74750000Y-126825000D01*
G04 #@! TO.N,Net-(D16-Pad1)*
X77250000Y-113250000D02*
X77250000Y-131325000D01*
X74000000Y-110000000D02*
X77250000Y-113250000D01*
X72700000Y-110000000D02*
X74000000Y-110000000D01*
G04 #@! TO.N,Net-(D16-Pad3)*
X76000000Y-126500000D02*
X76000000Y-113000000D01*
G04 #@! TO.N,Net-(D17-Pad3)*
X76000000Y-103500000D02*
X76000000Y-87575000D01*
X76000000Y-87575000D02*
X77250000Y-86325000D01*
G04 #@! TO.N,Net-(D19-Pad3)*
X79750000Y-105500000D02*
X79750000Y-109033201D01*
G04 #@! TO.N,Net-(D19-Pad1)*
X79750000Y-113750000D02*
X79750000Y-126825000D01*
X74000000Y-108000000D02*
X79750000Y-113750000D01*
X72700000Y-108000000D02*
X74000000Y-108000000D01*
G04 #@! TO.N,Net-(D20-Pad3)*
X81000000Y-86000000D02*
X81000000Y-83000000D01*
G04 #@! TO.N,Net-(D10-Pad1)*
X68250000Y-114250000D02*
X68250000Y-131325000D01*
X60000000Y-106000000D02*
X68250000Y-114250000D01*
X58700000Y-106000000D02*
X60000000Y-106000000D01*
D18*
G04 #@! TO.N,GNDD*
X70000000Y-56500000D02*
X70500000Y-56000000D01*
X69750000Y-56500000D02*
X70000000Y-56500000D01*
X69250000Y-56000000D02*
X69750000Y-56500000D01*
X69000000Y-56000000D02*
X69250000Y-56000000D01*
X70250000Y-57000000D02*
X69750000Y-56500000D01*
X70500000Y-57000000D02*
X70250000Y-57000000D01*
X70175000Y-59775000D02*
X71775000Y-59775000D01*
D19*
G04 #@! TO.N,Net-(D25-Pad1)*
X88000000Y-117000000D02*
X89500000Y-118500000D01*
X86700000Y-117000000D02*
X88000000Y-117000000D01*
X89500000Y-126075000D02*
X88750000Y-126825000D01*
X89500000Y-118500000D02*
X89500000Y-126075000D01*
D18*
G04 #@! TO.N,Net-(D25-Pad2)*
X95250000Y-100000000D02*
X93750000Y-98500000D01*
X95250000Y-107500000D02*
X95250000Y-100000000D01*
D19*
G04 #@! TO.N,Net-(D25-Pad4)*
X90500000Y-91150000D02*
X93000000Y-93650000D01*
X90500000Y-88650000D02*
X90500000Y-91150000D01*
X86700000Y-97000000D02*
X86700000Y-99000000D01*
X90500000Y-108650000D02*
X93000000Y-111150000D01*
X90500000Y-106150000D02*
X90500000Y-108650000D01*
X93000000Y-124650000D02*
X92500000Y-124150000D01*
X93000000Y-128650000D02*
X93000000Y-124650000D01*
X93000000Y-131000000D02*
X93000000Y-128650000D01*
X90000000Y-134000000D02*
X93000000Y-131000000D01*
X87500000Y-131500000D02*
X90000000Y-134000000D01*
X89000000Y-122000000D02*
X89000000Y-121000000D01*
X89000000Y-121000000D02*
X86700000Y-121000000D01*
X86700000Y-123000000D02*
X89000000Y-123000000D01*
X89000000Y-123000000D02*
X89000000Y-122000000D01*
X90500000Y-106150000D02*
X93000000Y-103650000D01*
X93000000Y-114000000D02*
X93000000Y-111000000D01*
X92500000Y-120000000D02*
X92500000Y-124150000D01*
X93000000Y-103650000D02*
X93000000Y-93650000D01*
D18*
X87500000Y-123800000D02*
X86700000Y-123000000D01*
X87500000Y-131500000D02*
X87500000Y-123800000D01*
X93000000Y-93650000D02*
X89950000Y-93650000D01*
X89950000Y-93650000D02*
X89950000Y-95050000D01*
X86700000Y-97000000D02*
X89400000Y-97000000D01*
X89950000Y-96450000D02*
X89950000Y-95050000D01*
X89400000Y-97000000D02*
X89950000Y-96450000D01*
D19*
G04 #@! TO.N,Net-(D28-Pad3)*
X90000000Y-126500000D02*
X90000000Y-118000000D01*
G04 #@! TO.N,Net-(D28-Pad1)*
X88000000Y-115000000D02*
X91250000Y-118250000D01*
X86700000Y-115000000D02*
X88000000Y-115000000D01*
X91250000Y-123650000D02*
X91250000Y-131325000D01*
X91250000Y-118250000D02*
X91250000Y-123650000D01*
G04 #@! TO.N,Net-(D29-Pad3)*
X90000000Y-108287868D02*
X90000000Y-108500000D01*
X90000000Y-97960000D02*
X90000000Y-108287868D01*
X91250000Y-96710000D02*
X90000000Y-97960000D01*
X91250000Y-96325000D02*
X91250000Y-96710000D01*
G04 #@! TO.N,Net-(D31-Pad3)*
X93750000Y-110500000D02*
X93750000Y-114033201D01*
G04 #@! TO.N,Net-(D31-Pad1)*
X88000000Y-113000000D02*
X93750000Y-118750000D01*
X86700000Y-113000000D02*
X88000000Y-113000000D01*
X93750000Y-118750000D02*
X93750000Y-126825000D01*
G04 #@! TO.N,Net-(D32-Pad3)*
X95000000Y-96000000D02*
X95000000Y-93000000D01*
G04 #@! TO.N,Net-(D34-Pad1)*
X88000000Y-111000000D02*
X86700000Y-111000000D01*
X96250000Y-131325000D02*
X96250000Y-119250000D01*
X96250000Y-119250000D02*
X88000000Y-111000000D01*
G04 #@! TO.N,Net-(D37-Pad4)*
X104500000Y-91150000D02*
X107000000Y-93650000D01*
X104500000Y-88650000D02*
X104500000Y-91150000D01*
X100700000Y-97000000D02*
X100700000Y-99000000D01*
X104500000Y-108650000D02*
X107000000Y-111150000D01*
X104500000Y-106150000D02*
X104500000Y-108650000D01*
X107000000Y-124650000D02*
X106500000Y-124150000D01*
X107000000Y-128650000D02*
X107000000Y-124650000D01*
X107000000Y-131000000D02*
X107000000Y-128650000D01*
X104000000Y-134000000D02*
X107000000Y-131000000D01*
X101500000Y-131500000D02*
X104000000Y-134000000D01*
X103000000Y-122000000D02*
X103000000Y-121000000D01*
X103000000Y-121000000D02*
X100700000Y-121000000D01*
X100700000Y-123000000D02*
X103000000Y-123000000D01*
X103000000Y-123000000D02*
X103000000Y-122000000D01*
X104500000Y-106150000D02*
X107000000Y-103650000D01*
X107000000Y-114000000D02*
X107000000Y-111000000D01*
X106500000Y-120000000D02*
X106500000Y-124150000D01*
X107000000Y-103650000D02*
X107000000Y-93650000D01*
D18*
X101500000Y-123800000D02*
X100700000Y-123000000D01*
X101500000Y-131500000D02*
X101500000Y-123800000D01*
X107000000Y-93650000D02*
X103950000Y-93650000D01*
X103950000Y-93650000D02*
X103950000Y-95050000D01*
X100700000Y-97000000D02*
X103400000Y-97000000D01*
X103950000Y-96450000D02*
X103950000Y-95050000D01*
X103400000Y-97000000D02*
X103950000Y-96450000D01*
G04 #@! TO.N,Net-(D37-Pad2)*
X109250000Y-100000000D02*
X107750000Y-98500000D01*
X109250000Y-107500000D02*
X109250000Y-100000000D01*
D19*
G04 #@! TO.N,Net-(D37-Pad1)*
X102000000Y-117000000D02*
X103500000Y-118500000D01*
X100700000Y-117000000D02*
X102000000Y-117000000D01*
X103500000Y-126075000D02*
X102750000Y-126825000D01*
X103500000Y-118500000D02*
X103500000Y-126075000D01*
G04 #@! TO.N,Net-(D40-Pad1)*
X102000000Y-115000000D02*
X105250000Y-118250000D01*
X100700000Y-115000000D02*
X102000000Y-115000000D01*
X105250000Y-123650000D02*
X105250000Y-131325000D01*
X105250000Y-118250000D02*
X105250000Y-123650000D01*
G04 #@! TO.N,Net-(D40-Pad3)*
X104000000Y-126500000D02*
X104000000Y-118000000D01*
G04 #@! TO.N,Net-(D41-Pad3)*
X104000000Y-108287868D02*
X104000000Y-108500000D01*
X104000000Y-97960000D02*
X104000000Y-108287868D01*
X105250000Y-96710000D02*
X104000000Y-97960000D01*
X105250000Y-96325000D02*
X105250000Y-96710000D01*
G04 #@! TO.N,Net-(D43-Pad1)*
X102000000Y-113000000D02*
X107750000Y-118750000D01*
X100700000Y-113000000D02*
X102000000Y-113000000D01*
X107750000Y-118750000D02*
X107750000Y-126825000D01*
G04 #@! TO.N,Net-(D43-Pad3)*
X107750000Y-110500000D02*
X107750000Y-114033201D01*
G04 #@! TO.N,Net-(D44-Pad3)*
X109000000Y-96000000D02*
X109000000Y-93000000D01*
G04 #@! TO.N,Net-(D46-Pad1)*
X102000000Y-111000000D02*
X100700000Y-111000000D01*
X110250000Y-131325000D02*
X110250000Y-119250000D01*
X110250000Y-119250000D02*
X102000000Y-111000000D01*
G04 #@! TD*
D20*
G04 #@! TO.N,Net-(D1-Pad4)*
G36*
X65035000Y-114046163D02*
X65035001Y-126499856D01*
X64965000Y-126668854D01*
X64965000Y-126981146D01*
X65084509Y-127269667D01*
X65305333Y-127490491D01*
X65593854Y-127610000D01*
X65906146Y-127610000D01*
X66194667Y-127490491D01*
X66415491Y-127269667D01*
X66535000Y-126981146D01*
X66535000Y-126668854D01*
X66465000Y-126499859D01*
X66465000Y-113820417D01*
X66479007Y-113750000D01*
X66462197Y-113665491D01*
X66423515Y-113471021D01*
X66350330Y-113361493D01*
X67535000Y-114546163D01*
X67535001Y-130999856D01*
X67465000Y-131168854D01*
X67465000Y-131481146D01*
X67584509Y-131769667D01*
X67805333Y-131990491D01*
X68093854Y-132110000D01*
X68406146Y-132110000D01*
X68694667Y-131990491D01*
X68815001Y-131870157D01*
X68815001Y-134873000D01*
X68173157Y-134873000D01*
X68145255Y-134732727D01*
X67993857Y-134506143D01*
X67767273Y-134354745D01*
X67567462Y-134315000D01*
X67567461Y-134315000D01*
X67500000Y-134301581D01*
X67432538Y-134315000D01*
X60567461Y-134315000D01*
X60500000Y-134301581D01*
X60432538Y-134315000D01*
X60232727Y-134354745D01*
X60006143Y-134506143D01*
X59854745Y-134732727D01*
X59826843Y-134873000D01*
X59185000Y-134873000D01*
X59185000Y-119135000D01*
X60626310Y-119135000D01*
X60785000Y-119069268D01*
X60785001Y-125778836D01*
X60474329Y-126089509D01*
X60305333Y-126159509D01*
X60084509Y-126380333D01*
X59965000Y-126668854D01*
X59965000Y-126981146D01*
X60084509Y-127269667D01*
X60305333Y-127490491D01*
X60593854Y-127610000D01*
X60906146Y-127610000D01*
X61194667Y-127490491D01*
X61415491Y-127269667D01*
X61485491Y-127100671D01*
X61488002Y-127098160D01*
X61555333Y-127165491D01*
X61843854Y-127285000D01*
X62156146Y-127285000D01*
X62444667Y-127165491D01*
X62535001Y-127075157D01*
X62535001Y-130999856D01*
X62465000Y-131168854D01*
X62465000Y-131481146D01*
X62584509Y-131769667D01*
X62805333Y-131990491D01*
X63093854Y-132110000D01*
X63406146Y-132110000D01*
X63694667Y-131990491D01*
X63915491Y-131769667D01*
X64035000Y-131481146D01*
X64035000Y-131168854D01*
X63965000Y-130999859D01*
X63965000Y-113320416D01*
X63979007Y-113249999D01*
X63958607Y-113147440D01*
X63923515Y-112971021D01*
X63874535Y-112897717D01*
X63850331Y-112861493D01*
X65035000Y-114046163D01*
X65035000Y-114046163D01*
G37*
X65035000Y-114046163D02*
X65035001Y-126499856D01*
X64965000Y-126668854D01*
X64965000Y-126981146D01*
X65084509Y-127269667D01*
X65305333Y-127490491D01*
X65593854Y-127610000D01*
X65906146Y-127610000D01*
X66194667Y-127490491D01*
X66415491Y-127269667D01*
X66535000Y-126981146D01*
X66535000Y-126668854D01*
X66465000Y-126499859D01*
X66465000Y-113820417D01*
X66479007Y-113750000D01*
X66462197Y-113665491D01*
X66423515Y-113471021D01*
X66350330Y-113361493D01*
X67535000Y-114546163D01*
X67535001Y-130999856D01*
X67465000Y-131168854D01*
X67465000Y-131481146D01*
X67584509Y-131769667D01*
X67805333Y-131990491D01*
X68093854Y-132110000D01*
X68406146Y-132110000D01*
X68694667Y-131990491D01*
X68815001Y-131870157D01*
X68815001Y-134873000D01*
X68173157Y-134873000D01*
X68145255Y-134732727D01*
X67993857Y-134506143D01*
X67767273Y-134354745D01*
X67567462Y-134315000D01*
X67567461Y-134315000D01*
X67500000Y-134301581D01*
X67432538Y-134315000D01*
X60567461Y-134315000D01*
X60500000Y-134301581D01*
X60432538Y-134315000D01*
X60232727Y-134354745D01*
X60006143Y-134506143D01*
X59854745Y-134732727D01*
X59826843Y-134873000D01*
X59185000Y-134873000D01*
X59185000Y-119135000D01*
X60626310Y-119135000D01*
X60785000Y-119069268D01*
X60785001Y-125778836D01*
X60474329Y-126089509D01*
X60305333Y-126159509D01*
X60084509Y-126380333D01*
X59965000Y-126668854D01*
X59965000Y-126981146D01*
X60084509Y-127269667D01*
X60305333Y-127490491D01*
X60593854Y-127610000D01*
X60906146Y-127610000D01*
X61194667Y-127490491D01*
X61415491Y-127269667D01*
X61485491Y-127100671D01*
X61488002Y-127098160D01*
X61555333Y-127165491D01*
X61843854Y-127285000D01*
X62156146Y-127285000D01*
X62444667Y-127165491D01*
X62535001Y-127075157D01*
X62535001Y-130999856D01*
X62465000Y-131168854D01*
X62465000Y-131481146D01*
X62584509Y-131769667D01*
X62805333Y-131990491D01*
X63093854Y-132110000D01*
X63406146Y-132110000D01*
X63694667Y-131990491D01*
X63915491Y-131769667D01*
X64035000Y-131481146D01*
X64035000Y-131168854D01*
X63965000Y-130999859D01*
X63965000Y-113320416D01*
X63979007Y-113249999D01*
X63958607Y-113147440D01*
X63923515Y-112971021D01*
X63874535Y-112897717D01*
X63850331Y-112861493D01*
X65035000Y-114046163D01*
G36*
X58827000Y-115873000D02*
X58847000Y-115873000D01*
X58847000Y-116127000D01*
X58827000Y-116127000D01*
X58827000Y-116976250D01*
X58850750Y-117000000D01*
X58827000Y-117023750D01*
X58827000Y-117873000D01*
X58847000Y-117873000D01*
X58847000Y-118127000D01*
X58827000Y-118127000D01*
X58827000Y-118147000D01*
X58573000Y-118147000D01*
X58573000Y-118127000D01*
X58553000Y-118127000D01*
X58553000Y-117873000D01*
X58573000Y-117873000D01*
X58573000Y-117023750D01*
X58549250Y-117000000D01*
X58573000Y-116976250D01*
X58573000Y-116127000D01*
X58553000Y-116127000D01*
X58553000Y-115873000D01*
X58573000Y-115873000D01*
X58573000Y-115853000D01*
X58827000Y-115853000D01*
X58827000Y-115873000D01*
X58827000Y-115873000D01*
G37*
X58827000Y-115873000D02*
X58847000Y-115873000D01*
X58847000Y-116127000D01*
X58827000Y-116127000D01*
X58827000Y-116976250D01*
X58850750Y-117000000D01*
X58827000Y-117023750D01*
X58827000Y-117873000D01*
X58847000Y-117873000D01*
X58847000Y-118127000D01*
X58827000Y-118127000D01*
X58827000Y-118147000D01*
X58573000Y-118147000D01*
X58573000Y-118127000D01*
X58553000Y-118127000D01*
X58553000Y-117873000D01*
X58573000Y-117873000D01*
X58573000Y-117023750D01*
X58549250Y-117000000D01*
X58573000Y-116976250D01*
X58573000Y-116127000D01*
X58553000Y-116127000D01*
X58553000Y-115873000D01*
X58573000Y-115873000D01*
X58573000Y-115853000D01*
X58827000Y-115853000D01*
X58827000Y-115873000D01*
G36*
X59815001Y-74932534D02*
X59801581Y-75000000D01*
X59854745Y-75267273D01*
X60006143Y-75493857D01*
X60232727Y-75645255D01*
X60432538Y-75685000D01*
X60432539Y-75685000D01*
X60500000Y-75698419D01*
X60567462Y-75685000D01*
X67432538Y-75685000D01*
X67500000Y-75698419D01*
X67567461Y-75685000D01*
X67567462Y-75685000D01*
X67767273Y-75645255D01*
X67993857Y-75493857D01*
X68145255Y-75267273D01*
X68198419Y-75000000D01*
X68185000Y-74932538D01*
X68185000Y-73127000D01*
X68815000Y-73127000D01*
X68815001Y-74932535D01*
X68815000Y-74932540D01*
X68815001Y-113808618D01*
X68805374Y-113794211D01*
X68805373Y-113794210D01*
X68765485Y-113734514D01*
X68705790Y-113694627D01*
X61147440Y-106136278D01*
X61147440Y-105500000D01*
X61116381Y-105343854D01*
X64965000Y-105343854D01*
X64965000Y-105656146D01*
X65035000Y-105825142D01*
X65035001Y-108708057D01*
X64965000Y-108877055D01*
X64965000Y-109189347D01*
X65084509Y-109477868D01*
X65305333Y-109698692D01*
X65593854Y-109818201D01*
X65906146Y-109818201D01*
X66194667Y-109698692D01*
X66415491Y-109477868D01*
X66535000Y-109189347D01*
X66535000Y-108877055D01*
X66465000Y-108708060D01*
X66465000Y-105825141D01*
X66535000Y-105656146D01*
X66535000Y-105343854D01*
X66415491Y-105055333D01*
X66194667Y-104834509D01*
X65906146Y-104715000D01*
X65593854Y-104715000D01*
X65305333Y-104834509D01*
X65084509Y-105055333D01*
X64965000Y-105343854D01*
X61116381Y-105343854D01*
X61098157Y-105252235D01*
X60957809Y-105042191D01*
X60894666Y-105000000D01*
X60957809Y-104957809D01*
X61098157Y-104747765D01*
X61147440Y-104500000D01*
X61147440Y-103500000D01*
X61116381Y-103343854D01*
X61215000Y-103343854D01*
X61215000Y-103656146D01*
X61334509Y-103944667D01*
X61555333Y-104165491D01*
X61843854Y-104285000D01*
X62156146Y-104285000D01*
X62444667Y-104165491D01*
X62665491Y-103944667D01*
X62785000Y-103656146D01*
X62785000Y-103343854D01*
X62715000Y-103174859D01*
X62715000Y-88500000D01*
X64949622Y-88500000D01*
X64965000Y-88577312D01*
X64965000Y-88656146D01*
X64995168Y-88728977D01*
X65010546Y-88806291D01*
X65054341Y-88871835D01*
X65084509Y-88944667D01*
X65305333Y-89165491D01*
X65305335Y-89165492D01*
X66465000Y-90325158D01*
X66465000Y-90577315D01*
X66465001Y-90577320D01*
X66465000Y-102343854D01*
X66465000Y-102656146D01*
X66495167Y-102728976D01*
X66510546Y-102806291D01*
X66554341Y-102871835D01*
X66584509Y-102944667D01*
X66640253Y-103000411D01*
X66684047Y-103065953D01*
X66749589Y-103109747D01*
X66805333Y-103165491D01*
X66878164Y-103195658D01*
X66943708Y-103239454D01*
X67021025Y-103254833D01*
X67093854Y-103285000D01*
X67172684Y-103285000D01*
X67250000Y-103300379D01*
X67327316Y-103285000D01*
X67406146Y-103285000D01*
X67478976Y-103254833D01*
X67556291Y-103239454D01*
X67621835Y-103195659D01*
X67694667Y-103165491D01*
X67750411Y-103109747D01*
X67815953Y-103065953D01*
X67859747Y-103000411D01*
X67915491Y-102944667D01*
X67945658Y-102871836D01*
X67989454Y-102806292D01*
X68004833Y-102728975D01*
X68035000Y-102656146D01*
X68035000Y-90077310D01*
X68050378Y-89999999D01*
X68035000Y-89922688D01*
X68035000Y-89922684D01*
X67989454Y-89693708D01*
X67944711Y-89626746D01*
X67859749Y-89499591D01*
X67859747Y-89499589D01*
X67815953Y-89434047D01*
X67750411Y-89390253D01*
X66415492Y-88055335D01*
X66415491Y-88055333D01*
X66194667Y-87834509D01*
X66121835Y-87804341D01*
X66056291Y-87760546D01*
X65978977Y-87745168D01*
X65906146Y-87715000D01*
X65827312Y-87715000D01*
X65750000Y-87699622D01*
X65672688Y-87715000D01*
X65593854Y-87715000D01*
X65521023Y-87745168D01*
X65443709Y-87760546D01*
X65378165Y-87804341D01*
X65305333Y-87834509D01*
X65249589Y-87890253D01*
X65184047Y-87934047D01*
X65140253Y-87999589D01*
X65084509Y-88055333D01*
X65054341Y-88128165D01*
X65010546Y-88193709D01*
X64995168Y-88271023D01*
X64965000Y-88343854D01*
X64965000Y-88422688D01*
X64949622Y-88500000D01*
X62715000Y-88500000D01*
X62715000Y-87871162D01*
X63525672Y-87060491D01*
X63694667Y-86990491D01*
X63915491Y-86769667D01*
X64035000Y-86481146D01*
X64035000Y-86168854D01*
X63915491Y-85880333D01*
X63694667Y-85659509D01*
X63406146Y-85540000D01*
X63093854Y-85540000D01*
X62805333Y-85659509D01*
X62584509Y-85880333D01*
X62514509Y-86049328D01*
X61544213Y-87019625D01*
X61484515Y-87059514D01*
X61444626Y-87119212D01*
X61326486Y-87296021D01*
X61270993Y-87575000D01*
X61285001Y-87645422D01*
X61285000Y-103174859D01*
X61215000Y-103343854D01*
X61116381Y-103343854D01*
X61098157Y-103252235D01*
X60957809Y-103042191D01*
X60894666Y-103000000D01*
X60957809Y-102957809D01*
X61098157Y-102747765D01*
X61147440Y-102500000D01*
X61147440Y-101500000D01*
X61098157Y-101252235D01*
X60957809Y-101042191D01*
X60894666Y-101000000D01*
X60957809Y-100957809D01*
X61098157Y-100747765D01*
X61147440Y-100500000D01*
X61147440Y-99500000D01*
X61098157Y-99252235D01*
X60957809Y-99042191D01*
X60894666Y-99000000D01*
X60957809Y-98957809D01*
X61098157Y-98747765D01*
X61147440Y-98500000D01*
X61147440Y-97500000D01*
X61098157Y-97252235D01*
X60957809Y-97042191D01*
X60894666Y-97000000D01*
X60957809Y-96957809D01*
X61098157Y-96747765D01*
X61147440Y-96500000D01*
X61147440Y-95500000D01*
X61098157Y-95252235D01*
X60957809Y-95042191D01*
X60896680Y-95001346D01*
X61038327Y-94859698D01*
X61135000Y-94626309D01*
X61135000Y-94285750D01*
X60976250Y-94127000D01*
X58827000Y-94127000D01*
X58827000Y-94147000D01*
X58573000Y-94147000D01*
X58573000Y-94127000D01*
X58553000Y-94127000D01*
X58553000Y-93873000D01*
X58573000Y-93873000D01*
X58573000Y-93023750D01*
X58549250Y-93000000D01*
X58573000Y-92976250D01*
X58573000Y-92127000D01*
X58827000Y-92127000D01*
X58827000Y-92976250D01*
X58850750Y-93000000D01*
X58827000Y-93023750D01*
X58827000Y-93873000D01*
X60976250Y-93873000D01*
X61135000Y-93714250D01*
X61135000Y-93373691D01*
X61038327Y-93140302D01*
X60898026Y-93000000D01*
X61038327Y-92859698D01*
X61135000Y-92626309D01*
X61135000Y-92285750D01*
X60976250Y-92127000D01*
X58827000Y-92127000D01*
X58573000Y-92127000D01*
X58553000Y-92127000D01*
X58553000Y-91873000D01*
X58573000Y-91873000D01*
X58573000Y-91853000D01*
X58827000Y-91853000D01*
X58827000Y-91873000D01*
X60976250Y-91873000D01*
X61135000Y-91714250D01*
X61135000Y-91373691D01*
X61038327Y-91140302D01*
X60859699Y-90961673D01*
X60626310Y-90865000D01*
X59185000Y-90865000D01*
X59185000Y-85193854D01*
X64965000Y-85193854D01*
X64965000Y-85506146D01*
X65084509Y-85794667D01*
X65305333Y-86015491D01*
X65593854Y-86135000D01*
X65906146Y-86135000D01*
X66194667Y-86015491D01*
X66215000Y-85995158D01*
X66215000Y-86156146D01*
X66334509Y-86444667D01*
X66555333Y-86665491D01*
X66843854Y-86785000D01*
X67156146Y-86785000D01*
X67444667Y-86665491D01*
X67665491Y-86444667D01*
X67785000Y-86156146D01*
X67785000Y-85843854D01*
X67715000Y-85674859D01*
X67715000Y-83325141D01*
X67785000Y-83156146D01*
X67785000Y-82843854D01*
X67665491Y-82555333D01*
X67444667Y-82334509D01*
X67156146Y-82215000D01*
X66843854Y-82215000D01*
X66555333Y-82334509D01*
X66334509Y-82555333D01*
X66215000Y-82843854D01*
X66215000Y-83156146D01*
X66285001Y-83325143D01*
X66285000Y-84774842D01*
X66194667Y-84684509D01*
X65906146Y-84565000D01*
X65593854Y-84565000D01*
X65305333Y-84684509D01*
X65084509Y-84905333D01*
X64965000Y-85193854D01*
X59185000Y-85193854D01*
X59185000Y-73127000D01*
X59815000Y-73127000D01*
X59815001Y-74932534D01*
X59815001Y-74932534D01*
G37*
X59815001Y-74932534D02*
X59801581Y-75000000D01*
X59854745Y-75267273D01*
X60006143Y-75493857D01*
X60232727Y-75645255D01*
X60432538Y-75685000D01*
X60432539Y-75685000D01*
X60500000Y-75698419D01*
X60567462Y-75685000D01*
X67432538Y-75685000D01*
X67500000Y-75698419D01*
X67567461Y-75685000D01*
X67567462Y-75685000D01*
X67767273Y-75645255D01*
X67993857Y-75493857D01*
X68145255Y-75267273D01*
X68198419Y-75000000D01*
X68185000Y-74932538D01*
X68185000Y-73127000D01*
X68815000Y-73127000D01*
X68815001Y-74932535D01*
X68815000Y-74932540D01*
X68815001Y-113808618D01*
X68805374Y-113794211D01*
X68805373Y-113794210D01*
X68765485Y-113734514D01*
X68705790Y-113694627D01*
X61147440Y-106136278D01*
X61147440Y-105500000D01*
X61116381Y-105343854D01*
X64965000Y-105343854D01*
X64965000Y-105656146D01*
X65035000Y-105825142D01*
X65035001Y-108708057D01*
X64965000Y-108877055D01*
X64965000Y-109189347D01*
X65084509Y-109477868D01*
X65305333Y-109698692D01*
X65593854Y-109818201D01*
X65906146Y-109818201D01*
X66194667Y-109698692D01*
X66415491Y-109477868D01*
X66535000Y-109189347D01*
X66535000Y-108877055D01*
X66465000Y-108708060D01*
X66465000Y-105825141D01*
X66535000Y-105656146D01*
X66535000Y-105343854D01*
X66415491Y-105055333D01*
X66194667Y-104834509D01*
X65906146Y-104715000D01*
X65593854Y-104715000D01*
X65305333Y-104834509D01*
X65084509Y-105055333D01*
X64965000Y-105343854D01*
X61116381Y-105343854D01*
X61098157Y-105252235D01*
X60957809Y-105042191D01*
X60894666Y-105000000D01*
X60957809Y-104957809D01*
X61098157Y-104747765D01*
X61147440Y-104500000D01*
X61147440Y-103500000D01*
X61116381Y-103343854D01*
X61215000Y-103343854D01*
X61215000Y-103656146D01*
X61334509Y-103944667D01*
X61555333Y-104165491D01*
X61843854Y-104285000D01*
X62156146Y-104285000D01*
X62444667Y-104165491D01*
X62665491Y-103944667D01*
X62785000Y-103656146D01*
X62785000Y-103343854D01*
X62715000Y-103174859D01*
X62715000Y-88500000D01*
X64949622Y-88500000D01*
X64965000Y-88577312D01*
X64965000Y-88656146D01*
X64995168Y-88728977D01*
X65010546Y-88806291D01*
X65054341Y-88871835D01*
X65084509Y-88944667D01*
X65305333Y-89165491D01*
X65305335Y-89165492D01*
X66465000Y-90325158D01*
X66465000Y-90577315D01*
X66465001Y-90577320D01*
X66465000Y-102343854D01*
X66465000Y-102656146D01*
X66495167Y-102728976D01*
X66510546Y-102806291D01*
X66554341Y-102871835D01*
X66584509Y-102944667D01*
X66640253Y-103000411D01*
X66684047Y-103065953D01*
X66749589Y-103109747D01*
X66805333Y-103165491D01*
X66878164Y-103195658D01*
X66943708Y-103239454D01*
X67021025Y-103254833D01*
X67093854Y-103285000D01*
X67172684Y-103285000D01*
X67250000Y-103300379D01*
X67327316Y-103285000D01*
X67406146Y-103285000D01*
X67478976Y-103254833D01*
X67556291Y-103239454D01*
X67621835Y-103195659D01*
X67694667Y-103165491D01*
X67750411Y-103109747D01*
X67815953Y-103065953D01*
X67859747Y-103000411D01*
X67915491Y-102944667D01*
X67945658Y-102871836D01*
X67989454Y-102806292D01*
X68004833Y-102728975D01*
X68035000Y-102656146D01*
X68035000Y-90077310D01*
X68050378Y-89999999D01*
X68035000Y-89922688D01*
X68035000Y-89922684D01*
X67989454Y-89693708D01*
X67944711Y-89626746D01*
X67859749Y-89499591D01*
X67859747Y-89499589D01*
X67815953Y-89434047D01*
X67750411Y-89390253D01*
X66415492Y-88055335D01*
X66415491Y-88055333D01*
X66194667Y-87834509D01*
X66121835Y-87804341D01*
X66056291Y-87760546D01*
X65978977Y-87745168D01*
X65906146Y-87715000D01*
X65827312Y-87715000D01*
X65750000Y-87699622D01*
X65672688Y-87715000D01*
X65593854Y-87715000D01*
X65521023Y-87745168D01*
X65443709Y-87760546D01*
X65378165Y-87804341D01*
X65305333Y-87834509D01*
X65249589Y-87890253D01*
X65184047Y-87934047D01*
X65140253Y-87999589D01*
X65084509Y-88055333D01*
X65054341Y-88128165D01*
X65010546Y-88193709D01*
X64995168Y-88271023D01*
X64965000Y-88343854D01*
X64965000Y-88422688D01*
X64949622Y-88500000D01*
X62715000Y-88500000D01*
X62715000Y-87871162D01*
X63525672Y-87060491D01*
X63694667Y-86990491D01*
X63915491Y-86769667D01*
X64035000Y-86481146D01*
X64035000Y-86168854D01*
X63915491Y-85880333D01*
X63694667Y-85659509D01*
X63406146Y-85540000D01*
X63093854Y-85540000D01*
X62805333Y-85659509D01*
X62584509Y-85880333D01*
X62514509Y-86049328D01*
X61544213Y-87019625D01*
X61484515Y-87059514D01*
X61444626Y-87119212D01*
X61326486Y-87296021D01*
X61270993Y-87575000D01*
X61285001Y-87645422D01*
X61285000Y-103174859D01*
X61215000Y-103343854D01*
X61116381Y-103343854D01*
X61098157Y-103252235D01*
X60957809Y-103042191D01*
X60894666Y-103000000D01*
X60957809Y-102957809D01*
X61098157Y-102747765D01*
X61147440Y-102500000D01*
X61147440Y-101500000D01*
X61098157Y-101252235D01*
X60957809Y-101042191D01*
X60894666Y-101000000D01*
X60957809Y-100957809D01*
X61098157Y-100747765D01*
X61147440Y-100500000D01*
X61147440Y-99500000D01*
X61098157Y-99252235D01*
X60957809Y-99042191D01*
X60894666Y-99000000D01*
X60957809Y-98957809D01*
X61098157Y-98747765D01*
X61147440Y-98500000D01*
X61147440Y-97500000D01*
X61098157Y-97252235D01*
X60957809Y-97042191D01*
X60894666Y-97000000D01*
X60957809Y-96957809D01*
X61098157Y-96747765D01*
X61147440Y-96500000D01*
X61147440Y-95500000D01*
X61098157Y-95252235D01*
X60957809Y-95042191D01*
X60896680Y-95001346D01*
X61038327Y-94859698D01*
X61135000Y-94626309D01*
X61135000Y-94285750D01*
X60976250Y-94127000D01*
X58827000Y-94127000D01*
X58827000Y-94147000D01*
X58573000Y-94147000D01*
X58573000Y-94127000D01*
X58553000Y-94127000D01*
X58553000Y-93873000D01*
X58573000Y-93873000D01*
X58573000Y-93023750D01*
X58549250Y-93000000D01*
X58573000Y-92976250D01*
X58573000Y-92127000D01*
X58827000Y-92127000D01*
X58827000Y-92976250D01*
X58850750Y-93000000D01*
X58827000Y-93023750D01*
X58827000Y-93873000D01*
X60976250Y-93873000D01*
X61135000Y-93714250D01*
X61135000Y-93373691D01*
X61038327Y-93140302D01*
X60898026Y-93000000D01*
X61038327Y-92859698D01*
X61135000Y-92626309D01*
X61135000Y-92285750D01*
X60976250Y-92127000D01*
X58827000Y-92127000D01*
X58573000Y-92127000D01*
X58553000Y-92127000D01*
X58553000Y-91873000D01*
X58573000Y-91873000D01*
X58573000Y-91853000D01*
X58827000Y-91853000D01*
X58827000Y-91873000D01*
X60976250Y-91873000D01*
X61135000Y-91714250D01*
X61135000Y-91373691D01*
X61038327Y-91140302D01*
X60859699Y-90961673D01*
X60626310Y-90865000D01*
X59185000Y-90865000D01*
X59185000Y-85193854D01*
X64965000Y-85193854D01*
X64965000Y-85506146D01*
X65084509Y-85794667D01*
X65305333Y-86015491D01*
X65593854Y-86135000D01*
X65906146Y-86135000D01*
X66194667Y-86015491D01*
X66215000Y-85995158D01*
X66215000Y-86156146D01*
X66334509Y-86444667D01*
X66555333Y-86665491D01*
X66843854Y-86785000D01*
X67156146Y-86785000D01*
X67444667Y-86665491D01*
X67665491Y-86444667D01*
X67785000Y-86156146D01*
X67785000Y-85843854D01*
X67715000Y-85674859D01*
X67715000Y-83325141D01*
X67785000Y-83156146D01*
X67785000Y-82843854D01*
X67665491Y-82555333D01*
X67444667Y-82334509D01*
X67156146Y-82215000D01*
X66843854Y-82215000D01*
X66555333Y-82334509D01*
X66334509Y-82555333D01*
X66215000Y-82843854D01*
X66215000Y-83156146D01*
X66285001Y-83325143D01*
X66285000Y-84774842D01*
X66194667Y-84684509D01*
X65906146Y-84565000D01*
X65593854Y-84565000D01*
X65305333Y-84684509D01*
X65084509Y-84905333D01*
X64965000Y-85193854D01*
X59185000Y-85193854D01*
X59185000Y-73127000D01*
X59815000Y-73127000D01*
X59815001Y-74932534D01*
G04 #@! TO.N,Net-(D13-Pad4)*
G36*
X79035000Y-114046163D02*
X79035001Y-126499856D01*
X78965000Y-126668854D01*
X78965000Y-126981146D01*
X79084509Y-127269667D01*
X79305333Y-127490491D01*
X79593854Y-127610000D01*
X79906146Y-127610000D01*
X80194667Y-127490491D01*
X80415491Y-127269667D01*
X80535000Y-126981146D01*
X80535000Y-126668854D01*
X80465000Y-126499859D01*
X80465000Y-113820417D01*
X80479007Y-113750000D01*
X80462197Y-113665491D01*
X80423515Y-113471021D01*
X80350330Y-113361493D01*
X81535000Y-114546163D01*
X81535001Y-130999856D01*
X81465000Y-131168854D01*
X81465000Y-131481146D01*
X81584509Y-131769667D01*
X81805333Y-131990491D01*
X82093854Y-132110000D01*
X82406146Y-132110000D01*
X82694667Y-131990491D01*
X82815001Y-131870157D01*
X82815001Y-134873000D01*
X82173157Y-134873000D01*
X82145255Y-134732727D01*
X81993857Y-134506143D01*
X81767273Y-134354745D01*
X81567462Y-134315000D01*
X81500000Y-134301581D01*
X81432539Y-134315000D01*
X74567461Y-134315000D01*
X74500000Y-134301581D01*
X74432538Y-134315000D01*
X74232727Y-134354745D01*
X74006143Y-134506143D01*
X73854745Y-134732727D01*
X73826843Y-134873000D01*
X73185000Y-134873000D01*
X73185000Y-119135000D01*
X74626310Y-119135000D01*
X74785000Y-119069268D01*
X74785001Y-125778836D01*
X74474329Y-126089509D01*
X74305333Y-126159509D01*
X74084509Y-126380333D01*
X73965000Y-126668854D01*
X73965000Y-126981146D01*
X74084509Y-127269667D01*
X74305333Y-127490491D01*
X74593854Y-127610000D01*
X74906146Y-127610000D01*
X75194667Y-127490491D01*
X75415491Y-127269667D01*
X75485491Y-127100671D01*
X75488002Y-127098160D01*
X75555333Y-127165491D01*
X75843854Y-127285000D01*
X76156146Y-127285000D01*
X76444667Y-127165491D01*
X76535001Y-127075157D01*
X76535001Y-130999856D01*
X76465000Y-131168854D01*
X76465000Y-131481146D01*
X76584509Y-131769667D01*
X76805333Y-131990491D01*
X77093854Y-132110000D01*
X77406146Y-132110000D01*
X77694667Y-131990491D01*
X77915491Y-131769667D01*
X78035000Y-131481146D01*
X78035000Y-131168854D01*
X77965000Y-130999859D01*
X77965000Y-113320416D01*
X77979007Y-113249999D01*
X77958607Y-113147440D01*
X77923515Y-112971021D01*
X77874535Y-112897717D01*
X77850331Y-112861493D01*
X79035000Y-114046163D01*
X79035000Y-114046163D01*
G37*
X79035000Y-114046163D02*
X79035001Y-126499856D01*
X78965000Y-126668854D01*
X78965000Y-126981146D01*
X79084509Y-127269667D01*
X79305333Y-127490491D01*
X79593854Y-127610000D01*
X79906146Y-127610000D01*
X80194667Y-127490491D01*
X80415491Y-127269667D01*
X80535000Y-126981146D01*
X80535000Y-126668854D01*
X80465000Y-126499859D01*
X80465000Y-113820417D01*
X80479007Y-113750000D01*
X80462197Y-113665491D01*
X80423515Y-113471021D01*
X80350330Y-113361493D01*
X81535000Y-114546163D01*
X81535001Y-130999856D01*
X81465000Y-131168854D01*
X81465000Y-131481146D01*
X81584509Y-131769667D01*
X81805333Y-131990491D01*
X82093854Y-132110000D01*
X82406146Y-132110000D01*
X82694667Y-131990491D01*
X82815001Y-131870157D01*
X82815001Y-134873000D01*
X82173157Y-134873000D01*
X82145255Y-134732727D01*
X81993857Y-134506143D01*
X81767273Y-134354745D01*
X81567462Y-134315000D01*
X81500000Y-134301581D01*
X81432539Y-134315000D01*
X74567461Y-134315000D01*
X74500000Y-134301581D01*
X74432538Y-134315000D01*
X74232727Y-134354745D01*
X74006143Y-134506143D01*
X73854745Y-134732727D01*
X73826843Y-134873000D01*
X73185000Y-134873000D01*
X73185000Y-119135000D01*
X74626310Y-119135000D01*
X74785000Y-119069268D01*
X74785001Y-125778836D01*
X74474329Y-126089509D01*
X74305333Y-126159509D01*
X74084509Y-126380333D01*
X73965000Y-126668854D01*
X73965000Y-126981146D01*
X74084509Y-127269667D01*
X74305333Y-127490491D01*
X74593854Y-127610000D01*
X74906146Y-127610000D01*
X75194667Y-127490491D01*
X75415491Y-127269667D01*
X75485491Y-127100671D01*
X75488002Y-127098160D01*
X75555333Y-127165491D01*
X75843854Y-127285000D01*
X76156146Y-127285000D01*
X76444667Y-127165491D01*
X76535001Y-127075157D01*
X76535001Y-130999856D01*
X76465000Y-131168854D01*
X76465000Y-131481146D01*
X76584509Y-131769667D01*
X76805333Y-131990491D01*
X77093854Y-132110000D01*
X77406146Y-132110000D01*
X77694667Y-131990491D01*
X77915491Y-131769667D01*
X78035000Y-131481146D01*
X78035000Y-131168854D01*
X77965000Y-130999859D01*
X77965000Y-113320416D01*
X77979007Y-113249999D01*
X77958607Y-113147440D01*
X77923515Y-112971021D01*
X77874535Y-112897717D01*
X77850331Y-112861493D01*
X79035000Y-114046163D01*
G36*
X72827000Y-115873000D02*
X72847000Y-115873000D01*
X72847000Y-116127000D01*
X72827000Y-116127000D01*
X72827000Y-116976250D01*
X72850750Y-117000000D01*
X72827000Y-117023750D01*
X72827000Y-117873000D01*
X72847000Y-117873000D01*
X72847000Y-118127000D01*
X72827000Y-118127000D01*
X72827000Y-118147000D01*
X72573000Y-118147000D01*
X72573000Y-118127000D01*
X72553000Y-118127000D01*
X72553000Y-117873000D01*
X72573000Y-117873000D01*
X72573000Y-117023750D01*
X72549250Y-117000000D01*
X72573000Y-116976250D01*
X72573000Y-116127000D01*
X72553000Y-116127000D01*
X72553000Y-115873000D01*
X72573000Y-115873000D01*
X72573000Y-115853000D01*
X72827000Y-115853000D01*
X72827000Y-115873000D01*
X72827000Y-115873000D01*
G37*
X72827000Y-115873000D02*
X72847000Y-115873000D01*
X72847000Y-116127000D01*
X72827000Y-116127000D01*
X72827000Y-116976250D01*
X72850750Y-117000000D01*
X72827000Y-117023750D01*
X72827000Y-117873000D01*
X72847000Y-117873000D01*
X72847000Y-118127000D01*
X72827000Y-118127000D01*
X72827000Y-118147000D01*
X72573000Y-118147000D01*
X72573000Y-118127000D01*
X72553000Y-118127000D01*
X72553000Y-117873000D01*
X72573000Y-117873000D01*
X72573000Y-117023750D01*
X72549250Y-117000000D01*
X72573000Y-116976250D01*
X72573000Y-116127000D01*
X72553000Y-116127000D01*
X72553000Y-115873000D01*
X72573000Y-115873000D01*
X72573000Y-115853000D01*
X72827000Y-115853000D01*
X72827000Y-115873000D01*
G36*
X73815000Y-74932538D02*
X73801581Y-75000000D01*
X73854745Y-75267273D01*
X74006143Y-75493857D01*
X74232727Y-75645255D01*
X74500000Y-75698419D01*
X74567461Y-75685000D01*
X81432538Y-75685000D01*
X81500000Y-75698419D01*
X81567461Y-75685000D01*
X81567462Y-75685000D01*
X81767273Y-75645255D01*
X81993857Y-75493857D01*
X82145255Y-75267273D01*
X82198419Y-75000000D01*
X82185000Y-74932538D01*
X82185000Y-73127000D01*
X82815001Y-73127000D01*
X82815000Y-74932539D01*
X82815000Y-74932540D01*
X82815001Y-113808618D01*
X82805374Y-113794211D01*
X82805373Y-113794210D01*
X82765485Y-113734514D01*
X82705790Y-113694627D01*
X75147440Y-106136278D01*
X75147440Y-105500000D01*
X75116381Y-105343854D01*
X78965000Y-105343854D01*
X78965000Y-105656146D01*
X79035000Y-105825142D01*
X79035001Y-108708057D01*
X78965000Y-108877055D01*
X78965000Y-109189347D01*
X79084509Y-109477868D01*
X79305333Y-109698692D01*
X79593854Y-109818201D01*
X79906146Y-109818201D01*
X80194667Y-109698692D01*
X80415491Y-109477868D01*
X80535000Y-109189347D01*
X80535000Y-108877055D01*
X80465000Y-108708060D01*
X80465000Y-105825141D01*
X80535000Y-105656146D01*
X80535000Y-105343854D01*
X80415491Y-105055333D01*
X80194667Y-104834509D01*
X79906146Y-104715000D01*
X79593854Y-104715000D01*
X79305333Y-104834509D01*
X79084509Y-105055333D01*
X78965000Y-105343854D01*
X75116381Y-105343854D01*
X75098157Y-105252235D01*
X74957809Y-105042191D01*
X74894666Y-105000000D01*
X74957809Y-104957809D01*
X75098157Y-104747765D01*
X75147440Y-104500000D01*
X75147440Y-103500000D01*
X75116381Y-103343854D01*
X75215000Y-103343854D01*
X75215000Y-103656146D01*
X75334509Y-103944667D01*
X75555333Y-104165491D01*
X75843854Y-104285000D01*
X76156146Y-104285000D01*
X76444667Y-104165491D01*
X76665491Y-103944667D01*
X76785000Y-103656146D01*
X76785000Y-103343854D01*
X76715000Y-103174859D01*
X76715000Y-88500000D01*
X78949622Y-88500000D01*
X78965000Y-88577312D01*
X78965000Y-88656146D01*
X78995168Y-88728977D01*
X79010546Y-88806291D01*
X79054341Y-88871835D01*
X79084509Y-88944667D01*
X79305333Y-89165491D01*
X79305335Y-89165492D01*
X80465000Y-90325158D01*
X80465000Y-90577315D01*
X80465001Y-90577320D01*
X80465000Y-102343854D01*
X80465000Y-102656146D01*
X80495167Y-102728976D01*
X80510546Y-102806291D01*
X80554341Y-102871835D01*
X80584509Y-102944667D01*
X80640253Y-103000411D01*
X80684047Y-103065953D01*
X80749589Y-103109747D01*
X80805333Y-103165491D01*
X80878164Y-103195658D01*
X80943708Y-103239454D01*
X81021025Y-103254833D01*
X81093854Y-103285000D01*
X81172684Y-103285000D01*
X81250000Y-103300379D01*
X81327316Y-103285000D01*
X81406146Y-103285000D01*
X81478976Y-103254833D01*
X81556291Y-103239454D01*
X81621835Y-103195659D01*
X81694667Y-103165491D01*
X81750411Y-103109747D01*
X81815953Y-103065953D01*
X81859747Y-103000411D01*
X81915491Y-102944667D01*
X81945658Y-102871836D01*
X81989454Y-102806292D01*
X82004833Y-102728975D01*
X82035000Y-102656146D01*
X82035000Y-90077310D01*
X82050378Y-89999999D01*
X82035000Y-89922688D01*
X82035000Y-89922684D01*
X81989454Y-89693708D01*
X81944711Y-89626746D01*
X81859749Y-89499591D01*
X81859747Y-89499589D01*
X81815953Y-89434047D01*
X81750411Y-89390253D01*
X80415492Y-88055335D01*
X80415491Y-88055333D01*
X80194667Y-87834509D01*
X80121835Y-87804341D01*
X80056291Y-87760546D01*
X79978977Y-87745168D01*
X79906146Y-87715000D01*
X79827312Y-87715000D01*
X79750000Y-87699622D01*
X79672688Y-87715000D01*
X79593854Y-87715000D01*
X79521023Y-87745168D01*
X79443709Y-87760546D01*
X79378165Y-87804341D01*
X79305333Y-87834509D01*
X79249589Y-87890253D01*
X79184047Y-87934047D01*
X79140253Y-87999589D01*
X79084509Y-88055333D01*
X79054341Y-88128165D01*
X79010546Y-88193709D01*
X78995168Y-88271023D01*
X78965000Y-88343854D01*
X78965000Y-88422688D01*
X78949622Y-88500000D01*
X76715000Y-88500000D01*
X76715000Y-87871162D01*
X77525672Y-87060491D01*
X77694667Y-86990491D01*
X77915491Y-86769667D01*
X78035000Y-86481146D01*
X78035000Y-86168854D01*
X77915491Y-85880333D01*
X77694667Y-85659509D01*
X77406146Y-85540000D01*
X77093854Y-85540000D01*
X76805333Y-85659509D01*
X76584509Y-85880333D01*
X76514509Y-86049328D01*
X75544213Y-87019625D01*
X75484515Y-87059514D01*
X75444626Y-87119212D01*
X75326486Y-87296021D01*
X75270993Y-87575000D01*
X75285001Y-87645422D01*
X75285000Y-103174859D01*
X75215000Y-103343854D01*
X75116381Y-103343854D01*
X75098157Y-103252235D01*
X74957809Y-103042191D01*
X74894666Y-103000000D01*
X74957809Y-102957809D01*
X75098157Y-102747765D01*
X75147440Y-102500000D01*
X75147440Y-101500000D01*
X75098157Y-101252235D01*
X74957809Y-101042191D01*
X74894666Y-101000000D01*
X74957809Y-100957809D01*
X75098157Y-100747765D01*
X75147440Y-100500000D01*
X75147440Y-99500000D01*
X75098157Y-99252235D01*
X74957809Y-99042191D01*
X74894666Y-99000000D01*
X74957809Y-98957809D01*
X75098157Y-98747765D01*
X75147440Y-98500000D01*
X75147440Y-97500000D01*
X75098157Y-97252235D01*
X74957809Y-97042191D01*
X74894666Y-97000000D01*
X74957809Y-96957809D01*
X75098157Y-96747765D01*
X75147440Y-96500000D01*
X75147440Y-95500000D01*
X75098157Y-95252235D01*
X74957809Y-95042191D01*
X74896680Y-95001346D01*
X75038327Y-94859698D01*
X75135000Y-94626309D01*
X75135000Y-94285750D01*
X74976250Y-94127000D01*
X72827000Y-94127000D01*
X72827000Y-94147000D01*
X72573000Y-94147000D01*
X72573000Y-94127000D01*
X72553000Y-94127000D01*
X72553000Y-93873000D01*
X72573000Y-93873000D01*
X72573000Y-93023750D01*
X72549250Y-93000000D01*
X72573000Y-92976250D01*
X72573000Y-92127000D01*
X72827000Y-92127000D01*
X72827000Y-92976250D01*
X72850750Y-93000000D01*
X72827000Y-93023750D01*
X72827000Y-93873000D01*
X74976250Y-93873000D01*
X75135000Y-93714250D01*
X75135000Y-93373691D01*
X75038327Y-93140302D01*
X74898026Y-93000000D01*
X75038327Y-92859698D01*
X75135000Y-92626309D01*
X75135000Y-92285750D01*
X74976250Y-92127000D01*
X72827000Y-92127000D01*
X72573000Y-92127000D01*
X72553000Y-92127000D01*
X72553000Y-91873000D01*
X72573000Y-91873000D01*
X72573000Y-91853000D01*
X72827000Y-91853000D01*
X72827000Y-91873000D01*
X74976250Y-91873000D01*
X75135000Y-91714250D01*
X75135000Y-91373691D01*
X75038327Y-91140302D01*
X74859699Y-90961673D01*
X74626310Y-90865000D01*
X73185000Y-90865000D01*
X73185000Y-85193854D01*
X78965000Y-85193854D01*
X78965000Y-85506146D01*
X79084509Y-85794667D01*
X79305333Y-86015491D01*
X79593854Y-86135000D01*
X79906146Y-86135000D01*
X80194667Y-86015491D01*
X80215000Y-85995158D01*
X80215000Y-86156146D01*
X80334509Y-86444667D01*
X80555333Y-86665491D01*
X80843854Y-86785000D01*
X81156146Y-86785000D01*
X81444667Y-86665491D01*
X81665491Y-86444667D01*
X81785000Y-86156146D01*
X81785000Y-85843854D01*
X81715000Y-85674859D01*
X81715000Y-83325141D01*
X81785000Y-83156146D01*
X81785000Y-82843854D01*
X81665491Y-82555333D01*
X81444667Y-82334509D01*
X81156146Y-82215000D01*
X80843854Y-82215000D01*
X80555333Y-82334509D01*
X80334509Y-82555333D01*
X80215000Y-82843854D01*
X80215000Y-83156146D01*
X80285001Y-83325143D01*
X80285000Y-84774842D01*
X80194667Y-84684509D01*
X79906146Y-84565000D01*
X79593854Y-84565000D01*
X79305333Y-84684509D01*
X79084509Y-84905333D01*
X78965000Y-85193854D01*
X73185000Y-85193854D01*
X73185000Y-73127000D01*
X73815001Y-73127000D01*
X73815000Y-74932538D01*
X73815000Y-74932538D01*
G37*
X73815000Y-74932538D02*
X73801581Y-75000000D01*
X73854745Y-75267273D01*
X74006143Y-75493857D01*
X74232727Y-75645255D01*
X74500000Y-75698419D01*
X74567461Y-75685000D01*
X81432538Y-75685000D01*
X81500000Y-75698419D01*
X81567461Y-75685000D01*
X81567462Y-75685000D01*
X81767273Y-75645255D01*
X81993857Y-75493857D01*
X82145255Y-75267273D01*
X82198419Y-75000000D01*
X82185000Y-74932538D01*
X82185000Y-73127000D01*
X82815001Y-73127000D01*
X82815000Y-74932539D01*
X82815000Y-74932540D01*
X82815001Y-113808618D01*
X82805374Y-113794211D01*
X82805373Y-113794210D01*
X82765485Y-113734514D01*
X82705790Y-113694627D01*
X75147440Y-106136278D01*
X75147440Y-105500000D01*
X75116381Y-105343854D01*
X78965000Y-105343854D01*
X78965000Y-105656146D01*
X79035000Y-105825142D01*
X79035001Y-108708057D01*
X78965000Y-108877055D01*
X78965000Y-109189347D01*
X79084509Y-109477868D01*
X79305333Y-109698692D01*
X79593854Y-109818201D01*
X79906146Y-109818201D01*
X80194667Y-109698692D01*
X80415491Y-109477868D01*
X80535000Y-109189347D01*
X80535000Y-108877055D01*
X80465000Y-108708060D01*
X80465000Y-105825141D01*
X80535000Y-105656146D01*
X80535000Y-105343854D01*
X80415491Y-105055333D01*
X80194667Y-104834509D01*
X79906146Y-104715000D01*
X79593854Y-104715000D01*
X79305333Y-104834509D01*
X79084509Y-105055333D01*
X78965000Y-105343854D01*
X75116381Y-105343854D01*
X75098157Y-105252235D01*
X74957809Y-105042191D01*
X74894666Y-105000000D01*
X74957809Y-104957809D01*
X75098157Y-104747765D01*
X75147440Y-104500000D01*
X75147440Y-103500000D01*
X75116381Y-103343854D01*
X75215000Y-103343854D01*
X75215000Y-103656146D01*
X75334509Y-103944667D01*
X75555333Y-104165491D01*
X75843854Y-104285000D01*
X76156146Y-104285000D01*
X76444667Y-104165491D01*
X76665491Y-103944667D01*
X76785000Y-103656146D01*
X76785000Y-103343854D01*
X76715000Y-103174859D01*
X76715000Y-88500000D01*
X78949622Y-88500000D01*
X78965000Y-88577312D01*
X78965000Y-88656146D01*
X78995168Y-88728977D01*
X79010546Y-88806291D01*
X79054341Y-88871835D01*
X79084509Y-88944667D01*
X79305333Y-89165491D01*
X79305335Y-89165492D01*
X80465000Y-90325158D01*
X80465000Y-90577315D01*
X80465001Y-90577320D01*
X80465000Y-102343854D01*
X80465000Y-102656146D01*
X80495167Y-102728976D01*
X80510546Y-102806291D01*
X80554341Y-102871835D01*
X80584509Y-102944667D01*
X80640253Y-103000411D01*
X80684047Y-103065953D01*
X80749589Y-103109747D01*
X80805333Y-103165491D01*
X80878164Y-103195658D01*
X80943708Y-103239454D01*
X81021025Y-103254833D01*
X81093854Y-103285000D01*
X81172684Y-103285000D01*
X81250000Y-103300379D01*
X81327316Y-103285000D01*
X81406146Y-103285000D01*
X81478976Y-103254833D01*
X81556291Y-103239454D01*
X81621835Y-103195659D01*
X81694667Y-103165491D01*
X81750411Y-103109747D01*
X81815953Y-103065953D01*
X81859747Y-103000411D01*
X81915491Y-102944667D01*
X81945658Y-102871836D01*
X81989454Y-102806292D01*
X82004833Y-102728975D01*
X82035000Y-102656146D01*
X82035000Y-90077310D01*
X82050378Y-89999999D01*
X82035000Y-89922688D01*
X82035000Y-89922684D01*
X81989454Y-89693708D01*
X81944711Y-89626746D01*
X81859749Y-89499591D01*
X81859747Y-89499589D01*
X81815953Y-89434047D01*
X81750411Y-89390253D01*
X80415492Y-88055335D01*
X80415491Y-88055333D01*
X80194667Y-87834509D01*
X80121835Y-87804341D01*
X80056291Y-87760546D01*
X79978977Y-87745168D01*
X79906146Y-87715000D01*
X79827312Y-87715000D01*
X79750000Y-87699622D01*
X79672688Y-87715000D01*
X79593854Y-87715000D01*
X79521023Y-87745168D01*
X79443709Y-87760546D01*
X79378165Y-87804341D01*
X79305333Y-87834509D01*
X79249589Y-87890253D01*
X79184047Y-87934047D01*
X79140253Y-87999589D01*
X79084509Y-88055333D01*
X79054341Y-88128165D01*
X79010546Y-88193709D01*
X78995168Y-88271023D01*
X78965000Y-88343854D01*
X78965000Y-88422688D01*
X78949622Y-88500000D01*
X76715000Y-88500000D01*
X76715000Y-87871162D01*
X77525672Y-87060491D01*
X77694667Y-86990491D01*
X77915491Y-86769667D01*
X78035000Y-86481146D01*
X78035000Y-86168854D01*
X77915491Y-85880333D01*
X77694667Y-85659509D01*
X77406146Y-85540000D01*
X77093854Y-85540000D01*
X76805333Y-85659509D01*
X76584509Y-85880333D01*
X76514509Y-86049328D01*
X75544213Y-87019625D01*
X75484515Y-87059514D01*
X75444626Y-87119212D01*
X75326486Y-87296021D01*
X75270993Y-87575000D01*
X75285001Y-87645422D01*
X75285000Y-103174859D01*
X75215000Y-103343854D01*
X75116381Y-103343854D01*
X75098157Y-103252235D01*
X74957809Y-103042191D01*
X74894666Y-103000000D01*
X74957809Y-102957809D01*
X75098157Y-102747765D01*
X75147440Y-102500000D01*
X75147440Y-101500000D01*
X75098157Y-101252235D01*
X74957809Y-101042191D01*
X74894666Y-101000000D01*
X74957809Y-100957809D01*
X75098157Y-100747765D01*
X75147440Y-100500000D01*
X75147440Y-99500000D01*
X75098157Y-99252235D01*
X74957809Y-99042191D01*
X74894666Y-99000000D01*
X74957809Y-98957809D01*
X75098157Y-98747765D01*
X75147440Y-98500000D01*
X75147440Y-97500000D01*
X75098157Y-97252235D01*
X74957809Y-97042191D01*
X74894666Y-97000000D01*
X74957809Y-96957809D01*
X75098157Y-96747765D01*
X75147440Y-96500000D01*
X75147440Y-95500000D01*
X75098157Y-95252235D01*
X74957809Y-95042191D01*
X74896680Y-95001346D01*
X75038327Y-94859698D01*
X75135000Y-94626309D01*
X75135000Y-94285750D01*
X74976250Y-94127000D01*
X72827000Y-94127000D01*
X72827000Y-94147000D01*
X72573000Y-94147000D01*
X72573000Y-94127000D01*
X72553000Y-94127000D01*
X72553000Y-93873000D01*
X72573000Y-93873000D01*
X72573000Y-93023750D01*
X72549250Y-93000000D01*
X72573000Y-92976250D01*
X72573000Y-92127000D01*
X72827000Y-92127000D01*
X72827000Y-92976250D01*
X72850750Y-93000000D01*
X72827000Y-93023750D01*
X72827000Y-93873000D01*
X74976250Y-93873000D01*
X75135000Y-93714250D01*
X75135000Y-93373691D01*
X75038327Y-93140302D01*
X74898026Y-93000000D01*
X75038327Y-92859698D01*
X75135000Y-92626309D01*
X75135000Y-92285750D01*
X74976250Y-92127000D01*
X72827000Y-92127000D01*
X72573000Y-92127000D01*
X72553000Y-92127000D01*
X72553000Y-91873000D01*
X72573000Y-91873000D01*
X72573000Y-91853000D01*
X72827000Y-91853000D01*
X72827000Y-91873000D01*
X74976250Y-91873000D01*
X75135000Y-91714250D01*
X75135000Y-91373691D01*
X75038327Y-91140302D01*
X74859699Y-90961673D01*
X74626310Y-90865000D01*
X73185000Y-90865000D01*
X73185000Y-85193854D01*
X78965000Y-85193854D01*
X78965000Y-85506146D01*
X79084509Y-85794667D01*
X79305333Y-86015491D01*
X79593854Y-86135000D01*
X79906146Y-86135000D01*
X80194667Y-86015491D01*
X80215000Y-85995158D01*
X80215000Y-86156146D01*
X80334509Y-86444667D01*
X80555333Y-86665491D01*
X80843854Y-86785000D01*
X81156146Y-86785000D01*
X81444667Y-86665491D01*
X81665491Y-86444667D01*
X81785000Y-86156146D01*
X81785000Y-85843854D01*
X81715000Y-85674859D01*
X81715000Y-83325141D01*
X81785000Y-83156146D01*
X81785000Y-82843854D01*
X81665491Y-82555333D01*
X81444667Y-82334509D01*
X81156146Y-82215000D01*
X80843854Y-82215000D01*
X80555333Y-82334509D01*
X80334509Y-82555333D01*
X80215000Y-82843854D01*
X80215000Y-83156146D01*
X80285001Y-83325143D01*
X80285000Y-84774842D01*
X80194667Y-84684509D01*
X79906146Y-84565000D01*
X79593854Y-84565000D01*
X79305333Y-84684509D01*
X79084509Y-84905333D01*
X78965000Y-85193854D01*
X73185000Y-85193854D01*
X73185000Y-73127000D01*
X73815001Y-73127000D01*
X73815000Y-74932538D01*
G04 #@! TO.N,GNDD*
G36*
X55854745Y-51267273D02*
X56006143Y-51493857D01*
X56232727Y-51645255D01*
X56500000Y-51698419D01*
X56567461Y-51685000D01*
X82432539Y-51685000D01*
X82500000Y-51698419D01*
X82767273Y-51645255D01*
X82993857Y-51493857D01*
X83145255Y-51267273D01*
X83173157Y-51127000D01*
X83815001Y-51127000D01*
X83815000Y-65873000D01*
X83173157Y-65873000D01*
X83145255Y-65732727D01*
X82993857Y-65506143D01*
X82767273Y-65354745D01*
X82567462Y-65315000D01*
X82567461Y-65315000D01*
X82500000Y-65301581D01*
X82432538Y-65315000D01*
X56567462Y-65315000D01*
X56500000Y-65301581D01*
X56432539Y-65315000D01*
X56432538Y-65315000D01*
X56232727Y-65354745D01*
X56006143Y-65506143D01*
X55854745Y-65732727D01*
X55826843Y-65873000D01*
X55185000Y-65873000D01*
X55185000Y-58900000D01*
X59352560Y-58900000D01*
X59352560Y-60600000D01*
X59401843Y-60847765D01*
X59542191Y-61057809D01*
X59752235Y-61198157D01*
X60000000Y-61247440D01*
X62000000Y-61247440D01*
X62247765Y-61198157D01*
X62457809Y-61057809D01*
X62598157Y-60847765D01*
X62647440Y-60600000D01*
X62647440Y-60356890D01*
X76408524Y-60356890D01*
X76410447Y-60369260D01*
X76661336Y-60892045D01*
X77093188Y-61279024D01*
X77640258Y-61471284D01*
X77873000Y-61327231D01*
X77873000Y-60127000D01*
X78127000Y-60127000D01*
X78127000Y-61327231D01*
X78359742Y-61471284D01*
X78906812Y-61279024D01*
X79338664Y-60892045D01*
X79589553Y-60369260D01*
X79591476Y-60356890D01*
X79470155Y-60127000D01*
X78127000Y-60127000D01*
X77873000Y-60127000D01*
X76529845Y-60127000D01*
X76408524Y-60356890D01*
X62647440Y-60356890D01*
X62647440Y-58900000D01*
X62598157Y-58652235D01*
X62457809Y-58442191D01*
X62247765Y-58301843D01*
X62176218Y-58287612D01*
X62338664Y-58142045D01*
X62589553Y-57619260D01*
X62591476Y-57606890D01*
X62470155Y-57377000D01*
X61127000Y-57377000D01*
X61127000Y-57397000D01*
X60873000Y-57397000D01*
X60873000Y-57377000D01*
X59529845Y-57377000D01*
X59408524Y-57606890D01*
X59410447Y-57619260D01*
X59661336Y-58142045D01*
X59823782Y-58287612D01*
X59752235Y-58301843D01*
X59542191Y-58442191D01*
X59401843Y-58652235D01*
X59352560Y-58900000D01*
X55185000Y-58900000D01*
X55185000Y-56893110D01*
X59408524Y-56893110D01*
X59529845Y-57123000D01*
X60873000Y-57123000D01*
X60873000Y-55922769D01*
X61127000Y-55922769D01*
X61127000Y-57123000D01*
X62470155Y-57123000D01*
X62591476Y-56893110D01*
X62589553Y-56880740D01*
X62338664Y-56357955D01*
X61906812Y-55970976D01*
X61359742Y-55778716D01*
X61127000Y-55922769D01*
X60873000Y-55922769D01*
X60640258Y-55778716D01*
X60093188Y-55970976D01*
X59661336Y-56357955D01*
X59410447Y-56880740D01*
X59408524Y-56893110D01*
X55185000Y-56893110D01*
X55185000Y-55223691D01*
X67715000Y-55223691D01*
X67715000Y-56214250D01*
X67873750Y-56373000D01*
X68128001Y-56373000D01*
X68160975Y-56452607D01*
X68280500Y-56460108D01*
X68320392Y-56500000D01*
X68280500Y-56539892D01*
X68160975Y-56547393D01*
X68136493Y-56627000D01*
X67873750Y-56627000D01*
X67715000Y-56785750D01*
X67715000Y-57776309D01*
X67811673Y-58009698D01*
X67990301Y-58188327D01*
X68223690Y-58285000D01*
X69464250Y-58285000D01*
X69623000Y-58126250D01*
X69623000Y-57443395D01*
X69644424Y-57464819D01*
X69750000Y-57458194D01*
X69855576Y-57464819D01*
X69877000Y-57443395D01*
X69877000Y-58126250D01*
X70035750Y-58285000D01*
X71276310Y-58285000D01*
X71509699Y-58188327D01*
X71688327Y-58009698D01*
X71785000Y-57776309D01*
X71785000Y-56785750D01*
X71649250Y-56650000D01*
X76352560Y-56650000D01*
X76352560Y-58350000D01*
X76401843Y-58597765D01*
X76542191Y-58807809D01*
X76752235Y-58948157D01*
X76823782Y-58962388D01*
X76661336Y-59107955D01*
X76410447Y-59630740D01*
X76408524Y-59643110D01*
X76529845Y-59873000D01*
X77873000Y-59873000D01*
X77873000Y-59853000D01*
X78127000Y-59853000D01*
X78127000Y-59873000D01*
X79470155Y-59873000D01*
X79591476Y-59643110D01*
X79589553Y-59630740D01*
X79338664Y-59107955D01*
X79176218Y-58962388D01*
X79247765Y-58948157D01*
X79457809Y-58807809D01*
X79598157Y-58597765D01*
X79647440Y-58350000D01*
X79647440Y-56650000D01*
X79598157Y-56402235D01*
X79457809Y-56192191D01*
X79247765Y-56051843D01*
X79000000Y-56002560D01*
X77000000Y-56002560D01*
X76752235Y-56051843D01*
X76542191Y-56192191D01*
X76401843Y-56402235D01*
X76352560Y-56650000D01*
X71649250Y-56650000D01*
X71626250Y-56627000D01*
X71371999Y-56627000D01*
X71339025Y-56547393D01*
X71219500Y-56539892D01*
X71179608Y-56500000D01*
X71219500Y-56460108D01*
X71339025Y-56452607D01*
X71363507Y-56373000D01*
X71626250Y-56373000D01*
X71785000Y-56214250D01*
X71785000Y-55223691D01*
X71688327Y-54990302D01*
X71509699Y-54811673D01*
X71276310Y-54715000D01*
X70035750Y-54715000D01*
X69877000Y-54873750D01*
X69877000Y-55556605D01*
X69855576Y-55535181D01*
X69750000Y-55541806D01*
X69644424Y-55535181D01*
X69623000Y-55556605D01*
X69623000Y-54873750D01*
X69464250Y-54715000D01*
X68223690Y-54715000D01*
X67990301Y-54811673D01*
X67811673Y-54990302D01*
X67715000Y-55223691D01*
X55185000Y-55223691D01*
X55185000Y-53343854D01*
X70465000Y-53343854D01*
X70465000Y-53656146D01*
X70584509Y-53944667D01*
X70805333Y-54165491D01*
X71093854Y-54285000D01*
X71406146Y-54285000D01*
X71694667Y-54165491D01*
X71915491Y-53944667D01*
X71965492Y-53823955D01*
X72554447Y-53235000D01*
X74773143Y-53235000D01*
X74893854Y-53285000D01*
X75206146Y-53285000D01*
X75494667Y-53165491D01*
X75715491Y-52944667D01*
X75835000Y-52656146D01*
X75835000Y-52343854D01*
X75715491Y-52055333D01*
X75494667Y-51834509D01*
X75206146Y-51715000D01*
X74893854Y-51715000D01*
X74773143Y-51765000D01*
X72322388Y-51765000D01*
X72250000Y-51750601D01*
X72177612Y-51765000D01*
X71963217Y-51807646D01*
X71720095Y-51970095D01*
X71679090Y-52031463D01*
X70926045Y-52784508D01*
X70805333Y-52834509D01*
X70584509Y-53055333D01*
X70465000Y-53343854D01*
X55185000Y-53343854D01*
X55185000Y-51127000D01*
X55826843Y-51127000D01*
X55854745Y-51267273D01*
X55854745Y-51267273D01*
G37*
X55854745Y-51267273D02*
X56006143Y-51493857D01*
X56232727Y-51645255D01*
X56500000Y-51698419D01*
X56567461Y-51685000D01*
X82432539Y-51685000D01*
X82500000Y-51698419D01*
X82767273Y-51645255D01*
X82993857Y-51493857D01*
X83145255Y-51267273D01*
X83173157Y-51127000D01*
X83815001Y-51127000D01*
X83815000Y-65873000D01*
X83173157Y-65873000D01*
X83145255Y-65732727D01*
X82993857Y-65506143D01*
X82767273Y-65354745D01*
X82567462Y-65315000D01*
X82567461Y-65315000D01*
X82500000Y-65301581D01*
X82432538Y-65315000D01*
X56567462Y-65315000D01*
X56500000Y-65301581D01*
X56432539Y-65315000D01*
X56432538Y-65315000D01*
X56232727Y-65354745D01*
X56006143Y-65506143D01*
X55854745Y-65732727D01*
X55826843Y-65873000D01*
X55185000Y-65873000D01*
X55185000Y-58900000D01*
X59352560Y-58900000D01*
X59352560Y-60600000D01*
X59401843Y-60847765D01*
X59542191Y-61057809D01*
X59752235Y-61198157D01*
X60000000Y-61247440D01*
X62000000Y-61247440D01*
X62247765Y-61198157D01*
X62457809Y-61057809D01*
X62598157Y-60847765D01*
X62647440Y-60600000D01*
X62647440Y-60356890D01*
X76408524Y-60356890D01*
X76410447Y-60369260D01*
X76661336Y-60892045D01*
X77093188Y-61279024D01*
X77640258Y-61471284D01*
X77873000Y-61327231D01*
X77873000Y-60127000D01*
X78127000Y-60127000D01*
X78127000Y-61327231D01*
X78359742Y-61471284D01*
X78906812Y-61279024D01*
X79338664Y-60892045D01*
X79589553Y-60369260D01*
X79591476Y-60356890D01*
X79470155Y-60127000D01*
X78127000Y-60127000D01*
X77873000Y-60127000D01*
X76529845Y-60127000D01*
X76408524Y-60356890D01*
X62647440Y-60356890D01*
X62647440Y-58900000D01*
X62598157Y-58652235D01*
X62457809Y-58442191D01*
X62247765Y-58301843D01*
X62176218Y-58287612D01*
X62338664Y-58142045D01*
X62589553Y-57619260D01*
X62591476Y-57606890D01*
X62470155Y-57377000D01*
X61127000Y-57377000D01*
X61127000Y-57397000D01*
X60873000Y-57397000D01*
X60873000Y-57377000D01*
X59529845Y-57377000D01*
X59408524Y-57606890D01*
X59410447Y-57619260D01*
X59661336Y-58142045D01*
X59823782Y-58287612D01*
X59752235Y-58301843D01*
X59542191Y-58442191D01*
X59401843Y-58652235D01*
X59352560Y-58900000D01*
X55185000Y-58900000D01*
X55185000Y-56893110D01*
X59408524Y-56893110D01*
X59529845Y-57123000D01*
X60873000Y-57123000D01*
X60873000Y-55922769D01*
X61127000Y-55922769D01*
X61127000Y-57123000D01*
X62470155Y-57123000D01*
X62591476Y-56893110D01*
X62589553Y-56880740D01*
X62338664Y-56357955D01*
X61906812Y-55970976D01*
X61359742Y-55778716D01*
X61127000Y-55922769D01*
X60873000Y-55922769D01*
X60640258Y-55778716D01*
X60093188Y-55970976D01*
X59661336Y-56357955D01*
X59410447Y-56880740D01*
X59408524Y-56893110D01*
X55185000Y-56893110D01*
X55185000Y-55223691D01*
X67715000Y-55223691D01*
X67715000Y-56214250D01*
X67873750Y-56373000D01*
X68128001Y-56373000D01*
X68160975Y-56452607D01*
X68280500Y-56460108D01*
X68320392Y-56500000D01*
X68280500Y-56539892D01*
X68160975Y-56547393D01*
X68136493Y-56627000D01*
X67873750Y-56627000D01*
X67715000Y-56785750D01*
X67715000Y-57776309D01*
X67811673Y-58009698D01*
X67990301Y-58188327D01*
X68223690Y-58285000D01*
X69464250Y-58285000D01*
X69623000Y-58126250D01*
X69623000Y-57443395D01*
X69644424Y-57464819D01*
X69750000Y-57458194D01*
X69855576Y-57464819D01*
X69877000Y-57443395D01*
X69877000Y-58126250D01*
X70035750Y-58285000D01*
X71276310Y-58285000D01*
X71509699Y-58188327D01*
X71688327Y-58009698D01*
X71785000Y-57776309D01*
X71785000Y-56785750D01*
X71649250Y-56650000D01*
X76352560Y-56650000D01*
X76352560Y-58350000D01*
X76401843Y-58597765D01*
X76542191Y-58807809D01*
X76752235Y-58948157D01*
X76823782Y-58962388D01*
X76661336Y-59107955D01*
X76410447Y-59630740D01*
X76408524Y-59643110D01*
X76529845Y-59873000D01*
X77873000Y-59873000D01*
X77873000Y-59853000D01*
X78127000Y-59853000D01*
X78127000Y-59873000D01*
X79470155Y-59873000D01*
X79591476Y-59643110D01*
X79589553Y-59630740D01*
X79338664Y-59107955D01*
X79176218Y-58962388D01*
X79247765Y-58948157D01*
X79457809Y-58807809D01*
X79598157Y-58597765D01*
X79647440Y-58350000D01*
X79647440Y-56650000D01*
X79598157Y-56402235D01*
X79457809Y-56192191D01*
X79247765Y-56051843D01*
X79000000Y-56002560D01*
X77000000Y-56002560D01*
X76752235Y-56051843D01*
X76542191Y-56192191D01*
X76401843Y-56402235D01*
X76352560Y-56650000D01*
X71649250Y-56650000D01*
X71626250Y-56627000D01*
X71371999Y-56627000D01*
X71339025Y-56547393D01*
X71219500Y-56539892D01*
X71179608Y-56500000D01*
X71219500Y-56460108D01*
X71339025Y-56452607D01*
X71363507Y-56373000D01*
X71626250Y-56373000D01*
X71785000Y-56214250D01*
X71785000Y-55223691D01*
X71688327Y-54990302D01*
X71509699Y-54811673D01*
X71276310Y-54715000D01*
X70035750Y-54715000D01*
X69877000Y-54873750D01*
X69877000Y-55556605D01*
X69855576Y-55535181D01*
X69750000Y-55541806D01*
X69644424Y-55535181D01*
X69623000Y-55556605D01*
X69623000Y-54873750D01*
X69464250Y-54715000D01*
X68223690Y-54715000D01*
X67990301Y-54811673D01*
X67811673Y-54990302D01*
X67715000Y-55223691D01*
X55185000Y-55223691D01*
X55185000Y-53343854D01*
X70465000Y-53343854D01*
X70465000Y-53656146D01*
X70584509Y-53944667D01*
X70805333Y-54165491D01*
X71093854Y-54285000D01*
X71406146Y-54285000D01*
X71694667Y-54165491D01*
X71915491Y-53944667D01*
X71965492Y-53823955D01*
X72554447Y-53235000D01*
X74773143Y-53235000D01*
X74893854Y-53285000D01*
X75206146Y-53285000D01*
X75494667Y-53165491D01*
X75715491Y-52944667D01*
X75835000Y-52656146D01*
X75835000Y-52343854D01*
X75715491Y-52055333D01*
X75494667Y-51834509D01*
X75206146Y-51715000D01*
X74893854Y-51715000D01*
X74773143Y-51765000D01*
X72322388Y-51765000D01*
X72250000Y-51750601D01*
X72177612Y-51765000D01*
X71963217Y-51807646D01*
X71720095Y-51970095D01*
X71679090Y-52031463D01*
X70926045Y-52784508D01*
X70805333Y-52834509D01*
X70584509Y-53055333D01*
X70465000Y-53343854D01*
X55185000Y-53343854D01*
X55185000Y-51127000D01*
X55826843Y-51127000D01*
X55854745Y-51267273D01*
G36*
X69780500Y-56460108D02*
X69820392Y-56500000D01*
X69780500Y-56539892D01*
X69750000Y-56541806D01*
X69719500Y-56539892D01*
X69679608Y-56500000D01*
X69719500Y-56460108D01*
X69750000Y-56458194D01*
X69780500Y-56460108D01*
X69780500Y-56460108D01*
G37*
X69780500Y-56460108D02*
X69820392Y-56500000D01*
X69780500Y-56539892D01*
X69750000Y-56541806D01*
X69719500Y-56539892D01*
X69679608Y-56500000D01*
X69719500Y-56460108D01*
X69750000Y-56458194D01*
X69780500Y-56460108D01*
G04 #@! TO.N,Net-(D25-Pad4)*
G36*
X93035000Y-119046163D02*
X93035001Y-126499856D01*
X92965000Y-126668854D01*
X92965000Y-126981146D01*
X93084509Y-127269667D01*
X93305333Y-127490491D01*
X93593854Y-127610000D01*
X93906146Y-127610000D01*
X94194667Y-127490491D01*
X94415491Y-127269667D01*
X94535000Y-126981146D01*
X94535000Y-126668854D01*
X94465000Y-126499859D01*
X94465000Y-118820417D01*
X94479007Y-118750000D01*
X94462197Y-118665491D01*
X94423515Y-118471021D01*
X94374535Y-118397717D01*
X94350331Y-118361494D01*
X95535001Y-119546164D01*
X95535000Y-130999859D01*
X95465000Y-131168854D01*
X95465000Y-131481146D01*
X95584509Y-131769667D01*
X95805333Y-131990491D01*
X96093854Y-132110000D01*
X96406146Y-132110000D01*
X96694667Y-131990491D01*
X96815000Y-131870158D01*
X96815000Y-134873000D01*
X96173157Y-134873000D01*
X96145255Y-134732727D01*
X95993857Y-134506143D01*
X95767273Y-134354745D01*
X95567462Y-134315000D01*
X95500000Y-134301581D01*
X95432539Y-134315000D01*
X88567461Y-134315000D01*
X88500000Y-134301581D01*
X88432538Y-134315000D01*
X88232727Y-134354745D01*
X88006143Y-134506143D01*
X87854745Y-134732727D01*
X87826843Y-134873000D01*
X87185000Y-134873000D01*
X87185000Y-124135000D01*
X88626310Y-124135000D01*
X88785001Y-124069268D01*
X88785001Y-125778836D01*
X88474329Y-126089509D01*
X88305333Y-126159509D01*
X88084509Y-126380333D01*
X87965000Y-126668854D01*
X87965000Y-126981146D01*
X88084509Y-127269667D01*
X88305333Y-127490491D01*
X88593854Y-127610000D01*
X88906146Y-127610000D01*
X89194667Y-127490491D01*
X89415491Y-127269667D01*
X89485491Y-127100671D01*
X89488002Y-127098160D01*
X89555333Y-127165491D01*
X89843854Y-127285000D01*
X90156146Y-127285000D01*
X90444667Y-127165491D01*
X90535000Y-127075158D01*
X90535001Y-130999856D01*
X90465000Y-131168854D01*
X90465000Y-131481146D01*
X90584509Y-131769667D01*
X90805333Y-131990491D01*
X91093854Y-132110000D01*
X91406146Y-132110000D01*
X91694667Y-131990491D01*
X91915491Y-131769667D01*
X92035000Y-131481146D01*
X92035000Y-131168854D01*
X91965000Y-130999859D01*
X91965000Y-118320416D01*
X91979007Y-118249999D01*
X91958607Y-118147440D01*
X91923515Y-117971021D01*
X91874535Y-117897717D01*
X91850331Y-117861493D01*
X93035000Y-119046163D01*
X93035000Y-119046163D01*
G37*
X93035000Y-119046163D02*
X93035001Y-126499856D01*
X92965000Y-126668854D01*
X92965000Y-126981146D01*
X93084509Y-127269667D01*
X93305333Y-127490491D01*
X93593854Y-127610000D01*
X93906146Y-127610000D01*
X94194667Y-127490491D01*
X94415491Y-127269667D01*
X94535000Y-126981146D01*
X94535000Y-126668854D01*
X94465000Y-126499859D01*
X94465000Y-118820417D01*
X94479007Y-118750000D01*
X94462197Y-118665491D01*
X94423515Y-118471021D01*
X94374535Y-118397717D01*
X94350331Y-118361494D01*
X95535001Y-119546164D01*
X95535000Y-130999859D01*
X95465000Y-131168854D01*
X95465000Y-131481146D01*
X95584509Y-131769667D01*
X95805333Y-131990491D01*
X96093854Y-132110000D01*
X96406146Y-132110000D01*
X96694667Y-131990491D01*
X96815000Y-131870158D01*
X96815000Y-134873000D01*
X96173157Y-134873000D01*
X96145255Y-134732727D01*
X95993857Y-134506143D01*
X95767273Y-134354745D01*
X95567462Y-134315000D01*
X95500000Y-134301581D01*
X95432539Y-134315000D01*
X88567461Y-134315000D01*
X88500000Y-134301581D01*
X88432538Y-134315000D01*
X88232727Y-134354745D01*
X88006143Y-134506143D01*
X87854745Y-134732727D01*
X87826843Y-134873000D01*
X87185000Y-134873000D01*
X87185000Y-124135000D01*
X88626310Y-124135000D01*
X88785001Y-124069268D01*
X88785001Y-125778836D01*
X88474329Y-126089509D01*
X88305333Y-126159509D01*
X88084509Y-126380333D01*
X87965000Y-126668854D01*
X87965000Y-126981146D01*
X88084509Y-127269667D01*
X88305333Y-127490491D01*
X88593854Y-127610000D01*
X88906146Y-127610000D01*
X89194667Y-127490491D01*
X89415491Y-127269667D01*
X89485491Y-127100671D01*
X89488002Y-127098160D01*
X89555333Y-127165491D01*
X89843854Y-127285000D01*
X90156146Y-127285000D01*
X90444667Y-127165491D01*
X90535000Y-127075158D01*
X90535001Y-130999856D01*
X90465000Y-131168854D01*
X90465000Y-131481146D01*
X90584509Y-131769667D01*
X90805333Y-131990491D01*
X91093854Y-132110000D01*
X91406146Y-132110000D01*
X91694667Y-131990491D01*
X91915491Y-131769667D01*
X92035000Y-131481146D01*
X92035000Y-131168854D01*
X91965000Y-130999859D01*
X91965000Y-118320416D01*
X91979007Y-118249999D01*
X91958607Y-118147440D01*
X91923515Y-117971021D01*
X91874535Y-117897717D01*
X91850331Y-117861493D01*
X93035000Y-119046163D01*
G36*
X86827000Y-120873000D02*
X86847000Y-120873000D01*
X86847000Y-121127000D01*
X86827000Y-121127000D01*
X86827000Y-121976250D01*
X86850750Y-122000000D01*
X86827000Y-122023750D01*
X86827000Y-122873000D01*
X86847000Y-122873000D01*
X86847000Y-123127000D01*
X86827000Y-123127000D01*
X86827000Y-123147000D01*
X86573000Y-123147000D01*
X86573000Y-123127000D01*
X86553000Y-123127000D01*
X86553000Y-122873000D01*
X86573000Y-122873000D01*
X86573000Y-122023750D01*
X86549250Y-122000000D01*
X86573000Y-121976250D01*
X86573000Y-121127000D01*
X86553000Y-121127000D01*
X86553000Y-120873000D01*
X86573000Y-120873000D01*
X86573000Y-120853000D01*
X86827000Y-120853000D01*
X86827000Y-120873000D01*
X86827000Y-120873000D01*
G37*
X86827000Y-120873000D02*
X86847000Y-120873000D01*
X86847000Y-121127000D01*
X86827000Y-121127000D01*
X86827000Y-121976250D01*
X86850750Y-122000000D01*
X86827000Y-122023750D01*
X86827000Y-122873000D01*
X86847000Y-122873000D01*
X86847000Y-123127000D01*
X86827000Y-123127000D01*
X86827000Y-123147000D01*
X86573000Y-123147000D01*
X86573000Y-123127000D01*
X86553000Y-123127000D01*
X86553000Y-122873000D01*
X86573000Y-122873000D01*
X86573000Y-122023750D01*
X86549250Y-122000000D01*
X86573000Y-121976250D01*
X86573000Y-121127000D01*
X86553000Y-121127000D01*
X86553000Y-120873000D01*
X86573000Y-120873000D01*
X86573000Y-120853000D01*
X86827000Y-120853000D01*
X86827000Y-120873000D01*
G36*
X87815001Y-84932534D02*
X87801581Y-85000000D01*
X87854745Y-85267273D01*
X88006143Y-85493857D01*
X88232727Y-85645255D01*
X88432538Y-85685000D01*
X88432539Y-85685000D01*
X88500000Y-85698419D01*
X88567462Y-85685000D01*
X95432538Y-85685000D01*
X95500000Y-85698419D01*
X95567461Y-85685000D01*
X95567462Y-85685000D01*
X95767273Y-85645255D01*
X95993857Y-85493857D01*
X96145255Y-85267273D01*
X96198419Y-85000000D01*
X96185000Y-84932538D01*
X96185000Y-83127000D01*
X96815001Y-83127000D01*
X96815000Y-85067461D01*
X96815001Y-85067466D01*
X96815000Y-118808618D01*
X96805374Y-118794211D01*
X96765486Y-118734514D01*
X96705788Y-118694625D01*
X89147440Y-111136278D01*
X89147440Y-110500000D01*
X89116381Y-110343854D01*
X92965000Y-110343854D01*
X92965000Y-110656146D01*
X93035000Y-110825142D01*
X93035001Y-113708057D01*
X92965000Y-113877055D01*
X92965000Y-114189347D01*
X93084509Y-114477868D01*
X93305333Y-114698692D01*
X93593854Y-114818201D01*
X93906146Y-114818201D01*
X94194667Y-114698692D01*
X94415491Y-114477868D01*
X94535000Y-114189347D01*
X94535000Y-113877055D01*
X94465000Y-113708060D01*
X94465000Y-110825141D01*
X94535000Y-110656146D01*
X94535000Y-110343854D01*
X94415491Y-110055333D01*
X94194667Y-109834509D01*
X93906146Y-109715000D01*
X93593854Y-109715000D01*
X93305333Y-109834509D01*
X93084509Y-110055333D01*
X92965000Y-110343854D01*
X89116381Y-110343854D01*
X89098157Y-110252235D01*
X88957809Y-110042191D01*
X88894666Y-110000000D01*
X88957809Y-109957809D01*
X89098157Y-109747765D01*
X89147440Y-109500000D01*
X89147440Y-108500000D01*
X89116381Y-108343854D01*
X89215000Y-108343854D01*
X89215000Y-108656146D01*
X89334509Y-108944667D01*
X89555333Y-109165491D01*
X89843854Y-109285000D01*
X90156146Y-109285000D01*
X90444667Y-109165491D01*
X90665491Y-108944667D01*
X90785000Y-108656146D01*
X90785000Y-108343854D01*
X90715000Y-108174859D01*
X90715000Y-98500000D01*
X92949622Y-98500000D01*
X92965000Y-98577312D01*
X92965000Y-98656146D01*
X92995168Y-98728977D01*
X93010546Y-98806291D01*
X93054341Y-98871835D01*
X93084509Y-98944667D01*
X93305333Y-99165491D01*
X93305335Y-99165492D01*
X94465001Y-100325159D01*
X94465000Y-107343854D01*
X94465000Y-107656146D01*
X94495167Y-107728976D01*
X94510546Y-107806291D01*
X94554341Y-107871835D01*
X94584509Y-107944667D01*
X94640253Y-108000411D01*
X94684047Y-108065953D01*
X94749589Y-108109747D01*
X94805333Y-108165491D01*
X94878164Y-108195658D01*
X94943708Y-108239454D01*
X95021025Y-108254833D01*
X95093854Y-108285000D01*
X95172684Y-108285000D01*
X95250000Y-108300379D01*
X95327316Y-108285000D01*
X95406146Y-108285000D01*
X95478976Y-108254833D01*
X95556291Y-108239454D01*
X95621835Y-108195659D01*
X95694667Y-108165491D01*
X95750411Y-108109747D01*
X95815953Y-108065953D01*
X95859747Y-108000411D01*
X95915491Y-107944667D01*
X95945658Y-107871836D01*
X95989454Y-107806292D01*
X96004833Y-107728975D01*
X96035000Y-107656146D01*
X96035000Y-100077310D01*
X96050378Y-99999999D01*
X96035000Y-99922688D01*
X96035000Y-99922684D01*
X95989454Y-99693708D01*
X95944419Y-99626309D01*
X95859749Y-99499591D01*
X95859747Y-99499589D01*
X95815953Y-99434047D01*
X95750411Y-99390253D01*
X94415492Y-98055335D01*
X94415491Y-98055333D01*
X94194667Y-97834509D01*
X94121835Y-97804341D01*
X94056291Y-97760546D01*
X93978977Y-97745168D01*
X93906146Y-97715000D01*
X93827312Y-97715000D01*
X93750000Y-97699622D01*
X93672688Y-97715000D01*
X93593854Y-97715000D01*
X93521023Y-97745168D01*
X93443709Y-97760546D01*
X93378165Y-97804341D01*
X93305333Y-97834509D01*
X93249589Y-97890253D01*
X93184047Y-97934047D01*
X93140253Y-97999589D01*
X93084509Y-98055333D01*
X93054341Y-98128165D01*
X93010546Y-98193709D01*
X92995168Y-98271023D01*
X92965000Y-98343854D01*
X92965000Y-98422688D01*
X92949622Y-98500000D01*
X90715000Y-98500000D01*
X90715000Y-98256162D01*
X91705788Y-97265375D01*
X91765486Y-97225486D01*
X91923515Y-96988979D01*
X91965000Y-96780417D01*
X91979007Y-96710000D01*
X91966419Y-96646716D01*
X92035000Y-96481146D01*
X92035000Y-96168854D01*
X91915491Y-95880333D01*
X91694667Y-95659509D01*
X91406146Y-95540000D01*
X91093854Y-95540000D01*
X90805333Y-95659509D01*
X90584509Y-95880333D01*
X90465000Y-96168854D01*
X90465000Y-96481146D01*
X90465788Y-96483049D01*
X89544212Y-97404626D01*
X89484514Y-97444515D01*
X89326485Y-97681022D01*
X89289890Y-97865000D01*
X89270993Y-97960000D01*
X89285000Y-98030417D01*
X89285001Y-108174856D01*
X89215000Y-108343854D01*
X89116381Y-108343854D01*
X89098157Y-108252235D01*
X88957809Y-108042191D01*
X88894666Y-108000000D01*
X88957809Y-107957809D01*
X89098157Y-107747765D01*
X89147440Y-107500000D01*
X89147440Y-106500000D01*
X89098157Y-106252235D01*
X88957809Y-106042191D01*
X88894666Y-106000000D01*
X88957809Y-105957809D01*
X89098157Y-105747765D01*
X89147440Y-105500000D01*
X89147440Y-104500000D01*
X89098157Y-104252235D01*
X88957809Y-104042191D01*
X88894666Y-104000000D01*
X88957809Y-103957809D01*
X89098157Y-103747765D01*
X89147440Y-103500000D01*
X89147440Y-102500000D01*
X89098157Y-102252235D01*
X88957809Y-102042191D01*
X88894666Y-102000000D01*
X88957809Y-101957809D01*
X89098157Y-101747765D01*
X89147440Y-101500000D01*
X89147440Y-100500000D01*
X89098157Y-100252235D01*
X88957809Y-100042191D01*
X88896680Y-100001346D01*
X89038327Y-99859698D01*
X89135000Y-99626309D01*
X89135000Y-99285750D01*
X88976250Y-99127000D01*
X86827000Y-99127000D01*
X86827000Y-99147000D01*
X86573000Y-99147000D01*
X86573000Y-99127000D01*
X86553000Y-99127000D01*
X86553000Y-98873000D01*
X86573000Y-98873000D01*
X86573000Y-98023750D01*
X86549250Y-98000000D01*
X86573000Y-97976250D01*
X86573000Y-97127000D01*
X86827000Y-97127000D01*
X86827000Y-97976250D01*
X86850750Y-98000000D01*
X86827000Y-98023750D01*
X86827000Y-98873000D01*
X88976250Y-98873000D01*
X89135000Y-98714250D01*
X89135000Y-98373691D01*
X89038327Y-98140302D01*
X88898026Y-98000000D01*
X89038327Y-97859698D01*
X89135000Y-97626309D01*
X89135000Y-97285750D01*
X88976250Y-97127000D01*
X86827000Y-97127000D01*
X86573000Y-97127000D01*
X86553000Y-97127000D01*
X86553000Y-96873000D01*
X86573000Y-96873000D01*
X86573000Y-96853000D01*
X86827000Y-96853000D01*
X86827000Y-96873000D01*
X88976250Y-96873000D01*
X89135000Y-96714250D01*
X89135000Y-96373691D01*
X89038327Y-96140302D01*
X88859699Y-95961673D01*
X88626310Y-95865000D01*
X87185000Y-95865000D01*
X87185000Y-95193854D01*
X92965000Y-95193854D01*
X92965000Y-95506146D01*
X93084509Y-95794667D01*
X93305333Y-96015491D01*
X93593854Y-96135000D01*
X93906146Y-96135000D01*
X94194667Y-96015491D01*
X94215000Y-95995158D01*
X94215000Y-96156146D01*
X94334509Y-96444667D01*
X94555333Y-96665491D01*
X94843854Y-96785000D01*
X95156146Y-96785000D01*
X95444667Y-96665491D01*
X95665491Y-96444667D01*
X95785000Y-96156146D01*
X95785000Y-95843854D01*
X95715000Y-95674859D01*
X95715000Y-93325141D01*
X95785000Y-93156146D01*
X95785000Y-92843854D01*
X95665491Y-92555333D01*
X95444667Y-92334509D01*
X95156146Y-92215000D01*
X94843854Y-92215000D01*
X94555333Y-92334509D01*
X94334509Y-92555333D01*
X94215000Y-92843854D01*
X94215000Y-93156146D01*
X94285001Y-93325143D01*
X94285000Y-94774842D01*
X94194667Y-94684509D01*
X93906146Y-94565000D01*
X93593854Y-94565000D01*
X93305333Y-94684509D01*
X93084509Y-94905333D01*
X92965000Y-95193854D01*
X87185000Y-95193854D01*
X87185000Y-83127000D01*
X87815000Y-83127000D01*
X87815001Y-84932534D01*
X87815001Y-84932534D01*
G37*
X87815001Y-84932534D02*
X87801581Y-85000000D01*
X87854745Y-85267273D01*
X88006143Y-85493857D01*
X88232727Y-85645255D01*
X88432538Y-85685000D01*
X88432539Y-85685000D01*
X88500000Y-85698419D01*
X88567462Y-85685000D01*
X95432538Y-85685000D01*
X95500000Y-85698419D01*
X95567461Y-85685000D01*
X95567462Y-85685000D01*
X95767273Y-85645255D01*
X95993857Y-85493857D01*
X96145255Y-85267273D01*
X96198419Y-85000000D01*
X96185000Y-84932538D01*
X96185000Y-83127000D01*
X96815001Y-83127000D01*
X96815000Y-85067461D01*
X96815001Y-85067466D01*
X96815000Y-118808618D01*
X96805374Y-118794211D01*
X96765486Y-118734514D01*
X96705788Y-118694625D01*
X89147440Y-111136278D01*
X89147440Y-110500000D01*
X89116381Y-110343854D01*
X92965000Y-110343854D01*
X92965000Y-110656146D01*
X93035000Y-110825142D01*
X93035001Y-113708057D01*
X92965000Y-113877055D01*
X92965000Y-114189347D01*
X93084509Y-114477868D01*
X93305333Y-114698692D01*
X93593854Y-114818201D01*
X93906146Y-114818201D01*
X94194667Y-114698692D01*
X94415491Y-114477868D01*
X94535000Y-114189347D01*
X94535000Y-113877055D01*
X94465000Y-113708060D01*
X94465000Y-110825141D01*
X94535000Y-110656146D01*
X94535000Y-110343854D01*
X94415491Y-110055333D01*
X94194667Y-109834509D01*
X93906146Y-109715000D01*
X93593854Y-109715000D01*
X93305333Y-109834509D01*
X93084509Y-110055333D01*
X92965000Y-110343854D01*
X89116381Y-110343854D01*
X89098157Y-110252235D01*
X88957809Y-110042191D01*
X88894666Y-110000000D01*
X88957809Y-109957809D01*
X89098157Y-109747765D01*
X89147440Y-109500000D01*
X89147440Y-108500000D01*
X89116381Y-108343854D01*
X89215000Y-108343854D01*
X89215000Y-108656146D01*
X89334509Y-108944667D01*
X89555333Y-109165491D01*
X89843854Y-109285000D01*
X90156146Y-109285000D01*
X90444667Y-109165491D01*
X90665491Y-108944667D01*
X90785000Y-108656146D01*
X90785000Y-108343854D01*
X90715000Y-108174859D01*
X90715000Y-98500000D01*
X92949622Y-98500000D01*
X92965000Y-98577312D01*
X92965000Y-98656146D01*
X92995168Y-98728977D01*
X93010546Y-98806291D01*
X93054341Y-98871835D01*
X93084509Y-98944667D01*
X93305333Y-99165491D01*
X93305335Y-99165492D01*
X94465001Y-100325159D01*
X94465000Y-107343854D01*
X94465000Y-107656146D01*
X94495167Y-107728976D01*
X94510546Y-107806291D01*
X94554341Y-107871835D01*
X94584509Y-107944667D01*
X94640253Y-108000411D01*
X94684047Y-108065953D01*
X94749589Y-108109747D01*
X94805333Y-108165491D01*
X94878164Y-108195658D01*
X94943708Y-108239454D01*
X95021025Y-108254833D01*
X95093854Y-108285000D01*
X95172684Y-108285000D01*
X95250000Y-108300379D01*
X95327316Y-108285000D01*
X95406146Y-108285000D01*
X95478976Y-108254833D01*
X95556291Y-108239454D01*
X95621835Y-108195659D01*
X95694667Y-108165491D01*
X95750411Y-108109747D01*
X95815953Y-108065953D01*
X95859747Y-108000411D01*
X95915491Y-107944667D01*
X95945658Y-107871836D01*
X95989454Y-107806292D01*
X96004833Y-107728975D01*
X96035000Y-107656146D01*
X96035000Y-100077310D01*
X96050378Y-99999999D01*
X96035000Y-99922688D01*
X96035000Y-99922684D01*
X95989454Y-99693708D01*
X95944419Y-99626309D01*
X95859749Y-99499591D01*
X95859747Y-99499589D01*
X95815953Y-99434047D01*
X95750411Y-99390253D01*
X94415492Y-98055335D01*
X94415491Y-98055333D01*
X94194667Y-97834509D01*
X94121835Y-97804341D01*
X94056291Y-97760546D01*
X93978977Y-97745168D01*
X93906146Y-97715000D01*
X93827312Y-97715000D01*
X93750000Y-97699622D01*
X93672688Y-97715000D01*
X93593854Y-97715000D01*
X93521023Y-97745168D01*
X93443709Y-97760546D01*
X93378165Y-97804341D01*
X93305333Y-97834509D01*
X93249589Y-97890253D01*
X93184047Y-97934047D01*
X93140253Y-97999589D01*
X93084509Y-98055333D01*
X93054341Y-98128165D01*
X93010546Y-98193709D01*
X92995168Y-98271023D01*
X92965000Y-98343854D01*
X92965000Y-98422688D01*
X92949622Y-98500000D01*
X90715000Y-98500000D01*
X90715000Y-98256162D01*
X91705788Y-97265375D01*
X91765486Y-97225486D01*
X91923515Y-96988979D01*
X91965000Y-96780417D01*
X91979007Y-96710000D01*
X91966419Y-96646716D01*
X92035000Y-96481146D01*
X92035000Y-96168854D01*
X91915491Y-95880333D01*
X91694667Y-95659509D01*
X91406146Y-95540000D01*
X91093854Y-95540000D01*
X90805333Y-95659509D01*
X90584509Y-95880333D01*
X90465000Y-96168854D01*
X90465000Y-96481146D01*
X90465788Y-96483049D01*
X89544212Y-97404626D01*
X89484514Y-97444515D01*
X89326485Y-97681022D01*
X89289890Y-97865000D01*
X89270993Y-97960000D01*
X89285000Y-98030417D01*
X89285001Y-108174856D01*
X89215000Y-108343854D01*
X89116381Y-108343854D01*
X89098157Y-108252235D01*
X88957809Y-108042191D01*
X88894666Y-108000000D01*
X88957809Y-107957809D01*
X89098157Y-107747765D01*
X89147440Y-107500000D01*
X89147440Y-106500000D01*
X89098157Y-106252235D01*
X88957809Y-106042191D01*
X88894666Y-106000000D01*
X88957809Y-105957809D01*
X89098157Y-105747765D01*
X89147440Y-105500000D01*
X89147440Y-104500000D01*
X89098157Y-104252235D01*
X88957809Y-104042191D01*
X88894666Y-104000000D01*
X88957809Y-103957809D01*
X89098157Y-103747765D01*
X89147440Y-103500000D01*
X89147440Y-102500000D01*
X89098157Y-102252235D01*
X88957809Y-102042191D01*
X88894666Y-102000000D01*
X88957809Y-101957809D01*
X89098157Y-101747765D01*
X89147440Y-101500000D01*
X89147440Y-100500000D01*
X89098157Y-100252235D01*
X88957809Y-100042191D01*
X88896680Y-100001346D01*
X89038327Y-99859698D01*
X89135000Y-99626309D01*
X89135000Y-99285750D01*
X88976250Y-99127000D01*
X86827000Y-99127000D01*
X86827000Y-99147000D01*
X86573000Y-99147000D01*
X86573000Y-99127000D01*
X86553000Y-99127000D01*
X86553000Y-98873000D01*
X86573000Y-98873000D01*
X86573000Y-98023750D01*
X86549250Y-98000000D01*
X86573000Y-97976250D01*
X86573000Y-97127000D01*
X86827000Y-97127000D01*
X86827000Y-97976250D01*
X86850750Y-98000000D01*
X86827000Y-98023750D01*
X86827000Y-98873000D01*
X88976250Y-98873000D01*
X89135000Y-98714250D01*
X89135000Y-98373691D01*
X89038327Y-98140302D01*
X88898026Y-98000000D01*
X89038327Y-97859698D01*
X89135000Y-97626309D01*
X89135000Y-97285750D01*
X88976250Y-97127000D01*
X86827000Y-97127000D01*
X86573000Y-97127000D01*
X86553000Y-97127000D01*
X86553000Y-96873000D01*
X86573000Y-96873000D01*
X86573000Y-96853000D01*
X86827000Y-96853000D01*
X86827000Y-96873000D01*
X88976250Y-96873000D01*
X89135000Y-96714250D01*
X89135000Y-96373691D01*
X89038327Y-96140302D01*
X88859699Y-95961673D01*
X88626310Y-95865000D01*
X87185000Y-95865000D01*
X87185000Y-95193854D01*
X92965000Y-95193854D01*
X92965000Y-95506146D01*
X93084509Y-95794667D01*
X93305333Y-96015491D01*
X93593854Y-96135000D01*
X93906146Y-96135000D01*
X94194667Y-96015491D01*
X94215000Y-95995158D01*
X94215000Y-96156146D01*
X94334509Y-96444667D01*
X94555333Y-96665491D01*
X94843854Y-96785000D01*
X95156146Y-96785000D01*
X95444667Y-96665491D01*
X95665491Y-96444667D01*
X95785000Y-96156146D01*
X95785000Y-95843854D01*
X95715000Y-95674859D01*
X95715000Y-93325141D01*
X95785000Y-93156146D01*
X95785000Y-92843854D01*
X95665491Y-92555333D01*
X95444667Y-92334509D01*
X95156146Y-92215000D01*
X94843854Y-92215000D01*
X94555333Y-92334509D01*
X94334509Y-92555333D01*
X94215000Y-92843854D01*
X94215000Y-93156146D01*
X94285001Y-93325143D01*
X94285000Y-94774842D01*
X94194667Y-94684509D01*
X93906146Y-94565000D01*
X93593854Y-94565000D01*
X93305333Y-94684509D01*
X93084509Y-94905333D01*
X92965000Y-95193854D01*
X87185000Y-95193854D01*
X87185000Y-83127000D01*
X87815000Y-83127000D01*
X87815001Y-84932534D01*
G04 #@! TO.N,Net-(D37-Pad4)*
G36*
X107035000Y-119046163D02*
X107035001Y-126499856D01*
X106965000Y-126668854D01*
X106965000Y-126981146D01*
X107084509Y-127269667D01*
X107305333Y-127490491D01*
X107593854Y-127610000D01*
X107906146Y-127610000D01*
X108194667Y-127490491D01*
X108415491Y-127269667D01*
X108535000Y-126981146D01*
X108535000Y-126668854D01*
X108465000Y-126499859D01*
X108465000Y-118820417D01*
X108479007Y-118750000D01*
X108462197Y-118665491D01*
X108423515Y-118471021D01*
X108374535Y-118397717D01*
X108350331Y-118361494D01*
X109535001Y-119546164D01*
X109535000Y-130999859D01*
X109465000Y-131168854D01*
X109465000Y-131481146D01*
X109584509Y-131769667D01*
X109805333Y-131990491D01*
X110093854Y-132110000D01*
X110406146Y-132110000D01*
X110694667Y-131990491D01*
X110815000Y-131870158D01*
X110815000Y-134873000D01*
X110173157Y-134873000D01*
X110145255Y-134732727D01*
X109993857Y-134506143D01*
X109767273Y-134354745D01*
X109567462Y-134315000D01*
X109500000Y-134301581D01*
X109432539Y-134315000D01*
X102567461Y-134315000D01*
X102500000Y-134301581D01*
X102432538Y-134315000D01*
X102232727Y-134354745D01*
X102006143Y-134506143D01*
X101854745Y-134732727D01*
X101826843Y-134873000D01*
X101185000Y-134873000D01*
X101185000Y-124135000D01*
X102626310Y-124135000D01*
X102785001Y-124069268D01*
X102785001Y-125778836D01*
X102474329Y-126089509D01*
X102305333Y-126159509D01*
X102084509Y-126380333D01*
X101965000Y-126668854D01*
X101965000Y-126981146D01*
X102084509Y-127269667D01*
X102305333Y-127490491D01*
X102593854Y-127610000D01*
X102906146Y-127610000D01*
X103194667Y-127490491D01*
X103415491Y-127269667D01*
X103485491Y-127100671D01*
X103488002Y-127098160D01*
X103555333Y-127165491D01*
X103843854Y-127285000D01*
X104156146Y-127285000D01*
X104444667Y-127165491D01*
X104535000Y-127075158D01*
X104535001Y-130999856D01*
X104465000Y-131168854D01*
X104465000Y-131481146D01*
X104584509Y-131769667D01*
X104805333Y-131990491D01*
X105093854Y-132110000D01*
X105406146Y-132110000D01*
X105694667Y-131990491D01*
X105915491Y-131769667D01*
X106035000Y-131481146D01*
X106035000Y-131168854D01*
X105965000Y-130999859D01*
X105965000Y-118320416D01*
X105979007Y-118249999D01*
X105958607Y-118147440D01*
X105923515Y-117971021D01*
X105874535Y-117897717D01*
X105850331Y-117861493D01*
X107035000Y-119046163D01*
X107035000Y-119046163D01*
G37*
X107035000Y-119046163D02*
X107035001Y-126499856D01*
X106965000Y-126668854D01*
X106965000Y-126981146D01*
X107084509Y-127269667D01*
X107305333Y-127490491D01*
X107593854Y-127610000D01*
X107906146Y-127610000D01*
X108194667Y-127490491D01*
X108415491Y-127269667D01*
X108535000Y-126981146D01*
X108535000Y-126668854D01*
X108465000Y-126499859D01*
X108465000Y-118820417D01*
X108479007Y-118750000D01*
X108462197Y-118665491D01*
X108423515Y-118471021D01*
X108374535Y-118397717D01*
X108350331Y-118361494D01*
X109535001Y-119546164D01*
X109535000Y-130999859D01*
X109465000Y-131168854D01*
X109465000Y-131481146D01*
X109584509Y-131769667D01*
X109805333Y-131990491D01*
X110093854Y-132110000D01*
X110406146Y-132110000D01*
X110694667Y-131990491D01*
X110815000Y-131870158D01*
X110815000Y-134873000D01*
X110173157Y-134873000D01*
X110145255Y-134732727D01*
X109993857Y-134506143D01*
X109767273Y-134354745D01*
X109567462Y-134315000D01*
X109500000Y-134301581D01*
X109432539Y-134315000D01*
X102567461Y-134315000D01*
X102500000Y-134301581D01*
X102432538Y-134315000D01*
X102232727Y-134354745D01*
X102006143Y-134506143D01*
X101854745Y-134732727D01*
X101826843Y-134873000D01*
X101185000Y-134873000D01*
X101185000Y-124135000D01*
X102626310Y-124135000D01*
X102785001Y-124069268D01*
X102785001Y-125778836D01*
X102474329Y-126089509D01*
X102305333Y-126159509D01*
X102084509Y-126380333D01*
X101965000Y-126668854D01*
X101965000Y-126981146D01*
X102084509Y-127269667D01*
X102305333Y-127490491D01*
X102593854Y-127610000D01*
X102906146Y-127610000D01*
X103194667Y-127490491D01*
X103415491Y-127269667D01*
X103485491Y-127100671D01*
X103488002Y-127098160D01*
X103555333Y-127165491D01*
X103843854Y-127285000D01*
X104156146Y-127285000D01*
X104444667Y-127165491D01*
X104535000Y-127075158D01*
X104535001Y-130999856D01*
X104465000Y-131168854D01*
X104465000Y-131481146D01*
X104584509Y-131769667D01*
X104805333Y-131990491D01*
X105093854Y-132110000D01*
X105406146Y-132110000D01*
X105694667Y-131990491D01*
X105915491Y-131769667D01*
X106035000Y-131481146D01*
X106035000Y-131168854D01*
X105965000Y-130999859D01*
X105965000Y-118320416D01*
X105979007Y-118249999D01*
X105958607Y-118147440D01*
X105923515Y-117971021D01*
X105874535Y-117897717D01*
X105850331Y-117861493D01*
X107035000Y-119046163D01*
G36*
X100827000Y-120873000D02*
X100847000Y-120873000D01*
X100847000Y-121127000D01*
X100827000Y-121127000D01*
X100827000Y-121976250D01*
X100850750Y-122000000D01*
X100827000Y-122023750D01*
X100827000Y-122873000D01*
X100847000Y-122873000D01*
X100847000Y-123127000D01*
X100827000Y-123127000D01*
X100827000Y-123147000D01*
X100573000Y-123147000D01*
X100573000Y-123127000D01*
X100553000Y-123127000D01*
X100553000Y-122873000D01*
X100573000Y-122873000D01*
X100573000Y-122023750D01*
X100549250Y-122000000D01*
X100573000Y-121976250D01*
X100573000Y-121127000D01*
X100553000Y-121127000D01*
X100553000Y-120873000D01*
X100573000Y-120873000D01*
X100573000Y-120853000D01*
X100827000Y-120853000D01*
X100827000Y-120873000D01*
X100827000Y-120873000D01*
G37*
X100827000Y-120873000D02*
X100847000Y-120873000D01*
X100847000Y-121127000D01*
X100827000Y-121127000D01*
X100827000Y-121976250D01*
X100850750Y-122000000D01*
X100827000Y-122023750D01*
X100827000Y-122873000D01*
X100847000Y-122873000D01*
X100847000Y-123127000D01*
X100827000Y-123127000D01*
X100827000Y-123147000D01*
X100573000Y-123147000D01*
X100573000Y-123127000D01*
X100553000Y-123127000D01*
X100553000Y-122873000D01*
X100573000Y-122873000D01*
X100573000Y-122023750D01*
X100549250Y-122000000D01*
X100573000Y-121976250D01*
X100573000Y-121127000D01*
X100553000Y-121127000D01*
X100553000Y-120873000D01*
X100573000Y-120873000D01*
X100573000Y-120853000D01*
X100827000Y-120853000D01*
X100827000Y-120873000D01*
G36*
X101815000Y-84932538D02*
X101801581Y-85000000D01*
X101854745Y-85267273D01*
X102006143Y-85493857D01*
X102232727Y-85645255D01*
X102500000Y-85698419D01*
X102567461Y-85685000D01*
X109432538Y-85685000D01*
X109500000Y-85698419D01*
X109567461Y-85685000D01*
X109567462Y-85685000D01*
X109767273Y-85645255D01*
X109993857Y-85493857D01*
X110145255Y-85267273D01*
X110198419Y-85000000D01*
X110185000Y-84932538D01*
X110185000Y-83127000D01*
X110815001Y-83127000D01*
X110815000Y-85067461D01*
X110815001Y-85067466D01*
X110815000Y-118808618D01*
X110805374Y-118794211D01*
X110765486Y-118734514D01*
X110705788Y-118694625D01*
X103147440Y-111136278D01*
X103147440Y-110500000D01*
X103116381Y-110343854D01*
X106965000Y-110343854D01*
X106965000Y-110656146D01*
X107035000Y-110825142D01*
X107035001Y-113708057D01*
X106965000Y-113877055D01*
X106965000Y-114189347D01*
X107084509Y-114477868D01*
X107305333Y-114698692D01*
X107593854Y-114818201D01*
X107906146Y-114818201D01*
X108194667Y-114698692D01*
X108415491Y-114477868D01*
X108535000Y-114189347D01*
X108535000Y-113877055D01*
X108465000Y-113708060D01*
X108465000Y-110825141D01*
X108535000Y-110656146D01*
X108535000Y-110343854D01*
X108415491Y-110055333D01*
X108194667Y-109834509D01*
X107906146Y-109715000D01*
X107593854Y-109715000D01*
X107305333Y-109834509D01*
X107084509Y-110055333D01*
X106965000Y-110343854D01*
X103116381Y-110343854D01*
X103098157Y-110252235D01*
X102957809Y-110042191D01*
X102894666Y-110000000D01*
X102957809Y-109957809D01*
X103098157Y-109747765D01*
X103147440Y-109500000D01*
X103147440Y-108500000D01*
X103116381Y-108343854D01*
X103215000Y-108343854D01*
X103215000Y-108656146D01*
X103334509Y-108944667D01*
X103555333Y-109165491D01*
X103843854Y-109285000D01*
X104156146Y-109285000D01*
X104444667Y-109165491D01*
X104665491Y-108944667D01*
X104785000Y-108656146D01*
X104785000Y-108343854D01*
X104715000Y-108174859D01*
X104715000Y-98500000D01*
X106949622Y-98500000D01*
X106965000Y-98577312D01*
X106965000Y-98656146D01*
X106995168Y-98728977D01*
X107010546Y-98806291D01*
X107054341Y-98871835D01*
X107084509Y-98944667D01*
X107305333Y-99165491D01*
X107305335Y-99165492D01*
X108465001Y-100325159D01*
X108465000Y-107343854D01*
X108465000Y-107656146D01*
X108495167Y-107728976D01*
X108510546Y-107806291D01*
X108554341Y-107871835D01*
X108584509Y-107944667D01*
X108640253Y-108000411D01*
X108684047Y-108065953D01*
X108749589Y-108109747D01*
X108805333Y-108165491D01*
X108878164Y-108195658D01*
X108943708Y-108239454D01*
X109021025Y-108254833D01*
X109093854Y-108285000D01*
X109172684Y-108285000D01*
X109250000Y-108300379D01*
X109327316Y-108285000D01*
X109406146Y-108285000D01*
X109478976Y-108254833D01*
X109556291Y-108239454D01*
X109621835Y-108195659D01*
X109694667Y-108165491D01*
X109750411Y-108109747D01*
X109815953Y-108065953D01*
X109859747Y-108000411D01*
X109915491Y-107944667D01*
X109945658Y-107871836D01*
X109989454Y-107806292D01*
X110004833Y-107728975D01*
X110035000Y-107656146D01*
X110035000Y-100077310D01*
X110050378Y-99999999D01*
X110035000Y-99922688D01*
X110035000Y-99922684D01*
X109989454Y-99693708D01*
X109944419Y-99626309D01*
X109859749Y-99499591D01*
X109859747Y-99499589D01*
X109815953Y-99434047D01*
X109750411Y-99390253D01*
X108415492Y-98055335D01*
X108415491Y-98055333D01*
X108194667Y-97834509D01*
X108121835Y-97804341D01*
X108056291Y-97760546D01*
X107978977Y-97745168D01*
X107906146Y-97715000D01*
X107827312Y-97715000D01*
X107750000Y-97699622D01*
X107672688Y-97715000D01*
X107593854Y-97715000D01*
X107521023Y-97745168D01*
X107443709Y-97760546D01*
X107378165Y-97804341D01*
X107305333Y-97834509D01*
X107249589Y-97890253D01*
X107184047Y-97934047D01*
X107140253Y-97999589D01*
X107084509Y-98055333D01*
X107054341Y-98128165D01*
X107010546Y-98193709D01*
X106995168Y-98271023D01*
X106965000Y-98343854D01*
X106965000Y-98422688D01*
X106949622Y-98500000D01*
X104715000Y-98500000D01*
X104715000Y-98256162D01*
X105705788Y-97265375D01*
X105765486Y-97225486D01*
X105923515Y-96988979D01*
X105965000Y-96780417D01*
X105979007Y-96710000D01*
X105966419Y-96646716D01*
X106035000Y-96481146D01*
X106035000Y-96168854D01*
X105915491Y-95880333D01*
X105694667Y-95659509D01*
X105406146Y-95540000D01*
X105093854Y-95540000D01*
X104805333Y-95659509D01*
X104584509Y-95880333D01*
X104465000Y-96168854D01*
X104465000Y-96481146D01*
X104465788Y-96483049D01*
X103544212Y-97404626D01*
X103484514Y-97444515D01*
X103326485Y-97681022D01*
X103289890Y-97865000D01*
X103270993Y-97960000D01*
X103285000Y-98030417D01*
X103285001Y-108174856D01*
X103215000Y-108343854D01*
X103116381Y-108343854D01*
X103098157Y-108252235D01*
X102957809Y-108042191D01*
X102894666Y-108000000D01*
X102957809Y-107957809D01*
X103098157Y-107747765D01*
X103147440Y-107500000D01*
X103147440Y-106500000D01*
X103098157Y-106252235D01*
X102957809Y-106042191D01*
X102894666Y-106000000D01*
X102957809Y-105957809D01*
X103098157Y-105747765D01*
X103147440Y-105500000D01*
X103147440Y-104500000D01*
X103098157Y-104252235D01*
X102957809Y-104042191D01*
X102894666Y-104000000D01*
X102957809Y-103957809D01*
X103098157Y-103747765D01*
X103147440Y-103500000D01*
X103147440Y-102500000D01*
X103098157Y-102252235D01*
X102957809Y-102042191D01*
X102894666Y-102000000D01*
X102957809Y-101957809D01*
X103098157Y-101747765D01*
X103147440Y-101500000D01*
X103147440Y-100500000D01*
X103098157Y-100252235D01*
X102957809Y-100042191D01*
X102896680Y-100001346D01*
X103038327Y-99859698D01*
X103135000Y-99626309D01*
X103135000Y-99285750D01*
X102976250Y-99127000D01*
X100827000Y-99127000D01*
X100827000Y-99147000D01*
X100573000Y-99147000D01*
X100573000Y-99127000D01*
X100553000Y-99127000D01*
X100553000Y-98873000D01*
X100573000Y-98873000D01*
X100573000Y-98023750D01*
X100549250Y-98000000D01*
X100573000Y-97976250D01*
X100573000Y-97127000D01*
X100827000Y-97127000D01*
X100827000Y-97976250D01*
X100850750Y-98000000D01*
X100827000Y-98023750D01*
X100827000Y-98873000D01*
X102976250Y-98873000D01*
X103135000Y-98714250D01*
X103135000Y-98373691D01*
X103038327Y-98140302D01*
X102898026Y-98000000D01*
X103038327Y-97859698D01*
X103135000Y-97626309D01*
X103135000Y-97285750D01*
X102976250Y-97127000D01*
X100827000Y-97127000D01*
X100573000Y-97127000D01*
X100553000Y-97127000D01*
X100553000Y-96873000D01*
X100573000Y-96873000D01*
X100573000Y-96853000D01*
X100827000Y-96853000D01*
X100827000Y-96873000D01*
X102976250Y-96873000D01*
X103135000Y-96714250D01*
X103135000Y-96373691D01*
X103038327Y-96140302D01*
X102859699Y-95961673D01*
X102626310Y-95865000D01*
X101185000Y-95865000D01*
X101185000Y-95193854D01*
X106965000Y-95193854D01*
X106965000Y-95506146D01*
X107084509Y-95794667D01*
X107305333Y-96015491D01*
X107593854Y-96135000D01*
X107906146Y-96135000D01*
X108194667Y-96015491D01*
X108215000Y-95995158D01*
X108215000Y-96156146D01*
X108334509Y-96444667D01*
X108555333Y-96665491D01*
X108843854Y-96785000D01*
X109156146Y-96785000D01*
X109444667Y-96665491D01*
X109665491Y-96444667D01*
X109785000Y-96156146D01*
X109785000Y-95843854D01*
X109715000Y-95674859D01*
X109715000Y-93325141D01*
X109785000Y-93156146D01*
X109785000Y-92843854D01*
X109665491Y-92555333D01*
X109444667Y-92334509D01*
X109156146Y-92215000D01*
X108843854Y-92215000D01*
X108555333Y-92334509D01*
X108334509Y-92555333D01*
X108215000Y-92843854D01*
X108215000Y-93156146D01*
X108285001Y-93325143D01*
X108285000Y-94774842D01*
X108194667Y-94684509D01*
X107906146Y-94565000D01*
X107593854Y-94565000D01*
X107305333Y-94684509D01*
X107084509Y-94905333D01*
X106965000Y-95193854D01*
X101185000Y-95193854D01*
X101185000Y-83127000D01*
X101815001Y-83127000D01*
X101815000Y-84932538D01*
X101815000Y-84932538D01*
G37*
X101815000Y-84932538D02*
X101801581Y-85000000D01*
X101854745Y-85267273D01*
X102006143Y-85493857D01*
X102232727Y-85645255D01*
X102500000Y-85698419D01*
X102567461Y-85685000D01*
X109432538Y-85685000D01*
X109500000Y-85698419D01*
X109567461Y-85685000D01*
X109567462Y-85685000D01*
X109767273Y-85645255D01*
X109993857Y-85493857D01*
X110145255Y-85267273D01*
X110198419Y-85000000D01*
X110185000Y-84932538D01*
X110185000Y-83127000D01*
X110815001Y-83127000D01*
X110815000Y-85067461D01*
X110815001Y-85067466D01*
X110815000Y-118808618D01*
X110805374Y-118794211D01*
X110765486Y-118734514D01*
X110705788Y-118694625D01*
X103147440Y-111136278D01*
X103147440Y-110500000D01*
X103116381Y-110343854D01*
X106965000Y-110343854D01*
X106965000Y-110656146D01*
X107035000Y-110825142D01*
X107035001Y-113708057D01*
X106965000Y-113877055D01*
X106965000Y-114189347D01*
X107084509Y-114477868D01*
X107305333Y-114698692D01*
X107593854Y-114818201D01*
X107906146Y-114818201D01*
X108194667Y-114698692D01*
X108415491Y-114477868D01*
X108535000Y-114189347D01*
X108535000Y-113877055D01*
X108465000Y-113708060D01*
X108465000Y-110825141D01*
X108535000Y-110656146D01*
X108535000Y-110343854D01*
X108415491Y-110055333D01*
X108194667Y-109834509D01*
X107906146Y-109715000D01*
X107593854Y-109715000D01*
X107305333Y-109834509D01*
X107084509Y-110055333D01*
X106965000Y-110343854D01*
X103116381Y-110343854D01*
X103098157Y-110252235D01*
X102957809Y-110042191D01*
X102894666Y-110000000D01*
X102957809Y-109957809D01*
X103098157Y-109747765D01*
X103147440Y-109500000D01*
X103147440Y-108500000D01*
X103116381Y-108343854D01*
X103215000Y-108343854D01*
X103215000Y-108656146D01*
X103334509Y-108944667D01*
X103555333Y-109165491D01*
X103843854Y-109285000D01*
X104156146Y-109285000D01*
X104444667Y-109165491D01*
X104665491Y-108944667D01*
X104785000Y-108656146D01*
X104785000Y-108343854D01*
X104715000Y-108174859D01*
X104715000Y-98500000D01*
X106949622Y-98500000D01*
X106965000Y-98577312D01*
X106965000Y-98656146D01*
X106995168Y-98728977D01*
X107010546Y-98806291D01*
X107054341Y-98871835D01*
X107084509Y-98944667D01*
X107305333Y-99165491D01*
X107305335Y-99165492D01*
X108465001Y-100325159D01*
X108465000Y-107343854D01*
X108465000Y-107656146D01*
X108495167Y-107728976D01*
X108510546Y-107806291D01*
X108554341Y-107871835D01*
X108584509Y-107944667D01*
X108640253Y-108000411D01*
X108684047Y-108065953D01*
X108749589Y-108109747D01*
X108805333Y-108165491D01*
X108878164Y-108195658D01*
X108943708Y-108239454D01*
X109021025Y-108254833D01*
X109093854Y-108285000D01*
X109172684Y-108285000D01*
X109250000Y-108300379D01*
X109327316Y-108285000D01*
X109406146Y-108285000D01*
X109478976Y-108254833D01*
X109556291Y-108239454D01*
X109621835Y-108195659D01*
X109694667Y-108165491D01*
X109750411Y-108109747D01*
X109815953Y-108065953D01*
X109859747Y-108000411D01*
X109915491Y-107944667D01*
X109945658Y-107871836D01*
X109989454Y-107806292D01*
X110004833Y-107728975D01*
X110035000Y-107656146D01*
X110035000Y-100077310D01*
X110050378Y-99999999D01*
X110035000Y-99922688D01*
X110035000Y-99922684D01*
X109989454Y-99693708D01*
X109944419Y-99626309D01*
X109859749Y-99499591D01*
X109859747Y-99499589D01*
X109815953Y-99434047D01*
X109750411Y-99390253D01*
X108415492Y-98055335D01*
X108415491Y-98055333D01*
X108194667Y-97834509D01*
X108121835Y-97804341D01*
X108056291Y-97760546D01*
X107978977Y-97745168D01*
X107906146Y-97715000D01*
X107827312Y-97715000D01*
X107750000Y-97699622D01*
X107672688Y-97715000D01*
X107593854Y-97715000D01*
X107521023Y-97745168D01*
X107443709Y-97760546D01*
X107378165Y-97804341D01*
X107305333Y-97834509D01*
X107249589Y-97890253D01*
X107184047Y-97934047D01*
X107140253Y-97999589D01*
X107084509Y-98055333D01*
X107054341Y-98128165D01*
X107010546Y-98193709D01*
X106995168Y-98271023D01*
X106965000Y-98343854D01*
X106965000Y-98422688D01*
X106949622Y-98500000D01*
X104715000Y-98500000D01*
X104715000Y-98256162D01*
X105705788Y-97265375D01*
X105765486Y-97225486D01*
X105923515Y-96988979D01*
X105965000Y-96780417D01*
X105979007Y-96710000D01*
X105966419Y-96646716D01*
X106035000Y-96481146D01*
X106035000Y-96168854D01*
X105915491Y-95880333D01*
X105694667Y-95659509D01*
X105406146Y-95540000D01*
X105093854Y-95540000D01*
X104805333Y-95659509D01*
X104584509Y-95880333D01*
X104465000Y-96168854D01*
X104465000Y-96481146D01*
X104465788Y-96483049D01*
X103544212Y-97404626D01*
X103484514Y-97444515D01*
X103326485Y-97681022D01*
X103289890Y-97865000D01*
X103270993Y-97960000D01*
X103285000Y-98030417D01*
X103285001Y-108174856D01*
X103215000Y-108343854D01*
X103116381Y-108343854D01*
X103098157Y-108252235D01*
X102957809Y-108042191D01*
X102894666Y-108000000D01*
X102957809Y-107957809D01*
X103098157Y-107747765D01*
X103147440Y-107500000D01*
X103147440Y-106500000D01*
X103098157Y-106252235D01*
X102957809Y-106042191D01*
X102894666Y-106000000D01*
X102957809Y-105957809D01*
X103098157Y-105747765D01*
X103147440Y-105500000D01*
X103147440Y-104500000D01*
X103098157Y-104252235D01*
X102957809Y-104042191D01*
X102894666Y-104000000D01*
X102957809Y-103957809D01*
X103098157Y-103747765D01*
X103147440Y-103500000D01*
X103147440Y-102500000D01*
X103098157Y-102252235D01*
X102957809Y-102042191D01*
X102894666Y-102000000D01*
X102957809Y-101957809D01*
X103098157Y-101747765D01*
X103147440Y-101500000D01*
X103147440Y-100500000D01*
X103098157Y-100252235D01*
X102957809Y-100042191D01*
X102896680Y-100001346D01*
X103038327Y-99859698D01*
X103135000Y-99626309D01*
X103135000Y-99285750D01*
X102976250Y-99127000D01*
X100827000Y-99127000D01*
X100827000Y-99147000D01*
X100573000Y-99147000D01*
X100573000Y-99127000D01*
X100553000Y-99127000D01*
X100553000Y-98873000D01*
X100573000Y-98873000D01*
X100573000Y-98023750D01*
X100549250Y-98000000D01*
X100573000Y-97976250D01*
X100573000Y-97127000D01*
X100827000Y-97127000D01*
X100827000Y-97976250D01*
X100850750Y-98000000D01*
X100827000Y-98023750D01*
X100827000Y-98873000D01*
X102976250Y-98873000D01*
X103135000Y-98714250D01*
X103135000Y-98373691D01*
X103038327Y-98140302D01*
X102898026Y-98000000D01*
X103038327Y-97859698D01*
X103135000Y-97626309D01*
X103135000Y-97285750D01*
X102976250Y-97127000D01*
X100827000Y-97127000D01*
X100573000Y-97127000D01*
X100553000Y-97127000D01*
X100553000Y-96873000D01*
X100573000Y-96873000D01*
X100573000Y-96853000D01*
X100827000Y-96853000D01*
X100827000Y-96873000D01*
X102976250Y-96873000D01*
X103135000Y-96714250D01*
X103135000Y-96373691D01*
X103038327Y-96140302D01*
X102859699Y-95961673D01*
X102626310Y-95865000D01*
X101185000Y-95865000D01*
X101185000Y-95193854D01*
X106965000Y-95193854D01*
X106965000Y-95506146D01*
X107084509Y-95794667D01*
X107305333Y-96015491D01*
X107593854Y-96135000D01*
X107906146Y-96135000D01*
X108194667Y-96015491D01*
X108215000Y-95995158D01*
X108215000Y-96156146D01*
X108334509Y-96444667D01*
X108555333Y-96665491D01*
X108843854Y-96785000D01*
X109156146Y-96785000D01*
X109444667Y-96665491D01*
X109665491Y-96444667D01*
X109785000Y-96156146D01*
X109785000Y-95843854D01*
X109715000Y-95674859D01*
X109715000Y-93325141D01*
X109785000Y-93156146D01*
X109785000Y-92843854D01*
X109665491Y-92555333D01*
X109444667Y-92334509D01*
X109156146Y-92215000D01*
X108843854Y-92215000D01*
X108555333Y-92334509D01*
X108334509Y-92555333D01*
X108215000Y-92843854D01*
X108215000Y-93156146D01*
X108285001Y-93325143D01*
X108285000Y-94774842D01*
X108194667Y-94684509D01*
X107906146Y-94565000D01*
X107593854Y-94565000D01*
X107305333Y-94684509D01*
X107084509Y-94905333D01*
X106965000Y-95193854D01*
X101185000Y-95193854D01*
X101185000Y-83127000D01*
X101815001Y-83127000D01*
X101815000Y-84932538D01*
G04 #@! TD*
M02*
