M48
;DRILL file {KiCad (5.0.0)} date 11/23/18 13:40:00
;FORMAT={-:-/ absolute / metric / decimal}
FMAT,2
METRIC,TZ
T1C0.152
T2C0.200
T3C0.300
T4C1.000
%
G90
G05
M71
T1
X89.Y-122.
X103.Y-122.
T2
X58.7Y-92.
X58.7Y-94.
X58.7Y-96.
X58.7Y-114.
X58.7Y-116.
X58.7Y-118.
X60.75Y-126.825
X62.Y-103.5
X62.Y-113.
X62.Y-126.5
X62.5Y-78.65
X62.5Y-101.15
X62.5Y-124.15
X63.25Y-86.325
X63.25Y-131.325
X64.5Y-115.
X64.5Y-124.15
X65.Y-83.65
X65.Y-106.15
X65.Y-109.
X65.Y-128.65
X65.75Y-85.35
X65.75Y-88.5
X65.75Y-105.5
X65.75Y-109.033
X65.75Y-126.825
X66.25Y-56.25
X67.Y-83.
X67.Y-86.
X67.25Y-102.5
X68.25Y-131.325
X71.25Y-53.5
X71.775Y-59.775
X72.7Y-92.
X72.7Y-94.
X72.7Y-96.
X72.7Y-114.
X72.7Y-116.
X72.7Y-118.
X74.75Y-126.825
X75.05Y-52.5
X76.Y-103.5
X76.Y-113.
X76.Y-126.5
X76.5Y-78.65
X76.5Y-101.15
X76.5Y-124.15
X77.25Y-86.325
X77.25Y-131.325
X78.5Y-115.
X78.5Y-124.15
X79.Y-83.65
X79.Y-106.15
X79.Y-109.
X79.Y-128.65
X79.75Y-85.35
X79.75Y-88.5
X79.75Y-105.5
X79.75Y-109.033
X79.75Y-126.825
X81.Y-83.
X81.Y-86.
X81.25Y-102.5
X82.25Y-131.325
X86.7Y-97.
X86.7Y-99.
X86.7Y-101.
X86.7Y-119.
X86.7Y-121.
X86.7Y-123.
X88.75Y-126.825
X90.Y-108.5
X90.Y-118.
X90.Y-126.5
X90.5Y-88.65
X90.5Y-106.15
X90.5Y-124.15
X91.25Y-96.325
X91.25Y-131.325
X92.5Y-120.
X92.5Y-124.15
X93.Y-93.65
X93.Y-111.15
X93.Y-114.
X93.Y-128.65
X93.75Y-95.35
X93.75Y-98.5
X93.75Y-110.5
X93.75Y-114.033
X93.75Y-126.825
X95.Y-93.
X95.Y-96.
X95.25Y-107.5
X96.25Y-131.325
X100.7Y-97.
X100.7Y-99.
X100.7Y-101.
X100.7Y-119.
X100.7Y-121.
X100.7Y-123.
X102.75Y-126.825
X104.Y-108.5
X104.Y-118.
X104.Y-126.5
X104.5Y-88.65
X104.5Y-106.15
X104.5Y-124.15
X105.25Y-96.325
X105.25Y-131.325
X106.5Y-120.
X106.5Y-124.15
X107.Y-93.65
X107.Y-111.15
X107.Y-114.
X107.Y-128.65
X107.75Y-95.35
X107.75Y-98.5
X107.75Y-110.5
X107.75Y-114.033
X107.75Y-126.825
X109.Y-93.
X109.Y-96.
X109.25Y-107.5
X110.25Y-131.325
T3
X69.Y-56.
X69.Y-57.
X69.75Y-56.5
X70.5Y-56.
X70.5Y-57.
T4
X61.Y-57.25
X61.Y-59.75
X78.Y-57.5
X78.Y-60.
T0
M30
