G04 #@! TF.GenerationSoftware,KiCad,Pcbnew,(5.0.0)*
G04 #@! TF.CreationDate,2018-11-23T13:39:21+09:00*
G04 #@! TF.ProjectId,LED_hachune_2,4C45445F68616368756E655F322E6B69,rev?*
G04 #@! TF.SameCoordinates,Original*
G04 #@! TF.FileFunction,Legend,Top*
G04 #@! TF.FilePolarity,Positive*
%FSLAX46Y46*%
G04 Gerber Fmt 4.6, Leading zero omitted, Abs format (unit mm)*
G04 Created by KiCad (PCBNEW (5.0.0)) date 11/23/18 13:39:21*
%MOMM*%
%LPD*%
G01*
G04 APERTURE LIST*
%ADD10C,0.300000*%
%ADD11C,0.100000*%
%ADD12C,0.120000*%
%ADD13C,0.150000*%
G04 APERTURE END LIST*
D10*
X87678571Y-140321428D02*
X87750000Y-140250000D01*
X87892857Y-140178571D01*
X88250000Y-140178571D01*
X88392857Y-140250000D01*
X88464285Y-140321428D01*
X88535714Y-140464285D01*
X88535714Y-140607142D01*
X88464285Y-140821428D01*
X87607142Y-141678571D01*
X88535714Y-141678571D01*
X89464285Y-140178571D02*
X89607142Y-140178571D01*
X89750000Y-140250000D01*
X89821428Y-140321428D01*
X89892857Y-140464285D01*
X89964285Y-140750000D01*
X89964285Y-141107142D01*
X89892857Y-141392857D01*
X89821428Y-141535714D01*
X89750000Y-141607142D01*
X89607142Y-141678571D01*
X89464285Y-141678571D01*
X89321428Y-141607142D01*
X89250000Y-141535714D01*
X89178571Y-141392857D01*
X89107142Y-141107142D01*
X89107142Y-140750000D01*
X89178571Y-140464285D01*
X89250000Y-140321428D01*
X89321428Y-140250000D01*
X89464285Y-140178571D01*
X91392857Y-141678571D02*
X90535714Y-141678571D01*
X90964285Y-141678571D02*
X90964285Y-140178571D01*
X90821428Y-140392857D01*
X90678571Y-140535714D01*
X90535714Y-140607142D01*
X92250000Y-140821428D02*
X92107142Y-140750000D01*
X92035714Y-140678571D01*
X91964285Y-140535714D01*
X91964285Y-140464285D01*
X92035714Y-140321428D01*
X92107142Y-140250000D01*
X92250000Y-140178571D01*
X92535714Y-140178571D01*
X92678571Y-140250000D01*
X92750000Y-140321428D01*
X92821428Y-140464285D01*
X92821428Y-140535714D01*
X92750000Y-140678571D01*
X92678571Y-140750000D01*
X92535714Y-140821428D01*
X92250000Y-140821428D01*
X92107142Y-140892857D01*
X92035714Y-140964285D01*
X91964285Y-141107142D01*
X91964285Y-141392857D01*
X92035714Y-141535714D01*
X92107142Y-141607142D01*
X92250000Y-141678571D01*
X92535714Y-141678571D01*
X92678571Y-141607142D01*
X92750000Y-141535714D01*
X92821428Y-141392857D01*
X92821428Y-141107142D01*
X92750000Y-140964285D01*
X92678571Y-140892857D01*
X92535714Y-140821428D01*
X94535714Y-140107142D02*
X93250000Y-142035714D01*
X95821428Y-141678571D02*
X94964285Y-141678571D01*
X95392857Y-141678571D02*
X95392857Y-140178571D01*
X95250000Y-140392857D01*
X95107142Y-140535714D01*
X94964285Y-140607142D01*
X97250000Y-141678571D02*
X96392857Y-141678571D01*
X96821428Y-141678571D02*
X96821428Y-140178571D01*
X96678571Y-140392857D01*
X96535714Y-140535714D01*
X96392857Y-140607142D01*
X98964285Y-140107142D02*
X97678571Y-142035714D01*
X99392857Y-140321428D02*
X99464285Y-140250000D01*
X99607142Y-140178571D01*
X99964285Y-140178571D01*
X100107142Y-140250000D01*
X100178571Y-140321428D01*
X100250000Y-140464285D01*
X100250000Y-140607142D01*
X100178571Y-140821428D01*
X99321428Y-141678571D01*
X100250000Y-141678571D01*
X100750000Y-140178571D02*
X101678571Y-140178571D01*
X101178571Y-140750000D01*
X101392857Y-140750000D01*
X101535714Y-140821428D01*
X101607142Y-140892857D01*
X101678571Y-141035714D01*
X101678571Y-141392857D01*
X101607142Y-141535714D01*
X101535714Y-141607142D01*
X101392857Y-141678571D01*
X100964285Y-141678571D01*
X100821428Y-141607142D01*
X100750000Y-141535714D01*
X104392857Y-140964285D02*
X104321428Y-140892857D01*
X104178571Y-140821428D01*
X104035714Y-140821428D01*
X103892857Y-140892857D01*
X103821428Y-140964285D01*
X103750000Y-141107142D01*
X103750000Y-141250000D01*
X103821428Y-141392857D01*
X103892857Y-141464285D01*
X104035714Y-141535714D01*
X104178571Y-141535714D01*
X104321428Y-141464285D01*
X104392857Y-141392857D01*
X104392857Y-140821428D02*
X104392857Y-141392857D01*
X104464285Y-141464285D01*
X104535714Y-141464285D01*
X104678571Y-141392857D01*
X104750000Y-141250000D01*
X104750000Y-140892857D01*
X104607142Y-140678571D01*
X104392857Y-140535714D01*
X104107142Y-140464285D01*
X103821428Y-140535714D01*
X103607142Y-140678571D01*
X103464285Y-140892857D01*
X103392857Y-141178571D01*
X103464285Y-141464285D01*
X103607142Y-141678571D01*
X103821428Y-141821428D01*
X104107142Y-141892857D01*
X104392857Y-141821428D01*
X104607142Y-141678571D01*
X105392857Y-140678571D02*
X105392857Y-141678571D01*
X105392857Y-140821428D02*
X105464285Y-140750000D01*
X105607142Y-140678571D01*
X105821428Y-140678571D01*
X105964285Y-140750000D01*
X106035714Y-140892857D01*
X106035714Y-141678571D01*
X106392857Y-141821428D02*
X107535714Y-141821428D01*
X107750000Y-140678571D02*
X108107142Y-141678571D01*
X108464285Y-140678571D02*
X108107142Y-141678571D01*
X107964285Y-142035714D01*
X107892857Y-142107142D01*
X107750000Y-142178571D01*
X109250000Y-141678571D02*
X109107142Y-141607142D01*
X109035714Y-141535714D01*
X108964285Y-141392857D01*
X108964285Y-140964285D01*
X109035714Y-140821428D01*
X109107142Y-140750000D01*
X109250000Y-140678571D01*
X109464285Y-140678571D01*
X109607142Y-140750000D01*
X109678571Y-140821428D01*
X109750000Y-140964285D01*
X109750000Y-141392857D01*
X109678571Y-141535714D01*
X109607142Y-141607142D01*
X109464285Y-141678571D01*
X109250000Y-141678571D01*
X110321428Y-141607142D02*
X110464285Y-141678571D01*
X110750000Y-141678571D01*
X110892857Y-141607142D01*
X110964285Y-141464285D01*
X110964285Y-141392857D01*
X110892857Y-141250000D01*
X110750000Y-141178571D01*
X110535714Y-141178571D01*
X110392857Y-141107142D01*
X110321428Y-140964285D01*
X110321428Y-140892857D01*
X110392857Y-140750000D01*
X110535714Y-140678571D01*
X110750000Y-140678571D01*
X110892857Y-140750000D01*
X111607142Y-141678571D02*
X111607142Y-140678571D01*
X111607142Y-140178571D02*
X111535714Y-140250000D01*
X111607142Y-140321428D01*
X111678571Y-140250000D01*
X111607142Y-140178571D01*
X111607142Y-140321428D01*
X112321428Y-141678571D02*
X112321428Y-140178571D01*
X112964285Y-141678571D02*
X112964285Y-140892857D01*
X112892857Y-140750000D01*
X112750000Y-140678571D01*
X112535714Y-140678571D01*
X112392857Y-140750000D01*
X112321428Y-140821428D01*
X113678571Y-141678571D02*
X113678571Y-140678571D01*
X113678571Y-140178571D02*
X113607142Y-140250000D01*
X113678571Y-140321428D01*
X113750000Y-140250000D01*
X113678571Y-140178571D01*
X113678571Y-140321428D01*
X114321428Y-141607142D02*
X114464285Y-141678571D01*
X114750000Y-141678571D01*
X114892857Y-141607142D01*
X114964285Y-141464285D01*
X114964285Y-141392857D01*
X114892857Y-141250000D01*
X114750000Y-141178571D01*
X114535714Y-141178571D01*
X114392857Y-141107142D01*
X114321428Y-140964285D01*
X114321428Y-140892857D01*
X114392857Y-140750000D01*
X114535714Y-140678571D01*
X114750000Y-140678571D01*
X114892857Y-140750000D01*
X116250000Y-141678571D02*
X116250000Y-140892857D01*
X116178571Y-140750000D01*
X116035714Y-140678571D01*
X115750000Y-140678571D01*
X115607142Y-140750000D01*
X116250000Y-141607142D02*
X116107142Y-141678571D01*
X115750000Y-141678571D01*
X115607142Y-141607142D01*
X115535714Y-141464285D01*
X115535714Y-141321428D01*
X115607142Y-141178571D01*
X115750000Y-141107142D01*
X116107142Y-141107142D01*
X116250000Y-141035714D01*
X57500000Y-63178571D02*
X57785714Y-63178571D01*
X57928571Y-63250000D01*
X58071428Y-63392857D01*
X58142857Y-63678571D01*
X58142857Y-64178571D01*
X58071428Y-64464285D01*
X57928571Y-64607142D01*
X57785714Y-64678571D01*
X57500000Y-64678571D01*
X57357142Y-64607142D01*
X57214285Y-64464285D01*
X57142857Y-64178571D01*
X57142857Y-63678571D01*
X57214285Y-63392857D01*
X57357142Y-63250000D01*
X57500000Y-63178571D01*
X58785714Y-63178571D02*
X58785714Y-64392857D01*
X58857142Y-64535714D01*
X58928571Y-64607142D01*
X59071428Y-64678571D01*
X59357142Y-64678571D01*
X59500000Y-64607142D01*
X59571428Y-64535714D01*
X59642857Y-64392857D01*
X59642857Y-63178571D01*
X60142857Y-63178571D02*
X61000000Y-63178571D01*
X60571428Y-64678571D02*
X60571428Y-63178571D01*
X79214285Y-64678571D02*
X79214285Y-63178571D01*
X79928571Y-64678571D02*
X79928571Y-63178571D01*
X80785714Y-64678571D01*
X80785714Y-63178571D01*
D11*
G04 #@! TO.C,D37*
X102500000Y-123500000D02*
X102500000Y-127500000D01*
X100500000Y-123500000D02*
X102500000Y-123500000D01*
X100500000Y-127500000D02*
X100500000Y-123500000D01*
X102500000Y-127500000D02*
X100500000Y-127500000D01*
G04 #@! TO.C,D38*
X102500000Y-109500000D02*
X100500000Y-109500000D01*
X100500000Y-109500000D02*
X100500000Y-105500000D01*
X100500000Y-105500000D02*
X102500000Y-105500000D01*
X102500000Y-105500000D02*
X102500000Y-109500000D01*
G04 #@! TO.C,D39*
X102500000Y-88000000D02*
X102500000Y-92000000D01*
X100500000Y-88000000D02*
X102500000Y-88000000D01*
X100500000Y-92000000D02*
X100500000Y-88000000D01*
X102500000Y-92000000D02*
X100500000Y-92000000D01*
G04 #@! TO.C,D40*
X105000000Y-132000000D02*
X103000000Y-132000000D01*
X103000000Y-132000000D02*
X103000000Y-128000000D01*
X103000000Y-128000000D02*
X105000000Y-128000000D01*
X105000000Y-128000000D02*
X105000000Y-132000000D01*
G04 #@! TO.C,D41*
X105000000Y-110500000D02*
X105000000Y-114500000D01*
X103000000Y-110500000D02*
X105000000Y-110500000D01*
X103000000Y-114500000D02*
X103000000Y-110500000D01*
X105000000Y-114500000D02*
X103000000Y-114500000D01*
G04 #@! TO.C,D42*
X105000000Y-97000000D02*
X103000000Y-97000000D01*
X103000000Y-97000000D02*
X103000000Y-93000000D01*
X103000000Y-93000000D02*
X105000000Y-93000000D01*
X105000000Y-93000000D02*
X105000000Y-97000000D01*
G04 #@! TO.C,D43*
X107500000Y-127500000D02*
X105500000Y-127500000D01*
X105500000Y-127500000D02*
X105500000Y-123500000D01*
X105500000Y-123500000D02*
X107500000Y-123500000D01*
X107500000Y-123500000D02*
X107500000Y-127500000D01*
G04 #@! TO.C,D44*
X107500000Y-105500000D02*
X107500000Y-109500000D01*
X105500000Y-105500000D02*
X107500000Y-105500000D01*
X105500000Y-109500000D02*
X105500000Y-105500000D01*
X107500000Y-109500000D02*
X105500000Y-109500000D01*
G04 #@! TO.C,D45*
X107500000Y-92000000D02*
X105500000Y-92000000D01*
X105500000Y-92000000D02*
X105500000Y-88000000D01*
X105500000Y-88000000D02*
X107500000Y-88000000D01*
X107500000Y-88000000D02*
X107500000Y-92000000D01*
G04 #@! TO.C,D46*
X110000000Y-128000000D02*
X110000000Y-132000000D01*
X108000000Y-128000000D02*
X110000000Y-128000000D01*
X108000000Y-132000000D02*
X108000000Y-128000000D01*
X110000000Y-132000000D02*
X108000000Y-132000000D01*
G04 #@! TO.C,D47*
X110000000Y-114500000D02*
X108000000Y-114500000D01*
X108000000Y-114500000D02*
X108000000Y-110500000D01*
X108000000Y-110500000D02*
X110000000Y-110500000D01*
X110000000Y-110500000D02*
X110000000Y-114500000D01*
G04 #@! TO.C,D48*
X110000000Y-93000000D02*
X110000000Y-97000000D01*
X108000000Y-93000000D02*
X110000000Y-93000000D01*
X108000000Y-97000000D02*
X108000000Y-93000000D01*
X110000000Y-97000000D02*
X108000000Y-97000000D01*
G04 #@! TO.C,D36*
X96000000Y-97000000D02*
X94000000Y-97000000D01*
X94000000Y-97000000D02*
X94000000Y-93000000D01*
X94000000Y-93000000D02*
X96000000Y-93000000D01*
X96000000Y-93000000D02*
X96000000Y-97000000D01*
G04 #@! TO.C,D35*
X96000000Y-110500000D02*
X96000000Y-114500000D01*
X94000000Y-110500000D02*
X96000000Y-110500000D01*
X94000000Y-114500000D02*
X94000000Y-110500000D01*
X96000000Y-114500000D02*
X94000000Y-114500000D01*
G04 #@! TO.C,D34*
X96000000Y-132000000D02*
X94000000Y-132000000D01*
X94000000Y-132000000D02*
X94000000Y-128000000D01*
X94000000Y-128000000D02*
X96000000Y-128000000D01*
X96000000Y-128000000D02*
X96000000Y-132000000D01*
G04 #@! TO.C,D33*
X93500000Y-88000000D02*
X93500000Y-92000000D01*
X91500000Y-88000000D02*
X93500000Y-88000000D01*
X91500000Y-92000000D02*
X91500000Y-88000000D01*
X93500000Y-92000000D02*
X91500000Y-92000000D01*
G04 #@! TO.C,D32*
X93500000Y-109500000D02*
X91500000Y-109500000D01*
X91500000Y-109500000D02*
X91500000Y-105500000D01*
X91500000Y-105500000D02*
X93500000Y-105500000D01*
X93500000Y-105500000D02*
X93500000Y-109500000D01*
G04 #@! TO.C,D31*
X93500000Y-123500000D02*
X93500000Y-127500000D01*
X91500000Y-123500000D02*
X93500000Y-123500000D01*
X91500000Y-127500000D02*
X91500000Y-123500000D01*
X93500000Y-127500000D02*
X91500000Y-127500000D01*
G04 #@! TO.C,D30*
X91000000Y-93000000D02*
X91000000Y-97000000D01*
X89000000Y-93000000D02*
X91000000Y-93000000D01*
X89000000Y-97000000D02*
X89000000Y-93000000D01*
X91000000Y-97000000D02*
X89000000Y-97000000D01*
G04 #@! TO.C,D29*
X91000000Y-114500000D02*
X89000000Y-114500000D01*
X89000000Y-114500000D02*
X89000000Y-110500000D01*
X89000000Y-110500000D02*
X91000000Y-110500000D01*
X91000000Y-110500000D02*
X91000000Y-114500000D01*
G04 #@! TO.C,D28*
X91000000Y-128000000D02*
X91000000Y-132000000D01*
X89000000Y-128000000D02*
X91000000Y-128000000D01*
X89000000Y-132000000D02*
X89000000Y-128000000D01*
X91000000Y-132000000D02*
X89000000Y-132000000D01*
G04 #@! TO.C,D27*
X88500000Y-92000000D02*
X86500000Y-92000000D01*
X86500000Y-92000000D02*
X86500000Y-88000000D01*
X86500000Y-88000000D02*
X88500000Y-88000000D01*
X88500000Y-88000000D02*
X88500000Y-92000000D01*
G04 #@! TO.C,D26*
X88500000Y-105500000D02*
X88500000Y-109500000D01*
X86500000Y-105500000D02*
X88500000Y-105500000D01*
X86500000Y-109500000D02*
X86500000Y-105500000D01*
X88500000Y-109500000D02*
X86500000Y-109500000D01*
G04 #@! TO.C,D25*
X88500000Y-127500000D02*
X86500000Y-127500000D01*
X86500000Y-127500000D02*
X86500000Y-123500000D01*
X86500000Y-123500000D02*
X88500000Y-123500000D01*
X88500000Y-123500000D02*
X88500000Y-127500000D01*
G04 #@! TO.C,D24*
X82000000Y-87000000D02*
X80000000Y-87000000D01*
X80000000Y-87000000D02*
X80000000Y-83000000D01*
X80000000Y-83000000D02*
X82000000Y-83000000D01*
X82000000Y-83000000D02*
X82000000Y-87000000D01*
G04 #@! TO.C,D23*
X82000000Y-105500000D02*
X82000000Y-109500000D01*
X80000000Y-105500000D02*
X82000000Y-105500000D01*
X80000000Y-109500000D02*
X80000000Y-105500000D01*
X82000000Y-109500000D02*
X80000000Y-109500000D01*
G04 #@! TO.C,D22*
X82000000Y-132000000D02*
X80000000Y-132000000D01*
X80000000Y-132000000D02*
X80000000Y-128000000D01*
X80000000Y-128000000D02*
X82000000Y-128000000D01*
X82000000Y-128000000D02*
X82000000Y-132000000D01*
G04 #@! TO.C,D21*
X79500000Y-78000000D02*
X79500000Y-82000000D01*
X77500000Y-78000000D02*
X79500000Y-78000000D01*
X77500000Y-82000000D02*
X77500000Y-78000000D01*
X79500000Y-82000000D02*
X77500000Y-82000000D01*
G04 #@! TO.C,D20*
X79500000Y-104500000D02*
X77500000Y-104500000D01*
X77500000Y-104500000D02*
X77500000Y-100500000D01*
X77500000Y-100500000D02*
X79500000Y-100500000D01*
X79500000Y-100500000D02*
X79500000Y-104500000D01*
G04 #@! TO.C,D19*
X79500000Y-123500000D02*
X79500000Y-127500000D01*
X77500000Y-123500000D02*
X79500000Y-123500000D01*
X77500000Y-127500000D02*
X77500000Y-123500000D01*
X79500000Y-127500000D02*
X77500000Y-127500000D01*
G04 #@! TO.C,D18*
X77000000Y-83000000D02*
X77000000Y-87000000D01*
X75000000Y-83000000D02*
X77000000Y-83000000D01*
X75000000Y-87000000D02*
X75000000Y-83000000D01*
X77000000Y-87000000D02*
X75000000Y-87000000D01*
G04 #@! TO.C,D17*
X77000000Y-109500000D02*
X75000000Y-109500000D01*
X75000000Y-109500000D02*
X75000000Y-105500000D01*
X75000000Y-105500000D02*
X77000000Y-105500000D01*
X77000000Y-105500000D02*
X77000000Y-109500000D01*
G04 #@! TO.C,D16*
X77000000Y-128000000D02*
X77000000Y-132000000D01*
X75000000Y-128000000D02*
X77000000Y-128000000D01*
X75000000Y-132000000D02*
X75000000Y-128000000D01*
X77000000Y-132000000D02*
X75000000Y-132000000D01*
G04 #@! TO.C,D15*
X74500000Y-82000000D02*
X72500000Y-82000000D01*
X72500000Y-82000000D02*
X72500000Y-78000000D01*
X72500000Y-78000000D02*
X74500000Y-78000000D01*
X74500000Y-78000000D02*
X74500000Y-82000000D01*
G04 #@! TO.C,D14*
X74500000Y-100500000D02*
X74500000Y-104500000D01*
X72500000Y-100500000D02*
X74500000Y-100500000D01*
X72500000Y-104500000D02*
X72500000Y-100500000D01*
X74500000Y-104500000D02*
X72500000Y-104500000D01*
G04 #@! TO.C,D13*
X74500000Y-127500000D02*
X72500000Y-127500000D01*
X72500000Y-127500000D02*
X72500000Y-123500000D01*
X72500000Y-123500000D02*
X74500000Y-123500000D01*
X74500000Y-123500000D02*
X74500000Y-127500000D01*
D12*
G04 #@! TO.C,C7*
X62990000Y-58671267D02*
X62990000Y-58328733D01*
X64010000Y-58671267D02*
X64010000Y-58328733D01*
G04 #@! TO.C,C6*
X74990000Y-58578733D02*
X74990000Y-58921267D01*
X76010000Y-58578733D02*
X76010000Y-58921267D01*
G04 #@! TO.C,J12*
X78590000Y-56110000D02*
X76390000Y-56110000D01*
X76390000Y-56110000D02*
X76390000Y-54890000D01*
X76390000Y-54890000D02*
X84810000Y-54890000D01*
X84810000Y-54890000D02*
X84810000Y-62610000D01*
X84810000Y-62610000D02*
X76390000Y-62610000D01*
X76390000Y-62610000D02*
X76390000Y-61390000D01*
X76390000Y-61390000D02*
X78590000Y-61390000D01*
X83590000Y-54890000D02*
X83590000Y-56110000D01*
X83590000Y-56110000D02*
X78590000Y-56110000D01*
X78590000Y-56110000D02*
X78590000Y-54890000D01*
X83590000Y-62610000D02*
X83590000Y-61390000D01*
X83590000Y-61390000D02*
X78590000Y-61390000D01*
X78590000Y-61390000D02*
X78590000Y-62610000D01*
X79590000Y-56110000D02*
X79590000Y-61390000D01*
X79590000Y-57500000D02*
X79590000Y-57180000D01*
X79590000Y-57180000D02*
X83010000Y-57180000D01*
X83010000Y-57180000D02*
X83090000Y-57500000D01*
X83090000Y-57500000D02*
X83010000Y-57820000D01*
X83010000Y-57820000D02*
X79590000Y-57820000D01*
X79590000Y-57820000D02*
X79590000Y-57500000D01*
X78590000Y-58670000D02*
X78590000Y-58830000D01*
X79590000Y-60000000D02*
X79590000Y-59680000D01*
X79590000Y-59680000D02*
X83010000Y-59680000D01*
X83010000Y-59680000D02*
X83090000Y-60000000D01*
X83090000Y-60000000D02*
X83010000Y-60320000D01*
X83010000Y-60320000D02*
X79590000Y-60320000D01*
X79590000Y-60320000D02*
X79590000Y-60000000D01*
X76500000Y-57500000D02*
X75900000Y-57200000D01*
X75900000Y-57200000D02*
X75900000Y-57800000D01*
X75900000Y-57800000D02*
X76500000Y-57500000D01*
G04 #@! TO.C,J13*
X63100000Y-59450000D02*
X62500000Y-59750000D01*
X63100000Y-60050000D02*
X63100000Y-59450000D01*
X62500000Y-59750000D02*
X63100000Y-60050000D01*
X59410000Y-56930000D02*
X59410000Y-57250000D01*
X55990000Y-56930000D02*
X59410000Y-56930000D01*
X55910000Y-57250000D02*
X55990000Y-56930000D01*
X55990000Y-57570000D02*
X55910000Y-57250000D01*
X59410000Y-57570000D02*
X55990000Y-57570000D01*
X59410000Y-57250000D02*
X59410000Y-57570000D01*
X60410000Y-58580000D02*
X60410000Y-58420000D01*
X59410000Y-59430000D02*
X59410000Y-59750000D01*
X55990000Y-59430000D02*
X59410000Y-59430000D01*
X55910000Y-59750000D02*
X55990000Y-59430000D01*
X55990000Y-60070000D02*
X55910000Y-59750000D01*
X59410000Y-60070000D02*
X55990000Y-60070000D01*
X59410000Y-59750000D02*
X59410000Y-60070000D01*
X59410000Y-61140000D02*
X59410000Y-55860000D01*
X60410000Y-55860000D02*
X60410000Y-54640000D01*
X55410000Y-55860000D02*
X60410000Y-55860000D01*
X55410000Y-54640000D02*
X55410000Y-55860000D01*
X60410000Y-61140000D02*
X60410000Y-62360000D01*
X55410000Y-61140000D02*
X60410000Y-61140000D01*
X55410000Y-62360000D02*
X55410000Y-61140000D01*
X62610000Y-55860000D02*
X60410000Y-55860000D01*
X62610000Y-54640000D02*
X62610000Y-55860000D01*
X54190000Y-54640000D02*
X62610000Y-54640000D01*
X54190000Y-62360000D02*
X54190000Y-54640000D01*
X62610000Y-62360000D02*
X54190000Y-62360000D01*
X62610000Y-61140000D02*
X62610000Y-62360000D01*
X60410000Y-61140000D02*
X62610000Y-61140000D01*
G04 #@! TO.C,U3*
X71375000Y-58125000D02*
X71150000Y-58125000D01*
X71150000Y-54875000D02*
X71375000Y-54875000D01*
X68350000Y-54875000D02*
X68125000Y-54875000D01*
X71375000Y-58125000D02*
X71375000Y-57150000D01*
X68125000Y-55850000D02*
X68125000Y-54875000D01*
X68125000Y-58125000D02*
X68125000Y-57150000D01*
X71375000Y-55850000D02*
X71375000Y-54875000D01*
G04 #@! TO.C,C3*
X74210000Y-58488748D02*
X74210000Y-59011252D01*
X72790000Y-58488748D02*
X72790000Y-59011252D01*
G04 #@! TO.C,C4*
X66210000Y-58761252D02*
X66210000Y-58238748D01*
X64790000Y-58761252D02*
X64790000Y-58238748D01*
G04 #@! TO.C,JP1*
X73000000Y-51500000D02*
X75800000Y-51500000D01*
X75800000Y-51500000D02*
X75800000Y-53500000D01*
X75800000Y-53500000D02*
X73000000Y-53500000D01*
X73000000Y-53500000D02*
X73000000Y-51500000D01*
D13*
G04 #@! TO.C,L1*
X67900000Y-60750000D02*
X71600000Y-60750000D01*
X71600000Y-64250000D02*
X67900000Y-64250000D01*
D11*
G04 #@! TO.C,D1*
X60500000Y-123500000D02*
X60500000Y-127500000D01*
X58500000Y-123500000D02*
X60500000Y-123500000D01*
X58500000Y-127500000D02*
X58500000Y-123500000D01*
X60500000Y-127500000D02*
X58500000Y-127500000D01*
G04 #@! TO.C,D2*
X60500000Y-104500000D02*
X58500000Y-104500000D01*
X58500000Y-104500000D02*
X58500000Y-100500000D01*
X58500000Y-100500000D02*
X60500000Y-100500000D01*
X60500000Y-100500000D02*
X60500000Y-104500000D01*
G04 #@! TO.C,D3*
X60500000Y-78000000D02*
X60500000Y-82000000D01*
X58500000Y-78000000D02*
X60500000Y-78000000D01*
X58500000Y-82000000D02*
X58500000Y-78000000D01*
X60500000Y-82000000D02*
X58500000Y-82000000D01*
G04 #@! TO.C,D4*
X63000000Y-132000000D02*
X61000000Y-132000000D01*
X61000000Y-132000000D02*
X61000000Y-128000000D01*
X61000000Y-128000000D02*
X63000000Y-128000000D01*
X63000000Y-128000000D02*
X63000000Y-132000000D01*
G04 #@! TO.C,D5*
X63000000Y-105500000D02*
X63000000Y-109500000D01*
X61000000Y-105500000D02*
X63000000Y-105500000D01*
X61000000Y-109500000D02*
X61000000Y-105500000D01*
X63000000Y-109500000D02*
X61000000Y-109500000D01*
G04 #@! TO.C,D6*
X63000000Y-87000000D02*
X61000000Y-87000000D01*
X61000000Y-87000000D02*
X61000000Y-83000000D01*
X61000000Y-83000000D02*
X63000000Y-83000000D01*
X63000000Y-83000000D02*
X63000000Y-87000000D01*
G04 #@! TO.C,D7*
X65500000Y-127500000D02*
X63500000Y-127500000D01*
X63500000Y-127500000D02*
X63500000Y-123500000D01*
X63500000Y-123500000D02*
X65500000Y-123500000D01*
X65500000Y-123500000D02*
X65500000Y-127500000D01*
G04 #@! TO.C,D8*
X65500000Y-100500000D02*
X65500000Y-104500000D01*
X63500000Y-100500000D02*
X65500000Y-100500000D01*
X63500000Y-104500000D02*
X63500000Y-100500000D01*
X65500000Y-104500000D02*
X63500000Y-104500000D01*
G04 #@! TO.C,D9*
X65500000Y-82000000D02*
X63500000Y-82000000D01*
X63500000Y-82000000D02*
X63500000Y-78000000D01*
X63500000Y-78000000D02*
X65500000Y-78000000D01*
X65500000Y-78000000D02*
X65500000Y-82000000D01*
G04 #@! TO.C,D10*
X68000000Y-128000000D02*
X68000000Y-132000000D01*
X66000000Y-128000000D02*
X68000000Y-128000000D01*
X66000000Y-132000000D02*
X66000000Y-128000000D01*
X68000000Y-132000000D02*
X66000000Y-132000000D01*
G04 #@! TO.C,D11*
X68000000Y-109500000D02*
X66000000Y-109500000D01*
X66000000Y-109500000D02*
X66000000Y-105500000D01*
X66000000Y-105500000D02*
X68000000Y-105500000D01*
X68000000Y-105500000D02*
X68000000Y-109500000D01*
G04 #@! TO.C,D12*
X68000000Y-83000000D02*
X68000000Y-87000000D01*
X66000000Y-83000000D02*
X68000000Y-83000000D01*
X66000000Y-87000000D02*
X66000000Y-83000000D01*
X68000000Y-87000000D02*
X66000000Y-87000000D01*
G04 #@! TO.C,D37*
D13*
X101966326Y-126463740D02*
X100966326Y-126463740D01*
X100966326Y-126225645D01*
X101013946Y-126082788D01*
X101109184Y-125987550D01*
X101204422Y-125939931D01*
X101394898Y-125892312D01*
X101537755Y-125892312D01*
X101728231Y-125939931D01*
X101823469Y-125987550D01*
X101918707Y-126082788D01*
X101966326Y-126225645D01*
X101966326Y-126463740D01*
X100966326Y-125558978D02*
X100966326Y-124939931D01*
X101347279Y-125273264D01*
X101347279Y-125130407D01*
X101394898Y-125035169D01*
X101442517Y-124987550D01*
X101537755Y-124939931D01*
X101775850Y-124939931D01*
X101871088Y-124987550D01*
X101918707Y-125035169D01*
X101966326Y-125130407D01*
X101966326Y-125416121D01*
X101918707Y-125511359D01*
X101871088Y-125558978D01*
X100966326Y-124606597D02*
X100966326Y-123939931D01*
X101966326Y-124368502D01*
G04 #@! TO.C,D38*
X101952380Y-108714285D02*
X100952380Y-108714285D01*
X100952380Y-108476190D01*
X101000000Y-108333333D01*
X101095238Y-108238095D01*
X101190476Y-108190476D01*
X101380952Y-108142857D01*
X101523809Y-108142857D01*
X101714285Y-108190476D01*
X101809523Y-108238095D01*
X101904761Y-108333333D01*
X101952380Y-108476190D01*
X101952380Y-108714285D01*
X100952380Y-107809523D02*
X100952380Y-107190476D01*
X101333333Y-107523809D01*
X101333333Y-107380952D01*
X101380952Y-107285714D01*
X101428571Y-107238095D01*
X101523809Y-107190476D01*
X101761904Y-107190476D01*
X101857142Y-107238095D01*
X101904761Y-107285714D01*
X101952380Y-107380952D01*
X101952380Y-107666666D01*
X101904761Y-107761904D01*
X101857142Y-107809523D01*
X101380952Y-106619047D02*
X101333333Y-106714285D01*
X101285714Y-106761904D01*
X101190476Y-106809523D01*
X101142857Y-106809523D01*
X101047619Y-106761904D01*
X101000000Y-106714285D01*
X100952380Y-106619047D01*
X100952380Y-106428571D01*
X101000000Y-106333333D01*
X101047619Y-106285714D01*
X101142857Y-106238095D01*
X101190476Y-106238095D01*
X101285714Y-106285714D01*
X101333333Y-106333333D01*
X101380952Y-106428571D01*
X101380952Y-106619047D01*
X101428571Y-106714285D01*
X101476190Y-106761904D01*
X101571428Y-106809523D01*
X101761904Y-106809523D01*
X101857142Y-106761904D01*
X101904761Y-106714285D01*
X101952380Y-106619047D01*
X101952380Y-106428571D01*
X101904761Y-106333333D01*
X101857142Y-106285714D01*
X101761904Y-106238095D01*
X101571428Y-106238095D01*
X101476190Y-106285714D01*
X101428571Y-106333333D01*
X101380952Y-106428571D01*
G04 #@! TO.C,D39*
X101952380Y-91214285D02*
X100952380Y-91214285D01*
X100952380Y-90976190D01*
X101000000Y-90833333D01*
X101095238Y-90738095D01*
X101190476Y-90690476D01*
X101380952Y-90642857D01*
X101523809Y-90642857D01*
X101714285Y-90690476D01*
X101809523Y-90738095D01*
X101904761Y-90833333D01*
X101952380Y-90976190D01*
X101952380Y-91214285D01*
X100952380Y-90309523D02*
X100952380Y-89690476D01*
X101333333Y-90023809D01*
X101333333Y-89880952D01*
X101380952Y-89785714D01*
X101428571Y-89738095D01*
X101523809Y-89690476D01*
X101761904Y-89690476D01*
X101857142Y-89738095D01*
X101904761Y-89785714D01*
X101952380Y-89880952D01*
X101952380Y-90166666D01*
X101904761Y-90261904D01*
X101857142Y-90309523D01*
X101952380Y-89214285D02*
X101952380Y-89023809D01*
X101904761Y-88928571D01*
X101857142Y-88880952D01*
X101714285Y-88785714D01*
X101523809Y-88738095D01*
X101142857Y-88738095D01*
X101047619Y-88785714D01*
X101000000Y-88833333D01*
X100952380Y-88928571D01*
X100952380Y-89119047D01*
X101000000Y-89214285D01*
X101047619Y-89261904D01*
X101142857Y-89309523D01*
X101380952Y-89309523D01*
X101476190Y-89261904D01*
X101523809Y-89214285D01*
X101571428Y-89119047D01*
X101571428Y-88928571D01*
X101523809Y-88833333D01*
X101476190Y-88785714D01*
X101380952Y-88738095D01*
G04 #@! TO.C,D40*
X104452380Y-131214285D02*
X103452380Y-131214285D01*
X103452380Y-130976190D01*
X103500000Y-130833333D01*
X103595238Y-130738095D01*
X103690476Y-130690476D01*
X103880952Y-130642857D01*
X104023809Y-130642857D01*
X104214285Y-130690476D01*
X104309523Y-130738095D01*
X104404761Y-130833333D01*
X104452380Y-130976190D01*
X104452380Y-131214285D01*
X103785714Y-129785714D02*
X104452380Y-129785714D01*
X103404761Y-130023809D02*
X104119047Y-130261904D01*
X104119047Y-129642857D01*
X103452380Y-129071428D02*
X103452380Y-128976190D01*
X103500000Y-128880952D01*
X103547619Y-128833333D01*
X103642857Y-128785714D01*
X103833333Y-128738095D01*
X104071428Y-128738095D01*
X104261904Y-128785714D01*
X104357142Y-128833333D01*
X104404761Y-128880952D01*
X104452380Y-128976190D01*
X104452380Y-129071428D01*
X104404761Y-129166666D01*
X104357142Y-129214285D01*
X104261904Y-129261904D01*
X104071428Y-129309523D01*
X103833333Y-129309523D01*
X103642857Y-129261904D01*
X103547619Y-129214285D01*
X103500000Y-129166666D01*
X103452380Y-129071428D01*
G04 #@! TO.C,D41*
X104452380Y-113714285D02*
X103452380Y-113714285D01*
X103452380Y-113476190D01*
X103500000Y-113333333D01*
X103595238Y-113238095D01*
X103690476Y-113190476D01*
X103880952Y-113142857D01*
X104023809Y-113142857D01*
X104214285Y-113190476D01*
X104309523Y-113238095D01*
X104404761Y-113333333D01*
X104452380Y-113476190D01*
X104452380Y-113714285D01*
X103785714Y-112285714D02*
X104452380Y-112285714D01*
X103404761Y-112523809D02*
X104119047Y-112761904D01*
X104119047Y-112142857D01*
X104452380Y-111238095D02*
X104452380Y-111809523D01*
X104452380Y-111523809D02*
X103452380Y-111523809D01*
X103595238Y-111619047D01*
X103690476Y-111714285D01*
X103738095Y-111809523D01*
G04 #@! TO.C,D42*
X104452380Y-96214285D02*
X103452380Y-96214285D01*
X103452380Y-95976190D01*
X103500000Y-95833333D01*
X103595238Y-95738095D01*
X103690476Y-95690476D01*
X103880952Y-95642857D01*
X104023809Y-95642857D01*
X104214285Y-95690476D01*
X104309523Y-95738095D01*
X104404761Y-95833333D01*
X104452380Y-95976190D01*
X104452380Y-96214285D01*
X103785714Y-94785714D02*
X104452380Y-94785714D01*
X103404761Y-95023809D02*
X104119047Y-95261904D01*
X104119047Y-94642857D01*
X103547619Y-94309523D02*
X103500000Y-94261904D01*
X103452380Y-94166666D01*
X103452380Y-93928571D01*
X103500000Y-93833333D01*
X103547619Y-93785714D01*
X103642857Y-93738095D01*
X103738095Y-93738095D01*
X103880952Y-93785714D01*
X104452380Y-94357142D01*
X104452380Y-93738095D01*
G04 #@! TO.C,D43*
X106952380Y-126714285D02*
X105952380Y-126714285D01*
X105952380Y-126476190D01*
X106000000Y-126333333D01*
X106095238Y-126238095D01*
X106190476Y-126190476D01*
X106380952Y-126142857D01*
X106523809Y-126142857D01*
X106714285Y-126190476D01*
X106809523Y-126238095D01*
X106904761Y-126333333D01*
X106952380Y-126476190D01*
X106952380Y-126714285D01*
X106285714Y-125285714D02*
X106952380Y-125285714D01*
X105904761Y-125523809D02*
X106619047Y-125761904D01*
X106619047Y-125142857D01*
X105952380Y-124857142D02*
X105952380Y-124238095D01*
X106333333Y-124571428D01*
X106333333Y-124428571D01*
X106380952Y-124333333D01*
X106428571Y-124285714D01*
X106523809Y-124238095D01*
X106761904Y-124238095D01*
X106857142Y-124285714D01*
X106904761Y-124333333D01*
X106952380Y-124428571D01*
X106952380Y-124714285D01*
X106904761Y-124809523D01*
X106857142Y-124857142D01*
G04 #@! TO.C,D44*
X106952380Y-108714285D02*
X105952380Y-108714285D01*
X105952380Y-108476190D01*
X106000000Y-108333333D01*
X106095238Y-108238095D01*
X106190476Y-108190476D01*
X106380952Y-108142857D01*
X106523809Y-108142857D01*
X106714285Y-108190476D01*
X106809523Y-108238095D01*
X106904761Y-108333333D01*
X106952380Y-108476190D01*
X106952380Y-108714285D01*
X106285714Y-107285714D02*
X106952380Y-107285714D01*
X105904761Y-107523809D02*
X106619047Y-107761904D01*
X106619047Y-107142857D01*
X106285714Y-106333333D02*
X106952380Y-106333333D01*
X105904761Y-106571428D02*
X106619047Y-106809523D01*
X106619047Y-106190476D01*
G04 #@! TO.C,D45*
X106952380Y-91214285D02*
X105952380Y-91214285D01*
X105952380Y-90976190D01*
X106000000Y-90833333D01*
X106095238Y-90738095D01*
X106190476Y-90690476D01*
X106380952Y-90642857D01*
X106523809Y-90642857D01*
X106714285Y-90690476D01*
X106809523Y-90738095D01*
X106904761Y-90833333D01*
X106952380Y-90976190D01*
X106952380Y-91214285D01*
X106285714Y-89785714D02*
X106952380Y-89785714D01*
X105904761Y-90023809D02*
X106619047Y-90261904D01*
X106619047Y-89642857D01*
X105952380Y-88785714D02*
X105952380Y-89261904D01*
X106428571Y-89309523D01*
X106380952Y-89261904D01*
X106333333Y-89166666D01*
X106333333Y-88928571D01*
X106380952Y-88833333D01*
X106428571Y-88785714D01*
X106523809Y-88738095D01*
X106761904Y-88738095D01*
X106857142Y-88785714D01*
X106904761Y-88833333D01*
X106952380Y-88928571D01*
X106952380Y-89166666D01*
X106904761Y-89261904D01*
X106857142Y-89309523D01*
G04 #@! TO.C,D46*
X109452380Y-131214285D02*
X108452380Y-131214285D01*
X108452380Y-130976190D01*
X108500000Y-130833333D01*
X108595238Y-130738095D01*
X108690476Y-130690476D01*
X108880952Y-130642857D01*
X109023809Y-130642857D01*
X109214285Y-130690476D01*
X109309523Y-130738095D01*
X109404761Y-130833333D01*
X109452380Y-130976190D01*
X109452380Y-131214285D01*
X108785714Y-129785714D02*
X109452380Y-129785714D01*
X108404761Y-130023809D02*
X109119047Y-130261904D01*
X109119047Y-129642857D01*
X108452380Y-128833333D02*
X108452380Y-129023809D01*
X108500000Y-129119047D01*
X108547619Y-129166666D01*
X108690476Y-129261904D01*
X108880952Y-129309523D01*
X109261904Y-129309523D01*
X109357142Y-129261904D01*
X109404761Y-129214285D01*
X109452380Y-129119047D01*
X109452380Y-128928571D01*
X109404761Y-128833333D01*
X109357142Y-128785714D01*
X109261904Y-128738095D01*
X109023809Y-128738095D01*
X108928571Y-128785714D01*
X108880952Y-128833333D01*
X108833333Y-128928571D01*
X108833333Y-129119047D01*
X108880952Y-129214285D01*
X108928571Y-129261904D01*
X109023809Y-129309523D01*
G04 #@! TO.C,D47*
X109452380Y-113714285D02*
X108452380Y-113714285D01*
X108452380Y-113476190D01*
X108500000Y-113333333D01*
X108595238Y-113238095D01*
X108690476Y-113190476D01*
X108880952Y-113142857D01*
X109023809Y-113142857D01*
X109214285Y-113190476D01*
X109309523Y-113238095D01*
X109404761Y-113333333D01*
X109452380Y-113476190D01*
X109452380Y-113714285D01*
X108785714Y-112285714D02*
X109452380Y-112285714D01*
X108404761Y-112523809D02*
X109119047Y-112761904D01*
X109119047Y-112142857D01*
X108452380Y-111857142D02*
X108452380Y-111190476D01*
X109452380Y-111619047D01*
G04 #@! TO.C,D48*
X109452380Y-96142710D02*
X108452380Y-96142710D01*
X108452380Y-95904615D01*
X108500000Y-95761758D01*
X108595238Y-95666520D01*
X108690476Y-95618901D01*
X108880952Y-95571282D01*
X109023809Y-95571282D01*
X109214285Y-95618901D01*
X109309523Y-95666520D01*
X109404761Y-95761758D01*
X109452380Y-95904615D01*
X109452380Y-96142710D01*
X108785714Y-94714139D02*
X109452380Y-94714139D01*
X108404761Y-94952234D02*
X109119047Y-95190329D01*
X109119047Y-94571282D01*
X108880952Y-94047472D02*
X108833333Y-94142710D01*
X108785714Y-94190329D01*
X108690476Y-94237948D01*
X108642857Y-94237948D01*
X108547619Y-94190329D01*
X108500000Y-94142710D01*
X108452380Y-94047472D01*
X108452380Y-93856996D01*
X108500000Y-93761758D01*
X108547619Y-93714139D01*
X108642857Y-93666520D01*
X108690476Y-93666520D01*
X108785714Y-93714139D01*
X108833333Y-93761758D01*
X108880952Y-93856996D01*
X108880952Y-94047472D01*
X108928571Y-94142710D01*
X108976190Y-94190329D01*
X109071428Y-94237948D01*
X109261904Y-94237948D01*
X109357142Y-94190329D01*
X109404761Y-94142710D01*
X109452380Y-94047472D01*
X109452380Y-93856996D01*
X109404761Y-93761758D01*
X109357142Y-93714139D01*
X109261904Y-93666520D01*
X109071428Y-93666520D01*
X108976190Y-93714139D01*
X108928571Y-93761758D01*
X108880952Y-93856996D01*
G04 #@! TO.C,D36*
X95452380Y-96142710D02*
X94452380Y-96142710D01*
X94452380Y-95904615D01*
X94500000Y-95761758D01*
X94595238Y-95666520D01*
X94690476Y-95618901D01*
X94880952Y-95571282D01*
X95023809Y-95571282D01*
X95214285Y-95618901D01*
X95309523Y-95666520D01*
X95404761Y-95761758D01*
X95452380Y-95904615D01*
X95452380Y-96142710D01*
X94452380Y-95237948D02*
X94452380Y-94618901D01*
X94833333Y-94952234D01*
X94833333Y-94809377D01*
X94880952Y-94714139D01*
X94928571Y-94666520D01*
X95023809Y-94618901D01*
X95261904Y-94618901D01*
X95357142Y-94666520D01*
X95404761Y-94714139D01*
X95452380Y-94809377D01*
X95452380Y-95095091D01*
X95404761Y-95190329D01*
X95357142Y-95237948D01*
X94452380Y-93761758D02*
X94452380Y-93952234D01*
X94500000Y-94047472D01*
X94547619Y-94095091D01*
X94690476Y-94190329D01*
X94880952Y-94237948D01*
X95261904Y-94237948D01*
X95357142Y-94190329D01*
X95404761Y-94142710D01*
X95452380Y-94047472D01*
X95452380Y-93856996D01*
X95404761Y-93761758D01*
X95357142Y-93714139D01*
X95261904Y-93666520D01*
X95023809Y-93666520D01*
X94928571Y-93714139D01*
X94880952Y-93761758D01*
X94833333Y-93856996D01*
X94833333Y-94047472D01*
X94880952Y-94142710D01*
X94928571Y-94190329D01*
X95023809Y-94237948D01*
G04 #@! TO.C,D35*
X95452380Y-113714285D02*
X94452380Y-113714285D01*
X94452380Y-113476190D01*
X94500000Y-113333333D01*
X94595238Y-113238095D01*
X94690476Y-113190476D01*
X94880952Y-113142857D01*
X95023809Y-113142857D01*
X95214285Y-113190476D01*
X95309523Y-113238095D01*
X95404761Y-113333333D01*
X95452380Y-113476190D01*
X95452380Y-113714285D01*
X94452380Y-112809523D02*
X94452380Y-112190476D01*
X94833333Y-112523809D01*
X94833333Y-112380952D01*
X94880952Y-112285714D01*
X94928571Y-112238095D01*
X95023809Y-112190476D01*
X95261904Y-112190476D01*
X95357142Y-112238095D01*
X95404761Y-112285714D01*
X95452380Y-112380952D01*
X95452380Y-112666666D01*
X95404761Y-112761904D01*
X95357142Y-112809523D01*
X94452380Y-111285714D02*
X94452380Y-111761904D01*
X94928571Y-111809523D01*
X94880952Y-111761904D01*
X94833333Y-111666666D01*
X94833333Y-111428571D01*
X94880952Y-111333333D01*
X94928571Y-111285714D01*
X95023809Y-111238095D01*
X95261904Y-111238095D01*
X95357142Y-111285714D01*
X95404761Y-111333333D01*
X95452380Y-111428571D01*
X95452380Y-111666666D01*
X95404761Y-111761904D01*
X95357142Y-111809523D01*
G04 #@! TO.C,D34*
X95452380Y-131214285D02*
X94452380Y-131214285D01*
X94452380Y-130976190D01*
X94500000Y-130833333D01*
X94595238Y-130738095D01*
X94690476Y-130690476D01*
X94880952Y-130642857D01*
X95023809Y-130642857D01*
X95214285Y-130690476D01*
X95309523Y-130738095D01*
X95404761Y-130833333D01*
X95452380Y-130976190D01*
X95452380Y-131214285D01*
X94452380Y-130309523D02*
X94452380Y-129690476D01*
X94833333Y-130023809D01*
X94833333Y-129880952D01*
X94880952Y-129785714D01*
X94928571Y-129738095D01*
X95023809Y-129690476D01*
X95261904Y-129690476D01*
X95357142Y-129738095D01*
X95404761Y-129785714D01*
X95452380Y-129880952D01*
X95452380Y-130166666D01*
X95404761Y-130261904D01*
X95357142Y-130309523D01*
X94785714Y-128833333D02*
X95452380Y-128833333D01*
X94404761Y-129071428D02*
X95119047Y-129309523D01*
X95119047Y-128690476D01*
G04 #@! TO.C,D33*
X92952380Y-91214285D02*
X91952380Y-91214285D01*
X91952380Y-90976190D01*
X92000000Y-90833333D01*
X92095238Y-90738095D01*
X92190476Y-90690476D01*
X92380952Y-90642857D01*
X92523809Y-90642857D01*
X92714285Y-90690476D01*
X92809523Y-90738095D01*
X92904761Y-90833333D01*
X92952380Y-90976190D01*
X92952380Y-91214285D01*
X91952380Y-90309523D02*
X91952380Y-89690476D01*
X92333333Y-90023809D01*
X92333333Y-89880952D01*
X92380952Y-89785714D01*
X92428571Y-89738095D01*
X92523809Y-89690476D01*
X92761904Y-89690476D01*
X92857142Y-89738095D01*
X92904761Y-89785714D01*
X92952380Y-89880952D01*
X92952380Y-90166666D01*
X92904761Y-90261904D01*
X92857142Y-90309523D01*
X91952380Y-89357142D02*
X91952380Y-88738095D01*
X92333333Y-89071428D01*
X92333333Y-88928571D01*
X92380952Y-88833333D01*
X92428571Y-88785714D01*
X92523809Y-88738095D01*
X92761904Y-88738095D01*
X92857142Y-88785714D01*
X92904761Y-88833333D01*
X92952380Y-88928571D01*
X92952380Y-89214285D01*
X92904761Y-89309523D01*
X92857142Y-89357142D01*
G04 #@! TO.C,D32*
X92952380Y-108714285D02*
X91952380Y-108714285D01*
X91952380Y-108476190D01*
X92000000Y-108333333D01*
X92095238Y-108238095D01*
X92190476Y-108190476D01*
X92380952Y-108142857D01*
X92523809Y-108142857D01*
X92714285Y-108190476D01*
X92809523Y-108238095D01*
X92904761Y-108333333D01*
X92952380Y-108476190D01*
X92952380Y-108714285D01*
X91952380Y-107809523D02*
X91952380Y-107190476D01*
X92333333Y-107523809D01*
X92333333Y-107380952D01*
X92380952Y-107285714D01*
X92428571Y-107238095D01*
X92523809Y-107190476D01*
X92761904Y-107190476D01*
X92857142Y-107238095D01*
X92904761Y-107285714D01*
X92952380Y-107380952D01*
X92952380Y-107666666D01*
X92904761Y-107761904D01*
X92857142Y-107809523D01*
X92047619Y-106809523D02*
X92000000Y-106761904D01*
X91952380Y-106666666D01*
X91952380Y-106428571D01*
X92000000Y-106333333D01*
X92047619Y-106285714D01*
X92142857Y-106238095D01*
X92238095Y-106238095D01*
X92380952Y-106285714D01*
X92952380Y-106857142D01*
X92952380Y-106238095D01*
G04 #@! TO.C,D31*
X92952380Y-126714285D02*
X91952380Y-126714285D01*
X91952380Y-126476190D01*
X92000000Y-126333333D01*
X92095238Y-126238095D01*
X92190476Y-126190476D01*
X92380952Y-126142857D01*
X92523809Y-126142857D01*
X92714285Y-126190476D01*
X92809523Y-126238095D01*
X92904761Y-126333333D01*
X92952380Y-126476190D01*
X92952380Y-126714285D01*
X91952380Y-125809523D02*
X91952380Y-125190476D01*
X92333333Y-125523809D01*
X92333333Y-125380952D01*
X92380952Y-125285714D01*
X92428571Y-125238095D01*
X92523809Y-125190476D01*
X92761904Y-125190476D01*
X92857142Y-125238095D01*
X92904761Y-125285714D01*
X92952380Y-125380952D01*
X92952380Y-125666666D01*
X92904761Y-125761904D01*
X92857142Y-125809523D01*
X92952380Y-124238095D02*
X92952380Y-124809523D01*
X92952380Y-124523809D02*
X91952380Y-124523809D01*
X92095238Y-124619047D01*
X92190476Y-124714285D01*
X92238095Y-124809523D01*
G04 #@! TO.C,D30*
X90452380Y-96214285D02*
X89452380Y-96214285D01*
X89452380Y-95976190D01*
X89500000Y-95833333D01*
X89595238Y-95738095D01*
X89690476Y-95690476D01*
X89880952Y-95642857D01*
X90023809Y-95642857D01*
X90214285Y-95690476D01*
X90309523Y-95738095D01*
X90404761Y-95833333D01*
X90452380Y-95976190D01*
X90452380Y-96214285D01*
X89452380Y-95309523D02*
X89452380Y-94690476D01*
X89833333Y-95023809D01*
X89833333Y-94880952D01*
X89880952Y-94785714D01*
X89928571Y-94738095D01*
X90023809Y-94690476D01*
X90261904Y-94690476D01*
X90357142Y-94738095D01*
X90404761Y-94785714D01*
X90452380Y-94880952D01*
X90452380Y-95166666D01*
X90404761Y-95261904D01*
X90357142Y-95309523D01*
X89452380Y-94071428D02*
X89452380Y-93976190D01*
X89500000Y-93880952D01*
X89547619Y-93833333D01*
X89642857Y-93785714D01*
X89833333Y-93738095D01*
X90071428Y-93738095D01*
X90261904Y-93785714D01*
X90357142Y-93833333D01*
X90404761Y-93880952D01*
X90452380Y-93976190D01*
X90452380Y-94071428D01*
X90404761Y-94166666D01*
X90357142Y-94214285D01*
X90261904Y-94261904D01*
X90071428Y-94309523D01*
X89833333Y-94309523D01*
X89642857Y-94261904D01*
X89547619Y-94214285D01*
X89500000Y-94166666D01*
X89452380Y-94071428D01*
G04 #@! TO.C,D29*
X90452380Y-113714285D02*
X89452380Y-113714285D01*
X89452380Y-113476190D01*
X89500000Y-113333333D01*
X89595238Y-113238095D01*
X89690476Y-113190476D01*
X89880952Y-113142857D01*
X90023809Y-113142857D01*
X90214285Y-113190476D01*
X90309523Y-113238095D01*
X90404761Y-113333333D01*
X90452380Y-113476190D01*
X90452380Y-113714285D01*
X89547619Y-112761904D02*
X89500000Y-112714285D01*
X89452380Y-112619047D01*
X89452380Y-112380952D01*
X89500000Y-112285714D01*
X89547619Y-112238095D01*
X89642857Y-112190476D01*
X89738095Y-112190476D01*
X89880952Y-112238095D01*
X90452380Y-112809523D01*
X90452380Y-112190476D01*
X90452380Y-111714285D02*
X90452380Y-111523809D01*
X90404761Y-111428571D01*
X90357142Y-111380952D01*
X90214285Y-111285714D01*
X90023809Y-111238095D01*
X89642857Y-111238095D01*
X89547619Y-111285714D01*
X89500000Y-111333333D01*
X89452380Y-111428571D01*
X89452380Y-111619047D01*
X89500000Y-111714285D01*
X89547619Y-111761904D01*
X89642857Y-111809523D01*
X89880952Y-111809523D01*
X89976190Y-111761904D01*
X90023809Y-111714285D01*
X90071428Y-111619047D01*
X90071428Y-111428571D01*
X90023809Y-111333333D01*
X89976190Y-111285714D01*
X89880952Y-111238095D01*
G04 #@! TO.C,D28*
X90452380Y-131214285D02*
X89452380Y-131214285D01*
X89452380Y-130976190D01*
X89500000Y-130833333D01*
X89595238Y-130738095D01*
X89690476Y-130690476D01*
X89880952Y-130642857D01*
X90023809Y-130642857D01*
X90214285Y-130690476D01*
X90309523Y-130738095D01*
X90404761Y-130833333D01*
X90452380Y-130976190D01*
X90452380Y-131214285D01*
X89547619Y-130261904D02*
X89500000Y-130214285D01*
X89452380Y-130119047D01*
X89452380Y-129880952D01*
X89500000Y-129785714D01*
X89547619Y-129738095D01*
X89642857Y-129690476D01*
X89738095Y-129690476D01*
X89880952Y-129738095D01*
X90452380Y-130309523D01*
X90452380Y-129690476D01*
X89880952Y-129119047D02*
X89833333Y-129214285D01*
X89785714Y-129261904D01*
X89690476Y-129309523D01*
X89642857Y-129309523D01*
X89547619Y-129261904D01*
X89500000Y-129214285D01*
X89452380Y-129119047D01*
X89452380Y-128928571D01*
X89500000Y-128833333D01*
X89547619Y-128785714D01*
X89642857Y-128738095D01*
X89690476Y-128738095D01*
X89785714Y-128785714D01*
X89833333Y-128833333D01*
X89880952Y-128928571D01*
X89880952Y-129119047D01*
X89928571Y-129214285D01*
X89976190Y-129261904D01*
X90071428Y-129309523D01*
X90261904Y-129309523D01*
X90357142Y-129261904D01*
X90404761Y-129214285D01*
X90452380Y-129119047D01*
X90452380Y-128928571D01*
X90404761Y-128833333D01*
X90357142Y-128785714D01*
X90261904Y-128738095D01*
X90071428Y-128738095D01*
X89976190Y-128785714D01*
X89928571Y-128833333D01*
X89880952Y-128928571D01*
G04 #@! TO.C,D27*
X87952380Y-91214285D02*
X86952380Y-91214285D01*
X86952380Y-90976190D01*
X87000000Y-90833333D01*
X87095238Y-90738095D01*
X87190476Y-90690476D01*
X87380952Y-90642857D01*
X87523809Y-90642857D01*
X87714285Y-90690476D01*
X87809523Y-90738095D01*
X87904761Y-90833333D01*
X87952380Y-90976190D01*
X87952380Y-91214285D01*
X87047619Y-90261904D02*
X87000000Y-90214285D01*
X86952380Y-90119047D01*
X86952380Y-89880952D01*
X87000000Y-89785714D01*
X87047619Y-89738095D01*
X87142857Y-89690476D01*
X87238095Y-89690476D01*
X87380952Y-89738095D01*
X87952380Y-90309523D01*
X87952380Y-89690476D01*
X86952380Y-89357142D02*
X86952380Y-88690476D01*
X87952380Y-89119047D01*
G04 #@! TO.C,D26*
X87952380Y-108714285D02*
X86952380Y-108714285D01*
X86952380Y-108476190D01*
X87000000Y-108333333D01*
X87095238Y-108238095D01*
X87190476Y-108190476D01*
X87380952Y-108142857D01*
X87523809Y-108142857D01*
X87714285Y-108190476D01*
X87809523Y-108238095D01*
X87904761Y-108333333D01*
X87952380Y-108476190D01*
X87952380Y-108714285D01*
X87047619Y-107761904D02*
X87000000Y-107714285D01*
X86952380Y-107619047D01*
X86952380Y-107380952D01*
X87000000Y-107285714D01*
X87047619Y-107238095D01*
X87142857Y-107190476D01*
X87238095Y-107190476D01*
X87380952Y-107238095D01*
X87952380Y-107809523D01*
X87952380Y-107190476D01*
X86952380Y-106333333D02*
X86952380Y-106523809D01*
X87000000Y-106619047D01*
X87047619Y-106666666D01*
X87190476Y-106761904D01*
X87380952Y-106809523D01*
X87761904Y-106809523D01*
X87857142Y-106761904D01*
X87904761Y-106714285D01*
X87952380Y-106619047D01*
X87952380Y-106428571D01*
X87904761Y-106333333D01*
X87857142Y-106285714D01*
X87761904Y-106238095D01*
X87523809Y-106238095D01*
X87428571Y-106285714D01*
X87380952Y-106333333D01*
X87333333Y-106428571D01*
X87333333Y-106619047D01*
X87380952Y-106714285D01*
X87428571Y-106761904D01*
X87523809Y-106809523D01*
G04 #@! TO.C,D25*
X87966326Y-126463740D02*
X86966326Y-126463740D01*
X86966326Y-126225645D01*
X87013946Y-126082788D01*
X87109184Y-125987550D01*
X87204422Y-125939931D01*
X87394898Y-125892312D01*
X87537755Y-125892312D01*
X87728231Y-125939931D01*
X87823469Y-125987550D01*
X87918707Y-126082788D01*
X87966326Y-126225645D01*
X87966326Y-126463740D01*
X87061565Y-125511359D02*
X87013946Y-125463740D01*
X86966326Y-125368502D01*
X86966326Y-125130407D01*
X87013946Y-125035169D01*
X87061565Y-124987550D01*
X87156803Y-124939931D01*
X87252041Y-124939931D01*
X87394898Y-124987550D01*
X87966326Y-125558978D01*
X87966326Y-124939931D01*
X86966326Y-124035169D02*
X86966326Y-124511359D01*
X87442517Y-124558978D01*
X87394898Y-124511359D01*
X87347279Y-124416121D01*
X87347279Y-124178026D01*
X87394898Y-124082788D01*
X87442517Y-124035169D01*
X87537755Y-123987550D01*
X87775850Y-123987550D01*
X87871088Y-124035169D01*
X87918707Y-124082788D01*
X87966326Y-124178026D01*
X87966326Y-124416121D01*
X87918707Y-124511359D01*
X87871088Y-124558978D01*
G04 #@! TO.C,D24*
X81452380Y-86142710D02*
X80452380Y-86142710D01*
X80452380Y-85904615D01*
X80500000Y-85761758D01*
X80595238Y-85666520D01*
X80690476Y-85618901D01*
X80880952Y-85571282D01*
X81023809Y-85571282D01*
X81214285Y-85618901D01*
X81309523Y-85666520D01*
X81404761Y-85761758D01*
X81452380Y-85904615D01*
X81452380Y-86142710D01*
X80547619Y-85190329D02*
X80500000Y-85142710D01*
X80452380Y-85047472D01*
X80452380Y-84809377D01*
X80500000Y-84714139D01*
X80547619Y-84666520D01*
X80642857Y-84618901D01*
X80738095Y-84618901D01*
X80880952Y-84666520D01*
X81452380Y-85237948D01*
X81452380Y-84618901D01*
X80785714Y-83761758D02*
X81452380Y-83761758D01*
X80404761Y-83999853D02*
X81119047Y-84237948D01*
X81119047Y-83618901D01*
G04 #@! TO.C,D23*
X81452380Y-108714285D02*
X80452380Y-108714285D01*
X80452380Y-108476190D01*
X80500000Y-108333333D01*
X80595238Y-108238095D01*
X80690476Y-108190476D01*
X80880952Y-108142857D01*
X81023809Y-108142857D01*
X81214285Y-108190476D01*
X81309523Y-108238095D01*
X81404761Y-108333333D01*
X81452380Y-108476190D01*
X81452380Y-108714285D01*
X80547619Y-107761904D02*
X80500000Y-107714285D01*
X80452380Y-107619047D01*
X80452380Y-107380952D01*
X80500000Y-107285714D01*
X80547619Y-107238095D01*
X80642857Y-107190476D01*
X80738095Y-107190476D01*
X80880952Y-107238095D01*
X81452380Y-107809523D01*
X81452380Y-107190476D01*
X80452380Y-106857142D02*
X80452380Y-106238095D01*
X80833333Y-106571428D01*
X80833333Y-106428571D01*
X80880952Y-106333333D01*
X80928571Y-106285714D01*
X81023809Y-106238095D01*
X81261904Y-106238095D01*
X81357142Y-106285714D01*
X81404761Y-106333333D01*
X81452380Y-106428571D01*
X81452380Y-106714285D01*
X81404761Y-106809523D01*
X81357142Y-106857142D01*
G04 #@! TO.C,D22*
X81452380Y-131214285D02*
X80452380Y-131214285D01*
X80452380Y-130976190D01*
X80500000Y-130833333D01*
X80595238Y-130738095D01*
X80690476Y-130690476D01*
X80880952Y-130642857D01*
X81023809Y-130642857D01*
X81214285Y-130690476D01*
X81309523Y-130738095D01*
X81404761Y-130833333D01*
X81452380Y-130976190D01*
X81452380Y-131214285D01*
X80547619Y-130261904D02*
X80500000Y-130214285D01*
X80452380Y-130119047D01*
X80452380Y-129880952D01*
X80500000Y-129785714D01*
X80547619Y-129738095D01*
X80642857Y-129690476D01*
X80738095Y-129690476D01*
X80880952Y-129738095D01*
X81452380Y-130309523D01*
X81452380Y-129690476D01*
X80547619Y-129309523D02*
X80500000Y-129261904D01*
X80452380Y-129166666D01*
X80452380Y-128928571D01*
X80500000Y-128833333D01*
X80547619Y-128785714D01*
X80642857Y-128738095D01*
X80738095Y-128738095D01*
X80880952Y-128785714D01*
X81452380Y-129357142D01*
X81452380Y-128738095D01*
G04 #@! TO.C,D21*
X78952380Y-81214285D02*
X77952380Y-81214285D01*
X77952380Y-80976190D01*
X78000000Y-80833333D01*
X78095238Y-80738095D01*
X78190476Y-80690476D01*
X78380952Y-80642857D01*
X78523809Y-80642857D01*
X78714285Y-80690476D01*
X78809523Y-80738095D01*
X78904761Y-80833333D01*
X78952380Y-80976190D01*
X78952380Y-81214285D01*
X78047619Y-80261904D02*
X78000000Y-80214285D01*
X77952380Y-80119047D01*
X77952380Y-79880952D01*
X78000000Y-79785714D01*
X78047619Y-79738095D01*
X78142857Y-79690476D01*
X78238095Y-79690476D01*
X78380952Y-79738095D01*
X78952380Y-80309523D01*
X78952380Y-79690476D01*
X78952380Y-78738095D02*
X78952380Y-79309523D01*
X78952380Y-79023809D02*
X77952380Y-79023809D01*
X78095238Y-79119047D01*
X78190476Y-79214285D01*
X78238095Y-79309523D01*
G04 #@! TO.C,D20*
X78952380Y-103714285D02*
X77952380Y-103714285D01*
X77952380Y-103476190D01*
X78000000Y-103333333D01*
X78095238Y-103238095D01*
X78190476Y-103190476D01*
X78380952Y-103142857D01*
X78523809Y-103142857D01*
X78714285Y-103190476D01*
X78809523Y-103238095D01*
X78904761Y-103333333D01*
X78952380Y-103476190D01*
X78952380Y-103714285D01*
X78047619Y-102761904D02*
X78000000Y-102714285D01*
X77952380Y-102619047D01*
X77952380Y-102380952D01*
X78000000Y-102285714D01*
X78047619Y-102238095D01*
X78142857Y-102190476D01*
X78238095Y-102190476D01*
X78380952Y-102238095D01*
X78952380Y-102809523D01*
X78952380Y-102190476D01*
X77952380Y-101571428D02*
X77952380Y-101476190D01*
X78000000Y-101380952D01*
X78047619Y-101333333D01*
X78142857Y-101285714D01*
X78333333Y-101238095D01*
X78571428Y-101238095D01*
X78761904Y-101285714D01*
X78857142Y-101333333D01*
X78904761Y-101380952D01*
X78952380Y-101476190D01*
X78952380Y-101571428D01*
X78904761Y-101666666D01*
X78857142Y-101714285D01*
X78761904Y-101761904D01*
X78571428Y-101809523D01*
X78333333Y-101809523D01*
X78142857Y-101761904D01*
X78047619Y-101714285D01*
X78000000Y-101666666D01*
X77952380Y-101571428D01*
G04 #@! TO.C,D19*
X78952380Y-126714285D02*
X77952380Y-126714285D01*
X77952380Y-126476190D01*
X78000000Y-126333333D01*
X78095238Y-126238095D01*
X78190476Y-126190476D01*
X78380952Y-126142857D01*
X78523809Y-126142857D01*
X78714285Y-126190476D01*
X78809523Y-126238095D01*
X78904761Y-126333333D01*
X78952380Y-126476190D01*
X78952380Y-126714285D01*
X78952380Y-125190476D02*
X78952380Y-125761904D01*
X78952380Y-125476190D02*
X77952380Y-125476190D01*
X78095238Y-125571428D01*
X78190476Y-125666666D01*
X78238095Y-125761904D01*
X78952380Y-124714285D02*
X78952380Y-124523809D01*
X78904761Y-124428571D01*
X78857142Y-124380952D01*
X78714285Y-124285714D01*
X78523809Y-124238095D01*
X78142857Y-124238095D01*
X78047619Y-124285714D01*
X78000000Y-124333333D01*
X77952380Y-124428571D01*
X77952380Y-124619047D01*
X78000000Y-124714285D01*
X78047619Y-124761904D01*
X78142857Y-124809523D01*
X78380952Y-124809523D01*
X78476190Y-124761904D01*
X78523809Y-124714285D01*
X78571428Y-124619047D01*
X78571428Y-124428571D01*
X78523809Y-124333333D01*
X78476190Y-124285714D01*
X78380952Y-124238095D01*
G04 #@! TO.C,D18*
X76452380Y-86214285D02*
X75452380Y-86214285D01*
X75452380Y-85976190D01*
X75500000Y-85833333D01*
X75595238Y-85738095D01*
X75690476Y-85690476D01*
X75880952Y-85642857D01*
X76023809Y-85642857D01*
X76214285Y-85690476D01*
X76309523Y-85738095D01*
X76404761Y-85833333D01*
X76452380Y-85976190D01*
X76452380Y-86214285D01*
X76452380Y-84690476D02*
X76452380Y-85261904D01*
X76452380Y-84976190D02*
X75452380Y-84976190D01*
X75595238Y-85071428D01*
X75690476Y-85166666D01*
X75738095Y-85261904D01*
X75880952Y-84119047D02*
X75833333Y-84214285D01*
X75785714Y-84261904D01*
X75690476Y-84309523D01*
X75642857Y-84309523D01*
X75547619Y-84261904D01*
X75500000Y-84214285D01*
X75452380Y-84119047D01*
X75452380Y-83928571D01*
X75500000Y-83833333D01*
X75547619Y-83785714D01*
X75642857Y-83738095D01*
X75690476Y-83738095D01*
X75785714Y-83785714D01*
X75833333Y-83833333D01*
X75880952Y-83928571D01*
X75880952Y-84119047D01*
X75928571Y-84214285D01*
X75976190Y-84261904D01*
X76071428Y-84309523D01*
X76261904Y-84309523D01*
X76357142Y-84261904D01*
X76404761Y-84214285D01*
X76452380Y-84119047D01*
X76452380Y-83928571D01*
X76404761Y-83833333D01*
X76357142Y-83785714D01*
X76261904Y-83738095D01*
X76071428Y-83738095D01*
X75976190Y-83785714D01*
X75928571Y-83833333D01*
X75880952Y-83928571D01*
G04 #@! TO.C,D17*
X76452380Y-108714285D02*
X75452380Y-108714285D01*
X75452380Y-108476190D01*
X75500000Y-108333333D01*
X75595238Y-108238095D01*
X75690476Y-108190476D01*
X75880952Y-108142857D01*
X76023809Y-108142857D01*
X76214285Y-108190476D01*
X76309523Y-108238095D01*
X76404761Y-108333333D01*
X76452380Y-108476190D01*
X76452380Y-108714285D01*
X76452380Y-107190476D02*
X76452380Y-107761904D01*
X76452380Y-107476190D02*
X75452380Y-107476190D01*
X75595238Y-107571428D01*
X75690476Y-107666666D01*
X75738095Y-107761904D01*
X75452380Y-106857142D02*
X75452380Y-106190476D01*
X76452380Y-106619047D01*
G04 #@! TO.C,D16*
X76452380Y-131214285D02*
X75452380Y-131214285D01*
X75452380Y-130976190D01*
X75500000Y-130833333D01*
X75595238Y-130738095D01*
X75690476Y-130690476D01*
X75880952Y-130642857D01*
X76023809Y-130642857D01*
X76214285Y-130690476D01*
X76309523Y-130738095D01*
X76404761Y-130833333D01*
X76452380Y-130976190D01*
X76452380Y-131214285D01*
X76452380Y-129690476D02*
X76452380Y-130261904D01*
X76452380Y-129976190D02*
X75452380Y-129976190D01*
X75595238Y-130071428D01*
X75690476Y-130166666D01*
X75738095Y-130261904D01*
X75452380Y-128833333D02*
X75452380Y-129023809D01*
X75500000Y-129119047D01*
X75547619Y-129166666D01*
X75690476Y-129261904D01*
X75880952Y-129309523D01*
X76261904Y-129309523D01*
X76357142Y-129261904D01*
X76404761Y-129214285D01*
X76452380Y-129119047D01*
X76452380Y-128928571D01*
X76404761Y-128833333D01*
X76357142Y-128785714D01*
X76261904Y-128738095D01*
X76023809Y-128738095D01*
X75928571Y-128785714D01*
X75880952Y-128833333D01*
X75833333Y-128928571D01*
X75833333Y-129119047D01*
X75880952Y-129214285D01*
X75928571Y-129261904D01*
X76023809Y-129309523D01*
G04 #@! TO.C,D15*
X73952380Y-81214285D02*
X72952380Y-81214285D01*
X72952380Y-80976190D01*
X73000000Y-80833333D01*
X73095238Y-80738095D01*
X73190476Y-80690476D01*
X73380952Y-80642857D01*
X73523809Y-80642857D01*
X73714285Y-80690476D01*
X73809523Y-80738095D01*
X73904761Y-80833333D01*
X73952380Y-80976190D01*
X73952380Y-81214285D01*
X73952380Y-79690476D02*
X73952380Y-80261904D01*
X73952380Y-79976190D02*
X72952380Y-79976190D01*
X73095238Y-80071428D01*
X73190476Y-80166666D01*
X73238095Y-80261904D01*
X72952380Y-78785714D02*
X72952380Y-79261904D01*
X73428571Y-79309523D01*
X73380952Y-79261904D01*
X73333333Y-79166666D01*
X73333333Y-78928571D01*
X73380952Y-78833333D01*
X73428571Y-78785714D01*
X73523809Y-78738095D01*
X73761904Y-78738095D01*
X73857142Y-78785714D01*
X73904761Y-78833333D01*
X73952380Y-78928571D01*
X73952380Y-79166666D01*
X73904761Y-79261904D01*
X73857142Y-79309523D01*
G04 #@! TO.C,D14*
X73952380Y-103714285D02*
X72952380Y-103714285D01*
X72952380Y-103476190D01*
X73000000Y-103333333D01*
X73095238Y-103238095D01*
X73190476Y-103190476D01*
X73380952Y-103142857D01*
X73523809Y-103142857D01*
X73714285Y-103190476D01*
X73809523Y-103238095D01*
X73904761Y-103333333D01*
X73952380Y-103476190D01*
X73952380Y-103714285D01*
X73952380Y-102190476D02*
X73952380Y-102761904D01*
X73952380Y-102476190D02*
X72952380Y-102476190D01*
X73095238Y-102571428D01*
X73190476Y-102666666D01*
X73238095Y-102761904D01*
X73285714Y-101333333D02*
X73952380Y-101333333D01*
X72904761Y-101571428D02*
X73619047Y-101809523D01*
X73619047Y-101190476D01*
G04 #@! TO.C,D13*
X73966326Y-126463740D02*
X72966326Y-126463740D01*
X72966326Y-126225645D01*
X73013946Y-126082788D01*
X73109184Y-125987550D01*
X73204422Y-125939931D01*
X73394898Y-125892312D01*
X73537755Y-125892312D01*
X73728231Y-125939931D01*
X73823469Y-125987550D01*
X73918707Y-126082788D01*
X73966326Y-126225645D01*
X73966326Y-126463740D01*
X73966326Y-124939931D02*
X73966326Y-125511359D01*
X73966326Y-125225645D02*
X72966326Y-125225645D01*
X73109184Y-125320883D01*
X73204422Y-125416121D01*
X73252041Y-125511359D01*
X72966326Y-124606597D02*
X72966326Y-123987550D01*
X73347279Y-124320883D01*
X73347279Y-124178026D01*
X73394898Y-124082788D01*
X73442517Y-124035169D01*
X73537755Y-123987550D01*
X73775850Y-123987550D01*
X73871088Y-124035169D01*
X73918707Y-124082788D01*
X73966326Y-124178026D01*
X73966326Y-124463740D01*
X73918707Y-124558978D01*
X73871088Y-124606597D01*
G04 #@! TO.C,C7*
X63333333Y-56607142D02*
X63285714Y-56654761D01*
X63142857Y-56702380D01*
X63047619Y-56702380D01*
X62904761Y-56654761D01*
X62809523Y-56559523D01*
X62761904Y-56464285D01*
X62714285Y-56273809D01*
X62714285Y-56130952D01*
X62761904Y-55940476D01*
X62809523Y-55845238D01*
X62904761Y-55750000D01*
X63047619Y-55702380D01*
X63142857Y-55702380D01*
X63285714Y-55750000D01*
X63333333Y-55797619D01*
X63666666Y-55702380D02*
X64333333Y-55702380D01*
X63904761Y-56702380D01*
G04 #@! TO.C,C6*
X75333333Y-56857142D02*
X75285714Y-56904761D01*
X75142857Y-56952380D01*
X75047619Y-56952380D01*
X74904761Y-56904761D01*
X74809523Y-56809523D01*
X74761904Y-56714285D01*
X74714285Y-56523809D01*
X74714285Y-56380952D01*
X74761904Y-56190476D01*
X74809523Y-56095238D01*
X74904761Y-56000000D01*
X75047619Y-55952380D01*
X75142857Y-55952380D01*
X75285714Y-56000000D01*
X75333333Y-56047619D01*
X76190476Y-55952380D02*
X76000000Y-55952380D01*
X75904761Y-56000000D01*
X75857142Y-56047619D01*
X75761904Y-56190476D01*
X75714285Y-56380952D01*
X75714285Y-56761904D01*
X75761904Y-56857142D01*
X75809523Y-56904761D01*
X75904761Y-56952380D01*
X76095238Y-56952380D01*
X76190476Y-56904761D01*
X76238095Y-56857142D01*
X76285714Y-56761904D01*
X76285714Y-56523809D01*
X76238095Y-56428571D01*
X76190476Y-56380952D01*
X76095238Y-56333333D01*
X75904761Y-56333333D01*
X75809523Y-56380952D01*
X75761904Y-56428571D01*
X75714285Y-56523809D01*
G04 #@! TO.C,J12*
X81952380Y-59309523D02*
X82666666Y-59309523D01*
X82809523Y-59357142D01*
X82904761Y-59452380D01*
X82952380Y-59595238D01*
X82952380Y-59690476D01*
X82952380Y-58309523D02*
X82952380Y-58880952D01*
X82952380Y-58595238D02*
X81952380Y-58595238D01*
X82095238Y-58690476D01*
X82190476Y-58785714D01*
X82238095Y-58880952D01*
X82047619Y-57928571D02*
X82000000Y-57880952D01*
X81952380Y-57785714D01*
X81952380Y-57547619D01*
X82000000Y-57452380D01*
X82047619Y-57404761D01*
X82142857Y-57357142D01*
X82238095Y-57357142D01*
X82380952Y-57404761D01*
X82952380Y-57976190D01*
X82952380Y-57357142D01*
G04 #@! TO.C,J13*
X55952380Y-59309523D02*
X56666666Y-59309523D01*
X56809523Y-59357142D01*
X56904761Y-59452380D01*
X56952380Y-59595238D01*
X56952380Y-59690476D01*
X56952380Y-58309523D02*
X56952380Y-58880952D01*
X56952380Y-58595238D02*
X55952380Y-58595238D01*
X56095238Y-58690476D01*
X56190476Y-58785714D01*
X56238095Y-58880952D01*
X55952380Y-57976190D02*
X55952380Y-57357142D01*
X56333333Y-57690476D01*
X56333333Y-57547619D01*
X56380952Y-57452380D01*
X56428571Y-57404761D01*
X56523809Y-57357142D01*
X56761904Y-57357142D01*
X56857142Y-57404761D01*
X56904761Y-57452380D01*
X56952380Y-57547619D01*
X56952380Y-57833333D01*
X56904761Y-57928571D01*
X56857142Y-57976190D01*
G04 #@! TO.C,U3*
X68988095Y-52952380D02*
X68988095Y-53761904D01*
X69035714Y-53857142D01*
X69083333Y-53904761D01*
X69178571Y-53952380D01*
X69369047Y-53952380D01*
X69464285Y-53904761D01*
X69511904Y-53857142D01*
X69559523Y-53761904D01*
X69559523Y-52952380D01*
X69940476Y-52952380D02*
X70559523Y-52952380D01*
X70226190Y-53333333D01*
X70369047Y-53333333D01*
X70464285Y-53380952D01*
X70511904Y-53428571D01*
X70559523Y-53523809D01*
X70559523Y-53761904D01*
X70511904Y-53857142D01*
X70464285Y-53904761D01*
X70369047Y-53952380D01*
X70083333Y-53952380D01*
X69988095Y-53904761D01*
X69940476Y-53857142D01*
G04 #@! TO.C,C3*
X73333333Y-56607142D02*
X73285714Y-56654761D01*
X73142857Y-56702380D01*
X73047619Y-56702380D01*
X72904761Y-56654761D01*
X72809523Y-56559523D01*
X72761904Y-56464285D01*
X72714285Y-56273809D01*
X72714285Y-56130952D01*
X72761904Y-55940476D01*
X72809523Y-55845238D01*
X72904761Y-55750000D01*
X73047619Y-55702380D01*
X73142857Y-55702380D01*
X73285714Y-55750000D01*
X73333333Y-55797619D01*
X73666666Y-55702380D02*
X74285714Y-55702380D01*
X73952380Y-56083333D01*
X74095238Y-56083333D01*
X74190476Y-56130952D01*
X74238095Y-56178571D01*
X74285714Y-56273809D01*
X74285714Y-56511904D01*
X74238095Y-56607142D01*
X74190476Y-56654761D01*
X74095238Y-56702380D01*
X73809523Y-56702380D01*
X73714285Y-56654761D01*
X73666666Y-56607142D01*
G04 #@! TO.C,C4*
X65333333Y-56357142D02*
X65285714Y-56404761D01*
X65142857Y-56452380D01*
X65047619Y-56452380D01*
X64904761Y-56404761D01*
X64809523Y-56309523D01*
X64761904Y-56214285D01*
X64714285Y-56023809D01*
X64714285Y-55880952D01*
X64761904Y-55690476D01*
X64809523Y-55595238D01*
X64904761Y-55500000D01*
X65047619Y-55452380D01*
X65142857Y-55452380D01*
X65285714Y-55500000D01*
X65333333Y-55547619D01*
X66190476Y-55785714D02*
X66190476Y-56452380D01*
X65952380Y-55404761D02*
X65714285Y-56119047D01*
X66333333Y-56119047D01*
G04 #@! TO.C,JP1*
X76666666Y-51952380D02*
X76666666Y-52666666D01*
X76619047Y-52809523D01*
X76523809Y-52904761D01*
X76380952Y-52952380D01*
X76285714Y-52952380D01*
X77142857Y-52952380D02*
X77142857Y-51952380D01*
X77523809Y-51952380D01*
X77619047Y-52000000D01*
X77666666Y-52047619D01*
X77714285Y-52142857D01*
X77714285Y-52285714D01*
X77666666Y-52380952D01*
X77619047Y-52428571D01*
X77523809Y-52476190D01*
X77142857Y-52476190D01*
X78666666Y-52952380D02*
X78095238Y-52952380D01*
X78380952Y-52952380D02*
X78380952Y-51952380D01*
X78285714Y-52095238D01*
X78190476Y-52190476D01*
X78095238Y-52238095D01*
G04 #@! TO.C,L1*
X69583333Y-60102380D02*
X69107142Y-60102380D01*
X69107142Y-59102380D01*
X70440476Y-60102380D02*
X69869047Y-60102380D01*
X70154761Y-60102380D02*
X70154761Y-59102380D01*
X70059523Y-59245238D01*
X69964285Y-59340476D01*
X69869047Y-59388095D01*
G04 #@! TO.C,D1*
X59966326Y-125987550D02*
X58966326Y-125987550D01*
X58966326Y-125749455D01*
X59013946Y-125606597D01*
X59109184Y-125511359D01*
X59204422Y-125463740D01*
X59394898Y-125416121D01*
X59537755Y-125416121D01*
X59728231Y-125463740D01*
X59823469Y-125511359D01*
X59918707Y-125606597D01*
X59966326Y-125749455D01*
X59966326Y-125987550D01*
X59966326Y-124463740D02*
X59966326Y-125035169D01*
X59966326Y-124749455D02*
X58966326Y-124749455D01*
X59109184Y-124844693D01*
X59204422Y-124939931D01*
X59252041Y-125035169D01*
G04 #@! TO.C,D2*
X59952380Y-103238095D02*
X58952380Y-103238095D01*
X58952380Y-103000000D01*
X59000000Y-102857142D01*
X59095238Y-102761904D01*
X59190476Y-102714285D01*
X59380952Y-102666666D01*
X59523809Y-102666666D01*
X59714285Y-102714285D01*
X59809523Y-102761904D01*
X59904761Y-102857142D01*
X59952380Y-103000000D01*
X59952380Y-103238095D01*
X59047619Y-102285714D02*
X59000000Y-102238095D01*
X58952380Y-102142857D01*
X58952380Y-101904761D01*
X59000000Y-101809523D01*
X59047619Y-101761904D01*
X59142857Y-101714285D01*
X59238095Y-101714285D01*
X59380952Y-101761904D01*
X59952380Y-102333333D01*
X59952380Y-101714285D01*
G04 #@! TO.C,D3*
X59952380Y-80738095D02*
X58952380Y-80738095D01*
X58952380Y-80500000D01*
X59000000Y-80357142D01*
X59095238Y-80261904D01*
X59190476Y-80214285D01*
X59380952Y-80166666D01*
X59523809Y-80166666D01*
X59714285Y-80214285D01*
X59809523Y-80261904D01*
X59904761Y-80357142D01*
X59952380Y-80500000D01*
X59952380Y-80738095D01*
X58952380Y-79833333D02*
X58952380Y-79214285D01*
X59333333Y-79547619D01*
X59333333Y-79404761D01*
X59380952Y-79309523D01*
X59428571Y-79261904D01*
X59523809Y-79214285D01*
X59761904Y-79214285D01*
X59857142Y-79261904D01*
X59904761Y-79309523D01*
X59952380Y-79404761D01*
X59952380Y-79690476D01*
X59904761Y-79785714D01*
X59857142Y-79833333D01*
G04 #@! TO.C,D4*
X62452380Y-130738095D02*
X61452380Y-130738095D01*
X61452380Y-130500000D01*
X61500000Y-130357142D01*
X61595238Y-130261904D01*
X61690476Y-130214285D01*
X61880952Y-130166666D01*
X62023809Y-130166666D01*
X62214285Y-130214285D01*
X62309523Y-130261904D01*
X62404761Y-130357142D01*
X62452380Y-130500000D01*
X62452380Y-130738095D01*
X61785714Y-129309523D02*
X62452380Y-129309523D01*
X61404761Y-129547619D02*
X62119047Y-129785714D01*
X62119047Y-129166666D01*
G04 #@! TO.C,D5*
X62452380Y-108238095D02*
X61452380Y-108238095D01*
X61452380Y-108000000D01*
X61500000Y-107857142D01*
X61595238Y-107761904D01*
X61690476Y-107714285D01*
X61880952Y-107666666D01*
X62023809Y-107666666D01*
X62214285Y-107714285D01*
X62309523Y-107761904D01*
X62404761Y-107857142D01*
X62452380Y-108000000D01*
X62452380Y-108238095D01*
X61452380Y-106761904D02*
X61452380Y-107238095D01*
X61928571Y-107285714D01*
X61880952Y-107238095D01*
X61833333Y-107142857D01*
X61833333Y-106904761D01*
X61880952Y-106809523D01*
X61928571Y-106761904D01*
X62023809Y-106714285D01*
X62261904Y-106714285D01*
X62357142Y-106761904D01*
X62404761Y-106809523D01*
X62452380Y-106904761D01*
X62452380Y-107142857D01*
X62404761Y-107238095D01*
X62357142Y-107285714D01*
G04 #@! TO.C,D6*
X62452380Y-85738095D02*
X61452380Y-85738095D01*
X61452380Y-85500000D01*
X61500000Y-85357142D01*
X61595238Y-85261904D01*
X61690476Y-85214285D01*
X61880952Y-85166666D01*
X62023809Y-85166666D01*
X62214285Y-85214285D01*
X62309523Y-85261904D01*
X62404761Y-85357142D01*
X62452380Y-85500000D01*
X62452380Y-85738095D01*
X61452380Y-84309523D02*
X61452380Y-84500000D01*
X61500000Y-84595238D01*
X61547619Y-84642857D01*
X61690476Y-84738095D01*
X61880952Y-84785714D01*
X62261904Y-84785714D01*
X62357142Y-84738095D01*
X62404761Y-84690476D01*
X62452380Y-84595238D01*
X62452380Y-84404761D01*
X62404761Y-84309523D01*
X62357142Y-84261904D01*
X62261904Y-84214285D01*
X62023809Y-84214285D01*
X61928571Y-84261904D01*
X61880952Y-84309523D01*
X61833333Y-84404761D01*
X61833333Y-84595238D01*
X61880952Y-84690476D01*
X61928571Y-84738095D01*
X62023809Y-84785714D01*
G04 #@! TO.C,D7*
X64952380Y-126238095D02*
X63952380Y-126238095D01*
X63952380Y-126000000D01*
X64000000Y-125857142D01*
X64095238Y-125761904D01*
X64190476Y-125714285D01*
X64380952Y-125666666D01*
X64523809Y-125666666D01*
X64714285Y-125714285D01*
X64809523Y-125761904D01*
X64904761Y-125857142D01*
X64952380Y-126000000D01*
X64952380Y-126238095D01*
X63952380Y-125333333D02*
X63952380Y-124666666D01*
X64952380Y-125095238D01*
G04 #@! TO.C,D8*
X64952380Y-103238095D02*
X63952380Y-103238095D01*
X63952380Y-103000000D01*
X64000000Y-102857142D01*
X64095238Y-102761904D01*
X64190476Y-102714285D01*
X64380952Y-102666666D01*
X64523809Y-102666666D01*
X64714285Y-102714285D01*
X64809523Y-102761904D01*
X64904761Y-102857142D01*
X64952380Y-103000000D01*
X64952380Y-103238095D01*
X64380952Y-102095238D02*
X64333333Y-102190476D01*
X64285714Y-102238095D01*
X64190476Y-102285714D01*
X64142857Y-102285714D01*
X64047619Y-102238095D01*
X64000000Y-102190476D01*
X63952380Y-102095238D01*
X63952380Y-101904761D01*
X64000000Y-101809523D01*
X64047619Y-101761904D01*
X64142857Y-101714285D01*
X64190476Y-101714285D01*
X64285714Y-101761904D01*
X64333333Y-101809523D01*
X64380952Y-101904761D01*
X64380952Y-102095238D01*
X64428571Y-102190476D01*
X64476190Y-102238095D01*
X64571428Y-102285714D01*
X64761904Y-102285714D01*
X64857142Y-102238095D01*
X64904761Y-102190476D01*
X64952380Y-102095238D01*
X64952380Y-101904761D01*
X64904761Y-101809523D01*
X64857142Y-101761904D01*
X64761904Y-101714285D01*
X64571428Y-101714285D01*
X64476190Y-101761904D01*
X64428571Y-101809523D01*
X64380952Y-101904761D01*
G04 #@! TO.C,D9*
X64952380Y-80738095D02*
X63952380Y-80738095D01*
X63952380Y-80500000D01*
X64000000Y-80357142D01*
X64095238Y-80261904D01*
X64190476Y-80214285D01*
X64380952Y-80166666D01*
X64523809Y-80166666D01*
X64714285Y-80214285D01*
X64809523Y-80261904D01*
X64904761Y-80357142D01*
X64952380Y-80500000D01*
X64952380Y-80738095D01*
X64952380Y-79690476D02*
X64952380Y-79500000D01*
X64904761Y-79404761D01*
X64857142Y-79357142D01*
X64714285Y-79261904D01*
X64523809Y-79214285D01*
X64142857Y-79214285D01*
X64047619Y-79261904D01*
X64000000Y-79309523D01*
X63952380Y-79404761D01*
X63952380Y-79595238D01*
X64000000Y-79690476D01*
X64047619Y-79738095D01*
X64142857Y-79785714D01*
X64380952Y-79785714D01*
X64476190Y-79738095D01*
X64523809Y-79690476D01*
X64571428Y-79595238D01*
X64571428Y-79404761D01*
X64523809Y-79309523D01*
X64476190Y-79261904D01*
X64380952Y-79214285D01*
G04 #@! TO.C,D10*
X67452380Y-131214285D02*
X66452380Y-131214285D01*
X66452380Y-130976190D01*
X66500000Y-130833333D01*
X66595238Y-130738095D01*
X66690476Y-130690476D01*
X66880952Y-130642857D01*
X67023809Y-130642857D01*
X67214285Y-130690476D01*
X67309523Y-130738095D01*
X67404761Y-130833333D01*
X67452380Y-130976190D01*
X67452380Y-131214285D01*
X67452380Y-129690476D02*
X67452380Y-130261904D01*
X67452380Y-129976190D02*
X66452380Y-129976190D01*
X66595238Y-130071428D01*
X66690476Y-130166666D01*
X66738095Y-130261904D01*
X66452380Y-129071428D02*
X66452380Y-128976190D01*
X66500000Y-128880952D01*
X66547619Y-128833333D01*
X66642857Y-128785714D01*
X66833333Y-128738095D01*
X67071428Y-128738095D01*
X67261904Y-128785714D01*
X67357142Y-128833333D01*
X67404761Y-128880952D01*
X67452380Y-128976190D01*
X67452380Y-129071428D01*
X67404761Y-129166666D01*
X67357142Y-129214285D01*
X67261904Y-129261904D01*
X67071428Y-129309523D01*
X66833333Y-129309523D01*
X66642857Y-129261904D01*
X66547619Y-129214285D01*
X66500000Y-129166666D01*
X66452380Y-129071428D01*
G04 #@! TO.C,D11*
X67452380Y-108714285D02*
X66452380Y-108714285D01*
X66452380Y-108476190D01*
X66500000Y-108333333D01*
X66595238Y-108238095D01*
X66690476Y-108190476D01*
X66880952Y-108142857D01*
X67023809Y-108142857D01*
X67214285Y-108190476D01*
X67309523Y-108238095D01*
X67404761Y-108333333D01*
X67452380Y-108476190D01*
X67452380Y-108714285D01*
X67452380Y-107190476D02*
X67452380Y-107761904D01*
X67452380Y-107476190D02*
X66452380Y-107476190D01*
X66595238Y-107571428D01*
X66690476Y-107666666D01*
X66738095Y-107761904D01*
X67452380Y-106238095D02*
X67452380Y-106809523D01*
X67452380Y-106523809D02*
X66452380Y-106523809D01*
X66595238Y-106619047D01*
X66690476Y-106714285D01*
X66738095Y-106809523D01*
G04 #@! TO.C,D12*
X67452380Y-86142710D02*
X66452380Y-86142710D01*
X66452380Y-85904615D01*
X66500000Y-85761758D01*
X66595238Y-85666520D01*
X66690476Y-85618901D01*
X66880952Y-85571282D01*
X67023809Y-85571282D01*
X67214285Y-85618901D01*
X67309523Y-85666520D01*
X67404761Y-85761758D01*
X67452380Y-85904615D01*
X67452380Y-86142710D01*
X67452380Y-84618901D02*
X67452380Y-85190329D01*
X67452380Y-84904615D02*
X66452380Y-84904615D01*
X66595238Y-84999853D01*
X66690476Y-85095091D01*
X66738095Y-85190329D01*
X66547619Y-84237948D02*
X66500000Y-84190329D01*
X66452380Y-84095091D01*
X66452380Y-83856996D01*
X66500000Y-83761758D01*
X66547619Y-83714139D01*
X66642857Y-83666520D01*
X66738095Y-83666520D01*
X66880952Y-83714139D01*
X67452380Y-84285567D01*
X67452380Y-83666520D01*
G04 #@! TD*
M02*
